<svg width="210" height="28" viewBox="0 0 210 28" fill="none" xmlns="http://www.w3.org/2000/svg">
<path fill-rule="evenodd" clip-rule="evenodd" d="M164.42 20.58V21.84H169.102V20.58H168.826C168.826 20.58 168.127 20.5828 167.862 20.37C167.598 20.1572 167.636 19.5829 167.806 19.1582L169.033 16.38L174.197 16.3636C174.757 17.7661 175.3 19.1736 175.849 20.58H174.059V21.84H179.843V20.58C179.843 20.58 179.081 20.6095 178.771 20.4197C178.266 20.1092 177.723 18.5147 177.723 18.5147C176.097 14.4889 172.751 6.44 172.751 6.44H171.374C171.374 6.44 167.908 15.2747 165.918 19.5836C165.918 19.5836 165.452 20.58 164.42 20.58ZM173.646 15.12L171.58 9.64358L169.515 15.12H173.646Z" fill="#EEEEEE"/>
<path fill-rule="evenodd" clip-rule="evenodd" d="M77.2667 9.94001C78.4767 8.07899 80.4679 6.84364 82.6228 6.50147C85.4557 6.05165 88.4844 7.03536 90.2615 9.38001C92.8547 12.8015 91.882 18.2833 88.4064 20.6696C87.3294 21.4092 86.107 21.8551 84.8261 22.0585C83.8272 22.2172 82.7776 22.1102 81.7966 21.8869C80.8283 21.6664 79.8614 21.2624 79.0425 20.6891C75.7427 18.3788 75.1053 13.2645 77.2667 9.94001ZM78.9632 16.24C78.3428 12.7738 79.3529 8.3934 83.3114 7.76147C85.3694 7.43293 87.3104 8.65703 88.2168 10.5C89.8178 13.755 89.0316 19.9605 84.8261 20.6744C84.2599 20.7705 83.606 20.7586 83.0359 20.6956C80.7904 20.4474 79.3411 18.3511 78.9632 16.24Z" fill="white"/>
<path fill-rule="evenodd" clip-rule="evenodd" d="M35.8032 20.58V21.84H40.4852V20.58C40.4132 20.58 40.3365 20.5828 40.257 20.5856C39.9318 20.5975 39.5628 20.6109 39.3041 20.4366C38.8356 20.1212 39.0199 19.5993 39.1895 19.1745C39.5583 18.2512 40.4163 16.38 40.4163 16.38H45.5803C45.8894 17.1287 46.1808 17.8847 46.4723 18.6409L46.4732 18.643C46.7227 19.2902 46.9721 19.9374 47.2327 20.58C46.6361 20.5786 46.0392 20.578 45.4426 20.58V21.84H51.2262V20.58C51.2262 20.58 50.4651 20.6259 50.1555 20.4361C49.6492 20.1256 49.1065 18.5311 49.1065 18.5311C47.4805 14.5054 44.1344 6.45642 44.1344 6.45642H42.7573C42.7573 6.45642 39.2913 15.2911 37.3013 19.6C37.3013 19.6 36.5689 20.5708 35.8032 20.58ZM40.8983 15.12H45.0295L42.9639 9.66L40.8983 15.12Z" fill="white"/>
<path fill-rule="evenodd" clip-rule="evenodd" d="M94.3724 10.64C95.5286 8.4313 97.6893 6.88609 100.112 6.50147C101.264 6.31847 102.563 6.38578 103.692 6.67312C108.547 7.90928 110.568 13.7281 108.25 18.06C107.056 20.2906 104.749 21.7048 102.315 22.0601C101.267 22.2131 100.173 22.1087 99.1476 21.8543C98.1587 21.6089 97.2247 21.1711 96.3935 20.574C93.4178 18.436 92.7005 13.8341 94.3724 10.64ZM100.8 7.76147C94.0437 8.84005 94.9897 21.918 102.315 20.6744C106.535 19.958 107.31 13.7618 105.706 10.5C104.799 8.65703 102.858 7.43293 100.8 7.76147Z" fill="white"/>
<path fill-rule="evenodd" clip-rule="evenodd" d="M135.364 21.8236V20.5636C136.13 20.5544 136.862 19.5836 136.862 19.5836C138.852 15.2747 142.318 6.44 142.318 6.44H143.695C143.695 6.44 147.041 14.4889 148.668 18.5147C148.668 18.5147 149.21 20.1092 149.716 20.4197C150.025 20.6095 150.787 20.5636 150.787 20.5636V21.8236H145.003V20.5636C145.6 20.5617 146.197 20.5622 146.794 20.5636C146.533 19.9209 146.284 19.2735 146.033 18.6263V18.6248V18.6245C145.741 17.8683 145.45 17.1123 145.141 16.3636H139.977C139.977 16.3636 139.119 18.2347 138.75 19.1582C138.581 19.5829 138.396 20.1048 138.864 20.4203C139.123 20.5946 139.492 20.5811 139.817 20.5692C139.897 20.5663 139.974 20.5635 140.046 20.5636V21.8236H135.364ZM142.525 9.64358L144.59 15.1036H140.459L142.525 9.64358Z" fill="white"/>
<path fill-rule="evenodd" clip-rule="evenodd" d="M63.2064 20.58V7.83999H61.554V6.57999L65.0643 6.55983C65.0643 6.55983 68.3016 6.48545 69.8163 6.91994C72.0779 7.56871 73.3865 10.1632 72.0237 12.3199C71.4755 13.1875 70.6676 13.5527 69.7909 13.9491L69.7901 13.9495L69.7875 13.9507C69.7513 13.9671 69.7149 13.9835 69.6786 14C70.6574 14.0813 71.6947 14.3983 72.3874 15.1459C74.2247 17.1289 73.3532 20.2233 71.0556 21.21C69.3728 21.9328 65.3448 21.8789 65.3448 21.8789L61.4163 21.84V20.58H63.2064ZM65.6851 13.44V7.83999C65.8439 7.83999 66.0071 7.83684 66.1729 7.83364C67.1349 7.81503 68.1842 7.79474 68.9771 8.37958C70.3171 9.36804 70.3389 12.1412 68.9771 13.09C68.3015 13.5607 65.6851 13.44 65.6851 13.44ZM65.6851 20.58V14.7C65.6851 14.7 66.0383 14.6973 66.2169 14.6947C66.2841 14.6951 66.3516 14.6952 66.4192 14.6954H66.4199C67.4819 14.6978 68.6035 14.7003 69.5285 15.3255C71.0274 16.3388 70.7781 19.3907 69.6786 20.02C68.579 20.6493 66.649 20.58 66.649 20.58H65.6851Z" fill="white"/>
<path d="M111.403 7.84002V6.58002H117.6V7.84002H115.81V13.58C116.58 13.521 117.038 13.0449 117.544 12.5199C117.607 12.4538 117.672 12.3869 117.738 12.32L120.492 9.52002C120.51 9.50127 120.529 9.48265 120.547 9.46414C120.573 9.43756 120.599 9.4112 120.625 9.38497L120.628 9.38251C121.082 8.92552 121.491 8.51353 121.593 7.84002H120.216V6.58002H125.449V7.84002C124.229 7.84097 123.644 8.42811 122.892 9.18273C122.743 9.33216 122.588 9.48817 122.42 9.64749C121.998 10.0471 121.572 10.4436 121.146 10.8403L121.145 10.8407C120.227 11.6952 119.308 12.5506 118.426 13.44C119.651 14.3247 120.696 15.6568 121.699 16.9355L121.699 16.9358L121.699 16.9361L121.699 16.9362C122.12 17.4724 122.533 17.9994 122.949 18.48C123.091 18.6433 123.223 18.804 123.351 18.9592L123.351 18.9597C124.093 19.8592 124.686 20.5789 126 20.58V21.84H122.144C121.961 21.1729 121.47 20.6387 120.997 20.1246C120.879 19.9957 120.762 19.8681 120.651 19.74C120.009 18.9983 119.372 18.2513 118.736 17.5042L118.735 17.5035L118.735 17.5034C118.416 17.1286 118.096 16.754 117.777 16.38C117.687 16.2747 117.598 16.1674 117.511 16.0604L117.51 16.0603C117.031 15.4772 116.56 14.9033 115.81 14.7V20.58H117.6V21.84H111.403V20.58H113.331V7.84002H111.403Z" fill="white"/>
<path fill-rule="evenodd" clip-rule="evenodd" d="M152.439 7.84002V6.58002H158.234C159.757 6.58 161.332 6.58 162.63 7.53053C164.876 9.17798 164.618 13.0634 162.354 14.5648C160.849 15.5631 159.093 15.5526 157.369 15.5421C157.194 15.5411 157.019 15.54 156.846 15.54V20.58H159.049V21.84H152.439V20.58H154.367V7.84002H152.439ZM156.846 14.28V7.84002C157.08 7.84002 157.328 7.82945 157.583 7.81861C158.558 7.77706 159.63 7.73132 160.421 8.25926C162.01 9.32137 161.902 12.6408 160.414 13.7405C159.582 14.3548 158.489 14.3224 157.474 14.2925C157.26 14.2862 157.05 14.28 156.846 14.28Z" fill="white"/>
<path fill-rule="evenodd" clip-rule="evenodd" d="M181.633 6.58001C183.729 6.58025 185.823 6.58501 187.919 6.5795C189.227 6.57607 190.556 6.57257 191.685 7.35001C194.587 9.34851 193.196 14.3926 189.757 14.7C190.9 16.3498 192.348 17.7681 193.588 19.3402C194.132 20.0295 194.558 20.5682 195.541 20.58C195.602 21.0153 195.586 21.4038 195.541 21.84H192.098C191.954 21.2696 191.267 20.3566 191.267 20.3566L188.763 16.8962C188.763 16.8962 187.623 15.12 186.797 15.12C185.971 15.12 186.039 15.12 186.039 15.12V20.58H187.967V21.84H181.633C181.633 21.84 181.634 21 181.633 20.58H183.561V7.84001C182.918 7.84001 181.633 7.84001 181.633 7.84001C181.63 7.42 181.633 7.00003 181.633 6.58001ZM186.039 14.14V7.84001C186.039 7.84001 188.793 7.75673 189.62 8.33001C191.242 9.45556 190.94 12.3709 189.476 13.4908C188.581 14.1756 186.513 14.1448 186.513 14.1448L186.039 14.14Z" fill="white"/>
<path d="M196.78 6.58002H209.725C209.851 7.60301 210 8.62658 210 9.66002C209.61 9.65998 209.048 9.75594 208.711 9.51612C208.193 9.14878 208.175 8.33047 207.614 7.98391C206.885 7.5344 204.492 7.84002 204.492 7.84002V20.58H206.42V21.84H200.085V20.58H202.013V7.84002C202.013 7.84002 199.62 7.53706 198.875 7.98391C198.309 8.32373 198.313 9.14797 197.794 9.51612C197.404 9.79274 196.817 9.66002 196.367 9.66002C196.495 8.63308 196.594 7.59813 196.78 6.58002Z" fill="white"/>
<path fill-rule="evenodd" clip-rule="evenodd" d="M164.42 20.58V21.84H169.102V20.58H168.826C168.826 20.58 168.127 20.5828 167.862 20.37C167.598 20.1572 167.636 19.5829 167.806 19.1582L169.033 16.38L174.197 16.3636C174.757 17.7661 175.3 19.1736 175.849 20.58H174.059V21.84H179.843V20.58C179.843 20.58 179.081 20.6095 178.771 20.4197C178.266 20.1092 177.723 18.5147 177.723 18.5147C176.097 14.4889 172.751 6.44 172.751 6.44H171.374C171.374 6.44 167.908 15.2747 165.918 19.5836C165.918 19.5836 165.452 20.58 164.42 20.58ZM173.646 15.12L171.58 9.64358L169.515 15.12H173.646Z" fill="white"/>
<path d="M13.1508 28C20.4138 28 26.3016 22.0141 26.3016 14.63C26.3016 7.24596 20.4138 1.26001 13.1508 1.26001C5.88782 1.26001 0 7.24596 0 14.63C0 22.0141 5.88782 28 13.1508 28Z" fill="#E8E4D2"/>
<path d="M14.3214 12.88C15.0526 12.6095 15.7389 12.1962 16.3869 11.7595C20.2647 9.14614 20.2128 4.17507 19.4164 0C17.486 0.915222 15.7798 4.08033 15.0848 6.02C14.2986 8.21423 14.3214 10.5803 14.3214 12.88Z" fill="#998D50"/>
<path d="M10.1902 16.94C11.0293 16.3391 11.8769 15.5039 12.3414 14.56C13.2682 12.6771 12.7096 10.2637 12.6689 8.26001C11.9701 8.62324 11.7197 9.30511 11.2617 10.08C9.88734 12.405 10.1902 14.535 10.1902 16.94Z" fill="#998D50"/>
<path d="M11.4294 17.64C13.4177 17.7994 15.5175 17.981 17.4885 17.5465C20.144 16.9608 22.5458 14.902 23.9606 12.6C19.9616 12.4254 15.4565 12.4078 12.6349 15.8201C12.1646 16.3888 11.6934 16.9422 11.4294 17.64Z" fill="#998D50"/>
<path d="M7.02295 18.9C9.57624 17.9158 9.23311 15.0109 8.95081 12.74C7.05892 13.7369 7.02295 17.0423 7.02295 18.9Z" fill="#998D50"/>
<path d="M7.43604 19.88C8.85822 20.482 10.1635 21.2199 11.7049 21.495C13.4604 21.8084 15.3516 21.4799 17.0754 21.14C15.525 19.5376 12.5661 18.2039 10.3278 18.3526C9.28744 18.4218 7.93747 18.8964 7.43604 19.88Z" fill="#998D50"/>
<path d="M3.85571 19.6C4.4567 21.6763 6.84036 22.6386 8.81309 22.68C8.15366 20.5797 5.95929 19.2032 3.85571 19.6Z" fill="#998D50"/>
</svg>
