<svg width="91" height="30" viewBox="0 0 91 30" fill="none" xmlns="http://www.w3.org/2000/svg">
<path d="M18.3938 21H16V6H21.747C25.1666 6 27 7.74776 27 10.5615C27 13.3752 25.1666 15.1229 21.747 15.1229H18.3938V21ZM18.3938 12.8278H21.69C23.6373 12.8278 24.5207 12.1171 24.5207 10.5615C24.5207 9.00576 23.6468 8.28553 21.69 8.28553H18.3938V12.8278Z" fill="white"/>
<path d="M35.6764 20.7358V19.4733C34.9384 20.403 33.8513 21 32.3255 21C29.3436 21 27 18.7002 27 15.5C27 12.2998 29.3436 10 32.3255 10C33.8513 10 34.9284 10.6068 35.6764 11.5365V10.2642H38V20.726H35.6764V20.7358ZM29.3835 15.5098C29.3835 17.3399 30.6002 18.8666 32.6047 18.8666C34.5195 18.8666 35.8259 17.428 35.8259 15.5098C35.8259 13.6014 34.5195 12.153 32.6047 12.153C30.6002 12.153 29.3835 13.6797 29.3835 15.5098Z" fill="white"/>
<path d="M49 11.654L47.5952 13.2198C46.8928 12.525 46.153 12.1335 45.1977 12.1335C43.512 12.1335 42.2383 13.5134 42.2383 15.4903C42.2383 17.4672 43.512 18.847 45.1977 18.847C46.1623 18.847 47.0146 18.3773 47.6514 17.7509L49 19.3265C48.0728 20.4324 46.7711 21 45.2632 21C42.0884 21 40 18.6317 40 15.5001C40 12.3684 42.0884 10.0001 45.2632 10.0001C46.7711 9.99034 48.1197 10.5579 49 11.654Z" fill="white"/>
<path d="M52 16.5236V21H50V5.05955L52 5V14.3697" fill="white"/>
<path d="M62.2557 21V12.9964H60V11.0259H62.2557V8H64.7337V11.0259H67V12.9964H64.7337V21H62.2557Z" fill="white"/>
<path d="M53 15.1807L53.8252 14.1714L57.1734 10H59.9526L55.7033 15.1704L60 21H57.1924L53.8157 16.3549L53 15.1807Z" fill="white"/>
<path d="M74.1927 16.3549L70.8114 21H68L72.2931 15.1704L68.038 10H70.8304L74.1831 14.1714L75 15.1807L74.1927 16.3549Z" fill="white"/>
<path d="M75 25H16V23H75V25Z" fill="white"/>
</svg>
