<svg width="91" height="30" viewBox="0 0 91 30" fill="none" xmlns="http://www.w3.org/2000/svg">
<path d="M3.822 24.4487H0V0.758362H9.17583C14.6358 0.758362 17.563 3.5187 17.563 7.96253C17.563 12.4064 14.6358 15.1667 9.17583 15.1667H3.822V24.4487ZM3.822 11.5419H9.08483C12.194 11.5419 13.6045 10.4195 13.6045 7.96253C13.6045 5.50553 12.2092 4.36803 9.08483 4.36803H3.822V11.5419Z" fill="white"/>
<path d="M30.9553 24.4487V22.4922C29.833 23.933 28.1798 24.8582 25.8593 24.8582C21.3245 24.8582 17.7603 21.294 17.7603 16.3345C17.7603 11.375 21.3245 7.81085 25.8593 7.81085C28.1798 7.81085 29.8178 8.75119 30.9553 10.192V8.22035H34.4891V24.4335H30.9553V24.4487ZM21.3851 16.3497C21.3851 19.1859 23.2355 21.5519 26.284 21.5519C29.196 21.5519 31.1828 19.3224 31.1828 16.3497C31.1828 13.3922 29.196 11.1475 26.284 11.1475C23.2355 11.1475 21.3851 13.5135 21.3851 16.3497Z" fill="white"/>
<path d="M50.9145 10.3892L48.6395 12.8158C47.502 11.739 46.3039 11.1323 44.7569 11.1323C42.0269 11.1323 39.9642 13.2708 39.9642 16.3345C39.9642 19.3982 42.0269 21.5367 44.7569 21.5367C46.319 21.5367 47.6992 20.8087 48.7305 19.838L50.9145 22.2798C49.413 23.9937 47.3049 24.8733 44.863 24.8733C39.7215 24.8733 36.3394 21.203 36.3394 16.3497C36.3394 11.4963 39.7215 7.826 44.863 7.826C47.3049 7.81083 49.4889 8.6905 50.9145 10.3892Z" fill="white"/>
<path d="M55.8892 17.6085V24.4487H52.3402V0.0910009L55.8892 0V14.3173" fill="white"/>
<path d="M71.9658 24.4487V11.4508H68.7353V8.25067H71.9658V3.33667H75.5148V8.25067H78.7605V11.4508H75.5148V24.4487H71.9658Z" fill="white"/>
<path d="M56.5564 15.8795L57.8759 14.3932L63.2297 8.25067H67.6736L60.8789 15.8643L67.7494 24.4487H63.2601L57.8607 17.6085L56.5564 15.8795Z" fill="white"/>
<path d="M89.7108 17.6085L84.3115 24.4487H79.8221L86.6775 15.8643L79.8828 8.25067H84.3418L89.6956 14.3932L91 15.8795L89.7108 17.6085Z" fill="white"/>
<path d="M91 29.6356H0V27.2848H91V29.6356Z" fill="white"/>
</svg>
