<svg width="150" height="33" viewBox="0 0 150 33" fill="none" xmlns="http://www.w3.org/2000/svg">
<path d="M38.0899 20.4922C38.3272 20.8735 38.6546 21.1892 39.0427 21.4109C39.4566 21.6453 39.9057 21.8093 40.3723 21.8965C40.8758 21.9968 41.3878 22.0466 41.901 22.0453C42.3254 22.0444 42.7493 22.0152 43.1699 21.9578C43.5909 21.9055 44.0031 21.7966 44.3956 21.634C44.7567 21.4854 45.0743 21.246 45.318 20.9384C45.5698 20.6035 45.6985 20.1905 45.6818 19.7703C45.6958 19.4782 45.633 19.1876 45.4999 18.9279C45.3668 18.6682 45.1681 18.4486 44.9239 18.2916C44.3392 17.9218 43.7005 17.6472 43.0314 17.4778C42.2749 17.2708 41.4535 17.0841 40.5671 16.9178C39.732 16.7607 38.9139 16.5219 38.1246 16.2047C37.4073 15.9252 36.7618 15.4855 36.2364 14.9185C35.7018 14.276 35.432 13.4506 35.4828 12.6129C35.4633 11.9143 35.647 11.2253 36.0111 10.6311C36.3581 10.0841 36.823 9.62346 37.371 9.28359C37.9514 8.92754 38.5845 8.66759 39.2462 8.5136C39.9242 8.3488 40.619 8.2651 41.3164 8.26423C42.1387 8.25844 42.9596 8.33316 43.7676 8.48735C44.4687 8.61834 45.1398 8.87941 45.7468 9.25734C46.3233 9.62342 46.7974 10.1325 47.124 10.7361C47.494 11.4555 47.7011 12.249 47.7303 13.0592H45.1621C45.1399 12.6215 45.004 12.1975 44.768 11.8298C44.5424 11.5052 44.2461 11.2373 43.9018 11.0467C43.5482 10.8426 43.1655 10.6951 42.7672 10.6092C42.3543 10.5207 41.9333 10.4767 41.5113 10.4779C41.1213 10.4779 40.7319 10.5072 40.3463 10.5654C39.9757 10.6178 39.6141 10.7224 39.2722 10.8761C38.9682 11.0094 38.6986 11.2115 38.484 11.4667C38.2729 11.7409 38.1655 12.0821 38.1809 12.4292C38.1757 12.6329 38.215 12.8353 38.2958 13.022C38.3766 13.2087 38.4971 13.3753 38.6486 13.5098C39.0036 13.8219 39.4135 14.0638 39.8569 14.2229C40.3835 14.4236 40.9251 14.5816 41.4766 14.6954C42.0829 14.8237 42.6878 14.9564 43.2912 15.0935C43.8946 15.2306 44.5255 15.3983 45.1838 15.5966C45.7627 15.7763 46.3127 16.0401 46.8165 16.3797C47.2835 16.6979 47.6753 17.1162 47.9641 17.6047C48.2717 18.1643 48.4215 18.7983 48.3972 19.4378C48.4282 20.248 48.2234 21.0495 47.8082 21.7434C47.4176 22.3528 46.8891 22.8596 46.2665 23.2221C45.5957 23.6095 44.8628 23.8746 44.1011 24.0052C43.3183 24.1522 42.5239 24.2268 41.7278 24.2284C40.8934 24.232 40.0612 24.1425 39.2462 23.9615C38.5032 23.8016 37.7956 23.505 37.1588 23.0865C36.5537 22.6815 36.0556 22.1334 35.708 21.4897C35.3226 20.7449 35.115 19.9194 35.1017 19.0791H37.6915C37.6951 19.5779 37.8328 20.0663 38.0899 20.4922V20.4922Z" fill="white"/>
<path d="M53.9687 8.61841H51.3962V23.9044H53.9687V8.61841Z" fill="white"/>
<path d="M64.6414 8.61852V10.8366H61.5102V20.3302C61.5033 20.5687 61.528 20.8071 61.5838 21.039C61.6267 21.2076 61.7281 21.3551 61.8697 21.4546C62.0478 21.5657 62.2498 21.6318 62.4586 21.6471C62.7853 21.6799 63.1135 21.6945 63.4417 21.6908H64.6197V23.9089H62.6535C62.0806 23.9172 61.508 23.8733 60.9429 23.7777C60.5265 23.7138 60.1323 23.547 59.7952 23.292C59.4853 23.0286 59.2593 22.6785 59.1456 22.2858C58.9878 21.7286 58.9163 21.1501 58.9334 20.5708V10.8366H56.3132V8.61852H58.9724V4.03796H61.5102V8.61852H64.6414Z" fill="white"/>
<path d="M78.5535 22.9291C77.2623 23.8384 75.7134 24.299 74.1404 24.2416C73.028 24.2682 71.9217 24.0673 70.888 23.6509C70.0045 23.2813 69.2142 22.7162 68.5754 21.9972C67.9343 21.2595 67.4547 20.3933 67.1679 19.4554C66.8455 18.4103 66.6677 17.3253 66.6395 16.2311C66.6269 15.1418 66.8119 14.0594 67.1852 13.0373C67.5272 12.1073 68.0466 11.2541 68.714 10.5261C69.366 9.81208 70.158 9.24293 71.0396 8.85491C71.9716 8.45386 72.9759 8.25274 73.9889 8.26429C75.1986 8.21857 76.3974 8.51073 77.4535 9.10866C78.3424 9.64312 79.098 10.3765 79.6622 11.2524C80.2158 12.1187 80.6049 13.0815 80.8099 14.0917C81.0167 15.0526 81.104 16.0358 81.0697 17.0185H69.3766C69.3531 17.6635 69.435 18.308 69.6191 18.926C69.7903 19.5152 70.0858 20.06 70.4853 20.5229C70.9115 21.0028 71.4382 21.3809 72.027 21.6297C72.7267 21.9215 73.4789 22.0631 74.2357 22.0453C75.1823 22.0863 76.1179 21.8278 76.9121 21.306C77.6342 20.7646 78.1238 19.9648 78.2807 19.0704H80.8185C80.5792 20.6017 79.7687 21.9823 78.5535 22.9291V22.9291ZM77.9342 13.1117C77.7142 12.5965 77.3964 12.1298 76.9988 11.738C76.5961 11.3469 76.1246 11.0353 75.6086 10.8193C75.048 10.5877 74.4472 10.4716 73.8416 10.478C73.226 10.4696 72.6149 10.5856 72.0443 10.8193C71.5281 11.0335 71.0597 11.3504 70.6672 11.7511C70.2818 12.1477 69.9733 12.6136 69.7577 13.1248C69.5336 13.6554 69.4003 14.2205 69.3636 14.7961H78.3456C78.3058 14.2163 78.1665 13.6478 77.9342 13.1161V13.1117Z" fill="white"/>
<path d="M86.3838 8.61875V10.6881H86.4444C86.8629 9.84589 87.5736 9.18872 88.4409 8.84187C89.3901 8.44881 90.4078 8.25242 91.4335 8.26438C92.5224 8.23915 93.603 8.46195 94.595 8.91624C95.4615 9.32306 96.2266 9.92107 96.834 10.6662C97.4394 11.4254 97.8965 12.294 98.1809 13.2256C98.4793 14.218 98.6254 15.2508 98.614 16.288C98.6208 17.3249 98.4748 18.357 98.1809 19.3505C97.9109 20.2753 97.4587 21.1354 96.8513 21.8792C96.2422 22.6105 95.4766 23.1924 94.6123 23.581C93.625 24.0134 92.557 24.2253 91.4812 24.2023C91.0456 24.1987 90.6111 24.1592 90.1819 24.0841C89.7012 24.0038 89.2296 23.8748 88.7744 23.6991C88.3201 23.5269 87.8905 23.2945 87.4968 23.0079C87.0801 22.6996 86.7258 22.3135 86.4531 21.8704H86.3925V29.7453H83.8156V8.61875H86.3838ZM95.6214 14.0437C95.445 13.3887 95.1515 12.7719 94.7552 12.2237C94.356 11.6877 93.8385 11.2533 93.2438 10.955C92.5693 10.6262 91.8271 10.4642 91.0784 10.4825C90.3119 10.459 89.552 10.6321 88.8697 10.9856C88.2838 11.3039 87.7773 11.7527 87.3885 12.2981C86.9991 12.8553 86.717 13.4816 86.557 14.1443C86.3867 14.831 86.3009 15.5363 86.3015 16.2443C86.2983 16.9823 86.39 17.7176 86.5744 18.4317C86.7416 19.0982 87.0358 19.7253 87.4405 20.2779C87.8453 20.8198 88.3685 21.26 88.9693 21.5642C89.6764 21.9069 90.4546 22.0735 91.2386 22.0498C92.0096 22.0765 92.7744 21.9033 93.4603 21.5467C94.0371 21.2323 94.5303 20.7821 94.8981 20.2342C95.2721 19.6577 95.5392 19.0173 95.6863 18.3442C95.8486 17.6266 95.9299 16.8928 95.9289 16.1568C95.9268 15.4415 95.8247 14.7301 95.6257 14.0437H95.6214Z" fill="white"/>
<path d="M101.292 13.1291C101.595 12.189 102.089 11.3232 102.743 10.5872C103.409 9.85266 104.225 9.27213 105.134 8.88539C107.239 8.05773 109.576 8.05773 111.682 8.88539C112.584 9.27527 113.393 9.85552 114.055 10.5872C114.709 11.3232 115.203 12.189 115.506 13.1291C115.833 14.1459 115.996 15.2097 115.987 16.279C115.997 17.3441 115.834 18.4037 115.506 19.4159C115.2 20.351 114.706 21.212 114.055 21.9446C113.395 22.6742 112.585 23.2491 111.682 23.6289C109.572 24.4358 107.243 24.4358 105.134 23.6289C104.224 23.2523 103.407 22.6771 102.743 21.9446C102.091 21.2122 101.597 20.3511 101.292 19.4159C100.962 18.404 100.798 17.3444 100.807 16.279C100.799 15.2095 100.963 14.1456 101.292 13.1291V13.1291ZM103.891 18.7465C104.112 19.4134 104.467 20.0271 104.934 20.549C105.37 21.0273 105.901 21.4062 106.493 21.6602C107.092 21.9137 107.735 22.0443 108.384 22.0443C109.033 22.0443 109.676 21.9137 110.274 21.6602C110.866 21.4063 111.398 21.0274 111.833 20.549C112.3 20.0268 112.655 19.4132 112.877 18.7465C113.38 17.1393 113.38 15.4144 112.877 13.8072C112.653 13.1363 112.298 12.5175 111.833 11.9872C111.401 11.5025 110.869 11.1188 110.274 10.8629C109.676 10.6096 109.033 10.4791 108.384 10.4791C107.735 10.4791 107.092 10.6096 106.493 10.8629C105.899 11.1189 105.367 11.5026 104.934 11.9872C104.474 12.5225 104.125 13.1459 103.908 13.8203C103.404 15.4273 103.404 17.1526 103.908 18.7596L103.891 18.7465Z" fill="white"/>
<path d="M121.734 8.61841H119.162V23.9044H121.734V8.61841Z" fill="white"/>
<path d="M128.15 8.61836V11.0421H128.206C129.274 9.19002 130.968 8.26399 133.286 8.26399C134.16 8.23931 135.031 8.38028 135.854 8.67961C136.486 8.91262 137.051 9.30104 137.497 9.80975C137.943 10.3185 138.257 10.9314 138.409 11.5933C138.587 12.3336 138.673 13.0934 138.665 13.8552V23.9175H136.092V13.5577C136.111 13.1426 136.044 12.7281 135.894 12.3409C135.745 11.9537 135.518 11.6022 135.226 11.3089C134.911 11.0225 134.543 10.802 134.143 10.66C133.743 10.5181 133.319 10.4576 132.896 10.4821C132.2 10.466 131.507 10.5864 130.856 10.8365C130.307 11.0556 129.815 11.3999 129.419 11.8427C129.029 12.2846 128.734 12.8029 128.552 13.3652C128.356 13.9813 128.26 14.6254 128.267 15.2726V23.9044H125.694V8.61836H128.15Z" fill="white"/>
<path d="M149.226 8.61852V10.8366H146.112V20.3302C146.105 20.5687 146.13 20.8072 146.186 21.039C146.229 21.2076 146.33 21.3551 146.472 21.4546C146.65 21.5657 146.852 21.6318 147.061 21.6471C147.387 21.6799 147.716 21.6945 148.044 21.6908H149.222V23.9089H147.26C146.688 23.917 146.117 23.873 145.554 23.7777C145.137 23.7138 144.743 23.547 144.406 23.2921C144.096 23.0286 143.87 22.6785 143.756 22.2858C143.599 21.7286 143.527 21.1501 143.544 20.5708V10.8366H140.881V8.61852H143.544V4.03796H146.117V8.61852H149.226Z" fill="white"/>
<path d="M0.662754 14.481L3.04469 16.8041L10.5326 23.8828L13.7634 20.7328C13.9083 20.5338 13.9813 20.2907 13.9702 20.0439C13.9592 19.7971 13.8648 19.5616 13.7028 19.3766L10.7535 16.7516L7.57469 13.6367C7.39492 13.4323 7.29817 13.1668 7.30379 12.8935C7.30941 12.6201 7.41699 12.359 7.60501 12.1623L16.167 3.81057L12.2693 -6.67562e-08L3.04469 9.00799L0.667086 11.3267C0.456564 11.5305 0.288961 11.7752 0.174331 12.0461C0.0597018 12.3169 0.000406508 12.6084 2.07359e-06 12.9029C-0.000402361 13.1975 0.0580934 13.4891 0.171979 13.7603C0.285864 14.0315 0.452793 14.2766 0.662754 14.481Z" fill="white"/>
<path d="M26.1906 18.519L23.8346 16.1959L16.3251 9.12598L13.0943 12.2759C12.9494 12.4749 12.8764 12.7181 12.8875 12.9649C12.8985 13.2116 12.9929 13.4471 13.1549 13.6322L16.1042 16.2571L19.283 19.3721C19.4637 19.576 19.5611 19.8416 19.5555 20.1153C19.5498 20.3889 19.4416 20.6502 19.2527 20.8464L10.6864 29.1894L14.5841 33L23.8173 23.992L26.1949 21.6733C26.4049 21.4689 26.5718 21.2237 26.6857 20.9526C26.7996 20.6814 26.8581 20.3898 26.8577 20.0952C26.8573 19.8006 26.798 19.5092 26.6833 19.2383C26.5687 18.9675 26.4011 18.7228 26.1906 18.519Z" fill="white"/>
<path d="M52.6797 6.9649C53.5073 6.9649 54.1781 6.30872 54.1781 5.49929C54.1781 4.68986 53.5073 4.03369 52.6797 4.03369C51.8521 4.03369 51.1812 4.68986 51.1812 5.49929C51.1812 6.30872 51.8521 6.9649 52.6797 6.9649Z" fill="white"/>
<path d="M120.448 6.9649C121.275 6.9649 121.946 6.30872 121.946 5.49929C121.946 4.68986 121.275 4.03369 120.448 4.03369C119.62 4.03369 118.949 4.68986 118.949 5.49929C118.949 6.30872 119.62 6.9649 120.448 6.9649Z" fill="white"/>
</svg>
