<svg width="158" height="37" viewBox="0 0 158 37" fill="none" xmlns="http://www.w3.org/2000/svg">
<path d="M140.115 16.9969C140.105 15.3743 140.712 13.7958 141.841 12.5151C142.969 11.2344 144.552 10.326 146.336 9.93586C148.119 9.54576 150 9.69669 151.674 10.3644C153.349 11.032 154.721 12.1776 155.57 13.6169L152.561 14.4802C151.964 13.6976 151.103 13.1004 150.101 12.7732C149.098 12.4459 148.005 12.4051 146.975 12.6564C145.945 12.9076 145.03 13.4384 144.361 14.1736C143.691 14.9088 143.299 15.8113 143.241 16.7536C143.184 17.6959 143.463 18.6303 144.04 19.4248C144.616 20.2194 145.461 20.8339 146.455 21.1815C147.448 21.5292 148.54 21.5924 149.577 21.3622C150.613 21.132 151.541 20.62 152.23 19.8987L150.44 20.1577L148.267 18.2386L157.63 16.9105L156.126 25.1712L153.892 23.2056L154.102 22.0701C152.959 23.0829 151.5 23.7732 149.912 24.0539C148.323 24.3346 146.677 24.1931 145.179 23.6472C143.682 23.1012 142.402 22.1755 141.5 20.987C140.599 19.7986 140.117 18.4007 140.115 16.9703V16.9969ZM45.4735 19.1484C45.4351 19.9264 45.6187 20.7004 46.0074 21.3994C46.3653 22.0153 46.8802 22.5494 47.5115 22.9599C48.1715 23.3833 48.9167 23.692 49.7074 23.8696C50.5461 24.0685 51.4108 24.169 52.2793 24.1685C53.2477 24.1845 54.2135 24.0726 55.1445 23.8365C55.9002 23.648 56.6075 23.3324 57.2275 22.9068C57.7734 22.5213 58.2089 22.0276 58.4985 21.4659C58.7855 20.9 58.9316 20.2863 58.9271 19.6663C58.9589 18.9824 58.7543 18.3061 58.3406 17.7273C57.9978 17.2406 57.5414 16.8241 57.002 16.5055C56.5158 16.2119 55.9803 15.9878 55.4152 15.8414C55.0102 15.723 54.5986 15.6233 54.1819 15.5426L51.7378 14.9914C51.2423 14.8862 50.7569 14.7463 50.2865 14.5731C50.0107 14.4756 49.7713 14.3124 49.5945 14.1016C49.4664 13.8992 49.4039 13.6694 49.4141 13.4376C49.403 13.1732 49.4815 12.9119 49.6397 12.6872C49.7876 12.4933 49.9765 12.3264 50.1962 12.1958C50.4273 12.0661 50.6815 11.9718 50.9482 11.917C51.2276 11.8644 51.5124 11.8378 51.798 11.8373C52.2061 11.8257 52.6145 11.8524 53.0163 11.917C53.3657 11.9746 53.6998 12.0895 54.0014 12.2556C54.2895 12.4184 54.5211 12.6481 54.6707 12.9197C54.8565 13.2252 54.9642 13.5629 54.9866 13.9091H58.3856C58.4125 13.1873 58.2286 12.4716 57.8517 11.8306C57.5209 11.263 57.0381 10.7752 56.4455 10.4096C55.8235 10.0302 55.1235 9.76183 54.385 9.61934C53.6032 9.44475 52.7998 9.35774 51.9935 9.36041C51.2667 9.36151 50.5434 9.44859 49.8427 9.61934C49.153 9.77993 48.5012 10.0475 47.9176 10.4096C47.3522 10.7599 46.8778 11.2127 46.5263 11.7376C46.1702 12.313 45.9937 12.9615 46.015 13.6169C45.9975 14.191 46.1368 14.7604 46.4211 15.277C46.6938 15.7168 47.0678 16.1013 47.519 16.4059C47.9777 16.7174 48.4841 16.97 49.023 17.1562C49.5939 17.3445 50.1764 17.5042 50.7677 17.6343C51.3468 17.7804 51.9258 17.9133 52.4898 18.0261C53.0016 18.1344 53.5042 18.2742 53.9939 18.4445C54.3931 18.5766 54.7587 18.7775 55.0693 19.0354C55.2112 19.1547 55.3228 19.2994 55.3967 19.4596C55.4706 19.6199 55.5051 19.7922 55.4979 19.9651C55.5101 20.2848 55.3988 20.5987 55.1821 20.8549C54.9776 21.0778 54.7211 21.2589 54.43 21.3861C54.1111 21.5214 53.7717 21.6154 53.4223 21.6651C53.0882 21.7034 52.7516 21.7234 52.4147 21.7248C51.9528 21.738 51.4907 21.7023 51.0384 21.6186C50.6324 21.5233 50.2464 21.3708 49.8953 21.167C49.5791 20.9502 49.3221 20.6733 49.1434 20.3569C48.9372 19.983 48.8365 19.5706 48.8501 19.155L45.4735 19.1484ZM84.4882 13.172L86.5035 18.3515H82.3678L84.4882 13.172ZM76.7277 23.6638V9.72562H71.779L68.1998 19.4272L64.4395 9.72562H59.5212V23.8298H62.8076L62.8526 13.9091L66.7708 23.8099H69.4781L73.441 13.8095V23.8298H80.2094L81.4649 20.6889H87.4362L88.6391 23.8298H92.2867L86.301 9.72562H82.6983L76.7277 23.6638ZM91.166 19.155C91.1301 19.9336 91.3161 20.7077 91.7074 21.4061C92.0662 22.0216 92.5813 22.5556 93.2118 22.9666C93.8727 23.3875 94.6173 23.6939 95.4075 23.8696C96.2461 24.0686 97.111 24.169 97.9794 24.1685C98.948 24.1838 99.9138 24.0719 100.845 23.8365C101.601 23.648 102.308 23.3324 102.928 22.9068C103.477 22.5226 103.915 22.0287 104.206 21.4659C104.492 20.8997 104.635 20.2859 104.627 19.6663C104.662 18.983 104.46 18.3065 104.048 17.7273C103.703 17.2402 103.244 16.8237 102.702 16.5055C102.216 16.2119 101.681 15.9878 101.115 15.8414C100.711 15.7226 100.299 15.6228 99.882 15.5426L97.4456 14.9914C96.9472 14.8797 96.4591 14.7332 95.9869 14.5532C95.711 14.4554 95.4718 14.2922 95.2948 14.0817C95.1669 13.8792 95.104 13.6495 95.1144 13.4176C95.1033 13.1533 95.1814 12.892 95.3398 12.6673C95.487 12.4729 95.6765 12.306 95.8963 12.176C96.1272 12.0459 96.3816 11.9517 96.6485 11.897C96.9278 11.8445 97.2127 11.8178 97.4982 11.8173C97.8971 11.8142 98.2953 11.8476 98.6866 11.917C99.0358 11.9746 99.3697 12.0895 99.6718 12.2556C99.9594 12.4188 100.19 12.6485 100.341 12.9197C100.53 13.2246 100.643 13.5621 100.672 13.9091H104.071C104.096 13.1867 103.909 12.4708 103.53 11.8306C103.199 11.2625 102.717 10.7746 102.123 10.4096C101.501 10.0299 100.801 9.76149 100.062 9.61934C99.2771 9.45305 98.4709 9.37495 97.6634 9.38695C96.9368 9.38805 96.2136 9.4752 95.5126 9.64594C94.8233 9.80647 94.1714 10.074 93.5879 10.4362C93.0244 10.7867 92.5529 11.2395 92.2038 11.7643C91.8477 12.3396 91.6714 12.9881 91.6929 13.6435C91.6749 14.2176 91.8138 14.7872 92.0987 15.3036C92.3718 15.7432 92.7458 16.1277 93.1966 16.4324C93.6563 16.7431 94.1624 16.9956 94.7009 17.1828C95.272 17.3706 95.8541 17.5302 96.4453 17.6609C97.0246 17.807 97.6033 17.9398 98.1674 18.0527C98.679 18.1608 99.1816 18.3006 99.6718 18.471C100.071 18.6029 100.436 18.8038 100.747 19.062C100.887 19.1822 100.997 19.3271 101.07 19.4872C101.142 19.6474 101.176 19.8193 101.168 19.9917C101.179 20.3112 101.068 20.6247 100.852 20.8815C100.648 21.1043 100.392 21.2855 100.1 21.4127C99.781 21.5478 99.4416 21.6418 99.0925 21.6916C98.7585 21.7299 98.4218 21.7499 98.0851 21.7514C97.6337 21.7511 97.185 21.7043 96.746 21.6119C96.3402 21.5168 95.9544 21.3643 95.6032 21.1604C95.2872 20.9429 95.0307 20.6662 94.851 20.3503C94.645 19.9763 94.5447 19.564 94.5578 19.1484L91.166 19.155ZM105.214 23.8033H108.726V17.7472H115.193V23.8298H118.72V9.72562H115.208V15.1376H108.741V9.72562H105.184L105.214 23.8033ZM120.307 23.8033H123.819V9.72562H120.307V23.8033ZM125.428 23.8033H128.714L128.76 14.3606L135.407 23.8033H138.92V9.72562H135.626L135.588 19.2214L128.925 9.72562H125.436L125.428 23.8033Z" fill="white"/>
<path d="M20.6342 19.9585C19.0262 18.9013 17.253 18.0558 15.3701 17.4484C13.9528 16.9427 12.6015 16.3037 11.3392 15.5426C8.33114 13.6921 6.82709 11.3968 6.82709 8.65652C6.75208 7.00614 7.33489 5.38477 8.47404 4.07464C8.67468 3.85487 8.89066 3.64642 9.12074 3.45044L2.69097 4.77853C1.79359 4.96189 1.01544 5.45245 0.527519 6.14228C0.0395935 6.83211 -0.118132 7.66477 0.0890054 8.45732L5.41333 28.7703C5.62109 29.5612 6.17542 30.2472 6.95499 30.6779C7.7345 31.1085 8.67557 31.2488 9.57199 31.0679L12.2041 30.5101L12.001 30.4636C10.2259 29.9816 8.51615 29.3292 6.90231 28.518L9.67728 23.0994C11.8854 24.6871 14.6507 25.5464 17.4983 25.5298C20.5064 25.5298 22.0103 24.5802 22.0103 22.6943C22.0249 22.1767 21.9091 21.6627 21.671 21.1896C21.433 20.7164 21.0789 20.2959 20.6342 19.9585Z" fill="white"/>
<path d="M35.1783 22.6877L29.854 2.37472C29.6462 1.58377 29.0918 0.897793 28.3123 0.467124C27.5328 0.0364538 26.5917 -0.103782 25.6953 0.0771442L21.8224 0.867348C22.2686 0.929329 22.7098 1.00237 23.1459 1.08648C24.8819 1.42778 26.5621 1.96101 28.1469 2.67354L25.8908 7.98584C24.2063 6.7109 21.8525 6.07346 18.8444 6.07346C16.1472 6.07346 14.7961 7.02077 14.791 8.91554C14.8205 9.31647 14.9564 9.70562 15.1876 10.0517C15.4188 10.3977 15.7389 10.6909 16.1221 10.9076C17.906 11.9066 19.8135 12.722 21.8073 13.338C23.5379 13.899 25.1591 14.6943 26.6128 15.6953C27.1686 16.0871 27.6731 16.5326 28.1168 17.0234C29.4141 18.5154 30.0912 20.3558 30.0345 22.2362C30.0965 24.0514 29.4456 25.8298 28.192 27.2696L32.5763 26.3731C33.0219 26.2832 33.443 26.1163 33.8153 25.882C34.1875 25.6479 34.5037 25.3509 34.7455 25.0084C34.9874 24.6658 35.1501 24.2845 35.2244 23.8862C35.2986 23.4879 35.283 23.0806 35.1783 22.6877Z" fill="white"/>
<path d="M47.6543 28.5179H48.9478L52.1363 35.7825L55.3098 28.5179H56.6033V36.7918H55.7235V29.6335L52.5424 36.7918H51.7152L48.5567 29.6335V36.7918H47.6543V28.5179Z" fill="white"/>
<path d="M63.7102 28.5179H64.6878L68.3347 36.7918H67.3647L66.244 34.2154H62.0481L60.9351 36.7918H59.9951L63.7102 28.5179ZM62.3188 33.5447H65.9433L64.161 29.2949L62.3188 33.5447Z" fill="white"/>
<path d="M79.6154 36.7919H78.9835L78.8632 35.2845C78.5812 35.813 78.1269 36.255 77.5593 36.5543C76.991 36.8536 76.3349 36.9964 75.6747 36.9645C72.7717 36.9645 71.3281 34.9127 71.3281 32.6483C71.3281 30.3839 72.7717 28.332 75.6747 28.332C76.5914 28.2737 77.4992 28.5252 78.214 29.0356C78.9289 29.546 79.3977 30.2772 79.5249 31.0812H78.6448C78.5169 30.4767 78.1456 29.9334 77.6001 29.5514C77.054 29.1695 76.3702 28.9746 75.6747 29.0027C73.2377 29.0027 72.1999 30.8355 72.1999 32.6483C72.1999 34.4611 73.2307 36.2939 75.6747 36.2939C77.7128 36.2939 78.9006 35.0057 78.8632 33.2526H75.7272V32.5885H79.6154V36.7919Z" fill="white"/>
<path d="M86.5713 28.5179H87.5488L91.166 36.7985H90.2265L89.1058 34.222H84.8795L83.7664 36.7985H82.8262L86.5713 28.5179ZM85.1802 33.5514H88.805L87.0227 29.3015L85.1802 33.5514Z" fill="white"/>
<path d="M94.1368 28.5179H100.77V29.182L94.701 36.0946H100.898V36.7587H93.7234V36.0946L99.7921 29.182H94.1368V28.5179Z" fill="white"/>
<path d="M104.643 28.5179H105.522V36.7918H104.643V28.5179Z" fill="white"/>
<path d="M110.012 28.5179H110.989L116.359 35.5235V28.5179H117.238V36.7918H116.261L110.892 29.7862V36.7918H110.012V28.5179Z" fill="white"/>
<path d="M121.728 28.5179H128.09V29.182H122.601V32.1768H127.744V32.8408H122.608V36.1146H128.158V36.7786H121.728V28.5179Z" fill="white"/>
</svg>
