<svg width="106" height="23" viewBox="0 0 106 23" fill="none" xmlns="http://www.w3.org/2000/svg">
<path d="M29.8941 20H30.0144L35.9305 5.56674C36.5078 4.17768 37.0369 3.49427 37.5665 3.18942V3.04787H34.0064V3.18942C34.7525 3.58892 34.9205 4.67267 34.4152 5.91956L30.7836 14.8199L25.8521 3H25.7333L20.5377 14.7969L16.8092 5.51921C16.3768 4.41311 16.4972 3.58892 17.194 3.18945V3.0479H12V3.18945C12.5533 3.47162 12.9615 4.05929 13.4668 5.26083L19.5764 20H19.6957L24.8426 8.06209L29.8941 20ZM68.2312 11.7361V7.05058H73.2339C75.5184 7.05058 76.3844 7.40336 77.2025 8.53366L77.3467 8.48646L77.0573 5.89624H64.5512L64.5271 6.01466C65.2736 6.4617 65.4901 7.12058 65.4901 8.06203V17.3396C65.4901 18.306 65.2736 18.9406 64.5271 19.3876L64.5512 19.5291H77.7073L78.189 16.7515L78.0671 16.7042C77.2257 17.8112 76.2165 18.3755 73.9553 18.3755H68.2313V12.842H72.0566C73.6904 12.842 74.5084 13.1009 74.9415 13.7842H75.1093V10.8172L74.9415 10.7939C74.5084 11.4765 73.6904 11.7359 72.0566 11.7359L68.2312 11.7361ZM84.9942 19.3877L85.0176 19.5292H89.8293V19.3877C89.0346 18.9406 88.7947 18.2333 88.7947 17.1035V13.9018L93.0276 7.99201C93.7981 6.90904 94.4464 6.24943 95 6.01469V5.89628H91.2478V6.01469C91.9212 6.3914 92.0167 7.3096 91.2963 8.32078L88.1937 12.7015L84.778 7.78007C84.2484 7.02611 84.3447 6.34341 84.9711 6.01469V5.89628H79.7025V6.01469C80.329 6.27283 80.714 6.62558 81.3864 7.5678L86.0524 14.0909V17.1035C86.0524 18.2332 85.7881 18.9406 84.9942 19.3877ZM61.7856 19.5292L62.4586 16.6571L62.3144 16.6096C61.4961 17.8575 60.2456 18.3755 58.3931 18.3755H52.9584V8.29884C52.9584 7.14386 53.2473 6.4851 54.0643 6.01469V5.89628H49.2794L49.2549 6.01469C50.0005 6.46173 50.2163 7.12061 50.2163 8.06206V17.3397C50.2163 18.306 50.0005 18.9406 49.2549 19.3877L49.2794 19.5292H61.7856ZM40.5962 17.2212C40.5962 18.2819 40.3557 18.9645 39.5857 19.3876V19.5291H44.3487V19.3876C43.579 18.9645 43.3392 18.2819 43.3392 17.2212V8.17975C43.3392 7.14383 43.5791 6.4617 44.3487 6.01466V5.89624H39.5857V6.01466C40.3558 6.4617 40.5962 7.14383 40.5962 8.17975V17.2212Z" fill="white"/>
</svg>
