<svg width="106" height="23" viewBox="0 0 106 23" fill="none" xmlns="http://www.w3.org/2000/svg">
<path d="M22.8527 22.1772H23.0063L30.5619 3.34842C31.2991 1.53633 31.9748 0.644795 32.6512 0.247103V0.0624521H28.1046V0.247103C29.0574 0.768266 29.2719 2.18207 28.6267 3.80869L23.9887 15.4196L17.6906 0H17.5389L10.9036 15.3895L6.14186 3.28641C5.58969 1.84346 5.74338 0.768265 6.63329 0.247141V0.0624908H0V0.247141C0.706647 0.615254 1.22789 1.38189 1.87324 2.94935L9.67585 22.1772H9.82819L16.4014 6.60371L22.8527 22.1772ZM71.8134 11.3966V5.28415H78.2023C81.1199 5.28415 82.2259 5.74437 83.2706 7.21889L83.4548 7.15731L83.0852 3.77827H67.1136L67.0828 3.93275C68.0362 4.51593 68.3127 5.37546 68.3127 6.60363V18.7066C68.3127 19.9673 68.0362 20.7952 67.0828 21.3783L67.1136 21.5629H83.9154L84.5305 17.9394L84.3749 17.8777C83.3003 19.3218 82.0114 20.058 79.1236 20.058H71.8135V12.8393H76.6988C78.7853 12.8393 79.83 13.177 80.3831 14.0684H80.5974V10.1978L80.3831 10.1674C79.83 11.058 78.7853 11.3964 76.6988 11.3964H71.8134V11.3966ZM93.2215 21.3784L93.2514 21.563H99.3964V21.3784C98.3815 20.7952 98.0752 19.8725 98.0752 18.3986V14.2219L103.481 6.51228C104.465 5.0995 105.293 4.23901 106 3.93279V3.77831H101.208V3.93279C102.068 4.42422 102.19 5.62205 101.27 6.94118L97.3076 12.656L92.9454 6.2358C92.2691 5.25223 92.392 4.36161 93.192 3.93279V3.77831H86.4634V3.93279C87.2636 4.26954 87.7552 4.72972 88.614 5.95888L94.573 14.4685V18.3986C94.573 19.8724 94.2354 20.7952 93.2215 21.3784ZM63.5816 21.563L64.4411 17.8162L64.2569 17.7543C63.2119 19.3822 61.6149 20.058 59.249 20.058H52.3083V6.91255C52.3083 5.40584 52.6773 4.54646 53.7207 3.93279V3.77831H47.6098L47.5785 3.93279C48.5307 4.51597 48.8063 5.3755 48.8063 6.60367V18.7067C48.8063 19.9673 48.5307 20.7952 47.5785 21.3784L47.6098 21.563H63.5816ZM36.5205 18.5521C36.5205 19.9359 36.2133 20.8264 35.2299 21.3783V21.5629H41.3128V21.3783C40.3298 20.8264 40.0236 19.9359 40.0236 18.5521V6.7572C40.0236 5.4058 40.3299 4.51593 41.3128 3.93275V3.77827H35.2299V3.93275C36.2134 4.51593 36.5205 5.4058 36.5205 6.7572V18.5521Z" fill="white"/>
</svg>
