
<svg width="100%" fill="none" xmlns="http://www.w3.org/2000/svg">
  <style>
    .mobile,.wide{
      opacity: 0;
      transform-origin: 50% 50%;
      transform: scale(1.2);
      transition: all .6s ease-out}
    .wide{
      opacity: 1;
      transform: scale(1);
    }
    /*desktops - higher resolution*/
    @media (max-width: 150px){
      .mobile,.wide{
        opacity: 1;
        transition: all .6s ease-out;
        transform: scale(1);
      }
      
      .wide{
        opacity: 0;
        transform: scale(0.9);
      }
    }
  </style>
  <defs>
    <!-- The base logo holding all linework -->
    <symbol id="logo-base">
        <path d="M406.6 807.9c222.184 0 402.3-180.116 402.3-402.3S628.784 3.3 406.6 3.3 4.3 183.416 4.3 405.6s180.116 402.3 402.3 402.3z" fill="#FF4500"/>
        <path d="M674.9 405.6c-1.2-32.4-28.4-57.7-60.9-56.6-14.4.5-28.1 6.4-38.5 16.3-45.8-31.2-99.6-48.3-154.9-49.5l26.1-125.5 86.1 18.1c2.4 22.1 22.2 38.1 44.3 35.7 22.1-2.4 38.1-22.2 35.7-44.3-2.4-22.1-22.2-38.1-44.3-35.7-12.7 1.3-24.1 8.7-30.4 19.7l-98.6-19.7c-6.7-1.5-13.4 2.7-14.9 9.5v.2l-29.7 139.6c-56 .9-110.5 18.1-156.9 49.5-23.6-22.2-60.8-21.1-83 2.6-22.2 23.6-21.1 60.8 2.6 83 4.6 4.3 9.9 8 15.8 10.6-.4 5.9-.4 11.8 0 17.7 0 90.1 105 163.4 234.5 163.4S642.4 567 642.4 476.8c.4-5.9.4-11.8 0-17.7 20.2-10.1 32.9-30.9 32.5-53.5zm-402.3 40.3c0-22.2 18.1-40.3 40.3-40.3 22.2 0 40.3 18.1 40.3 40.3 0 22.2-18.1 40.3-40.3 40.3-22.3-.2-40.3-18.1-40.3-40.3zm233.7 110.6c-56.45 42.436-142.35 42.436-198.8 0-3.8-4.6-3.1-11.5 1.5-15.3 4-3.3 9.7-3.3 13.8 0 47.484 34.73 119.955 34.975 167.8.8 4.4-4.3 11.6-4.2 15.9.2 4.3 4.4 4 11.143-.2 14.3zm-7.2-68.9c-22.2 0-40.3-18.1-40.3-40.3 0-22.2 18.1-40.3 40.3-40.3 22.2 0 40.3 18.1 40.3 40.3.9 22.2-16.7 39.4-38.9 40.3-1.717 0-1.749 1.747-1.4 0z" fill="#fff"/>
        <path d="M2248.8 282.9c30.27 0 54.8-24.535 54.8-54.8 0-30.265-24.53-54.8-54.8-54.8-30.27 0-54.8 24.535-54.8 54.8 0 30.265 24.53 54.8 54.8 54.8z" fill="#FF4500"/>
        <path d="M1472.5 460.9c21.5 0 39.3-14.1 40.9-35.4.1-1.2.1-2.6.1-3.9-.3-7.4-1.2-14.9-2.7-22.2-13-69.4-72.3-120.5-142.8-123.3-80.3 0-147.4 73.8-147.4 164.4 0 90.6 66 164.5 147.3 164.5 43.1 1.7 84.9-15.7 113.9-47.6 11.9-13 10.9-33.1-2.1-45-1-.9-1.9-1.7-2.9-2.4-13-8.1-29.9-6.4-40.9 4.2-18.1 18-42.4 28.3-68 29.1-44.2-3.5-79.6-38.1-84-82.4h188.6zM1367.6 338c38.9 2.6 71.6 30.4 80.3 68.5h-160.4c8.6-38.2 41.1-66 80.1-68.5zM1223.8 308c0-15.4-11.4-28.5-26.7-30.4-41.3-6.9-83.3 8.4-110.4 40.4v-4c0-17.1-13.8-30.9-30.9-30.9-17.1 0-30.9 13.8-30.9 30.9v253c-.4 16.6 12.3 30.7 28.9 32.1 16.9 1.2 31.7-11.6 32.8-28.5.1-1.2.1-2.4 0-3.6V437.2c-2.7-51.8 37-95.9 88.8-98.7 4.6-.3 9.3-.2 13.9.3h6.2c16-1.4 28.3-14.7 28.3-30.8zM2279.6 341.2c0-17.1-13.8-30.9-30.9-30.9-17.1 0-30.9 13.8-30.9 30.9v225.7c0 17.1 13.8 30.9 30.9 30.9 17.1 0 30.9-13.8 30.9-30.9V341.2zM1823.6 169.7c0-17-13.8-30.8-30.8-30.8s-30.8 13.8-30.8 30.8v138c-20.8-21-49.4-32.4-78.9-31.6-80.3 0-147.4 73.8-147.4 164.4 0 90.6 66.1 164.5 147.4 164.5 30 .9 59-10.6 80.3-31.9 4.8 16.3 21.9 25.6 38.2 20.8 12.3-3.6 21.1-14.4 21.9-27.3l.1-396.9zM1683.1 544c-47.3 0-86-45.9-86-102.8s38.2-102.9 85.8-102.9c47.6 0 85.8 46 85.8 102.9 0 56.9-38.2 102.8-85.6 102.8zM2145.8 169.7c0-17-13.8-30.8-30.8-30.8s-30.8 13.8-30.8 30.8v138c-20.8-21-49.4-32.4-78.9-31.6-80.3 0-147.4 73.8-147.4 164.4 0 90.6 66.1 164.5 147.4 164.5 30 .9 59-10.6 80.3-31.9 4.8 16.3 21.9 25.6 38.2 20.8 12.3-3.6 21.1-14.4 21.9-27.3l.1-396.9zM2005 544c-47.3 0-85.6-45.9-85.6-102.8s38.2-102.9 85.8-102.9c47.6 0 85.8 46 85.8 102.9 0 56.9-38.1 102.8-85.5 102.8h-.5zM2439.7 566.8V338h26.7c14.8.9 27.4-10.4 28.3-25.1 0-.5.1-1.1.1-1.7 1.3-14.7-9.6-27.7-24.2-29-.8-.1-1.7-.1-2.5-.1h-28.3v-42.5c.2-16.5-12.4-30.4-28.9-31.9-16.9-1.2-31.6 11.6-32.8 28.5-.1.7-.1 1.5-.1 2.2v44.4h-26.8c-14.8-.9-27.4 10.4-28.3 25.1 0 .5-.1 1.1-.1 1.7-1.3 14.7 9.6 27.7 24.2 29 .8.1 1.7.1 2.5.1h26.7v228.2c0 17 13.8 30.8 30.8 30.8 17 1.1 31.5-11.9 32.6-28.9.1-.6.1-1.3.1-2z" fill="currentColor" />
    </symbol>
    
    <!-- The full width view -->
    <symbol id="logo-full" viewBox="0 0 2500 810">
      <use href="#logo-base" class="wide"/>
    </symbol>
    
    <!-- The small icon view -->
    <symbol id="logo-icon" viewBox="0 0 810 810">
      <use href="#logo-base" class="mobile"/>
    </symbol>
    
  </defs>
  <use href="#logo-full"/>
  <use href="#logo-icon"/>
</svg>