<svg xmlns="http://www.w3.org/2000/svg" fill="none" viewBox="0 0 117 36">
  <path fill="#fff" fill-rule="evenodd" d="M13.5 20.7c.3.2.6.1.8 0l2.8-2.5c.5-.4 0-.9-.2-1.3a4.6 4.6 0 01-1.1-3V7.6c0-2.2 0-4.3-1.6-5.8C12.8.5 10.5 0 8.7 0 5.3 0 1.4 1.3.7 5.6c-.2.5.2.7.5.8l3.5.4c.3 0 .5-.4.6-.7.3-1.5 1.5-2.2 3-2.2 2.3 0 2.4 2.2 2.4 4C6.2 8.6-.2 9.4 0 15.3 0 19 2.4 21 5.4 21c2.6 0 4-.6 6-2.6.7 1 .9 1.4 2 2.4zM10.7 11c-2.6 0-5.4.6-5.4 3.7 0 1.6.8 2.6 2.2 2.6 1 0 2-.6 2.5-1.6.8-1.5.7-3.1.7-4.7zM91 0c5.6 0 8.7 4.7 8.7 10.6 0 5.8-3.4 10.3-8.8 10.3-5.5 0-8.6-4.6-8.6-10.5C82.3 4.6 85.4 0 91 0zm0 3.9c-2.9 0-3 3.6-3 6s0 7.2 3 7.2c2.9 0 3-4 3-6.4 0-2.3.2-6.8-3-6.8z" clip-rule="evenodd"/>
  <path fill="#fff" d="M20.1 20.2h3.7c.4 0 .7-.3.7-.7v-10c0-2.1 0-4.9 2.5-4.9 2.3 0 2.3 2.5 2.3 4.5v10.4c0 .4.3.7.6.7h3.7c.4 0 .7-.3.7-.7v-10c0-1 0-2.5.3-3.3.4-1 1.3-1.6 2.2-1.6 1 0 1.9.4 2.1 1.6.2.6.2 2 .1 3v10.3c0 .4.3.7.7.7h3.6c.4 0 .7-.3.7-.7V7c0-1.8.1-3.6-.9-5-1-1.3-2.6-2-4.2-2a5.2 5.2 0 00-5 3.4C32.9 1.1 31.4 0 29 0c-2.2 0-3.9 1.1-4.8 3.4V1c0-.3-.3-.6-.7-.6h-3.4c-.4 0-.7.3-.7.7v18.5c0 .3.3.6.6.6zM67.2 4V1.4c0-.4.3-.7.7-.7h12.6c.4 0 .7.3.7.7v2.2c0 .3-.3.8-1 1.6l-6.5 8.5c2.5 0 5 .3 7.2 1.4.5.3.7.6.7 1v2.7c0 .4-.4.8-1 .6a15.7 15.7 0 00-13.2 0c-.5.3-1-.2-1-.6v-2.6c0-.4 0-1 .5-1.7l7.6-9.9h-6.6c-.4 0-.7-.3-.7-.6zM67 23.8c2.4-.3 7.5-.9 8.4.2 1 1.2-1 5.8-1.9 7.8-.2.7.3 1 1 .5 3.8-3.1 4.8-9.6 4-10.5-.8-1-7.5-1.7-11.6 1-.7.5-.6 1 .1 1z"/>
  <path fill="#fff" d="M47.8 35.4c8.6 0 18.5-2.7 25.4-7.8 1-.9.1-2.1-1-1.7a60.9 60.9 0 01-54.6-3.4c-.8-.4-1.4.4-.7 1 8.5 7.7 19.5 12 31 11.9zM103.2 20.2h3.5c.3 0 .7-.3.7-.7v-10c0-1.6.2-5 2.6-5 2.2 0 2.2 2.6 2.2 4.6v10.5c0 .4.3.6.6.6h3.5c.3 0 .6-.2.7-.6V8c0-1.8 0-4.3-1-5.8a4.6 4.6 0 00-4-2.2c-2.5 0-3.8 1.2-4.8 3.7V1c-.1-.3-.4-.5-.7-.5h-3.3c-.3 0-.6.2-.6.6v18.5c0 .4.2.7.6.7z"/>
  <path fill="#fff" fill-rule="evenodd" d="M62 20.6c-.2.2-.6.3-.8.1-1.2-1-1.5-1.5-2.1-2.4-2 2-3.4 2.6-6 2.6-3 0-5.4-1.9-5.4-5.7-.2-5.9 6.2-6.7 10.7-7.2v-.8c0-1.7-.5-3.3-2.5-3.3-1.4 0-2.6.7-3 2.2 0 .3-.2.6-.6.7l-3.5-.4c-.3 0-.6-.3-.5-.8.8-4.3 4.6-5.6 8-5.6 1.8 0 4.2.5 5.5 1.8 1.7 1.6 1.7 3.6 1.6 5.8v6.3c0 1.5.6 2.2 1.2 3 .2.4.7 1 .2 1.3L62 20.6zm-4.3-5c-.6 1-1.5 1.6-2.5 1.6-1.4 0-2.2-1-2.2-2.6 0-3.1 2.7-3.7 5.4-3.7 0 1.6 0 3.3-.7 4.7z" clip-rule="evenodd"/>
</svg>