<svg id="Layer_1" data-name="Layer 1" xmlns="http://www.w3.org/2000/svg" viewBox="0 0 671.1 74.6"><defs><style>.cls-1{fill:#fff;}.cls-2{fill:#c4c4c4;}.cls-3{fill:#adb6c2;}.cls-4{fill:#97a9c0;}.cls-5{fill:#809bbe;}.cls-6{fill:#6a8dbc;}.cls-7{fill:#537fb9;}.cls-8{fill:#3c72b7;}.cls-9{fill:#2664b5;}.cls-10{fill:#0f56b3;}</style></defs><rect class="cls-1" y="0.4" width="670.5" height="74.64"/><path class="cls-2" d="M61.4,56.1,42.3,36.9,61.4,17.8a5.5,5.5,0,0,0,0-7.7h0a5.4,5.4,0,0,0-7.6,0L34.6,29.3,15.5,10.1a5.4,5.4,0,0,0-7.7,7.7L27,36.9,7.8,56.1a5.4,5.4,0,1,0,7.7,7.7L34.6,44.6,53.8,63.8C58.7,68.8,66.5,61,61.4,56.1Z"/><path class="cls-3" d="M136.3,10.1c-6.2-7.5-22.1,16.7-26.5,19l-19-14.5c-3.9-3.8-12,2.6-8,7.1l9,9c5.9,7.7,7.3,4,.9,11.9,0,0-11.2,13.1-10.6,13.8-3.5,5.1,3.1,12,8,7.6,1.8-1.5,15.5-15.5,18.1-18.1.4-.4,17.7,15.9,18.2,15.4,4.5,4.1,11.6-3,7.5-7.6.5-.5-15.8-17.7-15.4-18.1l14.2-14.2C135.7,18.7,140.4,14.1,136.3,10.1Z"/><path class="cls-4" d="M211.3,10.1C205,2.6,189.4,26.6,185,28.9L166.3,19c-3.1-2.7-11.1,2.7-8.5,6.6l6.2,6.1c5.1,7.4,3.5,4-.2,11.3,0,0-8.7,12.3-7.3,13.7-2.4,7.9,6.1,11.6,10.8,5.1,20.3-19.1,8.8-17,31.7-3,4.3,3.3,10.6-3.2,7.4-7.4,1-1-12.4-16.4-11.6-17.2C198.9,28.5,218,15.9,211.3,10.1Z"/><path class="cls-5" d="M286.5,10.1c-6.2-7.5-21.7,16.3-26,18.6L242,23.4c-5-1.6-13.1,5.7-5.5,9.3,3.1,6.1.1,4.9-1.4,10.6-5.4,5.4-6.6,30.4,7,19,20.7-19.1,6.7-15.2,29.8-5.9,4,2.3,9.6-3.5,7.3-7.4,1.5-1.5-9.1-14.9-7.9-16.2C276,26.5,292.7,16.6,286.5,10.1Z"/><path class="cls-6" d="M362,10c-6.1-7.4-21.4,16.2-25.7,18.5-7.7.1-25.4-3.4-27.1,5.3-1.4-1.5.5,2.9-.3,4.2-4.5,4.8-6.9,30.3,5.9,26.5,18.2-13.3,6.4-17.6,30.3-10.6,13.9.7,3.6-16.5,3.1-22.4C353.4,24.6,367.7,17.1,362,10Z"/><path class="cls-7" d="M438.3,10.1c-6.1-7.4-21.2,16-25.5,18.2-6.6,2.2-19.1,2.3-24.3,7.5-1.7,1.8-1.4,2.5-3.4,1.5-3.2-3.3-3.1-4.5-4.6,1.1-.7,1.1-2.7,4.6-1.5,5.8.9,21.5,9.5,28.6,26.1,7,4.6-1.6,14,3.5,18.5-1.5,6.3-4.5.7-14.5,2.2-19.5C431.6,22.6,443.2,17.7,438.3,10.1Z"/><path class="cls-8" d="M515.3,10c-6.1-7.3-21,15.8-25.2,18.1l-17.9,8.6c-1.7.1-6.5,4.4-7.6,6s-2.9-1.9-2.5-1.6L457,35.9c-2.6-3.3-7.1,6.8-4.9,8.6.7,2.1,8,23.6,15.4,20.4,3.2-1.4,7.4-6.7,13.3-12.4,2.5-2.4,10.1-.5,13-3.5,9.1-2,7.8-14.4,10.3-20.3C510.4,20.7,519.9,17.8,515.3,10Z"/><path class="cls-9" d="M592.3,9.9c-6-7.3-20.7,15.7-24.9,17.9L549.7,41c-1.5.7-6.2,5.3-7.4,6.6s-3.3-2.8-3.1-2.6l-7.9-8.2c-4.1-4-9.4,4.8-6.1,8.1,1.7,1.4,14,25.8,21.1,19.1,15.2-17.9,24.9-12.3,36.2-36.7C589.2,18.8,596.7,17.8,592.3,9.9Z"/><path class="cls-10" d="M669.4,9.8a5.2,5.2,0,0,0-7.3,0l-21,21.4-21,21.4L605.6,37.8c-4.7-4.9-12.1,2.8-7.3,7.4l18.2,18.5a4.8,4.8,0,0,0,6.5.6c.6-.3,11.9-11.9,23.3-23.4s22.6-23.3,23.1-23.7A5.3,5.3,0,0,0,669.4,9.8Z"/></svg>