<svg id="Layer_1" data-name="Layer 1" xmlns="http://www.w3.org/2000/svg" viewBox="0 0 670.9 74.6">
  <rect width="670.5" height="74.6" style="fill:#fff"/>
  <path d="M61.4 56.1L42.3 36.9l19.1-19.1a5.5 5.5 0 000-7.7 5.4 5.4 0 00-7.6 0L34.6 29.3 15.5 10.1a5.4 5.4 0 00-7.7 7.7L27 36.9 7.8 56.1a5.4 5.4 0 107.7 7.7l19.1-19.2 19.2 19.2c4.9 5 12.7-2.8 7.6-7.7z" transform="translate(0 -.4)" style="fill:#c4c4c4"/>
  <path d="M136.3 10.1c-6.2-7.5-22.1 16.7-26.5 19l-19-14.5c-3.9-3.8-12 2.6-8 7.1l9 9c5.9 7.7 7.3 4 .9 11.9 0 0-11.2 13.1-10.6 13.8-3.5 5.1 3.1 12 8 7.6 1.8-1.5 15.5-15.5 18.1-18.1.4-.4 17.7 15.9 18.2 15.4 4.5 4.1 11.6-3 7.5-7.6.5-.5-15.8-17.7-15.4-18.1l14.2-14.2c3-2.7 7.7-7.3 3.6-11.3z" transform="translate(0 -.4)" style="fill:#adb6c2"/>
  <path d="M211.3 10.1C205 2.6 189.4 26.6 185 28.9L166.3 19c-3.1-2.7-11.1 2.7-8.5 6.6l6.2 6.1c5.1 7.4 3.5 4-.2 11.3 0 0-8.7 12.3-7.3 13.7-2.4 7.9 6.1 11.6 10.8 5.1 20.3-19.1 8.8-17 31.7-3 4.3 3.3 10.6-3.2 7.4-7.4 1-1-12.4-16.4-11.6-17.2 4.1-5.7 23.2-18.3 16.5-24.1z" transform="translate(0 -.4)" style="fill:#97a9c0"/>
  <path d="M286.5 10.1c-6.2-7.5-21.7 16.3-26 18.6L242 23.4c-5-1.6-13.1 5.7-5.5 9.3 3.1 6.1.1 4.9-1.4 10.6-5.4 5.4-6.6 30.4 7 19 20.7-19.1 6.7-15.2 29.8-5.9 4 2.3 9.6-3.5 7.3-7.4 1.5-1.5-9.1-14.9-7.9-16.2 4.7-6.3 21.4-16.2 15.2-22.7z" transform="translate(0 -.4)" style="fill:#809bbe"/>
  <path d="M362 10c-6.1-7.4-21.4 16.2-25.7 18.5-7.7.1-25.4-3.4-27.1 5.3-1.4-1.5.5 2.9-.3 4.2-4.5 4.8-6.9 30.3 5.9 26.5 18.2-13.3 6.4-17.6 30.3-10.6 13.9.7 3.6-16.5 3.1-22.4 5.2-6.9 19.5-14.4 13.8-21.5z" transform="translate(0 -.4)" style="fill:#6a8dbc"/>
  <path d="M438.3 10.1c-6.1-7.4-21.2 16-25.5 18.2-6.6 2.2-19.1 2.3-24.3 7.5-1.7 1.8-1.4 2.5-3.4 1.5-3.2-3.3-3.1-4.5-4.6 1.1-.7 1.1-2.7 4.6-1.5 5.8.9 21.5 9.5 28.6 26.1 7 4.6-1.6 14 3.5 18.5-1.5 6.3-4.5.7-14.5 2.2-19.5 5.8-7.6 17.4-12.5 12.5-20.1z" transform="translate(0 -.4)" style="fill:#537fb9"/>
  <path d="M515.3 10c-6.1-7.3-21 15.8-25.2 18.1l-17.9 8.6c-1.7.1-6.5 4.4-7.6 6s-2.9-1.9-2.5-1.6l-5.1-5.2c-2.6-3.3-7.1 6.8-4.9 8.6.7 2.1 8 23.6 15.4 20.4 3.2-1.4 7.4-6.7 13.3-12.4 2.5-2.4 10.1-.5 13-3.5 9.1-2 7.8-14.4 10.3-20.3 6.3-8 15.8-10.9 11.2-18.7z" transform="translate(0 -.4)" style="fill:#3c72b7"/>
  <path d="M592.3 9.9c-6-7.3-20.7 15.7-24.9 17.9L549.7 41c-1.5.7-6.2 5.3-7.4 6.6s-3.3-2.8-3.1-2.6l-7.9-8.2c-4.1-4-9.4 4.8-6.1 8.1 1.7 1.4 14 25.8 21.1 19.1 15.2-17.9 24.9-12.3 36.2-36.7 6.7-8.5 14.2-9.5 9.8-17.4z" transform="translate(0 -.4)" style="fill:#2664b5"/>
  <path d="M669.4 9.8a5.2 5.2 0 00-7.3 0l-21 21.4-21 21.4-14.5-14.8c-4.7-4.9-12.1 2.8-7.3 7.4l18.2 18.5a4.8 4.8 0 006.5.6c.6-.3 11.9-11.9 23.3-23.4s22.6-23.3 23.1-23.7a5.3 5.3 0 000-7.4z" transform="translate(0 -.4)" style="fill:#0f56b3"/>
</svg>