
<svg id="art1" viewBox="0 0 1000 610" xmlns="http://www.w3.org/2000/svg">
  <defs>
    <style>
      svg {
      margin: 0;
      font-family: Barlow, Helvetica, 'Helvetica Neue', sans-serif;
      font-size: 8px;
      }
      .icon {
       display: none;
       }
      .icon:target {
       display: inline;             
      }
      .base{
       /*filter: url(#spray);*/
       fill: rgba(255,255,255,.15);
       transform-origin: 50% 50%;
       transform: rotate(24deg);
       }
      .keyline{
       /*filter: url(#slight-texture);*/
       stroke: rgba(0,255,255,.225);
       fill: none;
       stroke-width: 0;
       transform-origin: 50% 50%;
      }
       /* DEFS */
      
    </style>
    <symbol id="icon-pencil2" viewBox="0 0 16 16">
      <title>pencil2</title>
      <path class="path1" d="M6 10l2-1 7-7-1-1-7 7-1 2zM4.52 13.548c-0.494-1.043-1.026-1.574-2.069-2.069l1.548-4.262 2-1.217 6-6h-3l-6 6-3 10 10-3 6-6v-3l-6 6-1.217 2z"></path>
    </symbol>
    <symbol id="icon-quill" viewBox="0 0 16 16">
      <title>quill</title>
      <path class="path1" d="M0 16c2-6 7.234-16 16-16-4.109 3.297-6 11-9 11s-3 0-3 0l-3 5h-1z"></path>
    </symbol>
    <symbol id="icon-pen" viewBox="0 0 16 16">
      <title>pen</title>
      <path class="path1" d="M15.909 4.561l-4.47-4.47c-0.146-0.146-0.338-0.113-0.427 0.073l-0.599 1.248 4.175 4.175 1.248-0.599c0.186-0.089 0.219-0.282 0.073-0.427z"></path>
      <path class="path2" d="M9.615 2.115l-4.115 0.343c-0.273 0.034-0.501 0.092-0.58 0.449-0 0-0 0.001-0 0.001-1.116 5.36-4.92 10.591-4.92 10.591l0.896 0.896 4.25-4.25c-0.094-0.196-0.146-0.415-0.146-0.647 0-0.828 0.672-1.5 1.5-1.5s1.5 0.672 1.5 1.5-0.672 1.5-1.5 1.5c-0.232 0-0.451-0.053-0.647-0.146l-4.25 4.25 0.896 0.896c0 0 5.231-3.804 10.591-4.92 0-0 0.001-0 0.001-0 0.357-0.078 0.415-0.306 0.449-0.58l0.343-4.115-4.269-4.269z"></path>
    </symbol>
    <symbol id="icon-laptop" viewBox="0 0 16 16">
      <title>laptop</title>
      <path class="path1" d="M14 11v-8c0-0.55-0.45-1-1-1h-10c-0.55 0-1 0.45-1 1v8h-2v3h16v-3h-2zM10 13h-4v-1h4v1zM13 11h-10v-7.998c0.001-0.001 0.001-0.001 0.002-0.002h9.996c0.001 0.001 0.001 0.001 0.002 0.002v7.998z"></path>
    </symbol>
    <symbol id="icon-mobile" viewBox="0 0 16 16">
      <title>mobile</title>
      <path class="path1" d="M11.5 0h-7c-0.825 0-1.5 0.675-1.5 1.5v13c0 0.825 0.675 1.5 1.5 1.5h7c0.825 0 1.5-0.675 1.5-1.5v-13c0-0.825-0.675-1.5-1.5-1.5zM6 0.75h4v0.5h-4v-0.5zM8 15c-0.552 0-1-0.448-1-1s0.448-1 1-1 1 0.448 1 1-0.448 1-1 1zM12 12h-8v-10h8v10z"></path>
    </symbol>
    <symbol id="icon-bullhorn" viewBox="0 0 16 16">
      <title>bullhorn</title>
      <path class="path1" d="M16 6.707c0-3.139-0.919-5.687-2.054-5.707 0.005-0 0.009-0 0.014-0h-1.296c0 0-3.044 2.287-7.425 3.184-0.134 0.708-0.219 1.551-0.219 2.523s0.085 1.816 0.219 2.523c4.382 0.897 7.425 3.184 7.425 3.184h1.296c-0.005 0-0.009-0-0.014-0.001 1.136-0.020 2.054-2.567 2.054-5.707zM13.513 11.551c-0.147 0-0.305-0.152-0.387-0.243-0.197-0.22-0.387-0.562-0.55-0.989-0.363-0.957-0.564-2.239-0.564-3.611s0.2-2.655 0.564-3.611c0.162-0.428 0.353-0.77 0.55-0.99 0.081-0.091 0.24-0.243 0.387-0.243s0.305 0.152 0.387 0.243c0.197 0.22 0.387 0.562 0.55 0.99 0.363 0.957 0.564 2.239 0.564 3.611s-0.2 2.655-0.564 3.611c-0.162 0.428-0.353 0.77-0.55 0.989-0.081 0.091-0.24 0.243-0.387 0.243zM3.935 6.707c0-0.812 0.060-1.6 0.173-2.33-0.74 0.102-1.39 0.161-2.193 0.161-1.048 0-1.048 0-1.048 0l-0.867 1.479v1.378l0.867 1.479c0 0 0 0 1.048 0 0.803 0 1.453 0.059 2.193 0.161-0.113-0.729-0.173-1.518-0.173-2.33zM5.752 10.034l-2-0.383 1.279 5.024c0.066 0.26 0.324 0.391 0.573 0.291l1.852-0.741c0.249-0.1 0.349-0.374 0.222-0.611l-1.926-3.581zM13.513 8.574c-0.057 0-0.118-0.059-0.149-0.094-0.076-0.085-0.149-0.217-0.212-0.381-0.14-0.369-0.217-0.863-0.217-1.392s0.077-1.023 0.217-1.392c0.063-0.165 0.136-0.297 0.212-0.381 0.031-0.035 0.092-0.094 0.149-0.094s0.118 0.059 0.149 0.094c0.076 0.085 0.149 0.217 0.212 0.381 0.14 0.369 0.217 0.863 0.217 1.392s-0.077 1.023-0.217 1.392c-0.063 0.165-0.136 0.297-0.212 0.381-0.031 0.035-0.092 0.094-0.149 0.094z"></path>
    </symbol>
    <symbol id="icon-users" viewBox="0 0 18 16">
      <title>users</title>
      <path class="path1" d="M12 12.041v-0.825c1.102-0.621 2-2.168 2-3.716 0-2.485 0-4.5-3-4.5s-3 2.015-3 4.5c0 1.548 0.898 3.095 2 3.716v0.825c-3.392 0.277-6 1.944-6 3.959h14c0-2.015-2.608-3.682-6-3.959z"></path>
      <path class="path2" d="M5.112 12.427c0.864-0.565 1.939-0.994 3.122-1.256-0.235-0.278-0.449-0.588-0.633-0.922-0.475-0.863-0.726-1.813-0.726-2.748 0-1.344 0-2.614 0.478-3.653 0.464-1.008 1.299-1.633 2.488-1.867-0.264-1.195-0.968-1.98-2.841-1.98-3 0-3 2.015-3 4.5 0 1.548 0.898 3.095 2 3.716v0.825c-3.392 0.277-6 1.944-6 3.959h4.359c0.227-0.202 0.478-0.393 0.753-0.573z"></path>
    </symbol>
    <symbol id="icon-quotes-right" viewBox="0 0 16 16">
      <title>quotes-right</title>
      <path class="path1" d="M12.5 10c-1.933 0-3.5-1.567-3.5-3.5s1.567-3.5 3.5-3.5 3.5 1.567 3.5 3.5l0.016 0.5c0 3.866-3.134 7-7 7v-2c1.336 0 2.591-0.52 3.536-1.464 0.182-0.182 0.348-0.375 0.497-0.578-0.179 0.028-0.362 0.043-0.549 0.043zM3.5 10c-1.933 0-3.5-1.567-3.5-3.5s1.567-3.5 3.5-3.5 3.5 1.567 3.5 3.5l0.016 0.5c0 3.866-3.134 7-7 7v-2c1.336 0 2.591-0.52 3.536-1.464 0.182-0.182 0.348-0.375 0.497-0.578-0.179 0.028-0.362 0.043-0.549 0.043z"></path>
    </symbol>
    <symbol id="icon-binoculars" viewBox="0 0 16 16">
      <title>binoculars</title>
      <path class="path1" d="M1 0h6v1h-6zM9 0h6v1h-6zM14.875 5h-0.875v-4h-4v4h-4v-4h-4v4h-0.875c-0.619 0-1.125 0.506-1.125 1.125v8.75c0 0.619 0.506 1.125 1.125 1.125h4.75c0.619 0 1.125-0.506 1.125-1.125v-5.875h2v5.875c0 0.619 0.506 1.125 1.125 1.125h4.75c0.619 0 1.125-0.506 1.125-1.125v-8.75c0-0.619-0.506-1.125-1.125-1.125zM5.438 15h-3.875c-0.309 0-0.563-0.225-0.563-0.5s0.253-0.5 0.563-0.5h3.875c0.309 0 0.563 0.225 0.563 0.5s-0.253 0.5-0.563 0.5zM8.5 8h-1c-0.275 0-0.5-0.225-0.5-0.5s0.225-0.5 0.5-0.5h1c0.275 0 0.5 0.225 0.5 0.5s-0.225 0.5-0.5 0.5zM14.438 15h-3.875c-0.309 0-0.563-0.225-0.563-0.5s0.253-0.5 0.563-0.5h3.875c0.309 0 0.563 0.225 0.563 0.5s-0.253 0.5-0.563 0.5z"></path>
    </symbol>
    <symbol id="icon-search" viewBox="0 0 16 16">
      <title>search</title>
      <path class="path1" d="M15.504 13.616l-3.79-3.223c-0.392-0.353-0.811-0.514-1.149-0.499 0.895-1.048 1.435-2.407 1.435-3.893 0-3.314-2.686-6-6-6s-6 2.686-6 6 2.686 6 6 6c1.486 0 2.845-0.54 3.893-1.435-0.016 0.338 0.146 0.757 0.499 1.149l3.223 3.79c0.552 0.613 1.453 0.665 2.003 0.115s0.498-1.452-0.115-2.003zM6 10c-2.209 0-4-1.791-4-4s1.791-4 4-4 4 1.791 4 4-1.791 4-4 4z"></path>
    </symbol>
    <symbol id="icon-key2" viewBox="0 0 16 16">
      <title>key2</title>
      <path class="path1" d="M15.658 4.91l-1.58-1.58c-0.387-0.387-1.021-1.021-1.409-1.409l-1.58-1.58c-0.387-0.387-1.077-0.456-1.533-0.152l-4.319 2.88c-0.456 0.304-0.628 0.954-0.383 1.444l1.101 2.203c0.034 0.067 0.073 0.139 0.115 0.213l-5.571 5.571-0.5 3.5h3v-1h2v-2h2v-2h2v-1.112c0.1 0.060 0.196 0.113 0.284 0.157l2.203 1.101c0.49 0.245 1.14 0.072 1.444-0.383l2.88-4.319c0.304-0.456 0.236-1.146-0.152-1.533zM2.354 13.354l-0.707-0.707 4.868-4.868 0.707 0.707-4.868 4.868zM14.328 6.621l-0.707 0.707c-0.194 0.194-0.513 0.194-0.707 0l-4.243-4.243c-0.194-0.194-0.194-0.513 0-0.707l0.707-0.707c0.194-0.194 0.513-0.194 0.707 0l4.243 4.243c0.194 0.194 0.194 0.513 0 0.707z"></path>
    </symbol>
    <symbol id="icon-wrench" viewBox="0 0 16 16">
      <title>wrench</title>
      <path class="path1" d="M15.671 12.779l-7.196-6.168c0.335-0.63 0.525-1.348 0.525-2.111 0-2.485-2.015-4.5-4.5-4.5-0.455 0-0.893 0.068-1.307 0.193l2.6 2.6c0.389 0.389 0.389 1.025 0 1.414l-1.586 1.586c-0.389 0.389-1.025 0.389-1.414 0l-2.6-2.6c-0.125 0.414-0.193 0.852-0.193 1.307 0 2.485 2.015 4.5 4.5 4.5 0.763 0 1.482-0.19 2.111-0.525l6.168 7.196c0.358 0.418 0.969 0.441 1.358 0.052l1.586-1.586c0.389-0.389 0.365-1-0.052-1.358z"></path>
    </symbol>
    <symbol id="icon-magic-wand" viewBox="0 0 16 16">
      <title>magic-wand</title>
      <path class="path1" d="M4 3l-2-2h-1v1l2 2zM5 0h1v2h-1zM9 5h2v1h-2zM10 2v-1h-1l-2 2 1 1zM0 5h2v1h-2zM5 9h1v2h-1zM1 9v1h1l2-2-1-1zM15.781 13.781l-9.939-9.939c-0.292-0.292-0.769-0.292-1.061 0l-0.939 0.939c-0.292 0.292-0.292 0.769 0 1.061l9.939 9.939c0.292 0.292 0.769 0.292 1.061 0l0.939-0.939c0.292-0.292 0.292-0.769 0-1.061zM7.5 8.5l-3-3 1-1 3 3-1 1z"></path>
    </symbol>
    <symbol id="icon-bug" viewBox="0 0 16 16">
      <title>bug</title>
      <path class="path1" d="M16 9v-1h-3.020c-0.092-1.136-0.497-2.172-1.12-3.004h2.53l1.095-4.379-0.97-0.243-0.905 3.621h-2.729c-0.014-0.011-0.028-0.021-0.042-0.032 0.105-0.305 0.162-0.632 0.162-0.972 0-1.653-1.343-2.992-3-2.992s-3 1.34-3 2.992c0 0.34 0.057 0.667 0.162 0.972-0.014 0.011-0.028 0.021-0.042 0.032h-2.729l-0.905-3.621-0.97 0.243 1.095 4.379h2.53c-0.623 0.832-1.028 1.868-1.12 3.004h-3.020v1h3.021c0.059 0.713 0.242 1.388 0.526 1.996h-1.937l-1.095 4.379 0.97 0.243 0.905-3.621h1.756c0.917 1.219 2.303 1.996 3.854 1.996s2.937-0.777 3.854-1.996h1.756l0.905 3.621 0.97-0.243-1.095-4.379h-1.937c0.283-0.608 0.466-1.283 0.526-1.996h3.021z"></path>
    </symbol>
    <symbol id="icon-rocket" viewBox="0 0 16 16">
      <title>rocket</title>
      <path class="path1" d="M11 1l-5 5h-3l-3 4c0 0 3.178-0.885 5.032-0.47l-5.032 6.47 6.592-5.127c0.919 2.104-0.592 5.127-0.592 5.127l4-3v-3l5-5 1-5-5 1z"></path>
    </symbol>
    <symbol id="icon-sphere" viewBox="0 0 16 16">
      <title>sphere</title>
      <path class="path1" d="M7.5 1c-4.142 0-7.5 3.358-7.5 7.5s3.358 7.5 7.5 7.5c4.142 0 7.5-3.358 7.5-7.5s-3.358-7.5-7.5-7.5zM11.744 11c0.134-0.632 0.219-1.303 0.246-2h1.991c-0.052 0.691-0.213 1.361-0.479 2h-1.758zM3.256 6c-0.134 0.632-0.219 1.303-0.246 2h-1.991c0.052-0.691 0.213-1.361 0.479-2h1.758zM10.719 6c0.15 0.64 0.241 1.31 0.27 2h-2.989v-2h2.719zM8 5v-2.927c0.228 0.066 0.454 0.178 0.675 0.334 0.415 0.293 0.813 0.744 1.149 1.304 0.233 0.388 0.434 0.819 0.601 1.289h-2.426zM5.176 3.711c0.336-0.561 0.734-1.012 1.149-1.304 0.222-0.156 0.447-0.268 0.675-0.334v2.927h-2.426c0.168-0.47 0.369-0.901 0.601-1.289zM7 6v2h-2.989c0.029-0.69 0.12-1.36 0.27-2h2.719zM1.498 11c-0.266-0.639-0.427-1.309-0.479-2h1.991c0.028 0.697 0.112 1.368 0.246 2h-1.758zM4.011 9h2.989v2h-2.719c-0.15-0.64-0.241-1.31-0.27-2zM7 12v2.927c-0.228-0.066-0.454-0.178-0.675-0.334-0.415-0.293-0.813-0.744-1.149-1.304-0.233-0.388-0.434-0.819-0.602-1.289h2.426zM9.825 13.289c-0.336 0.561-0.734 1.012-1.149 1.304-0.222 0.156-0.447 0.268-0.675 0.334v-2.927h2.426c-0.168 0.47-0.369 0.901-0.602 1.289zM8 11v-2h2.989c-0.029 0.69-0.12 1.36-0.27 2h-2.719zM11.99 8c-0.028-0.697-0.112-1.368-0.246-2h1.758c0.267 0.639 0.427 1.309 0.479 2h-1.991zM12.979 5h-1.498c-0.291-0.918-0.693-1.723-1.177-2.366 0.665 0.318 1.267 0.744 1.792 1.27 0.336 0.336 0.631 0.702 0.883 1.096zM2.904 3.904c0.526-0.526 1.128-0.952 1.792-1.27-0.483 0.643-0.886 1.448-1.177 2.366h-1.498c0.252-0.394 0.547-0.761 0.883-1.096zM2.021 12h1.498c0.291 0.918 0.693 1.723 1.177 2.366-0.665-0.318-1.267-0.744-1.792-1.27-0.336-0.336-0.631-0.702-0.883-1.096zM12.096 13.096c-0.526 0.526-1.128 0.952-1.792 1.27 0.483-0.643 0.886-1.448 1.177-2.366h1.498c-0.252 0.394-0.547 0.761-0.883 1.096z"></path>
    </symbol>
    <symbol id="icon-stats-bars" viewBox="0 0 16 16">
      <title>stats-bars</title>
      <path class="path1" d="M0 13h16v2h-16zM2 9h2v3h-2zM5 5h2v7h-2zM8 8h2v4h-2zM11 2h2v10h-2z"></path>
    </symbol>
    <symbol id="icon-html5" viewBox="0 0 16 16">
      <title>html-five2</title>
      <path class="path1" d="M0.946 0l1.284 14.4 5.762 1.6 5.777-1.602 1.286-14.398h-14.108zM12.668 13.482l-4.644 1.287v0.007l-0.012-0.004-0.012 0.004v-0.007l-4.644-1.287-1.098-12.304h11.508l-1.098 12.304zM10.168 8.284l-0.204 2.29-1.972 0.532-1.967-0.53-0.126-1.41h-1.773l0.247 2.774 3.626 1.003 3.615-1.003 0.485-5.422h-6.437l-0.161-1.809h6.758l0.158-1.766h-8.847l0.477 5.341z"></path>
    </symbol>
    <symbol id="icon-css3" viewBox="0 0 16 16">
      <title>css3</title>
      <path class="path1" d="M2.381 0.758l-0.537 2.686h10.934l-0.342 1.735h-10.94l-0.53 2.686h10.933l-0.61 3.063-4.406 1.46-3.819-1.46 0.261-1.329h-2.686l-0.639 3.224 6.316 2.417 7.281-2.417 2.403-12.066z"></path>
    </symbol>
    <!--include _symbols.pug-->
    <!--include _patterns.pug-->
    <!--include _filter.pug-->
  </defs>
  <rect width="1000" height="610" x="0" y="0" fill="rgba(0, 0, 0, .15)"></rect>
  <svg x="300" y="140" width="500" height="500" viewBox="0 0 500 500" style="fill:rbga(255,45,100,.5)">
    <circle class="base" cx="200" cy="200" r="170" fill="hsl(544, 52%, 75%)" style="fill-opacity:0.6"></circle>
    <g class="icon" id="programming">
      <use class="base" href="#icon-laptop" x="22%" y="-10%" width="180"></use>
      <use class="keyline" href="#icon-laptop" x="22%" y="-10%" width="180"></use>
    </g>
    <g class="icon" id="design">
      <use class="base" href="#icon-quill" x="22%" y="-10%" width="180"></use>
      <use class="keyline" href="#icon-quill" x="22%" y="-10%" width="180"></use>
    </g>
    <g class="icon" id="web">
      <use class="base" href="#icon-sphere" x="22%" y="-10%" width="180"></use>
      <use class="keyline" href="#icon-sphere" x="22%" y="-10%" width="180"></use>
    </g>
    <g class="icon" id="javascript">
      <use class="base" href="#icon-rocket" x="22%" y="-10%" width="180"></use>
      <use class="keyline" href="#icon-rocket" x="22%" y="-10%" width="180"></use>
    </g>
    <g class="icon" id="mobile">
      <use class="base" href="#icon-mobile" x="22%" y="-10%" width="180"></use>
      <use class="keyline" href="#icon-mobile" x="22%" y="-10%" width="180"></use>
    </g>
    <g class="icon" id="entrepreneur">
      <use class="base" href="#icon-stats-bars" x="22%" y="-10%" width="180"></use>
      <use class="keyline" href="#icon-stats-bars" x="22%" y="-10%" width="180"></use>
    </g>
    <g class="icon" id="blogs">
      <use class="base" href="#icon-pen" x="22%" y="-10%" width="180"></use>
      <use class="keyline" href="#icon-pen" x="22%" y="-10%" width="180"></use>
    </g>
    <g class="icon" id="wordpress">
      <use class="base" href="#icon-bullhorn" x="22%" y="-10%" width="180"></use>
      <use class="keyline" href="#icon-bullhorn" x="22%" y="-10%" width="180"></use>
    </g>
    <g class="icon" id="html5">
      <use class="base" href="#icon-html5" x="22%" y="-10%" width="180"></use>
      <use class="keyline" href="#icon-html5" x="22%" y="-10%" width="180"></use>
    </g>
    <g class="icon" id="css3">
      <use class="base" href="#icon-css3" x="22%" y="-10%" width="180"></use>
      <use class="keyline" href="#icon-css3" x="22%" y="-10%" width="180"></use>
    </g>
  </svg>
</svg>