<svg xmlns="http://www.w3.org/2000/svg" fill="none" viewBox="0 0 123 25">
  <path fill="#fff" d="M63.3 11.8c-1 0-1.7.3-2.5.7V20h1.8c2.5 0 2.8-1 2.8-2.6v-3.7c0-1.1-.4-2-2-2zm-16.1-.4c-1.8 0-2.2.9-2.2 2v.7h4.2v-.6c0-1.2-.4-2.1-2-2.1zm-31.4 8c0 .8.4 1.3 1.3 1.3 1 0 1.7-.3 2.4-.7v-1.7h-2.2c-1 0-1.5.2-1.5 1zM79 11.7c-1.7 0-2.3.9-2.3 2V18c0 1.2.6 2.1 2.3 2.1 1.7 0 2.3-1 2.3-2v-4.3c0-1.1-.6-2-2.3-2zM7.5 24h-5V12H0V8h2.5V5.4C2.5 2 4 0 8 0h3.3v4.1h-2c-1.6 0-1.7.6-1.7 1.7v2h3.7l-.4 4.2H7.5v12zm17 0h-4.2l-.1-1c-1.5.8-3.1 1.2-4.8 1.2-3 0-4.6-2-4.6-4.8 0-3.3 1.9-4.5 5.3-4.5h3.4v-.7c0-1.7-.2-2.2-2.8-2.2h-4.2l.4-4.1h4.6c5.7 0 7 1.8 7 6.3V24zm14.1-11.7c-2.6-.4-3.3-.6-4.5-.6-2.3 0-3 .6-3 2.5v3.5c0 1.9.7 2.4 2.9 2.4 1.3 0 2-.1 4.6-.6v4c-2.3.6-3.8.7-5 .7-5.3 0-7.4-2.8-7.4-6.9v-2.8c0-4.1 2.1-6.9 7.4-6.9 1.3 0 2.7.1 5 .6v4.1zm15.6 5.1h-9.1v.3c0 2 .6 2.4 2.8 2.4 2 0 4-.2 5.9-.5v4c-2 .5-4.2.7-6.3.7-5.3 0-7.4-2.9-7.4-6.9v-3.3c0-3.6 1.6-6.4 7-6.4 5.5 0 7.1 2.8 7.1 6.4v3.3zm16.2 0c0 4-1.2 6.9-8 6.9-2.1 0-4.4-.3-6.5-.7V1.2l5-.7v7.7c1-.4 2.4-.5 3.7-.5 5 0 5.8 2.2 5.8 5.7v4zm16 .2c0 3.4-1.4 6.6-7.3 6.6s-7.3-3.3-7.3-6.6v-3.3c0-3.4 1.4-6.6 7.3-6.6s7.2 3.2 7.2 6.6v3.3zm15.9 0c0 3.4-1.4 6.6-7.3 6.6-5.8 0-7.2-3.3-7.2-6.6v-3.3c0-3.4 1.4-6.6 7.2-6.6 6 0 7.3 3.2 7.3 6.6v3.3zm16.4 6.4h-5.4l-4.6-7.6V24h-5V1.2l5-.7V15l4.6-7.2h5.4l-5 7.9 5 8.2zM95 11.8c-1.7 0-2.2.9-2.2 2V18c0 1.2.5 2.1 2.2 2.1 1.7 0 2.3-1 2.3-2v-4.3c0-1.1-.6-2-2.3-2zm26.5 9.4c.9 0 1.5.7 1.5 1.5 0 .9-.6 1.6-1.5 1.6a1.5 1.5 0 01-1.5-1.6c0-.8.7-1.5 1.5-1.5zm0 .2c-.7 0-1.2.6-1.2 1.3 0 .8.5 1.3 1.2 1.3s1.3-.5 1.3-1.3c0-.7-.6-1.3-1.3-1.3zm-.3 2.2h-.3V22h.6l.5.1.1.3c0 .3-.1.4-.3.5l.3.4.1.4h-.3l-.1-.4c0-.2-.2-.3-.4-.3h-.2v.7zm0-1h.2c.2 0 .5 0 .5-.2s-.2-.3-.5-.3h-.2v.6z"/>
</svg>