<svg xmlns="http://www.w3.org/2000/svg" fill="none" viewBox="0 0 110 35">
  <path fill="#fff" d="M27 12.4H14.2V16h9.1c-.4 5.1-4.9 7.3-9 7.3a9.9 9.9 0 110-19.7A10 10 0 0121 6.4l2.7-2.7S20.3 0 14 0A14 14 0 000 13.5a14 14 0 0014.3 13.7c7.5 0 13-5 13-12.4 0-1.5-.3-2.4-.3-2.4zM37.6 9.7c-5.3 0-9 4-9 8.6 0 4.8 3.6 8.8 9 8.8 5 0 9-3.6 9-8.7 0-5.7-4.7-8.7-9-8.7zm0 3.4c2.6 0 5 2 5 5.3 0 3.2-2.4 5.3-5 5.3a5.1 5.1 0 01-5.1-5.3c0-3 2.2-5.3 5.1-5.3zM57.2 9.7c-5.2 0-9 4-9 8.6 0 4.8 3.6 8.8 9 8.8 5 0 9-3.6 9-8.7 0-5.7-4.6-8.7-9-8.7zm0 3.4c2.7 0 5.1 2 5.1 5.3 0 3.2-2.4 5.3-5 5.3a5.1 5.1 0 01-5.2-5.3c0-3 2.3-5.3 5.2-5.3zM76.5 9.7a8.7 8.7 0 000 17.5c2.5 0 3.9-1 4.9-2.2v1.8c0 3-2 4.8-4.8 4.8a5 5 0 01-4.6-3.1l-3.4 1.4a8.7 8.7 0 008 5.1c4.9 0 8.5-3 8.5-9.1V10.2h-3.7v1.5a6.5 6.5 0 00-4.9-2zM77 13c2.3 0 4.8 2 4.8 5.3 0 3.4-2.5 5.3-4.9 5.3a5 5 0 01-5-5.2c0-3.4 2.5-5.4 5-5.4zM101.9 9.7a8.4 8.4 0 00-8.4 8.7c0 5.5 4.3 8.7 8.8 8.7 3.8 0 6.2-2 7.6-3.8l-3.1-2a5 5 0 01-4.4 2.4 4.6 4.6 0 01-4.5-2.6l12.1-4.9-.6-1.4a8.1 8.1 0 00-7.5-5.1zm.2 3.3c1.6 0 2.8.9 3.3 1.9l-8 3.3c-.4-2.6 2-5.2 4.7-5.2zM87.8 26.6h4V1h-4v25.7z"/>
</svg>