<svg width="17" height="21" viewBox="0 0 17 21" fill="none" xmlns="http://www.w3.org/2000/svg">
<path d="M15.3 1.7766V19.0152L9.68203 13.38L8.5 12.2003L7.31797 13.38L1.7 19.0152V1.7766H15.3ZM15.4594 0C15.0477 0 1.95234 0 1.54063 0C1.34141 0 1.14219 0.0416393 0.95625 0.124917C0.371875 0.360872 0 0.92994 0 1.55453V19.4455C0 20.0701 0.371875 20.6391 0.95625 20.8751C1.14219 20.9584 1.34141 21 1.54063 21C1.95234 21 2.3375 20.8334 2.64297 20.542L8.5 14.657L14.357 20.542C14.6625 20.8334 15.0477 20.9861 15.4594 20.9861C15.6586 20.9861 15.8578 20.9584 16.0438 20.8751C16.6281 20.6391 17 20.0701 17 19.4455V1.55453C17 0.92994 16.6281 0.360872 16.0438 0.124917C15.8578 0.0416393 15.6586 0 15.4594 0Z" fill="white"/>
</svg>
