<svg class="icon-library" fill="none" viewBox="0 0 23 25">
    <g id="icon-calendar">
        <path d="M18.01 12.91a.427.427 0 0 0 0-.602l-.636-.616a.461.461 0 0 0-.622 0l-6.137 5.946-3.04-2.946a.461.461 0 0 0-.622 0l-.636.616a.427.427 0 0 0 0 .603l3.98 3.857c.18.16.457.16.636 0l7.077-6.857zM1.77 22.287V8.57h19.46v13.715H1.77zM7.076 6a.43.43 0 0 1-.442.429H5.75A.43.43 0 0 1 5.308 6V2.143a.43.43 0 0 1 .442-.429h.885a.43.43 0 0 1 .442.429V6zm10.615 0a.43.43 0 0 1-.442.429h-.885A.43.43 0 0 1 15.923 6V2.143a.43.43 0 0 1 .442-.429h.885a.43.43 0 0 1 .442.429V6zM23 5.143c0-.938-.802-1.714-1.77-1.714h-1.768V2.143C19.462.964 18.466 0 17.25 0h-.885c-1.216 0-2.211.964-2.211 2.143v1.286H8.846V2.143C8.846.964 7.851 0 6.635 0H5.75C4.534 0 3.538.964 3.538 2.143v1.286H1.77C.802 3.429 0 4.205 0 5.143v17.143C0 23.223.802 24 1.77 24h19.46c.968 0 1.77-.777 1.77-1.714V5.143z" style="fill:currentColor"/>
    </g>
</svg>
