<svg viewBox="0 0 101 101" fill="none" xmlns="http://www.w3.org/2000/svg">
    <defs>
        <style>
		.icon {
			display: none;
            fill: green;
            color: currentColor
		}
		.icon:target {
			display: inline;
            fill-opacity:0.4;
            
		}
		rect, line, path {
			shape-rendering: crispEdges;
            fill: green;
		}

        </style>
        <filter id="linear">
            <feColorMatrix type="matrix" values="1 0 0 0 0
              0 1 0 0 0
              -0.2 0.2 0.1 0.4 0
              0 0 0 1 0 "/>
        </filter>
       
        <filter id="myblurfilter" width="110%" height="100%">
            <feGaussianBlur stdDeviation="1" result="blur" />
        </filter>

        <!--hueRotate-->
        <filter id="colorMeHueRotate">
            <feColorMatrix in="SourceGraphic" type="hueRotate" values="270"/>
        </filter>
    </defs>
        <g class="icon" id="star-hollow"> 
            <path  d="M69.646 60.573l4.284 24.936L51.5 73.722 29.01 85.51l4.344-24.936L15.148 42.98l25.107-3.672L51.5 16.682 62.745 39.31l25.107 3.672-18.206 17.592zM101 39.427c0-1.777-1.904-2.487-3.332-2.724l-29.866-4.324-13.387-26.95C53.88 4.302 52.868 3 51.5 3s-2.38 1.303-2.915 2.428l-13.387 26.95-29.866 4.325C3.844 36.939 2 37.65 2 39.427c0 1.066.773 2.073 1.487 2.843l21.657 20.968-5.117 29.616c-.06.414-.119.77-.119 1.184 0 1.54.773 2.962 2.499 2.962.833 0 1.606-.296 2.38-.71L51.5 82.31l26.713 13.98c.714.414 1.547.71 2.38.71 1.725 0 2.44-1.362 2.44-2.962 0-.414 0-.77-.06-1.184l-5.117-29.616L99.453 42.27c.774-.77 1.547-1.777 1.547-2.843z" />
        </g>
        <path class="icon"  id="star-half" d="M72.285 57.789l-2.945 2.784.72 3.909 3.607 21.027-19.114-9.95-3.546-1.837v-57.04l9.557 19.073 1.803 3.554 3.967.592 21.398 3.08L72.285 57.79zM99.453 42.27c2.645-2.547 1.804-5.034-1.803-5.567l-30.174-4.324-13.524-26.95C53.111 3.828 52.089 3 51.007 3c-1.082 0-2.164.83-2.946 2.428l-13.524 26.95-30.174 4.325c-3.606.533-4.448 3.02-1.863 5.567l21.88 20.968-5.17 29.616C18.79 95.46 19.75 97 21.614 97c.661 0 1.503-.237 2.404-.71l26.989-13.98 26.988 13.98c.902.473 1.743.71 2.404.71 1.864 0 2.825-1.54 2.405-4.146l-5.17-29.616 21.82-20.968z" />
        <path class="icon"  id="star-full" d="M101 39.427c0-1.777-1.923-2.487-3.365-2.724l-30.169-4.324-13.521-26.95C53.404 4.302 52.382 3 51 3s-2.404 1.303-2.945 2.428l-13.521 26.95-30.169 4.325C2.863 36.939 1 37.65 1 39.427c0 1.066.781 2.073 1.502 2.843l21.875 20.968-5.168 29.616c-.06.414-.12.77-.12 1.184 0 1.54.781 2.962 2.524 2.962.841 0 1.623-.296 2.404-.71L51 82.31l26.983 13.98c.721.414 1.563.71 2.404.71 1.743 0 2.464-1.421 2.464-2.962 0-.414 0-.77-.06-1.184l-5.168-29.616L99.437 42.27c.782-.77 1.563-1.777 1.563-2.843z" />
        <path class="icon"  id="darkmode" fill-rule="evenodd" clip-rule="evenodd" d="M52 92c22.644 0 41-18.356 41-41S74.644 10 52 10 11 28.356 11 51s18.356 41 41 41zm-.248-7.936a33.9 33.9 0 01-1.075-.016V17.952a33.9 33.9 0 011.075-.017c18.399 0 33.312 14.804 33.312 33.065 0 18.261-14.913 33.064-33.312 33.064z" />
        <path class="icon"  id="moon" d="M83 76.248a36.285 36.285 0 01-12.654 2.264c-20.336 0-36.821-16.722-36.821-37.35 0-13.685 7.256-25.652 18.08-32.156-.231-.004-.461-.006-.693-.006C28.317 9 10 27.58 10 50.5S28.317 92 50.912 92C63.918 92 75.506 85.844 83 76.248z" />
        <g id="add"  class="icon" >
            <path d="M26.077 20H76v64L51.5 67.651l-25.423 16.25V63.9c.632.06 1.271.09 1.92.09 10.604 0 19.201-8.206 19.201-18.33 0-10.122-8.597-18.328-19.201-18.328-.649 0-1.288.03-1.92.09V20z" />
            <path fill-rule="evenodd" clip-rule="evenodd" d="M39.692 45.143c0 6.312-5.08 11.428-11.346 11.428S17 51.455 17 45.143c0-6.312 5.08-11.429 11.346-11.429s11.346 5.117 11.346 11.429zm-13.615-6.857v4.571h-4.539v4.572h4.539V52h4.538v-4.571h4.539v-4.572h-4.539v-4.571h-4.538z" />
        </g>
        <path  class="icon" id="bookmark" d="M26 20h50v64L51 67.2 26 84V20z"/>
        <path  class="icon" id="toc" d="M26 75c0-4.969-4.031-9-9-9s-9 4.031-9 9 4.031 9 9 9 9-4.031 9-9zm0-24c0-4.969-4.031-9-9-9s-9 4.031-9 9 4.031 9 9 9 9-4.031 9-9zm66 19.5c0-.797-.703-1.5-1.5-1.5h-57c-.797 0-1.5.703-1.5 1.5v9c0 .797.703 1.5 1.5 1.5h57c.797 0 1.5-.703 1.5-1.5v-9zM26 27c0-4.969-4.031-9-9-9s-9 4.031-9 9 4.031 9 9 9 9-4.031 9-9zm66 19.5c0-.797-.703-1.5-1.5-1.5h-57c-.797 0-1.5.703-1.5 1.5v9c0 .797.703 1.5 1.5 1.5h57c.797 0 1.5-.703 1.5-1.5v-9zm0-24c0-.797-.703-1.5-1.5-1.5h-57c-.797 0-1.5.703-1.5 1.5v9c0 .797.703 1.5 1.5 1.5h57c.797 0 1.5-.703 1.5-1.5v-9z" />
        <g  class="icon" id="activity"  filter="url(#myblurfilter)">
            <path fill-rule="evenodd" clip-rule="evenodd" d="M49.698 29.938c0 8.803-7.096 15.939-15.849 15.939S18 38.74 18 29.938C18 21.136 25.096 14 33.849 14s15.849 7.136 15.849 15.938zm-4.385 1.575c0 .995-.803 1.803-1.793 1.803H33.377c-.989 0-1.792-.808-1.792-1.803v-8.88c0-.995.803-1.802 1.792-1.802.99 0 1.793.807 1.793 1.803v7.076h8.35c.99 0 1.793.808 1.793 1.803z" />
            <path fill-rule="evenodd" clip-rule="evenodd" d="M33.85 48.154c10.003 0 18.112-8.155 18.112-18.216 0-1.987-.316-3.9-.902-5.692h21.28c3.126 0 5.66 2.549 5.66 5.693v52.369C78 85.45 75.466 88 72.34 88H36.113c-3.126 0-5.66-2.549-5.66-5.692V47.834c1.1.21 2.235.32 3.396.32zm11.98 21.63h19.42c.992 0 1.794.809 1.794 1.803 0 .996-.803 1.803-1.793 1.803H45.83c-.99 0-1.793-.807-1.793-1.803 0-.994.803-1.802 1.793-1.802zM65.25 58.4H45.83c-.989 0-1.792.808-1.792 1.803 0 .995.803 1.802 1.793 1.802h19.42c.99 0 1.793-.807 1.793-1.802S66.242 58.4 65.25 58.4zM45.83 47.015h19.42c.992 0 1.794.808 1.794 1.803 0 .996-.803 1.803-1.793 1.803H45.83c-.99 0-1.793-.807-1.793-1.803 0-.994.803-1.803 1.793-1.803z" />
        </g>
        <path  class="icon" id="Union" fill-rule="evenodd" clip-rule="evenodd" d="M62.27 69.134a32.99 32.99 0 01-20.19 6.856C23.81 75.99 9 61.218 9 42.995 9 24.773 23.81 10 42.08 10c18.27 0 33.08 14.773 33.08 32.995 0 7.178-2.298 13.82-6.2 19.236l21.63 21.576a4.79 4.79 0 010 6.787 4.82 4.82 0 01-6.804 0L62.27 69.134zm3.266-26.139c0 12.922-10.502 23.397-23.456 23.397-12.955 0-23.457-10.475-23.457-23.397 0-12.921 10.502-23.396 23.457-23.396s23.456 10.475 23.456 23.396z" />

</svg>
