<svg width="21" height="21" viewBox="0 0 21 21" fill="none" xmlns="http://www.w3.org/2000/svg">
<path d="M17.5 6.58984C17.1172 7.17773 16.625 7.6836 16.0645 8.08008C16.0781 8.20313 16.0781 8.32617 16.0781 8.44922C16.0781 12.25 13.1797 16.625 7.90234 16.625C6.27539 16.625 4.77148 16.1465 3.5 15.3398C3.71875 15.3672 3.95117 15.3809 4.18359 15.3809C5.53711 15.3809 6.76758 14.916 7.75195 14.1504C6.49414 14.123 5.44141 13.2891 5.07227 12.1543C5.25 12.1816 5.42773 12.209 5.60547 12.209C5.86523 12.209 6.05664 12.168 6.30273 12.0996C4.99023 11.8398 3.9375 10.6777 3.9375 9.2832C3.9375 9.26953 3.9375 9.25586 3.9375 9.25586C4.375 9.46094 4.82617 9.59766 5.30469 9.61133C4.52539 9.0918 4.06055 8.2168 4.06055 7.21875C4.06055 6.69922 4.21094 6.19336 4.45703 5.76953C5.87891 7.51953 7.99805 8.6543 10.3906 8.77734C10.3359 8.57227 10.3223 8.33984 10.3223 8.12109C10.3223 6.53516 11.6074 5.25 13.1934 5.25C14.0137 5.25 14.7656 5.5918 15.2852 6.15234C15.9414 6.0293 16.5566 5.7832 17.1172 5.45508C16.8984 6.125 16.4473 6.69922 15.8457 7.05469C16.4336 6.97266 16.9805 6.82227 17.5 6.58984ZM21 3.9375C21 1.76367 19.2363 0 17.0625 0H3.9375C1.76367 0 0 1.76367 0 3.9375V17.0625C0 19.2363 1.76367 21 3.9375 21H17.0625C19.2363 21 21 19.2363 21 17.0625V3.9375Z" fill="white"/>
</svg>
