<svg viewBox="0 0 101 101" fill="none" xmlns="http://www.w3.org/2000/svg">
<defs>
    <style>
        path{
        fill: #fff;
        }
        .dark{
        outline: 1px red dashed;outline: 1px red dashed;
        }
    </style>
  <g id="icons-blog">
    <symbol id="myDot" width="10" height="10" viewBox="0 0 2 2">
        <path id="quote" d="M48.846 56.773c0-5.195-4.238-9.41-9.461-9.41H28.346c-2.612 0-4.73-2.107-4.73-4.704v-1.568c0-6.91 5.666-12.546 12.615-12.546h3.154c1.724 0 3.154-1.42 3.154-3.136v-6.273c0-1.715-1.43-3.136-3.154-3.136H36.23C22.334 16 11 27.271 11 41.09v34.5c0 5.195 4.238 9.41 9.462 9.41h18.923c5.223 0 9.461-4.215 9.461-9.41V56.774zm44.154 0c0-5.195-4.238-9.41-9.462-9.41H72.5c-2.612 0-4.73-2.107-4.73-4.704v-1.568c0-6.91 5.666-12.546 12.615-12.546h3.153c1.725 0 3.154-1.42 3.154-3.136v-6.273c0-1.715-1.429-3.136-3.153-3.136h-3.154c-13.897 0-25.231 11.271-25.231 25.09v34.5c0 5.195 4.238 9.41 9.461 9.41H83.54C88.761 85 93 80.785 93 75.59V56.774z"/>
    </sm
        <path id="close" d="M72.584 63.007a3.65 3.65 0 01-1.051 2.545l-4.98 4.98a3.65 3.65 0 01-2.546 1.052 3.52 3.52 0 01-2.49-1.051L51.5 60.516 41.484 70.533a3.52 3.52 0 01-2.49 1.051 3.65 3.65 0 01-2.546-1.051l-4.98-4.98a3.65 3.65 0 01-1.052-2.546c0-.941.387-1.827 1.051-2.49L41.484 50.5 31.467 40.484a3.52 3.52 0 01-1.051-2.49c0-.941.387-1.882 1.051-2.546l4.98-4.98a3.65 3.65 0 012.546-1.052c.941 0 1.827.387 2.49 1.051L51.5 40.484l10.016-10.017a3.52 3.52 0 012.49-1.051c.941 0 1.882.387 2.546 1.051l4.98 4.98a3.65 3.65 0 011.052 2.546 3.52 3.52 0 01-1.051 2.49L61.516 50.5l10.017 10.016a3.52 3.52 0 011.051 2.49zM94 50.5C94 27.037 74.963 8 51.5 8S9 27.037 9 50.5 28.037 93 51.5 93 94 73.963 94 50.5z"/>
        <g id="library">
        <path d="M58.924 15H40.462v69.231h18.462V31.156l9.23 53.076L82 81.924l-9.23-53.078-13.845 2.308V15zM22 28.846h13.846v55.385H22V28.846z"/>
        </g>
        <path id="download" d="M72.462 76c0 1.64-1.325 3-2.924 3-1.598 0-2.923-1.36-2.923-3s1.325-3 2.924-3c1.598 0 2.922 1.36 2.922 3zm11.692 0c0 1.64-1.325 3-2.923 3-1.599 0-2.923-1.36-2.923-3s1.324-3 2.923-3c1.598 0 2.923 1.36 2.923 3zM90 65.5c0-2.484-1.964-4.5-4.385-4.5H64.423l-6.212 6.375C56.522 69.063 54.33 70 52 70c-2.33 0-4.522-.938-6.212-2.625L39.623 61H18.385C15.964 61 14 63.016 14 65.5v15c0 2.484 1.964 4.5 4.385 4.5h67.23C88.036 85 90 82.984 90 80.5v-15zM75.156 38.828C74.7 37.75 73.65 37 72.461 37H60.77V16c0-1.64-1.324-3-2.923-3H46.154c-1.599 0-2.923 1.36-2.923 3v21H31.538c-1.187 0-2.238.75-2.694 1.828-.457 1.125-.229 2.438.64 3.281l20.46 21c.549.61 1.325.891 2.056.891.73 0 1.507-.281 2.055-.89l20.462-21c.868-.844 1.096-2.157.64-3.282z"/>
        <path id="chevron-down" d="M51.405 61.105L81.084 31 92 42.983 51.38 83 10 42.983 20.916 31l30.489 30.105z"/>
        <path id="chevron-right" d="M56.105 50.595L26 20.916 37.983 10 78 50.62 37.983 92 26 81.084l30.105-30.489z"/>
        <g id="text-size">
        <path fill-rule="evenodd" clip-rule="evenodd" d="M24.387 69.09h16.37l4.41 15.134 13.09.014L41.349 28H24.387L7 84.224h13.316l4.07-15.133zm14.504-9.143H26.253l4.739-17.329 1.283-5.478h.17l1.378 5.43 5.068 17.377z"/>
        <path d="M83.162 32.017h-7.07v8.787h-8.837v7.03h8.837v8.787h7.07v-8.787H92v-7.03h-8.837v-8.787zM92 68.17v7.03H67.255v-7.03H92z"/>
        </g>
        <path id="star-hollow" d="M69.646 60.573l4.284 24.936L51.5 73.722 29.01 85.51l4.344-24.936L15.148 42.98l25.107-3.672L51.5 16.682 62.745 39.31l25.107 3.672-18.206 17.592zM101 39.427c0-1.777-1.904-2.487-3.332-2.724l-29.866-4.324-13.387-26.95C53.88 4.302 52.868 3 51.5 3s-2.38 1.303-2.915 2.428l-13.387 26.95-29.866 4.325C3.844 36.939 2 37.65 2 39.427c0 1.066.773 2.073 1.487 2.843l21.657 20.968-5.117 29.616c-.06.414-.119.77-.119 1.184 0 1.54.773 2.962 2.499 2.962.833 0 1.606-.296 2.38-.71L51.5 82.31l26.713 13.98c.714.414 1.547.71 2.38.71 1.725 0 2.44-1.362 2.44-2.962 0-.414 0-.77-.06-1.184l-5.117-29.616L99.453 42.27c.774-.77 1.547-1.777 1.547-2.843z"/>
        <path id="star-half" d="M72.285 57.789l-2.945 2.784.72 3.909 3.607 21.027-19.114-9.95-3.546-1.837v-57.04l9.557 19.073 1.803 3.554 3.967.592 21.398 3.08L72.285 57.79zM99.453 42.27c2.645-2.547 1.804-5.034-1.803-5.567l-30.174-4.324-13.524-26.95C53.111 3.828 52.089 3 51.007 3c-1.082 0-2.164.83-2.946 2.428l-13.524 26.95-30.174 4.325c-3.606.533-4.448 3.02-1.863 5.567l21.88 20.968-5.17 29.616C18.79 95.46 19.75 97 21.614 97c.661 0 1.503-.237 2.404-.71l26.989-13.98 26.988 13.98c.902.473 1.743.71 2.404.71 1.864 0 2.825-1.54 2.405-4.146l-5.17-29.616 21.82-20.968z"/>
        <path id="star-full" d="M101 39.427c0-1.777-1.923-2.487-3.365-2.724l-30.169-4.324-13.521-26.95C53.404 4.302 52.382 3 51 3s-2.404 1.303-2.945 2.428l-13.521 26.95-30.169 4.325C2.863 36.939 1 37.65 1 39.427c0 1.066.781 2.073 1.502 2.843l21.875 20.968-5.168 29.616c-.06.414-.12.77-.12 1.184 0 1.54.781 2.962 2.524 2.962.841 0 1.623-.296 2.404-.71L51 82.31l26.983 13.98c.721.414 1.563.71 2.404.71 1.743 0 2.464-1.421 2.464-2.962 0-.414 0-.77-.06-1.184l-5.168-29.616L99.437 42.27c.782-.77 1.563-1.777 1.563-2.843z"/>
        <path id="darkmode" fill-rule="evenodd" clip-rule="evenodd" d="M52 92c22.644 0 41-18.356 41-41S74.644 10 52 10 11 28.356 11 51s18.356 41 41 41zm-.248-7.936a33.9 33.9 0 01-1.075-.016V17.952a33.9 33.9 0 011.075-.017c18.399 0 33.312 14.804 33.312 33.065 0 18.261-14.913 33.064-33.312 33.064z"/>
        <path id="moon" d="M83 76.248a36.285 36.285 0 01-12.654 2.264c-20.336 0-36.821-16.722-36.821-37.35 0-13.685 7.256-25.652 18.08-32.156-.231-.004-.461-.006-.693-.006C28.317 9 10 27.58 10 50.5S28.317 92 50.912 92C63.918 92 75.506 85.844 83 76.248z"/>
        <g id="add">
        <path d="M26.077 20H76v64L51.5 67.651l-25.423 16.25V63.9c.632.06 1.271.09 1.92.09 10.604 0 19.201-8.206 19.201-18.33 0-10.122-8.597-18.328-19.201-18.328-.649 0-1.288.03-1.92.09V20z"/>
        <path fill-rule="evenodd" clip-rule="evenodd" d="M39.692 45.143c0 6.312-5.08 11.428-11.346 11.428S17 51.455 17 45.143c0-6.312 5.08-11.429 11.346-11.429s11.346 5.117 11.346 11.429zm-13.615-6.857v4.571h-4.539v4.572h4.539V52h4.538v-4.571h4.539v-4.572h-4.539v-4.571h-4.538z"/>
        </g>
        <path id="bookmark" d="M26 20h50v64L51 67.2 26 84V20z"/>
        <path id="toc" d="M26 75c0-4.969-4.031-9-9-9s-9 4.031-9 9 4.031 9 9 9 9-4.031 9-9zm0-24c0-4.969-4.031-9-9-9s-9 4.031-9 9 4.031 9 9 9 9-4.031 9-9zm66 19.5c0-.797-.703-1.5-1.5-1.5h-57c-.797 0-1.5.703-1.5 1.5v9c0 .797.703 1.5 1.5 1.5h57c.797 0 1.5-.703 1.5-1.5v-9zM26 27c0-4.969-4.031-9-9-9s-9 4.031-9 9 4.031 9 9 9 9-4.031 9-9zm66 19.5c0-.797-.703-1.5-1.5-1.5h-57c-.797 0-1.5.703-1.5 1.5v9c0 .797.703 1.5 1.5 1.5h57c.797 0 1.5-.703 1.5-1.5v-9zm0-24c0-.797-.703-1.5-1.5-1.5h-57c-.797 0-1.5.703-1.5 1.5v9c0 .797.703 1.5 1.5 1.5h57c.797 0 1.5-.703 1.5-1.5v-9z" fill="#fff"/>
        <g id="connect-on">
        <path d="M48.797 83a8.65 8.65 0 100-17.299 8.65 8.65 0 000 17.3zM62.443 43.816c-6.27-2.642-8.921-2.764-13.658-2.764a34.75 34.75 0 00-13.94 2.884 34.785 34.785 0 00-11.283 7.826l10.915 10.546c3.783-3.913 8.619-6.07 14.308-6.07 5.866 0 12.43 3.19 14.786 5.548L73 52.357s-4.288-5.898-10.557-8.54z"/>
        <path d="M48.796 32.186c11.663 0 22.643 4.52 30.924 12.725l10.677-10.785a59.092 59.092 0 00-18.72-12.53A58.806 58.806 0 0048.798 17c-7.979 0-15.718 1.56-23.013 4.65A58.76 58.76 0 007 34.321l10.73 10.73c8.293-8.291 19.327-12.865 31.066-12.865z"/>
        </g>
        <g id="connect-off">
        <g id="Union" fill-opacity=".33">
            <path d="M79.72 44.911c-8.28-8.205-19.26-12.725-30.924-12.725-11.739 0-22.773 4.574-31.065 12.866L7 34.322A58.76 58.76 0 0125.784 21.65C33.08 18.56 40.818 17 48.796 17c7.924 0 15.63 1.55 22.882 4.596a59.092 59.092 0 0118.72 12.53L79.72 44.911z"/>
            <path d="M67.884 46.7a34.318 34.318 0 00-5.442-2.883 34.83 34.83 0 00-13.657-2.764c-4.834 0-9.528.964-13.94 2.883a34.787 34.787 0 00-11.283 7.826l10.915 10.546c3.783-3.913 8.867-6.07 14.308-6.07 5.311 0 10.308 2.07 14.07 5.832l2.752-2.753-5.17-5.17 7.447-7.447zM48.797 83a8.65 8.65 0 100-17.3 8.65 8.65 0 000 17.3z"/>
        </g>
        <path id="Vector" d="M73.856 46.862l-7.273 7.273 9.7 9.701-9.7 9.701 7.273 7.273 9.7-9.7 9.702 9.7 7.273-7.273-9.701-9.701 9.701-9.701-7.273-7.273-9.701 9.701-9.701-9.701z" fill="red"/>
        </g>
        <g id="activity" fill-rule="evenodd" clip-rule="evenodd">
        <path d="M49.698 29.938c0 8.803-7.096 15.939-15.849 15.939S18 38.74 18 29.938C18 21.136 25.096 14 33.849 14s15.849 7.136 15.849 15.938zm-4.385 1.575c0 .995-.803 1.803-1.793 1.803H33.377c-.989 0-1.792-.808-1.792-1.803v-8.88c0-.995.803-1.802 1.792-1.802.99 0 1.793.807 1.793 1.803v7.076h8.35c.99 0 1.793.808 1.793 1.803z"/>
        <path d="M33.85 48.154c10.003 0 18.112-8.155 18.112-18.216 0-1.987-.316-3.9-.902-5.692h21.28c3.126 0 5.66 2.549 5.66 5.693v52.369C78 85.45 75.466 88 72.34 88H36.113c-3.126 0-5.66-2.549-5.66-5.692V47.834c1.1.21 2.235.32 3.396.32zm11.98 21.63h19.42c.992 0 1.794.809 1.794 1.803 0 .996-.803 1.803-1.793 1.803H45.83c-.99 0-1.793-.807-1.793-1.803 0-.994.803-1.802 1.793-1.802zM65.25 58.4H45.83c-.989 0-1.792.808-1.792 1.803 0 .995.803 1.802 1.793 1.802h19.42c.99 0 1.793-.807 1.793-1.802S66.242 58.4 65.25 58.4zM45.83 47.015h19.42c.992 0 1.794.808 1.794 1.803 0 .996-.803 1.803-1.793 1.803H45.83c-.99 0-1.793-.807-1.793-1.803 0-.994.803-1.803 1.793-1.803z"/>
        </g>
        <path id="chevron" d="M56.21 54.783L40 38.858 46.452 33 68 54.796 46.452 77 40 71.142l16.21-16.36z"/>
        <g id="available">
        <path id="Vector_2" d="M77.635 44.12c-3.002-4.202-8.166-6.398-13.24-5.615a20.529 20.529 0 00-7.576-8.38A20.656 20.656 0 0045.937 27c-11.999 0-21.322 10.234-20.503 21.766a18.27 18.27 0 00-8.298 6.685A18.148 18.148 0 0014 65.609c0 10.018 8.187 18.169 18.25 18.169h38.781C79.837 83.778 87 76.646 87 67.88c.009-2.62-.636-5.2-1.876-7.51a15.84 15.84 0 00-5.23-5.724 13.342 13.342 0 00-2.259-10.526zm4.802 23.76c0 6.261-5.116 11.356-11.406 11.356H32.25c-7.549 0-13.688-6.112-13.688-13.627.004-2.966.98-5.85 2.778-8.213a13.694 13.694 0 017.19-4.887 2.28 2.28 0 001.312-.97 2.263 2.263 0 00.323-1.596c-1.613-9.43 5.851-18.4 15.773-18.4a16.04 16.04 0 019.117 2.86 15.93 15.93 0 015.85 7.527c.2.549.605.999 1.131 1.257a2.284 2.284 0 001.69.129 9.202 9.202 0 015.657.071 9.16 9.16 0 014.536 3.365 8.948 8.948 0 011.164 8.233 2.261 2.261 0 00.039 1.595c.206.51.591.927 1.083 1.175a11.332 11.332 0 014.56 4.182 11.263 11.263 0 011.672 5.943z"/>
        <path id="Vector 2.1 (Stroke)" fill-rule="evenodd" clip-rule="evenodd" d="M64.326 49.574a3.396 3.396 0 010 4.817L46.094 72.543 34.558 62.495a3.396 3.396 0 01-.322-4.807 3.432 3.432 0 014.829-.32l6.716 5.85 13.705-13.644a3.433 3.433 0 014.839 0z" fill="#5CB85C"/>
        </g>
        <g id="not-available">
        <path d="M80.386 32.787a3.4 3.4 0 000-4.794 3.365 3.365 0 00-4.773 0l-55.977 56.22a3.4 3.4 0 000 4.794 3.365 3.365 0 004.773 0l55.977-56.22zM57.233 30.965a20.27 20.27 0 013.576 2.857l-3.181 3.195A15.726 15.726 0 0046.5 32.375c-9.785 0-17.148 8.926-15.557 18.31a2.265 2.265 0 01-1.613 2.553 13.496 13.496 0 00-7.09 4.862 13.599 13.599 0 00-2.74 8.172c0 2.583.722 5 1.974 7.056l-3.247 3.262A18.029 18.029 0 0115 66.272a18.17 18.17 0 013.093-10.107 18.047 18.047 0 018.184-6.651C25.47 38.038 34.666 27.855 46.5 27.855a20.24 20.24 0 0110.733 3.109zM38.045 84.35l4.5-4.52H71.25c6.203 0 11.25-5.068 11.25-11.298a11.287 11.287 0 00-1.65-5.913 11.211 11.211 0 00-4.497-4.161 2.26 2.26 0 01-1.107-2.757 8.959 8.959 0 00-.893-7.816l3.23-3.244a13.362 13.362 0 012.407 10.723 15.71 15.71 0 015.16 5.696A15.797 15.797 0 0187 68.532c0 8.723-7.065 15.819-15.75 15.819H38.045z"/>
        </g>
        <path id="company" d="M51.5 34.667V22H19v57h65V34.667H51.5zm-19.5 38h-6.5v-6.334H32v6.334zM32 60h-6.5v-6.333H32V60zm0-12.667h-6.5V41H32v6.333zm0-12.666h-6.5v-6.334H32v6.334zm13 38h-6.5v-6.334H45v6.334zM45 60h-6.5v-6.333H45V60zm0-12.667h-6.5V41H45v6.333zm0-12.666h-6.5v-6.334H45v6.334zm32.5 38h-26v-6.334H58V60h-6.5v-6.333H58v-6.334h-6.5V41h26v31.667zM71 47.333h-6.5v6.334H71v-6.334zM71 60h-6.5v6.333H71V60z"/>
        <path id="location" d="M51.518 15.333C36.873 15.333 25 27.207 25 41.851c0 14.645 22.098 44.197 26.518 44.197 4.42 0 26.518-29.552 26.518-44.197 0-14.644-11.874-26.518-26.518-26.518zm0 44.197c-9.75 0-17.679-7.933-17.679-17.679 0-9.745 7.93-17.678 17.679-17.678 9.75 0 17.678 7.933 17.678 17.678 0 9.746-7.928 17.679-17.678 17.679z"/>
        <path id="dollar" d="M50.354 70.8c4.432 0 7.54-.705 9.326-2.115 1.784-1.411 2.677-3.21 2.677-5.397 0-1.61-.389-2.992-1.166-4.143-.778-1.152-1.814-2.16-3.108-3.023-1.295-.863-2.792-1.64-4.49-2.33-1.699-.69-3.44-1.353-5.223-1.987a71.152 71.152 0 01-5.138-2.115c-1.699-.777-3.21-1.727-4.534-2.85a13.54 13.54 0 01-3.237-4.058c-.834-1.582-1.252-3.525-1.252-5.828 0-4.088 1.224-7.441 3.67-10.06 2.446-2.618 6-4.273 10.662-4.965V12h7.168v9.67c2.533.116 4.893.433 7.08.95 2.187.518 3.914 1.008 5.18 1.47l-1.641 6.732c-1.381-.516-3.107-1.048-5.18-1.595-2.071-.548-4.662-.821-7.771-.821-3.454 0-6.116.662-7.987 1.985-1.871 1.324-2.806 3.195-2.806 5.614 0 1.323.273 2.445.82 3.366.548.922 1.339 1.742 2.375 2.461 1.035.72 2.258 1.367 3.669 1.942 1.41.576 2.98 1.18 4.706 1.815 2.245.862 4.375 1.754 6.39 2.675 2.015.922 3.785 2.03 5.31 3.325a15.072 15.072 0 013.669 4.619c.921 1.785 1.382 3.944 1.382 6.477 0 4.086-1.238 7.38-3.713 9.885-2.475 2.504-6.303 4.073-11.483 4.708v11.138H48.54v-10.88c-4.03-.116-7.31-.562-9.843-1.339-2.532-.776-4.431-1.51-5.698-2.203l2.158-6.474c1.727.806 3.8 1.555 6.217 2.245 2.419.69 5.411 1.036 8.98 1.036z"/>
    </g>
  </defs>
  <use xlink:href="#myDot" x="5"  y="5" style="opacity:1.0" />
</svg>