<svg width="22" height="22" viewBox="0 0 22 22" fill="none" xmlns="http://www.w3.org/2000/svg">
<path d="M18.2 2.692V19.1097L12.2516 13.7429L11 12.6193L9.74844 13.7429L3.8 19.1097V2.692H18.2ZM18.3688 1C17.9328 1 4.06719 1 3.63125 1C3.42031 1 3.20938 1.03966 3.0125 1.11897C2.39375 1.34369 2 1.88566 2 2.4805V19.5195C2 20.1143 2.39375 20.6563 3.0125 20.881C3.20938 20.9603 3.42031 21 3.63125 21C4.06719 21 4.475 20.8414 4.79844 20.5638L11 14.959L17.2016 20.5638C17.525 20.8414 17.9328 20.9868 18.3688 20.9868C18.5797 20.9868 18.7906 20.9603 18.9875 20.881C19.6063 20.6563 20 20.1143 20 19.5195V2.4805C20 1.88566 19.6063 1.34369 18.9875 1.11897C18.7906 1.03966 18.5797 1 18.3688 1Z" fill="#333333"/>
<path d="M18.3333 6.90365C17.9323 7.51953 17.4167 8.04948 16.8294 8.46484C16.8438 8.59375 16.8438 8.72266 16.8438 8.85156C16.8438 12.8333 13.8073 17.4167 8.27865 17.4167C6.57422 17.4167 4.9987 16.9154 3.66667 16.0703C3.89583 16.099 4.13932 16.1133 4.38281 16.1133C5.80078 16.1133 7.08984 15.6263 8.12109 14.8242C6.80338 14.7956 5.70052 13.9219 5.3138 12.7331C5.5 12.7617 5.6862 12.7904 5.8724 12.7904C6.14453 12.7904 6.34505 12.7474 6.60286 12.6758C5.22786 12.4036 4.125 11.1862 4.125 9.72526C4.125 9.71094 4.125 9.69662 4.125 9.69662C4.58333 9.91146 5.05599 10.0547 5.55729 10.069C4.74089 9.52474 4.25391 8.60807 4.25391 7.5625C4.25391 7.01823 4.41146 6.48828 4.66927 6.04427C6.15885 7.8776 8.37891 9.06641 10.8854 9.19531C10.8281 8.98047 10.8138 8.73698 10.8138 8.50781C10.8138 6.84635 12.1602 5.5 13.8216 5.5C14.681 5.5 15.4688 5.85807 16.013 6.44531C16.7005 6.31641 17.3451 6.05859 17.9323 5.71484C17.7031 6.41667 17.2305 7.01823 16.6003 7.39063C17.2161 7.30469 17.7891 7.14713 18.3333 6.90365ZM22 4.125C22 1.84766 20.1523 0 17.875 0H4.125C1.84766 0 0 1.84766 0 4.125V17.875C0 20.1523 1.84766 22 4.125 22H17.875C20.1523 22 22 20.1523 22 17.875V4.125Z" fill="#333333"/>
<path d="M11 1C5.47917 1 1 5.59205 1 11.252C1 15.7773 3.86458 19.6218 7.83594 20.9834C8.34375 21.0769 8.52604 20.7565 8.52604 20.4895C8.52604 20.2359 8.51302 19.4349 8.51302 18.5806C8.51302 18.5806 5.72656 19.1947 5.14062 17.3659C5.14062 17.3659 4.6849 16.1778 4.03385 15.8708C4.03385 15.8708 3.1224 15.23 4.09896 15.2434C4.09896 15.2434 5.08854 15.3235 5.63542 16.2979C6.50781 17.8731 7.96615 17.4192 8.53906 17.1523C8.63021 16.4982 8.89062 16.0443 9.17708 15.7773C6.95052 15.5237 4.61979 14.6427 4.61979 10.7181C4.61979 9.59674 5.01042 8.68901 5.64844 7.96817C5.54427 7.70119 5.20573 6.65997 5.7526 5.24498C6.58594 4.978 8.5 6.29955 8.5 6.29955C9.29427 6.07261 10.1536 5.95247 11 5.95247C11.8464 5.95247 12.7057 6.07261 13.5 6.29955C13.5 6.29955 15.4141 4.978 16.2474 5.24498C16.7943 6.65997 16.4557 7.70119 16.3516 7.96817C16.9896 8.68901 17.3802 9.59674 17.3802 10.7181C17.3802 14.656 15.0365 15.5237 12.8099 15.7773C13.1745 16.0977 13.487 16.7118 13.487 17.6729C13.487 19.0478 13.474 20.1558 13.474 20.4895C13.474 20.7565 13.6562 21.0769 14.1641 20.9834C18.1354 19.6218 21 15.7773 21 11.252C21 5.59205 16.5208 1 11 1ZM4.78906 15.7239C4.76302 15.7773 4.6849 15.7907 4.61979 15.7506C4.54167 15.7106 4.5026 15.6438 4.52865 15.5904C4.55469 15.5504 4.61979 15.537 4.69792 15.5637C4.77604 15.6038 4.8151 15.6705 4.78906 15.7239ZM5.19271 16.1778C5.14062 16.2312 5.04948 16.2045 4.98437 16.1377C4.91927 16.0577 4.90625 15.9642 4.95833 15.9242C5.01042 15.8708 5.10156 15.8975 5.16667 15.9642C5.23177 16.0443 5.24479 16.1377 5.19271 16.1778ZM5.58333 16.7785C5.53125 16.8185 5.42708 16.7785 5.36198 16.6851C5.29687 16.5916 5.29687 16.4848 5.36198 16.4448C5.42708 16.3914 5.53125 16.4314 5.58333 16.5249C5.64844 16.6183 5.64844 16.7251 5.58333 16.7785ZM6.13021 17.3392C6.07813 17.4059 5.96094 17.3926 5.86979 17.2991C5.77865 17.219 5.7526 17.0989 5.81771 17.0455C5.86979 16.9787 5.98698 16.9921 6.07812 17.0855C6.15625 17.1656 6.18229 17.2858 6.13021 17.3392ZM6.8724 17.6729C6.84635 17.753 6.72917 17.793 6.625 17.753C6.50781 17.7263 6.42969 17.6328 6.45573 17.5527C6.48177 17.4726 6.59896 17.4326 6.70313 17.4593C6.82031 17.4993 6.89844 17.5928 6.8724 17.6729ZM7.69271 17.7396C7.69271 17.8197 7.60156 17.8865 7.48438 17.8865C7.35417 17.8998 7.26302 17.8331 7.26302 17.7396C7.26302 17.6595 7.35417 17.5928 7.47135 17.5928C7.58854 17.5794 7.69271 17.6462 7.69271 17.7396ZM8.44792 17.6061C8.46094 17.6862 8.38281 17.7663 8.26562 17.793C8.14844 17.8197 8.04427 17.7663 8.03125 17.6862C8.01823 17.5928 8.09635 17.5127 8.21354 17.486C8.33073 17.4726 8.4349 17.526 8.44792 17.6061Z" fill="#333333"/>
<path d="M19.8932 1H2.10677C1.49479 1 1 1.49479 1 2.10677V19.8932C1 20.5052 1.49479 21 2.10677 21H11.6771V13.2526H9.07292V10.2318H11.6771V8.00521C11.6771 5.42708 13.2656 4.02083 15.5703 4.02083C16.6641 4.02083 17.6146 4.09896 17.888 4.13802V6.83333L16.2995 6.84636C15.0365 6.84636 14.8021 7.43229 14.8021 8.30469V10.2318H17.7839L17.3932 13.2526H14.8021V21H19.8932C20.5052 21 21 20.5052 21 19.8932V2.10677C21 1.49479 20.5052 1 19.8932 1Z" fill="#333333"/>
<path d="M21.8696 9.4625C22.2205 7.8125 21.857 6.15 20.8544 4.925C19.8643 3.7 18.3228 3 16.6309 3H0.639168L2.55667 7.0875L0 19H4.18593L6.7426 7.0875H10.327L7.77028 19H11.9562L14.5129 7.0875H16.6309C17.0821 7.0875 17.4581 7.2375 17.6711 7.5C17.8967 7.7625 17.9594 8.1625 17.8591 8.6L15.6283 19H19.8142L21.8696 9.4625Z" fill="#333333"/>
<path d="M2.65179 14.3516L5.95424 12.1417L10.0547 14.8795V19.2868L2.65179 14.3516ZM1.89062 12.5837V9.4163L4.26005 11L1.89062 12.5837ZM11.9453 19.2868V14.8795L16.0458 12.1417L19.3482 14.3516L11.9453 19.2868ZM11 13.2344L7.66072 11L11 8.76562L14.3393 11L11 13.2344ZM5.95424 9.85826L2.65179 7.64844L10.0547 2.71317V7.12054L5.95424 9.85826ZM17.74 11L20.1094 9.4163V12.5837L17.74 11ZM16.0458 9.85826L11.9453 7.12054V2.71317L19.3482 7.64844L16.0458 9.85826ZM22 7.64844C22 7.34152 21.8404 7.0346 21.5826 6.86272L11.5279 0.159599C11.3683 0.0613847 11.1842 0 11 0C10.8158 0 10.6317 0.0613847 10.4721 0.159599L0.417411 6.86272C0.159598 7.0346 0 7.34152 0 7.64844V14.3516C0 14.6585 0.159598 14.9654 0.417411 15.1373L10.4721 21.8404C10.6317 21.9386 10.8158 22 11 22C11.1842 22 11.3683 21.9386 11.5279 21.8404L21.5826 15.1373C21.8404 14.9654 22 14.6585 22 14.3516V7.64844Z" fill="#333333"/>
<path d="M11 7V3H1V21H21V7H11ZM5 19H3V17H5V19ZM5 15H3V13H5V15ZM5 11H3V9H5V11ZM5 7H3V5H5V7ZM9 19H7V17H9V19ZM9 15H7V13H9V15ZM9 11H7V9H9V11ZM9 7H7V5H9V7ZM19 19H11V17H13V15H11V13H13V11H11V9H19V19ZM17 11H15V13H17V11ZM17 15H15V17H17V15Z" fill="#333333"/>
<path d="M11 1C7.13425 1 4 4.35813 4 8.5C4 12.6419 9.83333 21 11 21C12.1667 21 18 12.6419 18 8.5C18 4.35813 14.8657 1 11 1ZM11 13.5C8.42633 13.5 6.33333 11.2562 6.33333 8.5C6.33333 5.74375 8.42633 3.5 11 3.5C13.5737 3.5 15.6667 5.74375 15.6667 8.5C15.6667 11.2562 13.5737 13.5 11 13.5Z" fill="#333333"/>
<path d="M10.5784 16.3897C11.7476 16.3897 12.5677 16.2051 13.0386 15.8359C13.5094 15.4667 13.7449 14.9959 13.7449 14.4234C13.7449 14.0018 13.6423 13.6403 13.4373 13.339C13.2322 13.0376 12.9589 12.7739 12.6173 12.5479C12.2757 12.322 11.8809 12.1186 11.4327 11.9379C10.9846 11.7572 10.5253 11.5839 10.0549 11.4179C9.59935 11.2524 9.14749 11.0679 8.69934 10.8645C8.25118 10.661 7.8525 10.4124 7.5033 10.1186C7.15409 9.82484 6.86942 9.47081 6.64929 9.05655C6.42915 8.64231 6.31908 8.1338 6.31908 7.53104C6.31908 6.46116 6.64175 5.58358 7.2871 4.89828C7.93245 4.213 8.87011 3.77979 10.1001 3.59862V1H11.991V3.53103C12.6592 3.56139 13.2819 3.64427 13.8589 3.77965C14.4359 3.91507 14.8914 4.04323 15.2256 4.16414L14.7925 5.92621C14.4282 5.79105 13.9728 5.65185 13.4261 5.50862C12.8795 5.36541 12.196 5.29381 11.3757 5.29379C10.4646 5.29381 9.76225 5.46703 9.26868 5.81345C8.77511 6.1599 8.52832 6.64967 8.52833 7.28276C8.52832 7.62898 8.60051 7.92265 8.74487 8.16379C8.88923 8.40495 9.09801 8.61966 9.37122 8.80793C9.64442 8.99622 9.96709 9.16564 10.3392 9.31621C10.7114 9.46679 11.1252 9.62507 11.5808 9.79104C12.1731 10.0168 12.735 10.2502 13.2666 10.4914C13.7982 10.7325 14.2651 11.0225 14.6674 11.3614C15.0696 11.7002 15.3923 12.1032 15.6354 12.5703C15.8784 13.0375 16 13.6025 16 14.2655C16 15.3349 15.6735 16.1974 15.0205 16.8528C14.3675 17.5082 13.3577 17.9189 11.991 18.0848V21H10.1001V18.1524C9.03695 18.1221 8.17136 18.0053 7.5033 17.8021C6.83524 17.5989 6.33414 17.4067 6 17.2255L6.56934 15.531C7.02491 15.7421 7.57166 15.9379 8.20959 16.1186C8.84752 16.2993 9.63712 16.3897 10.5784 16.3897V16.3897Z" fill="#333333"/>
</svg>
