<svg width="64" height="64" viewBox="0 0 64 64" fill="none" xmlns="http://www.w3.org/2000/svg">
<circle cx="32" cy="32" r="32" fill="#C8EFF0"/>
<circle cx="32.5" cy="31.5" r="18.5" fill="white"/>
<path fill-rule="evenodd" clip-rule="evenodd" d="M32.5 15.1193C23.4101 15.1193 16.0413 22.677 16.0413 32C16.0413 41.323 23.4101 48.8807 32.5 48.8807C41.5899 48.8807 48.9587 41.323 48.9587 32C48.9587 22.677 41.5899 15.1193 32.5 15.1193ZM13 32C13 20.9543 21.7304 12 32.5 12C43.2696 12 52 20.9543 52 32C52 43.0457 43.2696 52 32.5 52C21.7304 52 13 43.0457 13 32Z" fill="#424444"/>
<path fill-rule="evenodd" clip-rule="evenodd" d="M46.5436 20.8991L21.3188 46.7706L19.1683 44.565L44.3931 18.6934L46.5436 20.8991Z" fill="#424444"/>
<path d="M27.7399 35.5714H23.2677L22.4867 38H19L23.965 25H27.0333L32.0355 38H28.5302L27.7399 35.5714ZM24.0487 33.1518H26.9589L25.4992 28.6429L24.0487 33.1518Z" fill="#424444"/>
<path d="M34.3633 38V25H38.724C39.9203 25 40.9957 25.2619 41.9503 25.7857C42.9049 26.3036 43.6487 27.0387 44.1818 27.9911C44.7211 28.9375 44.9938 30 45 31.1786V31.7768C45 32.9673 44.7366 34.0357 44.2097 34.9821C43.689 35.9226 42.9514 36.6607 41.9968 37.1964C41.0484 37.7262 39.9885 37.994 38.817 38H34.3633ZM37.6268 27.4196V35.5893H38.7612C39.6972 35.5893 40.4162 35.2708 40.9183 34.6339C41.4203 33.9911 41.6714 33.0387 41.6714 31.7768V31.2143C41.6714 29.9583 41.4203 29.0119 40.9183 28.375C40.4162 27.7381 39.6848 27.4196 38.724 27.4196H37.6268Z" fill="#424444"/>
</svg>
