<svg viewBox="0 0 22 22" fill="none" xmlns="http://www.w3.org/2000/svg">
  <g id="icons" fill="#333">
    <path id="bookmark" d="M18.2 2.692V19.11l-5.948-5.367L11 12.619l-1.252 1.124L3.8 19.11V2.692h14.4zM18.369 1H3.63c-.21 0-.422.04-.618.119C2.393 1.344 2 1.886 2 2.481V19.52c0 .594.394 1.136 1.013 1.361.196.08.407.119.618.119.436 0 .844-.159 1.167-.436L11 14.959l6.202 5.605c.323.277.73.423 1.167.423.21 0 .422-.027.619-.106.618-.225 1.012-.767 1.012-1.361V2.48c0-.594-.394-1.136-1.012-1.361a1.658 1.658 0 00-.62-.119z"/>
    <path id="twitter" d="M18.333 6.904a5.783 5.783 0 01-1.504 1.56c.015.13.015.259.015.388 0 3.981-3.037 8.565-8.565 8.565a8.572 8.572 0 01-4.612-1.347 6.057 6.057 0 004.454-1.246 3.026 3.026 0 01-2.807-2.09c.186.028.372.056.558.056.273 0 .473-.043.73-.114-1.374-.272-2.477-1.49-2.477-2.95v-.03c.458.215.931.359 1.432.373-.816-.544-1.303-1.46-1.303-2.507 0-.544.157-1.074.415-1.518a8.546 8.546 0 006.216 3.151 2.734 2.734 0 01-.071-.687A3.007 3.007 0 0113.822 5.5c.859 0 1.647.358 2.191.945a5.989 5.989 0 001.92-.73A3.041 3.041 0 0116.6 7.39a6.347 6.347 0 001.733-.487zM22 4.125A4.126 4.126 0 0017.875 0H4.125A4.126 4.126 0 000 4.125v13.75A4.126 4.126 0 004.125 22h13.75A4.126 4.126 0 0022 17.875V4.125z"/>
    <path id="github" d="M11 1C5.48 1 1 5.592 1 11.252c0 4.525 2.865 8.37 6.836 9.731.508.094.69-.227.69-.494 0-.253-.013-1.054-.013-1.908 0 0-2.786.614-3.372-1.215 0 0-.456-1.188-1.107-1.495 0 0-.912-.641.065-.628 0 0 .99.08 1.536 1.055.873 1.575 2.331 1.121 2.904.854.091-.654.352-1.108.638-1.375-2.226-.253-4.557-1.134-4.557-5.059 0-1.121.39-2.029 1.028-2.75-.104-.267-.442-1.308.105-2.723C6.586 4.978 8.5 6.3 8.5 6.3a9.198 9.198 0 015 0s1.914-1.322 2.747-1.055c.547 1.415.209 2.456.105 2.723.638.721 1.028 1.629 1.028 2.75 0 3.938-2.343 4.806-4.57 5.06.364.32.677.934.677 1.895 0 1.375-.013 2.483-.013 2.817 0 .267.182.587.69.493C18.135 19.622 21 15.777 21 11.252 21 5.592 16.52 1 11 1zM4.79 15.724c-.027.053-.105.067-.17.027-.078-.04-.117-.107-.091-.16.026-.04.09-.054.169-.027.078.04.117.107.091.16zm.403.454c-.052.053-.144.026-.209-.04-.065-.08-.078-.174-.026-.214.052-.053.144-.026.209.04.065.08.078.174.026.214zm.39.6c-.052.04-.156 0-.221-.093s-.065-.2 0-.24c.065-.054.17-.014.221.08.065.093.065.2 0 .254zm.547.561c-.052.067-.17.054-.26-.04-.091-.08-.117-.2-.052-.253.052-.067.169-.054.26.04.078.08.104.2.052.253zm.742.334c-.026.08-.143.12-.247.08-.117-.027-.195-.12-.17-.2.027-.08.144-.12.248-.094.117.04.195.134.17.214zm.82.067c0 .08-.09.147-.208.147-.13.013-.221-.054-.221-.147 0-.08.091-.147.208-.147.118-.014.222.053.222.147zm.756-.134c.013.08-.065.16-.182.187-.118.027-.222-.027-.235-.107-.013-.093.065-.173.183-.2.117-.013.22.04.234.12z"/>
    <path id="facebook" d="M19.893 1H2.107C1.495 1 1 1.495 1 2.107v17.786C1 20.505 1.495 21 2.107 21h9.57v-7.747H9.073v-3.021h2.604V8.005c0-2.578 1.589-3.984 3.893-3.984 1.094 0 2.045.078 2.318.117v2.695l-1.589.013c-1.262 0-1.497.586-1.497 1.459v1.927h2.982l-.39 3.02h-2.592V21h5.091c.612 0 1.107-.495 1.107-1.107V2.107C21 1.495 20.505 1 19.893 1z"/>
    <path id="medium" d="M21.87 9.463c.35-1.65-.013-3.313-1.016-4.538C19.864 3.7 18.323 3 16.631 3H.639l1.918 4.088L0 19h4.186L6.743 7.088h3.584L7.77 19h4.186l2.557-11.912h2.118c.451 0 .827.15 1.04.412.226.263.288.662.188 1.1L15.63 19h4.185l2.056-9.537z"/>
    <path id="codepen" d="M2.652 14.352l3.302-2.21 4.1 2.738v4.407l-7.402-4.935zm-.761-1.768V9.416L4.26 11l-2.37 1.584zm10.054 6.703V14.88l4.1-2.738 3.303 2.21-7.403 4.935zM11 13.234L7.66 11 11 8.766 14.34 11 11 13.234zM5.954 9.858l-3.302-2.21 7.403-4.935v4.408l-4.1 2.737zM17.74 11l2.37-1.584v3.168L17.74 11zm-1.694-1.142l-4.1-2.737V2.713l7.402 4.935-3.302 2.21zM22 7.648a.961.961 0 00-.417-.785L11.528.16A1.021 1.021 0 0011 0c-.184 0-.368.061-.528.16L.417 6.863A.961.961 0 000 7.648v6.704c0 .306.16.613.417.785l10.055 6.703c.16.099.344.16.528.16.184 0 .368-.061.528-.16l10.055-6.703a.961.961 0 00.417-.785V7.648z"/>
    <path id="company" d="M11 7V3H1v18h20V7H11zM5 19H3v-2h2v2zm0-4H3v-2h2v2zm0-4H3V9h2v2zm0-4H3V5h2v2zm4 12H7v-2h2v2zm0-4H7v-2h2v2zm0-4H7V9h2v2zm0-4H7V5h2v2zm10 12h-8v-2h2v-2h-2v-2h2v-2h-2V9h8v10zm-2-8h-2v2h2v-2zm0 4h-2v2h2v-2z"/>
    <path id="location" d="M11 1C7.134 1 4 4.358 4 8.5 4 12.642 9.833 21 11 21c1.167 0 7-8.358 7-12.5C18 4.358 14.866 1 11 1zm0 12.5c-2.574 0-4.667-2.244-4.667-5s2.093-5 4.667-5 4.667 2.244 4.667 5-2.093 5-4.667 5z"/>
    <path id="dollar" d="M10.578 16.39c1.17 0 1.99-.185 2.46-.554.471-.37.707-.84.707-1.413 0-.421-.103-.783-.308-1.084a2.929 2.929 0 00-.82-.791 6.655 6.655 0 00-1.184-.61c-.448-.18-.908-.354-1.378-.52-.456-.166-.908-.35-1.356-.553a5.157 5.157 0 01-1.196-.746 3.548 3.548 0 01-.854-1.062c-.22-.415-.33-.923-.33-1.526 0-1.07.323-1.947.968-2.633.645-.685 1.583-1.118 2.813-1.3V1h1.891v2.531c.668.03 1.29.113 1.868.249a12.78 12.78 0 011.367.384l-.434 1.762c-.364-.135-.82-.274-1.366-.417-.546-.144-1.23-.215-2.05-.215-.911 0-1.614.173-2.107.52-.494.346-.74.836-.74 1.469 0 .346.072.64.216.88.144.242.353.457.626.645s.596.358.968.508c.372.15.786.31 1.242.475.592.226 1.154.46 1.686.7.531.242.998.532 1.4.87.403.34.725.742.968 1.21.243.466.365 1.031.365 1.694 0 1.07-.326 1.932-.98 2.588-.652.655-1.662 1.066-3.029 1.232V21h-1.89v-2.848c-1.064-.03-1.93-.147-2.598-.35-.668-.203-1.169-.395-1.503-.576l.57-1.695c.455.211 1.002.407 1.64.588.638.18 1.427.27 2.368.27z"/>
  </g>
</svg>
