<svg width="64" height="64" viewBox="0 0 64 64" fill="none" xmlns="http://www.w3.org/2000/svg">
<circle cx="32" cy="32" r="32" fill="#C8EFF0"/>
<path d="M21 20L20.5 32.5H44.5L44 20L37.5 28.5H27.5L21 20Z" fill="white" stroke="#424444" stroke-width="2"/>
<circle cx="20.5" cy="19.5" r="3.5" fill="white" stroke="#424444" stroke-width="2"/>
<circle cx="44.5" cy="19.5" r="3.5" fill="white" stroke="#424444" stroke-width="2"/>
<path d="M30.8658 21.1394L24.7632 32.5714L14.5598 28.0564C15.2857 27.3552 15.7368 26.373 15.7368 25.2857C15.7368 23.1555 14.0049 21.4286 11.8684 21.4286C10.7302 21.4286 9.70684 21.9187 8.99898 22.6988C8.39543 23.1206 8 23.8253 8 24.6234C8 24.7219 8.00601 24.8189 8.01771 24.9142C8.00598 25.0365 8 25.1604 8 25.2857C8 27.416 9.73194 29.1429 11.8684 29.1429C12.2226 29.1429 12.5656 29.0954 12.8915 29.0065L15.3284 42.3896L16.1639 48H49.2778L49.994 42.3896L52.1921 29.0283C52.4929 29.1031 52.8076 29.1429 53.1316 29.1429C55.2681 29.1429 57 27.416 57 25.2857C57 25.1604 56.994 25.0365 56.9823 24.9142C56.994 24.8189 57 24.7219 57 24.6234C57 23.8253 56.6046 23.1206 56.001 22.6988C55.2932 21.9187 54.2698 21.4286 53.1316 21.4286C50.9951 21.4286 49.2632 23.1555 49.2632 25.2857C49.2632 26.3728 49.7142 27.3549 50.4399 28.056L40.2368 32.5714L34.1342 21.1394C35.9401 20.4761 37.2281 18.7452 37.2281 16.7143C37.2281 14.1107 35.1112 12 32.5 12C29.8888 12 27.7719 14.1107 27.7719 16.7143C27.7719 18.7452 29.0599 20.4761 30.8658 21.1394Z" fill="white"/>
<path fill-rule="evenodd" clip-rule="evenodd" d="M36.1134 21.0591C37.3394 20.0141 38.1186 18.4476 38.1186 16.6966C38.1186 13.5505 35.6031 11 32.5 11C29.3969 11 26.8814 13.5505 26.8814 16.6966C26.8814 18.4476 27.6606 20.0141 28.8866 21.0591L24.0788 31.6206L16.4587 28.1869C16.2437 28.09 16.0266 28.0206 15.8103 27.9765C16.2532 27.2442 16.5085 26.3826 16.5085 25.4607C16.5085 22.7985 14.3799 20.6404 11.7542 20.6404C9.12854 20.6404 7 22.7985 7 25.4607C7 28.1228 9.12854 30.2809 11.7542 30.2809C11.9349 30.2809 12.1131 30.2707 12.2885 30.2508C12.198 30.6245 12.176 31.0273 12.2383 31.4468L14.9943 50H50.4668L52.8413 31.3508C52.8899 30.9689 52.8692 30.602 52.7913 30.2592C52.9409 30.2735 53.0925 30.2809 53.2458 30.2809C55.8715 30.2809 58 28.1228 58 25.4607C58 22.7985 55.8715 20.6404 53.2458 20.6404C50.6201 20.6404 48.4915 22.7985 48.4915 25.4607C48.4915 26.3766 48.7435 27.2329 49.181 27.9621C48.991 28.0062 48.8007 28.07 48.6121 28.155L40.9212 31.6206L36.1134 21.0591ZM35.5254 16.6966C35.5254 18.3907 34.1709 19.764 32.5 19.764C30.8291 19.764 29.4746 18.3907 29.4746 16.6966C29.4746 15.0025 30.8291 13.6292 32.5 13.6292C34.1709 13.6292 35.5254 15.0025 35.5254 16.6966ZM33.7954 22.2411C33.3795 22.3406 32.9458 22.3933 32.5 22.3933C32.0542 22.3933 31.6205 22.3406 31.2046 22.2411L25.3619 35.076L15.4055 30.5895C15.0937 30.449 14.7518 30.7131 14.8026 31.0552L16.4451 42.1124H48.8563L50.2694 31.0142C50.3126 30.6752 49.9734 30.4188 49.6653 30.5576L39.6381 35.076L33.7954 22.2411ZM55.4068 25.4607C55.4068 26.6707 54.4393 27.6517 53.2458 27.6517C52.0523 27.6517 51.0847 26.6707 51.0847 25.4607C51.0847 24.2506 52.0523 23.2697 53.2458 23.2697C54.4393 23.2697 55.4068 24.2506 55.4068 25.4607ZM11.7542 27.6517C12.9477 27.6517 13.9153 26.6707 13.9153 25.4607C13.9153 24.2506 12.9477 23.2697 11.7542 23.2697C10.5607 23.2697 9.59322 24.2506 9.59322 25.4607C9.59322 26.6707 10.5607 27.6517 11.7542 27.6517ZM48.5216 44.7416H16.8357L17.2262 47.3708H48.1868L48.5216 44.7416Z" fill="#424444"/>
</svg>
