<svg width="64" height="64" viewBox="0 0 64 64" fill="none" xmlns="http://www.w3.org/2000/svg">
<circle cx="32" cy="32" r="32" fill="#C8EFF0"/>
<path d="M38.85 18H12.3083L7 37.697L8.63333 44H15.1667C15.1667 43.2122 16.8 40.8485 19.6583 40.8485C22.5167 40.8485 23.7417 43.2122 23.7417 44H42.1167C42.1167 44 43.4651 40.8485 46.6083 40.8485C49.7515 40.8485 50.6917 44 50.6917 44H56V32.5758H42.1167V20.3637C42.1167 18.7879 40.4833 18 38.85 18Z" fill="white"/>
<path fill-rule="evenodd" clip-rule="evenodd" d="M54.1278 22.7133C53.5802 21.8742 51.0928 20.1658 48.9864 20.1658H45.1775V19.3575C45.1775 17.6784 43.216 16 41.8601 16H11.4506L10.6215 19.3575H39.4849C41.5578 19.3575 41.8601 21.035 41.8601 21.8742V34.4042H55.5597V42.7358H52.8567C51.8123 40.8705 49.8464 39.627 47.6348 39.627C45.4232 39.627 43.4574 40.8705 42.413 42.7358H25.5188C24.4745 40.8705 22.5086 39.627 20.297 39.627C18.0854 39.627 16.1195 40.8705 15.0752 42.7358H7.14868L7.97782 46.0933H14.2765C14.3994 49.3886 17.1025 52 20.3584 52C23.6144 52 26.256 49.3886 26.4403 46.0933H41.6144C41.7372 49.3886 44.4403 52 47.6963 52C50.9522 52 53.5939 49.3886 53.7782 46.0933H59V31.7928C59 31.7928 54.9253 23.9355 54.1278 22.7133ZM20.297 48.6425C18.7612 48.6425 17.5325 47.399 17.5325 45.8446C17.5325 44.2902 18.7612 43.0467 20.297 43.0467C21.8328 43.0467 23.0615 44.2902 23.0615 45.8446C23.0615 47.399 21.8328 48.6425 20.297 48.6425ZM47.6348 48.6425C46.099 48.6425 44.8703 47.399 44.8703 45.8446C44.8703 44.2902 46.099 43.0467 47.6348 43.0467C49.1707 43.0467 50.3993 44.2902 50.3993 45.8446C50.3993 47.399 49.1092 48.6425 47.6348 48.6425ZM45.1775 23.5855H47.9727C49.8491 23.5855 50.6782 23.5855 51.9219 25.7937C53.1656 28.0019 54.6996 31.1088 54.6996 31.1088H45.1775V23.5855Z" fill="#424444"/>
<path d="M19.5887 22.9638H7.97782L7.14868 26.3213H18.7596L19.5887 22.9638Z" fill="#424444"/>
<path d="M5.07284 29.4301H16.6837L15.8546 32.7876H4.2437L5.07284 29.4301Z" fill="#424444"/>
<path d="M15.44 35.8342H3.82913L3 39.1917H14.6109L15.44 35.8342Z" fill="#424444"/>
<path d="M31.5322 28.4812L29.9499 23.5525L28.3676 28.4812H23.2472L27.3897 31.5273L25.8074 36.456L29.9499 33.4099L34.0924 36.456L32.5101 31.5273L36.6526 28.4812H31.5322Z" fill="#424444"/>
</svg>
