<svg width="64" height="64" viewBox="0 0 64 64" fill="none" xmlns="http://www.w3.org/2000/svg">
<circle cx="32" cy="32" r="32" fill="#C8EFF0"/>
<path fill-rule="evenodd" clip-rule="evenodd" d="M47 24H17.3529V34.2273H11V43.7727H15.9412V54H47V43.7727H43.4706V34.2273H47V24ZM21.2353 27.4091V39.6818L24.0588 37.9773L27.5882 40.0227V27.4091H21.2353Z" fill="white"/>
<path d="M31.8568 13.3381V4.68099C31.8568 3.75645 32.6026 3 33.5142 3C34.4258 3 35.1717 3.75645 35.1717 4.68099V13.3381C35.1717 14.2627 34.4258 15.0191 33.5142 15.0191C32.6026 15.0191 31.8568 14.2627 31.8568 13.3381Z" fill="#424444"/>
<path d="M14.7023 11.2369C14.2051 10.4804 14.3708 9.47183 15.1167 8.88348C15.8625 8.37918 16.857 8.54728 17.4371 9.30373L20.9177 14.2627C21.4149 15.0191 21.2492 16.0277 20.5033 16.6161C20.1719 16.8682 19.8404 16.9523 19.5089 16.9523C19.0117 16.9523 18.5144 16.7001 18.1829 16.2799L14.7023 11.2369Z" fill="#424444"/>
<path d="M49.0112 9.72398L45.4477 14.767C44.8676 15.5234 45.0334 16.6161 45.8621 17.0363C46.1936 17.2885 46.5251 17.3725 46.8566 17.3725C47.3538 17.3725 47.851 17.1204 48.1825 16.7001L51.746 11.6571C52.2432 10.9007 52.0775 9.80803 51.3316 9.30373C50.5858 8.79943 49.5085 8.96753 49.0112 9.72398Z" fill="#424444"/>
<path d="M53.6521 22.1633C52.8233 22.4995 52.4918 23.5081 52.8233 24.3486C53.0719 24.937 53.6521 25.3572 54.315 25.3572C54.5118 25.3572 54.6566 25.3046 54.8316 25.241C54.8778 25.2242 54.9261 25.2067 54.978 25.1891L58.0443 23.8443C58.873 23.5081 59.2045 22.4995 58.873 21.659C58.5415 20.8185 57.547 20.4823 56.7183 20.8185L53.6521 22.1633Z" fill="#424444"/>
<path d="M9.39853 20.8185C8.48695 20.4823 7.57536 20.8185 7.161 21.659C6.74664 22.4995 7.161 23.5081 8.07259 23.9284L10.9731 25.2732C11.1388 25.3572 11.3875 25.4413 11.6361 25.4413C12.2162 25.4413 12.8791 25.021 13.1278 24.4327C13.4593 23.5081 13.1278 22.5836 12.299 22.1633L9.39853 20.8185Z" fill="#424444"/>
<path fill-rule="evenodd" clip-rule="evenodd" d="M15.6819 28.1023C15.6819 29.3398 15.6819 31.1726 16.4066 32.5306H13.1071C9.10811 32.5306 9.10811 36.5762 9.10811 38.763C9.10811 40.9498 9.10811 44.9954 13.1071 44.9954H14.5876C14.1483 46.2468 14.1483 47.7203 14.1483 48.7676C14.1483 50.9544 14.1483 55 18.1473 55H47.7791L47.7828 55L47.7857 55H48.6598C49.3172 55 49.865 54.344 49.865 53.6879C49.865 53.0319 49.3172 52.4852 48.6598 52.4852H48.4902C47.0395 49.2323 48.1032 46.1197 48.6315 44.9407H48.6598C49.3172 44.9407 49.865 44.394 49.865 43.738C49.865 43.0819 49.3172 42.5352 48.6598 42.5352H45.5632C45.4507 42.4997 45.3314 42.4806 45.2083 42.4806H45.0393C43.6105 39.2767 44.6208 36.2091 45.1563 34.9908H47.6134L47.6187 34.9908L47.624 34.9908H48.495C49.1524 34.9908 49.7002 34.4441 49.7002 33.788C49.7002 33.132 49.1524 32.5853 48.495 32.5853H48.3279C46.4771 28.5108 48.5555 24.7591 48.6595 24.6035C48.7237 24.4859 48.7692 24.362 48.7961 24.2364C49.3116 24.1004 49.7004 23.6253 49.7004 23.0727C49.7004 22.4166 49.1526 21.87 48.4952 21.87H19.6808C15.6819 21.87 15.6819 25.9155 15.6819 28.1023ZM44.0397 32.5853C44.2009 32.5507 44.37 32.5495 44.5366 32.5853H45.6953C44.4324 29.0124 45.4233 25.8007 46.0739 24.2754H19.6808C18.5305 24.2754 18.147 24.8221 18.147 28.0477C18.147 31.2732 18.5305 31.8199 19.6808 31.8199C19.7178 31.8199 19.7544 31.8216 19.7905 31.825V26.8996C19.7905 26.2435 20.3383 25.6969 20.9957 25.6969H27.9528C28.6101 25.6969 29.1579 26.2435 29.1579 26.8996V32.5853H44.0397ZM42.4721 34.9908H29.1579V40.0204C29.1579 40.4578 28.884 40.8951 28.5006 41.1138C28.0623 41.3325 27.5693 41.2778 27.2406 41.0045L24.4468 39.0363L21.6531 41.0045C21.4887 41.1685 21.2696 41.2231 20.9957 41.2231C20.7766 41.2231 20.6122 41.1685 20.4479 41.1138C20.0097 40.8951 19.7905 40.4578 19.7905 40.0204V34.9361H13.1071C11.9567 34.9361 11.5732 35.4828 11.5732 38.7083C11.5732 41.9339 11.9567 42.4806 13.1071 42.4806H42.3676C41.3542 39.5026 41.8926 36.7218 42.4721 34.9908ZM45.2083 44.9954H17.637C16.8804 45.1953 16.6134 46.0216 16.6134 48.7129C16.6134 51.9385 16.9969 52.4852 18.1473 52.4852H45.8185C44.7944 49.4756 45.3551 46.6675 45.9414 44.9407H45.5349C45.4307 44.9761 45.3211 44.9954 45.2083 44.9954ZM22.2556 28.157V37.6149L23.7895 36.5215C24.2277 36.1935 24.7755 36.1935 25.2138 36.5215L26.7476 37.6149V28.157H22.2556Z" fill="#424444"/>
</svg>
