<svg width="101" height="101" viewBox="0 0 101 101" fill="none" xmlns="http://www.w3.org/2000/svg">
<g id="icons">
<path id="quote" d="M48.8462 56.7727C48.8462 51.5781 44.6082 47.3636 39.3846 47.3636H28.3462C25.7344 47.3636 23.6154 45.2564 23.6154 42.6591V41.0909C23.6154 34.1811 29.2825 28.5455 36.2308 28.5455H39.3846C41.1094 28.5455 42.5385 27.1243 42.5385 25.4091V19.1364C42.5385 17.4212 41.1094 16 39.3846 16H36.2308C22.3341 16 11 27.2713 11 41.0909V75.5909C11 80.7855 15.238 85 20.4615 85H39.3846C44.6082 85 48.8462 80.7855 48.8462 75.5909V56.7727ZM93 56.7727C93 51.5781 88.762 47.3636 83.5385 47.3636H72.5C69.8882 47.3636 67.7692 45.2564 67.7692 42.6591V41.0909C67.7692 34.1811 73.4363 28.5455 80.3846 28.5455H83.5385C85.2632 28.5455 86.6923 27.1243 86.6923 25.4091V19.1364C86.6923 17.4212 85.2632 16 83.5385 16H80.3846C66.488 16 55.1538 27.2713 55.1538 41.0909V75.5909C55.1538 80.7855 59.3918 85 64.6154 85H83.5385C88.762 85 93 80.7855 93 75.5909V56.7727Z" fill="white"/>
<path id="close" d="M72.584 63.0065C72.584 63.9473 72.1966 64.888 71.5326 65.5521L66.5521 70.5326C65.888 71.1966 64.9473 71.584 64.0065 71.584C63.0658 71.584 62.1803 71.1966 61.5163 70.5326L51.5 60.5163L41.4837 70.5326C40.8197 71.1966 39.9342 71.584 38.9935 71.584C38.0527 71.584 37.112 71.1966 36.4479 70.5326L31.4674 65.5521C30.8034 64.888 30.416 63.9473 30.416 63.0065C30.416 62.0658 30.8034 61.1803 31.4674 60.5163L41.4837 50.5L31.4674 40.4837C30.8034 39.8197 30.416 38.9342 30.416 37.9935C30.416 37.0527 30.8034 36.112 31.4674 35.4479L36.4479 30.4674C37.112 29.8034 38.0527 29.416 38.9935 29.416C39.9342 29.416 40.8197 29.8034 41.4837 30.4674L51.5 40.4837L61.5163 30.4674C62.1803 29.8034 63.0658 29.416 64.0065 29.416C64.9473 29.416 65.888 29.8034 66.5521 30.4674L71.5326 35.4479C72.1966 36.112 72.584 37.0527 72.584 37.9935C72.584 38.9342 72.1966 39.8197 71.5326 40.4837L61.5163 50.5L71.5326 60.5163C72.1966 61.1803 72.584 62.0658 72.584 63.0065ZM94 50.5C94 27.0365 74.9635 8 51.5 8C28.0365 8 9 27.0365 9 50.5C9 73.9635 28.0365 93 51.5 93C74.9635 93 94 73.9635 94 50.5Z" fill="white"/>
<g id="library">
<path d="M58.9237 15H40.4619V84.2315H58.9237V31.1559L68.1542 84.2317L81.9994 81.9238L72.7696 28.8463L58.9237 31.154V15Z" fill="white"/>
<path d="M22 28.8463H35.8463V84.2315H22V28.8463Z" fill="white"/>
</g>
<path id="download" d="M72.4615 76C72.4615 77.6406 71.137 79 69.5385 79C67.9399 79 66.6154 77.6406 66.6154 76C66.6154 74.3594 67.9399 73 69.5385 73C71.137 73 72.4615 74.3594 72.4615 76ZM84.1538 76C84.1538 77.6406 82.8293 79 81.2308 79C79.6322 79 78.3077 77.6406 78.3077 76C78.3077 74.3594 79.6322 73 81.2308 73C82.8293 73 84.1538 74.3594 84.1538 76ZM90 65.5C90 63.0156 88.0361 61 85.6154 61H64.4231L58.2115 67.375C56.5216 69.0625 54.3293 70 52 70C49.6707 70 47.4784 69.0625 45.7885 67.375L39.6226 61H18.3846C15.9639 61 14 63.0156 14 65.5V80.5C14 82.9844 15.9639 85 18.3846 85H85.6154C88.0361 85 90 82.9844 90 80.5V65.5ZM75.1563 38.8281C74.6995 37.75 73.649 37 72.4615 37H60.7692V16C60.7692 14.3594 59.4447 13 57.8462 13H46.1538C44.5553 13 43.2308 14.3594 43.2308 16V37H31.5385C30.351 37 29.3005 37.75 28.8437 38.8281C28.387 39.9531 28.6154 41.2656 29.4832 42.1094L49.9447 63.1094C50.4928 63.7188 51.2692 64 52 64C52.7308 64 53.5072 63.7188 54.0553 63.1094L74.5168 42.1094C75.3846 41.2656 75.613 39.9531 75.1563 38.8281Z" fill="white"/>
<path id="chevron-down" d="M51.4048 61.1045L81.0836 31L92 42.9826L51.3808 83L10 42.9826L20.9164 31L51.4048 61.1045Z" fill="white"/>
<path id="chevron-right" d="M56.1045 50.5952L26 20.9164L37.9826 10L78 50.6192L37.9826 92L26 81.0836L56.1045 50.5952Z" fill="white"/>
<g id="text-size">
<path fill-rule="evenodd" clip-rule="evenodd" d="M24.3867 69.0905H40.7568L45.167 84.2237L58.2568 84.2378L41.3491 28H24.3867L7 84.2237H20.3159L24.3867 69.0905ZM38.8906 59.9466H26.2529L30.9917 42.6183L32.2749 37.1404H32.4443L33.8232 42.5691L38.8906 59.9466Z" fill="white"/>
<path d="M83.1621 32.017H76.0923V40.8041H67.2549V47.8339H76.0923V56.621H83.1621V47.8339H91.9995V40.8041H83.1621V32.017Z" fill="white"/>
<path d="M92 68.1699V75.1996H67.2554V68.1699H92Z" fill="white"/>
</g>
<path id="star-hollow" d="M69.646 60.5728L73.9297 85.5091L51.5 73.7221L29.0108 85.5091L33.354 60.5728L15.1484 42.9811L40.2554 39.3088L51.5 16.6824L62.7446 39.3088L87.8516 42.9811L69.646 60.5728ZM101 39.4272C101 37.6503 99.0962 36.9395 97.6683 36.7026L67.8017 32.3787L54.4153 5.42848C53.8798 4.30309 52.8684 3 51.5 3C50.1316 3 49.1202 4.30309 48.5847 5.42848L35.1983 32.3787L5.33173 36.7026C3.84435 36.9395 2 37.6503 2 39.4272C2 40.4934 2.77344 41.5003 3.48738 42.2703L25.1436 63.2382L20.027 92.8538C19.9675 93.2684 19.9081 93.6238 19.9081 94.0385C19.9081 95.5785 20.6815 97 22.4069 97C23.2398 97 24.0132 96.7039 24.7867 96.2892L51.5 82.3107L78.2133 96.2892C78.9273 96.7039 79.7602 97 80.5931 97C82.3185 97 83.0325 95.6377 83.0325 94.0385C83.0325 93.6238 83.0325 93.2684 82.973 92.8538L77.8564 63.2382L99.4531 42.2703C100.227 41.5003 101 40.4934 101 39.4272Z" fill="white"/>
<path id="star-half" d="M72.2848 57.7889L69.3395 60.5728L70.0608 64.482L73.6672 85.5091L54.553 75.5583L51.0067 73.7221V16.6824L60.5638 35.7549L62.367 39.3088L66.3341 39.9011L87.7324 42.9811L72.2848 57.7889ZM99.4534 42.2703C102.098 39.7234 101.257 37.2357 97.6501 36.7026L67.4762 32.3787L53.952 5.42848C53.1105 3.82924 52.0886 3 51.0067 3C49.9248 3 48.8428 3.82924 48.0614 5.42848L34.5372 32.3787L4.36326 36.7026C0.756808 37.2357 -0.0846971 39.7234 2.49993 42.2703L24.3791 63.2382L19.2098 92.8538C18.7891 95.46 19.7508 97 21.6141 97C22.2753 97 23.1168 96.7631 24.0184 96.2892L51.0067 82.3107L77.995 96.2892C78.8966 96.7631 79.7381 97 80.3993 97C82.2626 97 83.2243 95.46 82.8036 92.8538L77.6343 63.2382L99.4534 42.2703Z" fill="white"/>
<path id="star-full" d="M101 39.4272C101 37.6503 99.0769 36.9395 97.6346 36.7026L67.4663 32.3787L53.9447 5.42848C53.4038 4.30309 52.3822 3 51 3C49.6178 3 48.5962 4.30309 48.0553 5.42848L34.5337 32.3787L4.36538 36.7026C2.86298 36.9395 1 37.6503 1 39.4272C1 40.4934 1.78125 41.5003 2.5024 42.2703L24.3774 63.2382L19.2091 92.8538C19.149 93.2684 19.0889 93.6238 19.0889 94.0385C19.0889 95.5785 19.8702 97 21.613 97C22.4543 97 23.2356 96.7039 24.0168 96.2892L51 82.3107L77.9832 96.2892C78.7043 96.7039 79.5457 97 80.387 97C82.1298 97 82.851 95.5785 82.851 94.0385C82.851 93.6238 82.851 93.2684 82.7909 92.8538L77.6226 63.2382L99.4375 42.2703C100.219 41.5003 101 40.4934 101 39.4272Z" fill="white"/>
<path id="activity" d="M31 64.25C31 63.5859 30.4141 63 29.75 63H27.25C26.5859 63 26 63.5859 26 64.25V66.75C26 67.4141 26.5859 68 27.25 68H29.75C30.4141 68 31 67.4141 31 66.75V64.25ZM31 54.25C31 53.5859 30.4141 53 29.75 53H27.25C26.5859 53 26 53.5859 26 54.25V56.75C26 57.4141 26.5859 58 27.25 58H29.75C30.4141 58 31 57.4141 31 56.75V54.25ZM31 44.25C31 43.5859 30.4141 43 29.75 43H27.25C26.5859 43 26 43.5859 26 44.25V46.75C26 47.4141 26.5859 48 27.25 48H29.75C30.4141 48 31 47.4141 31 46.75V44.25ZM76 64.25C76 63.5859 75.4141 63 74.75 63H37.25C36.5859 63 36 63.5859 36 64.25V66.75C36 67.4141 36.5859 68 37.25 68H74.75C75.4141 68 76 67.4141 76 66.75V64.25ZM76 54.25C76 53.5859 75.4141 53 74.75 53H37.25C36.5859 53 36 53.5859 36 54.25V56.75C36 57.4141 36.5859 58 37.25 58H74.75C75.4141 58 76 57.4141 76 56.75V54.25ZM76 44.25C76 43.5859 75.4141 43 74.75 43H37.25C36.5859 43 36 43.5859 36 44.25V46.75C36 47.4141 36.5859 48 37.25 48H74.75C75.4141 48 76 47.4141 76 46.75V44.25ZM81 71.75C81 72.4141 80.4141 73 79.75 73H22.25C21.5859 73 21 72.4141 21 71.75V39.25C21 38.5859 21.5859 38 22.25 38H79.75C80.4141 38 81 38.5859 81 39.25V71.75ZM86 29.25C86 25.8125 83.1875 23 79.75 23H22.25C18.8125 23 16 25.8125 16 29.25V71.75C16 75.1875 18.8125 78 22.25 78H79.75C83.1875 78 86 75.1875 86 71.75V29.25Z" fill="white"/>
<path id="darkmode" fill-rule="evenodd" clip-rule="evenodd" d="M52 92C74.644 92 93 73.6437 93 51C93 28.3563 74.644 10 52 10C29.356 10 11 28.3563 11 51C11 73.6437 29.356 92 52 92ZM51.752 84.0645C51.3917 84.0645 51.0339 84.0589 50.6774 84.0476V17.9524C51.0339 17.9411 51.3917 17.9355 51.752 17.9355C70.1506 17.9355 85.0645 32.739 85.0645 51C85.0645 69.261 70.1506 84.0645 51.752 84.0645Z" fill="white"/>
<path id="moon" d="M83 76.2484C79.0541 77.7131 74.7921 78.5125 70.3457 78.5125C50.0099 78.5125 33.5246 61.7903 33.5246 41.1625C33.5246 27.4767 40.7812 15.5102 51.6041 9.00583C51.3738 9.00196 51.1436 9 50.9124 9C28.3172 9 10 27.5802 10 50.5C10 73.4198 28.3172 92 50.9124 92C63.9182 92 75.5062 85.8442 83 76.2484Z" fill="white"/>
<g id="add">
<path d="M26.0768 20H76V84L51.5 67.651L26.0768 83.9001V63.8996C26.7086 63.9595 27.3482 63.9901 27.9969 63.9901C38.6008 63.9901 47.198 55.7838 47.198 45.6609C47.198 35.538 38.6008 27.3317 27.9969 27.3317C27.3482 27.3317 26.7086 27.3623 26.0768 27.4222V20Z" fill="white"/>
<path fill-rule="evenodd" clip-rule="evenodd" d="M39.6919 45.1429C39.6919 51.4547 34.6122 56.5714 28.3459 56.5714C22.0796 56.5714 17 51.4547 17 45.1429C17 38.831 22.0796 33.7143 28.3459 33.7143C34.6122 33.7143 39.6919 38.831 39.6919 45.1429ZM26.0768 38.2857V42.8571H21.5384V47.4286H26.0768V52H30.6151V47.4286H35.1535V42.8571H30.6151V38.2857H26.0768Z" fill="white"/>
</g>
<path id="bookmark" d="M26 20H76V84L51 67.2L26 84V20Z" fill="white"/>
<path id="toc" d="M26 75C26 70.0313 21.9688 66 17 66C12.0312 66 8 70.0313 8 75C8 79.9688 12.0312 84 17 84C21.9688 84 26 79.9688 26 75ZM26 51C26 46.0313 21.9688 42 17 42C12.0312 42 8 46.0313 8 51C8 55.9688 12.0312 60 17 60C21.9688 60 26 55.9688 26 51ZM92 70.5C92 69.7031 91.2969 69 90.5 69H33.5C32.7031 69 32 69.7031 32 70.5V79.5C32 80.2969 32.7031 81 33.5 81H90.5C91.2969 81 92 80.2969 92 79.5V70.5ZM26 27C26 22.0313 21.9688 18 17 18C12.0312 18 8 22.0313 8 27C8 31.9687 12.0312 36 17 36C21.9688 36 26 31.9687 26 27ZM92 46.5C92 45.7031 91.2969 45 90.5 45H33.5C32.7031 45 32 45.7031 32 46.5V55.5C32 56.2969 32.7031 57 33.5 57H90.5C91.2969 57 92 56.2969 92 55.5V46.5ZM92 22.5C92 21.7031 91.2969 21 90.5 21H33.5C32.7031 21 32 21.7031 32 22.5V31.5C32 32.2969 32.7031 33 33.5 33H90.5C91.2969 33 92 32.2969 92 31.5V22.5Z" fill="white"/>
</g>
</svg>
