<svg width="21" height="21" viewBox="0 0 21 21" fill="none" xmlns="http://www.w3.org/2000/svg">
<path d="M19.8379 0H1.16211C0.519531 0 0 0.519531 0 1.16211V19.8379C0 20.4805 0.519531 21 1.16211 21H11.2109V12.8652H8.47656V9.69336H11.2109V7.35547C11.2109 4.64844 12.8789 3.17188 15.2988 3.17188C16.4473 3.17188 17.4453 3.25391 17.7324 3.29492V6.125L16.0645 6.13867C14.7383 6.13867 14.4922 6.75391 14.4922 7.66992V9.69336H17.623L17.2129 12.8652H14.4922V21H19.8379C20.4805 21 21 20.4805 21 19.8379V1.16211C21 0.519531 20.4805 0 19.8379 0Z" fill="white"/>
</svg>
