<svg xmlns="http://www.w3.org/2000/svg" fill="none" viewBox="0 0 300 300">
<defs>
        <style>
		.icon {
			display: none;
            stroke: #000;
            stroke-width: 8;
             stroke-linecap:round;
             stroke-linejoin: round;
             clip-rule: evenodd;
            stroke-miterlimit: 1.5;
            fill-rule: evenodd;
		}
		.icon:target {
			display: inline;
        
            
		}
		rect{
			shape-rendering: crispEdges;
            fill: #fff;
		}
        .keylineless{
            stroke-width: 0;
        }
        </style>
        </defs>
    <g id="javascript" class="icon">
        <path fill="#000"    d="M150 300c82.84 0 150-67.16 150-150S232.84 0 150 0 0 67.16 0 150s67.16 150 150 150zm35.86-147.57c0-18.3 14.15-30.88 31.84-32.28 14.35-1.1 28.12 3.82 36.24 16a93.62 93.62 0 012.02 3.2l-18.59 12.05s-.52-.67-1.28-1.88c-3.18-5.06-8.36-8.22-14.44-8.22-6.03-.03-11.39 3.48-11.8 9.8-.6 10.2 11.14 13.74 18.69 16.98 17.7 7.6 34.58 17.46 34.58 39.02 0 22.76-19.84 34.13-40.75 34.06-17.2-.06-33.65-7.38-42.68-22.58-.96-1.58-1.16-2.1-.91-2.32.4-.37 19.18-11.2 19.4-11.2.1 0 .81.93 1.6 2.07 5.78 8.54 12.96 12.49 22.59 12.49 5.67 0 12.7-1.83 15.4-7.4 5.87-12.2-10.88-19.03-23.62-24.22-15.74-6.4-28.29-17.05-28.29-35.57zm-45.07 58.55c-1.54 5.82-7.17 8.41-12.76 8.44-6.34.03-10.14-2.66-14.56-10.22l-1.43-2.12-19.67 11.9.74 1.48c6.71 13.4 20.35 20.48 34.92 20.76 17.6.34 36.85-10.43 36.85-30.24 0-29.86.25-89.6.25-89.6h-24.16l-.18 89.6zm-55.53 16.39a11.05 11.05 0 11-22.1 0 11.05 11.05 0 0122.1 0z"   />
    </g>
    <g id="design" class="icon">
        <path id="outlinebg" fill="none"  class="keylineless"   d="M181.57 257c0-.43-59.41 0-59.41 0v-51.97s-13.34-.19-21.89-8.72c-8.55-8.52-10.51-30.13-10.51-30.13v-61.33l119.3 1.94.27 77.4s-1.45 8.14-7.87 14.53c-6.42 6.4-19.89 5.66-19.89 5.66V257z"   />
        <path id="keyline"  fill="#fff"    d="M122.16 257v-51.97s-13.34-.19-21.89-8.72c-8.55-8.52-10.51-30.13-10.51-30.13v-61.33l119.3 1.94.27 77.4s-1.45 8.14-7.87 14.53c-6.42 6.4-19.89 5.66-19.89 5.66v52.2"/>
        
        <g id="pencil">
            <path fill="#fff"  stroke-width="7" d="M270.57 160.1L30.33 97.95l-6.07 23.33 240.24 62.17 6.07-23.33z"   />
            <path fill="#fff"    d="M2.88 102.37l28.91-3.36-5.25 21.52-23.66-18.16z"   />
        </g>
        <g id="Brush">
            <path fill="#fff"    d="M71 150.84l2.3 15.28L296 125.96 71 150.84zm-10.85 1.97l2.14 14.11s-6.66 5.44-21.74 11.2C25.46 183.9 0 170.46 0 170.46s19.54.7 30.63-10.94c11.08-11.63 29.52-6.7 29.52-6.7z"   />
        </g>
        <rect width="30" height="60" x="88" y="94" rx="15" />
        <rect width="30" height="67" x="121" y="80" rx="15" />
        <rect width="30" height="67" x="155" y="85" rx="15" />
        <rect width="30" height="55" x="190" y="100" rx="15" />
        <path class="thumbpad" fill="#fff"    d="M152.1 193.63v-19.57s-1.1-10.77-6.45-16.1c-5.36-5.35-15.86-6.88-15.86-6.88H98.46"   />
        <rect width="55" height="30" x="75" y="143" rx="15" />
    </g>
    <g id="globe" class="icon" >
        <circle cx="149" cy="153" r="105" fill="#fff"   stroke-miterlimit="1.5"/>
        <ellipse cx="149.5" cy="153"   rx="49.5" ry="105"/>
        <path d="M150.5 48v210M41 152.5h210M64.5 92.5H232M64.5 215H232"/>
    </g>
    <g id="programming" class="icon" >
        <rect width="185.42" height="118.1" x="57.01" y="81" fill="#fff"     rx="10"/>
        <rect width="152.31" height="88.3" x="73.57" y="95.35" fill="#fff"     rx="9"/>
        <rect width="197.56" height="16.56" x="50.39" y="213.44" fill="#fff"     rx="7"/>
        <path d="M106.68 122.39L126 141.7l-19.32 19.32M132.07 159.91h30.35"/>
    </g>
</svg>
