<svg xmlns="http://www.w3.org/2000/svg" id="art1" width="1000" height="610" style="background:#900">
    <defs>
        <symbol id="icon-pencil2" viewBox="0 0 16 16">
            <title>pencil2</title>
            <path class="path1" d="M6 10l2-1 7-7-1-1-7 7-1 2zM4.52 13.548c-0.494-1.043-1.026-1.574-2.069-2.069l1.548-4.262 2-1.217 6-6h-3l-6 6-3 10 10-3 6-6v-3l-6 6-1.217 2z"></path>
        </symbol>
        <symbol id="icon-quill" viewBox="0 0 16 16">
            <title>quill</title>
            <path class="path1" d="M0 16c2-6 7.234-16 16-16-4.109 3.297-6 11-9 11s-3 0-3 0l-3 5h-1z"></path>
        </symbol>
        <symbol id="icon-pen" viewBox="0 0 16 16">
            <title>pen</title>
            <path class="path1" d="M15.909 4.561l-4.47-4.47c-0.146-0.146-0.338-0.113-0.427 0.073l-0.599 1.248 4.175 4.175 1.248-0.599c0.186-0.089 0.219-0.282 0.073-0.427z"></path>
            <path class="path2" d="M9.615 2.115l-4.115 0.343c-0.273 0.034-0.501 0.092-0.58 0.449-0 0-0 0.001-0 0.001-1.116 5.36-4.92 10.591-4.92 10.591l0.896 0.896 4.25-4.25c-0.094-0.196-0.146-0.415-0.146-0.647 0-0.828 0.672-1.5 1.5-1.5s1.5 0.672 1.5 1.5-0.672 1.5-1.5 1.5c-0.232 0-0.451-0.053-0.647-0.146l-4.25 4.25 0.896 0.896c0 0 5.231-3.804 10.591-4.92 0-0 0.001-0 0.001-0 0.357-0.078 0.415-0.306 0.449-0.58l0.343-4.115-4.269-4.269z"></path>
        </symbol>
        <symbol id="icon-eyedropper" viewBox="0 0 16 16">
            <title>eyedropper</title>
            <path class="path1" d="M15.414 0.586c-0.781-0.781-2.047-0.781-2.828 0l-2.689 2.689-1.896-1.896-2.121 2.121 1.663 1.663-7.377 7.377c-0.126 0.126-0.179 0.296-0.161 0.46h-0.004v2.5c0 0.276 0.224 0.5 0.5 0.5h2.5c0 0 0.042 0 0.063 0 0.144 0 0.288-0.055 0.398-0.165l7.377-7.377 1.663 1.663 2.121-2.121-1.896-1.896 2.689-2.689c0.781-0.781 0.781-2.047 0-2.828zM2.705 15h-1.705v-1.705l7.337-7.337 1.704 1.704-7.337 7.337z"></path>
        </symbol>
        <symbol id="icon-paint-format" viewBox="0 0 16 16">
            <title>paint-format</title>
            <path class="path1" d="M16 9v-6h-3v-1c0-0.55-0.45-1-1-1h-11c-0.55 0-1 0.45-1 1v3c0 0.55 0.45 1 1 1h11c0.55 0 1-0.45 1-1v-1h2v4h-9v2h-0.5c-0.276 0-0.5 0.224-0.5 0.5v5c0 0.276 0.224 0.5 0.5 0.5h2c0.276 0 0.5-0.224 0.5-0.5v-5c0-0.276-0.224-0.5-0.5-0.5h-0.5v-1h9zM12 3h-11v-1h11v1z"></path>
        </symbol>
        <symbol id="icon-film" viewBox="0 0 16 16">
            <title>film</title>
            <path class="path1" d="M0 2v12h16v-12h-16zM3 13h-2v-2h2v2zM3 9h-2v-2h2v2zM3 5h-2v-2h2v2zM12 13h-8v-10h8v10zM15 13h-2v-2h2v2zM15 9h-2v-2h2v2zM15 5h-2v-2h2v2zM6 5v6l4-3z"></path>
        </symbol>
        <symbol id="icon-pacman" viewBox="0 0 16 16">
            <title>pacman</title>
            <path class="path1" d="M15.074 2.794c-1.467-1.71-3.644-2.794-6.074-2.794-4.418 0-8 3.582-8 8s3.582 8 8 8c2.43 0 4.607-1.084 6.074-2.794l-5.074-5.206 5.074-5.206zM11 1.884c0.616 0 1.116 0.499 1.116 1.116s-0.499 1.116-1.116 1.116-1.116-0.499-1.116-1.116c0-0.616 0.499-1.116 1.116-1.116z"></path>
        </symbol>
        <symbol id="icon-bullhorn" viewBox="0 0 16 16">
            <title>bullhorn</title>
            <path class="path1" d="M16 6.707c0-3.139-0.919-5.687-2.054-5.707 0.005-0 0.009-0 0.014-0h-1.296c0 0-3.044 2.287-7.425 3.184-0.134 0.708-0.219 1.551-0.219 2.523s0.085 1.816 0.219 2.523c4.382 0.897 7.425 3.184 7.425 3.184h1.296c-0.005 0-0.009-0-0.014-0.001 1.136-0.020 2.054-2.567 2.054-5.707zM13.513 11.551c-0.147 0-0.305-0.152-0.387-0.243-0.197-0.22-0.387-0.562-0.55-0.989-0.363-0.957-0.564-2.239-0.564-3.611s0.2-2.655 0.564-3.611c0.162-0.428 0.353-0.77 0.55-0.99 0.081-0.091 0.24-0.243 0.387-0.243s0.305 0.152 0.387 0.243c0.197 0.22 0.387 0.562 0.55 0.99 0.363 0.957 0.564 2.239 0.564 3.611s-0.2 2.655-0.564 3.611c-0.162 0.428-0.353 0.77-0.55 0.989-0.081 0.091-0.24 0.243-0.387 0.243zM3.935 6.707c0-0.812 0.060-1.6 0.173-2.33-0.74 0.102-1.39 0.161-2.193 0.161-1.048 0-1.048 0-1.048 0l-0.867 1.479v1.378l0.867 1.479c0 0 0 0 1.048 0 0.803 0 1.453 0.059 2.193 0.161-0.113-0.729-0.173-1.518-0.173-2.33zM5.752 10.034l-2-0.383 1.279 5.024c0.066 0.26 0.324 0.391 0.573 0.291l1.852-0.741c0.249-0.1 0.349-0.374 0.222-0.611l-1.926-3.581zM13.513 8.574c-0.057 0-0.118-0.059-0.149-0.094-0.076-0.085-0.149-0.217-0.212-0.381-0.14-0.369-0.217-0.863-0.217-1.392s0.077-1.023 0.217-1.392c0.063-0.165 0.136-0.297 0.212-0.381 0.031-0.035 0.092-0.094 0.149-0.094s0.118 0.059 0.149 0.094c0.076 0.085 0.149 0.217 0.212 0.381 0.14 0.369 0.217 0.863 0.217 1.392s-0.077 1.023-0.217 1.392c-0.063 0.165-0.136 0.297-0.212 0.381-0.031 0.035-0.092 0.094-0.149 0.094z"></path>
        </symbol>
        <symbol id="icon-ticket" viewBox="0 0 16 16">
            <title>ticket</title>
            <path class="path1" d="M9 5l2 2-4 4-2-2zM15.649 4.649l-1.149-1.149-0.5 0.5c-0.256 0.256-0.61 0.414-1 0.414-0.781 0-1.414-0.633-1.414-1.414 0-0.391 0.158-0.744 0.415-1l0.5-0.5-1.149-1.149c-0.468-0.468-1.235-0.468-1.703 0l-9.297 9.297c-0.468 0.468-0.468 1.235 0 1.703l1.149 1.149 0.499-0.499c0.256-0.256 0.61-0.415 1.001-0.415 0.781 0 1.414 0.633 1.414 1.414 0 0.391-0.158 0.744-0.415 1l-0.5 0.5 1.149 1.149c0.468 0.468 1.234 0.468 1.703 0l9.297-9.297c0.468-0.468 0.468-1.235 0-1.703zM7 13l-4-4 6-6 4 4-6 6z"></path>
        </symbol>
        <symbol id="icon-cart" viewBox="0 0 16 16">
            <title>cart</title>
            <path class="path1" d="M6 14.5c0 0.828-0.672 1.5-1.5 1.5s-1.5-0.672-1.5-1.5c0-0.828 0.672-1.5 1.5-1.5s1.5 0.672 1.5 1.5z"></path>
            <path class="path2" d="M16 14.5c0 0.828-0.672 1.5-1.5 1.5s-1.5-0.672-1.5-1.5c0-0.828 0.672-1.5 1.5-1.5s1.5 0.672 1.5 1.5z"></path>
            <path class="path3" d="M16 8v-6h-12c0-0.552-0.448-1-1-1h-3v1h2l0.751 6.438c-0.458 0.367-0.751 0.93-0.751 1.562 0 1.105 0.895 2 2 2h12v-1h-12c-0.552 0-1-0.448-1-1 0-0.003 0-0.007 0-0.010l13-1.99z"></path>
        </symbol>


      
  <!-- end pattern -->

    <pattern id="pattern-paper" patternUnits="userSpaceOnUse" width="100" height="100">
    <image href="https://raw.githubusercontent.com/alexmwalker/Complete-Cover-Archive/master/misc/paper.jpg" x="0" y="0" width="100" height="100" />
  </pattern>
         
    </defs>

    <path fill="hsl(184, 52%, 49%)" d="M0 0h1000v610H0z" />
    <use height="1100" x="10" y="30" fill="#900" href="#icon-bullhorn" />
    <use height="1100" x="-10%" y="-30%" fill="rgba(0,0,0,.3)" class="pattern-paper" href="#icon-bullhorn" />
    <use height="1100" x="20%" y="-30%" fill="hsl(481.5, 52%, 20%)" class="rotate-1" href="#icon-sound" opacity=".5" />
    <g id="focalpoint" >
        <circle height="500"   cx="750" cy="290" r="200" fill="hsl(481.5, 52%, 75%)" class="frame" />
        <use width="200" x="650" y="0" fill="rgba(0,0,0,.7)" class="focalpoint" href="#icon-pacman" />
    </g>
    <text id="newGraphicnumber" x="150" y="600">3</text>
</svg>