<svg xmlns="http://www.w3.org/2000/svg" xmlns:xlink="http://www.w3.org/1999/xlink" fill="none" viewBox="0 0 1021 1278">
<defs>
    <style>
        @import(url'https://gist.githack.com/alexmwalker/af9e54e4b0f20b5f206d9db1378f75a2/raw/5869423a809bc26ab53dc359cb1b19e54fba1918/expiry.css');
        .expire{visibility: hidden}
    </style>
</defs>
  <g clip-path="url(#clip0)">
    <rect width="1021" height="1278" fill="#fff"/>
    <path fill="url(#paint0_radial)" d="M1021 0h-2112v1278h2112V0z"/>
    <rect width="2112" height="1278" x="-1091" fill="url(#paint1_radial)"/>
    <rect width="332" height="44" x="636" y="574" fill="#FDCD60"/>
    <path fill="#35495E" d="M669.6 589.5l1.8-3.4c-1-.8-2.4-1.4-3.8-2a13.8 13.8 0 00-8.5-.3c-1.1.3-2.1.8-3 1.5a7.1 7.1 0 00-2.7 5.8c.1 1 .3 1.8.6 2.5s.8 1.4 1.4 1.9c.6.5 1.4 1 2.4 1.3a132 132 0 018.5 2.8c.5.3 1 .7 1.3 1.1.3.5.5 1 .5 1.6 0 1.1-.4 2-1.3 2.5-.8.6-2 .8-3.6.8-1 0-2 0-2.9-.3a16.4 16.4 0 01-4.6-2c-.6-.3-1-.6-1.3-1l-1.9 3.5c1.5 1.1 3.1 2 5 2.6a18.5 18.5 0 009.2.5c1.1-.3 2.1-.8 3-1.3.8-.6 1.5-1.4 2-2.3.5-1 .7-2.1.7-3.4 0-1.1-.2-2.1-.6-3a6 6 0 00-1.6-2c-.7-.5-1.6-1-2.7-1.4l-3.5-1-2.8-.7-2-.8c-.5-.3-.9-.7-1.1-1-.3-.5-.4-1-.4-1.6 0-1 .4-2 1.2-2.6.8-.6 2-1 3.8-1a11.5 11.5 0 015.9 1.8l1 .9zm24.4 16h-13.5v-7.9H692v-3.3h-11.4V587h13.2v-3.6h-17.2V609H694v-3.6zm2-9.5c0 1.7.3 3.3 1 4.9a13.1 13.1 0 006.3 7.2c1.5.8 3.1 1.1 5 1.1 1 0 2 0 3-.4a12.5 12.5 0 005.5-3c.7-.7 1.3-1.6 1.7-2.5l-3.3-2c-.4.8-.8 1.5-1.3 2a7.5 7.5 0 01-5.5 2.3c-1.2 0-2.3-.3-3.3-.8s-2-1.2-2.7-2a9.3 9.3 0 01-1.7-3 10.7 10.7 0 011.4-9.9c.8-.9 1.6-1.6 2.6-2.1 1-.6 2.2-.9 3.6-.9a8.8 8.8 0 013.7.9c.6.3 1.2.8 1.7 1.3s1 1.1 1.3 1.9l3.1-2.1a10.3 10.3 0 00-9.7-5.6 12 12 0 00-11.5 8.2c-.6 1.5-.9 3-.9 4.5zm36.6 13.2c1.8 0 3.4-.3 4.9-1a13 13 0 006.5-16.7 13.3 13.3 0 00-6.3-7 11 11 0 00-5-1.2c-1.8 0-3.4.3-5 1a12.3 12.3 0 00-6.4 7 13.6 13.6 0 002.4 13.9c1.2 1.2 2.4 2.2 4 2.9 1.4.7 3.1 1 5 1zm-8.1-13c0-1.1.2-2.2.5-3.4a8.9 8.9 0 014.2-5 7.3 7.3 0 016.8 0c1 .4 1.8 1.1 2.5 2 .8.8 1.3 1.8 1.7 3a11.3 11.3 0 010 6.8 9.5 9.5 0 01-1.6 3c-.7.9-1.5 1.6-2.5 2.2a7 7 0 01-3.4.7 7.4 7.4 0 01-6-2.8 10.3 10.3 0 01-2.2-6.5zm28.6-5.2l14.5 18h3.3v-25.5h-4v18.4l-14.6-18.5H749V609h4v-18zm23.6 18h9a14 14 0 005.2-.9c1.5-.6 2.8-1.5 4-2.6 1-1.1 1.8-2.4 2.4-4a15.4 15.4 0 00.1-10.2 11.3 11.3 0 00-6.3-6.8c-1.5-.7-3.3-1-5.3-1h-9.1V609zm17.4-12.8a12 12 0 01-.5 3.7 8.1 8.1 0 01-1.7 3c-.7.7-1.5 1.4-2.6 1.9-1 .4-2.2.6-3.5.6h-5V587h5c1.3 0 2.4.3 3.5.7a7.8 7.8 0 014.2 4.8c.4 1.1.6 2.4.6 3.7zm34.8 9.2h-13.5v-7.8h11.4v-3.3h-11.4V587h13.2v-3.6h-17.3V609H829v-3.6zm4.1 3.6h9.1a14 14 0 005.2-.9 11.2 11.2 0 006.4-6.6 15.4 15.4 0 000-10.2c-.5-1.6-1.3-3-2.3-4.1-1-1.2-2.3-2-3.9-2.8-1.5-.6-3.3-1-5.4-1h-9V609zm17.5-12.8a12 12 0 01-.6 3.7 8.1 8.1 0 01-1.6 3c-.7.7-1.6 1.4-2.6 1.9-1 .4-2.3.6-3.6.6h-5V587h5c1.3 0 2.5.3 3.5.7 1 .5 2 1.1 2.7 1.9.7.8 1.2 1.8 1.6 2.9.3 1.1.6 2.4.6 3.7zm8.3 12.8h4v-25.6h-4V609zm28.6-22v-3.6h-21.1v3.6h8.5v22h4v-22h8.6zm3.4 22h4v-25.6h-4V609zm20.4.2c1.8 0 3.4-.3 4.9-1a13 13 0 006.5-16.7 13.3 13.3 0 00-6.3-7 11 11 0 00-5-1.2c-1.8 0-3.4.3-5 1a12.3 12.3 0 00-6.4 7 13.6 13.6 0 002.4 13.9c1.2 1.2 2.4 2.2 4 2.9 1.4.7 3 1 5 1zm-8.1-13c0-1.1.2-2.2.5-3.4a8.9 8.9 0 014.2-5 7.3 7.3 0 016.8 0c1 .4 1.8 1.1 2.5 2 .8.8 1.3 1.8 1.7 3a11.3 11.3 0 010 6.8 9.5 9.5 0 01-1.6 3c-.7.9-1.5 1.6-2.5 2.2a7 7 0 01-3.4.7 7.4 7.4 0 01-6-2.8 10.3 10.3 0 01-2.2-6.5zm28.6-5.2l14.5 18h3.3v-25.5h-4v18.4l-14.7-18.5h-3.1V609h4v-18z"/>
    <path fill="#fff" d="M727.5 128.9c.4.7 1 1.2 1.8 1.6l2.3 1h5c.9 0 1.6-.3 2.3-.6.7-.3 1.2-.7 1.6-1.2a3 3 0 00.7-2 2.8 2.8 0 00-1.5-2.7c-1-.6-2-1-3.2-1.4l-4.5-1c-1.6-.1-3-.5-4.5-1.2a9.4 9.4 0 01-3.3-2.2 6.5 6.5 0 01-.4-7.6c.7-1 1.5-1.7 2.5-2.4 1-.6 2-1 3.2-1.2 1.2-.3 2.5-.4 3.7-.4 1.5 0 3 0 4.5.4 1.3.2 2.5.6 3.7 1.2 1 .7 1.8 1.6 2.4 2.6.6 1.3 1 2.7 1 4h-4.7c0-.7-.2-1.4-.6-2-.4-.5-1-1-1.6-1.4l-2-.8h-4.3l-1.9.4c-.6.4-1.2.6-1.4 1.2a2.2 2.2 0 00-.6 1.6 2 2 0 00.8 1.8c.6.7 1.4 1.1 2.2 1.4l2.9.8 3.3.6 3.4 1c1 .3 2 .7 2.9 1.2a7 7 0 012 2.2c.6 1 .9 2.1.9 3.3 0 1.4-.4 2.7-1 4a7 7 0 01-3 2.6 8.3 8.3 0 01-3.8 1.4l-4.3.4-4.3-.4c-1.4-.3-2.7-.9-3.8-1.6-1.1-.8-2-1.7-2.7-2.8a9 9 0 01-1-4.2h4.7c0 .8.1 1.6.6 2.4z"/>
    <path fill="#fff" d="M756.3 108.2h-4.7V135h4.7v-26.8z"/>
    <path fill="#fff" d="M775.2 108.2v3.8h-5.5v16.7c0 .6 0 1 .2 1.2a1 1 0 00.4.8h5v3.8h-6.6c-.7-.1-1.4-.4-2-.8a3 3 0 01-1.3-1.8c-.2-1-.4-2-.4-3V112h-4.7v-3.8h4.7v-8h4.7v8h5.5z"/>
    <path fill="#fff" d="M800.3 133.3a16.2 16.2 0 01-13.7 1.2 11 11 0 01-4.2-3 16.1 16.1 0 01-2.4-15.6 16 16 0 012.6-4.5c1.2-1.2 2.6-2.2 4.3-2.8 1.6-.7 3.4-1 5.3-1a11.6 11.6 0 0110.2 5.2c1 1.5 1.6 3.1 2 4.8.4 1.7.6 3.5.4 5.2h-21c0 1.2.2 2.3.4 3.5.3 1 .9 2 1.6 2.8.8.8 1.8 1.5 2.9 1.8a9.5 9.5 0 008.8-.6 5.9 5.9 0 002.4-3.8h4.5c-.4 2.7-1.9 5.1-4 6.8zm-1-17.3c-.4-1-1-1.8-1.8-2.4a7.3 7.3 0 00-2.5-1.6c-1-.4-2-.6-3-.6a7.9 7.9 0 00-5.8 2.2c-.7.7-1.3 1.5-1.6 2.4-.4 1-.7 2-.8 3h16.1c0-1-.2-2-.6-3z"/>
    <path fill="#fff" d="M814.4 108.2v3.6h.2a6 6 0 013.5-3.2c1.7-.7 3.6-1 5.5-1 2 0 4 .3 5.7 1a10 10 0 013.9 3.2c1.2 1.3 2 2.8 2.4 4.4.6 1.8.9 3.6.8 5.4 0 1.9-.2 3.7-.6 5.5-.5 1.5-1.4 3-2.4 4.4a12.6 12.6 0 01-4.1 3c-1.8.6-3.8 1-5.7 1h-2.3l-2.4-.6-2.5-1.4a4.4 4.4 0 01-1.8-2h-.2v13.8H810v-37h4.5zm16.7 9.4a9.5 9.5 0 00-1.6-3.2 9.6 9.6 0 00-2.6-2.2 8.5 8.5 0 00-4-.8c-1.3 0-2.7.2-4 .8-1 .6-2 1.4-2.7 2.4-.6 1-1.1 2-1.4 3.2a11.2 11.2 0 000 7.4 9.8 9.8 0 004.3 5.7c1.3.6 2.7.8 4 .8 1.5 0 2.9-.3 4.2-.8 1-.6 1.8-1.5 2.4-2.4.7-1 1.2-2.2 1.4-3.5.4-1.2.5-2.5.4-3.8.1-1.2 0-2.4-.4-3.6"/>
    <path fill="#fff" d="M841.3 116a12.2 12.2 0 017-7.4c1.8-.8 3.9-1 5.9-1 2 0 4 .3 6 1a12.6 12.6 0 016.6 7.4 16 16 0 010 11 12.6 12.6 0 01-6.7 7.4 18.3 18.3 0 01-11.8 0c-1.7-.6-3.1-1.6-4.3-3a12.2 12.2 0 01-2.7-4.3c-.5-1.8-.8-3.6-.8-5.5s.3-3.8.8-5.6zm4.7 9.8c.4 1.2 1 2.3 1.9 3.3.8.7 1.8 1.4 2.8 2a9.8 9.8 0 006.8 0c1-.6 2-1.3 2.8-2a12.8 12.8 0 002.7-7.4c0-1.6-.3-3-.8-4.5-.4-1.2-1-2.2-1.9-3.2-.8-.7-1.8-1.4-2.8-2a9.7 9.7 0 00-6.7 0c-1.1.6-2 1.3-3 2-.8 1-1.4 2-1.8 3.2-.4 1.5-.6 3-.6 4.4 0 1.5.2 2.9.6 4.3"/>
    <path fill="#fff" d="M878.3 108.2h-4.7V135h4.7v-26.8z"/>
    <path fill="#fff" d="M889.7 108.2v4.2a10.1 10.1 0 019.2-4.8c1.6 0 3.2.2 4.7.6 1.1.5 2.1 1.2 3 2 .7 1 1.2 2 1.5 3.2.4 1.3.6 2.5.6 3.8V135H904v-18a5.3 5.3 0 00-1.4-4 5.7 5.7 0 00-4.3-1.5 10 10 0 00-3.7.6 6.6 6.6 0 00-4 4.4c-.5 1.1-.7 2.3-.7 3.4v15h-4.7v-26.6h4.5z"/>
    <path fill="#fff" d="M927.7 108.2v3.8h-5.8v16.7l.2 1.2c0 .4.2.6.7.8h4.9v3.8h-6.8l-2-.8c-.5-.5-.9-1.2-1-1.8-.4-1-.5-2-.4-3V112h-5v-3.8h5v-8h4.4v8h5.8z"/>
    <path fill="#fff" d="M660.1 118.4l4.3 4L678 135l5.7-5.6a1.6 1.6 0 000-2.2l-5.3-4.7-5.7-5.4a2 2 0 010-2.6l15.5-14.6L681 93l-16.6 15.8-4.3 4a3.8 3.8 0 00-1.2 2.8 3.7 3.7 0 001.2 2.8"/>
    <path fill="#fff" d="M706 125.4l-4.2-4-13.5-12.4-5.7 5.6a1.6 1.6 0 000 2.2l5.3 4.6 5.7 5.7a1.8 1.8 0 010 2.4L678.1 144l7.1 6.8 16.6-15.8 4.3-4a3.8 3.8 0 001.2-2.8 3.7 3.7 0 00-1.2-2.9"/>
    <path fill="#fff" d="M756.5 102.6a2.7 2.7 0 01-4.5 1.8 2.6 2.6 0 010-3.6 2.7 2.7 0 013.7 0c.5.5.8 1.1.8 1.8"/>
    <path fill="#fff" d="M878.5 102.6a2.7 2.7 0 01-4.5 1.8 2.6 2.6 0 010-3.6 2.7 2.7 0 013.7 0c.5.5.8 1.1.8 1.8"/>
    <path fill="#fff" d="M393 350.9l-2.5 8.8c4 2.9 9 4.2 14.7 4.2 5.4 0 9.6-.8 13-2.5 3-1.6 5.5-4 7.2-7 1.6-3 2.7-6.6 3.3-10.8.4-4.3.7-9 .7-14.3v-34.6h-10.8v34.7c0 4-.2 7.7-.5 10.8-.3 3-.9 5.7-1.8 7.8-1 2-2.3 3.6-4 4.7-1.8 1-4.2 1.5-7 1.5A21.8 21.8 0 01393 351zm79.5 2.7a18 18 0 01-9-2 15.8 15.8 0 01-5.7-5.5 23.1 23.1 0 01-3-7.7c-.7-3-1-6-1-9.1v-34.6h-10.7v34.6c0 4.4.5 8.7 1.5 12.7a30 30 0 005 11 25 25 0 009 7.6 30 30 0 0013.9 2.7c5.2 0 9.7-.8 13.4-2.7 3.8-1.7 6.8-4.2 9.2-7.3 2.3-3 4-6.7 5.2-10.8 1-4.1 1.6-8.5 1.6-13.2v-34.6h-10.8v34.6c0 3-.4 6.1-1 9-.5 2.9-1.6 5.4-3 7.8a16.3 16.3 0 01-5.7 5.4 17 17 0 01-9 2.1zm101 9.3h10.9v-68.2h-11.5l-22.6 41.7-22.5-41.7h-11.6v68.2H527v-49.1l20.3 37.1h6l20.3-37.1v49zm26.3 0h10.7V339H629c3 0 5.8-.5 8.3-1.8a20.8 20.8 0 0010.7-12 22 22 0 00-.1-16.4 23.5 23.5 0 00-11-12.2c-2.7-1.3-5.4-2-8.5-2h-28.6v68.2zm10.7-33.3v-25.4h17.2c1.4 0 2.7.4 4 1 1.4.5 2.5 1.4 3.6 2.6 1 1.1 1.8 2.3 2.4 3.9a16.7 16.7 0 01.1 10.3 16 16 0 01-2.1 4c-1 1.1-2 2.1-3.3 2.7-1.2.7-2.6 1-4.1 1h-17.8zM721 310.7l4.9-8.8c-3-2.1-6.4-4-10.3-5.5a36.8 36.8 0 00-22.5-.8c-3.1 1-5.7 2.3-8 4-2.1 1.7-3.8 4-5 6.5a19 19 0 00-2 8.8c0 2.7.4 5 1.2 7 .9 1.9 2.1 3.5 3.9 4.9 1.6 1.4 3.7 2.6 6.2 3.6s5.5 2 9 2.8l7.8 2.2c2.3.8 4.2 1.5 5.9 2.4 1.5.9 2.8 1.8 3.6 3a7 7 0 011.4 4.3c0 2.9-1.2 5-3.5 6.5a17.6 17.6 0 01-9.8 2.2c-2.7 0-5.2-.3-7.6-.8a43.7 43.7 0 01-12.3-5.1 17 17 0 01-3.5-2.8l-4.9 9.2c3.8 3 8.3 5.4 13 7a49.5 49.5 0 0024.8 1.2c3-.8 5.6-2 7.9-3.5 2.3-1.5 4-3.6 5.4-6.1 1.3-2.5 2-5.5 2-9 0-3-.6-5.6-1.6-7.7-1.1-2.1-2.5-4-4.5-5.5a29 29 0 00-7-3.8c-2.9-1-6-1.9-9.4-2.7l-7.4-2c-2-.5-4-1.3-5.3-2a8.3 8.3 0 01-3.1-2.8c-.7-1.1-1-2.4-1-4.2 0-2.9 1-5.2 3.2-6.9 2.1-1.6 5.5-2.5 10-2.5a30.6 30.6 0 0115.7 4.7c1.2.8 2.1 1.6 2.8 2.2zm68-6.5v-9.5h-56.3v9.5h22.7v58.7h10.9v-58.7h22.6zm22.4-9.5l-27.1 68.2h11.4l7.1-18.6h26.3l7.2 18.6h11.4l-27-68.2h-9.3zm15.6 41.7h-22.3l11.4-29.3 11 29.3zm29 26.5h10.8V339h15.8l14.8 23.8h12.2l-16-26c1.8-.5 3.7-1.5 5.4-2.8a23.3 23.3 0 007.9-17.2 24.3 24.3 0 00-6-15.2c-1.9-2.1-4.1-3.7-6.7-5-2.6-1.3-5.4-2-8.5-2h-29.6v68.2zm10.8-33.3v-25.4h18.3a10.5 10.5 0 017.5 3.7 14 14 0 012.6 13.9c-.6 1.5-1.3 3-2.2 4-1 1.2-2 2.2-3.2 2.9-1.3.7-2.6 1-4.1 1h-18.9zm101.7-25.4v-9.5h-56.2v9.5H935v58.7H946v-58.7h22.6zm-642.4 91.7h-23.8l57 142h19.2l56.8-142h-23.8l-42.6 113.8L326 395.9zm185.7 122.8c-7.4 0-13.6-1.4-18.6-4.2-5-2.8-9-6.6-12-11.4-3-4.8-5.2-10.2-6.4-16.2-1.2-6-1.8-12.4-1.8-19v-72h-22.4v72c0 9.2 1 18.2 3.2 26.6 2 8.6 5.6 16.2 10.4 22.8A52 52 0 00483 533c7.8 4 17.4 5.8 28.8 5.8 10.8 0 20.2-1.8 28-5.6A51.5 51.5 0 00559 518c4.8-6.4 8.4-14 10.8-22.6a111 111 0 003.4-27.6v-72h-22.6v72c0 6.4-.8 12.8-2 18.8s-3.4 11.4-6.4 16.2c-3 4.8-7 8.6-11.8 11.4-5 3-11.2 4.4-18.6 4.4zm188.6-.6h-75v-43.4h63.4V456h-63.4v-40.4h73.2v-19.8H603v142h97.4V518zm19.3 19.8h18.2v-25.6h-18.2v25.6zm37.8-25l-5.4 18.4c8.4 6 18.8 8.8 30.8 8.8a57 57 0 0026.8-5.2 35.7 35.7 0 0015.2-14.6 65.3 65.3 0 006.8-22.6c1-8.8 1.6-18.8 1.6-29.6v-72.2h-22.6V468c0 8.6-.4 16.2-1 22.6a50.8 50.8 0 01-3.8 16.2c-2 4.4-4.8 7.6-8.4 9.8a28.2 28.2 0 01-14.6 3.2 45.5 45.5 0 01-25.4-7zm190.2-83.6l10.2-18.4c-6.2-4.4-13.4-8.2-21.4-11.4a76.6 76.6 0 00-47-1.8c-6.4 2-11.8 4.8-16.4 8.4a39.5 39.5 0 00-14.8 32 35 35 0 002.6 14.4c1.8 4 4.4 7.4 8 10.2 3.4 3 7.8 5.6 13 7.6s11.4 4 18.6 5.8l16.4 4.6c4.8 1.6 8.8 3.2 12.2 5a24 24 0 017.6 6.2c1.8 2.4 2.8 5.4 2.8 9a15 15 0 01-7.2 13.6A36.7 36.7 0 01912 519a67 67 0 01-15.8-1.8 91 91 0 01-25.6-10.6c-3.2-2-5.8-4-7.4-5.8L853 520c8 6.4 17.2 11.2 27.2 14.4a103 103 0 0051.6 2.6 53 53 0 0016.4-7.2c4.8-3.2 8.4-7.6 11.2-12.8a38.7 38.7 0 004.2-18.6 33.6 33.6 0 00-12.6-27.6c-4-3-9-5.6-14.8-7.8-5.8-2-12.2-4-19.4-5.8-6-1.4-11-2.8-15.4-4a48.3 48.3 0 01-11-4.4c-3-1.6-5.2-3.6-6.6-5.8-1.4-2.2-2-5-2-8.6 0-6 2.2-10.8 6.6-14.4 4.4-3.4 11.4-5.2 21-5.2a63.7 63.7 0 0132.6 9.8 39 39 0 015.8 4.6z"/>
    <path fill="#fff" d="M743.6 654.6c0-1-.3-2-.9-2.8a4.4 4.4 0 00-2.3-1.5c.8-.4 1.4-1 1.8-1.6a4.5 4.5 0 00.4-4c-.2-.5-.4-1-.8-1.3-.3-.5-.7-.8-1.2-1-.5-.3-1-.4-1.6-.4h-8.8v17h8.1c.8 0 1.4-.1 2-.3a5 5 0 001.7-.9c.5-.3.9-.8 1.2-1.3.2-.6.4-1.2.4-1.9zm-2.8-.5c0 .4 0 .7-.2 1l-.5.8a2.3 2.3 0 01-1.8.7H733v-5.1h5.6c.3 0 .7 0 1 .2l.7.6.4.8c.2.3.2.7.2 1zm-8-9.8h5.2a2 2 0 011.6.7c.4.5.6 1 .6 1.8a2.6 2.6 0 01-.7 1.8l-.8.5a2 2 0 01-.9.2h-5v-5zM747 642h-3l6.4 10.9v6.1h2.7v-6.1l6.3-11h-2.9l-4.8 8.6-4.7-8.5zm22.4 5l9.6 12h2.2v-17h-2.7v12.2l-9.7-12.2h-2.1v17h2.7v-12zm15.7 12h2.7v-17H785v17zm6.5 0h11.8v-2.4h-9.1V642h-2.7v17zm24.1-13l1.2-2.2c-.7-.6-1.6-1-2.5-1.4a9.2 9.2 0 00-5.7-.2 6 6 0 00-2 1c-.5.4-1 1-1.2 1.6-.4.7-.5 1.4-.5 2.2 0 .7 0 1.3.3 1.8.2.4.5.8 1 1.2l1.5.9 2.2.7a88 88 0 013.5 1.1l.9.8c.2.3.3.6.3 1 0 .8-.3 1.3-.8 1.7-.6.4-1.4.5-2.5.5a8 8 0 01-1.9-.2 11 11 0 01-3-1.2l-1-.7-1.2 2.3c1 .7 2.1 1.3 3.3 1.7a12.4 12.4 0 006.2.3c.7-.2 1.4-.5 2-.9.5-.3 1-.9 1.3-1.5.3-.6.5-1.4.5-2.2 0-.8-.1-1.4-.4-2a4 4 0 00-1.1-1.3c-.5-.4-1-.7-1.8-1l-2.3-.7-1.9-.5-1.3-.5a2 2 0 01-.8-.7l-.2-1c0-.7.3-1.3.8-1.7.5-.4 1.3-.7 2.5-.7a7.6 7.6 0 014 1.2l.6.6zm11.7 13.1c1.1 0 2.2-.2 3.2-.7a8.6 8.6 0 004.4-11 8.8 8.8 0 00-4.3-4.8 7.5 7.5 0 00-6.6 0 8.2 8.2 0 00-4.3 4.6 9 9 0 001.6 9.2 7.6 7.6 0 005.9 2.7zm-5.4-8.6c0-.8 0-1.5.3-2.3a6 6 0 012.8-3.4c.7-.3 1.4-.5 2.3-.5.8 0 1.5.2 2.2.5.7.4 1.2.8 1.7 1.4.5.6.9 1.2 1.1 2a7.5 7.5 0 010 4.5 5.5 5.5 0 01-2.8 3.4c-.6.4-1.3.6-2.2.6a5 5 0 01-4-1.9c-.5-.6-.8-1.2-1-2-.3-.7-.4-1.5-.4-2.3zm19-3.5l9.7 12h2.2v-17h-2.7v12.2l-9.7-12.2h-2.2v17h2.7v-12zm20 9l-.7 2.2c1 .7 2.3 1 3.7 1 1.4 0 2.4-.1 3.3-.6.7-.4 1.3-1 1.8-1.7.4-.8.6-1.7.8-2.7l.2-3.6V642h-2.7v8.6l-.1 2.7a6 6 0 01-.5 2c-.2.5-.6.9-1 1.2-.4.2-1 .3-1.8.3a5.5 5.5 0 01-3-.8zm17.4-14l-6.8 17h2.9l1.8-4.6h6.5l1.8 4.6h2.9l-6.7-17h-2.4zm4 10.4h-5.7l2.9-7.3 2.7 7.3zm5.5-2c0 1 .2 2.1.6 3.2a8.7 8.7 0 004.2 4.8c1 .5 2.1.7 3.3.7.7 0 1.4 0 2-.2a8.4 8.4 0 003.7-2c.5-.5.9-1 1.2-1.7l-2.3-1.3-.8 1.3a5 5 0 01-3.7 1.5c-.8 0-1.5-.1-2.2-.5-.7-.3-1.3-.8-1.8-1.4-.4-.6-.8-1.2-1-2-.4-.7-.5-1.5-.5-2.3a7.2 7.2 0 011.4-4.2 4.9 4.9 0 014-2 5.9 5.9 0 012.5.6l1.1.8c.4.4.7.8.9 1.3l2.1-1.4a6.9 6.9 0 00-6.5-3.7 8 8 0 00-7.7 5.4c-.4 1-.5 2-.5 3zm28.8 7.4l1.1 1.2h2.6l-2.2-2.5a9 9 0 002.3-6 9 9 0 00-4.9-7.9 7.5 7.5 0 00-6.6 0 8.2 8.2 0 00-4.3 4.6 9 9 0 001.6 9.2 8 8 0 008.3 2.4c.8-.3 1.5-.6 2.1-1zm-4.4-1.1a5 5 0 01-4-1.9c-.5-.6-.8-1.2-1-2-.3-.7-.5-1.5-.5-2.3 0-.8.2-1.5.4-2.3a6 6 0 012.8-3.4c.7-.3 1.4-.5 2.3-.5.8 0 1.5.2 2.2.5.7.3 1.2.8 1.7 1.4.5.5.8 1.2 1.1 2a7.5 7.5 0 010 4.4c-.1.7-.4 1.3-.9 1.9l-1.2-1.4h-2.6l2.5 2.8a4.8 4.8 0 01-2.8.8zm18 0c-.9 0-1.6-.2-2.2-.5a4 4 0 01-1.5-1.4c-.3-.6-.6-1.2-.7-2-.2-.6-.3-1.4-.3-2.2V642H923v8.6c0 1.1 0 2.2.3 3.2s.7 2 1.3 2.7c.6.8 1.3 1.4 2.2 2 1 .4 2.1.6 3.5.6 1.3 0 2.4-.2 3.4-.7.9-.4 1.7-1 2.3-1.8.5-.7 1-1.7 1.3-2.7.2-1 .4-2.1.4-3.3V642h-2.7v8.6c0 .8-.1 1.5-.3 2.3-.1.7-.4 1.3-.8 1.9a4 4 0 01-1.4 1.4c-.6.3-1.3.5-2.2.5zm22.6 0h-9v-5.3h7.6v-2.2h-7.6v-4.9h8.8V642h-11.5v17h11.7v-2.4zm12.5-10.7l1.3-2.2c-.8-.6-1.7-1-2.6-1.4a9.2 9.2 0 00-5.7-.2 6 6 0 00-2 1c-.5.4-1 1-1.2 1.6-.4.7-.5 1.4-.5 2.2 0 .7.1 1.3.3 1.8.2.4.5.8 1 1.2l1.5.9 2.3.7a88 88 0 013.4 1.1l1 .8.2 1c0 .8-.2 1.3-.8 1.7-.6.4-1.4.5-2.5.5a8 8 0 01-1.9-.2 11 11 0 01-3-1.2l-1-.7-1.1 2.3c1 .7 2 1.3 3.2 1.7a12.4 12.4 0 006.2.3c.8-.2 1.4-.5 2-.9.6-.3 1-.9 1.3-1.5.4-.6.5-1.4.5-2.2 0-.8-.1-1.4-.4-2a4 4 0 00-1-1.3l-1.9-1-2.3-.7-1.8-.5c-.6-.1-1-.3-1.4-.5a2 2 0 01-.8-.7l-.2-1c0-.7.3-1.3.8-1.7.5-.4 1.4-.7 2.5-.7a7.6 7.6 0 014 1.2l.6.6z"/>
    <path fill="#fff" d="M209.6 1185.7c0-1.2-.4-2.3-1-3.2a5.1 5.1 0 00-2.7-1.8c.8-.4 1.5-1 2-2a5.3 5.3 0 00.5-4.5c-.3-.6-.5-1.1-1-1.6-.3-.5-.8-.9-1.3-1.2-.6-.3-1.3-.4-2-.4H194v19.8h9.5c.9 0 1.6 0 2.4-.3a5 5 0 003.2-2.6c.4-.6.6-1.4.6-2.2zm-3.3-.6c0 .5 0 .9-.2 1.2l-.6 1c-.3.3-.6.5-1 .6-.3.2-.7.2-1 .2H197v-6h6.5c.4 0 .8 0 1.1.2l.8.7a3.6 3.6 0 01.8 2.1zm-9.2-11.4h5.9c.7 0 1.3.3 1.8.8.5.6.8 1.3.8 2.1a3 3 0 01-.8 2.1c-.3.3-.6.5-1 .6-.2.2-.6.2-1 .2h-5.7v-5.8zm24 14.5c-1 0-1.9-.2-2.6-.6-.7-.4-1.3-1-1.7-1.6-.4-.7-.7-1.5-.9-2.3l-.2-2.7v-10h-3.2v10c0 1.3.2 2.6.5 3.8.3 1.2.8 2.3 1.4 3.2.7.9 1.6 1.6 2.7 2.2 1 .5 2.4.8 4 .8a9 9 0 004-.8c1-.5 2-1.2 2.6-2.1.7-1 1.2-2 1.5-3.2.3-1.2.5-2.5.5-3.9v-10h-3.2v10c0 1 0 1.8-.2 2.7-.2.8-.5 1.6-1 2.3a4.7 4.7 0 01-4.2 2.2zm12.8 2.6h3.1V1171H234v19.8zm7.6 0h13.8v-2.7h-10.7V1171h-3.1v19.8zm16.4 0h7c1.5 0 2.8-.2 4-.6a8.7 8.7 0 005-5.2 12 12 0 000-8 8.7 8.7 0 00-4.9-5.3c-1-.5-2.5-.7-4-.7h-7.1v19.8zm13.5-10c0 1.1-.1 2-.4 3-.3.8-.7 1.6-1.3 2.2-.5.7-1.2 1.2-2 1.5-.8.4-1.8.6-2.8.6h-4v-14.3h4c1 0 2 .1 2.8.5a6 6 0 013.3 3.7c.2.9.4 1.8.4 2.9zm14-9.8h-3.5l7.3 12.7v7.1h3.2v-7l7.4-12.8h-3.5l-5.5 10-5.5-10zm23.8 20c1.3 0 2.6-.3 3.8-.8 1.1-.6 2.1-1.3 3-2.2.9-1 1.5-2 2-3.3a10.2 10.2 0 000-7.4 10.3 10.3 0 00-4.9-5.6 8.7 8.7 0 00-7.7 0 9.5 9.5 0 00-3 2.2 10.8 10.8 0 00-2.7 7 10.6 10.6 0 002.6 7 9.2 9.2 0 006.9 3zm-6.3-10c0-1 0-1.8.4-2.7a6.9 6.9 0 013.2-4c.8-.4 1.7-.6 2.7-.6 1 0 1.8.2 2.6.6a6 6 0 012 1.6c.5.7 1 1.4 1.3 2.3a8.7 8.7 0 010 5.3c-.3 1-.7 1.7-1.2 2.4-.6.7-1.2 1.2-2 1.6-.8.5-1.7.7-2.7.7a5.8 5.8 0 01-4.6-2.3 8 8 0 01-1.7-5zm27.4 7.2c-1 0-2-.2-2.6-.6-.7-.4-1.3-1-1.7-1.6l-1-2.3-.2-2.7v-10h-3.1v10c0 1.3.1 2.6.4 3.8.3 1.2.8 2.3 1.5 3.2.7.9 1.5 1.6 2.6 2.2 1.1.5 2.5.8 4 .8a9 9 0 004-.8c1-.5 2-1.2 2.7-2.1.6-1 1.1-2 1.5-3.2.3-1.2.5-2.5.5-3.9v-10h-3.2v10c0 1-.1 1.8-.3 2.7-.2.8-.5 1.6-.9 2.3a4.7 4.7 0 01-4.2 2.2zm12.7 2.6h3.2v-6.9h4.6l4.3 7h3.5l-4.6-7.6 1.5-.8c.5-.4 1-.9 1.3-1.4a6.7 6.7 0 001-3.7c0-.7-.1-1.5-.4-2.3a7 7 0 00-1.3-2 7 7 0 00-2-1.6c-.7-.3-1.5-.5-2.4-.5H343v19.8zm3.2-9.6v-7.5h5.3l1.2.3 1 .8a4 4 0 01.7 4c-.1.5-.3 1-.6 1.3l-1 .8c-.3.2-.7.3-1.1.3h-5.5zm30.5 9.8c1.4 0 2.6-.3 3.8-.8 1.2-.6 2.2-1.3 3-2.2.9-1 1.6-2 2-3.3a10.2 10.2 0 000-7.4 10.3 10.3 0 00-4.9-5.6 8.7 8.7 0 00-7.7 0 9.5 9.5 0 00-3 2.2 10.8 10.8 0 00-2.7 7 10.6 10.6 0 002.6 7 9.2 9.2 0 007 3zm-6.3-10c0-1 .1-1.8.4-2.7a6.9 6.9 0 013.3-4c.7-.4 1.6-.6 2.6-.6s1.8.2 2.6.6a6 6 0 012 1.6c.6.7 1 1.4 1.3 2.3a8.7 8.7 0 010 5.3c-.3 1-.7 1.7-1.2 2.4-.6.7-1.2 1.2-2 1.6-.8.5-1.6.7-2.7.7a5.8 5.8 0 01-4.6-2.3 8 8 0 01-1.7-5zm25.4-10l3.4 9-3 7.2-6.1-16.2h-3.5l8.3 19.8h2.6l3.8-8.8 3.7 8.8h2.6l8.3-19.8h-3.5l-6.2 16.2-3-7.3 3.4-8.8h-2.9l-2.5 6.7-2.4-6.7h-3zm25.5 5.8l11.3 14h2.6V1171H432v14.3l-11.3-14.3h-2.5v19.8h3.1v-14zm37-1.1l1.5-2.6c-.9-.6-2-1.2-3-1.6a10.7 10.7 0 00-6.6-.3c-.9.3-1.7.7-2.3 1.2-.6.5-1.1 1.1-1.5 2-.4.7-.6 1.5-.6 2.5 0 .8.1 1.4.4 2 .2.6.6 1 1.1 1.4.5.5 1.1.8 1.8 1a112 112 0 016.6 2.2c.5.3.9.6 1.1 1 .3.3.4.7.4 1.2 0 .8-.3 1.5-1 1.9-.7.4-1.6.6-2.9.6-.8 0-1.5 0-2.2-.2a13.2 13.2 0 01-3.6-1.5l-1-.8-1.4 2.7c1 .9 2.4 1.5 3.8 2a14.4 14.4 0 007.2.3c.9-.2 1.6-.5 2.3-1 .7-.4 1.2-1 1.6-1.8.4-.7.6-1.6.6-2.6a4.7 4.7 0 00-1.8-3.9l-2-1a31.5 31.5 0 00-5-1.4l-1.5-.6-1-.8-.2-1.2c0-.9.3-1.5 1-2 .5-.5 1.5-.8 2.9-.8a9 9 0 014.5 1.4c.4.2.6.5.8.7zM472 1191c1.3 0 2.6-.3 3.7-.8 1.2-.6 2.2-1.3 3-2.2 1-1 1.6-2 2-3.3a10.2 10.2 0 00.1-7.4 10.3 10.3 0 00-5-5.6 8.7 8.7 0 00-7.7 0 9.5 9.5 0 00-3 2.2 10.8 10.8 0 00-2.7 7 10.6 10.6 0 002.7 7 9.2 9.2 0 006.9 3zm-6.4-10c0-1 .2-1.8.5-2.7a6.9 6.9 0 013.2-4c.8-.4 1.7-.6 2.7-.6 1 0 1.8.2 2.6.6a6 6 0 012 1.6c.5.7 1 1.4 1.2 2.3a8.7 8.7 0 010 5.3c-.2 1-.6 1.7-1.2 2.4-.5.7-1.2 1.2-2 1.6-.7.5-1.6.7-2.6.7a5.8 5.8 0 01-4.7-2.3c-.5-.6-1-1.4-1.2-2.3a8 8 0 01-.5-2.7zm19.2 9.8h3v-6.9h5.5c.9 0 1.7-.1 2.4-.5a6.1 6.1 0 003.1-3.5 6.4 6.4 0 000-4.8 7 7 0 00-1.3-2 7 7 0 00-2-1.6c-.7-.3-1.5-.5-2.4-.5h-8.3v19.8zm3-9.6v-7.5h5.1l1.2.3 1 .8.7 1.1.3 1.5c0 .6-.1 1-.3 1.5-.1.5-.3.9-.6 1.2l-1 .8c-.3.2-.7.3-1.1.3h-5.2zm30.7-10.2h-3.1v8.3h-10v-8.3h-3.2v19.8h3.1v-8.7h10v8.8h3.2v-20zm4.5 19.8h3.1V1171h-3v19.8zm19.4-15.1l1.4-2.6c-.8-.6-1.9-1.2-3-1.6a10.7 10.7 0 00-6.6-.3c-.8.3-1.6.7-2.2 1.2-.7.5-1.2 1.1-1.6 2-.4.7-.5 1.5-.5 2.5 0 .8 0 1.4.3 2 .3.6.7 1 1.2 1.4.4.5 1 .8 1.8 1a112 112 0 016.6 2.2c.4.3.8.6 1 1 .3.3.4.7.4 1.2 0 .8-.3 1.5-1 1.9-.6.4-1.6.6-2.8.6-.8 0-1.5 0-2.2-.2a13.2 13.2 0 01-3.6-1.5l-1-.8-1.5 2.7c1.1.9 2.4 1.5 3.8 2a14.4 14.4 0 007.3.3c.8-.2 1.6-.5 2.3-1a5.4 5.4 0 002.2-4.4 4.7 4.7 0 00-1.8-3.9l-2.1-1a31.5 31.5 0 00-4.9-1.4l-1.5-.6c-.5-.2-.8-.5-1-.8-.2-.3-.2-.7-.2-1.2 0-.9.3-1.5.9-2 .6-.5 1.6-.8 3-.8a9 9 0 014.5 1.4l.8.7zm19.8-2v-2.7h-16.4v2.8h6.6v17h3.2v-17h6.6zm2.7 17.1h3.1V1171H565v19.8zm6.3-10c0 1.3.3 2.5.7 3.7a10.2 10.2 0 005 5.6 8 8 0 003.8 1c.8 0 1.6-.2 2.4-.4a9.6 9.6 0 004.3-2.3c.6-.6 1-1.2 1.3-2l-2.6-1.5a5.8 5.8 0 01-3.8 3.1 7 7 0 01-1.5.2c-1 0-1.7-.2-2.5-.6-.8-.4-1.5-1-2-1.6-.6-.7-1-1.5-1.4-2.3a8.4 8.4 0 011.1-7.7 5.7 5.7 0 014.7-2.3 7 7 0 013 .7c.4.2.9.5 1.3 1l1 1.4 2.4-1.6a8 8 0 00-2.9-3.1 8.8 8.8 0 00-4.6-1.2 9.4 9.4 0 00-9 6.3 10 10 0 00-.7 3.6zm26-9.8l-7.9 19.8h3.4l2-5.3h7.7l2.1 5.3h3.3L600 1171h-2.8zm4.6 12.1h-6.5l3.3-8.5 3.2 8.5zm21-9.3v-2.8h-16.3v2.8h6.6v17h3.2v-17h6.6zm16.4 14.3h-10.5v-6h8.9v-2.7h-9v-5.7H639v-2.7h-13.4v19.8h13.7v-2.7zm3.2 2.8h7c1.5 0 2.9-.3 4-.8a8.7 8.7 0 005-5.1 12 12 0 00.1-8 8.7 8.7 0 00-4.9-5.3c-1.1-.5-2.5-.7-4.1-.7h-7v19.8zm13.6-10c0 1-.2 2-.5 2.8-.2 1-.6 1.7-1.2 2.3-.6.7-1.2 1.2-2 1.5-.9.4-1.8.6-2.8.6h-4v-14.3h4c1 0 2 .1 2.7.5.8.3 1.5.9 2 1.5a6 6 0 011.3 2.2c.3.9.5 1.8.5 2.9zm19.5-9.8l3.4 8.8-3 7.3-6.2-16.2h-3.4l8.2 19.8h2.7l3.7-8.8 3.7 8.8h2.7l8.2-19.8h-3.4l-6.2 16.2-3-7.3 3.4-8.8h-3l-2.4 6.7-2.5-6.7h-3zm36 17H701v-6h8.9v-2.7h-9v-5.7h10.3v-2.7h-13.4v19.8h13.7v-2.7zm18.8-2.4a5.1 5.1 0 00-3.7-5c1-.4 1.6-1 2.1-2a5.3 5.3 0 00.5-4.5c-.3-.6-.5-1.1-1-1.6-.3-.5-.8-.9-1.4-1.2-.5-.3-1.2-.4-1.8-.4h-10.3v19.8h9.5c.8 0 1.6 0 2.4-.3a5 5 0 003.2-2.6c.4-.6.5-1.4.5-2.2zm-3.2-.6c0 .5 0 .9-.2 1.2l-.6 1c-.3.3-.6.5-1 .6-.3.2-.7.2-1 .2h-6.4v-6h6.5c.4 0 .8 0 1.1.2l.8.7a3.6 3.6 0 01.8 2.1zm-9.2-11.4h5.9c.7 0 1.3.3 1.8.8.5.6.8 1.3.8 2.1a3 3 0 01-.8 2.1c-.3.3-.6.5-1 .6-.3.2-.6.2-1 .2H718v-5.8zm27.6-2.7l-7.9 19.8h3.3l2.1-5.3h7.7l2 5.3h3.4l-7.9-19.8h-2.7zm4.6 12.1h-6.5l3.3-8.5 3.2 8.5zm8.4 7.8h3.2v-7h5.4c.9 0 1.7-.1 2.4-.5a6.1 6.1 0 003.1-3.5 6.4 6.4 0 000-4.8 7 7 0 00-1.3-2 7 7 0 00-2-1.6c-.7-.3-1.5-.5-2.4-.5h-8.4v19.8zm3.2-9.7v-7.5h5l1.2.3 1 .8.7 1.1.3 1.5c0 .6-.1 1-.3 1.5-.1.5-.3.9-.6 1.2l-1 .8c-.3.2-.7.3-1.1.3h-5.2zm14.3 9.6h3.1v-6.9h5.4c.9 0 1.7-.1 2.4-.5a6.1 6.1 0 003.1-3.5 6.4 6.4 0 000-4.8 7 7 0 00-1.2-2 7 7 0 00-2-1.6c-.8-.3-1.6-.5-2.5-.5H776v19.8zm3.1-9.6v-7.5h5l1.2.3 1 .8.8 1.1.2 1.5c0 .6 0 1-.2 1.5l-.6 1.2-1 .8c-.4.2-.7.3-1.2.3h-5.2zm26.1-5.5l1.4-2.6c-.8-.6-1.9-1.2-3-1.6a10.7 10.7 0 00-6.6-.3c-.8.3-1.6.7-2.2 1.2-.7.5-1.2 1.1-1.6 2-.4.7-.5 1.5-.5 2.5 0 .8 0 1.4.3 2 .3.6.7 1 1.2 1.4.4.5 1 .8 1.8 1a112 112 0 016.6 2.2c.4.3.8.6 1 1 .3.3.4.7.4 1.2 0 .8-.3 1.5-1 1.9-.6.4-1.6.6-2.8.6-.8 0-1.5 0-2.2-.2a13.2 13.2 0 01-3.6-1.5l-1-.8-1.5 2.7c1.1.9 2.4 1.5 3.8 2a14.4 14.4 0 007.3.3c.8-.2 1.6-.5 2.3-1a5.4 5.4 0 002.2-4.4 4.7 4.7 0 00-1.8-3.9l-2.1-1a31.5 31.5 0 00-4.9-1.4l-1.5-.6c-.5-.2-.8-.5-1-.8-.2-.3-.2-.7-.2-1.2 0-.9.3-1.5.9-2 .6-.5 1.6-.8 3-.8a9 9 0 014.5 1.4l.8.7z"/>
    <g filter="url(#filter0_ii)">
      <path fill="url(#paint2_radial)" d="M279.4 691.8L258.3 591l-32 34.6.4 57.3 46.4 70.3-105.9-122-11.1 41.2 14.3 40.3 98.1 64.3-135.8-71.5 5.8 44 21 25 93.5 20L127.8 776l18.5 41.4 28.2 19.4-22.3 5.3 20 28.2L199 882l-16.4 8.6 16.6 19.2 26.3.5 12.4-5.5-28 22.6 24.7 10.3L259 932l8.7-6.8-18.8 25.5 16.4 7.6 22.7-5.4 22.2-22-26.3 33.3 28.4-4.7 33.6-24.6-9.2 33.4-105 77 3.2 13.3 20.7-5 49-45.6-40.3 53.4 13.6 10 17.2-10 15.1 5.7 11.4-15.1 13.5 2.7 20.3-20.7 2-4.7 16.7.3 7.8-17.4-18.4-43 71.2-102.4 7.5-43 8.1-19.9 15.4-32.4 9.8-25-20 27.5 27.1-48 3.2-23.6 5.6-13.3 10.2-37.6-55.8 133.8-43.2 102L317 792l-37.7-100.2z"/>
    </g>
    <path fill="#E7EAED" d="M344.8 935.7l-30.7-146 88.1 97.6 38.6-91-5.9 63 13.4 4 30-20 29.5 14.4a949 949 0 0117.8 34.8c1.6 4-4.4 6.6-7.7 7.4l10.8 30.8L502 917l-5.6 21.5-14.9 25.4-15.5 14-33 12.2-107.6 21.4 19.5-75.8z"/>
    <path fill="#E7EAED" d="M342.1 963.8l-110.3 81.3 3 12.6 97.6-80.8-28.7 32.1-39.3 52.7 13.4 9.2 60-98.3 6-1.5-48.7 89.7 15 5.8 39.9-97-28.1 81.3 12.6 2.6 18.3-84.5 4.1 60.3 17.2.1-19.4-66.9-12.6 1.3z"/>
    <path fill="none" d="M363 991.8L349.7 974l-2-8.1-15.9 15.8-22.9 38.5 11.7-5 7.6 8.5 5.1-7.2 7.9 4.1 14.3-11.6 11-2.6-3.5-14.6z"/>
    <path fill="url(#paint3_linear)" d="M381.9 902.5l-68-114 89.6 98.9-21.6 15z"/>
    <path stroke="#D2D7DC" d="M325.3 1011.5l63-37.7 43.3 16.6-5.7 1.3-100.6 19.8z"/>
    <path stroke="#D2D7DC" d="M507.8 861.2l16.8 32.8 1-1.5-17.8-34.8-29.6-14.3-4 1 26.8 15.4c.4-.7 1.5-2 2.6-2 1.3.2 3.4 1.8 4.2 3.4z"/>
    <path fill="url(#paint4_linear)" stroke="#E7EAED" d="M345.7 936l36-34 6.6 73.9-63.1 35.2 20.5-75.1z"/>
    <g filter="url(#filter1_i)">
      <path fill="url(#paint5_linear)" d="M435.6 991.1L388.3 976 325 1012l110.6-20.9z"/>
    </g>
    <g filter="url(#filter2_di)">
      <path fill="url(#paint6_linear)" d="M388.3 975.9l48-17.5 30.2 20.2-32.5 12.9s-16-.9-24.4-3.6c-8.4-2.7-21.3-12-21.3-12z"/>
    </g>
    <g filter="url(#filter3_di)">
      <path fill="url(#paint7_linear)" d="M466.7 979.4l17.4-16.6s-9-5.6-15.5-8.1c-6.5-2.6-15.6-8.2-15.6-8.2l-26.6 11.3s10 13 19 16.4c8.9 3.5 21.3 5.2 21.3 5.2z"/>
    </g>
    <g filter="url(#filter4_di)">
      <path fill="url(#paint8_linear)" d="M493.9 945l-18.9-9.6-23 11.1s10.8 10.5 20 13.6a87.4 87.4 0 0012.8 3.8l9-19z"/>
    </g>
    <g filter="url(#filter5_di)">
      <path fill="url(#paint9_linear)" d="M476.3 924.8l26-8s-.3 9.6-1.5 13.7c-1.1 4.1-6 15.6-6 15.6s-3-1.4-9.8-2.8c-6.7-1.4-10.5-8.2-10.5-8.2l1.8-10.3z"/>
    </g>
    <g filter="url(#filter6_di)">
      <path fill="url(#paint10_linear)" d="M422.6 882.8l13.3-3.2 31.3 1.6 7.4 31.2 1.6 24.4c-6.1 6.7-15.5 11.5-27 18-18 10.4-55.5 20.2-55.5 20.2l-5.3 1.3s-8.5-25.8-9.2-38.5c-.7-12.7 2-36 2-36l35-11.8 6.4-7.2z"/>
      <path fill="url(#paint11_diamond)" d="M422.6 882.8l13.3-3.2 31.3 1.6 7.4 31.2 1.6 24.4c-6.1 6.7-15.5 11.5-27 18-18 10.4-55.5 20.2-55.5 20.2l-5.3 1.3s-8.5-25.8-9.2-38.5c-.7-12.7 2-36 2-36l35-11.8 6.4-7.2z"/>
    </g>
    <path fill="url(#paint12_linear)" d="M402.7 887.6l38.4-91.9-4.3 62.3-9 23.6-25 6z"/>
    <g opacity=".5">
      <path fill="url(#paint13_linear)" d="M474.8 922.2c-.3-1.6.3-5 .2-6.5l2.8 2.8s3.6 2 4.3 2c-.5.5-3.2 1.8-4 3-.7 1.2-1.3 3.8-1.4 6.4l-1.9-7.7z"/>
      <path fill="url(#paint14_radial)" d="M474.8 922.2c-.3-1.6.3-5 .2-6.5l2.8 2.8s3.6 2 4.3 2c-.5.5-3.2 1.8-4 3-.7 1.2-1.3 3.8-1.4 6.4l-1.9-7.7z"/>
    </g>
    <path fill="url(#paint15_linear)" d="M381.9 902L314 789.2l31.4 147.2 36.5-34.6z"/>
    <path fill="url(#paint16_linear)" d="M381.9 902L314 789.2l31.4 147.2 36.5-34.6z"/>
    <path fill="url(#paint17_linear)" d="M345.2 935.6s9.3 6.4 18 14.2c8.7 7.7 25.1 26 25.1 26l-63.1 35.3 20-75.5z"/>
    <path fill="url(#paint18_radial)" d="M345.2 935.6s9.3 6.4 18 14.2c8.7 7.7 25.1 26 25.1 26l-63.1 35.3 20-75.5z"/>
    <path fill="#fff" d="M415.6 891.4l6.5-10.6 6.6.6 10.9-2.6 20 5-22.7 5-21.3 2.6z"/>
    <path fill="url(#paint19_linear)" d="M415.6 891.4l6.5-10.6 6.6.6 10.9-2.6 20 5-22.7 5-21.3 2.6z"/>
    <path fill="url(#paint20_radial)" d="M242.5 610.6l11.7 73.9 63.4 128.4-45-60.4-45.4-70-.6-56 16-15.9z"/>
    <path fill="url(#paint21_linear)" d="M242.5 610.6l11.7 73.9 63.4 128.4-45-60.4-45.4-70-.6-56 16-15.9z"/>
    <path fill="url(#paint22_radial)" d="M157.4 663.1l155 142.9 6.7 7.8 25.7 122-32.5 23.2 6-134.3-30 127.2-21.9 5.2 50.5-138-49.7 105.7-8.2 6.7-24.3 5.8L311.2 822 237.6 905l-12.5 5-26.1-1.8 113.2-92.7-111.9 66.3-27.2-12 134-56-132 23-28.4-19.8 159.4-7.3-58-17-87.8-17.5-21-26.7 161.4 54.8L170 712.4l-15-39.7 2.3-9.6z"/>
    <path fill="url(#paint23_linear)" d="M157.4 663.1l155 142.9 6.7 7.8 25.7 122-32.5 23.2 6-134.3-30 127.2-21.9 5.2 50.5-138-49.7 105.7-8.2 6.7-24.3 5.8L311.2 822 237.6 905l-12.5 5-26.1-1.8 113.2-92.7-111.9 66.3-27.2-12 134-56-132 23-28.4-19.8 159.4-7.3-58-17-87.8-17.5-21-26.7 161.4 54.8L170 712.4l-15-39.7 2.3-9.6z"/>
    <path fill="url(#paint24_linear)" d="M381.9 902.5l20.8-14.9 9.1-3 10.3-3.8-6.2 10-13.5 6.3-20.5 5.4z"/>
    <g filter="url(#filter7_i)">
      <path fill="url(#paint25_diamond)" d="M528.5 928c0 1 0 3.2-1 3.7-3.2-2-12.4-6.7-12.4-6.7s-15-8.2-21-11.9l22.8-13.2 2.1 4.8 9.5 23.3z"/>
    </g>
    <g filter="url(#filter8_i)">
      <path fill="url(#paint26_linear)" d="M529.3 930.7s-22.7-27.2-23-27.8l9.9-4.2c10 16.1 16.2 29.4 13 32z"/>
    </g>
    <g filter="url(#filter9_dii)">
      <path fill="url(#paint27_linear)" d="M500.6 915.1c1.5-1.6 14.7-10 15.5-10.8l-2.2-17-27.2-27.5-15.3 3.7-41.2 17.1s16.4 2.5 21.4 3.4c3.7 1.3 16.4 24.4 16.3 24.8-.1.5 13.3 11.8 17.8 14.1 4.4 2.4 13.4-6.2 15-7.8z"/>
      <path fill="url(#paint28_diamond)" d="M500.6 915.1c1.5-1.6 14.7-10 15.5-10.8l-2.2-17-27.2-27.5-15.3 3.7-41.2 17.1s16.4 2.5 21.4 3.4c3.7 1.3 16.4 24.4 16.3 24.8-.1.5 13.3 11.8 17.8 14.1 4.4 2.4 13.4-6.2 15-7.8z"/>
    </g>
    <g filter="url(#filter10_di)">
      <path fill="url(#paint29_linear)" d="M478 887.4l-23-6.8 8-16.5 40.5 3.2c6.7 8.3 18.2 39.4 18.2 39.4s-1.6-1.4-3.2-1c-1.7.4-4.4 3.2-4.4 3.2l-8.5-14.3c-.1-2.3-1-7.2-2.6-8.5-2-1.6-7.1 5-8.7 5.1-1.2 0-11.3-2.5-16.2-3.8z"/>
      <path fill="url(#paint30_diamond)" d="M478 887.4l-23-6.8 8-16.5 40.5 3.2c6.7 8.3 18.2 39.4 18.2 39.4s-1.6-1.4-3.2-1c-1.7.4-4.4 3.2-4.4 3.2l-8.5-14.3c-.1-2.3-1-7.2-2.6-8.5-2-1.6-7.1 5-8.7 5.1-1.2 0-11.3-2.5-16.2-3.8z"/>
    </g>
    <g filter="url(#filter11_d)">
      <path fill="url(#paint31_radial)" d="M503.4 885.8c-2-1.3-3.6.8-4.8 1.5l-5.9-5c3.3-1.2 11.6-4.7 15.1-3.2 3.5 1.6 4.1 8.3 4 11.5l-6.2.6c-.4-.7-.7-4.5-2.2-5.4z"/>
    </g>
    <g filter="url(#filter12_di)">
      <path fill="url(#paint32_linear)" d="M485 885.9l-24.5-14.7 9.5-4.9c6 4.2 18.9 12.5 22.3 12.7 3.5.2 10.1 1.4 13 2a846 846 0 01-14 4.6c-.6.2-4.4.3-6.3.3z"/>
    </g>
    <g filter="url(#filter13_di)">
      <path fill="url(#paint33_radial)" d="M505.5 881.8c-1.4-2.4-12 2.5-14.3 1.3 0 0-19.2-13.8-22.9-15-6.9-2.4-12.6 13.1-15.1 17.3l-15.8 3.8-8.7-7.4s6.3-29.4 20.8-34.7c14.5-5.3 18.5-5 26.7-4.5a69 69 0 0129 9.4c7.9 4.6 16.8 18.7 18.7 22.6 2 3.9 3.6 11.2 4 15.8-.2 4.2-5.5 8.5-5.7 9.3l-.8 5.7c-3.6-2.5-5.4-.7-6.8.4-2.1-3.7-5-9.7-6-10.8-1.1-1.4-1.8-10.7-3.1-13.2z"/>
      <path fill="url(#paint34_angular)" d="M505.5 881.8c-1.4-2.4-12 2.5-14.3 1.3 0 0-19.2-13.8-22.9-15-6.9-2.4-12.6 13.1-15.1 17.3l-15.8 3.8-8.7-7.4s6.3-29.4 20.8-34.7c14.5-5.3 18.5-5 26.7-4.5a69 69 0 0129 9.4c7.9 4.6 16.8 18.7 18.7 22.6 2 3.9 3.6 11.2 4 15.8-.2 4.2-5.5 8.5-5.7 9.3l-.8 5.7c-3.6-2.5-5.4-.7-6.8.4-2.1-3.7-5-9.7-6-10.8-1.1-1.4-1.8-10.7-3.1-13.2z"/>
    </g>
    <g style="mix-blend-mode:color-burn">
      <mask id="mask0" width="552" height="567" x="48" y="560" mask-type="alpha" maskUnits="userSpaceOnUse">
        <path fill="url(#pattern0)" fill-rule="evenodd" d="M279.3 691.8L258 591l-32 34.6.5 57.4 46.4 70.3-106-122-8.8 32.7-1-.9-2.3 9.6 15 39.7.3.2v.1l2.4 1.5 73.2 51-113.2-59.7 5.8 44 21 25h.2l.5.6 36.4 7.3 56.4 12-125.3-18.3 18.5 41.4 28.2 19.4-22.3 5.3 20 28.2 26.8 11.6-16.3 8.6 16.6 19.2 26.2.5 12.4-5.5-28 22.6 24.8 10.3 24.3-5.8 8.6-6.8-18.7 25.5 16.4 7.6 22.7-5.4 22.1-22-26.3 33.3 28.5-4.7 22.4-16.4 10.2-7.2v-.2l1-.8-9.2 33.4-105 77 3.2 13.3 20.6-5 49.1-45.5-40.3 53.3 13.5 10 17.3-10 15 5.7 11.5-15.1 13.5 2.8 20.3-20.8 1.9-4.7 16.7.3 7.9-17.3-4.3-10 56.2-10.7h.2l.5-.1 1.2-.3h-.4l29.8-12 1.6.3 16.7-15.8 1.5.3 8.7-18.3 1.2.5s5-11.4 6-15.6c1-3.3 1.4-10 1.5-12.6a1340.6 1340.6 0 0025.2 13.8c.5-.3.8-1.1 1-2l.8 1c2.7-2.2-1.4-12-8.7-24.7.7.3 1.1.7 1.1.7l-.5-1.5.3.2.7-5.7c0-.2.5-.6 1-1.3 1.7-1.7 4.6-4.9 4.7-8-.3-4.5-2-11.9-4-15.8-1.8-3.9-10.8-18-18.7-22.6a69 69 0 00-29-9.4h-.2c-8-.5-12.1-.7-26.4 4.5-6.3 2.3-11 9-14.4 16l7-39.3 8-20 15.4-32.4 9.9-25-20 27.5 27-48 3.2-23.5 5.6-13.4 10.3-37.6-55.8 133.8-43.3 102L317 792l-37.7-100.2zm152.9 178.1l-8.9 12.7 5.4-1.2c.3-1.5 1.5-6 3.5-11.5z" clip-rule="evenodd"/>
      </mask>
      <g mask="url(#mask0)">
        <rect width="984.2" height="655.9" x="-62.9" y="396" fill="url(#pattern1)" transform="rotate(15.5 -62.9 396)"/>
      </g>
    </g>
    <g class="expire expire-01-22">
    <circle cx="161" cy="144" r="67" fill="#41B783" transform="rotate(-12.6 161 144)"/>
    <path fill="#fff" d="M113.8 121l-2-9 4-1h1.1c.4.2.7.3 1 .6a3.1 3.1 0 011.3 3c0 .4-.2.7-.4 1-.2.4-.4.6-.8.8l3 3-1.7.3-2.6-2.7-2.1.5.7 3.1-1.5.4zm.5-4.7l2.5-.6c.2 0 .4-.2.6-.4l.4-.7a2 2 0 00-.4-1.7l-.7-.5c-.3 0-.5-.1-.8 0l-2.4.5.8 3.4z"/>
    <path fill="#fff" d="M128.1 116.5l.3 1.2-6.2 1.4-2-9 6-1.4.4 1.3-4.7 1 .6 2.6 4-1 .3 1.3-4 .9.6 2.7 4.7-1z"/>
    <path fill="#fff" d="M128.4 108.3l4.4 6.6 1-7.9 1.6-.3-1.6 9.8-1.3.3-5.6-8.2 1.5-.3z"/>
    <path fill="#fff" d="M138.5 115.5l-2-9 1.4-.4 2 9-1.4.4z"/>
    <path fill="#fff" d="M145.7 106.6a4.2 4.2 0 00-2.6-.4c-.6.2-1 .4-1.3.7-.2.3-.3.6-.2 1 0 .3.2.5.4.6l.8.3h1.4l1.6.2c.5.1 1 .3 1.2.6.4.2.6.7.7 1.2.1.6.1 1.1-.1 1.6-.2.4-.6.8-1 1.1a6.5 6.5 0 01-5.6.2l.4-1.3.8.3 1.2.2h1.3c.6-.2 1-.4 1.3-.7.2-.2.3-.5.2-1a1 1 0 00-.5-.6l-.9-.2-1.4-.1a8 8 0 01-1.6-.2c-.5-.1-.8-.3-1-.6-.3-.2-.5-.6-.6-1a2.6 2.6 0 011-2.8c.5-.4 1-.6 1.6-.7.6-.2 1.2-.2 1.8-.1.6 0 1 .2 1.5.4l-.4 1.3z"/>
    <path fill="#fff" d="M155.6 110.3l.3 1.3-6.2 1.4-2-9 6-1.4.3 1.3-4.6 1 .5 2.6 4-1 .3 1.3-4 .9.6 2.7 4.8-1z"/>
    <path fill="#fff" d="M157.3 111.3l-2-9 3.2-.7c1-.3 1.8-.2 2.6 0 .7.3 1.3.7 1.8 1.3.5.6.8 1.3 1 2.2a5 5 0 010 2.5 4 4 0 01-1.2 1.9c-.6.5-1.3.9-2.2 1l-3.2.8zm5.2-6c-.2-.5-.4-1-.8-1.5a2.8 2.8 0 00-2.9-1l-1.8.4 1.5 6.5 1.7-.4c.7-.1 1.2-.4 1.6-.8.3-.4.6-.8.7-1.4a4 4 0 000-1.7z"/>
    <path fill="#fff" d="M169.5 108.5l-2-9 6-1.3.3 1.3-4.6 1 .6 2.7 3.9-.9.2 1.2-3.8.8.9 4-1.5.3z"/>
    <path fill="#fff" d="M180.5 106.2a4.2 4.2 0 01-3.4-.7c-.5-.4-1-.8-1.2-1.3a5 5 0 01-.8-3.4 4.9 4.9 0 011.8-3 4 4 0 011.6-.8 4 4 0 011.8 0c.6.2 1.2.4 1.6.8a5 5 0 011.4 6.3 4.4 4.4 0 01-2.8 2zm-3.9-4c.1.6.4 1.1.7 1.6.4.4.8.8 1.3 1 .5.2 1 .2 1.6 0a2.6 2.6 0 002-1.4l.2-1.2a4 4 0 00-.8-2.8 3 3 0 00-1.2-1c-.5-.2-1-.2-1.6 0a2.6 2.6 0 00-2 1.4 3.7 3.7 0 00-.2 2.4z"/>
    <path fill="#fff" d="M186.3 104.8l-2-9 3.9-.9h1.2l1 .5a3 3 0 011.3 3c0 .4-.2.8-.4 1.1l-.8.8 2.9 3-1.6.3-2.7-2.7-2 .5.6 3.1-1.4.3zm.4-4.7l2.5-.5.7-.4.3-.8a2 2 0 00-.4-1.6l-.7-.5h-.7l-2.4.4.7 3.4z"/>
    <path fill="#3A926B" d="M119.1 127.7l16 24.6 4-29 5.6-1.3-5.6 36.2-5 1-20.5-30.3 5.5-1.2z"/>
    <path fill="#3A926B" d="M150.2 145.7l-3.3-15 5.2-1.2 3 14c1 4.4 3.1 6.3 6.2 5.6 1.5-.4 2.8-1.1 3.9-2.3a9.3 9.3 0 002.2-4.6l-3.4-15.3 5.1-1.2 4.2 18.7c.1.6.3 1 .6 1.2.3.2.6.3 1.2.2l.9 4.1a16.8 16.8 0 01-2.3.8c-1 .2-1.7.1-2.5-.3a3 3 0 01-1.5-1.7l-.6-2.4c-1.4 4-4.8 6.7-8.9 7.6-2.5.6-4.6.2-6.3-1.2a12.3 12.3 0 01-3.7-7z"/>
    <path fill="#3A926B" d="M191.4 147a13 13 0 01-15.5-9.8 13 13 0 019.9-15.6 12.8 12.8 0 0115.5 11.6l-19.6 4.4c1.1 3.8 5 6.5 9 5.6 2.6-.6 5.1-2.5 5.6-5.2l4.7.3c-1 4.6-5.2 7.7-9.6 8.7zm-10.6-12.8l14.8-3.3a7.9 7.9 0 00-9-5.5c-4 .9-6.4 4.8-5.8 8.8z"/>
    <path fill="#3A926B" d="M154 179c2 0 3.8.6 5.4 1.8 1.5 1.3 2.5 3 3 5.2 1.4 6.4-3.9 10.9-9.6 12.2-4 .9-8.5.4-11.7-2.5l2.4-4.2a8.6 8.6 0 008.2 2c3.4-.7 6-3 5.3-6.7-.5-1.8-1.4-3-2.9-3.8-1.5-.8-3.4-.9-5.8-.3l-1.3.3-1-4 1.5-.4c3.2-.7 6.2-3 5.4-6.6-.7-3-3.7-3.8-6.4-3.2-3 .7-5.4 2.6-6.2 5.6l-4-2.8c1.3-4 5.7-6.6 9.7-7.5 5-1 11 .5 12.2 6 .8 3.7-.7 7.5-4.2 9z"/>
    <path fill="#3A926B" d="M167.7 187.6l-1.3-6 4.3-1 1.3 6-4.3 1z"/>
    <path fill="#3A926B" d="M198.4 167.4c1.5 7-1.2 15.2-8.8 16.9-7.6 1.7-13.6-4.5-15.2-11.5-1.5-7 1.3-15.3 8.8-17 7.6-1.7 13.7 4.7 15.2 11.6zm-5.3 1.2c-.8-4-4-9-8.8-8-4.9 1.1-5.7 6.9-4.7 11 .9 4.2 4 9 8.9 7.9 4.8-1 5.6-6.8 4.6-11z"/>
    <path fill="#fff" d="M117.7 126l16 24.6 4-29.1 5.6-1.3-5.7 36.2-5 1.1-20.4-30.3 5.5-1.3z"/>
    <path fill="#fff" d="M148.8 144l-3.3-15 5.1-1.2 3.2 14c1 4.4 3 6.2 6.1 5.5 3.3-.7 5.4-3.7 6-6.9l-3.4-15.2 5.2-1.2 4.2 18.7c.2 1 .7 1.5 1.7 1.4l1 4a16.5 16.5 0 01-2.3.8c-1.7.4-3.4-.2-4-2l-.7-2.4c-1.3 4-4.7 6.8-8.8 7.7-5.7 1.3-8.8-3.2-10-8.3z"/>
    <path fill="#fff" d="M190 145.3a13 13 0 01-15.6-9.9 13 13 0 1125.5-4l-19.6 4.5c1.1 3.8 5 6.4 9 5.5 2.5-.6 5.1-2.5 5.6-5.2l4.7.3c-1 4.7-5.2 7.8-9.6 8.8zm-10.6-12.8l14.8-3.3a7.9 7.9 0 00-9-5.5c-4 .8-6.4 4.8-5.8 8.8z"/>
    <path fill="#fff" d="M152.6 177.3c4.2-.2 7.5 3 8.4 7 1.4 6.4-3.9 10.9-9.6 12.1-4 1-8.5.5-11.7-2.4l2.4-4.3a8.6 8.6 0 008.2 2c3.4-.7 6-2.9 5.2-6.6-.9-4.2-5-5-8.7-4.2l-1.2.3-1-4 1.5-.3c3.2-.7 6.1-3 5.3-6.7-.6-3-3.6-3.7-6.3-3.1-3 .6-5.4 2.6-6.3 5.5l-4-2.8c1.4-4 5.8-6.5 9.8-7.4 5-1.1 11 .5 12.2 6 .8 3.6-.7 7.5-4.2 9z"/>
    <path fill="#fff" d="M166.3 185.9l-1.3-6 4.3-1 1.3 6-4.3 1z"/>
    <path fill="#fff" d="M197 165.7c1.5 6.9-1.2 15.1-8.8 16.8-7.6 1.7-13.6-4.5-15.2-11.5-1.5-6.9 1.2-15.2 8.8-16.9 7.6-1.7 13.7 4.7 15.2 11.6zm-5.3 1.1c-.9-4-4-9-8.8-8-5 1.2-5.7 7-4.8 11 1 4.3 4 9 9 8 4.8-1.1 5.5-6.9 4.6-11z"/>
  </g>
  <defs>
    <linearGradient id="paint3_linear" x1="302.1" x2="377.7" y1="875.3" y2="842.2" gradientUnits="userSpaceOnUse">
      <stop stop-color="#D8DCE1"/>
      <stop offset="1" stop-color="#fff"/>
    </linearGradient>
    <linearGradient id="paint4_linear" x1="324.8" x2="472.6" y1="900" y2="964.8" gradientUnits="userSpaceOnUse">
      <stop offset="0" stop-color="#BEC5CD"/>
      <stop offset=".4" stop-color="#ECEEF1"/>
      <stop offset=".6" stop-color="#fff"/>
    </linearGradient>
    <linearGradient id="paint5_linear" x1="410.2" x2="389.9" y1="1007.7" y2="941.6" gradientUnits="userSpaceOnUse">
      <stop stop-color="#BEC5CD"/>
      <stop offset=".8" stop-color="#ECEEF1"/>
      <stop offset="1" stop-color="#fff"/>
    </linearGradient>
    <linearGradient id="paint6_linear" x1="453.5" x2="421" y1="1004" y2="917.6" gradientUnits="userSpaceOnUse">
      <stop stop-color="#BEC5CD"/>
      <stop offset=".8" stop-color="#ECEEF1"/>
      <stop offset="1" stop-color="#fff"/>
    </linearGradient>
    <linearGradient id="paint7_linear" x1="473.6" x2="446.2" y1="996.8" y2="902.1" gradientUnits="userSpaceOnUse">
      <stop stop-color="#BEC5CD"/>
      <stop offset=".8" stop-color="#ECEEF1"/>
      <stop offset="1" stop-color="#fff"/>
    </linearGradient>
    <linearGradient id="paint8_linear" x1="486.1" x2="461.6" y1="979.4" y2="898.2" gradientUnits="userSpaceOnUse">
      <stop stop-color="#BEC5CD"/>
      <stop offset=".6" stop-color="#ECEEF1"/>
      <stop offset="1" stop-color="#fff"/>
    </linearGradient>
    <linearGradient id="paint9_linear" x1="503.4" x2="470.1" y1="957.9" y2="890.5" gradientUnits="userSpaceOnUse">
      <stop stop-color="#BEC5CD"/>
      <stop offset=".5" stop-color="#ECEEF1"/>
      <stop offset="1" stop-color="#fff"/>
    </linearGradient>
    <linearGradient id="paint10_linear" x1="461" x2="372.9" y1="1007.3" y2="850.6" gradientUnits="userSpaceOnUse">
      <stop stop-color="#BEC5CD"/>
      <stop offset=".5" stop-color="#ECEEF1"/>
      <stop offset=".8" stop-color="#F3F4F6"/>
      <stop offset="1" stop-color="#fff"/>
    </linearGradient>
    <linearGradient id="paint12_linear" x1="452.1" x2="407.3" y1="890" y2="850" gradientUnits="userSpaceOnUse">
      <stop stop-color="#fff"/>
      <stop offset="1" stop-color="#fff"/>
    </linearGradient>
    <linearGradient id="paint13_linear" x1="476.8" x2="480.3" y1="920.9" y2="929.7" gradientUnits="userSpaceOnUse">
      <stop stop-color="#BEC5CD"/>
      <stop offset=".3" stop-color="#ECEEF1"/>
      <stop offset="1" stop-color="#fff"/>
    </linearGradient>
    <linearGradient id="paint15_linear" x1="279.3" x2="369.3" y1="866.3" y2="830.1" gradientUnits="userSpaceOnUse">
      <stop stop-color="#BEC5CD"/>
      <stop offset=".4" stop-color="#ECEEF1"/>
      <stop offset=".7" stop-color="#fff"/>
    </linearGradient>
    <linearGradient id="paint16_linear" x1="367.9" x2="303.6" y1="950.4" y2="823.3" gradientUnits="userSpaceOnUse">
      <stop stop-color="#BEC5CD"/>
      <stop offset=".4" stop-color="#ECEEF1" stop-opacity=".5"/>
      <stop offset=".8" stop-color="#fff" stop-opacity="0"/>
    </linearGradient>
    <linearGradient id="paint17_linear" x1="318.9" x2="452.7" y1="918.8" y2="1006.3" gradientUnits="userSpaceOnUse">
      <stop stop-color="#BEC5CD"/>
      <stop offset=".4" stop-color="#ECEEF1"/>
      <stop offset="1" stop-color="#fff"/>
    </linearGradient>
    <linearGradient id="paint19_linear" x1="437.7" x2="398.9" y1="877.9" y2="914.6" gradientUnits="userSpaceOnUse">
      <stop stop-color="#BEC5CD"/>
      <stop offset=".3" stop-color="#E1E4E8" stop-opacity=".5"/>
      <stop offset=".8" stop-color="#fff" stop-opacity="0"/>
    </linearGradient>
    <linearGradient id="paint21_linear" x1="384.2" x2="119.1" y1="830.4" y2="874.3" gradientUnits="userSpaceOnUse">
      <stop stop-color="#BEC5CD"/>
      <stop offset=".4" stop-color="#ECEEF1" stop-opacity=".5"/>
      <stop offset=".7" stop-color="#fff" stop-opacity="0"/>
    </linearGradient>
    <linearGradient id="paint23_linear" x1="384.2" x2="119.1" y1="830.4" y2="874.3" gradientUnits="userSpaceOnUse">
      <stop stop-color="#BEC5CD"/>
      <stop offset=".4" stop-color="#ECEEF1" stop-opacity=".5"/>
      <stop offset=".7" stop-color="#fff" stop-opacity="0"/>
    </linearGradient>
    <linearGradient id="paint24_linear" x1="406.5" x2="439.8" y1="837.5" y2="856.1" gradientUnits="userSpaceOnUse">
      <stop stop-color="#D8DCE1"/>
      <stop offset=".2" stop-color="#E2E5E9"/>
      <stop offset=".6" stop-color="#F8F9FA"/>
      <stop offset="1" stop-color="#fff"/>
    </linearGradient>
    <linearGradient id="paint26_linear" x1="509.9" x2="524.1" y1="927.1" y2="911.2" gradientUnits="userSpaceOnUse">
      <stop offset=".1" stop-color="#B7BFC8"/>
      <stop offset=".2" stop-color="#DADEE2"/>
      <stop offset=".6" stop-color="#EDEFF1"/>
      <stop offset="1" stop-color="#fff"/>
    </linearGradient>
    <linearGradient id="paint27_linear" x1="479.5" x2="470.7" y1="880.8" y2="918.6" gradientUnits="userSpaceOnUse">
      <stop stop-color="#BEC5CD"/>
      <stop offset=".3" stop-color="#ECEEF1"/>
      <stop offset="1" stop-color="#fff"/>
    </linearGradient>
    <linearGradient id="paint29_linear" x1="520.3" x2="482.1" y1="879.6" y2="916.6" gradientUnits="userSpaceOnUse">
      <stop stop-color="#BEC5CD"/>
      <stop offset=".5" stop-color="#E4E7EA"/>
      <stop offset="1" stop-color="#fff"/>
    </linearGradient>
    <linearGradient id="paint32_linear" x1="491.4" x2="474.4" y1="851.8" y2="884.6" gradientUnits="userSpaceOnUse">
      <stop stop-color="#B7BFC8"/>
      <stop offset="1" stop-color="#fff"/>
    </linearGradient>
    <radialGradient id="paint0_radial" cx="0" cy="0" r="1" gradientTransform="matrix(-474.5003 -40.99606 39.32107 -455.11352 369.5 847)" gradientUnits="userSpaceOnUse">
      <stop stop-color="#5EB5DA"/>
      <stop offset=".8" stop-color="#0294D2"/>
    </radialGradient>
    <radialGradient id="paint1_radial" cx="0" cy="0" r="1" gradientTransform="matrix(370.4999 128.4999 -80.65114 232.539 317.5 890.5)" gradientUnits="userSpaceOnUse">
      <stop offset=".2" stop-color="#6F8091"/>
      <stop offset=".8" stop-color="#34495E"/>
    </radialGradient>
    <radialGradient id="paint2_radial" cx="0" cy="0" r="1" gradientTransform="rotate(91.3 -248 638.1) scale(204.264 200.515)" gradientUnits="userSpaceOnUse">
      <stop stop-color="#E7EAED"/>
      <stop offset=".1" stop-color="#EDEFF1"/>
      <stop offset="1" stop-color="#FBFBFB"/>
    </radialGradient>
    <radialGradient id="paint11_diamond" cx="0" cy="0" r="1" gradientTransform="matrix(25.08943 99.39535 -154.70645 39.0511 440.7 905)" gradientUnits="userSpaceOnUse">
      <stop offset="0" stop-color="#fff"/>
      <stop offset=".3" stop-color="#fff" stop-opacity="0"/>
    </radialGradient>
    <radialGradient id="paint14_radial" cx="0" cy="0" r="1" gradientTransform="matrix(13.80166 14.69064 -14.10548 13.2519 477 920.4)" gradientUnits="userSpaceOnUse">
      <stop offset="0" stop-color="#B7BFC8"/>
      <stop offset=".3" stop-color="#fff" stop-opacity="0"/>
    </radialGradient>
    <radialGradient id="paint18_radial" cx="0" cy="0" r="1" gradientTransform="matrix(20.59554 25.58165 -51.45338 41.4246 344.8 948)" gradientUnits="userSpaceOnUse">
      <stop offset="0" stop-color="#fff" stop-opacity=".7"/>
      <stop offset=".7" stop-color="#fff" stop-opacity="0"/>
    </radialGradient>
    <radialGradient id="paint20_radial" cx="0" cy="0" r="1" gradientTransform="matrix(-74.40388 93.65923 -114.02268 -90.58082 323.7 876.1)" gradientUnits="userSpaceOnUse">
      <stop stop-color="#E4EAF0"/>
      <stop offset="1" stop-color="#EFF1F3"/>
    </radialGradient>
    <radialGradient id="paint22_radial" cx="0" cy="0" r="1" gradientTransform="matrix(-74.40388 93.65923 -114.02268 -90.58082 323.7 876.1)" gradientUnits="userSpaceOnUse">
      <stop stop-color="#E4EAF0"/>
      <stop offset="1" stop-color="#EFF1F3"/>
    </radialGradient>
    <radialGradient id="paint25_diamond" cx="0" cy="0" r="1" gradientTransform="rotate(142 100 541.6) scale(58.1772 195.386)" gradientUnits="userSpaceOnUse">
      <stop offset="0" stop-color="#B7BFC8"/>
      <stop offset=".2" stop-color="#F7F8F9"/>
    </radialGradient>
    <radialGradient id="paint28_diamond" cx="0" cy="0" r="1" gradientTransform="matrix(-26.52571 55.6273 -123.18467 -58.74024 501.3 889.7)" gradientUnits="userSpaceOnUse">
      <stop offset="0" stop-color="#B7BFC8"/>
      <stop offset=".3" stop-color="#fff" stop-opacity="0"/>
    </radialGradient>
    <radialGradient id="paint30_diamond" cx="0" cy="0" r="1" gradientTransform="rotate(118.7 -6 593) scale(39.6694 127.906)" gradientUnits="userSpaceOnUse">
      <stop offset="0" stop-color="#B7BFC8"/>
      <stop offset=".3" stop-color="#fff" stop-opacity="0"/>
    </radialGradient>
    <radialGradient id="paint31_radial" cx="0" cy="0" r="1" gradientTransform="rotate(-46 1292.6 -147.6) scale(17.801 7.50425)" gradientUnits="userSpaceOnUse">
      <stop stop-color="#fff"/>
      <stop offset=".3" stop-color="#fff" stop-opacity="0"/>
    </radialGradient>
    <radialGradient id="paint33_radial" cx="0" cy="0" r="1" gradientTransform="rotate(74.7 -319.6 728.7) scale(66.2866 110.053)" gradientUnits="userSpaceOnUse">
      <stop stop-color="#fff"/>
      <stop offset=".5" stop-color="#FDFDFD"/>
      <stop offset="1" stop-color="#F0F1F3"/>
    </radialGradient>
    <radialGradient id="paint34_angular" cx="0" cy="0" r="1" gradientTransform="matrix(28.2981 .07854 -.07653 27.5732 500.8 887.3)" gradientUnits="userSpaceOnUse">
      <stop stop-color="#A0A6AE" stop-opacity=".4"/>
      <stop offset=".2" stop-color="#D5D7DB" stop-opacity=".2"/>
      <stop offset=".8" stop-color="#fff" stop-opacity="0"/>
    </radialGradient>
    <filter id="filter0_ii" width="373.8" height="481.4" x="127.8" y="591" color-interpolation-filters="sRGB" filterUnits="userSpaceOnUse">
      <feFlood flood-opacity="0" result="BackgroundImageFix"/>
      <feBlend in="SourceGraphic" in2="BackgroundImageFix" mode="normal" result="shape"/>
      <feColorMatrix in="SourceAlpha" result="hardAlpha" type="matrix" values="0 0 0 0 0 0 0 0 0 0 0 0 0 0 0 0 0 0 127 0"/>
      <feOffset dy="-1"/>
      <feComposite in2="hardAlpha" k2="-1" k3="1" operator="arithmetic"/>
      <feColorMatrix type="matrix" values="0 0 0 0 0.835938 0 0 0 0 0.861944 0 0 0 0 0.891667 0 0 0 1 0"/>
      <feBlend in2="shape" mode="normal" result="effect1_innerShadow"/>
      <feColorMatrix in="SourceAlpha" result="hardAlpha" type="matrix" values="0 0 0 0 0 0 0 0 0 0 0 0 0 0 0 0 0 0 127 0"/>
      <feOffset dy="1"/>
      <feGaussianBlur stdDeviation=".5"/>
      <feComposite in2="hardAlpha" k2="-1" k3="1" operator="arithmetic"/>
      <feColorMatrix type="matrix" values="0 0 0 0 1 0 0 0 0 1 0 0 0 0 1 0 0 0 1 0"/>
      <feBlend in2="effect1_innerShadow" mode="normal" result="effect2_innerShadow"/>
    </filter>
    <filter id="filter1_i" width="110.7" height="37.2" x="325" y="975.9" color-interpolation-filters="sRGB" filterUnits="userSpaceOnUse">
      <feFlood flood-opacity="0" result="BackgroundImageFix"/>
      <feBlend in="SourceGraphic" in2="BackgroundImageFix" mode="normal" result="shape"/>
      <feColorMatrix in="SourceAlpha" result="hardAlpha" type="matrix" values="0 0 0 0 0 0 0 0 0 0 0 0 0 0 0 0 0 0 127 0"/>
      <feOffset dy="1"/>
      <feGaussianBlur stdDeviation=".5"/>
      <feComposite in2="hardAlpha" k2="-1" k3="1" operator="arithmetic"/>
      <feColorMatrix type="matrix" values="0 0 0 0 1 0 0 0 0 1 0 0 0 0 1 0 0 0 1 0"/>
      <feBlend in2="shape" mode="normal" result="effect1_innerShadow"/>
    </filter>
    <filter id="filter2_di" width="84.2" height="39.1" x="383.3" y="955.4" color-interpolation-filters="sRGB" filterUnits="userSpaceOnUse">
      <feFlood flood-opacity="0" result="BackgroundImageFix"/>
      <feColorMatrix in="SourceAlpha" type="matrix" values="0 0 0 0 0 0 0 0 0 0 0 0 0 0 0 0 0 0 127 0"/>
      <feOffset dx="-2"/>
      <feGaussianBlur stdDeviation="1.5"/>
      <feColorMatrix type="matrix" values="0 0 0 0 0 0 0 0 0 0 0 0 0 0 0 0 0 0 0.15 0"/>
      <feBlend in2="BackgroundImageFix" mode="normal" result="effect1_dropShadow"/>
      <feBlend in="SourceGraphic" in2="effect1_dropShadow" mode="normal" result="shape"/>
      <feColorMatrix in="SourceAlpha" result="hardAlpha" type="matrix" values="0 0 0 0 0 0 0 0 0 0 0 0 0 0 0 0 0 0 127 0"/>
      <feOffset dx="2" dy="1"/>
      <feComposite in2="hardAlpha" k2="-1" k3="1" operator="arithmetic"/>
      <feColorMatrix type="matrix" values="0 0 0 0 0 0 0 0 0 0 0 0 0 0 0 0 0 0 0.05 0"/>
      <feBlend in2="shape" mode="normal" result="effect2_innerShadow"/>
    </filter>
    <filter id="filter3_di" width="63.8" height="38.9" x="421.4" y="943.5" color-interpolation-filters="sRGB" filterUnits="userSpaceOnUse">
      <feFlood flood-opacity="0" result="BackgroundImageFix"/>
      <feColorMatrix in="SourceAlpha" type="matrix" values="0 0 0 0 0 0 0 0 0 0 0 0 0 0 0 0 0 0 127 0"/>
      <feOffset dx="-2"/>
      <feGaussianBlur stdDeviation="1.5"/>
      <feColorMatrix type="matrix" values="0 0 0 0 0 0 0 0 0 0 0 0 0 0 0 0 0 0 0.15 0"/>
      <feBlend in2="BackgroundImageFix" mode="normal" result="effect1_dropShadow"/>
      <feBlend in="SourceGraphic" in2="effect1_dropShadow" mode="normal" result="shape"/>
      <feColorMatrix in="SourceAlpha" result="hardAlpha" type="matrix" values="0 0 0 0 0 0 0 0 0 0 0 0 0 0 0 0 0 0 127 0"/>
      <feOffset dx="2" dy="1"/>
      <feComposite in2="hardAlpha" k2="-1" k3="1" operator="arithmetic"/>
      <feColorMatrix type="matrix" values="0 0 0 0 0 0 0 0 0 0 0 0 0 0 0 0 0 0 0.05 0"/>
      <feBlend in2="shape" mode="normal" result="effect2_innerShadow"/>
    </filter>
    <filter id="filter4_di" width="47.9" height="34.5" x="447" y="932.4" color-interpolation-filters="sRGB" filterUnits="userSpaceOnUse">
      <feFlood flood-opacity="0" result="BackgroundImageFix"/>
      <feColorMatrix in="SourceAlpha" type="matrix" values="0 0 0 0 0 0 0 0 0 0 0 0 0 0 0 0 0 0 127 0"/>
      <feOffset dx="-2"/>
      <feGaussianBlur stdDeviation="1.5"/>
      <feColorMatrix type="matrix" values="0 0 0 0 0 0 0 0 0 0 0 0 0 0 0 0 0 0 0.15 0"/>
      <feBlend in2="BackgroundImageFix" mode="normal" result="effect1_dropShadow"/>
      <feBlend in="SourceGraphic" in2="effect1_dropShadow" mode="normal" result="shape"/>
      <feColorMatrix in="SourceAlpha" result="hardAlpha" type="matrix" values="0 0 0 0 0 0 0 0 0 0 0 0 0 0 0 0 0 0 127 0"/>
      <feOffset dx="2" dy="1"/>
      <feComposite in2="hardAlpha" k2="-1" k3="1" operator="arithmetic"/>
      <feColorMatrix type="matrix" values="0 0 0 0 0 0 0 0 0 0 0 0 0 0 0 0 0 0 0.05 0"/>
      <feBlend in2="shape" mode="normal" result="effect2_innerShadow"/>
    </filter>
    <filter id="filter5_di" width="33.8" height="35.2" x="469.5" y="913.9" color-interpolation-filters="sRGB" filterUnits="userSpaceOnUse">
      <feFlood flood-opacity="0" result="BackgroundImageFix"/>
      <feColorMatrix in="SourceAlpha" type="matrix" values="0 0 0 0 0 0 0 0 0 0 0 0 0 0 0 0 0 0 127 0"/>
      <feOffset dx="-2"/>
      <feGaussianBlur stdDeviation="1.5"/>
      <feColorMatrix type="matrix" values="0 0 0 0 0 0 0 0 0 0 0 0 0 0 0 0 0 0 0.15 0"/>
      <feBlend in2="BackgroundImageFix" mode="normal" result="effect1_dropShadow"/>
      <feBlend in="SourceGraphic" in2="effect1_dropShadow" mode="normal" result="shape"/>
      <feColorMatrix in="SourceAlpha" result="hardAlpha" type="matrix" values="0 0 0 0 0 0 0 0 0 0 0 0 0 0 0 0 0 0 127 0"/>
      <feOffset dx="2" dy="1"/>
      <feComposite in2="hardAlpha" k2="-1" k3="1" operator="arithmetic"/>
      <feColorMatrix type="matrix" values="0 0 0 0 0 0 0 0 0 0 0 0 0 0 0 0 0 0 0.05 0"/>
      <feBlend in2="shape" mode="normal" result="effect2_innerShadow"/>
    </filter>
    <filter id="filter6_di" width="117.2" height="116.7" x="371.1" y="873.6" color-interpolation-filters="sRGB" filterUnits="userSpaceOnUse">
      <feFlood flood-opacity="0" result="BackgroundImageFix"/>
      <feColorMatrix in="SourceAlpha" type="matrix" values="0 0 0 0 0 0 0 0 0 0 0 0 0 0 0 0 0 0 127 0"/>
      <feOffset dx="2" dy="4"/>
      <feGaussianBlur stdDeviation="5"/>
      <feColorMatrix type="matrix" values="0 0 0 0 0 0 0 0 0 0 0 0 0 0 0 0 0 0 0.15 0"/>
      <feBlend in2="BackgroundImageFix" mode="normal" result="effect1_dropShadow"/>
      <feBlend in="SourceGraphic" in2="effect1_dropShadow" mode="normal" result="shape"/>
      <feColorMatrix in="SourceAlpha" result="hardAlpha" type="matrix" values="0 0 0 0 0 0 0 0 0 0 0 0 0 0 0 0 0 0 127 0"/>
      <feOffset dy="-1"/>
      <feComposite in2="hardAlpha" k2="-1" k3="1" operator="arithmetic"/>
      <feColorMatrix type="matrix" values="0 0 0 0 0.745098 0 0 0 0 0.772549 0 0 0 0 0.803922 0 0 0 0.5 0"/>
      <feBlend in2="shape" mode="normal" result="effect2_innerShadow"/>
    </filter>
    <filter id="filter7_i" width="34.5" height="31.8" x="494" y="899.9" color-interpolation-filters="sRGB" filterUnits="userSpaceOnUse">
      <feFlood flood-opacity="0" result="BackgroundImageFix"/>
      <feBlend in="SourceGraphic" in2="BackgroundImageFix" mode="normal" result="shape"/>
      <feColorMatrix in="SourceAlpha" result="hardAlpha" type="matrix" values="0 0 0 0 0 0 0 0 0 0 0 0 0 0 0 0 0 0 127 0"/>
      <feOffset dy="-1"/>
      <feComposite in2="hardAlpha" k2="-1" k3="1" operator="arithmetic"/>
      <feColorMatrix type="matrix" values="0 0 0 0 0.756863 0 0 0 0 0.780392 0 0 0 0 0.8 0 0 0 0.72 0"/>
      <feBlend in2="shape" mode="normal" result="effect1_innerShadow"/>
    </filter>
    <filter id="filter8_i" width="23.8" height="32" x="506.2" y="898.7" color-interpolation-filters="sRGB" filterUnits="userSpaceOnUse">
      <feFlood flood-opacity="0" result="BackgroundImageFix"/>
      <feBlend in="SourceGraphic" in2="BackgroundImageFix" mode="normal" result="shape"/>
      <feColorMatrix in="SourceAlpha" result="hardAlpha" type="matrix" values="0 0 0 0 0 0 0 0 0 0 0 0 0 0 0 0 0 0 127 0"/>
      <feOffset dy="-1"/>
      <feComposite in2="hardAlpha" k2="-1" k3="1" operator="arithmetic"/>
      <feColorMatrix type="matrix" values="0 0 0 0 0.756863 0 0 0 0 0.780392 0 0 0 0 0.8 0 0 0 0.88 0"/>
      <feBlend in2="shape" mode="normal" result="effect1_innerShadow"/>
    </filter>
    <filter id="filter9_dii" width="93.9" height="71.6" x="426.2" y="859.8" color-interpolation-filters="sRGB" filterUnits="userSpaceOnUse">
      <feFlood flood-opacity="0" result="BackgroundImageFix"/>
      <feColorMatrix in="SourceAlpha" type="matrix" values="0 0 0 0 0 0 0 0 0 0 0 0 0 0 0 0 0 0 127 0"/>
      <feOffset dy="4"/>
      <feGaussianBlur stdDeviation="2"/>
      <feColorMatrix type="matrix" values="0 0 0 0 0 0 0 0 0 0 0 0 0 0 0 0 0 0 0.15 0"/>
      <feBlend in2="BackgroundImageFix" mode="normal" result="effect1_dropShadow"/>
      <feBlend in="SourceGraphic" in2="effect1_dropShadow" mode="normal" result="shape"/>
      <feColorMatrix in="SourceAlpha" result="hardAlpha" type="matrix" values="0 0 0 0 0 0 0 0 0 0 0 0 0 0 0 0 0 0 127 0"/>
      <feOffset dy="-1"/>
      <feComposite in2="hardAlpha" k2="-1" k3="1" operator="arithmetic"/>
      <feColorMatrix type="matrix" values="0 0 0 0 0.745098 0 0 0 0 0.772549 0 0 0 0 0.803922 0 0 0 0.5 0"/>
      <feBlend in2="shape" mode="normal" result="effect2_innerShadow"/>
      <feColorMatrix in="SourceAlpha" result="hardAlpha" type="matrix" values="0 0 0 0 0 0 0 0 0 0 0 0 0 0 0 0 0 0 127 0"/>
      <feOffset dy="1"/>
      <feGaussianBlur stdDeviation=".5"/>
      <feComposite in2="hardAlpha" k2="-1" k3="1" operator="arithmetic"/>
      <feColorMatrix type="matrix" values="0 0 0 0 1 0 0 0 0 1 0 0 0 0 1 0 0 0 1 0"/>
      <feBlend in2="effect2_innerShadow" mode="normal" result="effect3_innerShadow"/>
    </filter>
    <filter id="filter10_di" width="74.7" height="52.8" x="451" y="862.1" color-interpolation-filters="sRGB" filterUnits="userSpaceOnUse">
      <feFlood flood-opacity="0" result="BackgroundImageFix"/>
      <feColorMatrix in="SourceAlpha" type="matrix" values="0 0 0 0 0 0 0 0 0 0 0 0 0 0 0 0 0 0 127 0"/>
      <feOffset dy="2"/>
      <feGaussianBlur stdDeviation="2"/>
      <feColorMatrix type="matrix" values="0 0 0 0 0 0 0 0 0 0 0 0 0 0 0 0 0 0 0.1 0"/>
      <feBlend in2="BackgroundImageFix" mode="normal" result="effect1_dropShadow"/>
      <feBlend in="SourceGraphic" in2="effect1_dropShadow" mode="normal" result="shape"/>
      <feColorMatrix in="SourceAlpha" result="hardAlpha" type="matrix" values="0 0 0 0 0 0 0 0 0 0 0 0 0 0 0 0 0 0 127 0"/>
      <feOffset dy="-1"/>
      <feComposite in2="hardAlpha" k2="-1" k3="1" operator="arithmetic"/>
      <feColorMatrix type="matrix" values="0 0 0 0 0.745098 0 0 0 0 0.772549 0 0 0 0 0.803922 0 0 0 0.25 0"/>
      <feBlend in2="shape" mode="normal" result="effect2_innerShadow"/>
    </filter>
    <filter id="filter11_d" width="27.1" height="20.5" x="488.7" y="878.7" color-interpolation-filters="sRGB" filterUnits="userSpaceOnUse">
      <feFlood flood-opacity="0" result="BackgroundImageFix"/>
      <feColorMatrix in="SourceAlpha" type="matrix" values="0 0 0 0 0 0 0 0 0 0 0 0 0 0 0 0 0 0 127 0"/>
      <feOffset dy="4"/>
      <feGaussianBlur stdDeviation="2"/>
      <feColorMatrix type="matrix" values="0 0 0 0 0 0 0 0 0 0 0 0 0 0 0 0 0 0 0.25 0"/>
      <feBlend in2="BackgroundImageFix" mode="normal" result="effect1_dropShadow"/>
      <feBlend in="SourceGraphic" in2="effect1_dropShadow" mode="normal" result="shape"/>
    </filter>
    <filter id="filter12_di" width="52.8" height="27.6" x="456.5" y="864.3" color-interpolation-filters="sRGB" filterUnits="userSpaceOnUse">
      <feFlood flood-opacity="0" result="BackgroundImageFix"/>
      <feColorMatrix in="SourceAlpha" type="matrix" values="0 0 0 0 0 0 0 0 0 0 0 0 0 0 0 0 0 0 127 0"/>
      <feOffset dy="2"/>
      <feGaussianBlur stdDeviation="2"/>
      <feColorMatrix type="matrix" values="0 0 0 0 0 0 0 0 0 0 0 0 0 0 0 0 0 0 0.1 0"/>
      <feBlend in2="BackgroundImageFix" mode="normal" result="effect1_dropShadow"/>
      <feBlend in="SourceGraphic" in2="effect1_dropShadow" mode="normal" result="shape"/>
      <feColorMatrix in="SourceAlpha" result="hardAlpha" type="matrix" values="0 0 0 0 0 0 0 0 0 0 0 0 0 0 0 0 0 0 127 0"/>
      <feOffset dy="-1"/>
      <feComposite in2="hardAlpha" k2="-1" k3="1" operator="arithmetic"/>
      <feColorMatrix type="matrix" values="0 0 0 0 0.745098 0 0 0 0 0.772549 0 0 0 0 0.803922 0 0 0 0.25 0"/>
      <feBlend in2="shape" mode="normal" result="effect2_innerShadow"/>
    </filter>
    <filter id="filter13_di" width="107.1" height="71.5" x="424.7" y="842.3" color-interpolation-filters="sRGB" filterUnits="userSpaceOnUse">
      <feFlood flood-opacity="0" result="BackgroundImageFix"/>
      <feColorMatrix in="SourceAlpha" type="matrix" values="0 0 0 0 0 0 0 0 0 0 0 0 0 0 0 0 0 0 127 0"/>
      <feOffset dy="4"/>
      <feGaussianBlur stdDeviation="2"/>
      <feColorMatrix type="matrix" values="0 0 0 0 0 0 0 0 0 0 0 0 0 0 0 0 0 0 0.1 0"/>
      <feBlend in2="BackgroundImageFix" mode="normal" result="effect1_dropShadow"/>
      <feBlend in="SourceGraphic" in2="effect1_dropShadow" mode="normal" result="shape"/>
      <feColorMatrix in="SourceAlpha" result="hardAlpha" type="matrix" values="0 0 0 0 0 0 0 0 0 0 0 0 0 0 0 0 0 0 127 0"/>
      <feOffset dy="-1"/>
      <feComposite in2="hardAlpha" k2="-1" k3="1" operator="arithmetic"/>
      <feColorMatrix type="matrix" values="0 0 0 0 0.745098 0 0 0 0 0.772549 0 0 0 0 0.803922 0 0 0 0.5 0"/>
      <feBlend in2="shape" mode="normal" result="effect2_innerShadow"/>
    </filter>
    <pattern id="pattern0" width="1" height="1" patternContentUnits="objectBoundingBox">
      <use transform="matrix(.00066 0 0 .00066 -.3 0)" xlink:href="#image0"/>
    </pattern>
    <pattern id="pattern1" width="1" height="1" patternContentUnits="objectBoundingBox">
      <use transform="matrix(.00042 0 0 .00063 0 0)" xlink:href="#image0"/>
    </pattern>
    <clipPath id="clip0">
      <rect width="1021" height="1278" fill="#fff"/>
    </clipPath>
  </defs>
</svg>