<svg xmlns="http://www.w3.org/2000/svg" fill="none" viewBox="0 0 125 25">
  <path fill="#fff" d="M13 15.5l-1 3-1-3L5.3 1.8H0v22.1h3.6V10.2v-3l-.2-1.5h.1l.5 2 6.7 16h2.5l6.6-16.2.4-1.8h.1l-.2 4v14H24v-22h-5.3l-5.6 13.8zM27.7 8h3.7v15.9h-3.7v-16zm1.9-6.7c-.7 0-1.2.2-1.6.6a2 2 0 00-.7 1.6c0 .6.2 1 .7 1.5.4.4 1 .6 1.6.6.6 0 1.1-.3 1.5-.6.5-.4.7-1 .7-1.5 0-.6-.2-1.2-.7-1.6a2 2 0 00-1.5-.6zm15 6.5l-2.1-.2a9 9 0 00-4.5 1.1 7.5 7.5 0 00-3 3 9.7 9.7 0 000 8.8 6.9 6.9 0 002.8 2.8c1.1.7 2.5 1 4 1a9 9 0 004.6-1v-3.5l-.1.1a6.4 6.4 0 01-3.6 1.3c-1.5 0-2.7-.4-3.5-1.4-.9-1-1.3-2.2-1.3-3.7 0-1.7.4-3 1.3-4 .9-.9 2-1.3 3.5-1.3 1.2 0 2.4.4 3.6 1.2h.1V8.4l-1.8-.6zm12.3 0a4 4 0 00-2.5.8c-.7.5-1.1 1.3-1.5 2.2V7.9h-3.7v15.9h3.7v-8.2c0-1.3.3-2.5 1-3.3.5-.9 1.4-1.3 2.3-1.3l1.1.1 1 .4v.1V8c-.3-.2-.8-.3-1.4-.3zm10.1-.2c-2.6 0-4.7.8-6.1 2.3a8.5 8.5 0 00-2.2 6.3c0 2.4.7 4.4 2.1 5.9a7.9 7.9 0 005.9 2.2 8 8 0 006-2.3 8.5 8.5 0 002.2-6.2c0-2.5-.7-4.5-2-6-1.4-1.4-3.4-2.2-5.9-2.2zm3 12.2c-.7 1-1.8 1.4-3.1 1.4a4 4 0 01-3.2-1.4c-.8-1-1.2-2.2-1.2-3.8 0-1.7.4-3 1.2-4a4 4 0 013.2-1.3c1.3 0 2.3.4 3 1.3.8 1 1.2 2.2 1.2 3.9 0 1.7-.4 3-1 4zm13.2-5.2a9 9 0 01-2.2-1.2c-.3-.3-.5-.7-.5-1.2 0-.4.2-.9.6-1.2.5-.2 1-.4 1.7-.4l1.9.3a5 5 0 011.6.8h.2V8.3h-.1a10.3 10.3 0 00-3.5-.7c-1.8 0-3.3.4-4.4 1.4-1.2.9-1.7 2-1.7 3.5a4.3 4.3 0 001.5 3.4c.5.4 1.3.9 2.3 1.3l2 .9.8.7.2.9c0 1-.8 1.5-2.4 1.5-.7 0-1.3 0-2-.3a8 8 0 01-2.2-1l-.1-.2v3.6a11.1 11.1 0 004.2 1 7 7 0 004.6-1.4c1.2-1 1.8-2.1 1.8-3.6 0-1-.3-2-1-2.8-.8-.6-1.8-1.4-3.3-2zm14.1-7c-2.6 0-4.7.8-6.2 2.3a8.7 8.7 0 00-2.2 6.3c0 2.4.8 4.4 2.2 5.9a7.9 7.9 0 005.8 2.2 8 8 0 006-2.3 8.5 8.5 0 002.3-6.2c0-2.5-.7-4.5-2.1-6-1.3-1.4-3.3-2.2-5.8-2.2zm3 12.2c-.7 1-1.8 1.4-3.2 1.4-1.3 0-2.4-.5-3.2-1.4-.7-1-1.1-2.2-1.1-3.8 0-1.7.4-3 1.1-4a4 4 0 013.2-1.3c1.3 0 2.4.4 3.1 1.3.7 1 1.1 2.2 1.1 3.9 0 1.7-.3 3-1 4zM125 11V8h-3.8V3.2l-3.6 1-.1.1v3.6h-5.6v-2c0-1 .2-1.7.6-2.1.4-.5 1-.7 1.8-.7.5 0 1 .1 1.6.4h.2V.4h-.1c-.5-.2-1.2-.3-2.1-.3-1.1 0-2.1.3-3 .7a5 5 0 00-2 2c-.5.9-.8 1.9-.8 3v2.2h-2.6v3h2.6v12.9h3.8V10.9h5.6v8.2c0 3.4 1.6 5 4.7 5l1.6-.1 1.2-.4v-3h-.1l-.8.4h-.8c-.7 0-1.2 0-1.6-.5-.3-.4-.5-1-.5-2v-7.6h3.8z"/>
</svg>