<svg viewBox="0 0 111 28" fill="none" xmlns="http://www.w3.org/2000/svg">
  <path d="M106.62 7.845l-2.466 15.685a.507.507 0 0 0 .495.579h2.48c.41 0 .76-.3.824-.706L110.385 8a.5.5 0 0 0-.495-.579h-2.775a.497.497 0 0 0-.495.423M99.222 18.578c-.28 1.643-1.583 2.747-3.247 2.747-.834 0-1.503-.27-1.932-.777-.426-.504-.585-1.221-.45-2.02.258-1.63 1.583-2.768 3.223-2.768.817 0 1.48.27 1.918.784.44.516.614 1.238.488 2.034zm4.008-5.6h-2.876a.5.5 0 0 0-.496.424l-.125.803-.202-.29c-.622-.905-2.011-1.207-3.397-1.207-3.177 0-5.892 2.408-6.421 5.785-.275 1.686.116 3.296 1.072 4.42.877 1.033 2.13 1.462 3.622 1.462 2.563 0 3.984-1.645 3.984-1.645l-.129.8a.498.498 0 0 0 .493.578h2.59c.41 0 .76-.298.825-.704l1.555-9.847a.491.491 0 0 0-.286-.533.496.496 0 0 0-.209-.045M85.968 13.048c-.328 2.156-1.975 2.156-3.567 2.156h-.906l.635-4.026a.5.5 0 0 1 .495-.422h.415c1.085 0 2.109 0 2.637.617.315.37.41.918.291 1.675zm-.693-5.626h-6.007a.836.836 0 0 0-.826.704L76.015 23.53a.5.5 0 0 0 .494.579h3.082c.288 0 .533-.21.578-.493l.689-4.368a.835.835 0 0 1 .824-.705h1.9c3.958 0 6.242-1.914 6.838-5.71.269-1.659.01-2.963-.766-3.876-.854-1.004-2.368-1.535-4.378-1.535" fill="#fff" fill-opacity=".6"/>
  <path d="M75.705 12.979h-2.892a.831.831 0 0 0-.69.366l-3.988 5.874-1.69-5.645a.837.837 0 0 0-.8-.596h-2.842a.501.501 0 0 0-.474.663l3.183 9.345-2.994 4.225a.502.502 0 0 0 .408.79h2.89a.836.836 0 0 0 .685-.359l9.615-13.877a.5.5 0 0 0-.41-.786M43.123 13.048c-.329 2.156-1.975 2.156-3.569 2.156h-.906l.636-4.026a.5.5 0 0 1 .494-.422h.416c1.084 0 2.108 0 2.636.617.317.37.412.918.293 1.675zm-.694-5.626h-6.007c-.41 0-.76.298-.825.704L33.17 23.53a.5.5 0 0 0 .494.579h2.87c.41 0 .759-.3.823-.705l.656-4.155a.834.834 0 0 1 .824-.705h1.901c3.958 0 6.241-1.915 6.837-5.71.27-1.66.011-2.964-.766-3.877-.854-1.004-2.368-1.535-4.378-1.535zm13.947 11.155c-.279 1.644-1.582 2.748-3.247 2.748-.834 0-1.502-.269-1.931-.777-.426-.503-.586-1.221-.451-2.02.258-1.63 1.584-2.768 3.223-2.768.817 0 1.48.271 1.918.784.44.516.614 1.238.488 2.034zm4.009-5.6h-2.877a.501.501 0 0 0-.495.425l-.126.803-.201-.29c-.623-.905-2.012-1.207-3.398-1.207-3.178 0-5.893 2.408-6.42 5.785-.276 1.686.115 3.296 1.07 4.42.878 1.033 2.13 1.462 3.623 1.462 2.562 0 3.982-1.645 3.982-1.645l-.128.8a.5.5 0 0 0 .495.578h2.59c.41 0 .76-.298.824-.704l1.556-9.847a.5.5 0 0 0-.496-.578M8.918 7.144a1.09 1.09 0 0 1 1.076-.92h6.822c.808 0 1.562.054 2.25.164.377.06.749.143 1.115.249.416.117.819.277 1.202.479.342-2.18-.002-3.66-1.18-5.004-1.297-1.477-3.64-2.11-6.638-2.11H4.862a1.246 1.246 0 0 0-1.23 1.05L.01 24.032a.747.747 0 0 0 .738.863h5.372l1.35-8.558 1.45-9.192z" fill="#fff"/>
  <path d="M21.384 7.115c-.027.17-.057.34-.09.51-1.146 5.891-5.073 7.929-10.088 7.929H8.652a1.241 1.241 0 0 0-1.225 1.05l-1.307 8.29-.372 2.351a.654.654 0 0 0 .646.756h4.528c.536 0 .992-.39 1.076-.92l.044-.23.854-5.41.054-.298a1.09 1.09 0 0 1 1.077-.92h.677c4.387 0 7.822-1.781 8.826-6.936.418-2.153.201-3.952-.906-5.216a4.325 4.325 0 0 0-1.24-.956z" fill="#fff" fill-opacity=".6"/>
  <path d="M20.182 6.637a7.897 7.897 0 0 0-.541-.14 9.584 9.584 0 0 0-.575-.108 14.066 14.066 0 0 0-2.25-.165H9.993a1.087 1.087 0 0 0-1.076.92l-1.45 9.194-.041.267a1.241 1.241 0 0 1 1.225-1.051h2.554c5.015 0 8.941-2.037 10.088-7.93.034-.174.063-.343.09-.51a6.197 6.197 0 0 0-1.202-.478" fill="#fff" fill-opacity=".8"/>
</svg>