<svg viewBox="0 0 186 15" fill="none" xmlns="http://www.w3.org/2000/svg">
<style>
    a path{
        fill:#5F5F5F;
        }
    a:hover path{
        fill:#888;
        }
</style>
<a href="#">
  <path class="ctrl-b" d="M0 13v-1.2l1-.2V4.4l-1-.2V3h4.4c1.2 0 2.1.2 2.8.7.6.4 1 1.1 1 2 0 .5-.2.9-.4 1.3l-1 .8c.5.1 1 .4 1.3.8.3.4.4 1 .4 1.5 0 1-.3 1.6-1 2.1-.6.5-1.5.8-2.6.8H0zm3-5.8h1.5c.5 0 1-.1 1.2-.4.3-.2.5-.5.5-1 0-.8-.6-1.3-1.8-1.3H3.1v2.7zm0 4.2H5c1 0 1.6-.4 1.6-1.3 0-.5-.1-.9-.3-1.2-.3-.2-.6-.3-1.2-.3H3v2.8z"/>
</a>
<a href="#">
  <path class="ctrl-i" d="M26 13v-1.2l1-.2V4.4l-1-.2V3h4.1v1.2l-1 .2v7.2l1 .2V13H26z" />
</a>
<a href="#">
  <path class="ctrl-code" d="M102.9 13h1.7l2.8-9h-1.7l-2.8 9zm-.6-7.5v-.4l-.8-.7a.3.3 0 00-.4 0l-3.4 3.4c-.1 0-.1.3 0 .4l3.4 3.4h.4l.8-.8v-.4L99.8 8l2.5-2.5zm10.2 2.3L109 4.4a.3.3 0 00-.4 0l-.8.8c-.1.1-.1.3 0 .4l2.4 2.4-2.4 2.5c-.1 0-.1.3 0 .4l.8.7c0 .1.3.1.4 0l3.4-3.4v-.4z"/>
</a>
<a href="#">
  <path class="ctrl-dl" d="M129 10.2h-1.7l-.4-.1a.5.5 0 01-.2-.4V6H125c-.2 0-.4-.1-.4-.3-.1-.2 0-.3 0-.4l3.3-3.3a.4.4 0 01.6 0l3.3 3.3c.1 0 .1.2 0 .4 0 .2-.1.3-.3.3h-2v4l-.4.1zm4.6-.2v2.4l-.1.4-.4.2h-10c-.1 0-.2 0-.3-.2a.5.5 0 01-.2-.4V10c0-.1 0-.2.2-.3l.3-.2h3v.2c0 .3 0 .6.3.9.2.2.5.3.9.3h1.7c.3 0 .6-.1.8-.3.3-.3.4-.6.4-1h3.3l.1.4zm-2.8 2.2a.4.4 0 000-.6.4.4 0 00-.6 0 .4.4 0 000 .6.4.4 0 00.6 0zm1.4 0a.4.4 0 000-.6.4.4 0 00-.6 0 .4.4 0 000 .6.4.4 0 00.6 0z" />
</a>
<a href="#">
  <path class="ctrl-ul" d="M153.2 10.7c0-.6-.6-1.2-1.3-1.2-.7 0-1.3.6-1.3 1.2 0 .7.6 1.3 1.3 1.3.7 0 1.3-.6 1.3-1.3zm0-3.2c0-.7-.6-1.3-1.3-1.3-.7 0-1.3.6-1.3 1.3 0 .6.6 1.2 1.3 1.2.7 0 1.3-.6 1.3-1.2zm9.4 2.6s0-.2-.2-.2h-8.1c-.2 0-.3.1-.3.2v1.2c0 .2.1.2.3.2h8.1c.1 0 .2 0 .2-.2v-1.2zm-9.4-6c0-.6-.6-1.1-1.3-1.1-.7 0-1.3.5-1.3 1.2s.6 1.2 1.3 1.2c.7 0 1.3-.5 1.3-1.2zm9.4 2.7s0-.2-.2-.2h-8.1c-.2 0-.3.1-.3.2v1.3s.1.2.3.2h8.1l.2-.2V6.8zm0-3.2c0-.1 0-.2-.2-.2h-8.1c-.2 0-.3 0-.3.2v1.2c0 .1.1.2.3.2h8.1c.1 0 .2 0 .2-.2V3.6z" />
</a>
<a href="#">
  <path class="ctrl-ol" d="M176.9 12c0-.4-.3-.7-.7-.8l.6-.6V10h-2v.8h.6v-.3h.6l-.7.8.1.3c.3 0 .7 0 .7.3 0 .2-.2.3-.4.3a1 1 0 01-.7-.2l-.4.5c.3.2.7.4 1.1.4.7 0 1.2-.4 1.2-1zm0-3.5h-.7v.3h-.7c0-.4 1.3-.6 1.3-1.4 0-.6-.5-.9-1-.9s-1 .2-1.1.6l.5.3c0-.1.3-.3.5-.3s.3.1.3.3c0 .5-1.4.6-1.4 1.7v.3h2.3v-1zm8.7 1.8c0-.1 0-.2-.2-.2H178c-.1 0-.2 0-.2.2v1c0 .1 0 .2.2.2h7.5c.1 0 .2 0 .2-.2v-1zm-8.7-5h-.7V3h-.6l-.9.7.5.4.3-.3v1.4h-.7v.6h2.1v-.6zm8.7 2h-7.9v1.2l.2.1h7.5l.2-.1V7.4zm0-2.8s0-.2-.2-.2H178l-.2.2v1.1s0 .2.2.2h7.5l.2-.2v-1z" />
</a>
<a href="#">
  <path class="ctrl-link" d="M54.6 12.8c-.2 0-.4 0-.6-.2L53 11.3a.9.9 0 01-.2-.6c0-.2 0-.4.2-.6l1.6-1.7.6-.3c.2 0 .4.1.5.3-.2.3-.5.5-.5 1 0 .4.3.8.7.8.4 0 .7-.3 1-.6l.2.6-.2.6-1.7 1.8-.5.2zm5.6-6a.7.7 0 01-.6-.3c.3-.3.6-.5.6-1 0-.4-.4-.8-.8-.8s-.6.3-.9.6a.8.8 0 01-.2-.6c0-.2 0-.4.2-.6L60 2.3l.6-.2c.2 0 .4 0 .5.2l1.2 1.3.2.6c0 .2 0 .4-.2.6l-1.7 1.7c-.1.2-.3.3-.5.3zm-5.6 7.7c.6 0 1.1-.3 1.6-.8l1.6-1.7c.5-.5.7-1.1.7-1.8s-.2-1.3-.7-1.8l.7-.7c.4.4 1 .7 1.7.7.6 0 1.2-.2 1.6-.7L63.4 6c.5-.4.7-1 .7-1.7s-.2-1.3-.6-1.8l-1.2-1.2c-.4-.5-1-.7-1.6-.7-.6 0-1.2.2-1.6.7L57.4 3c-.4.4-.7 1-.7 1.7s.3 1.3.7 1.8l-.7.8c-.4-.5-1-.8-1.6-.8-.6 0-1.2.2-1.7.7L51.8 9c-.4.4-.7 1-.7 1.7s.2 1.3.7 1.8l1.1 1.2c.5.5 1 .8 1.7.8z"/>
</a>
<a href="#">
  <g class="ctrl-quote">
    <path d="M75.6 4c0-.6.5-1 1-1h3c.6 0 1 .4 1 1v5a4 4 0 01-4 4v-2.2a3 3 0 002-2.8h-2a1 1 0 01-1-1V4z" />
    <path d="M81.6 4c0-.6.5-1 1-1h3c.6 0 1 .4 1 1v5a4 4 0 01-4 4v-2.2a3 3 0 002-2.8h-2a1 1 0 01-1-1V4z" />
  </g>
</a>
</svg>