<svg width="24" height="28" viewBox="0 0 24 28" fill="none" xmlns="http://www.w3.org/2000/svg">
<path d="M8.91839 7.14252C8.9591 6.88638 9.08976 6.65314 9.28692 6.48466C9.48408 6.31617 9.73484 6.22346 9.99418 6.22318H16.8161C17.6239 6.22318 18.3775 6.27584 19.066 6.38582C19.4425 6.44638 19.8149 6.52967 20.1813 6.63521C20.5974 6.7522 21 6.91263 21.3826 7.11386C21.7249 4.93517 21.381 3.45353 20.203 2.11054C18.9057 0.633547 16.5628 -2.55014e-06 13.5647 -2.55014e-06H4.86229C4.56576 0.000208198 4.27902 0.106149 4.05359 0.298788C3.82816 0.491426 3.67881 0.758139 3.63237 1.05101L0.00921652 24.0291C-0.00768998 24.1357 -0.00128345 24.2447 0.0279951 24.3486C0.0572736 24.4525 0.108728 24.5488 0.178812 24.6309C0.248896 24.713 0.335943 24.7789 0.433956 24.8241C0.531969 24.8693 0.638616 24.8927 0.746549 24.8927H6.11932L7.46851 16.3344L8.91839 7.14252Z" fill="#002F86"/>
<path d="M21.3836 7.1131C21.357 7.2835 21.3273 7.4534 21.2945 7.62272C20.1475 13.5144 16.2207 15.5521 11.2058 15.5521H8.6522C8.35617 15.5524 8.06997 15.6584 7.84527 15.8511C7.62058 16.0439 7.4722 16.3106 7.42693 16.6032L6.11955 24.8919L5.74779 27.2434C5.73301 27.3367 5.73865 27.4322 5.76431 27.5231C5.78998 27.6141 5.83507 27.6984 5.89647 27.7702C5.95787 27.8421 6.03412 27.8998 6.11997 27.9393C6.20582 27.9789 6.29922 27.9993 6.39373 27.9993H10.9223C11.4582 27.9993 11.9137 27.6089 11.9981 27.0799L12.0422 26.8491L12.8957 21.44L12.9499 21.141C12.9905 20.8847 13.1213 20.6512 13.3186 20.4827C13.516 20.3142 13.767 20.2216 14.0265 20.2217H14.7042C19.091 20.2217 22.526 18.4403 23.5297 13.2852C23.948 11.132 23.7311 9.33284 22.6236 8.06962C22.2719 7.67798 21.8517 7.35382 21.3836 7.1131Z" fill="#009CDE"/>
<path d="M20.1821 6.63523C20.0071 6.58334 19.8266 6.53687 19.6408 6.49582C19.4549 6.45477 19.2628 6.41837 19.0661 6.38739C18.3768 6.27508 17.6239 6.22242 16.8154 6.22242H9.99425C9.73462 6.2221 9.48344 6.31469 9.28613 6.48345C9.08882 6.6522 8.95841 6.88599 8.91846 7.14253L7.46858 16.336L7.42676 16.6032C7.47203 16.3106 7.62041 16.0439 7.8451 15.8511C8.0698 15.6584 8.356 15.5524 8.65203 15.5521H11.2056C16.2205 15.5521 20.1473 13.5152 21.2943 7.62273C21.3284 7.44846 21.3571 7.27962 21.3834 7.1131C21.0805 6.9546 20.7649 6.82144 20.4401 6.715C20.3556 6.68712 20.2697 6.66079 20.1821 6.63446" fill="#012069"/>
</svg>
