<svg width="100" height="100" viewBox="0 0 100 100" fill="none" xmlns="http://www.w3.org/2000/svg">
<style>
    path{
        fill-rule: evenodd; clip-rule:evenodd;
        fill: currentColor;
    }
</style>
  <path d="M17.7 80V19.8c0-6.2 5-11.2 11.1-11.2h34.3c6.2 0 11.2 5 11.2 11.2v42.9c0 6.1-5 11.1-11.2 11.1H28.8a6 6 0 000 12h43a6 6 0 006-6V15.6a2.6 2.6 0 115 0v64.3c0 6.2-5 11.2-11 11.2h-43c-6.1 0-11.1-5-11.1-11.2zm11.1-66.1a6 6 0 00-6 6v50.6c1.8-1.1 3.8-1.7 6-1.7h34.3a6 6 0 006-6v-43a6 6 0 00-6-6H28.8z" />
  <path d="M28.5 77c-1.4 0-2.6 1.3-2.6 2.8 0 1.5 1.2 2.8 2.6 2.8h42.9c1.4 0 2.6-1.3 2.6-2.8 0-1.5-1.2-2.7-2.6-2.7h-43z" />
  <path d="M49.7 87.9a37.5 37.5 0 100-75 37.5 37.5 0 000 75zm0 5.1a42.6 42.6 0 100-85.2 42.6 42.6 0 000 85.2zm23.1-40.3a3 3 0 000-4.6L51.5 31a3 3 0 00-4.8 2.3v34a3 3 0 004.8 2.4l21.3-17zM38.6 33.4a3 3 0 00-6 0v34a3 3 0 106 0v-34z" />
  <path d="M47 17.2a11.5 11.5 0 11-23 0 11.5 11.5 0 0123 0z" />
  <path d="M65 9a2.8 2.8 0 00-3 2.8v5.6h-8.5L62 23v2.8c0 1.6 1.3 2.8 2.8 2.8h22.8c1.6 0 2.9-1.2 2.9-2.8v-14c0-1.6-1.3-2.8-2.9-2.8H65z" />
  <path d="M48.9 30.8c1.5-.2 3 .7 3.5 2.1.5 1.7 2.8 5.8 5.5 9.6l.4.6c1.4 1.9 2.9 4 4.8 5.3 2.8-1 4.8-4.8 6-7 .6-1.1 1.7-1.8 2.9-1.8h4.5c1.7 0 3.1 1.4 3.1 3.1 0 1.7-1.4 3-3.1 3h-2.7c-2.2 3.9-5.9 9-10.9 9-4.1 0-7.5-4.9-9.7-8l-.5-.7-1.3-2L50 68l.2 1.9v22c0 1.7-1.4 3.1-3.2 3.1a3.1 3.1 0 01-3.1-3V69.7c0-3.4-2.5-5.8-6-5.8-3.3 0-5.8 2.4-5.8 5.8v22c0 1.7-1.4 3.1-3.2 3.1a3.1 3.1 0 01-3.1-3V69.7 68l-2-19.9-8 19.3a3.2 3.2 0 01-4.2 1.7 3 3 0 01-1.6-4.1l12.1-29.4c.4-1 1.3-1.7 2.4-1.9l24.3-3z" />
  <path d="M33.6 26.9a3.4 3.4 0 10-4.9-4.9L3 47.7a3.4 3.4 0 000 4.9l25.7 25.7a3.4 3.4 0 004.9-4.8L10.3 50.2l23.3-23.3z" />
  <path d="M67 73.5a3.4 3.4 0 104.9 4.8l25.7-25.7a3.4 3.4 0 000-4.9L71.9 22A3.4 3.4 0 1067 27l23.3 23.3L67 73.5z" />
  <path d="M48.3 71.6a4.3 4.3 0 11-8.6 0 4.3 4.3 0 018.6 0z" />
  <path d="M56.9 75.9a4.3 4.3 0 100-8.6 4.3 4.3 0 000 8.6z" />
</svg>