<svg viewBox="0 0 400 200" fill="none" xmlns="http://www.w3.org/2000/svg">
    <style>
        .inactive{fill: #C4C4C4;}
        .active{fill:#0F56B3;}
    </style>
  <path  d="M16.7 80V19.8c0-6.2 5-11.2 11.1-11.2h34.3c6.2 0 11.2 5 11.2 11.2v42.9c0 6.1-5 11.1-11.2 11.1H27.8a6 6 0 000 12h43a6 6 0 006-6V15.6a2.6 2.6 0 115 0v64.3c0 6.2-5 11.2-11 11.2h-43c-6.1 0-11.1-5-11.1-11.2zm11.1-66.1a6 6 0 00-6 6v50.6c1.8-1.1 3.8-1.7 6-1.7h34.3a6 6 0 006-6v-43a6 6 0 00-6-6H27.8z" class="active"/>
  <path d="M27.5 77c-1.4 0-2.6 1.3-2.6 2.8 0 1.5 1.2 2.8 2.6 2.8h42.9c1.4 0 2.6-1.3 2.6-2.8 0-1.5-1.2-2.7-2.6-2.7h-43z" class="active"/>
  <path  d="M149.7 86.9a37.5 37.5 0 100-75 37.5 37.5 0 000 75zm0 5.1a42.6 42.6 0 100-85.2 42.6 42.6 0 000 85.2zm23.1-40.3a3 3 0 000-4.6l-21.3-17a3 3 0 00-4.8 2.3v34a3 3 0 004.8 2.4l21.3-17zm-34.2-19.3a3 3 0 00-6 0v34a3 3 0 006 0v-34z" class="active"/>
  <path d="M249 16.2a11.5 11.5 0 11-23 0 11.5 11.5 0 0123 0z" class="active"/>
  <path d="M267 8a2.8 2.8 0 00-3 2.8v5.6h-8.5L264 22v2.8c0 1.6 1.3 2.8 2.8 2.8h22.8c1.6 0 2.9-1.2 2.9-2.8v-14c0-1.6-1.3-2.8-2.9-2.8H267z" class="active"/>
  <path  d="M254.4 32c-.5-1.5-2-2.4-3.5-2.2l-24.3 3c-1 .2-2 .9-2.4 1.9L212.1 64a3 3 0 001.6 4c1.6.7 3.5 0 4.2-1.6l8-19.3 2 20v23.6c0 1.7 1.4 3.1 3.1 3.1 1.8 0 3.2-1.4 3.2-3V68.7c0-3.4 2.5-5.8 5.9-5.8 3.4 0 5.9 2.4 5.9 5.8v22c0 1.7 1.4 3.1 3.1 3.1 1.8 0 3.2-1.4 3.2-3V68.7c0-.7 0-1.3-.2-2l1.3-23.8 1.3 2 .5.7c2.2 3.1 5.6 8 9.7 8 5 0 8.7-5.1 11-9h2.6c1.7 0 3.1-1.3 3.1-3s-1.4-3-3.1-3H274c-1.2 0-2.3.6-2.9 1.6-1.2 2.3-3.2 6.2-6 7-2-1.2-3.4-3.3-4.8-5.2l-.4-.6c-2.7-3.8-5-8-5.5-9.6zm-6.4 4.5l-1.2 22.3a12.5 12.5 0 00-14 .3l-2.2-20.6 17.4-2z" class="active"/>
  <path d="M333.6 26.9a3.4 3.4 0 10-4.9-4.9L303 47.7a3.4 3.4 0 000 4.9l25.7 25.7a3.4 3.4 0 004.9-4.8l-23.3-23.3 23.3-23.3z" class="active"/>
  <path d="M367 73.5a3.4 3.4 0 004.9 4.8l25.7-25.7a3.4 3.4 0 000-4.9L371.9 22A3.4 3.4 0 00367 27l23.3 23.3L367 73.5z" class="active"/>
  <path d="M348.3 71.6a4.3 4.3 0 11-8.6 0 4.3 4.3 0 018.6 0z" class="active"/>
  <path d="M356.9 75.9a4.3 4.3 0 100-8.6 4.3 4.3 0 000 8.6z" class="active"/>
  <path  d="M16.7 180v-60.1c0-6.2 5-11.2 11.1-11.2h34.3c6.2 0 11.2 5 11.2 11.2v42.9c0 6.1-5 11.1-11.2 11.1H27.8a6 6 0 000 12h43a6 6 0 006-6v-64.3a2.6 2.6 0 015 0v64.3c0 6.2-5 11.2-11 11.2h-43c-6.1 0-11.1-5-11.1-11.2zm11.1-66.1a6 6 0 00-6 6v50.6c1.8-1.1 3.8-1.7 6-1.7h34.3a6 6 0 006-6v-43a6 6 0 00-6-6H27.8z" class="inactive"/>
  <path d="M27.5 177c-1.4 0-2.6 1.3-2.6 2.8 0 1.5 1.2 2.8 2.6 2.8h42.9c1.4 0 2.6-1.3 2.6-2.8 0-1.5-1.2-2.7-2.6-2.7h-43z" class="inactive"/>
  <path  d="M149.7 186.9a37.5 37.5 0 100-75 37.5 37.5 0 000 75zm0 5.1a42.6 42.6 0 100-85.2 42.6 42.6 0 000 85.2zm23.1-40.3a3 3 0 000-4.6l-21.3-17a3 3 0 00-4.8 2.3v34a3 3 0 004.8 2.4l21.3-17zm-34.2-19.3a3 3 0 00-6 0v34a3 3 0 006 0v-34z" class="inactive"/>
  <path d="M249 116.2a11.5 11.5 0 11-23 0 11.5 11.5 0 0123 0z" class="inactive"/>
  <path d="M267 108a2.8 2.8 0 00-3 2.8v5.6h-8.5l8.6 5.6v2.8c0 1.6 1.3 2.8 2.8 2.8h22.8c1.6 0 2.9-1.2 2.9-2.8v-14c0-1.6-1.3-2.8-2.9-2.8H267z" class="inactive"/>
  <path  d="M254.4 132c-.5-1.5-2-2.4-3.5-2.2l-24.3 3c-1 .2-2 .9-2.4 1.9L212.1 164a3 3 0 001.6 4c1.6.7 3.5 0 4.2-1.6l8-19.3 2 20v23.6c0 1.7 1.4 3.1 3.1 3.1 1.8 0 3.2-1.4 3.2-3v-22.1c0-3.4 2.5-5.8 5.9-5.8 3.4 0 5.9 2.4 5.9 5.8v22c0 1.7 1.4 3.1 3.1 3.1 1.8 0 3.2-1.4 3.2-3v-22.1c0-.7 0-1.3-.2-2l1.3-23.8 1.3 2 .5.7c2.2 3.1 5.6 8 9.7 8 5 0 8.7-5.1 11-9h2.6c1.7 0 3.1-1.3 3.1-3s-1.4-3-3.1-3H274c-1.2 0-2.3.6-2.9 1.6-1.2 2.3-3.2 6.2-6 7-2-1.2-3.4-3.3-4.8-5.2l-.4-.6c-2.7-3.8-5-8-5.5-9.6zm-6.4 4.5l-1.2 22.3a12.5 12.5 0 00-14 .3l-2.2-20.6 17.4-2z" class="inactive"/>
  <path d="M333.6 126.9a3.4 3.4 0 00-4.9-4.9L303 147.7a3.4 3.4 0 000 4.9l25.7 25.7a3.4 3.4 0 004.9-4.8l-23.3-23.3 23.3-23.3z" class="inactive"/>
  <path d="M367 173.5a3.4 3.4 0 004.9 4.8l25.7-25.7a3.4 3.4 0 000-4.9L371.9 122a3.4 3.4 0 00-4.9 4.9l23.3 23.3-23.3 23.3z" class="inactive"/>
  <path d="M348.3 171.6a4.3 4.3 0 11-8.6 0 4.3 4.3 0 018.6 0z" class="inactive"/>
  <path d="M356.9 175.9a4.3 4.3 0 100-8.6 4.3 4.3 0 000 8.6z" class="inactive"/>
</svg>

<svg  viewBox="0 0 400 200" fill="none" xmlns="http://www.w3.org/2000/svg">
    <style>
        .inactive{fill: #C4C4C4;}
        .active{fill: #0F56B3;}
        path{fill-rule:evenodd; clip-rule:evenodd; }
    </style>
  <path  d="M16.7 80V19.8c0-6.2 5-11.2 11.1-11.2h34.3c6.2 0 11.2 5 11.2 11.2v42.9c0 6.1-5 11.1-11.2 11.1H27.8a6 6 0 000 12h43a6 6 0 006-6V15.6a2.6 2.6 0 115 0v64.3c0 6.2-5 11.2-11 11.2h-43c-6.1 0-11.1-5-11.1-11.2zm11.1-66.1a6 6 0 00-6 6v50.6c1.8-1.1 3.8-1.7 6-1.7h34.3a6 6 0 006-6v-43a6 6 0 00-6-6H27.8z" class="active"/>
  <path d="M27.5 77c-1.4 0-2.6 1.3-2.6 2.8 0 1.5 1.2 2.8 2.6 2.8h42.9c1.4 0 2.6-1.3 2.6-2.8 0-1.5-1.2-2.7-2.6-2.7h-43z" class="active"/>
  <path  d="M149.7 86.9a37.5 37.5 0 100-75 37.5 37.5 0 000 75zm0 5.1a42.6 42.6 0 100-85.2 42.6 42.6 0 000 85.2zm23.1-40.3a3 3 0 000-4.6l-21.3-17a3 3 0 00-4.8 2.3v34a3 3 0 004.8 2.4l21.3-17zm-34.2-19.3a3 3 0 00-6 0v34a3 3 0 006 0v-34z" class="active"/>
  <path d="M231 65.1L227.6 37l24-4.2-2 32.3c-1.2-2-4.8-6.3-10.3-6.9-5.5-.5-7.8 4.4-8.3 6.9z" class="active"/>
  <path d="M249 16.2a11.5 11.5 0 11-23 0 11.5 11.5 0 0123 0z" class="active"/>
  <path d="M267 8a2.8 2.8 0 00-3 2.8v5.6h-8.5L264 22v2.8c0 1.6 1.3 2.8 2.8 2.8h22.8c1.6 0 2.9-1.2 2.9-2.8v-14c0-1.6-1.3-2.8-2.9-2.8H267z" class="active"/>
  <path  d="M254.4 32c-.5-1.5-2-2.4-3.5-2.2l-24.3 3c-1 .2-2 .9-2.4 1.9L212.1 64a3 3 0 001.6 4c1.6.7 3.5 0 4.2-1.6l8-19.3 2 20v23.6c0 1.7 1.4 3.1 3.1 3.1 1.8 0 3.2-1.4 3.2-3V68.7c0-3.4 2.5-5.8 5.9-5.8 3.4 0 5.9 2.4 5.9 5.8v22c0 1.7 1.4 3.1 3.1 3.1 1.8 0 3.2-1.4 3.2-3V68.7c0-.7 0-1.3-.2-2l1.3-23.8 1.3 2 .5.7c2.2 3.1 5.6 8 9.7 8 5 0 8.7-5.1 11-9h2.6c1.7 0 3.1-1.3 3.1-3s-1.4-3-3.1-3H274c-1.2 0-2.3.6-2.9 1.6-1.2 2.3-3.2 6.2-6 7-2-1.2-3.4-3.3-4.8-5.2l-.4-.6c-2.7-3.8-5-8-5.5-9.6zm-6.4 4.5l-1.2 22.3a12.5 12.5 0 00-14 .3l-2.2-20.6 17.4-2z" class="active"/>
  <path d="M333.6 26.9a3.4 3.4 0 10-4.9-4.9L303 47.7a3.4 3.4 0 000 4.9l25.7 25.7a3.4 3.4 0 004.9-4.8l-23.3-23.3 23.3-23.3z" class="active"/>
  <path d="M367 73.5a3.4 3.4 0 004.9 4.8l25.7-25.7a3.4 3.4 0 000-4.9L371.9 22A3.4 3.4 0 00367 27l23.3 23.3L367 73.5z" class="active"/>
  <path d="M348.3 71.6a4.3 4.3 0 11-8.6 0 4.3 4.3 0 018.6 0z" class="active"/>
  <path d="M356.9 75.9a4.3 4.3 0 100-8.6 4.3 4.3 0 000 8.6z" class="active"/>
  <path  d="M16.7 180v-60.1c0-6.2 5-11.2 11.1-11.2h34.3c6.2 0 11.2 5 11.2 11.2v42.9c0 6.1-5 11.1-11.2 11.1H27.8a6 6 0 000 12h43a6 6 0 006-6v-64.3a2.6 2.6 0 015 0v64.3c0 6.2-5 11.2-11 11.2h-43c-6.1 0-11.1-5-11.1-11.2zm11.1-66.1a6 6 0 00-6 6v50.6c1.8-1.1 3.8-1.7 6-1.7h34.3a6 6 0 006-6v-43a6 6 0 00-6-6H27.8z" class="inactive"/>
  <path d="M27.5 177c-1.4 0-2.6 1.3-2.6 2.8 0 1.5 1.2 2.8 2.6 2.8h42.9c1.4 0 2.6-1.3 2.6-2.8 0-1.5-1.2-2.7-2.6-2.7h-43z" class="inactive"/>
  <path  d="M149.7 186.9a37.5 37.5 0 100-75 37.5 37.5 0 000 75zm0 5.1a42.6 42.6 0 100-85.2 42.6 42.6 0 000 85.2zm23.1-40.3a3 3 0 000-4.6l-21.3-17a3 3 0 00-4.8 2.3v34a3 3 0 004.8 2.4l21.3-17zm-34.2-19.3a3 3 0 00-6 0v34a3 3 0 006 0v-34z" class="inactive"/>
  <path d="M231 165l-3.4-28 24-4.2-2 32.3c-1.2-2-4.8-6.3-10.3-6.9-5.5-.5-7.8 4.4-8.3 6.9z" class="inactive"/>
  <path d="M249 116.2a11.5 11.5 0 11-23 0 11.5 11.5 0 0123 0z" class="inactive"/>
  <path d="M267 108a2.8 2.8 0 00-3 2.8v5.6h-8.5l8.6 5.6v2.8c0 1.6 1.3 2.8 2.8 2.8h22.8c1.6 0 2.9-1.2 2.9-2.8v-14c0-1.6-1.3-2.8-2.9-2.8H267z" class="inactive"/>
  <path  d="M254.4 132c-.5-1.5-2-2.4-3.5-2.2l-24.3 3c-1 .2-2 .9-2.4 1.9L212.1 164a3 3 0 001.6 4c1.6.7 3.5 0 4.2-1.6l8-19.3 2 20v23.6c0 1.7 1.4 3.1 3.1 3.1 1.8 0 3.2-1.4 3.2-3v-22.1c0-3.4 2.5-5.8 5.9-5.8 3.4 0 5.9 2.4 5.9 5.8v22c0 1.7 1.4 3.1 3.1 3.1 1.8 0 3.2-1.4 3.2-3v-22.1c0-.7 0-1.3-.2-2l1.3-23.8 1.3 2 .5.7c2.2 3.1 5.6 8 9.7 8 5 0 8.7-5.1 11-9h2.6c1.7 0 3.1-1.3 3.1-3s-1.4-3-3.1-3H274c-1.2 0-2.3.6-2.9 1.6-1.2 2.3-3.2 6.2-6 7-2-1.2-3.4-3.3-4.8-5.2l-.4-.6c-2.7-3.8-5-8-5.5-9.6zm-6.4 4.5l-1.2 22.3a12.5 12.5 0 00-14 .3l-2.2-20.6 17.4-2z" class="inactive"/>
  <path d="M333.6 126.9a3.4 3.4 0 00-4.9-4.9L303 147.7a3.4 3.4 0 000 4.9l25.7 25.7a3.4 3.4 0 004.9-4.8l-23.3-23.3 23.3-23.3z" class="inactive"/>
  <path d="M367 173.5a3.4 3.4 0 004.9 4.8l25.7-25.7a3.4 3.4 0 000-4.9L371.9 122a3.4 3.4 0 00-4.9 4.9l23.3 23.3-23.3 23.3z" class="inactive"/>
  <path d="M348.3 171.6a4.3 4.3 0 11-8.6 0 4.3 4.3 0 018.6 0z" class="inactive"/>
  <path d="M356.9 175.9a4.3 4.3 0 100-8.6 4.3 4.3 0 000 8.6z" class="inactive"/>
</svg>