<svg xmlns="http://www.w3.org/2000/svg" fill="none" viewBox="0 0 32 32">
  <g clip-path="url(#clip0)">
    <rect width="32" height="32" fill="#fff"/>
    <path fill="#9AB" d="M6.4 14.8l7.5 6.6 2.4-2.3c.2-.2.2-.6 0-.8l-4.7-4.1a.8.8 0 010-1l6.6-6-3-2.7-8.8 8c-.4.3-.6.7-.6 1.1 0 .5.2.9.6 1.2z"/>
    <path fill="#9AB" d="M25.8 17.6L18.3 11l-2.4 2.2c-.3.3-.3.7 0 1l4.6 4c.3.3.3.8 0 1l-6.5 6 3 2.7 7-6.4 1.8-1.6c.7-.6.7-1.7 0-2.3z"/>
  </g>
  <defs>
    <clipPath id="clip0">
      <rect width="32" height="32" fill="#fff"/>
    </clipPath>
  </defs>
</svg>
