<svg xmlns="http://www.w3.org/2000/svg" fill="none" viewBox="0 0 32 32">
  <g clip-path="url(#clip0)">
    <rect width="32" height="32" fill="#fff"/>
    <path fill="#9AB" d="M28 9.4c-.7 1-1.5 1.9-2.4 2.6v.6c0 1.5-.2 2.9-.6 4.2v-.1c-.4 1.5-1 2.8-1.7 4v-.1A11.7 11.7 0 0117 26c-1.4.6-3 .9-4.6.9h-.2C9.5 27 7 26.2 5 24.7l1.1.1h.2c2.2 0 4.2-.8 5.7-2.2-2 0-3.8-1.4-4.4-3.4h.9c.4 0 .9 0 1.3-.2-1.2-.2-2-.8-2.7-1.7A5 5 0 016 14.2V14c.6.3 1.3.5 2 .6h.1a5 5 0 01-1.5-1.8 5.3 5.3 0 010-5c1.2 1.5 2.6 2.8 4.3 3.7 1.6 1 3.4 1.5 5.4 1.6l-.1-1.2c0-2.7 2.1-5 4.7-5 1.3 0 2.6.6 3.4 1.6 1.1-.2 2.1-.7 3-1.3-.4 1.3-1 2.2-2 2.8 1 0 1.9-.3 2.7-.8z"/>
  </g>
  <defs>
    <clipPath id="clip0">
      <rect width="32" height="32" fill="#fff"/>
    </clipPath>
  </defs>
</svg>
