<svg xmlns="http://www.w3.org/2000/svg" fill="none" viewBox="0 0 30 30">
  <circle cx="15" cy="15" r="14.5" fill="#fff" stroke="#9AB"/>
  <path fill="#9AB" d="M22.3 10.8c-.4.6-1 1.2-1.5 1.6v.4c0 .9-.1 1.7-.4 2.5a9.3 9.3 0 01-2.8 4.4 8.6 8.6 0 01-5.4 2v-.1c-1.8 0-3.4-.6-4.7-1.4H8.3c1.4 0 2.7-.5 3.7-1.3a3 3 0 01-2.8-2.1h1.4a3 3 0 01-1.8-1.1 3 3 0 01-.7-2c.4.2.9.3 1.4.3a3 3 0 01-1-4.1c.8 1 1.7 1.7 2.8 2.3 1 .5 2.2.9 3.5 1v-.7a3 3 0 013-3.1 3 3 0 012.2 1l2-.8h-.1a3 3 0 01-1.3 1.7 6 6 0 001.7-.5z"/>
</svg>
