<svg xmlns="http://www.w3.org/2000/svg" fill="none" viewBox="0 0 32 32">
  <g clip-path="url(#clip0)">
    <rect width="32" height="32" fill="#fff"/>
    <path fill="#9AB" d="M25.4 12.3c-.5.7-1 1.3-1.7 1.8v.5c0 1-.2 2-.5 2.9v-.1a10.6 10.6 0 01-3.2 5c-.7.6-1.6 1.2-2.6 1.5h-.1c-1 .4-2.2.6-3.4.6h-.1c-2 0-3.8-.6-5.3-1.6l.9.1c1.7 0 3.1-.6 4.3-1.5-1.5 0-2.8-1-3.2-2.4H12c-.9-.2-1.6-.7-2-1.3-.6-.6-.8-1.3-.8-2.2.4.2 1 .4 1.5.4-.5-.3-.8-.8-1.1-1.2a3.5 3.5 0 010-3.5 9.3 9.3 0 007 3.7h.1v-.8c0-2 1.5-3.5 3.4-3.5 1 0 1.9.4 2.5 1 .8 0 1.6-.4 2.2-.8-.3.9-.8 1.5-1.5 2 .7-.1 1.4-.3 2-.6z"/>
  </g>
  <defs>
    <clipPath id="clip0">
      <rect width="32" height="32" fill="#fff"/>
    </clipPath>
  </defs>
</svg>
