<svg width="398" height="65" viewBox="0 0 398 65" fill="none" xmlns="http://www.w3.org/2000/svg">
<text fill="black" xml:space="preserve" style="white-space: pre" font-family="Corben" font-size="36" font-weight="bold" letter-spacing="0em"><tspan x="77" y="48.8213">trashmonger</tspan></text>
<circle cx="31" cy="34" r="30" fill="#BA296F" stroke="black" stroke-width="2"/>
<path d="M28.7691 17.6115C29.9169 16.491 30.5406 15.4522 30.72 14.8687C30.8888 15.4522 31.5184 16.491 32.5987 17.6115C33.2913 18.3299 34.5105 19.0387 35.6226 19.6549C40.5867 21.91 44.1911 27.3702 44.5939 33.873C44.6353 33.8849 44.6766 33.8977 44.7177 33.9115C46.475 34.5015 47.3491 36.6908 46.67 38.8015C46.1244 40.4974 44.7422 41.6266 43.3084 41.6989C42.8173 42.887 42.2053 44.0024 41.4998 45.0256C41.4427 45.3195 41.3662 45.6166 41.2696 45.914C40.4333 48.4879 38.3926 50.1505 36.6357 49.738C34.6959 50.9494 32.5884 51.635 30.5377 51.635C28.6224 51.635 26.5276 50.9114 24.5525 49.6375C22.7901 50.0832 20.7245 48.4232 19.8745 45.8368C19.7637 45.4998 19.6789 45.1632 19.6189 44.831C18.9378 43.8565 18.3387 42.8013 17.8497 41.6817C16.2508 41.8767 14.6046 40.6908 13.9968 38.8015C13.3178 36.6908 14.1918 34.5015 15.9491 33.9115C16.1267 33.8519 16.3065 33.8109 16.4869 33.7875C16.9315 27.0864 20.7771 21.5057 25.9993 19.4218C27.0502 18.863 28.1244 18.2409 28.7691 17.6115Z" fill="#FEE6E6"/>
<path fill-rule="evenodd" clip-rule="evenodd" d="M30.7295 13.6431C31.2714 13.6476 31.746 14.0075 31.8966 14.5281C31.9849 14.8334 32.4579 15.7004 33.4803 16.7609C34.015 17.3154 35.0403 17.9304 36.1743 18.5598C41.3822 20.948 45.1032 26.4917 45.7544 33.0286C47.8415 34.1452 48.5832 36.8541 47.836 39.1768C47.2538 40.9862 45.8522 42.3985 44.1616 42.8077C43.7258 43.7612 43.217 44.6666 42.6485 45.5147C42.59 45.7736 42.5187 46.0333 42.4344 46.2927C41.953 47.7744 41.1116 49.0408 40.0754 49.8926C39.1836 50.6257 38.0628 51.1099 36.8908 51.0152C34.899 52.1794 32.7148 52.8605 30.537 52.8605C28.4657 52.8605 26.2972 52.1334 24.2937 50.9212C23.1217 51.0279 21.9964 50.5529 21.0994 49.8266C20.0516 48.9781 19.1987 47.7081 18.7095 46.2194C18.6107 45.9188 18.5294 45.6175 18.4652 45.3177C17.9486 44.5574 17.4782 43.7518 17.0657 42.9071C15.1307 42.7078 13.4706 41.1698 12.8295 39.1768C12.033 36.7013 12.928 33.7871 15.3404 32.8294C16.0726 26.1424 20.0232 20.5182 25.4804 18.3092C26.5242 17.752 27.4204 17.2147 27.9123 16.7345C28.9795 15.6927 29.451 14.8236 29.5478 14.5086C29.707 13.9906 30.1875 13.6386 30.7295 13.6431ZM25.9986 19.4218C20.7764 21.5056 16.9308 27.0863 16.4862 33.7875C16.3058 33.8109 16.126 33.8519 15.9484 33.9115C14.1911 34.5014 13.3171 36.6907 13.9961 38.8015C14.6039 40.6907 16.2501 41.8767 17.849 41.6817C18.338 42.8012 18.9371 43.8564 19.6182 44.831C19.6782 45.1631 19.763 45.4997 19.8738 45.8368C20.7238 48.4231 22.7894 50.0832 24.5518 49.6375C26.5269 50.9114 28.6217 51.635 30.537 51.635C32.5877 51.635 34.6951 50.9494 36.635 49.738C38.3919 50.1504 40.4326 48.4879 41.2689 45.914C41.3655 45.6165 41.442 45.3194 41.4991 45.0256C42.2046 44.0023 42.8166 42.8869 43.3077 41.6989C44.7415 41.6265 46.1237 40.4974 46.6693 38.8015C47.3484 36.6907 46.4743 34.5014 44.717 33.9115C44.6759 33.8977 44.6346 33.8848 44.5932 33.873C44.1904 27.3701 40.586 21.91 35.6219 19.6548C34.5098 19.0387 33.2906 18.3299 32.598 17.6115C32.1257 17.1216 31.7395 16.6474 31.4404 16.2199C31.0552 15.6697 30.8143 15.1971 30.7193 14.8686C30.6188 15.1956 30.3789 15.6654 29.9854 16.2124C29.6766 16.6418 29.2732 17.1187 28.7684 17.6115C28.1237 18.2409 27.0495 18.8629 25.9986 19.4218Z" fill="black"/>
<path fill-rule="evenodd" clip-rule="evenodd" d="M31.0662 12.3528L30.6079 11L30.1331 12.3478L30.1325 12.3496L30.1302 12.3561L30.1205 12.3832C30.1118 12.4073 30.0986 12.4433 30.0814 12.4898C30.0468 12.5829 29.9956 12.7181 29.9298 12.8844C29.7981 13.2175 29.6086 13.6739 29.3773 14.1679C28.904 15.1786 28.2915 16.2658 27.6792 16.8221C27.5374 16.951 27.1882 17.1891 26.6998 17.4929C26.2255 17.788 25.6568 18.1227 25.1072 18.439C24.5582 18.7549 24.0311 19.0507 23.6411 19.2677C23.4462 19.3761 23.2856 19.4647 23.1739 19.5262C23.1181 19.557 23.0745 19.5809 23.0448 19.5971L23 19.6217L23.4535 20.4291L25.7496 19.4412L24.0431 22.1637L26.7385 21.0235L24.861 24.0188L28.1543 22.231L27.1342 24.5244L29.6862 23.119L28.9282 25L30.1595 24.2776C30.8266 23.8862 32.5171 22.79 34.0213 21.4895C35.0711 20.5817 35.6109 19.7484 35.8541 19.1449L36 18.7829L35.6401 18.5897C34.6938 18.0817 34.1295 17.5357 33.5124 16.9386C33.4758 16.9032 33.439 16.8676 33.4019 16.8319C32.8257 16.2757 32.2427 15.1869 31.7905 14.1749C31.5695 13.6805 31.3879 13.2236 31.2616 12.8902C31.1985 12.7237 31.1493 12.5884 31.1161 12.4952C31.0994 12.4486 31.0868 12.4125 31.0784 12.3883L31.069 12.3611L31.0668 12.3545L31.0662 12.3528ZM27.8934 17.8313L26.4419 20.147L29.1373 19.0068L27.5843 21.4844L30.1719 20.0797L29.1634 22.347L31.5804 21.016L30.9057 22.6902C31.6342 22.1923 32.5252 21.538 33.3542 20.8212C34.0967 20.1792 34.5307 19.6023 34.7727 19.1648C33.921 18.6508 33.3553 18.103 32.8165 17.5812C32.7763 17.5423 32.7363 17.5035 32.6963 17.465C31.9766 16.7702 31.3344 15.5297 30.8855 14.5252C30.7768 14.282 30.6775 14.048 30.5891 13.8323C30.4959 14.0499 30.3909 14.2865 30.2758 14.5323C29.8048 15.5381 29.1286 16.78 28.3639 17.4748C28.2537 17.5749 28.0898 17.6969 27.8934 17.8313Z" fill="black"/>
<path d="M25.7325 37.806V36.2696L26.1204 36.2065L26.1496 37.9374C26.016 37.8798 25.8765 37.8355 25.7325 37.806Z" fill="black"/>
<path d="M25.4083 37.767L24.9333 36.3741L24.5633 36.5107L25.013 37.8295C25.1411 37.7965 25.2732 37.7754 25.4083 37.767Z" fill="black"/>
<path d="M24.4912 38.0395L23.7118 36.6434L23.3723 36.8486L24.1623 38.2635C24.2659 38.1792 24.3759 38.1042 24.4912 38.0395Z" fill="black"/>
<path d="M23.7962 38.632L22.7389 37.3318L22.4392 37.5956L23.5612 38.9755C23.6313 38.8537 23.7099 38.7389 23.7962 38.632Z" fill="black"/>
<path d="M23.3198 39.5258L22.1231 38.5297L21.8779 38.8487L23.2178 39.964C23.2408 39.8132 23.2752 39.6668 23.3198 39.5258Z" fill="black"/>
<path d="M23.1859 40.5412L21.7399 39.964L21.5596 40.3269L23.2471 41.0341C23.2135 40.8748 23.1927 40.7101 23.1859 40.5412Z" fill="black"/>
<path d="M27.104 38.4338V36.4423H26.7114V38.1148C26.8521 38.2059 26.9836 38.313 27.104 38.4338Z" fill="black"/>
<path d="M28.4788 40.3231C28.4788 42.0153 27.1605 43.387 25.5343 43.387C23.9081 43.387 22.5898 42.0153 22.5898 40.3231C22.5898 38.631 23.9081 37.2593 25.5343 37.2593C27.1605 37.2593 28.4788 38.631 28.4788 40.3231Z" fill="white"/>
<path fill-rule="evenodd" clip-rule="evenodd" d="M25.5343 42.57C26.7269 42.57 27.6936 41.564 27.6936 40.3231C27.6936 39.0823 26.7269 38.0763 25.5343 38.0763C24.3418 38.0763 23.375 39.0823 23.375 40.3231C23.375 41.564 24.3418 42.57 25.5343 42.57ZM25.5343 43.387C27.1605 43.387 28.4788 42.0153 28.4788 40.3231C28.4788 38.631 27.1605 37.2593 25.5343 37.2593C23.9081 37.2593 22.5898 38.631 22.5898 40.3231C22.5898 42.0153 23.9081 43.387 25.5343 43.387Z" fill="black"/>
<path d="M27.6925 41.1406C27.6925 42.1558 26.9016 42.9789 25.9259 42.9789C24.9502 42.9789 24.1592 42.1558 24.1592 41.1406C24.1592 40.1253 24.9502 39.3022 25.9259 39.3022C26.9016 39.3022 27.6925 40.1253 27.6925 41.1406Z" fill="black"/>
<path d="M34.8341 37.6356L34.9007 36.2696L34.5128 36.2065L34.417 37.767C34.5506 37.7094 34.6901 37.6651 34.8341 37.6356Z" fill="black"/>
<path d="M35.2249 37.767L35.6999 36.3741L36.0699 36.5107L35.6202 37.8295C35.4921 37.7965 35.36 37.7754 35.2249 37.767Z" fill="black"/>
<path d="M36.142 38.0395L36.9213 36.6434L37.2608 36.8486L36.4709 38.2635C36.3673 38.1792 36.2573 38.1042 36.142 38.0395Z" fill="black"/>
<path d="M36.837 38.632L37.8943 37.3318L38.194 37.5956L37.072 38.9755C37.0019 38.8537 36.9233 38.7389 36.837 38.632Z" fill="black"/>
<path d="M37.3134 39.5258L38.51 38.5297L38.7552 38.8487L37.4154 39.964C37.3923 39.8132 37.358 39.6668 37.3134 39.5258Z" fill="black"/>
<path d="M37.4473 40.5412L39.0003 39.8565L39.1807 40.2193L37.3861 41.0341C37.4196 40.8748 37.4404 40.7101 37.4473 40.5412Z" fill="black"/>
<path d="M33.5293 38.4338V36.4423H33.9219V38.1148C33.7812 38.2059 33.6497 38.313 33.5293 38.4338Z" fill="black"/>
<path d="M32.1562 40.3231C32.1562 42.0153 33.4744 43.387 35.1005 43.387C36.7267 43.387 38.0449 42.0153 38.0449 40.3231C38.0449 38.631 36.7267 37.2593 35.1005 37.2593C33.4744 37.2593 32.1562 38.631 32.1562 40.3231Z" fill="white"/>
<path fill-rule="evenodd" clip-rule="evenodd" d="M35.1005 42.57C33.908 42.57 32.9413 41.564 32.9413 40.3231C32.9413 39.0823 33.908 38.0763 35.1005 38.0763C36.293 38.0763 37.2598 39.0823 37.2598 40.3231C37.2598 41.564 36.293 42.57 35.1005 42.57ZM35.1005 43.387C33.4744 43.387 32.1562 42.0153 32.1562 40.3231C32.1562 38.631 33.4744 37.2593 35.1005 37.2593C36.7267 37.2593 38.0449 38.631 38.0449 40.3231C38.0449 42.0153 36.7267 43.387 35.1005 43.387Z" fill="black"/>
<path d="M33.789 41.1406C33.789 42.1558 34.58 42.9789 35.5556 42.9789C36.5313 42.9789 37.3223 42.1558 37.3223 41.1406C37.3223 40.1253 36.5313 39.3022 35.5556 39.3022C34.58 39.3022 33.789 40.1253 33.789 41.1406Z" fill="black"/>
<path d="M32.1261 43.3035C31.9122 43.1966 31.7021 43.2045 31.5263 43.2524C31.3665 43.296 31.217 43.3782 31.1067 43.4395C30.8508 43.5817 30.6934 43.6689 30.5136 43.6689V43.6682C30.2747 43.6682 30.0593 43.5742 29.7779 43.4486C29.6495 43.3914 29.4932 43.3217 29.3344 43.28C29.1695 43.2367 28.9717 43.2147 28.7621 43.2776C28.7257 43.2885 28.7084 43.2895 28.7061 43.2897C28.7069 43.2897 28.7094 43.2898 28.7134 43.2903C28.7277 43.2921 28.7488 43.2978 28.7719 43.3101C28.7871 43.3183 28.8032 43.3293 28.8189 43.3439C28.8543 43.3772 28.8686 43.4118 28.8738 43.4288C28.8789 43.4449 28.8795 43.4565 28.8795 43.4647H28.0625C28.0625 43.5519 28.0801 43.7709 28.2593 43.9393C28.4665 44.134 28.7457 44.1355 28.9969 44.0601C29.0143 44.0549 29.0492 44.0498 29.1268 44.0702C29.2106 44.0922 29.3067 44.1331 29.445 44.1948L29.4825 44.2116C29.7335 44.324 30.093 44.4852 30.5136 44.4852V44.4859C30.9137 44.4859 31.2458 44.2988 31.4546 44.1811C31.4718 44.1714 31.4881 44.1623 31.5035 44.1537C31.623 44.0873 31.6905 44.0545 31.7413 44.0407C31.7527 44.0376 31.7601 44.0364 31.7641 44.036C32.0493 44.1773 32.3348 44.1513 32.5506 44.0467C32.6553 43.9959 32.7486 43.9244 32.8202 43.8385C32.8846 43.7613 32.9647 43.6311 32.9647 43.4647H32.1477C32.1477 43.4116 32.1611 43.3733 32.1699 43.3534C32.1792 43.3325 32.1885 43.3204 32.1926 43.3155C32.1968 43.3104 32.1991 43.3086 32.1991 43.3086C32.1991 43.3086 32.1975 43.3099 32.1941 43.3115C32.1881 43.3144 32.1807 43.3165 32.1722 43.3166C32.1652 43.3167 32.1503 43.3156 32.1261 43.3035Z" fill="black"/>
<path fill-rule="evenodd" clip-rule="evenodd" d="M28.4858 46.2461C28.3979 46.3878 28.2463 46.5869 28.0406 46.6897C28.0314 46.6943 28.0219 46.6991 28.0121 46.704C27.8299 46.7956 27.5483 46.9371 27.2451 46.9371V46.12C27.3338 46.12 27.4463 46.0733 27.6725 45.9603C27.6725 45.9603 27.6853 45.9517 27.7084 45.9268C27.7352 45.898 27.7644 45.8592 27.7917 45.8153C27.8189 45.7713 27.8395 45.7298 27.852 45.6986C27.8582 45.6832 27.8608 45.6742 27.8614 45.6718C27.8627 45.6668 27.8579 45.6822 27.8579 45.7115H28.6749C28.6749 45.8254 28.6381 45.9333 28.6106 46.0021C28.5784 46.0826 28.5352 46.1667 28.4858 46.2461Z" fill="black"/>
<path fill-rule="evenodd" clip-rule="evenodd" d="M28.8576 46.3674C29.0238 46.4505 29.3083 46.4996 29.6495 46.5195C29.9805 46.5389 30.2791 46.704 30.5 46.704V47.521C30.3123 47.521 29.9646 47.3564 29.6018 47.3352C29.2491 47.3146 28.8187 47.2615 28.4922 47.0982L27.6752 46.6897L28.0406 45.9589L28.8576 46.3674Z" fill="black"/>
<path fill-rule="evenodd" clip-rule="evenodd" d="M32.5406 46.2461C32.6286 46.3878 32.7802 46.5869 32.9859 46.6897C32.9951 46.6943 33.0046 46.6991 33.0144 46.704C33.1966 46.7956 33.4782 46.9371 33.7814 46.9371V46.12C33.6927 46.12 33.5802 46.0733 33.354 45.9603C33.354 45.9603 33.3412 45.9517 33.3181 45.9268C33.2913 45.898 33.2621 45.8592 33.2348 45.8153C33.2076 45.7713 33.1869 45.7298 33.1745 45.6986C33.1683 45.6832 33.1657 45.6742 33.1651 45.6718C33.1638 45.6668 33.1686 45.6822 33.1686 45.7115H32.3516C32.3516 45.8254 32.3884 45.9333 32.4159 46.0021C32.4481 46.0826 32.4913 46.1667 32.5406 46.2461Z" fill="black"/>
<path fill-rule="evenodd" clip-rule="evenodd" d="M32.1689 46.3674C32.0026 46.4505 31.7182 46.4996 31.377 46.5195C31.0459 46.5389 30.7209 46.704 30.5 46.704V47.521C30.6877 47.521 31.0619 47.3564 31.4247 47.3352C31.7773 47.3146 32.2078 47.2615 32.5343 47.0982L33.3513 46.6897L32.9859 45.9589L32.1689 46.3674Z" fill="black"/>
</svg>
