<?xml version="1.0" encoding="utf-8"?>
<svg width="200" viewBox="0 0 1800 450" fill="none" xmlns="http://www.w3.org/2000/svg" xmlns:bx="https://boxy-svg.com">
  <defs>
    <style>
    .spriteset{
        animation: walkme 1s steps(8) infinite;
    }
    @keyframes walkme{
        0%{transform: translatex(0)}
        100%{transform: translatex(-1800px)}
    }
    </style>


  </defs>
  <g class="spriteset">
    <path fill="#fff" d="M0 0h1799v450H0z"/>
    <path d="M 367.5 94 C 367.5 103.4 364.8 111.8 360.5 117.9 C 356.1 123.9 350.3 127.5 344 127.5 C 337.7 127.5 331.9 123.9 327.5 117.9 C 323.2 111.9 320.5 103.4 320.5 94 C 320.5 84.6 323.2 76.2 327.5 70.1 C 331.9 64.1 337.7 60.5 344 60.5 C 350.3 60.5 356.1 64.1 360.5 70.1 C 364.8 76.1 367.5 84.6 367.5 94 Z" fill="#fff" stroke="#000" stroke-width="3"/>
    <path d="M 320.7 89.2 C 325 95.3 328.5 99.2 340.1 99.2 C 350.1 99.2 363 95.3 368.6 89.2" stroke="#000" stroke-width="3"/>
    <path d="M 347.9 60.7 C 340.9 64.2 336.7 80.1 336.7 91.8 C 336.7 108.3 343.6 123.8 347.9 127.3" stroke="#000" stroke-width="3"/>
    <path d="M 593.4 103.5 C 592.4 112.8 588.8 120.9 583.8 126.5 C 578.8 132.1 572.7 135 566.4 134.3 C 560.2 133.6 554.7 129.5 551.1 123 C 547.12 115.49 545.55 106.93 546.6 98.5 C 547.6 89.2 551.2 81.1 556.2 75.5 C 561.2 69.9 567.3 67 573.6 67.7 C 579.8 68.4 585.3 72.5 588.9 79 C 592.88 86.51 594.45 95.07 593.4 103.5 Z" fill="#fff" stroke="#000" stroke-width="3"/>
    <path d="M 547.4 93.8 C 551 100.3 554 104.5 565.6 105.8 C 575.4 106.8 588.7 104.3 594.9 98.8" stroke="#000" stroke-width="3"/>
    <path d="M 577.4 68.3 C 570.2 71 564.2 86.3 562.9 98.1 C 561.2 114.4 566.4 130.6 570.3 134.5" stroke="#000" stroke-width="3"/>
    <path d="M 1492 103.1 C 1491.82 111.6 1489.03 119.84 1484 126.7 C 1479.3 132.5 1473.3 135.8 1467 135.5 C 1460.7 135.3 1455 131.5 1451 125.2 C 1447 119 1444.6 110.4 1445 101 C 1445.5 91.7 1448.6 83.3 1453.2 77.5 C 1457.7 71.6 1463.7 68.3 1470 68.6 C 1476.3 68.9 1482 72.7 1486 79 C 1490 85.2 1492.4 93.7 1492 103.1 Z" fill="#fff" stroke="#000" stroke-width="3"/>
    <path d="M 1445.5 96.3 C 1449.5 102.5 1452.8 106.6 1464.5 107.1 C 1474.3 107.5 1487.5 104.2 1493.3 98.4" stroke="#000" stroke-width="3"/>
    <path d="M 1473.9 69 C 1466.9 72.2 1461.9 87.9 1461.3 99.6 C 1460.6 116 1466.8 131.8 1470.9 135.5" stroke="#000" stroke-width="3"/>
    <path d="M 804.3 92.3 C 803.25 100.76 799.62 108.68 793.9 115 C 788.8 120.3 782.5 123 776.3 122.2 C 770.1 121.2 764.8 116.9 761.3 110.3 C 757.9 103.7 756.4 95 757.7 85.7 C 758.75 77.24 762.38 69.32 768.1 63 C 773.1 57.7 779.5 55 785.7 55.8 C 791.9 56.8 797.2 61.1 800.7 67.7 C 804.1 74.3 805.6 83 804.3 92.3 Z" fill="#fff" stroke="#000" stroke-width="3"/>
    <path d="M 758.6 81 C 762 87.6 764.9 92 776.4 93.6 C 786.2 95 799.6 93 806 87.7" stroke="#000" stroke-width="3"/>
    <path d="M 789.5 56.6 C 782.2 59.1 775.7 74.2 774 85.8 C 771.7 102.1 776.4 118.5 780.2 122.5" stroke="#000" stroke-width="3"/>
    <path d="M 573 279 L 568.5 348 L 531.63 393.53 L 540.5 405.07 L 552.5 405.07 M 787.5 260 L 767.5 334.5 L 731.07 382.46 L 737.49 405.07 L 746.59 405.07 M 1017.42 251.45 C 1010.86 255.34 989.61 336.66 989.61 336.66 L 933.83 378.13 L 941.41 399.71 L 951.8 405.07 M 1248.8 276 L 1216.3 360.5 L 1160.8 372.5 L 1167.3 393 L 1174.3 404.5 M 345 276 L 396 346.5 L 375 403.5 L 408 403.5 M 1685 257 L 1746.5 322 L 1696 354.5 L 1715 369 L 1715 380.5" stroke="#000" stroke-width="4"/>
    <path d="M 565.4 279.45 L 559.6 153.4 L 582.6 151.1 L 587.06 279.45 L 565.4 279.45 Z" fill="#fff" stroke="#000" stroke-width="3"/>
    <path d="M 577.17 267.89 L 607.67 342.89 L 543 350 L 551 373 L 551 384.5 M 1471 281 L 1500 349.5 L 1438 357.5 L 1446 380.5 L 1446 392" stroke="#000" stroke-width="4"/>
    <path d="M 1485.4 279.7 L 1461.9 283.7 L 1455.6 150.5 L 1477.6 150.5 L 1485.4 279.7 Z" fill="#fff" stroke="#000" stroke-width="3"/>
    <path d="M 1473.28 267.69 L 1464.5 353 L 1428 388.5 L 1436.5 404.5 L 1448.5 404.5" stroke="#000" stroke-width="4"/>
    <path d="M578.5 244.7c9.9-.4 26.1 7.5 22.6 15.8-5.4 13-19.8-11-22.6-15.8z" fill="#fff"/>
    <path d="M571.5 164.5l-12.5 50 19.5 30.2m0 0c9.9-.4 26.1 7.5 22.6 15.8-5.4 13-19.8-11-22.6-15.8z" stroke="#000" stroke-width="3"/>
    <path d="M1474.1 249.5c9.9-.3 26.1 7.5 22.7 15.8-5.5 13-19.8-10.9-22.7-15.8z" fill="#fff"/>
    <path d="M1467.1 169.4l-12.5 50 19.5 30.1m0 0c9.9-.3 26.1 7.5 22.7 15.8-5.5 13-19.8-10.9-22.7-15.8z" stroke="#000" stroke-width="3"/>
    <path d="M822 195.4c8.6-4.7 25.8-8.9 26.4 0 .8 14.1-21.7 3.1-26.4 0z" fill="#fff"/>
    <path d="M786.5 144l-9.7 52.1 45.2-.7m0 0c8.6-4.7 25.8-8.9 26.4 0 .8 14.1-21.7 3.1-26.4 0z" stroke="#000" stroke-width="3"/>
    <path d="M65.1 217.4c4.6 8.7 8.5 26-.4 26.4-14 .6-2.8-21.8.4-26.4z" fill="#fff"/>
    <path d="M109.3 141L65 172.2l.1 45.2m0 0c4.6 8.7 8.5 26-.4 26.4-14 .6-2.8-21.8.4-26.4z" stroke="#000" stroke-width="3"/>
    <path d="M274.4 223.3c3 9.4 4 27-5 26-13.9-1.7 1-22 5-26z" fill="#fff"/>
    <path d="M333.8 160l-49.5 25.5-10 37.8m0 0c3.1 9.4 4.1 27-4.8 26-14-1.7 1-22 4.9-26z" stroke="#000" stroke-width="3"/>
    <path d="M 143.5 81 C 143.5 90.4 140.8 98.8 136.5 104.9 C 132.1 110.9 126.3 114.5 120 114.5 C 113.7 114.5 107.9 110.9 103.5 104.9 C 99.2 98.9 96.5 90.4 96.5 81 C 96.5 71.6 99.2 63.2 103.5 57.1 C 107.9 51.1 113.7 47.5 120 47.5 C 126.3 47.5 132.1 51.1 136.5 57.1 C 140.8 63.1 143.5 71.6 143.5 81 Z" fill="#fff" stroke="#000" stroke-width="3"/>
    <path d="M 96.7 76.2 C 101 82.3 104.5 86.2 116.1 86.2 C 126.1 86.2 139 82.3 144.6 76.2" stroke="#000" stroke-width="3"/>
    <path d="M 123.9 47.7 C 116.9 51.2 112.7 67.1 112.7 78.8 C 112.7 95.3 119.6 110.8 123.9 114.3" stroke="#000" stroke-width="3"/>
    <path d="M 122.35 249.66 L 159 328.5 L 172 403 L 193 390.5 L 201.5 380.5" stroke="#000" stroke-width="4"/>
    <path d="M 104.11 270.03 L 107 135.89 L 129 131.2 L 134.56 263.67 L 104.11 270.03 Z" fill="#fff" stroke="#000" stroke-width="3"/>
    <path d="M 115.44 250.5 L 93.5 338.5 L 34 375 L 43 399.5 L 54.5 406" stroke="#000" stroke-width="4"/>
    <path d="M188.5 178.5c-.7-9.8 2.6-27.2 11-24 13.1 5-6.2 21-11 24z" fill="#fff"/>
    <path d="M 123.01 142.72 L 167.5 200.5 L 188.5 178.5 M 188.5 178.5 C 187.8 168.7 191.1 151.3 199.5 154.5 C 212.6 159.5 193.3 175.5 188.5 178.5 Z" stroke="#000" stroke-width="3"/>
    <path d="M 338.4 284.2 L 330.39 145.66 L 354.62 145.9 L 360.5 286.8 L 338.5 284.2 L 338.4 284.2 Z" fill="#fff" stroke="#000" stroke-width="3"/>
    <path d="M 347.83 273.99 L 318 360.5 L 262.5 372.5 L 269 393 L 276 404.5" stroke="#000" stroke-width="4"/>
    <path d="M408.8 206.8c2-9.7 9.6-25.6 16.9-20.3 11.4 8.2-11.4 18.7-16.9 20.3z" fill="#fff"/>
    <path d="M 346.76 160.47 L 374.79 223.05 L 408.8 206.8 M 408.8 206.8 C 410.8 197.1 418.4 190.75 425.7 196.05 C 437.1 204.25 414.3 205.2 408.8 206.8 Z" stroke="#000" stroke-width="3"/>
    <path d="M1308 208.2c1.9-9.7 9.5-25.6 16.8-20.4 11.4 8.3-11.4 18.7-16.8 20.4z" fill="#fff"/>
    <path d="M1244.2 168.3L1282 224l26-15.8m0 0c1.9-9.7 9.5-25.6 16.8-20.4 11.4 8.3-11.4 18.7-16.8 20.4z" stroke="#000" stroke-width="3"/>
    <path d="M1081.5 190.2c2-9.7 9.6-25.6 16.9-20.4 11.4 8.3-11.4 18.7-16.9 20.4z" fill="#fff"/>
    <path d="M1017.7 150.3l37.9 55.7 26-15.8m0 0c1.8-9.7 9.5-25.6 16.8-20.4 11.4 8.3-11.4 18.7-16.9 20.4z" stroke="#000" stroke-width="3"/>
    <path d="M 800.26 265.49 L 778.66 271.81 L 770.39 141.97 L 790.6 140.99 L 799.9 264.7 L 800.26 265.49 Z" fill="#fff" stroke="#000" stroke-width="3"/>
    <path d="M 790.12 258.78 L 843.32 309.84 L 798 354.5 L 817 369 L 817 380.5" stroke="#000" stroke-width="4"/>
    <path d="M765.1 219.1c9.2 3.5 23.6 13.8 17.2 20-10 9.9-16.5-14.3-17.2-20z" fill="#fff"/>
    <path d="M777.5 149.5l-42.5 36 30.1 33.6m0 0c9.2 3.5 23.6 13.8 17.2 20-10 9.9-16.5-14.3-17.2-20z" stroke="#000" stroke-width="3"/>
    <path d="M1677.1 220.5c9.2 3.5 23.6 13.7 17.2 20-10 9.8-16.5-14.4-17.2-20z" fill="#fff"/>
    <path d="M1689.5 150.8l-42.5 36 30.1 33.7m0 0c9.2 3.5 23.6 13.7 17.2 20-10 9.8-16.5-14.4-17.2-20z" stroke="#000" stroke-width="3"/>
    <path d="M 1031.4 83 C 1032 92.3 1029.8 100.9 1025.9 107.2 C 1021.9 113.5 1016.4 117.5 1010.1 117.9 C 1003.8 118.3 997.8 115.1 993.1 109.4 C 988.4 103.6 985.1 95.4 984.5 86 C 983.9 76.6 986 68 989.9 61.7 C 993.9 55.4 999.5 51.4 1005.7 51 C 1012 50.6 1018.1 53.8 1022.7 59.6 C 1027.5 65.3 1030.7 73.6 1031.4 82.9 Z" fill="#fff" stroke="#000" stroke-width="3"/>
    <path d="M 984.4 81.2 C 989.1 87 992.8 90.7 1004.4 89.9 C 1014.3 89.2 1026.9 84.5 1032.1 78.1" stroke="#000" stroke-width="3"/>
    <path d="M 1009.6 51 C 1003 55 999.7 71 1000.5 82.8 C 1001.5 99.2 1009.5 114.2 1014 117.4" stroke="#000" stroke-width="3"/>
    <path d="M 1002.68 267.17 L 1002.12 135.89 L 1024.77 142.14 L 1031.67 269.31 L 1002.68 267.17 Z" fill="#fff" stroke="#000" stroke-width="3"/>
    <path d="M 1019.2 255.73 L 1061.42 328.5 L 1072.51 398.33 L 1092.3 390.5 L 1100.8 380.5" stroke="#000" stroke-width="4"/>
    <path d="M963.1 223.4c4.6 8.7 8.5 26-.4 26.4-14 .6-2.8-21.8.4-26.4z" fill="#fff"/>
    <path d="M1007.3 147L963 178.2l.1 45.2m0 0c4.6 8.7 8.5 26-.4 26.4-14 .6-2.8-21.8.4-26.4z" stroke="#000" stroke-width="3"/>
    <path d="M 1713 92.1 C 1712.82 100.6 1710.03 108.84 1705 115.7 C 1700.3 121.5 1694.3 124.8 1688 124.5 C 1681.7 124.3 1676 120.5 1672 114.2 C 1668 108 1665.6 99.4 1666 90 C 1666.5 80.7 1669.6 72.3 1674.2 66.5 C 1678.7 60.6 1684.7 57.3 1691 57.6 C 1697.3 57.9 1703 61.7 1707 68 C 1711 74.2 1713.4 82.7 1713 92.1 Z" fill="#fff" stroke="#000" stroke-width="3"/>
    <path d="M 1666.5 85.3 C 1670.5 91.5 1673.8 95.6 1685.5 96.1 C 1695.3 96.5 1708.5 93.2 1714.3 87.4" stroke="#000" stroke-width="3"/>
    <path d="M 1694.9 58 C 1687.9 61.2 1682.9 76.9 1682.3 88.6 C 1681.6 105 1687.8 120.8 1691.9 124.5" stroke="#000" stroke-width="3"/>
    <path d="M 1676.83 272.25 L 1677.5 143.3 L 1702 139.7 L 1699 262.7 L 1676.39 272.82 L 1676.83 272.25 Z" fill="#fff" stroke="#000" stroke-width="3"/>
    <path d="M 1688.5 257 L 1668.5 331.5 L 1633.45 385.58 L 1644.69 405.07 L 1652.96 405.07" stroke="#000" stroke-width="4"/>
    <path d="M1731 201c8.8-4.6 26-8.8 26.5.1.8 14-21.7 3-26.4 0z" fill="#fff"/>
    <path d="M1695.6 149.6l-9.6 52.2 45-.8m0 0c8.8-4.6 26-8.8 26.5.1.8 14-21.7 3-26.4 0z" stroke="#000" stroke-width="3"/>
    <path d="M 1263.5 95.6 C 1263.27 104.08 1260.44 112.28 1255.4 119.1 C 1250.8 125 1244.8 128.3 1238.5 128.1 C 1232.2 127.7 1226.5 123.9 1222.5 117.7 C 1218.5 111.4 1216.1 102.9 1216.5 93.5 C 1217 84.1 1220 75.8 1224.6 70 C 1229.2 64.1 1235.2 60.8 1241.5 61 C 1247.8 61.4 1253.5 65.2 1257.5 71.4 C 1261.5 77.7 1263.9 86.2 1263.5 95.6 Z" fill="#fff" stroke="#000" stroke-width="3"/>
    <path d="M 1217 88.8 C 1221 95 1224.3 99.1 1236 99.6 C 1245.8 100 1258.9 96.7 1264.8 90.9" stroke="#000" stroke-width="3"/>
    <path d="M 1245.4 61.5 C 1238.4 64.6 1233.4 80.3 1232.8 92.1 C 1232.1 108.5 1238.3 124.3 1242.4 128" stroke="#000" stroke-width="3"/>
    <path d="M 1239 273.99 L 1230.3 149.3 L 1254.8 145.7 L 1264.17 279.45 L 1239 273.99 Z" fill="#fff" stroke="#000" stroke-width="3"/>
    <path d="M 1254.94 269.01 L 1295.8 346.5 L 1274.8 403.5 L 1307.8 403.5" stroke="#000" stroke-width="4"/>
    <path d="M1179.4 221.8c3 9.4 4 27-5 26-13.9-1.7 1-22 5-26z" fill="#fff"/>
    <path d="M1238.8 158.5l-49.5 25.5-10 37.8m0 0c3.1 9.4 4.1 27-4.8 26-14-1.7 1-22 4.9-26z" stroke="#000" stroke-width="3"/>
  </g>
</svg>