<svg width="548" height="44" viewBox="0 0 548 44" fill="none" xmlns="http://www.w3.org/2000/svg">
<rect width="547.99" height="43.1111" fill="black"/>
<rect y="22.0345" width="547.99" height="21.0765" fill="#222222"/>
<text fill="#F5EFEA" xml:space="preserve" style="white-space: pre" font-family="Roboto" font-size="9" letter-spacing="0em"><tspan x="471.349" y="36.1323">Download</tspan></text>
<text fill="#F5EFEA" xml:space="preserve" style="white-space: pre" font-family="Roboto" font-size="9" letter-spacing="0em"><tspan x="46.9434" y="36.1323">Chapters</tspan></text>
<text fill="#F5EFEA" xml:space="preserve" style="white-space: pre" font-family="Roboto" font-size="9" letter-spacing="0em"><tspan x="124.543" y="36.1323">My Bookmarks</tspan></text>
<text fill="#F5EFEA" xml:space="preserve" style="white-space: pre" font-family="Roboto" font-size="9" letter-spacing="0em"><tspan x="230.884" y="36.1323">Add Bookmarks</tspan></text>
<path d="M98.1973 35.4469L97.2393 34.4888L101.071 30.6567L104.903 34.4888L103.945 35.4469L101.071 32.5728L98.1973 35.4469Z" fill="white"/>
<path d="M196.396 35.4469L195.438 34.4888L199.27 30.6567L203.102 34.4888L202.144 35.4469L199.27 32.5728L196.396 35.4469Z" fill="white"/>
<text fill="#F5EFEA" xml:space="preserve" style="white-space: pre" font-family="Roboto" font-size="9" letter-spacing="0em"><tspan x="468.475" y="15.0558">Dashboard</tspan></text>
<text fill="#F5EFEA" xml:space="preserve" style="white-space: pre" font-family="Roboto" font-size="9" letter-spacing="0em"><tspan x="410.993" y="15.0558">Library</tspan></text>
<text fill="#F5EFEA" xml:space="preserve" style="white-space: pre" font-family="Roboto" font-size="11" letter-spacing="0em"><tspan x="38.3213" y="16.9113">Your First Week with Bootstrap</tspan></text>
<path d="M219.388 29.7407C219.388 29.1884 219.835 28.7407 220.388 28.7407H225.094C225.646 28.7407 226.094 29.1884 226.094 29.7407V37.3629L222.741 35.2074L219.388 37.3629V29.7407Z" fill="white"/>
<line x1="211.016" y1="25.8667" x2="211.016" y2="41.1951" stroke="#5F5F5F" stroke-width="0.5"/>
<line x1="112.339" y1="25.8667" x2="112.339" y2="41.1951" stroke="#5F5F5F" stroke-width="0.5"/>
<rect x="393.748" y="7.66418" width="1.91605" height="4.79012" fill="#F5EFEA"/>
<rect x="396.622" y="7.66418" width="1.91605" height="4.79012" fill="#F5EFEA"/>
<rect x="398.639" y="6.86865" width="2.87407" height="7.78159" transform="rotate(-15.075 398.639 6.86865)" fill="#F5EFEA"/>
<rect x="393.748" y="13.4124" width="1.91605" height="0.958025" fill="#F5EFEA"/>
<rect x="396.622" y="13.4124" width="1.91605" height="0.958025" fill="#F5EFEA"/>
<rect x="393.748" y="5.74817" width="1.91605" height="0.958025" fill="#F5EFEA"/>
<rect x="396.622" y="5.74817" width="1.91605" height="0.958025" fill="#F5EFEA"/>
<path fill-rule="evenodd" clip-rule="evenodd" d="M365.573 12.5938H368.688L369.286 14.3704H371.175L367.948 5.74817H366.301L363.092 14.3704H364.981L365.573 12.5938ZM368.208 11.1548H366.053L367.125 7.92741L368.208 11.1548Z" fill="#F5EFEA"/>
<path d="M374.076 6.6526H372.973V7.75514H371.871V8.85768H372.973V9.96022H374.076V8.85768H375.178V7.75514H374.076V6.6526Z" fill="#F5EFEA"/>
<path d="M371.871 11.0628H375.178V12.1653H371.871V11.0628Z" fill="#F5EFEA"/>
<path d="M459.028 27.7827C459.218 27.7827 459.373 27.9436 459.373 28.142V30.7765H460.935C461.242 30.7765 461.396 31.1635 461.179 31.3898L458.659 34.0153C458.524 34.1556 458.305 34.1556 458.171 34.0153L455.65 31.3898C455.433 31.1635 455.587 30.7765 455.894 30.7765H457.457V28.142C457.457 27.9436 457.611 27.7827 457.802 27.7827H459.028Z" fill="#F5EFEA"/>
<path fill-rule="evenodd" clip-rule="evenodd" d="M458.138 34.674L456.978 33.5309H454.448C454.258 33.5309 454.104 33.6917 454.104 33.8901V36.0457C454.104 36.2441 454.258 36.4049 454.448 36.4049H462.381C462.571 36.4049 462.726 36.2441 462.726 36.0457V33.8901C462.726 33.6917 462.571 33.5309 462.381 33.5309H459.852L458.659 34.674C458.521 34.839 458.275 34.839 458.138 34.674ZM460.398 36.0457C460.636 36.0457 460.829 35.8446 460.829 35.5966C460.829 35.3486 460.636 35.1475 460.398 35.1475C460.16 35.1475 459.967 35.3486 459.967 35.5966C459.967 35.8446 460.16 36.0457 460.398 36.0457ZM462.036 35.5966C462.036 35.8446 461.843 36.0457 461.605 36.0457C461.367 36.0457 461.174 35.8446 461.174 35.5966C461.174 35.3486 461.367 35.1475 461.605 35.1475C461.843 35.1475 462.036 35.3486 462.036 35.5966Z" fill="#F5EFEA"/>
<path d="M458.894 6.70618H457.936V7.6642H454.104V8.62223H457.936V9.58025H458.894V8.62223H462.726V7.6642H458.894V6.70618Z" fill="#F5EFEA"/>
<path d="M462.726 10.5383H460.81V9.58025H459.852V10.5383H454.104V11.4963H459.852V12.4543H460.81V11.4963H462.726V10.5383Z" fill="#F5EFEA"/>
<path d="M462.726 13.4123V14.3704H456.978V15.3284H456.02V14.3704H454.104V13.4123H456.02V12.4543H456.978V13.4123H462.726Z" fill="#F5EFEA"/>
</svg>
