<svg xmlns="http://www.w3.org/2000/svg" viewBox="0 0 200 200">
  <title>
    box-tip
  </title>
  <g transform="translate(-266 234)">
    <clipPath id="a" clip-rule="evenodd">
      <path fill="#FFF" d="M266-234h200v200H266v-200z"/>
    </clipPath>
    <g clip-path="url(#a)">
      <path fill="#9B51E0" d="M466-134a100 100 0 11-200 0 100 100 0 01200 0z"/>
      <mask id="b">
        <path fill="#fff" d="M200 100a100 100 0 11-200 0 100 100 0 01200 0z" transform="translate(266 -234)"/>
      </mask>
      <g mask="url(#b)">
        <path d="M459-134a93 93 0 01-93 93v14c59 0 107-48 107-107h-14zm-93 93a93 93 0 01-93-93h-14c0 59 48 107 107 107v-14zm-93-93a93 93 0 0193-93v-14c-59 0-107 48-107 107h14zm93-93a93 93 0 0193 93h14c0-59-48-107-107-107v14z"/>
      </g>
      <g>
        <path fill="#FFFEFE" fill-rule="evenodd" d="M384.7-120.7c38.4-23.1 11.4-67.2-18.7-67.2-30.9 0-54.1 42.3-18.7 67.2v9.6h37.4v-9.6z"/>
        <path d="M343.8-118.3l4.8-1.2v-1.5l-4.8 2.7zM346-108l-2.5-2.5v2.5h2.5zm42.3-2.5l-2.5 2.5h2.5v-2.5zm-5-9.4v-1.3 1.3zm-39.8.4v9h5v-9h-5zm2.5 11.5h39.8v-5l-39.8 5zm42.3-1.7v-10l-5-1.5v10.7l5 .8zm-1.2-7.9a40.4 40.4 0 0019.3-34.5h-5c0 12.8-8 24.7-18.1 31l3.8 3.5zm19.3-34.5a40.5 40.5 0 00-40.5-40.4v5a35.5 35.5 0 0135.5 35.4h5zM366-192.5c-22.3 0-40.4 18-40.5 40.4h5c0-19.6 16-35.4 35.5-35.4v-5zm-40.5 40.4c0 14.6 6.7 26.8 18.3 33.9l4.8-2.8a38.1 38.1 0 01-18.1-31h-5v-.1zM361.2-110.8l-5.4-36.2-5 .8 5.5 36.1 4.9-.7z"/>
        <path d="M375.7-110.1l5.4-36.1-5-.8-5.4 36.2 5 .7z"/>
        <path d="M351.8-142.8l9.1 6.7 3.2-3.3-9.3-7.4-3 4zm9.2 6.7l8.3-8.4-3.6-3.2-8.6 8.7 3.9 2.9zm1.1-8l9 7.7 2.2-4.7-7.6-6.6-3.6 3.6zm9 7.8l9-6.5-3-4-9 7.7 3 2.8z"/>
        <path d="M346.2-110.4h39.6v10.8h-39.6v-10.8z" style="fill:none;stroke-width:5px"/>
        <path d="M388.2-113v16h-3.7v10.4h-3.6v11h-30v-11h-3.7v-10.5h-3.6V-113zm-5 5h-34.6v5.5h34.6zm-31 16.4h27.3v-5.5h-27.3zm3.6 11H376v-6h-20z"/>
        <path d="M349.8-100h32.3V-89h-32.3V-100z" style="fill:none;stroke-width:5px"/>
        <path d="M353.4-89h25.1v10.9h-25v-11z" style="fill:none;stroke-width:5px"/>
      </g>
    </g>
  </g>
</svg>
