<svg width="200" height="200" viewBox="0 0 200 200" version="1.1" xmlns="http://www.w3.org/2000/svg" xmlns:xlink="http://www.w3.org/1999/xlink">
<title>box-github</title>
<desc>Code sample from Github</desc>
<g id="Canvas" transform="translate(-2955 666)">
<g id="box-github">
<g id="Canvas">
<g id="box codepen">
<g id="Ellipse">

<use xlink:href="#path0_fill" transform="translate(2955 -666)" fill="#333"/>

<mask id="mask0_alpha" mask-type="alpha">
<g id="mask0 outline ins">
<g id="Vector">
<use xlink:href="#path0_fill" transform="translate(2955 -666)" fill="#fff"/>
</g>
</g>
</mask>
<g id="Group" mask="url(#mask0_alpha)">
<g id="github">
<use xlink:href="#path1_fill" transform="translate(2961 -660)" fill="#fff"/>
</g>
<use xlink:href="#path2_fill" transform="translate(2948 -673)"/>
</g>
</g>
</g>
</g>
</g>
</g>
<defs>
<path id="path0_fill" d="M 200 100C 200 155.228 155.228 200 100 200C 44.7715 200 0 155.228 0 100C 0 44.7715 44.7715 0 100 0C 155.228 0 200 44.7715 200 100Z"/>
<path id="path1_fill" d="M 62.8814 148.157C 62.8814 148.917 62.0097 149.526 60.9105 149.526C 59.6597 149.64 58.7879 149.032 58.7879 148.157C 58.7879 147.396 59.6597 146.787 60.7589 146.787C 61.896 146.673 62.8814 147.281 62.8814 148.157ZM 51.0935 146.444C 50.8282 147.205 51.5863 148.08 52.7234 148.309C 53.7089 148.689 54.846 148.309 55.0734 147.548C 55.3008 146.787 54.5806 145.912 53.4435 145.569C 52.4581 145.303 51.3589 145.683 51.0935 146.444ZM 67.8468 145.798C 66.7476 146.064 65.9895 146.787 66.1032 147.662C 66.2169 148.423 67.2024 148.917 68.3395 148.651C 69.4387 148.385 70.1968 147.662 70.0831 146.901C 69.9694 146.178 68.946 145.683 67.8468 145.798ZM 92.7871 0C 40.2153 0 0 40.0639 0 92.8356C 0 135.03 26.4565 171.137 64.246 183.845C 69.0976 184.72 70.8032 181.714 70.8032 179.241C 70.8032 176.882 70.6895 163.87 70.6895 155.88C 70.6895 155.88 44.1573 161.587 38.5855 144.542C 38.5855 144.542 34.2645 133.47 28.0484 130.617C 28.0484 130.617 19.3685 124.643 28.6548 124.757C 28.6548 124.757 38.0927 125.518 43.2855 134.574C 51.5863 149.26 65.4968 145.037 70.9169 142.526C 71.7887 136.438 74.2524 132.215 76.9815 129.704C 55.7936 127.345 34.4161 124.263 34.4161 87.6612C 34.4161 77.1982 37.2968 71.9476 43.3613 65.2513C 42.3758 62.7782 39.154 52.5815 44.3468 39.4171C 52.2685 36.944 70.5 49.6899 70.5 49.6899C 78.0806 47.5592 86.2298 46.4559 94.3032 46.4559C 102.377 46.4559 110.526 47.5592 118.106 49.6899C 118.106 49.6899 136.338 36.906 144.26 39.4171C 149.452 52.6195 146.231 62.7782 145.245 65.2513C 151.31 71.9857 155.024 77.2362 155.024 87.6612C 155.024 124.377 132.699 127.307 111.511 129.704C 114.998 132.709 117.955 138.416 117.955 147.358C 117.955 160.18 117.841 176.045 117.841 179.165C 117.841 181.638 119.585 184.644 124.398 183.769C 162.302 171.137 188 135.03 188 92.8356C 188 40.0639 145.359 0 92.7871 0ZM 36.8419 131.225C 36.3492 131.606 36.4629 132.481 37.1073 133.204C 37.7137 133.813 38.5855 134.079 39.0782 133.584C 39.571 133.204 39.4573 132.329 38.8129 131.606C 38.2065 130.997 37.3347 130.731 36.8419 131.225ZM 32.7484 128.144C 32.4831 128.638 32.8621 129.247 33.6202 129.627C 34.2266 130.008 34.9847 129.894 35.25 129.361C 35.5153 128.867 35.1363 128.258 34.3782 127.877C 33.6202 127.649 33.0137 127.763 32.7484 128.144ZM 45.029 141.688C 44.4226 142.183 44.65 143.325 45.5218 144.047C 46.3935 144.923 47.4927 145.037 47.9855 144.428C 48.4782 143.933 48.2508 142.792 47.4927 142.069C 46.6589 141.194 45.5218 141.08 45.029 141.688ZM 40.7081 136.096C 40.1016 136.476 40.1016 137.465 40.7081 138.34C 41.3145 139.215 42.3379 139.596 42.8306 139.215C 43.4371 138.721 43.4371 137.732 42.8306 136.856C 42.3 135.981 41.3145 135.601 40.7081 136.096Z"/>
<path id="path2_fill" d="M 200 107C 200 158.362 158.362 200 107 200L 107 214C 166.094 214 214 166.094 214 107L 200 107ZM 107 200C 55.6375 200 14 158.362 14 107L 0 107C 0 166.094 47.9055 214 107 214L 107 200ZM 14 107C 14 55.6375 55.6375 14 107 14L 107 0C 47.9055 0 0 47.9055 0 107L 14 107ZM 107 14C 158.362 14 200 55.6375 200 107L 214 107C 214 47.9055 166.094 0 107 0L 107 14Z"/>
</defs>
</svg>
