<svg width="53" height="60" viewBox="0 0 53 60" fill="none" xmlns="http://www.w3.org/2000/svg">
<ellipse cx="26.4399" cy="30.65" rx="20.0927" ry="21.9194" fill="white"/>
<path d="M41.5 8H11.5C7.36187 8.01125 4.01125 11.3619 4 15.5V45.5C4 49.625 7.375 53 11.5 53H41.5C45.625 53 49 49.625 49 45.5V15.5C49 11.375 45.625 8 41.5 8ZM37.3994 39.6031C37.0244 40.5069 36.43 41.3038 35.6687 41.9169C34.8812 42.5544 33.8837 43.0794 32.6556 43.4544C31.4294 43.835 29.9706 44.0263 28.2812 44.0263H16.2213V17.7763H28.975C31.3337 17.7763 33.2238 18.3069 34.6375 19.3887C36.0625 20.4762 36.7713 22.0963 36.7713 24.2825C36.7713 25.6044 36.4487 26.7388 35.8 27.6763C35.155 28.6081 34.225 29.3375 33.025 29.8437V29.93C34.6262 30.2675 35.8656 31.0269 36.6813 32.2081C37.4969 33.3894 37.915 34.8819 37.915 36.6838C37.915 37.6925 37.72 38.6525 37.3525 39.5488L37.3994 39.5994V39.6031ZM32.1944 33.1344C31.4256 32.4312 30.3456 32.0881 28.9506 32.0881H20.8469V40.2781H28.9731C30.3606 40.2781 31.4481 39.9181 32.2169 39.1906C32.9856 38.4688 33.3794 37.4394 33.3794 36.1156C33.3662 34.8219 32.9856 33.8206 32.2169 33.1344H32.185H32.1944ZM31.0694 27.8412C31.8119 27.2112 32.1756 26.3094 32.1756 25.1337C32.1756 23.8137 31.8475 22.8762 31.1819 22.34C30.5219 21.8056 29.5694 21.5281 28.3169 21.5281H20.8169V28.7713H28.3169C29.41 28.7713 30.3419 28.4525 31.0619 27.8412H31.0694Z" fill="#563D7C"/>
</svg>
