<svg fill="none" xmlns="http://www.w3.org/2000/svg" viewBox="0 0 2848 1914">
  <path fill="#fff" d="M0 0h2848v1914H0z"/>
  <path fill="#333" d="M0 110h2848v103H0z"/>
  <path d="M330.5 155h-6.9v19h-3.8v-19H313v-3h17.5v3zM340.3 174c-.2-.3-.3-.8-.4-1.5a5.7 5.7 0 01-4.3 1.8c-1.7 0-3-.5-4-1.4-1.1-1-1.6-2.1-1.6-3.5 0-1.7.6-3 2-4 1.2-1 3-1.4 5.5-1.4h2.2v-1c0-1-.2-1.6-.7-2.1-.5-.5-1.2-.8-2.1-.8-.9 0-1.6.2-2.1.7a2 2 0 00-.8 1.5h-3.7c0-.9.3-1.7 1-2.5a6 6 0 012.3-1.8c1-.5 2.2-.7 3.5-.7 1.9 0 3.4.5 4.6 1.5 1 1 1.7 2.3 1.7 4v7.4c0 1.5.2 2.7.6 3.5v.3h-3.7zm-4-2.6c.7 0 1.3-.2 2-.6.6-.3 1.1-.8 1.4-1.4v-3h-2c-1.3 0-2.3.1-3 .6-.7.5-1 1.2-1 2 0 .7.2 1.3.6 1.7.5.4 1.1.7 2 .7zM361.6 166c0 2.5-.5 4.5-1.7 6a5.5 5.5 0 01-4.7 2.3c-1.9 0-3.4-.7-4.4-2l-.2 1.7h-3.3v-23.3h3.6v8.5c1-1.3 2.5-1.9 4.3-1.9 2 0 3.6.8 4.7 2.2a10 10 0 011.7 6.3v.2zm-3.6-.3a7 7 0 00-1-4 3.1 3.1 0 00-2.7-1.4c-1.6 0-2.7.7-3.4 2.1v6.8a3.5 3.5 0 003.4 2.1c1.2 0 2-.4 2.7-1.3.6-.8 1-2.1 1-3.9v-.4zM368.6 174H365v-23.3h3.6V174zM379.9 174.3c-2.4 0-4.2-.7-5.7-2.2a8 8 0 01-2.2-5.9v-.4c0-1.7.3-3.1 1-4.4a7 7 0 016.5-4c2.2 0 3.9.6 5.1 2a9 9 0 011.8 6v1.6h-10.7a5 5 0 001.4 3.2 4 4 0 003 1.2 5 5 0 004.1-2l2 1.8c-.7 1-1.5 1.8-2.6 2.3-1.1.5-2.4.8-3.7.8zm-.5-14c-1 0-1.8.3-2.4 1-.6.7-1 1.7-1.2 3h7v-.3c0-1.2-.4-2.2-1-2.8a3 3 0 00-2.4-1zM396.3 165.7c0-1.6.4-3 1-4.4a6.9 6.9 0 012.7-3c1.1-.6 2.4-1 4-1 2.2 0 4 .7 5.3 2.2a8.4 8.4 0 012.3 5.6v.9c0 1.6-.3 3-1 4.3a6.8 6.8 0 01-2.6 3c-1.2.7-2.5 1-4 1-2.3 0-4.2-.8-5.6-2.3a8.9 8.9 0 01-2-6.2v-.1zm3.7.3c0 1.7.4 3 1 4 .8.9 1.7 1.4 3 1.4 1.2 0 2.2-.5 2.9-1.5.7-1 1-2.4 1-4.2 0-1.7-.4-3-1-4-.8-1-1.7-1.4-3-1.4-1.2 0-2.1.4-2.8 1.4-.7 1-1 2.4-1 4.3zM416 174v-13.7h-2.5v-2.7h2.5v-1.5c0-1.8.5-3.2 1.5-4.2s2.4-1.5 4.2-1.5c.7 0 1.4.1 2 .3v2.9l-1.4-.1c-1.8 0-2.6.9-2.6 2.7v1.4h3.3v2.7h-3.3V174H416zM450.6 166.8a8 8 0 01-2.6 5.5 8.9 8.9 0 01-6 2c-1.8 0-3.4-.4-4.7-1.2-1.4-.9-2.4-2-3.1-3.6-.7-1.5-1.1-3.3-1.2-5.3V162c0-2 .4-4 1.2-5.5a8.3 8.3 0 017.9-5c2.4 0 4.4.7 5.9 2a8.3 8.3 0 012.6 5.6h-3.9c-.1-1.5-.6-2.7-1.3-3.4-.8-.7-1.9-1-3.3-1-1.7 0-3 .6-3.8 1.8-1 1.2-1.4 3-1.4 5.3v2c0 2.4.4 4.2 1.3 5.4a4.3 4.3 0 003.7 2c1.5 0 2.7-.4 3.4-1.1.8-.7 1.2-1.8 1.4-3.4h3.9zM453 165.7c0-1.6.3-3 1-4.4a6.9 6.9 0 012.6-3c1.1-.6 2.5-1 4-1 2.2 0 4 .7 5.3 2.2a8.4 8.4 0 012.3 5.6v.9c0 1.6-.3 3-1 4.3a6.8 6.8 0 01-2.6 3c-1.2.7-2.5 1-4 1-2.3 0-4.2-.8-5.6-2.3a8.9 8.9 0 01-2-6.2v-.1zm3.6.3c0 1.7.4 3 1 4 .8.9 1.7 1.4 3 1.4 1.2 0 2.2-.5 2.9-1.5.7-1 1-2.4 1-4.2 0-1.7-.3-3-1-4-.8-1-1.7-1.4-3-1.4-1.1 0-2.1.4-2.8 1.4-.7 1-1 2.4-1 4.3zM474.7 157.6l.1 2a5.9 5.9 0 014.8-2.3c3.4 0 5.1 2 5.2 5.9V174H481v-10.6c0-1-.2-1.8-.7-2.3-.4-.5-1.1-.8-2.2-.8-1.5 0-2.6.7-3.3 2V174h-3.7v-16.4h3.5zM493.2 153.6v4h2.8v2.7h-2.8v9.2c0 .6 0 1 .3 1.4.3.2.7.4 1.4.4.4 0 .8 0 1.2-.2v2.9a9 9 0 01-2.4.3c-2.8 0-4.2-1.6-4.2-4.7v-9.3h-2.7v-2.7h2.7v-4h3.7zM506 174.3c-2.2 0-4.1-.7-5.6-2.2a8 8 0 01-2.2-5.9v-.4c0-1.7.4-3.1 1-4.4a7 7 0 016.5-4c2.2 0 4 .6 5.1 2a9 9 0 011.9 6v1.6H502a5 5 0 001.3 3.2 4 4 0 003 1.2 5 5 0 004.1-2l2 1.8c-.7 1-1.5 1.8-2.6 2.3-1.1.5-2.4.8-3.7.8zm-.4-14c-1 0-1.8.3-2.4 1-.6.7-1 1.7-1.2 3h7v-.3c0-1.2-.4-2.2-1-2.8a3 3 0 00-2.4-1zM519 157.6v2a5.9 5.9 0 014.8-2.3c3.4 0 5.2 2 5.2 5.9V174h-3.7v-10.6c0-1-.2-1.8-.6-2.3-.5-.5-1.2-.8-2.2-.8-1.5 0-2.6.7-3.4 2V174h-3.6v-16.4h3.4zM537.4 153.6v4h2.9v2.7h-3v9.2c0 .6.2 1 .5 1.4.2.2.6.4 1.3.4.4 0 .8 0 1.3-.2v2.9a9 9 0 01-2.5.3c-2.8 0-4.2-1.6-4.2-4.7v-9.3H531v-2.7h2.7v-4h3.7zM552.3 169.6c0-.7-.3-1.2-.8-1.5-.6-.4-1.5-.7-2.7-1-1.3-.2-2.3-.6-3.1-1-1.9-.8-2.8-2.1-2.8-3.8 0-1.4.6-2.6 1.8-3.6a7 7 0 014.5-1.4c2 0 3.6.5 4.8 1.5 1.2 1 1.8 2.2 1.8 3.7H552c0-.7-.3-1.3-.8-1.7a3 3 0 00-2-.7c-.9 0-1.5.2-2 .5-.6.4-.8 1-.8 1.5 0 .6.2 1 .7 1.3.5.4 1.4.7 2.9 1 1.4.3 2.5.7 3.4 1.1.8.5 1.4 1 1.8 1.6.4.6.6 1.4.6 2.3 0 1.4-.6 2.6-1.8 3.5a7.8 7.8 0 01-4.8 1.4c-1.4 0-2.6-.2-3.6-.7-1-.5-1.9-1.2-2.5-2-.6-.9-.8-1.8-.8-2.8h3.5c0 1 .4 1.6 1 2 .6.5 1.4.7 2.4.7s1.7-.1 2.2-.5c.5-.4.8-.9.8-1.4zM579.8 158.5l3-3.5 10 9.5 10.5-9.5 3.5 3.5-14 13-13-13z" fill="#fff"/>
  <path stroke="#fff" stroke-width="2" d="M642 129v66"/>
  <path d="M672 152l6.3 16.9 6.4-17h5V174h-3.9v-7.3l.4-9.7-6.5 17h-2.8l-6.5-17 .4 9.7v7.3H667v-22h5zM699.5 168.7l3.4-11h3.9l-6.5 18.8c-1 2.7-2.7 4.1-5.1 4.1-.6 0-1.1 0-1.8-.3v-2.8h.7c1 0 1.6-.1 2.1-.5.5-.3.8-.9 1.1-1.7l.5-1.4-5.7-16.3h4l3.4 11.1zM717 174v-22h7.5c2.5 0 4.4.5 5.7 1.5 1.3 1 2 2.4 2 4.4 0 1-.3 2-.8 2.7-.6.9-1.4 1.5-2.4 2 1.2.2 2 .9 2.7 1.8.7.8 1 2 1 3.2 0 2-.7 3.6-2 4.7a8.6 8.6 0 01-5.7 1.7h-8zm3.8-10v7h4.3c1.2 0 2.1-.4 2.8-1 .7-.5 1-1.4 1-2.4 0-2.3-1.2-3.5-3.5-3.5h-4.6zm0-2.8h3.8c1.2 0 2-.2 2.8-.8.6-.5 1-1.3 1-2.3 0-1-.3-1.8-1-2.3-.6-.5-1.6-.8-2.9-.8h-3.7v6.2zM735.5 165.7c0-1.6.3-3 1-4.4a7 7 0 012.6-3c1.2-.6 2.5-1 4-1 2.2 0 4 .7 5.4 2.2a8.4 8.4 0 012.2 5.6v.9c0 1.6-.3 3-1 4.3a6.8 6.8 0 01-2.6 3c-1.1.7-2.5 1-4 1-2.3 0-4.1-.8-5.5-2.3a8.9 8.9 0 01-2.1-6.2v-.1zm3.7.3c0 1.7.3 3 1 4 .7.9 1.7 1.4 3 1.4 1.2 0 2.1-.5 2.8-1.5.7-1 1-2.4 1-4.2 0-1.7-.3-3-1-4s-1.7-1.4-3-1.4c-1.1 0-2 .4-2.8 1.4-.7 1-1 2.4-1 4.3zM753.1 165.7c0-1.6.4-3 1-4.4a6.9 6.9 0 012.7-3c1.1-.6 2.4-1 4-1 2.2 0 4 .7 5.3 2.2a8.4 8.4 0 012.3 5.6v.9c0 1.6-.3 3-1 4.3a6.8 6.8 0 01-2.6 3c-1.2.7-2.5 1-4 1-2.3 0-4.2-.8-5.6-2.3a8.9 8.9 0 01-2-6.2v-.1zm3.7.3c0 1.7.4 3 1 4 .8.9 1.7 1.4 3 1.4 1.2 0 2.2-.5 2.9-1.5.7-1 1-2.4 1-4.2 0-1.7-.4-3-1-4-.8-1-1.7-1.4-3-1.4-1.2 0-2.1.4-2.8 1.4-.7 1-1 2.4-1 4.3zM776.8 167l-1.6 1.7v5.3h-3.7v-23.3h3.7v13.5l1.1-1.5 4.5-5h4.5l-6.1 6.7 6.7 9.6h-4.2l-4.9-7zM791.1 157.6l.1 1.7c1.2-1.3 2.8-2 4.8-2 2.2 0 3.7.9 4.5 2.5a5.8 5.8 0 015-2.5c1.8 0 3.1.5 4 1.5.9 1 1.4 2.5 1.4 4.4V174h-3.7v-10.7c0-1-.2-1.8-.7-2.2-.4-.5-1.2-.8-2.2-.8a3 3 0 00-2.1.7c-.5.5-.9 1-1.1 1.8V174h-3.7v-10.8c0-2-1-2.9-3-2.9-1.4 0-2.4.6-3 1.8V174h-3.7v-16.4h3.4zM824.4 174l-.4-1.5a5.7 5.7 0 01-4.3 1.8c-1.6 0-3-.5-4-1.4-1-1-1.6-2.1-1.6-3.5 0-1.7.7-3 2-4s3.1-1.4 5.5-1.4h2.3v-1c0-1-.2-1.6-.7-2.1-.5-.5-1.2-.8-2.2-.8-.8 0-1.5.2-2 .7a2 2 0 00-.8 1.5h-3.7c0-.9.3-1.7.9-2.5a6 6 0 012.4-1.8c1-.5 2.2-.7 3.4-.7 2 0 3.5.5 4.6 1.5 1.2 1 1.7 2.3 1.8 4v7.4c0 1.5.2 2.7.6 3.5v.3h-3.8zm-4-2.6c.7 0 1.4-.2 2-.6.7-.3 1.2-.8 1.5-1.4v-3h-2c-1.4 0-2.4.1-3 .6-.8.5-1 1.2-1 2 0 .7.1 1.3.6 1.7.5.4 1.1.7 1.9.7zM840 161l-1.5-.1c-1.7 0-2.8.6-3.4 1.9V174h-3.7v-16.4h3.5l.1 1.9a4.1 4.1 0 013.7-2.2c.5 0 1 0 1.3.2v3.5zM847.6 167l-1.6 1.7v5.3h-3.7v-23.3h3.7v13.5l1.2-1.5 4.5-5h4.4l-6 6.7 6.7 9.6h-4.3l-4.9-7zM867.7 169.6c0-.7-.3-1.2-.8-1.5-.6-.4-1.4-.7-2.7-1-1.3-.2-2.3-.6-3.1-1-1.9-.8-2.8-2.1-2.8-3.8 0-1.4.6-2.6 1.8-3.6a7 7 0 014.5-1.4c2 0 3.6.5 4.8 1.5 1.2 1 1.8 2.2 1.8 3.7h-3.7c0-.7-.2-1.3-.8-1.7a3 3 0 00-2-.7c-.9 0-1.5.2-2 .5-.5.4-.8 1-.8 1.5 0 .6.2 1 .7 1.3.5.4 1.4.7 2.9 1 1.4.3 2.6.7 3.4 1.1.8.5 1.4 1 1.8 1.6.4.6.6 1.4.6 2.3 0 1.4-.6 2.6-1.8 3.5a7.8 7.8 0 01-4.8 1.4c-1.4 0-2.6-.2-3.6-.7-1-.5-1.9-1.2-2.5-2-.5-.9-.8-1.8-.8-2.8h3.5c0 1 .4 1.6 1 2 .6.5 1.4.7 2.4.7s1.7-.1 2.2-.5c.5-.4.8-.9.8-1.4zM895.8 158.5l3-3.5 10 9.5 10.5-9.5 3.5 3.5-14 13-13-13z" fill="#fff"/>
  <rect x="1827" y="144" width="69" height="38" rx="18" stroke="#fff" stroke-width="2"/>
  <circle cx="1847" cy="163" r="14" fill="#fff"/>
  <path d="M1921.2 152l6.4 16.9 6.3-17h5V174h-3.9v-7.3l.4-9.7-6.5 17h-2.7l-6.5-17 .3 9.7v7.3h-3.8v-22h5zM1952.8 174l-.4-1.5a5.7 5.7 0 01-4.3 1.8c-1.6 0-3-.5-4-1.4-1-1-1.6-2.1-1.6-3.5 0-1.7.7-3 2-4s3.1-1.4 5.5-1.4h2.3v-1c0-1-.3-1.6-.7-2.1-.5-.5-1.2-.8-2.2-.8-.8 0-1.5.2-2 .7a2 2 0 00-.9 1.5h-3.6c0-.9.3-1.7.9-2.5.5-.8 1.4-1.4 2.4-1.8 1-.5 2.2-.7 3.4-.7 2 0 3.5.5 4.6 1.5 1.1 1 1.7 2.3 1.8 4v7.4c0 1.5.2 2.7.6 3.5v.3h-3.8zm-4-2.6c.7 0 1.4-.2 2-.6.7-.3 1.2-.8 1.5-1.4v-3h-2c-1.4 0-2.4.1-3 .6-.8.5-1.1 1.2-1.1 2 0 .7.2 1.3.7 1.7.5.4 1.1.7 1.9.7zM1965.1 167l-1.6 1.7v5.3h-3.7v-23.3h3.7v13.5l1.2-1.5 4.5-5h4.4l-6 6.7 6.6 9.6h-4.2l-4.9-7zM1983 174.3c-2.4 0-4.3-.7-5.8-2.2a8 8 0 01-2.1-5.9v-.4c0-1.7.3-3.1 1-4.4a7 7 0 016.5-4c2.1 0 3.8.6 5 2a9 9 0 011.9 6v1.6h-10.7a5 5 0 001.3 3.2c.8.8 1.8 1.2 3 1.2a5 5 0 004.2-2l2 1.8c-.7 1-1.6 1.8-2.7 2.3-1 .5-2.3.8-3.7.8zm-.5-14c-1 0-1.8.3-2.5 1-.6.7-1 1.7-1.2 3h7v-.3c0-1.2-.3-2.2-1-2.8a3 3 0 00-2.3-1zM2009.9 174l-.5-1.5a5.7 5.7 0 01-4.3 1.8c-1.6 0-3-.5-4-1.4-1-1-1.5-2.1-1.5-3.5 0-1.7.6-3 1.9-4 1.3-1 3.2-1.4 5.6-1.4h2.2v-1c0-1-.2-1.6-.7-2.1-.5-.5-1.2-.8-2.2-.8-.8 0-1.5.2-2 .7a2 2 0 00-.8 1.5h-3.7c0-.9.3-1.7.9-2.5a6 6 0 012.4-1.8c1-.5 2.2-.7 3.5-.7 1.9 0 3.4.5 4.5 1.5 1.2 1 1.8 2.3 1.8 4v7.4c0 1.5.2 2.7.6 3.5v.3h-3.7zm-4-2.6a4.1 4.1 0 003.4-2v-3h-2c-1.3 0-2.3.1-3 .6-.7.5-1 1.2-1 2 0 .7.2 1.3.6 1.7.5.4 1.1.7 2 .7zM2022.4 169.3l3.4-11.7h3.8L2024 174h-3.2l-5.8-16.4h3.9l3.5 11.7zM2041.5 174c-.2-.3-.3-.8-.4-1.5a5.7 5.7 0 01-4.3 1.8c-1.7 0-3-.5-4-1.4-1-1-1.6-2.1-1.6-3.5 0-1.7.6-3 2-4 1.2-1 3-1.4 5.5-1.4h2.3v-1c0-1-.3-1.6-.8-2.1-.4-.5-1.2-.8-2.1-.8-.9 0-1.5.2-2 .7a2 2 0 00-.9 1.5h-3.7c0-.9.3-1.7 1-2.5a6 6 0 012.3-1.8c1-.5 2.2-.7 3.5-.7 1.9 0 3.4.5 4.6 1.5 1.1 1 1.7 2.3 1.7 4v7.4c0 1.5.2 2.7.7 3.5v.3h-3.8zm-4-2.6c.7 0 1.4-.2 2-.6.6-.3 1.1-.8 1.5-1.4v-3h-2c-1.4 0-2.4.1-3.1.6-.7.5-1 1.2-1 2 0 .7.2 1.3.7 1.7.4.4 1 .7 1.9.7zM2052.4 174h-3.7v-16.4h3.7V174zm-4-20.6c0-.6.3-1 .6-1.4.4-.4.9-.6 1.6-.6a2 2 0 011.5.6c.4.3.6.8.6 1.4 0 .5-.2 1-.6 1.4-.4.3-.9.5-1.5.5-.7 0-1.2-.2-1.6-.5a2 2 0 01-.5-1.4zM2060.3 174h-3.7v-23.3h3.7V174zM2074.1 174l-.4-1.5a5.7 5.7 0 01-4.3 1.8c-1.6 0-3-.5-4-1.4-1-1-1.6-2.1-1.6-3.5 0-1.7.7-3 2-4s3.1-1.4 5.5-1.4h2.3v-1c0-1-.3-1.6-.7-2.1-.5-.5-1.2-.8-2.2-.8-.8 0-1.5.2-2 .7a2 2 0 00-.8 1.5h-3.7c0-.9.3-1.7.9-2.5a6 6 0 012.4-1.8c1-.5 2.2-.7 3.4-.7 2 0 3.5.5 4.6 1.5 1.2 1 1.7 2.3 1.8 4v7.4c0 1.5.2 2.7.6 3.5v.3h-3.8zm-4-2.6a4.1 4.1 0 003.5-2v-3h-2c-1.4 0-2.4.1-3 .6-.8.5-1.1 1.2-1.1 2 0 .7.2 1.3.7 1.7.5.4 1.1.7 1.9.7zM2095.5 166c0 2.5-.6 4.5-1.7 6a5.5 5.5 0 01-4.7 2.3c-2 0-3.4-.7-4.5-2l-.2 1.7h-3.3v-23.3h3.7v8.5c1-1.3 2.5-1.9 4.3-1.9 2 0 3.5.8 4.7 2.2a10 10 0 011.7 6.3v.2zm-3.7-.3a7 7 0 00-1-4 3.1 3.1 0 00-2.7-1.4c-1.5 0-2.7.7-3.3 2.1v6.8a3.4 3.4 0 003.4 2.1 3 3 0 002.6-1.3c.7-.8 1-2.1 1-3.9v-.4zM2102.5 174h-3.7v-23.3h3.7V174zM2113.7 174.3c-2.3 0-4.2-.7-5.6-2.2a8 8 0 01-2.2-5.9v-.4c0-1.7.3-3.1 1-4.4a7 7 0 016.5-4c2.1 0 3.9.6 5 2a9 9 0 011.9 6v1.6h-10.7a5 5 0 001.3 3.2c.8.8 1.8 1.2 3 1.2a5 5 0 004.2-2l2 1.8c-.7 1-1.6 1.8-2.7 2.3-1 .5-2.3.8-3.7.8zm-.4-14c-1 0-1.8.3-2.5 1-.6.7-1 1.7-1.1 3h7v-.3c-.1-1.2-.4-2.2-1-2.8a3 3 0 00-2.4-1zM2130.2 165.7c0-1.6.3-3 1-4.4a7 7 0 012.6-3c1.2-.6 2.5-1 4-1 2.2 0 4 .7 5.4 2.2a8.4 8.4 0 012.2 5.6v.9c0 1.6-.3 3-1 4.3a6.9 6.9 0 01-2.6 3c-1.1.7-2.5 1-4 1-2.3 0-4.1-.8-5.5-2.3a8.9 8.9 0 01-2.1-6.2v-.1zm3.7.3c0 1.7.3 3 1 4 .7.9 1.7 1.4 3 1.4 1.2 0 2.1-.5 2.8-1.5.7-1 1-2.4 1-4.2 0-1.7-.3-3-1-4s-1.7-1.4-2.9-1.4-2.2.4-2.9 1.4c-.7 1-1 2.4-1 4.3zM2149.8 174v-13.7h-2.5v-2.7h2.5v-1.5c0-1.8.5-3.2 1.5-4.2s2.5-1.5 4.3-1.5l2 .3v2.9l-1.5-.1c-1.7 0-2.6.9-2.6 2.7v1.4h5.6v-1.4c0-1.9.6-3.3 1.7-4.3 1-1 2.6-1.5 4.6-1.5 1.2 0 3.5.3 6.7.8V174h-3.7v-20.3c-1-.2-1.9-.2-2.6-.2-2 0-3 .9-3 2.7v1.4h3.3v2.7h-3.3V174h-3.7v-13.7h-5.6V174h-3.7zM2180.1 174h-3.7v-16.4h3.7V174zm-3.9-20.6c0-.6.2-1 .5-1.4a2 2 0 011.6-.6c.6 0 1.2.2 1.5.6.4.3.6.8.6 1.4 0 .5-.2 1-.6 1.4-.3.3-.9.5-1.5.5-.7 0-1.2-.2-1.6-.5a2 2 0 01-.5-1.4zM2187.6 157.6v2a5.9 5.9 0 014.8-2.3c3.4 0 5.2 2 5.2 5.9V174h-3.7v-10.6c0-1-.2-1.8-.6-2.3-.5-.5-1.2-.8-2.2-.8-1.5 0-2.6.7-3.3 2V174h-3.7v-16.4h3.5zM2208.6 174.3c-2.3 0-4.2-.7-5.7-2.2a8 8 0 01-2.1-5.9v-.4c0-1.7.3-3.1.9-4.4a7 7 0 016.5-4c2.2 0 4 .6 5.1 2a9 9 0 011.9 6v1.6h-10.7a5 5 0 001.3 3.2c.8.8 1.8 1.2 3 1.2a5 5 0 004.1-2l2 1.8c-.6 1-1.5 1.8-2.6 2.3-1.1.5-2.3.8-3.7.8zm-.4-14c-1 0-1.9.3-2.5 1-.6.7-1 1.7-1.2 3h7v-.3c0-1.2-.4-2.2-1-2.8a3 3 0 00-2.3-1z" fill="#fff"/>
  <path stroke="#fff" stroke-width="2" d="M2247 129v66"/>
  <path fill-rule="evenodd" clip-rule="evenodd" d="M2291 147a2 2 0 00-2 2v10h-4.8a1 1 0 00-.7 1.7l9.3 10.5a1 1 0 001.4 0l9.3-10.5a1 1 0 00-.7-1.7h-4.8v-10a2 2 0 00-2-2h-5zm-2.8 22l4.6 5.2a1 1 0 001.4 0l4.6-5.2h9.2a2 2 0 012 2v6a2 2 0 01-2 2h-29a2 2 0 01-2-2v-6c0-1.1.9-2 2-2h9.2zm11.8 6h2v2h-2v-2zm6 0h-2v2h2v-2zm104-1h-3.7v-23.3h3.7V174zm-81.8-22v22h6.4c2 0 3.7-.4 5.3-1.3 1.5-.8 2.7-2 3.5-3.6.9-1.6 1.3-3.5 1.3-5.6v-1c0-2.1-.4-4-1.3-5.5-.8-1.6-2-2.9-3.5-3.7-1.5-1-3.2-1.3-5.2-1.3h-6.5zm3.9 19v-16h2.7c2 0 3.4.7 4.5 2 1 1.2 1.5 3 1.5 5.4v1.2c0 2.4-.5 4.2-1.6 5.5-1 1.2-2.6 1.8-4.6 1.8h-2.5zm16.3-9.7c-.6 1.3-1 2.8-1 4.4v.1c0 2.6.7 4.7 2.1 6.2a7.2 7.2 0 005.6 2.3c1.5 0 2.8-.3 4-1 1.1-.7 2-1.7 2.6-3 .7-1.3 1-2.7 1-4.3v-.9a8.4 8.4 0 00-2.3-5.6 7.1 7.1 0 00-5.3-2.2c-1.5 0-2.9.4-4 1a7 7 0 00-2.7 3zm3.8 8.6c-.7-1-1-2.2-1-4 0-1.8.3-3.2 1-4.2s1.7-1.4 2.9-1.4 2.1.5 2.8 1.4c.8 1 1.1 2.3 1.1 4 0 1.8-.3 3.2-1 4.2s-1.7 1.5-3 1.5c-1.2 0-2.1-.5-2.8-1.5zm28-1l2.6-11.3h3.6l-4.5 16.4h-3l-3.5-11.2-3.5 11.2h-3l-4.5-16.4h3.6l2.6 11.2 3.4-11.2h2.8l3.4 11.3zm12.1-9.4v-1.9h-3.5V174h3.6v-11.7c.8-1.3 1.9-2 3.4-2 1 0 1.7.3 2.2.8.4.5.6 1.3.6 2.3V174h3.7v-10.8c0-4-1.8-5.9-5.2-5.9-2 0-3.5.8-4.8 2.2zm22 1.8c-.7 1.3-1 2.8-1 4.4v.1c0 2.6.7 4.7 2.1 6.2a7.1 7.1 0 005.5 2.3c1.6 0 2.9-.3 4-1 1.2-.7 2.1-1.7 2.7-3 .6-1.3 1-2.7 1-4.3v-.9a8.4 8.4 0 00-2.3-5.6 7.2 7.2 0 00-5.4-2.2c-1.5 0-2.8.4-4 1-1 .8-2 1.7-2.6 3zm3.8 8.6c-.8-1-1.1-2.2-1.1-4 0-1.8.4-3.2 1-4.2.8-1 1.7-1.4 3-1.4 1.1 0 2.1.5 2.8 1.4.7 1 1 2.3 1 4 0 1.8-.3 3.2-1 4.2-.6 1-1.6 1.5-2.9 1.5-1.2 0-2.2-.5-2.8-1.5zm23.3 4.1a6 6 0 01-.4-1.5 5.7 5.7 0 01-4.3 1.8c-1.6 0-3-.5-4-1.4-1-1-1.6-2.1-1.6-3.5 0-1.7.7-3 2-4s3.1-1.4 5.6-1.4h2.2v-1c0-1-.2-1.6-.7-2.1-.5-.5-1.2-.8-2.2-.8-.8 0-1.5.2-2 .7a2 2 0 00-.8 1.5h-3.7c0-.9.3-1.7.9-2.5a6 6 0 012.4-1.8c1-.5 2.2-.7 3.4-.7 2 0 3.5.5 4.6 1.5 1.2 1 1.8 2.3 1.8 4v7.4c0 1.5.2 2.7.6 3.5v.3h-3.8zm-4-2.6c.7 0 1.4-.2 2-.6.7-.3 1.2-.8 1.5-1.4v-3h-2c-1.3 0-2.4.1-3 .6-.7.5-1 1.2-1 2 0 .7.2 1.3.6 1.7.5.4 1.1.7 2 .7zm12.1-11.8a9.7 9.7 0 00-1.8 6c0 2.7.6 4.8 1.8 6.4a5.6 5.6 0 004.7 2.3c1.8 0 3.3-.7 4.4-2l.2 1.7h3.3v-23.3h-3.7v8.4a5.4 5.4 0 00-4.2-1.8c-2 0-3.5.8-4.7 2.3zm2.9 10.3c-.7-1-1-2.2-1-3.9 0-1.9.3-3.3 1-4.2.6-1 1.6-1.5 2.8-1.5 1.5 0 2.5.7 3.2 2v7c-.7 1.3-1.8 2-3.3 2-1.2 0-2-.5-2.7-1.4z" fill="#C4C4C4"/>
  <path fill="#000" d="M0 0h2848v109H0z"/>
  <path d="M75.8 43h3v15.6c0 2-.7 3.7-2 5a7 7 0 01-5 1.7c-2.2 0-4-.6-5.2-1.7a6 6 0 01-1.8-4.7h3a4 4 0 001 3c.6.7 1.6 1 3 1 1.2 0 2.1-.4 2.9-1.1.7-.8 1-1.8 1-3.2V43zM93.3 65l-.4-1.7a6.2 6.2 0 01-4.6 2c-1.6 0-3-.5-4-1.4-1-.9-1.5-2-1.5-3.4 0-1.7.6-3 1.9-4 1.3-1 3.1-1.4 5.5-1.4h2.7v-1.3c0-1-.3-1.8-.9-2.3-.6-.6-1.4-1-2.6-1a4 4 0 00-2.5.8c-.7.5-1 1.1-1 1.9h-2.8c0-.9.3-1.6.9-2.4a6 6 0 012.3-1.8c1-.5 2.1-.7 3.3-.7 1.9 0 3.4.5 4.4 1.4a5 5 0 011.7 4v7.5c0 1.5.2 2.7.6 3.6v.2h-3zm-4.6-2.1a5 5 0 002.5-.7c.8-.5 1.3-1 1.7-1.8v-3.3h-2.2c-3.4 0-5.1 1-5.1 3 0 .8.2 1.5.8 2 .6.5 1.4.8 2.3.8zM105.2 61.2l4.1-12.6h2.9l-6 16.4h-2l-6-16.4h2.9l4.1 12.6zM124.7 65l-.4-1.7a6.2 6.2 0 01-4.6 2c-1.6 0-3-.5-4-1.4-1-.9-1.6-2-1.6-3.4 0-1.7.7-3 2-4s3.1-1.4 5.5-1.4h2.7v-1.3c0-1-.3-1.8-.9-2.3-.6-.6-1.4-1-2.6-1a4 4 0 00-2.5.8c-.7.5-1 1.1-1 1.9h-2.8c0-.9.3-1.6.8-2.4a6 6 0 012.4-1.8c1-.5 2.1-.7 3.3-.7 1.9 0 3.4.5 4.4 1.4a5 5 0 011.7 4v7.5c0 1.5.2 2.7.6 3.6v.2h-3zm-4.6-2.1a5 5 0 002.5-.7c.8-.5 1.3-1 1.7-1.8v-3.3H122c-3.4 0-5.2 1-5.2 3 0 .8.3 1.5 1 2 .5.5 1.3.8 2.2.8zM138.4 55.2c-2.5-.7-4.3-1.6-5.4-2.7a5 5 0 01-1.7-3.8c0-1.8.7-3.2 2-4.3a8.3 8.3 0 015.5-1.7 9 9 0 014 .8c1.2.6 2.1 1.4 2.8 2.5.6 1 1 2.1 1 3.3h-3a4 4 0 00-1.3-3.1c-.8-.8-2-1.2-3.5-1.2s-2.6.4-3.4 1c-.8.6-1.2 1.5-1.2 2.6 0 1 .4 1.7 1.1 2.3.8.6 2.1 1.2 4 1.7 1.8.5 3.2 1 4.2 1.7 1 .6 1.8 1.4 2.3 2.2.5.8.8 1.8.8 2.9 0 1.8-.7 3.2-2.1 4.3a9 9 0 01-5.6 1.6c-1.5 0-3-.3-4.2-.9a7.2 7.2 0 01-3-2.4c-.8-1-1.1-2.1-1.1-3.4h2.9c0 1.3.5 2.4 1.5 3.2 1 .7 2.3 1.1 4 1.1 1.4 0 2.6-.3 3.4-1a3 3 0 001.3-2.5c0-1-.4-1.9-1.2-2.5a13 13 0 00-4-1.7zM156.5 63a4 4 0 002.6-.9c.7-.6 1.1-1.4 1.2-2.3h2.7a5 5 0 01-1 2.7c-.6.9-1.4 1.5-2.4 2-1 .6-2 .8-3.1.8-2.3 0-4-.7-5.4-2.2a9 9 0 01-2-6.1v-.5c0-1.6.4-3 1-4.3a6.7 6.7 0 016.3-3.9c1.9 0 3.4.6 4.6 1.7a5.9 5.9 0 012 4.3h-2.7a3.8 3.8 0 00-3.9-3.7 4 4 0 00-3.3 1.6c-.8 1-1.1 2.5-1.1 4.4v.5a7 7 0 001.1 4.4 4 4 0 003.4 1.5zM174 51.1h-1.3c-1.9 0-3.1.7-3.8 2.3V65h-2.8V48.6h2.7v2c1-1.5 2.3-2.3 4-2.3.5 0 1 0 1.2.2v2.6zM179.7 65h-2.8V48.6h2.8V65zm-3-20.7c0-.5 0-.9.3-1.2.3-.3.7-.4 1.3-.4.5 0 1 .1 1.2.4.3.3.4.7.4 1.2 0 .4 0 .8-.4 1.1-.3.3-.7.5-1.2.5-.6 0-1-.2-1.3-.5-.2-.3-.4-.7-.4-1.1zM198 57c0 2.5-.6 4.5-1.7 6a5.5 5.5 0 01-4.7 2.3 6 6 0 01-4.6-1.9v7.9h-2.8V48.6h2.5l.2 1.8a5.8 5.8 0 014.7-2c2 0 3.5.7 4.7 2.1a9.9 9.9 0 011.7 6.2v.3zm-2.8-.3c0-1.9-.4-3.3-1.2-4.4-.8-1-1.9-1.6-3.2-1.6-1.7 0-3 .7-3.8 2.3v7.8a4.1 4.1 0 003.8 2.2c1.3 0 2.4-.5 3.2-1.6.8-1 1.2-2.6 1.2-4.7zM205.4 44.7v4h3v2h-3V61c0 .7.1 1.2.4 1.5.2.3.7.5 1.4.5.3 0 .7 0 1.3-.2V65c-.7.2-1.5.3-2.2.3-1.2 0-2.1-.4-2.8-1.1-.6-.8-1-1.9-1-3.3V50.8h-3v-2.2h3v-4h2.9zM219.3 63.5c0-.5.1-.9.4-1.2.3-.3.8-.5 1.3-.5.6 0 1 .2 1.3.5.3.3.5.7.5 1.2s-.2.9-.5 1.2c-.3.3-.7.5-1.3.5-.5 0-1-.2-1.3-.5-.3-.3-.4-.7-.4-1.2zm0-13.3c0-.5.2-1 .4-1.2.3-.4.8-.5 1.3-.5.6 0 1 .1 1.3.5.3.3.5.7.5 1.2 0 .4-.2.8-.5 1.1-.2.3-.7.5-1.3.5-.5 0-1-.2-1.3-.5-.2-.3-.4-.7-.4-1.1zM252 65h-3l-11-17v17h-3V43h3l11 17V43h3v22zM256 56.7c0-1.6.3-3 .9-4.4a7.1 7.1 0 012.6-3c1.2-.6 2.4-1 3.9-1 2.2 0 4 .8 5.4 2.3 1.4 1.6 2 3.6 2 6.2v.2c0 1.6-.2 3-.9 4.3a6.9 6.9 0 01-6.5 4A7 7 0 01258 63a8.9 8.9 0 01-2-6.1v-.2zm2.8.3a7 7 0 001.2 4.4 4 4 0 003.4 1.6 4 4 0 003.4-1.6 7.7 7.7 0 001.3-4.7 7 7 0 00-1.3-4.4 4 4 0 00-3.4-1.7 4 4 0 00-3.4 1.7 7.6 7.6 0 00-1.2 4.7zM279.5 61.2l4-12.6h3l-6 16.4h-2l-6-16.4h2.9l4.1 12.6zM292.2 65h-2.8V48.6h2.8V65zm-3-20.7c0-.5.1-.9.4-1.2.3-.3.7-.4 1.2-.4.6 0 1 .1 1.3.4.2.3.4.7.4 1.2 0 .4-.2.8-.4 1.1-.3.3-.7.5-1.3.5-.5 0-1-.2-1.2-.5-.3-.3-.4-.7-.4-1.1zM303.3 63a4 4 0 002.6-.9c.7-.6 1.1-1.4 1.2-2.3h2.7a5 5 0 01-1 2.7c-.6.9-1.4 1.5-2.4 2-1 .6-2 .8-3.1.8-2.3 0-4-.7-5.4-2.2a9 9 0 01-2-6.1v-.5c0-1.6.3-3 1-4.3a6.7 6.7 0 016.3-3.9c1.9 0 3.4.6 4.6 1.7a5.9 5.9 0 012 4.3H307a3.8 3.8 0 00-3.9-3.7 4 4 0 00-3.3 1.6c-.8 1-1.1 2.5-1.1 4.4v.5a7 7 0 001.1 4.4 4 4 0 003.4 1.5zM319.7 65.3c-2.2 0-4-.7-5.4-2.2a8.1 8.1 0 01-2.1-5.8v-.5c0-1.7.3-3.1 1-4.4a7.3 7.3 0 012.5-3c1.1-.7 2.4-1 3.7-1 2 0 3.7.6 5 2a9.1 9.1 0 011.7 6v1.2H315c0 1.6.5 3 1.4 4 1 1 2 1.4 3.5 1.4 1 0 1.8-.2 2.5-.6.7-.4 1.3-1 1.8-1.6l1.7 1.3a6.9 6.9 0 01-6.2 3.2zm-.3-14.7c-1.2 0-2.1.4-2.9 1.3a6 6 0 00-1.4 3.4h8.2v-.2c0-1.4-.5-2.5-1.2-3.3a3.5 3.5 0 00-2.7-1.2zM340.8 44.7v4h3v2h-3V61c0 .7.2 1.2.4 1.5.3.3.8.5 1.4.5.4 0 .8 0 1.4-.2V65l-2.2.3c-1.2 0-2.2-.4-2.8-1.1-.6-.8-1-1.9-1-3.3V50.8h-3v-2.2h3v-4h2.8zM346.1 56.7c0-1.6.3-3 1-4.4a7.1 7.1 0 012.6-3c1.1-.6 2.4-1 3.9-1 2.2 0 4 .8 5.4 2.3 1.4 1.6 2 3.6 2 6.2v.2c0 1.6-.3 3-.9 4.3a6.9 6.9 0 01-6.5 4 7 7 0 01-5.4-2.3 8.9 8.9 0 01-2-6.1v-.2zm2.8.3a7 7 0 001.3 4.4 4 4 0 003.4 1.6 4 4 0 003.4-1.6 7.7 7.7 0 001.2-4.7 7 7 0 00-1.2-4.4 4 4 0 00-3.4-1.7 4 4 0 00-3.4 1.7A7.6 7.6 0 00349 57zM389.6 65h-2.9l-11-17v17h-3V43h3l11 17V43h3v22zM397.4 65h-2.8V48.6h2.8V65zm-3-20.7c0-.5.1-.9.4-1.2.3-.3.7-.4 1.2-.4.6 0 1 .1 1.3.4.2.3.4.7.4 1.2 0 .4-.2.8-.4 1.1-.3.3-.7.5-1.3.5-.5 0-1-.2-1.2-.5-.3-.3-.4-.7-.4-1.1zM404.5 48.6l.1 2a6 6 0 015-2.3c3.4 0 5.1 2 5.2 5.9V65H412V54.2c0-1.2-.3-2-.9-2.7-.5-.5-1.3-.8-2.4-.8a4 4 0 00-2.4.7 5 5 0 00-1.6 2V65h-2.8V48.6h2.6zM421.9 48.6V67c0 3.1-1.4 4.7-4.3 4.7-.6 0-1.2 0-1.7-.3v-2.2l1.3.1c.6 0 1-.1 1.4-.5.3-.3.5-1 .5-1.7V48.6h2.8zm-3.1-4.3c0-.5.1-.8.4-1.2.3-.3.7-.4 1.2-.4.6 0 1 .1 1.3.4.2.3.4.7.4 1.2 0 .4-.2.8-.4 1.1-.3.3-.7.5-1.3.5-.5 0-1-.2-1.2-.5-.3-.3-.4-.7-.4-1.1zM436.5 65l-.4-1.7a6.2 6.2 0 01-4.6 2c-1.7 0-3-.5-4-1.4-1-.9-1.6-2-1.6-3.4 0-1.7.7-3 2-4s3.1-1.4 5.5-1.4h2.7v-1.3c0-1-.3-1.8-.9-2.3-.6-.6-1.4-1-2.6-1a4 4 0 00-2.5.8c-.7.5-1 1.1-1 1.9h-2.8c0-.9.3-1.6.8-2.4a6 6 0 012.4-1.8c1-.5 2-.7 3.3-.7 1.9 0 3.3.5 4.4 1.4a5 5 0 011.7 4v7.5c0 1.5.2 2.7.6 3.6v.2h-3zm-4.6-2.1a5 5 0 002.5-.7c.8-.5 1.3-1 1.7-1.8v-3.3h-2.2c-3.4 0-5.2 1-5.2 3 0 .8.3 1.5 1 2 .5.5 1.3.8 2.2.8zM443.2 69.4l-1.6-1.1c1-1.3 1.4-2.7 1.5-4v-2.6h2.7v2.2c0 1-.2 2-.7 3a7 7 0 01-2 2.5zM471.2 65h-14.4v-2l7.6-8.5a18 18 0 002.3-3.1c.4-.8.7-1.6.7-2.5a4 4 0 00-1-2.8 3.7 3.7 0 00-2.9-1.1c-1.4 0-2.4.4-3.2 1.2-.8.7-1.2 1.8-1.2 3.3h-2.8c0-2 .7-3.7 2-5 1.3-1.2 3-1.8 5.2-1.8 2 0 3.7.5 4.9 1.6 1.2 1 1.8 2.5 1.8 4.3 0 2.1-1.4 4.7-4.2 7.7l-5.9 6.4h11V65zM477.1 48.6v2a6 6 0 015-2.3c3.5 0 5.2 2 5.2 5.9V65h-2.8V54.2c0-1.2-.3-2-.8-2.7-.5-.5-1.3-.8-2.5-.8a4 4 0 00-2.3.7 5 5 0 00-1.7 2V65h-2.8V48.6h2.7zM490.9 56.7c0-2.5.6-4.6 1.8-6a5.6 5.6 0 014.6-2.4c2 0 3.5.7 4.6 2v-8.5h2.8V65H502l-.1-1.8a5.7 5.7 0 01-4.7 2.1c-1.9 0-3.4-.8-4.6-2.3a9.7 9.7 0 01-1.8-6.1v-.2zm2.8.3c0 1.8.4 3.3 1.1 4.4.8 1 1.8 1.5 3.2 1.5a4 4 0 003.9-2.4V53a4.1 4.1 0 00-3.9-2.3c-1.3 0-2.4.5-3.2 1.6a8 8 0 00-1.1 4.7zM529.6 54.8h-9.5v7.8h11V65h-14V43h14v2.4h-11v7h9.5v2.4zM533.4 56.7c0-2.5.6-4.6 1.8-6a5.6 5.6 0 014.6-2.4c2 0 3.5.7 4.6 2v-8.5h2.8V65h-2.6l-.1-1.8a5.7 5.7 0 01-4.7 2.1c-1.9 0-3.4-.8-4.6-2.3a9.7 9.7 0 01-1.8-6.1v-.2zm2.8.3c0 1.8.4 3.3 1.1 4.4.8 1 1.9 1.5 3.2 1.5a4 4 0 003.9-2.4V53a4.1 4.1 0 00-3.9-2.3c-1.3 0-2.4.5-3.2 1.6a8 8 0 00-1.1 4.7zM554.6 65h-2.8V48.6h2.8V65zm-3-20.7c0-.5.1-.9.4-1.2.3-.3.7-.4 1.2-.4.6 0 1 .1 1.3.4.2.3.4.7.4 1.2 0 .4-.2.8-.4 1.1-.3.3-.7.5-1.3.5-.5 0-1-.2-1.2-.5-.3-.3-.4-.7-.4-1.1zM562.9 44.7v4h3v2h-3V61c0 .7.1 1.2.4 1.5.3.3.7.5 1.4.5.3 0 .8 0 1.3-.2V65l-2.1.3c-1.3 0-2.2-.4-2.9-1.1-.6-.8-1-1.9-1-3.3V50.8h-2.9v-2.2h3v-4h2.8zM572.3 65h-2.8V48.6h2.8V65zm-3-20.7c0-.5 0-.9.4-1.2.2-.3.7-.4 1.2-.4s1 .1 1.2.4c.3.3.5.7.5 1.2 0 .4-.2.8-.5 1.1-.2.3-.7.5-1.2.5s-1-.2-1.2-.5c-.3-.3-.5-.7-.5-1.1zM576 56.7c0-1.6.3-3 1-4.4a7.1 7.1 0 012.6-3c1.1-.6 2.4-1 3.9-1 2.2 0 4 .8 5.4 2.3 1.3 1.6 2 3.6 2 6.2v.2c0 1.6-.3 3-.9 4.3a6.9 6.9 0 01-6.5 4A7 7 0 01578 63a8.9 8.9 0 01-2-6.1v-.2zm2.8.3a7 7 0 001.3 4.4 4 4 0 003.4 1.6 4 4 0 003.4-1.6 7.7 7.7 0 001.2-4.7 7 7 0 00-1.2-4.4 4 4 0 00-3.4-1.7 4 4 0 00-3.4 1.7 7.6 7.6 0 00-1.3 4.7zM597.1 48.6v2a6 6 0 015-2.3c3.5 0 5.2 2 5.2 5.9V65h-2.8V54.2c0-1.2-.3-2-.8-2.7-.5-.5-1.3-.8-2.5-.8a4 4 0 00-2.3.7 5 5 0 00-1.6 2V65h-2.8V48.6h2.6zM2352 38.7h6.7v26.7h-6.7zM2369.8 39.8l8.7-1.5L2383 64l-8.7 1.4-4.5-25.6zM2360.9 32h8.9v33.4h-8.9zM2277 59v3h-9v-3zM2275 41h-4v5h-5v4h5v5h4v-5h5v-4h-5v-5zM2249.4 58.5h-7l-1.7 6.5h-5.7l7.4-24h7.3l7.2 24h-5.6l-1.9-6.5zm-6.2-3.9h5.4l-2.2-7.4-.5-2.3h-.1l-.6 2.3-2 7.4z" fill="#fff"/>
  <path fill-rule="evenodd" clip-rule="evenodd" d="M2148.5 70c8.6 0 15.5-6.7 15.5-15s-7-15-15.5-15c-8.6 0-15.5 6.7-15.5 15s7 15 15.5 15zm0-2.9h-.5V42.9h.4c7 0 12.6 5.4 12.6 12.1 0 6.7-5.6 12.1-12.6 12.1z" fill="#fff"/>
  <path d="M2627.6 64V42h6.2c1.9 0 3.6.4 5 1.2 1.5.9 2.7 2 3.5 3.7.8 1.5 1.2 3.3 1.2 5.3v1.4c0 2.1-.4 4-1.2 5.5-.8 1.6-2 2.8-3.5 3.6-1.4.9-3.2 1.3-5.1 1.3h-6.1zm2.9-19.6v17.2h3c2.3 0 4-.7 5.2-2 1.3-1.5 2-3.4 2-6v-1.3c0-2.5-.7-4.4-1.8-5.8a6.2 6.2 0 00-5-2.1h-3.4zM2657.6 64a6 6 0 01-.4-1.7 6.2 6.2 0 01-4.7 2c-1.6 0-3-.5-4-1.4-1-.9-1.5-2-1.5-3.4 0-1.7.6-3 2-4 1.2-1 3-1.4 5.4-1.4h2.7v-1.3c0-1-.3-1.8-.8-2.3-.6-.6-1.5-1-2.6-1a4 4 0 00-2.5.8c-.7.5-1 1.1-1 1.9h-2.9c0-.9.3-1.6.9-2.4a6 6 0 012.4-1.8 8 8 0 013.2-.7c2 0 3.4.5 4.5 1.4a5 5 0 011.6 4v7.5c0 1.5.2 2.7.6 3.6v.2h-3zm-4.7-2.1a5 5 0 002.5-.7c.8-.5 1.4-1 1.7-1.8v-3.3h-2.2c-3.4 0-5.1 1-5.1 3 0 .8.3 1.5.9 2 .6.5 1.3.8 2.2.8zM2673.9 59.7a2 2 0 00-.9-1.8 8 8 0 00-3-1l-3.4-1.2a5 5 0 01-1.8-1.5c-.4-.6-.6-1.3-.6-2 0-1.4.6-2.6 1.7-3.5 1.1-1 2.6-1.4 4.4-1.4 1.8 0 3.3.5 4.5 1.5 1.1 1 1.7 2.1 1.7 3.6h-2.8c0-.7-.3-1.4-1-2-.6-.5-1.4-.8-2.4-.8s-1.9.2-2.4.7a2 2 0 00-.9 1.7c0 .7.3 1.2.8 1.6.5.3 1.5.6 2.9 1 1.4.3 2.5.6 3.4 1a5 5 0 012 1.6c.3.6.6 1.4.6 2.3 0 1.4-.6 2.6-1.8 3.5a7.4 7.4 0 01-4.6 1.3c-1.3 0-2.4-.2-3.4-.7-1-.5-1.8-1.1-2.4-2-.6-.8-.9-1.7-.9-2.6h2.8a3 3 0 001.2 2.2c.7.5 1.6.8 2.8.8 1 0 1.9-.2 2.5-.6.6-.5 1-1 1-1.7zM2683.1 49.6a6 6 0 014.8-2.3c3.5 0 5.3 2 5.3 5.9V64h-2.8V53.2c0-1.2-.3-2-.8-2.7-.5-.5-1.4-.8-2.5-.8a4 4 0 00-2.4.7 5 5 0 00-1.6 2V64h-2.8V40.7h2.8v8.9zM2711.3 56c0 2.5-.6 4.5-1.8 6a5.5 5.5 0 01-4.6 2.3c-2 0-3.7-.7-4.8-2.2l-.1 1.9h-2.6V40.7h2.8v8.7a5.7 5.7 0 014.7-2c2 0 3.5.7 4.6 2.2a10 10 0 011.8 6.2v.2zm-2.9-.3c0-2-.3-3.4-1-4.4-.8-1-1.8-1.6-3.2-1.6-1.9 0-3.2.9-4 2.6v7c.8 1.8 2.2 2.6 4 2.6 1.3 0 2.4-.5 3.1-1.5a8 8 0 001.1-4.7zM2714 55.7c0-1.6.4-3 1-4.4a7 7 0 012.6-3c1.2-.6 2.4-1 3.9-1a7 7 0 015.4 2.3c1.4 1.6 2 3.6 2 6.2v.2c0 1.6-.3 3-.9 4.3a7 7 0 01-6.5 4c-2.2 0-4-.8-5.4-2.3a8.9 8.9 0 01-2-6.1v-.2zm2.9.3a7 7 0 001.2 4.4 4 4 0 003.4 1.6 4 4 0 003.4-1.6 7.7 7.7 0 001.3-4.7 7 7 0 00-1.3-4.4 4 4 0 00-3.4-1.7 4 4 0 00-3.4 1.7 7.6 7.6 0 00-1.2 4.7zM2742.6 64a6 6 0 01-.4-1.7 6.3 6.3 0 01-4.7 2c-1.6 0-3-.5-4-1.4-1-.9-1.5-2-1.5-3.4 0-1.7.7-3 2-4 1.2-1 3-1.4 5.4-1.4h2.7v-1.3c0-1-.3-1.8-.8-2.3-.6-.6-1.5-1-2.6-1-1 0-1.9.3-2.5.8-.7.5-1 1.1-1 1.9h-2.9c0-.9.3-1.6.9-2.4a6 6 0 012.4-1.8c1-.5 2-.7 3.2-.7 2 0 3.4.5 4.5 1.4a5 5 0 011.6 4v7.5c0 1.5.2 2.7.6 3.6v.2h-3zm-4.7-2.1c1 0 1.8-.3 2.5-.7a4 4 0 001.7-1.8v-3.3h-2.2c-3.4 0-5.1 1-5.1 3 0 .8.3 1.5.9 2 .6.5 1.3.8 2.2.8zM2757.3 50.1h-1.4c-1.9 0-3.1.7-3.8 2.3V64h-2.8V47.6h2.8v2c1-1.5 2.2-2.3 4-2.3.5 0 .9 0 1.2.2v2.6zM2758.8 55.7c0-2.5.6-4.6 1.8-6a5.6 5.6 0 014.7-2.4c2 0 3.4.7 4.6 2v-8.5h2.8V64h-2.6l-.1-1.8a5.7 5.7 0 01-4.7 2.1c-2 0-3.5-.8-4.7-2.3a9.7 9.7 0 01-1.8-6.1v-.2zm2.8.3c0 1.8.4 3.3 1.2 4.4.8 1 1.8 1.5 3.2 1.5a4 4 0 003.9-2.4V52a4.1 4.1 0 00-3.9-2.3c-1.4 0-2.4.5-3.2 1.6a8 8 0 00-1.2 4.7zM2415.6 61.6h10.5V64h-13.4V42h3v19.6zM2432 64h-2.8V47.6h2.8V64zm-3-20.7c0-.5.1-.9.4-1.2.3-.3.7-.4 1.2-.4.6 0 1 .1 1.3.4.2.3.4.7.4 1.2 0 .4-.2.8-.4 1.1-.3.3-.7.5-1.3.5-.5 0-1-.2-1.2-.5-.3-.3-.4-.7-.4-1.1zM2450.4 56c0 2.5-.6 4.5-1.8 6a5.5 5.5 0 01-4.6 2.3c-2 0-3.7-.7-4.8-2.2l-.1 1.9h-2.6V40.7h2.8v8.7a5.7 5.7 0 014.7-2c2 0 3.5.7 4.7 2.2a10 10 0 011.7 6.2v.2zm-2.8-.3c0-2-.4-3.4-1.2-4.4-.7-1-1.8-1.6-3.1-1.6-1.9 0-3.2.9-4 2.6v7c.8 1.8 2.2 2.6 4 2.6 1.3 0 2.4-.5 3.1-1.5.8-1 1.2-2.6 1.2-4.7zM2461.8 50.1h-1.4c-1.8 0-3 .7-3.7 2.3V64h-2.8V47.6h2.7v2c1-1.5 2.3-2.3 4-2.3.5 0 1 0 1.2.2v2.6zM2474 64a6 6 0 01-.5-1.7 6.3 6.3 0 01-4.7 2c-1.6 0-2.9-.5-4-1.4-1-.9-1.5-2-1.5-3.4 0-1.7.7-3 2-4s3-1.4 5.4-1.4h2.8v-1.3c0-1-.3-1.8-1-2.3-.5-.6-1.4-1-2.5-1a4 4 0 00-2.5.8c-.7.5-1 1.1-1 1.9h-2.8c0-.9.3-1.6.8-2.4a6 6 0 012.4-1.8c1-.5 2-.7 3.3-.7 1.9 0 3.3.5 4.4 1.4a5 5 0 011.7 4v7.5a9 9 0 00.5 3.6v.2h-2.9zm-4.7-2.1a5 5 0 002.5-.7 4 4 0 001.7-1.8v-3.3h-2.2c-3.5 0-5.2 1-5.2 3 0 .8.3 1.5 1 2 .5.5 1.2.8 2.2.8zM2488.6 50.1h-1.4c-1.8 0-3 .7-3.7 2.3V64h-2.8V47.6h2.7v2c1-1.5 2.3-2.3 4-2.3.5 0 .9 0 1.2.2v2.6zM2496.8 59.9l3.8-12.3h3l-6.6 19c-1 2.7-2.6 4-4.8 4h-.6l-1-.2V68h.8c.9 0 1.6-.1 2.2-.5.5-.4 1-1.1 1.3-2.1l.6-1.7-5.8-16.2h3l4.1 12.3z" fill="#fff"/>
  <path fill="#C4C4C4" d="M2568 40h34v4h-34zM2568 50h34v4h-34zM2568 60h34v4h-34z"/>
  <path fill="#C4C4C4" d="M2584 38h3v8h-3zM2592 48h3v8h-3zM2576 58h3v8h-3zM1921 679h1v1h-1z"/>
  <path d="M2779 245c0-11 9-20 20-20h46v361h-46c-11 0-20-9-20-20V245z" fill="#222B2E"/>
  <path d="M2822 493v-10h3v13.8h-22v-3.9h19zM2825 476v3.8h-22v-3.9h22zM2820.2 463.5l-17.2-5.6v-4.2l22 7.9v3.7l-22 8V469l17.2-5.5zM2815.2 438.3v9h6.7v-10.5h3.1v14.4h-22v-14.3h3v10.4h6.1v-9h3zM2817.8 409.1a8 8 0 015.5 2.6c1.3 1.5 2 3.5 2 6 0 1.8-.4 3.4-1.2 4.7-.9 1.3-2 2.4-3.6 3-1.5.8-3.3 1.2-5.3 1.2h-2.1c-2 0-4-.4-5.5-1a8.3 8.3 0 01-5-8c0-2.5.7-4.4 2-6a8.3 8.3 0 015.6-2.5v3.8c-1.5.2-2.7.7-3.4 1.4-.7.7-1 1.8-1 3.3 0 1.6.6 3 1.8 3.8 1.2.9 3 1.4 5.3 1.4h2c2.4 0 4.2-.5 5.4-1.3a4.3 4.3 0 002-3.8c0-1.5-.4-2.6-1.1-3.3-.7-.8-1.8-1.3-3.4-1.5v-3.8zM2814.6 388c2.1 0 4 .5 5.7 1.2 1.6.7 2.8 1.8 3.7 3.2.9 1.4 1.3 3 1.3 4.8 0 1.8-.4 3.4-1.3 4.8a8.7 8.7 0 01-3.7 3.2c-1.7.8-3.5 1.2-5.6 1.2h-1.3c-2.1 0-4-.4-5.7-1.2a8.6 8.6 0 01-5-8 8.4 8.4 0 015-8c1.6-.7 3.5-1.1 5.6-1.1h1.3zm-1.2 4c-2.4 0-4.3.4-5.6 1.3-1.3 1-2 2.2-2 4 0 1.6.7 2.9 2 3.8 1.3 1 3.1 1.4 5.5 1.4h1.3c2.4 0 4.3-.4 5.6-1.4 1.3-1 2-2.2 2-4 0-1.6-.7-3-2-3.8a9.7 9.7 0 00-5.6-1.4h-1.2zM2825 384.3h-22v-6.5c0-2 .4-3.7 1.3-5.2a8.9 8.9 0 013.7-3.5c1.6-.9 3.4-1.3 5.4-1.3h1.1c2.1 0 4 .4 5.6 1.3 1.5.8 2.8 2 3.6 3.5.9 1.6 1.3 3.3 1.3 5.3v6.4zm-19-3.9h16V378c0-2-.7-3.5-2-4.6-1.2-1-3-1.6-5.3-1.6h-1.3c-2.4 0-4.2.5-5.5 1.5-1.2 1-1.8 2.6-1.8 4.6v2.6zM2815.2 351.1v9h6.7v-10.5h3.1V364h-22v-14.3h3v10.5h6.1v-9h3zM2798.7 293.4l9 3.4v3.7l-12.8-5.6v-3l12.7-5.6v3.7l-9 3.4zM2812.7 304.9h-2.9l8.7-24h2.9l-8.7 24zM2833.3 293.4l-9.3-3.5v-3.6l13 5.6v3l-13 5.6v-3.6l9.3-3.5z" fill="#2A95D0"/>
  <rect x="42" y="1795" width="215" height="87" rx="43" fill="#FF00E4"/>
  <path d="M162 1852h-5.2v-9.2H149v9.2h-5.3v-22h5.3v8.7h7.8v-8.7h5.3v22zM173.5 1852.3c-2.6 0-4.6-.7-6.1-2.2a7.8 7.8 0 01-2.4-5.9v-.4c0-1.7.3-3.2 1-4.5a6.8 6.8 0 012.7-3c1.2-.6 2.6-1 4.2-1a7 7 0 015.5 2.2c1.3 1.4 2 3.4 2 6v2h-10.2c.2.8.6 1.6 1.2 2 .6.6 1.4.9 2.4.9 1.6 0 2.9-.6 3.8-1.7l2.3 2.7c-.6.9-1.5 1.6-2.7 2.1a9 9 0 01-3.7.8zm-.6-13c-1.5 0-2.4 1-2.7 3h5.2v-.5c0-.8-.2-1.4-.7-1.9-.4-.4-1-.7-1.8-.7zM188.1 1852h-5v-23.3h5v23.3zM206.8 1844c0 2.5-.6 4.5-1.7 6a5.5 5.5 0 01-4.7 2.3c-1.5 0-2.7-.5-3.7-1.6v7.6h-5v-22.7h4.7l.1 1.5c1-1.2 2.3-1.8 3.9-1.8 2 0 3.6.8 4.7 2.3a10 10 0 011.7 6v.3zm-5.1-.4c0-2.9-.9-4.3-2.6-4.3-1.2 0-2 .4-2.4 1.3v6.4c.5 1 1.3 1.4 2.5 1.4 1.6 0 2.4-1.4 2.5-4.2v-.6zM103.7 1841.5c-.3.9-.5 2-.5 3.5h4.3c0-.7.2-1.4.4-1.9.1-.5.5-1 1-1.4l1.7-1.7c.8-.7 1.3-1.4 1.6-2 .4-.8.5-1.5.5-2.3 0-2-.6-3.4-1.8-4.5-1.3-1-3-1.5-5.3-1.5-2.2 0-4 .5-5.2 1.6a6 6 0 00-2 4.8h5.2c0-.8.2-1.4.6-1.8.3-.5.8-.7 1.4-.7 1.4 0 2 .8 2 2.3 0 .6-.2 1.2-.6 1.7l-1.7 1.7c-.7.6-1.3 1.4-1.6 2.2zM103.4 1847.8c-.5.5-.8 1-.8 1.8s.3 1.4.8 1.9a3 3 0 002 .7 3 3 0 002-.7c.6-.5.8-1.1.8-1.9 0-.7-.2-1.3-.8-1.8-.5-.5-1.2-.7-2-.7a3 3 0 00-2 .7z" fill="#000"/>
  <path fill-rule="evenodd" clip-rule="evenodd" d="M126 1840a20 20 0 11-40 0 20 20 0 0140 0zm-4 0a16 16 0 11-32 0 16 16 0 0132 0z" fill="#000"/>
</svg>