<svg xmlns="http://www.w3.org/2000/svg" xmlns:xlink="http://www.w3.org/1999/xlink" fill="none" viewBox="190 600 511 362">

 <defs>
  <!-- CSS-->
  <style>
   .mono {
    font-family: 'Courier New', Courier, monospace;
    font-size: 6px;
    font-weight: 700;
    white-space: pre;
   }
    .code-gray{
        fill: #ccccbd;
        rx: 6;
    }
    .code-pomegranite{
        fill: #be3b63;
        rx: 6;
    }
    .code-lime{
        fill: #b4df53;
        rx: 6;
    }
    .code-numberpanel{
        fill: #49483f;
    }
    .code-numbers{
        fill: #757160;
        rx: 6;
    }
   @keyframes logoswitch {
    0% {
     transform: translateX(0)
    }
    100% {
     transform: translateX(-300px)
    }
   }

   .fader {
    animation: fader 6s infinite;
   }

   @keyframes fader {
    0% {
     opacity: 0;
    }

    20% {
     opacity: 1;
    }

    80% {
     opacity: 1;
    }

    100% {
     opacity: 0;
    }
   }
  </style>

  <!-- GRADIENTs-->

  <linearGradient id="paint0_linear" x1="186.4" x2="219.5" y1="16" y2="48.7" gradientUnits="userSpaceOnUse">
   <stop stop-color="#387EB8" />
   <stop offset="1" stop-color="#366994" />
  </linearGradient>
  <linearGradient id="paint1_linear" x1="206.7" x2="242.3" y1="37" y2="70.6" gradientUnits="userSpaceOnUse">
   <stop stop-color="#FFE052" />
   <stop offset="1" stop-color="#FFC331" />
  </linearGradient>

  <!-- SYMBOLSs-->

  <symbol id="logoline" viewBox="0 0 765 85">
   <rect width="765" height="85" fill="#fff" fill-opacity="0" />
   <path fill="#37B1D9" d="M698.7 61.3c-2.4 0-4.5-1.9-4.5-4.3 0-2.3 1.9-4.3 4.5-4.3 2.5 0 4.5 2 4.5 4.3 0 2.4-2.2 4.3-4.5 4.3zM754 37.8a13 13 0 00-5.4-8.4l-1-.9-1 1.1c-1.7 2-2.3 5.4-2.1 8 .2 2 .9 3.9 2 5.4l-2.9 1.3c-1.9.6-3.8.9-5.8.9h-55.6l-.2 1.3c-.4 4 .2 8.4 2 12.3l.8 1.5v.2C690.1 69 699.3 73 709.4 73c19.3 0 35.2-8.4 42.7-26.5 5 .2 9.9-1.1 12.3-5.9l.6-1-1-.7a13 13 0 00-10-1zm-27.7-3.4H718v8.4h8.4v-8.4zm0-10.6H718v8.4h8.4v-8.4zm0-10.8H718v8.4h8.4V13zm10.3 21.4h-8.4v8.4h8.4v-8.4zm-31.2 0h-8.3v8.4h8.3v-8.4zm10.5 0h-8.3v8.4h8.3v-8.4zm-20.8 0H687v8.4h8.3v-8.4zM716 23.8h-8.3v8.4h8.3v-8.4zm-10.5 0h-8.3v8.4h8.3v-8.4z" />
   <path fill="#3E863D" d="M607 25h62.5v36H607V25z" />
   <path fill="#9CC696" d="M669.4 61.2l-10.4-18L669.4 25 638.2 7 607 25l10.4 18.1L607 61.2l31.2 18 31.2-18z" />
   <path fill="#75BF58" fill-rule="evenodd" d="M669.4 61.2l-10.4-18L669.4 25 638.2 7 607 25l10.4 18.1L607 61.2l31.2 18 31.2-18z" clip-rule="evenodd" />
   <path fill="#50914F" d="M617.3 43l.1.1L607 61.2l31.2 18 31.2-18-10.4-18V43v.1l-20.8 36.2L617.4 43V43z" />
   <ellipse cx="552.7" cy="42" fill="#fff" rx="27.5" ry="30" />
   <path fill="#7A3DD7" d="M573.3 11h-41c-5.7 0-10.3 4.6-10.3 10.3v41c0 5.7 4.6 10.3 10.3 10.3h41c5.7 0 10.3-4.6 10.3-10.3v-41c0-5.7-4.6-10.3-10.3-10.3zm-5.6 43.3a8 8 0 01-2.4 3.1c-1 .9-2.4 1.6-4 2.1-1.8.5-3.8.8-6 .8h-16.6v-36h17.5c3.2 0 5.8.8 7.7 2.3 2 1.5 3 3.7 3 6.7a8 8 0 01-1.4 4.6 8.5 8.5 0 01-3.8 3v.1c2.2.5 4 1.5 5 3.1 1.1 1.6 1.7 3.7 1.7 6.2 0 1.3-.2 2.7-.8 3.9h.1zm-7.1-8.9c-1-1-2.5-1.4-4.5-1.4h-11v11.2h11c2 0 3.5-.5 4.5-1.5s1.6-2.4 1.6-4.2c0-1.8-.5-3.2-1.6-4.1zm-1.6-7.2c1-1 1.6-2.1 1.6-3.7 0-1.9-.5-3.1-1.4-3.9a6.1 6.1 0 00-4-1H545v9.8h10.3c1.5 0 2.8-.4 3.7-1.2z" />
   <path fill="#E34F26" d="M438 10h60l-5.5 61.2-24.6 7-24.4-7L438 10z" />
   <path fill="#EC613B" d="M468 72V15h25l-4.5 51.2L468 72z" />
   <path fill="#fff" d="M457.2 29.4l.7 7.8h27.4l-2.1 23.1-15.4 4.1-15.5-4-1-12h7.5l.6 6 8.4 2.4 8.3-2.3 1-9.8H451L449 22h37.6l-.6 7.5h-28.8z" />
   <path fill="#EBEBEB" d="M468 29.4h-10.8l.7 7.8H468v7.5h-17L449 22h19v7.4zM468 56.7v7.7h-.2l-15.5-4-1-12h7.5l.6 6 8.4 2.4h.2z" />
   <path fill="#264DE4" d="M413 10l-5.5 61.2-24.6 6.8-24.4-6.8L353 10h60z" />
   <path fill="#2965F1" d="M402.8 67.3l4.7-52.3H383v57.8l19.8-5.5z" />
   <path fill="#EBEBEB" d="M365.5 37.7l.7 7.5H383v-7.5h-17.5zM383 22.5h-18.8l.6 7.5H383v-7.5zM383 65v-7.8l-8.4-2.3-.5-6h-7.6l1 11.8L383 65z" />
   <path fill="#fff" d="M392.2 45.2l-.9 9.7-8.3 2.3V65l15.3-4.3.2-1.2 1.7-19.8.2-2 1.4-15.2H383V30h10.5l-.7 7.7H383v7.5h9.2z" />
   <rect width="50" height="48" x="278.4" y="26" fill="#333" />
   <path fill="#F7DF1E" d="M265 10h64.9v64.9H265V10zm59.6 49.4c-.5-3-2.4-5.4-8.2-7.8-2-.9-4.2-1.5-4.8-3-.3-1-.3-1.4-.1-2 .4-1.7 2.4-2.2 4-1.7 1.1.3 2 1.1 2.7 2.4l4.7-3c-.7-1.2-1-1.7-1.5-2.2-1.7-1.9-4-2.8-7.7-2.7l-2 .2a8.7 8.7 0 00-4.5 2.7 8.5 8.5 0 001.5 12.1c3.7 2.8 9 3.4 9.8 6 .6 3.1-2.4 4.1-5.3 3.8-2.2-.5-3.4-1.6-4.8-3.6l-5 2.8c.6 1.3 1.3 1.9 2.3 3 4.7 4.7 16.4 4.5 18.5-2.7.1-.3.7-2 .2-4.5l.2.2zm-24.3-19.6h-6.1v15.7c0 3.3.1 6.4-.4 7.3-.9 1.9-3.2 1.7-4.2 1.3-1.1-.5-1.6-1.2-2.3-2.3l-.3-.5-5 3c.9 1.7 2 3.2 3.6 4.1 2.3 1.4 5.4 1.9 8.7 1.1 2.1-.6 4-1.8 4.9-3.8 1.4-2.5 1-5.6 1-9V39.8z" />
   <path fill="url(#paint0_linear)" d="M213.1 10c-17 0-15.8 7.4-15.8 7.4V25h16.1v2.3h-22.6S180 26 180 43s9.5 16.5 9.5 16.5h5.6v-7.9s-.3-9.5 9.3-9.5h16s9 .2 9-8.7V19S231 10 213.2 10zm-8.9 5.1a3 3 0 013 3 3 3 0 01-3 2.8 3 3 0 01-2.9-2.9 3 3 0 013-2.9z" />
   <path fill="url(#paint1_linear)" d="M213.6 76.4c17 0 16-7.3 16-7.3l-.1-7.6h-16.2v-2.3H236s10.9 1.2 10.9-15.9-9.5-16.5-9.5-16.5h-5.6v8s.3 9.4-9.4 9.4h-16s-9-.1-9 8.7v14.7s-1.4 8.8 16.3 8.8zm9-5a3 3 0 01-3-3 3 3 0 013-2.9 3 3 0 012.9 3 3 3 0 01-3 2.8z" />
   <path fill="#41B883" d="M127.3 72.7L93 14h14l20.3 34.8L147 14h14l-33.7 58.7z" />
   <path fill="#3A5F87" d="M127.3 48.8L107 14h14l6.3 10.9L133 14h14l-19.7 34.8z" />
   <path fill="#61DAFB" fill-rule="evenodd" d="M42.5 50a7.5 7.5 0 100-15 7.5 7.5 0 000 15z" clip-rule="evenodd" />
   <path fill="#61DAFB" fill-rule="evenodd" d="M42.5 68.8c-2.2 2.1-4.6 4-7.2 5.6a16 16 0 01-7.9 2.6c-1.4 0-2.9-.3-4.1-1-2.7-1.6-4.2-4.5-4.6-8.3-.4-3.3 0-7.4 1-12-4.5-1.4-8.2-3.1-10.9-5-3-2.4-4.8-5.2-4.8-8.2 0-3 1.8-5.8 4.8-8.1 2.7-2 6.4-3.7 11-5a34.8 34.8 0 01-1.1-12c.4-4 2-6.8 4.5-8.4a8.4 8.4 0 015.3-1c1.3.2 2.7.6 4.2 1.2 3 1.4 6.4 3.7 9.8 7 3.4-3.3 6.7-5.6 9.8-7 3.5-1.5 6.8-1.7 9.5-.2 2.6 1.6 4 4.5 4.5 8.3.4 3.3 0 7.4-1 12 4.5 1.4 8.2 3 10.9 5 3 2.4 4.8 5.1 4.8 8.2 0 3-1.8 5.8-4.8 8.1-2.7 2-6.4 3.7-11 5 1.2 4.7 1.5 8.8 1.1 12-.4 3.9-2 6.8-4.5 8.3-1.3.8-2.7 1.1-4.2 1.1a16 16 0 01-8-2.6 40.3 40.3 0 01-7.1-5.6zM24.2 28.2c-1-4-1.3-7.3-1-10 .2-2.5 1.1-5.7 4.2-5.7 1.5 0 3.4.6 5.5 1.9 2 1.2 4.2 2.9 6.4 5-2 2.3-4 4.8-5.9 7.4-3 .3-6.2.7-9.2 1.4zm21.4-8.7c3-2.7 5.8-4.7 8.2-5.8 2.3-1.1 5.5-1.9 7 .8.8 1.3 1.2 3.2 1.2 5.7 0 2.3-.4 5-1.1 8-3.1-.6-6.2-1.1-9.4-1.4-1.8-2.5-3.7-5-5.9-7.3zm-16.2 23c2 4 4.1 7.7 6.6 11.3 4.4.4 8.6.4 13 0 2.5-3.6 4.7-7.4 6.6-11.3A90 90 0 0049 31c-4.3-.3-8.7-.3-13 0a89.5 89.5 0 00-6.6 11.4zm-4 9.9c.5-1.5 1-3 1.7-4.5l3 5.3a71 71 0 01-4.7-.8zm-1.2 4.4a79 79 0 009.2 1.4c1.9 2.6 3.8 5 6 7.4a31.6 31.6 0 01-8.1 5.8c-2.6 1.2-4.5 1.3-5.8.6-1.2-.7-2.1-2.5-2.4-5.3-.2-2.6.1-6 1-10zm18.3 5.5l-3.1-3.7h6.2l-3.1 3.7zM21 33.7c1 3 2 6 3.4 8.8a80 80 0 00-3.4 8.8c-3.9-1.2-7-2.6-9.1-4-2.3-1.7-3.3-3.3-3.3-4.8s1-3.1 3.3-4.7c2.1-1.6 5.2-3 9-4.1zm30.5 24.5c-1.8 2.6-3.7 5-5.8 7.4 2.2 2.1 4.4 3.8 6.4 5 2.1 1.2 4 1.8 5.5 1.8.7 0 1.4-.1 1.9-.4 1.2-.7 2.1-2.5 2.4-5.3.2-2.6-.1-6-1-10-3.1.7-6.2 1.2-9.3 1.5zm3.4-5l4.7-.8c-.5-1.5-1-3-1.7-4.5l-3 5.3zm4.7-20.6a73 73 0 00-4.7-.9l3 5.4 1.7-4.5zm1 9.9c1.4 3 2.5 6 3.4 8.8 3.9-1.2 7-2.6 9.1-4 2.3-1.7 3.3-3.3 3.3-4.8s-1-3.1-3.3-4.7c-2.1-1.5-5.2-3-9-4.1-1 3-2.2 6-3.5 8.8zm-15-16.1l-3.1-3.7c-1 1.2-2.1 2.4-3 3.7h6zM30 31.7l-4.7.9c.5 1.5 1 3 1.7 4.5l3-5.4z" clip-rule="evenodd" />
  </symbol>

  <symbol id="thinker" viewBox="14 0 164.5 140">
   <ellipse fill="#333" rx="13.9" ry="13.5" transform="matrix(1, 0, 0, 1, 0, 0)" cx="-151.697" cy="112.71" />
   <path fill="#fff" stroke="#E5E5E5" d="M 136.938 110.424 C 136.938 117.624 142.938 123.424 150.338 123.424 C 157.738 123.424 163.738 117.624 163.738 110.424 C 163.738 103.224 157.738 97.424 150.338 97.424 C 142.938 97.424 136.938 103.224 136.938 110.424 Z" />
   <ellipse fill="#333" rx="7.4" ry="7.3" transform="matrix(-1, 0, 0, 1, 0, 0)" cx="-171.656" cy="133.654" />
   <path fill="#fff" stroke="#E5E5E5" d="M 164.094 132.824 C 164.094 136.524 167.094 139.524 170.994 139.524 C 174.794 139.524 177.894 136.524 177.894 132.824 C 177.894 129.024 174.894 126.024 170.894 126.024 C 167.094 126.024 164.094 129.024 164.094 132.824 Z" />
   <path fill="#333" d="M127.7 32.6v-1.4C127.8 15.6 111.8 3 92.3 3c-16.9 0-31 9.3-34.7 21.8-4-1.9-8.5-3-13.3-3C28.6 21.8 16 33 16 46.6c0 9.6 6.3 18 15.4 22-.7 2.8-1.1 5.7-1.1 8.7 0 16.5 11.8 29.8 26.3 29.8 3.6 0 7-.8 10-2.3A37.4 37.4 0 0093.6 116a36.4 36.4 0 0036.8-33.6A26 26 0 00162 57.1a26 26 0 00-34.3-24.5z" />
   <path fill="#fff" stroke="#E5E5E5" d="M127.9 29.8l-.7.2v-.7V28c0-15-15.5-27.5-35-27.5C75.5.5 61.6 9.6 58 21.8l-.1.5-.6-.2c-3.9-1.9-8.4-3-13.1-3-15.4 0-27.7 10.9-27.7 24 0 9.4 6.1 17.5 15.1 21.5l.4.1v.5c-.8 2.7-1.2 5.5-1.2 8.5 0 16 11.6 29 25.8 29 3.5 0 6.8-.8 9.9-2.2l.3-.2.2.3a37 37 0 0026.5 10.9 35.8 35.8 0 0036.3-32.8v-.6l.6.1a25.4 25.4 0 0031-24.6A25.4 25.4 0 00128 29.9z" />
  </symbol>

  <symbol id="thinker-rev" viewBox="18.2 0.32 170.6 139.25">
   <g>
    <ellipse fill="#333" rx="13.9" ry="13.5" transform="matrix(-1, 0, 0, 1, 0, 0)" cx="-53.095" cy="112.525" />
    <path fill="#fff" stroke="#E5E5E5" d="M 40.126 109.725 C 40.126 116.925 46.126 122.725 53.526 122.725 C 60.926 122.725 66.926 116.925 66.926 109.725 C 66.926 102.525 60.926 96.725 53.526 96.725 C 46.126 96.725 40.126 102.525 40.126 109.725 Z" />
   </g>
   <g>
    <ellipse fill="#333" rx="7.4" ry="7.3" transform="matrix(-1, 0, 0, 1, 0, 0)" cx="-26.01" cy="133.182" />
    <path fill="#fff" stroke="#E5E5E5" d="M 18.973 131.153 C 18.973 134.853 21.973 137.853 25.873 137.853 C 29.673 137.853 32.773 134.853 32.773 131.153 C 32.773 127.353 29.773 124.353 25.773 124.353 C 21.973 124.353 18.973 127.353 18.973 131.153 Z" />
   </g>
   <path fill="#333" d="M 155.51 32.6 L 155.51 31.2 C 155.61 15.6 139.61 3 120.11 3 C 103.21 3 89.11 12.3 85.41 24.8 C 81.41 22.9 76.91 21.8 72.11 21.8 C 56.41 21.8 43.81 33 43.81 46.6 C 43.81 56.2 50.11 64.6 59.21 68.6 C 58.51 71.4 58.11 74.3 58.11 77.3 C 58.11 93.8 69.91 107.1 84.41 107.1 C 88.01 107.1 91.41 106.3 94.41 104.8 C 101.518 112.041 111.264 116.084 121.41 116 C 140.622 116.268 156.734 101.557 158.21 82.4 C 174.401 85.971 189.753 73.68 189.81 57.1 C 189.715 39.378 172.306 26.942 155.51 32.6 Z" />
   <path fill="#fff" stroke="#E5E5E5" d="M 155.71 29.8 L 155.01 30 L 155.01 29.3 L 155.01 28 C 155.01 13 139.51 0.5 120.01 0.5 C 103.31 0.5 89.41 9.6 85.81 21.8 L 85.71 22.3 L 85.11 22.1 C 81.21 20.2 76.71 19.1 72.01 19.1 C 56.61 19.1 44.31 30 44.31 43.1 C 44.31 52.5 50.41 60.6 59.41 64.6 L 59.81 64.7 L 59.81 65.2 C 59.01 67.9 58.61 70.7 58.61 73.7 C 58.61 89.7 70.21 102.7 84.41 102.7 C 87.91 102.7 91.21 101.9 94.31 100.5 L 94.61 100.3 L 94.81 100.6 C 101.821 107.645 111.372 111.573 121.31 111.5 C 140.159 111.829 156.033 97.485 157.61 78.7 L 157.61 78.1 L 158.21 78.2 C 174.027 81.776 189.099 69.816 189.21 53.6 C 188.936 36.449 172.09 24.495 155.81 29.9 Z" />

  </symbol>
  <!-- CLIP-PATHs-->

  <clipPath id="frame" width="513" height="334" x="0" y="0" maskUnits="userSpaceOnUse">
   <path fill="#fff" d="M0 0h513v334H0V0z" />
  </clipPath>

  <clipPath id="clipper">
   <rect width="33" height="200" fill="#fff" />
  </clipPath>

 </defs>

 <!-- DEFS END-->

 <!-- BODY-->
  <g clip-path="url(#frame)" transform="translate(191 614.5)">
    <path fill="#1B2534" d="M485.7 298.7c-3.5-18.1-12-35.4-17.4-53.2a323.6 323.6 0 01-12.7-76.7c-1.3-27.4 1.4-55.9-8-82.2-12.4-35.3-44-50.9-79.6-39.6-31.8 10.2-62.7 24.5-97 19.6-28-4-64-20.9-96.7-24.1-4.1-.5-8.2-.7-12.1-.6-44.4.8-68.4 38.2-63.2 79.9 4 33 25.6 66.8-2.5 95-15.9 16-29 36.3-29.7 59.5-1.5 57.2 50 99.7 105 99.3 17.1 0 32.1 7 48 12.3a328.2 328.2 0 00144.9 14.4c27.6-3.2 60.8-8.1 85-22.5a78.6 78.6 0 0036.8-55.7 77 77 0 00-.8-25.4"/>
    <path fill="#fff" d="M437.9 86.1V291c0 2.3-2 4.3-4.4 4.3H166.7c-2.4 0-4.4-2-4.4-4.3V86c0-2.4 2-4.4 4.4-4.4h266.8c2.4 0 4.4 2 4.4 4.4z"/>
    <path fill="#0E677F" d="M166.7 83a3 3 0 00-3 3.1V291a3 3 0 003 3h266.8a3 3 0 003-3V86a3 3 0 00-3-3H166.7zm266.8 213.6H166.7a5.7 5.7 0 01-5.7-5.7V86c0-3.1 2.6-5.7 5.7-5.7h266.8c3.2 0 5.7 2.6 5.7 5.7v205c0 3.1-2.5 5.7-5.7 5.7"/>
    <path fill="#0E677F" d="M438 85.6v19.6H162V85.6c0-1.9 2-3.4 4.4-3.4h267.2c2.4 0 4.4 1.5 4.4 3.4z"/>
    <circle cx="173" cy="94" r="5" fill="#fff"/>
    <circle cx="193" cy="94" r="5" fill="#fff"/>
    <circle cx="213" cy="94" r="5" fill="#fff"/>
    <path fill="#ECECEA" d="M417.6 234.4H282.3V247h135.3v-12.7zm0 21H282.3V268h135.3v-12.7zm-235-112.9H269V130h-86.3v12.4zm0 20.9H269v-12.3h-86.3v12.3zm0 21H269V172h-86.3v12.4zm0 20.9H269V193h-86.3v12.3zm0 21H269v-12.4h-86.3v12.4zm0 20.9H269V235h-86.3v12.3m-.1 20.8H269v-12.3h-86.3v12.3z"/>
    <path fill="#fff" d="M363.4 167.6L337.9 153v29.5l25.5-14.8z"/>
    <path fill="#E0E1DE" d="M414.8 218.5a5.6 5.6 0 11-11.2 0 5.6 5.6 0 0111.2 0z"/>
    <path fill="#0D7B9C" d="M408 221.9c-.2 0-.4 0-.5-.2a.6.6 0 010-.8l2.2-2.4-2.2-2.4a.6.6 0 11.9-.8l3 3.2-3 3.2-.5.2z"/>
    <path fill="#E0E1DE" d="M285 218.5a5.6 5.6 0 1011.3 0 5.6 5.6 0 00-11.2 0z"/>
    <path fill="#0D7B9C" d="M292 221.9c-.2 0-.3 0-.5-.2l-3-3.2 3-3.2c.3-.3.6-.3.9 0 .2.1.2.5 0 .8l-2.3 2.4 2.3 2.4a.6.6 0 01-.4 1"/>
    <path fill="#05CA60" d="M58.9 329.3c-.5-2.1-.5-4.1 0-5.6 1.6-5.2 6.6-8.7 10-12.5a25.6 25.6 0 007.3-16.6c0-5 1.1-9.3 4.6-13 3.5-3.8 7.8-6.6 11.4-10.1 3.8-3.8 7.2-7.7 10.2-12.2 2.6-3.7 7.3-9.3 11-3 1.4 2.4 1.9 5.4 1.3 8.2-1.7 7.3-8.4 12-11.2 18.8-1.4 3.4-1.6 7-2 10.7-.3 3.2-1 6.9-3.3 9.4-1.3 1.4-3 2.5-4.3 4-1.7 2.2-2.2 5-2.8 7.6a40 40 0 01-3 8c-3 6.5-7.4 14.1-14.3 17.1a10 10 0 01-6.4.8c-4.7-1.3-7.6-7.2-8.5-11.6"/>
    <path fill="#05CA60" d="M48.7 333c-6.9-8.2-11.6-17.9-8.8-28.9 1.1-4.5 2.2-8.3-.6-12.5-1.3-2-3-3.7-4-5.9-2.7-6.4 0-12.7 3-18.4 2.2-4.2 4.6-8.5 5.6-13.2 1.1-4.9 0-10 .7-15 .6-4.7 3.4-10 8.2-10.8 3.1-.5 6.4 1 8.7 3.3 2.7 2.6 4.5 6 5.1 9.7.9 5-.5 10.3 1.5 15 1.8 4.1 5.8 6.8 8.4 10.4 2.8 3.9 3.8 9 2.9 13.6-.8 3.9-2.9 7.4-3.5 11.3-1.4 8.8 4.8 17.4 3.6 26.3-.7 5-3.9 9.7-8.1 12.7a24.5 24.5 0 01-17.6 4.7c-3.1-.6-6-2.4-7.7-5.1"/>
    <path fill="#D5F5EC" d="M69.4 273.4a.7.7 0 00-1 .2l-10.2 15.2-2.3-39.7c0-.3-.4-.6-.7-.6-.4 0-.6.4-.6.7l1.7 29-12.7-7a.7.7 0 00-.6 1.1l13.2 7.3h.1l1.6 26.8-10.3-5.2a.7.7 0 10-.5 1.2L58 308l1.2 21.7c0 .3.3.6.6.6h.1c.4 0 .7-.3.6-.7L58.3 291l11.3-16.6c.2-.3 0-.7-.2-1"/>
    <path fill="#05CA60" d="M54 334.3c.1-1.5 0-3-.5-4-1.6-3.4-5.4-5.5-8.3-7.9-3.3-2.9-6-6.7-6.4-11-.4-3.5-1.5-6.3-4.4-8.7-2.8-2.4-6.1-4-9-6.2-3-2.3-5.9-4.9-8.4-7.7-2.1-2.4-6-6-8.2-1.4a7 7 0 00-.4 5.7c1.7 5 7 7.8 9.5 12.3 1.3 2.3 1.7 4.8 2.2 7.3.5 2.2 1.2 4.7 3.1 6.2 1.1 1 2.5 1.6 3.5 2.6 1.4 1.4 2 3.2 2.6 5 .6 2 1.6 3.6 2.7 5.3 2.6 4.4 6.4 9.3 11.7 11 1.5.4 3.2.6 4.7 0 3.4-1.1 5.2-5.4 5.5-8.5z"/>
    <path fill="#D5F5EC" d="M45 336.1l-1.6-2.7.1-.3 1-7c.1-.4-.1-.7-.5-.7-.4-.1-.7.1-.7.5l-.9 5.7-8.5-14.5v-.2l-.4-11.7c0-.3-.3-.6-.7-.6-.3 0-.6.3-.6.7l.4 9.5-6.4-11a.6.6 0 00-.9-.1c-.3.1-.4.5-.2.8l9 15.3-8-3.7a.7.7 0 10-.6 1.2l9.4 4.4h.2l8.8 15.1a.7.7 0 101.1-.7"/>
    <path fill="#F0890F" d="M210 195.1v4.8h-6.2v25h6.1v4.8H87a16.8 16.8 0 01-12.1-5c-3.2-3.3-5-7.7-5-12.3a17.3 17.3 0 0117-17.3H210z"/>
    <path fill="#F8F5F3" d="M75.1 212.4l.1 1.6.2.9a12.3 12.3 0 003.4 6.4c2.3 2.2 5.4 3.6 8.9 3.6h116v-25h-116a12.4 12.4 0 00-12 8.8l-.3 1c-.2.8-.3 1.8-.3 2.7z"/>
    <path fill="#F8F5F3" d="M203.8 199.9v25H88.3a13.4 13.4 0 01-10.3-4.7l-.7-1a12 12 0 01-2.2-6.8v-.7a7.7 7.7 0 01.2-1.4l.2-.7.2-.9a12.4 12.4 0 013.4-5.2c2.3-2.2 5.6-3.6 9.2-3.6h115.5"/>
    <path fill="#F8F5F3" d="M203.8 199.9v25H87.7a12.4 12.4 0 01-8.9-3.6l-1-1.1a7.9 7.9 0 01-1-1.4 15.9 15.9 0 01-1-2.6l-.2-.5a7 7 0 01-.2-.8l-.2-.9v-2.3a7.7 7.7 0 01.1-1.4l.1-.7.3-.9a9.6 9.6 0 011-2.3c.4-.7.8-1.4 1.4-2 0-.2.2-.3.4-.5l.4-.4 1.3-1.2c.2 0 .4-.2.5-.3a21.5 21.5 0 012.1-1.1l1.2-.5c1.1-.3 2.4-.5 3.7-.5h116.1"/>
    <path fill="#DDD9D5" d="M78 204.4h125.7v-1H79l-.8 1zm-2.6 5.2h128.3v-.9h-128l-.3 1m-.2 4.3l.2.9h128.3v-.9H75.2zm2 5.3l.6.9h126v-1H77.1z"/>
    <path fill="#44C1CB" d="M89 223.2l6.9-6.4 6.1 6.4v-20H89v20z"/>
    <path fill="#F8F5F3" d="M154.5 315l.1 1.5.2.9a12.3 12.3 0 003.4 6.4c2.2 2.2 5.4 3.6 8.8 3.6h58.8v-25H167a12.4 12.4 0 00-12.5 12.5"/>
    <path fill="#F8F5F3" d="M225.9 302.4v25h-58.2a13.4 13.4 0 01-10.4-4.7l-.6-1a12 12 0 01-2-4.3v-.9l-.2-1.6v-.7a7 7 0 01.2-1.4l.1-.7.3-.9a12.4 12.4 0 013.3-5.2c2.4-2.2 5.7-3.6 9.3-3.6h58.2"/>
    <path fill="#008CB5" d="M225.9 302.4v25h6v4.8H82.4a16.7 16.7 0 01-12.1-5c-3.3-3.3-5-7.7-5-12.3a17.3 17.3 0 0117-17.3H232v4.8h-6.1z"/>
    <path fill="#F8F5F3" d="M225.9 302.4v25H167a12.4 12.4 0 01-8.8-3.6 11 11 0 01-1-1.1l-.6-1-.4-.4a16.5 16.5 0 01-1-2.6c-.2-.1-.2-.3-.3-.5l-.1-.8-.2-.9v-2.2a7 7 0 010-1.4l.2-.7.3-.9a9.8 9.8 0 011-2.3 12.4 12.4 0 013.5-4l.5-.4a20 20 0 012.1-1.1l1.1-.5c1.2-.3 2.5-.5 3.7-.5h59"/>
    <path fill="#DDD9D5" d="M157.4 306.9h68.4v-1h-67.5l-.9 1zm-2.6 5.2h71v-.9H155l-.3 1m-.1 4.3l.2.9h71v-.9h-71.2zm2 5.3l.6.9h68.6v-1h-69.2z"/>
    <path fill="#0C90AF" d="M167 327.2l7.4-6.7 6.6 6.7v-21h-14v21z"/>
    <path fill="#006F89" d="M157.6 306.4l-.4.5h.1c-1 1.2-2 2.7-2.5 4.3l-.2 1-.2.6v.7l-.1.7v.7a12.5 12.5 0 002 6.9l.8.8 1 1.2 1.4 1.2.3.1.1.1.1.1c2 1.2 4.2 2 6.6 2.1H232v4.8h-66a16.7 16.7 0 01-12.1-5c-3.2-3.3-5-7.7-5-12.3a17.3 17.3 0 0117-17.3h66v4.8h-66.1a11 11 0 00-1.8.3l-1 .2-1 .5a15.7 15.7 0 00-2.2 1l-.2.2-.3.2-.1.2-.5.3a16.8 16.8 0 00-1.1 1.1"/>
    <path fill="#fff" d="M85.3 318.2h-1.8v5H80V309h5.5c1.7 0 3 .4 4 1.1 1 .8 1.4 1.8 1.4 3.2 0 1-.2 1.8-.6 2.4-.4.7-1 1.2-1.9 1.6l3 5.7v.2h-3.7l-2.5-5zm-1.8-2.7h2.1c1.2 0 2-.7 2-1.9s-.8-2-2-2h-2.1v4zm18.3 1.7h-5.3v3.3h6.3v2.7h-9.7V309h9.7v2.7h-6.3v3h5.3v2.5zm10.4 3.3h-4.7l-.8 2.7h-3.6l5.2-14.2h3.2l5.2 14.2H113l-.8-2.7zm-3.8-2.6h3l-1.5-5-1.5 5zm20.6.5c-.2 3.2-3 5-5.9 5-4 0-6-3.3-6-7 0-3.6 1.8-7.6 6-7.6 3.1 0 5.6 1.9 6 5.1h-3.5c0-1.6-1-2.4-2.5-2.4-2.6 0-2.5 3.1-2.5 5 0 1.8.2 4.2 2.5 4.2 1.6 0 2.4-.7 2.5-2.3h3.4zm12.4-6.7h-4.2v11.5h-3.4v-11.5h-4.2V309h11.8v2.7z"/>
    <path fill="#EF2A4E" d="M219.8 280.4a17.3 17.3 0 01-17 17.3H56.1v-4.8h6.2v-25h-6.2V263h146.5a17.3 17.3 0 0117.1 17.3z"/>
    <path fill="#F8F5F3" d="M164 280.4l-.1 1.6-.2.9a12.3 12.3 0 01-3.4 6.3 12.4 12.4 0 01-8.8 3.7h-89v-25h89a12.4 12.4 0 0112.5 12.5"/>
    <path fill="#F8F5F3" d="M62.4 267.9v25h88.4a13.4 13.4 0 0010.4-4.8l.6-.9a12 12 0 002.1-8.2v-.7l-.2-.7-.3-.9a12.4 12.4 0 00-3.3-5.2 13.4 13.4 0 00-9.3-3.6H62.4"/>
    <path fill="#F8F5F3" d="M62.4 267.9v25h89a12.5 12.5 0 009-3.7l.9-1a7.8 7.8 0 001-1.5 17.7 17.7 0 001-2.5l.3-.5.1-.8.2-1a11.7 11.7 0 000-3v-.6l-.2-.7-.3-.9a9.9 9.9 0 00-1-2.3 12.2 12.2 0 00-3.5-4.1l-.5-.3a24.2 24.2 0 00-2.1-1.2l-1.1-.4c-1.2-.3-2.5-.5-3.7-.5H62.4"/>
    <path fill="#DDD9D5" d="M161 272.3H62.5v-.8h97.8l.9.8zm2.7 5.3H62.4v-.9h101l.3.9m.2 4.4l-.2.9H62.4v-1H164zm-1.9 5.2l-.7 1H62.4v-1H162z"/>
    <path fill="#17B2C1" d="M151 290.2l-6.3-5.8-5.7 5.8v-18h12v18z"/>
    <path fill="#D9163A" d="M169.4 280.4a17.3 17.3 0 01-17 17.3H56.1v-4.8h95.5c.8 0 1.6-.2 2.4-.4 1.5-.3 3-1 4.2-1.7v-.1l.2-.1.3-.2a12.7 12.7 0 002.4-2.3l.7-.9.5-.7.4-.8a12 12 0 001.3-5.3v-.7l-.1-.7-.1-.7-.2-.7-.2-.9a12.9 12.9 0 00-2.5-4.4h.1a6.7 6.7 0 00-.8-.8 16.8 16.8 0 00-1.1-1l-.2-.2-.3-.2-.2-.1a15.7 15.7 0 00-2.1-1.2 15.6 15.6 0 00-2-.6 10 10 0 00-1.7-.3H56.2V263h96.1a17.3 17.3 0 0117 17.3"/>
    <path fill="#fff" d="M185.5 282.4c0 1-.3 1.8-.8 2.6-1 1.7-3.1 2.4-5 2.4-4 0-6-3.3-6-7 0-3.8 1.7-7.6 6-7.6 3 0 5.6 1.9 5.8 5.1h-3.4c0-1.6-.9-2.4-2.5-2.4-2.6 0-2.5 3.1-2.5 5 0 1.8.2 4.2 2.6 4.2 1.5 0 2.4-.7 2.4-2.3h3.4zm8.9 1c0-1.3-1.4-1.7-2.4-2-2.1-.8-4.9-1.9-4.9-4.6 0-2.8 3-4 5.5-4 2.6 0 5.2 1.6 5.2 4.4h-3.4c0-1.1-.8-1.8-2-1.8-.8 0-1.9.4-1.9 1.4 0 1.2 1.8 1.7 2.6 2 2.3.6 4.7 1.9 4.7 4.6 0 2.9-2.7 4-5.2 4-3 0-6-1.6-6-4.8h3.5c0 1.5 1 2.2 2.5 2.2.9 0 1.8-.4 1.8-1.4zm12.5 0c0-1.3-1.4-1.7-2.4-2-2.2-.8-5-1.9-5-4.6 0-2.8 3-4 5.5-4 2.6 0 5.3 1.6 5.3 4.4h-3.4c0-1.1-.9-1.8-2-1.8-.8 0-2 .4-2 1.4 0 1.2 1.9 1.7 2.7 2 2.2.6 4.7 1.9 4.7 4.6 0 1.2-.5 2.2-1.4 2.9-1 .7-2.2 1-3.8 1-3 0-6-1.5-6-4.7h3.5c0 1.5 1 2.2 2.5 2.2.8 0 1.8-.4 1.8-1.4z"/>
    <path fill="#21B6C1" d="M239.5 233.3v25h6v4.8H109.3a16.8 16.8 0 01-12-5c-3.3-3.3-5-7.7-5-12.3a17.3 17.3 0 0117-17.3h136.4v4.8h-6.1z"/>
    <path fill="#F8F5F3" d="M178.2 245.8l.1 1.6.2.9a12.3 12.3 0 003.4 6.4c2.3 2.2 5.4 3.6 8.9 3.6h48.6v-25h-48.6a12.4 12.4 0 00-12 8.8l-.3 1c-.2.8-.3 1.7-.3 2.7"/>
    <path fill="#F8F5F3" d="M239.5 233.3v25h-48.1a13.4 13.4 0 01-10.3-4.8l-.7-.8a12 12 0 01-2.2-6.9v-.7a7 7 0 01.2-1.4l.2-.7.2-.9a12.4 12.4 0 013.4-5.2c2.3-2.2 5.6-3.6 9.2-3.6h48"/>
    <path fill="#F8F5F3" d="M239.5 233.3v25h-48.7a12.5 12.5 0 01-8.9-3.6l-1-1.1a8 8 0 01-1-1.4 16.3 16.3 0 01-1-2.6l-.2-.5-.2-.8-.2-.9v-2.3a7 7 0 01.1-1.4l.1-.7.3-.9a9.8 9.8 0 011-2.3 12.2 12.2 0 013.5-4l.5-.4a20.7 20.7 0 012.1-1.2l1.2-.4c1.1-.3 2.4-.5 3.7-.5h48.7"/>
    <path fill="#DDD9D5" d="M181.2 237.8h58.2v-1H182l-.8 1zm-2.7 5.2h61v-.9h-60.7l-.3 1zm-.2 4.4l.2.9h61v-.9h-61.2zm2 5.3l.6.8h58.5v-.8h-59.1z"/>
    <path fill="#28B8C1" d="M191 257.2l6.9-6.4 6.1 6.4v-20h-13v20z"/>
    <path fill="#08A5B8" d="M181.5 237.3l-.4.5h.1l-.7.8-.4.7c-.6.9-1 1.8-1.4 2.8l-.2 1-.2.6v.7l-.1.7v2.3l.2.9a12 12 0 001.9 4.3v.1l.7.8 1 1.2c2.2 2 5.2 3.5 8.6 3.6h55v4.8h-55.7a16.7 16.7 0 01-12.1-5c-3.2-3.3-5-7.7-5-12.3a17.3 17.3 0 0117-17.3h55.8v4.8h-55.9l-1 .1-.8.2-1 .2a16.3 16.3 0 00-2.2 1l-1 .6-.2.1-.3.2-.2.2-.4.3-.7.7-.4.4"/>
    <path fill="#fff" d="M101 253.2V239h4.6c6.8 0 9.3 9.9 3.4 13.3a6 6 0 01-3.3.9h-4.6zm3.5-11.5v8.8h1.2c1 0 1.7-.3 2.2-1 1.2-1.6 1.2-5.2 0-6.8-.5-.7-1.3-1-2.3-1h-1.1zm18.2 5.5h-5.4v3.3h6.4v2.7h-9.8V239h9.8v2.7h-6.4v3h5.4v2.5zm9.7 2.2c0-1.3-1.4-1.7-2.4-2-2.2-.8-5-1.9-5-4.6 0-2.8 3-4 5.5-4 2.6 0 5.3 1.6 5.3 4.4h-3.4c0-1.1-.9-1.8-2-1.8-.9 0-2 .4-2 1.4 0 1.2 1.8 1.7 2.7 2 2.2.6 4.7 1.9 4.7 4.6 0 2.9-2.8 4-5.3 4-2.9 0-5.9-1.6-5.9-4.8h3.4c0 1.5 1 2.2 2.5 2.2 1 0 1.9-.4 1.9-1.4zm8.8 3.8h-3.4V239h3.4v14.2zm13.9-1.8c-1.3 1.5-3.7 2-5.6 2-4.5 0-6.2-3.7-6.2-7.7 0-2.3.7-4.8 2.8-6 2-1.3 5.4-1.2 7.3.3 1 .8 1.5 2 1.7 3.6h-3.3c-.2-1.3-1-2.2-2.4-2.2-.8 0-1.5.4-2 1.1a8.3 8.3 0 000 7.2c.5.7 1.3 1 2.3 1 1 0 1.6-.2 2-.6V248h-2.4v-2.3h5.8v5.8zm13.9 1.8h-3.5l-5-8.8v8.8h-3.4V239h3.4l5 8.8V239h3.4v14.2z"/>
    <path fill="#0E677F" d="M143.9 117.1c1.1.1.9 5.8 2.7 4.8 1-.6.6-2.4 2-3.6 2-1.7 5.9 1.2 5.9 1.2 4.4-.7 4.2-8.3 4.2-8.3-3.9 1.5-6-1.9-16.9-3-10.9-1-7 14.7-7 14.7s7.3 1.6 6.8-2.3c-.4-2.8 1-3.6 2.3-3.5z"/>
    <path fill="#E8CDA7" d="M134.8 123l-6.8 8.6 9.4 5.5 3.1-5.6s2 3.2 6.5 2.6c4.5-.6 7.5-14.6 7.5-14.6s-3.8-3-5.8-1.2c-1.5 1.2-1 3-2.1 3.6-1.8 1-1.6-4.7-2.7-4.8-1.2-.1-2.7.7-2.3 3.5.5 4-6.8 2.3-6.8 2.3z"/>
    <path fill="#E8B081" d="M167.4 192.8c-8.7-4.6-6 34-3.3 43.6 2.7 9.7 4.1-.8 5.2-16.6 1-15.9 1.5-25.2-2-27z"/>
    <path fill="#E8B081" d="M124.2 183a6.2 6.2 0 003.2 8.5c2.6 1 9.4 3 14.2 3.9 12.1 2 23.1 4.6 26.4.7 3.3-4-2-10.8-13.4-14.2-10.4-3-22.9-8.4-25.8-6a26 26 0 00-4.6 7.2z"/>
    <path fill="#0D7FA0" d="M169.5 233.2s-.3 2.6 2.5 5c3.1 2.9 4 2.4 4 3.3 0 1-14-.9-14-.9l.9-7.9s6.6.3 6.6.5"/>
    <path fill="#0E677F" d="M169.5 233.4l-6.7-.5-.2-1.6c-.5-6.2-2.6-28.3-3.6-30-.5-.7-8-.4-16.5-1.3-12.3-1.4-26.4-5.6-23.5-20l18.7-4.5s31.6 5.2 33.4 19.4c1.8 14.3-1.6 38.5-1.6 38.5"/>
    <path fill="#0D5C6C" d="M162.6 231.3c-.5-6.2-2.6-28.3-3.6-30-.5-.7-8-.4-16.5-1.3l-11.3-20s27.8 6.2 31.5 14c3 6.3.9 28.6 0 37.3z"/>
    <path fill="#E8B081" d="M156.8 195.4c-8.9-4.2-4.3 34.2-1.2 43.7 3.1 9.5 4-1 4.4-16.8.3-16 .3-25.3-3.2-27"/>
    <path fill="#E8B081" d="M112.6 187.3c-1.6 3.2 0 7 3.3 8.4 2.6 1 9.3 3 14.2 3.9 12 2 23.1 4.6 26.4.7 3.2-4-2-10.8-13.5-14.2-10.3-3-22.8-8.4-25.7-6a26 26 0 00-4.7 7.2"/>
    <path fill="#0E677F" d="M161.2 237.4h-6.7v-.5l-5-32.5c0-.7-23.1-2.7-33.5-5.3-10.3-2.7-5.4-18-5.4-18l8-1 9.5-1.4s26.7 8.4 32 16c5.2 7.7 1 42.7 1 42.7"/>
    <path fill="#0D5C6C" d="M154.5 237l-5-32.6c0-.7-23.1-2.7-33.5-5.3-10.3-2.7-5.4-18-5.4-18l8-1c-1.8 4.5-4.3 13.5 2.3 15.5 8.8 2.6 27.8 1.9 30.8 6.7 2.4 3.8 2.8 25.6 2.8 34.6z"/>
    <path fill="#E8B081" d="M154.6 176.5c.8.3 1.8 1.1 2.2 1.5 1 1 1.5 3 1 3.4-.2.3-1.3-.7-2-1.4l-.7-.6.1.4c.3.4.6 1 .3 1.3-.4.3-1.9-1.2-2.3-2-.2-.6-.3-1-.2-1.4a141 141 0 01-14.5-14.6c-.6-.7-1-1.6-.7-2.5.3-1.3 1.3-1.4 2.2-1.5h.4c1-.1 11.6 12.4 14.2 17.4z"/>
    <path fill="#EF2A4E" d="M154 173.2l-4 3.7s-10.9-10-13.5-14.8c-.8-1.4-1.3-4.3-1.7-7.5-.8-7.4-.7-16.9-.7-16.9s.2-4.7 4.3-4c2.2.5 3.8 2.4 4.2 4.6a70 70 0 011.1 11.6c0 6.3.2 9.8.3 10.3 0 .5 10 13 10 13z"/>
    <path fill="#D9163A" d="M150 176.9s-10.9-10-13.5-14.8c-.8-1.4-1.3-4.3-1.7-7.5l7.5-13.7s0 4.5-1.8 9.3c-1.8 4.8-3.2 11.2.8 14.9 3 2.7 6.9 8.8 8.7 11.8"/>
    <path fill="#EF2A4E" d="M137.5 156.9a87.5 87.5 0 00.3 19.2c-2.2 1-4.8 1.7-7.6 2.4-9.5 2.4-20.5 3.4-20.5 3.4s-1.2-24.4 5-38.8c4.7-11.2 12.3-14.6 15.3-15.6l1.4-.3a5.2 5.2 0 00.5 1 8.6 8.6 0 007.2 4.9h.6a6.5 6.5 0 011.9 2.8c.7 2 1 4.1.7 6.3-.7 5.5-4 10-4.8 14.7"/>
    <path fill="#D9163A" d="M137.8 176.1c-2.2 1-4.8 1.7-7.6 2.4-4.5-2.8-10.9-7.4-12.3-11.7-2.1-6.7 1.9-26 1.9-26l6 1.4s-1 17.7-.8 18c0 .3 9.6 11.6 12.8 15.2v.7z"/>
    <path fill="#E8B081" d="M143.7 180.3c.6 0 2.1 0 3.4.7 1.4.6 2.7 3 2.3 3.8-.4.8-1.2.3-2.5-1-.7-.7-1.1-.5-1.6-.3-.4.1-.8.3-1.4-.1-1-.5-1.3-1-1.4-1.4-5-2.2-17-12.2-20.7-15.3a3.5 3.5 0 01-1.3-3c.2-1.6 1.3-1.9 2.4-2.1l.5-.2a99.5 99.5 0 0120.3 18.9z"/>
    <path fill="#EF2A4E" d="M119.8 142s-2.6 19.7-.9 24c1.8 4 20.8 16 20.8 16l3.3-4.3s-14.4-15-14.6-15.4c-.2-.5 2.2-13.8 2.4-19 .2-5.3-1.2-10.4-5.4-10.5-5.3-.1-5.5 9.2-5.6 9.2z"/>
    <path fill="#0D7FA0" d="M161.2 237.1s-.1 2.6 2.8 4.8c3.3 2.7 4.2 2 4.3 3 0 1-14 0-14 0l.2-7.8s6.7-.2 6.7 0z"/>
    <path fill="#D9163A" d="M130 127.5a10 10 0 004 5c2.2 1.6 5.2 2 7 2l-1.3-1.4h-.6a9 9 0 01-7.2-4.8l-.2-.4-.3-.7s-.5 0-1.4.3z"/>
    <path fill="#C1DAE0" d="M179.5 166.2L169 187.8s-22-.2-22.1 0l10.5-21.6h22.1z"/>
    <path fill="#98BCC9" d="M131 185.4l16 2.3.6-1.3.7-1.5-16.9-2.4-.2 1.5-.2 1.4z"/>
    <path fill="#98BCC9" d="M157.4 166.2h-.8l-10.3 21.4.6.1 10.5-21.5"/>
    <path fill="#98BCC9" d="M131 185.4l16 2.3.6-1.3-16.4-2.4-.2 1.4zm34.5-7c-.9 1-2.2 1.4-3 .7-.9-.6-.8-2 0-3.1 1-1 2.3-1.4 3.1-.8.8.7.8 2-.1 3.2z"/>
    <path fill="#0E677F" d="M299.9 63.6c-.3 0-4.7-1.3-6.6-4.7-1.9-3.3-.3-4.7-1.5-8.9-1-4.1-4.3-4.3-6.7-10.9-2.4-6.6-.3-15.8 7.9-19 6.9-2.6 12.7-.6 16.3 4.6 5.3 7.7 3.3 9.7 4.9 13 1.5 3.3 4.2 3.6 5.8 6.8 1.7 3.2 1.4 7.4 2.5 9.8 1.1 2.3 2.4 10.5-1.4 13.8-3.8 3.3-21.2-4.5-21.2-4.5"/>
    <path fill="#E8CDA7" d="M305.4 60.4a60 60 0 01-1.9 10.4c-1 3.7-2.3 7.2-4 8.4 0 .2-.9 1.1-3.2 1.2a140 140 0 01-20.7-1.2l-.3.1c-1 .4-2.4.2-3 .1-1.7-.2-3.4-1.7-3.3-2.3.1-.6 3.8.2 3.9 0 .1 0-1.6-.6-1.5-1.2.2-.5 2.6-.1 3.5.4.4.2.7.4.9.7 5-.9 15.1-1.2 19.9-1a68.7 68.7 0 011.1-10c.9-4.2 2-8.5 2.7-10.7a3.3 3.3 0 012.6-2.3c3-.5 3.6 3.5 3.3 7.4"/>
    <path fill="#DDC09E" d="M303.5 70.8c-1 3.7-2.3 7.2-4 8.4 0 .2-.9 1.1-3.2 1.2a140 140 0 01-20.2-1c3.6-.2 19.1-.6 21.4-.8 2.5-.3 3.8-4.8 3.4-6-.2-.8-2.8-2.2-4.7-3.1l.6-3.4 1.2-1.4 5.5 6"/>
    <path fill="#E8CDA7" d="M384 76.9c-4.5-7.6 32.7-4.9 42-2.5 9.4 2.4-.7 3.6-16 4.3-15.3.8-24.3 1.2-26-1.8"/>
    <path fill="#E8CDA7" d="M419 78.6l7.2.4-.2-5.7-5.8-.4-1.2 5.7m-55.6-.6c14 .6 25.6-1 25.8-3.7.2-2.7-11-5.4-25.2-6.1-14-.7-25.7 1-25.8 3.6-.2 2.7 11 5.5 25.2 6.1m-53.5-21.6l-9-2.6-.6-2.4-.4-1.6v-.3l6.5-6.6 2.5 7.1 1 6.4"/>
    <path fill="#E8CDA7" d="M303.7 47.8s-4.4 3.5-7.6 1.4a25.8 25.8 0 01-7.7-16.3c-.1-5.7 8.9-10.3 15.3-7.4 6.4 2.8 7.1 13.6 5.3 16.7-1.8 3-5.3 5.6-5.3 5.6z"/>
    <path fill="#EF2A4E" d="M337.9 80.2H332c-6.2 0-15.2-.1-19.8-.3h-.6c-1.1 0-2.1-.2-3-.3-3.6-.7-5-2.5-5.5-5l-1.3-.5-6.6-2 3-13.8c.3-1.6 2.5-5.1 2.5-5.1l8-3.8s6 .6 9.2 4.2c3.2 3.7 8.2 11.8 12 12.3 3 .5 5.2.5 7.2-.2 1.1 2.3 2.6 7.1.8 14.5"/>
    <path fill="#CD0D31" d="M332.7 80.2h-.7c-6.2 0-15.2-.1-19.8-.3l4.8-25.2s1.8 2.8 2.6 13.6c.5 7.5 7.1 10.5 13 11.9z"/>
    <path fill="#E8CDA7" d="M409.3 48l4.7-5.5-4.4-3-3.8 4.3 3.5 4.2"/>
    <path fill="#E8CDA7" d="M384.8 74.2c-8.2-1.1 17.5-28.1 25.2-33.9 7.7-5.7 2 2.7-7.2 15-9.2 12.2-14.8 19.3-18 18.9"/>
    <path fill="#0D7FA0" d="M411.3 46.7l-17.9 24.4a24.3 24.3 0 01-3.8 3.7c-.9 0-19.2-5.5-28.7-8.4l-2.5-2s10.6 1.4 18 2.2c3.7.4 7.7-.7 8-1 1-.9 21.5-23 21.5-23l3.8 3 1.6 1.1"/>
    <path fill="#0D738F" d="M411.3 46.7l-17.9 24.4a24.3 24.3 0 01-3.8 3.7c-.9 0-19.2-5.5-28.7-8.4l-2.5-2s10.6 1.4 18 2.2c5.6 1.3 11.7.8 14.4.1 4.6-1.2 15.5-16.4 18.9-21.2l1.6 1.2"/>
    <path fill="#0E677F" d="M413.4 43.3s1.3-1.6 4.3-1.3c3.5.3 3.7 1.2 4.2.7a56 56 0 00-8.3-8l-4.2 4.9s3.8 3.8 4 3.7"/>
    <path fill="#0D7FA0" d="M422.6 72.6V80l-52.9.4-31.1-.1h-.7c1.8-7.5.3-12.3-.8-14.6.6-.2 1.2-.4 1.8-.8 4.2-2.5 11.3-6.1 18.4-2.7a74 74 0 0027 7.7l38.3 2.7z"/>
    <path fill="#0D738F" d="M422.6 79.9v.1l-52.9.4-31.1-.1h-.7c1.8-7.5.3-12.3-.8-14.6.6-.2 1.2-.4 1.8-.8.9 1.6 1.9 4.3 1.8 7.6-.2 5.4 8 4 16.3 4.2 7.4.2 50.3.6 65.6 3.2z"/>
    <path fill="#E8CDA7" d="M289.7 78.7c.4-1.6-2.5-2-3.5-2-1.7-.1-3.7 1-3.7 1.6 0 .6 3.7.6 3.8.8 0 .1-1.7.3-1.7.8 0 .6 2.4.7 3.4.4 1-.3 1.5-.7 1.7-1.6z"/>
    <path fill="#0E677F" d="M425.6 79.1s1.1-2 5.4 0c2.3 1 5.2 1 6 1 .8.2-4.7-6.8-4.7-6.8h-6.5s-.4 5.8-.2 5.8zm-134-49.7s1.8 4 7 4.9c5 .9 9.6 3.5 12.2 9.4C313.4 49.6 309 24 309 24s-16.7-8.3-20.5 2c-.3.8-1.9 9-1.9 9s4-1.4 5-6"/>
    <path fill="#E8CDA7" d="M318 67.8c-.4 3.5-1.2 7.2-2.4 9.6-1 3-4 3.3-5 3.3h-.2a189 189 0 01-20-1c-1.8-.3-3.1-.7-3.3-1.1-.7-1.5 10.1-2.2 17.8-2.3l4.9-.4c.2 0 .3-1.7.4-3.3v-2.9l.1-.8c.4-5 1.2-10.3 1.6-12.8a3 3 0 012.3-2.6c3-.9 4 3 4.2 7 0 1.5 0 4.3-.4 7.3"/>
    <path fill="#DDC09E" d="M315.6 77.4c-1 3-4 3.3-5 3.3h-.2a189 189 0 01-20-1c4.3 0 20 0 22-1 2.5-1.3 3.6-5.9 3.2-7-.2-1-3.6-1.7-5.3-2V69l1.3-.9 6.4-.2c-.4 3.5-1.2 7.2-2.4 9.6"/>
    <path fill="#EF2A4E" d="M309.7 70.7s-.2-18.1 5.2-18c5.5.1 3.6 18.7 3.6 18.7l-8.8-.7"/>
    <path fill="#C1DAE0" d="M238 55.2l13.1 25.3s27.2-.2 27.4 0l-13-25.3H238z"/>
    <path fill="#98BCC9" d="M298.2 80.4h-19.8l-.7-1.5-1-1.7 21-.2.3 1.7.2 1.7z"/>
    <path fill="#98BCC9" d="M265.4 55.2h1l12.9 25.1-.9.1-13-25.2z"/>
    <path fill="#98BCC9" d="M298.2 80.4h-19.8l-.7-1.5 20.3-.2.2 1.7zm-42.8-10.9c1 1.3 2.8 1.7 3.8.9 1-.8 1-2.4-.2-3.7-1-1.3-2.7-1.7-3.8-1-1 .8-.9 2.5.2 3.8"/>
    <path fill="#CD0D31" d="M304.5 65.5l-1.4 9-2-.7 3.4-8.3z"/>
    <path fill="#DDC09E" d="M303.2 47.7c-.2.4-1.7 2.5-2.9 3.6l-.4-1.6s2.6-1.2 3.3-2"/>
    <path fill="#009E49" d="M458.8 307.3c-1.6-3.8-8.1-18.1-9.7-27.2-1.6-9-6.6-16.4-6.7-21-.1-4.5 7.3-7.1 9.2-16.4 2-9.3 5.9-24.5 8.3-24 2.4.4 4 17 6.4 21.2 2.3 4 8.5 9.2 3.7 15.1-4.8 6-2.3 13 2.1 19.2 4.4 6.2-8 13.9-6.8 22.3 1.2 8.4-1.1 19.7-1.1 19.7l-5.4-9z"/>
    <path fill="#D5F5EC" d="M461 289.3a.7.7 0 01-.8-.7c-.6-5.5-2.3-9.7-3.6-13.1-1-2.7-2-5-2-7.2-.2-2.6 1.3-4.7 2.8-6.7 1.3-1.9 2.7-3.8 3-6.3.7-5.3-4-17-4.1-17.1a.7.7 0 111.4-.6c.2.5 5 12.2 4.2 17.9-.4 2.9-2 5-3.4 7s-2.6 3.6-2.5 5.8c0 1.9.9 4 2 6.6 1.3 3.5 3 7.8 3.7 13.6 0 .4-.3.8-.7.8"/>
    <path fill="#05CA60" d="M446.4 304.5c-1.8-.8-2.4-10.7-5.7-12.1-3.3-1.5-5.7-6-6.8-10.8-1-4.8-10.8-6.8-12.6-12-1.8-5 3.7-8.7 3.3-13.5-.4-4.8-4.4-11.5-1.5-14.7 3-3 8 7.7 10.8 10 2.8 2.1 8.1 4.5 6.6 8.5-1.4 4 .6 10.7 10.1 14.3 9.5 3.7 15.8 39.2-4.2 30.3"/>
    <path fill="#D5F5EC" d="M447.9 287.6a.7.7 0 01-.7-.5 20 20 0 00-8.3-10.6 37.2 37.2 0 01-5.3-4.7c-5.4-5.9-2.9-16.2-2.8-16.6a.7.7 0 111.5.3c0 .1-2.4 10 2.4 15.3 1.7 1.9 3.4 3.2 5.1 4.5 3.5 2.7 6.7 5.2 8.8 11.4 0 .3-.1.8-.5.9h-.2"/>
    <path fill="#05CA60" d="M464.2 305.6c.5-1.5 1-7.9 4.4-9.3 3.4-1.5 6.8-2.5 9.5-6.9s0-11.2 3-15.8c2.9-4.7 9.4-.3 12.9-5 3.4-4.6-4.2-12.6-1.5-16 2.7-3.5 6.4-12.7 2.7-14-3.7-1.2-14 5.4-16.6 11.3-2.7 5.8-8 9.3-9.3 13.9-1.2 4.6-5.1 7-6.1 11.7-1 4.7.5 11.7-1.2 16.9-1.7 5.1 2.2 13.2 2.2 13.2"/>
    <path fill="#21B6C1" d="M473 332h-30.8a4 4 0 01-4-4l-1.4-32.7h41.5L477 328a4 4 0 01-4 4"/>
    <path fill="#D5F5EC" d="M471 288.5a.7.7 0 01-.7-.8 39.6 39.6 0 0110-25.1 40 40 0 005.6-12.4c.1-.4.5-.7 1-.5.3 0 .6.5.5.8-.1.4-2.3 8.6-6 13a39 39 0 00-9.7 24.3c0 .4-.3.7-.7.7"/>
    <path fill="#21B6C1" d="M503.1 334.7H1.5v-2.5H503v2.5z"/>
    <path fill="#0E677F" d="M398.4 249.8c.1.2.7 1 .6 2.1 0 1.5-1 2.2-1.2 2.3 0 .1.3.6.1 1.2-.1.5-.5 1-1 1 0 .2.3 1.4-.3 2.4s-1.7 1.3-2.7 1c0 1.2-.7 2.3-1.7 2.8-1.3.6-2.6-.2-2.7-.3 0 0-.2.7-.9.9-.4 0-.8-.2-1.1-.6-.3.4-.7.6-1.1.6-.7-.2-1-.8-1-.9 0 .1-1.3 1-2.6.3-1-.5-1.6-1.6-1.7-2.8-1 .3-2.1 0-2.7-1-.6-1-.3-2.2-.3-2.4-.5 0-.8-.5-1-1-.2-.6 0-1 .1-1.2a3.2 3.2 0 01-.6-4.4c-.4-.3-.6-.8-.4-1.4.1-.4.5-.8 1-.7l.5-.4.4-.1s.4.2.7.6c.4.7 0 1.6 0 1.7.2.1 1 1.2.9 2.5 0 .3-.2.6-.3.8.2.1 1.3.6 1.7 1.8v1c.4-.2.8-.2 1.1 0 .3.2.3.4.4.6.2-.2.8-.5 1.7-.4a3 3 0 011.6.7s.3-.8 1.6-.9c1.3 0 1.6 1 1.6 1a2.8 2.8 0 013.4-.4c0-.2 0-.4.3-.6a1 1 0 011 0l.1-1a2.8 2.8 0 011.7-1.8l-.3-.8a3 3 0 01.9-2.5s-.4-1 0-1.7c.3-.4.6-.6.8-.6l.3.1.5.4c.5 0 .9.3 1 .7.2.6 0 1.1-.4 1.4"/>
    <path fill="#DDC09E" d="M387.8 262.8h.1s2.3-.4 4.4-1.6v3.2s-.5 3-4.3 3.9c-3.7-.9-4.3-3.9-4.3-3.9v-3c2 1 4 1.4 4 1.4"/>
    <path fill="#E8CDA7" d="M388 262.8h-.2s-2-.3-4-1.4c-2-1-4-2.6-4.4-5.3 0 0-2.3-1-2.3-2.8 0-1.9 2-1.4 2-1.4s-1.6-5.9 1.5-10.2c3.1-4.3 7-3 7-3h.4s4-1.3 7 3c3.1 4.3 1.5 10.2 1.5 10.2s2-.5 2 1.4c0 1.8-2.2 2.8-2.2 2.8a6.7 6.7 0 01-4 5c-2.1 1.3-4.4 1.7-4.4 1.7m-18.4 38.4l1 8.5-1.4-.4c-1.7-.7-3.4-1.2-5-1.7a44 44 0 01-10-10c-.4-1.5 1.7-6.1 4.4-11.2l6.8 3.8 2.2 1.2c-1.3 2.2-2.3 4.3-2 4.9a16 16 0 003 3.9l1 1zm52.5-3.5c-.7 2-6.1 6.7-10 9.9-1.6.5-3.3 1-5 1.7l-1.5.9 1-9 1.5-.3s2.2-3.4 2.7-4.6c.2-.6-.8-2.7-2-4.9l2-1.2 6.8-3.8c2.8 5 5 9.7 4.4 11.3z"/>
    <path fill="#DDC09E" d="M413.7 296.7c-.9 1.6-5.2 5.6-7.7 8.5l.5-4 1.5-1.5s2.2-2.2 2.7-3.4c.2-.6-.8-2.7-2-4.9l2-1.2c1.7 1.7 4 4.8 3 6.5z"/>
    <path fill="#EF2A4E" d="M417.6 286.4l-6.8 3.8-2.2 1.2a73.3 73.3 0 00-4.6-6.7s-3.2 7.7-3 11l4 .4h-34l2.9-.4c.2-3.3-3-10-3-10l2.5-.5s-4.6 3.6-6 6.2l-2.2-1.2-6.8-3.8a68 68 0 018.5-12.7c3-3.5 16.7-9.3 16.7-9.3s.6 3 4.3 3.9c3.8-.9 4.4-3.9 4.4-3.9s11 3.1 16.2 8.3c4.6 4.4 6.2 8.5 9 13.7z"/>
    <path fill="#D9163A" d="M371.1 281.2l.4 6s-2.4 1.5-3.9 4.1l-2.1-1.2c2.3-4.4 5.6-9 5.6-9z"/>
    <path fill="#DDC09E" d="M369.5 301.2l.5 3c-3-2.4-7-5.6-7-7.6 0-1.5 1-4 2.3-6.4l2.2 1.2c-1.3 2.2-2.3 4.3-2 4.9.3 1.2 3.5 4.4 3.5 4.4l.5.5z"/>
    <path fill="#0E677F" d="M376.6 249.5c-.1-.2-.7-1-.6-2 0-1.5 1-2.3 1.2-2.4 0 0-.3-.6-.1-1.2.1-.5.5-.9 1-1 0-.1-.3-1.3.3-2.4.6-1 1.7-1.3 2.7-1a3 3 0 011.7-2.7c1.3-.7 2.6.1 2.7.2 0 0 .2-.7.9-.8.4 0 .8.1 1.1.5.3-.4.7-.6 1.1-.5.7 0 1 .8 1 .8s1.3-1 2.6-.2c1 .5 1.6 1.5 1.7 2.8 1-.4 2.1 0 2.7 1 .6 1 .3 2.2.3 2.3.5.1.8.5 1 1 .2.6 0 1.1-.1 1.2.1.1 1.1.9 1.2 2.3a4 4 0 01-.6 2.1c.4.3.6.9.4 1.4a1 1 0 01-1 .8l-.5.3-.4.2s-.4-.2-.7-.6c-.4-.8 0-1.7 0-1.7-.2-.2-1-1.3-.9-2.6 0-.3.2-.6.3-.8-.2 0-1.3-.5-1.7-1.8v-1c-.4.3-.8.3-1.1 0a1 1 0 01-.4-.5c-.2.1-.8.5-1.7.4a3 3 0 01-1.6-.8s-.3.9-1.6.9-1.6-.9-1.6-.9a3 3 0 01-1.6.8c-.9 0-1.5-.3-1.7-.4l-.4.6a1 1 0 01-1 0l-.1 1a2.8 2.8 0 01-1.7 1.7l.3.8c.2 1.3-.7 2.4-.9 2.6 0 0 .4 1 0 1.7-.3.4-.6.5-.8.6 0 0-.2 0-.3-.2-.2 0-.4-.2-.5-.3a1 1 0 01-1-.8c-.2-.5 0-1 .4-1.4"/>
    <path fill="#D9163A" d="M410.8 290.2l-2.2 1.2c-1.2-2.2-4.6-6.7-4.6-6.7l1.2-3.6 5.6 9.1z"/>
    <path fill="#C1DAE0" d="M405.6 309.9v-.6c-8.8 3.5-16.8 9.1-17.6 9.6a141 141 0 00-19-9.6l1.5.6-1.5-14.7c12.7-.2 25.3 0 38 0l-1.4 14.7z"/>
    <circle cx="388" cy="306.2" r="2" fill="#98BCC9"/>
    <path fill="#0E677F" d="M404.4 325v2.8l-.1 3.9s-3.9-.3-9.4-1c-7.1-1-17-2.6-25.4-4.8-7.6-2.1-13.8-4.8-15.4-8.2-3.4-7.3 3.8-13 12.1-10.2a250 250 0 0117 7.4 1140 1140 0 0121.2 10.1"/>
    <path fill="#0D5C6C" d="M404.4 325v2.8l-9.5 2.8c-7.1-.9-17-2.5-25.4-4.7 4.1-2.6 10-7.7 13.8-11 10.3 4.8 21 10.1 21 10.1"/>
    <path fill="#0E677F" d="M407.2 326.2v5.9s7.8.5 8.3-.4c.5-.9 1-4-.9-5.5-2-1.5-6.8-1.6-7.4 0"/>
    <path fill="#E8CDA7" d="M404.2 325l3 1.1v6l-3.1-.4V325"/>
    <path fill="#0E677F" d="M371.8 331.7s45.6-4 50.2-14c3.4-7.3-3.8-13.1-12.1-10.2a700 700 0 00-38.2 17.5l.1 6.7z"/>
    <path fill="#E8CDA7" d="M371.8 325l-3 1.1v6l3.1-.4V325"/>
    <path fill="#0E677F" d="M368.8 326.2v5.9s-7.8.5-8.3-.4c-.5-.9-1-4 .9-5.5 2-1.5 6.8-1.6 7.4 0"/>
    <g class="codescreen" transform="translate(54 -3.8)">
      <g transform="translate(224.9 130.6) scale(.311)">
        <rect width="450.2" height="303.5" x="6" y="10.5" style="fill:rgb(30, 30, 30)"/>
        <rect width="436" height="257.8" x="14.6" y="41.8" style="fill:rgb(40, 40, 40)"/>
        <rect width="32.1" height="253.3" x="30.9" y="44.6" class="code-numberpanel" />
        <rect width="42.7" height="12" x="70.5" y="49.4" class="code-pomegranite" />
        <rect width="54.3" height="12" x="119" y="49.2" class="code-gray" />
        <rect width="54.3" height="12" x="70.5" y="69.3" class="code-gray" />
        <rect width="90.5" height="12" x="135.6" y="69.3" class="code-gray" />
        <rect width="54.3" height="12" x="235.7" y="69.2" class="code-lime" />
        <rect width="42.7" height="12" x="70.5" y="107.6" class="code-pomegranite" />
        <rect width="54.3" height="12" x="120.7" y="107.4" class="code-gray" />
        <rect width="12" height="12" x="180.9" y="107.4" class="code-gray" />
        <rect width="42.7" height="12" x="70.5" y="127" class="code-pomegranite" />
        <rect width="40.4" height="12" x="120.6" y="127.2" class="code-gray" />
        <rect width="12" height="12" x="168" y="127.6" class="code-lime" />
        <rect width="12" height="12" x="188.1" y="127.3" class="code-gray" />
        <rect width="42.7" height="12" x="70.5" y="165.2" class="code-pomegranite" />
        <rect width="66.1" height="12" x="120.2" y="165.3" class="code-gray" />
        <rect width="12" height="12" x="243.1" y="165.5" class="code-pomegranite" />
        <rect width="18.5" height="12" x="263.3" y="165.5" class="code-gray" />
        <rect width="43.1" height="12" x="193.3" y="165.5" class="code-gray" />
        <rect width="42.7" height="12" x="70.5" y="185" class="code-pomegranite" />
        <rect width="48.1" height="12" x="120.3" y="185.2" class="code-gray" />
        <rect width="12" height="12" x="175.1" y="185" class="code-pomegranite" />
        <rect width="20.5" height="12" x="195.7" y="185.3" class="code-gray" />
        <g transform="translate(-515.5 -59.2)">
          <rect width="9.4" height="12" x="563" y="108.8" class="code-numbers" />
          <rect width="9.4" height="12" x="563" y="128" class="code-numbers" />
          <rect width="9.4" height="12" x="563" y="147.2" class="code-numbers" />
          <rect width="9.4" height="12" x="563" y="166.4" class="code-numbers" />
          <rect width="9.4" height="12" x="563" y="185.6" class="code-numbers" />
          <rect width="9.4" height="12" x="563" y="204.8" class="code-numbers" />
          <rect width="9.4" height="12" x="563" y="224" class="code-numbers" />
          <rect width="9.4" height="12" x="563" y="243.2" class="code-numbers" />
          <rect width="9.4" height="12" x="563" y="262.4" class="code-numbers" />
          <rect width="12.8" height="12" x="559.6" y="281.6" class="code-numbers" />
          <rect width="12.8" height="12" x="559.6" y="300.8" class="code-numbers" />
          <rect width="12.8" height="12" x="559.6" y="320" class="code-numbers" />
          <rect width="12.8" height="12" x="559.6" y="338.8" class="code-numbers" />
        </g>
        <rect width="42.7" height="12" x="89.8" y="204.9" class="code-gray" />
        <rect width="12" height="12" x="70.5" y="204.9" class="code-lime"/>
        <rect width="24.9" height="12" x="140.3" y="204.5" class="code-gray" />
        <rect width="48.1" height="12" x="73.2" y="241.6" class="code-gray" />
      </g>
    </g>
  </g>
  <use width="170.5" height="139" class="think0" transform="matrix(.4 0 0 .4 262 667.5)" href="#thinker"/>
  <use width="170.5" height="139" class="think1" transform="matrix(.4 0 0 .4 511.1 601)" href="#thinker-rev"/>
  <use width="170.5" height="139" class="think2" transform="matrix(.4 0 0 .4 590.5 798.9)" href="#thinker-rev"/>
  <svg x="532" y="443" clip-path="url(#clipper)" style="animation:fader 4s infinite">
    <use width="300" height="100%" style="animation:logoswitch 36s steps(9) infinite" href="#logoline"/>
  </svg>
  <svg x="613" y="642" clip-path="url(#clipper)" style="animation:fader 4s infinite;animation-delay:-1.33s">
    <use width="300" height="100%" style="animation:logoswitch 36s steps(9) infinite;animation-delay:-13.33s" xlink:href="#logoline"/>
  </svg>
  <svg x="275" y="510" clip-path="url(#clipper)" style="animation:fader 4s infinite;animation-delay:-2.66s">
    <use width="300" height="100%" style="animation:logoswitch 36s steps(9) infinite;animation-delay:-26.66s" xlink:href="#logoline"/>
  </svg>
</svg>