<svg width="124" height="49" viewBox="0 0 124 49" fill="none" xmlns="http://www.w3.org/2000/svg">
<path fill-rule="evenodd" clip-rule="evenodd" d="M29.9223 30.244C30.1205 30.3485 30.379 30.3398 30.5513 30.1743V30.1917H30.56C31.0943 29.7126 32.0594 28.8677 32.611 28.406C32.9351 28.1193 32.6419 27.7317 32.4493 27.4694C32.0126 26.8747 31.6027 26.3164 31.6027 25.1917C31.6027 23.6465 31.5958 22.1012 31.6042 20.5561C31.6129 18.9418 31.6209 17.4644 30.4307 16.3415C29.4052 15.3484 27.7075 15 26.4149 15C23.8813 15 21.0375 15.9582 20.4515 19.1289C20.3911 19.46 20.6324 19.6429 20.8479 19.6864L23.4332 19.9739C23.6745 19.9565 23.8554 19.7213 23.8899 19.4774C24.1226 18.3885 25.0274 17.8659 26.0443 17.8659C27.83 17.8659 27.8626 19.491 27.8626 20.8624C24.5597 21.2354 19.8585 21.8682 20.0033 26.2022C20.0033 29.0071 21.7527 30.4095 23.9933 30.4095C25.8892 30.4095 26.9233 29.9565 28.3883 28.4496C28.8795 29.1551 29.0346 29.5036 29.9223 30.244ZM27.8626 23.0227C25.9323 23.0227 23.8985 23.4408 23.8985 25.7405C23.8985 26.899 24.4931 27.683 25.5186 27.683C26.2684 27.683 26.9319 27.2213 27.3628 26.4635C27.9568 25.4104 27.8626 24.189 27.8626 23.0227Z" fill="white"/>
<path fill-rule="evenodd" clip-rule="evenodd" d="M86.9071 15C91.0762 15 93.3288 18.4486 93.3288 22.8226C93.3288 27.057 90.8401 30.4095 86.9071 30.4095C82.8106 30.4095 80.5762 26.9696 80.5762 22.6742C80.5762 18.3613 82.8378 15 86.9071 15ZM86.9252 17.8374C84.8543 17.8374 84.7271 20.5439 84.7271 22.2377L84.7271 22.2989C84.7268 24.0171 84.7261 27.5546 86.9071 27.5546C89.087 27.5546 89.1779 24.6298 89.1779 22.8575C89.1779 21.1752 89.3322 17.8374 86.9252 17.8374Z" fill="white"/>
<path d="M34.8244 29.8696H37.5032C37.7893 29.8696 38.0234 29.6464 38.0234 29.3717L38.0232 21.9749C38.0204 20.4146 38.0167 18.3922 39.8787 18.3922C41.5921 18.3922 41.5634 20.1935 41.5398 21.6675C41.4988 24.2345 41.5346 26.8044 41.5346 29.3717C41.5386 29.6286 41.7608 29.8565 42.02 29.8696H44.6903C44.985 29.8696 45.2104 29.6464 45.2104 29.3717C45.2104 26.9032 45.2162 24.4348 45.2101 21.9664C45.2082 21.1973 45.2057 20.168 45.4618 19.5339C45.7393 18.8471 46.4155 18.4179 47.0657 18.4179C47.846 18.4179 48.4442 18.6755 48.6349 19.594C48.7478 20.0342 48.7343 21.0659 48.7254 21.7493C48.6922 24.2922 48.7216 26.8371 48.7216 29.3802C48.7216 29.6464 48.9383 29.861 49.1984 29.8781H51.8773C52.172 29.8781 52.3975 29.6549 52.3975 29.3802C52.3975 26.2937 52.3495 23.2034 52.4055 20.1174C52.4288 18.8362 52.4533 17.4831 51.7299 16.5036C51.0035 15.5497 49.8151 14.9777 48.6089 15.0013C46.9823 14.9588 45.4588 15.9865 44.9157 17.5251C44.1614 15.8082 43.1124 15.0013 41.4305 15.0013C39.766 15.0013 38.5522 15.8168 37.902 17.5251H37.85V15.7482C37.8327 15.4992 37.6246 15.3018 37.3645 15.2932H34.8677C34.5729 15.2932 34.3475 15.5078 34.3475 15.7825V29.4146C34.3649 29.6549 34.5643 29.8524 34.8244 29.8696Z" fill="white"/>
<path d="M69.4156 17.9156V16.0132C69.4156 15.7224 69.653 15.5313 69.9452 15.5313H79.2319C79.5332 15.5313 79.7706 15.7307 79.7706 16.0132V17.6248C79.7706 17.899 79.515 18.2562 79.0675 18.8128L74.2553 25.0767C76.045 25.0352 77.9352 25.2761 79.5515 26.1068C79.9167 26.2979 80.0172 26.572 80.0446 26.8462V28.8566C80.0446 29.1308 79.7159 29.4548 79.3597 29.2886C77.8419 28.58 76.1599 28.2119 74.4539 28.2148C72.748 28.2176 71.0675 28.5915 69.5526 29.3052C69.2238 29.4631 68.886 29.1391 68.886 28.8649V26.9542C68.886 26.6468 68.886 26.1234 69.233 25.6582L74.8031 18.3808H69.9635C69.6622 18.3808 69.4247 18.1897 69.4247 17.9073L69.4156 17.9156Z" fill="white"/>
<path d="M69.3248 32.4903C71.032 32.2907 74.8095 31.8567 75.4814 32.6812C76.1613 33.5129 74.7418 36.9046 74.1045 38.4273L74.1012 38.4353C73.9014 38.8953 74.3191 39.0775 74.755 38.7304C77.5881 36.4652 78.3146 31.7352 77.7334 31.0409C77.1613 30.3639 72.2124 29.7825 69.1977 31.8046C68.7255 32.1171 68.8072 32.551 69.3248 32.4903Z" fill="white"/>
<path d="M55.1902 41.0363C61.4782 41.0363 68.7898 39.0294 73.8289 35.2784C74.6616 34.6474 73.9504 33.7272 73.0917 34.0777C67.4454 36.5053 61.3048 37.671 55.7192 37.671C47.7308 37.6786 39.8793 35.5759 32.9433 31.5712C32.3796 31.2382 31.9546 31.8166 32.4229 32.2548C38.6633 37.9474 46.7831 41.0793 55.1902 41.0363Z" fill="white"/>
<path d="M95.9225 29.8781H98.4978C98.7582 29.8782 98.9908 29.6471 98.9995 29.3796V22.0308C98.9995 20.7845 99.1573 18.3521 100.906 18.3521C102.558 18.3521 102.542 20.2123 102.53 21.6748C102.508 24.2657 102.528 26.8574 102.528 29.4483C102.562 29.6783 102.762 29.865 102.988 29.8781H105.58C105.819 29.8815 106.042 29.6911 106.081 29.4483V20.8533C106.081 19.5296 106.081 17.6989 105.404 16.5987C104.677 15.4298 103.548 15 102.386 15C100.596 15 99.5847 15.8853 98.8573 17.7504L98.8071 15.6618C98.7653 15.4555 98.573 15.2922 98.3473 15.2836H95.9559C95.6884 15.2836 95.471 15.4727 95.4543 15.7306V29.3796C95.4543 29.646 95.6633 29.8609 95.9225 29.8781Z" fill="white"/>
<path fill-rule="evenodd" clip-rule="evenodd" d="M65.6211 30.1743C65.4488 30.3398 65.1903 30.3485 64.9921 30.244C64.1131 29.5036 63.9494 29.1551 63.4668 28.4496C62.0018 29.9565 60.9677 30.4095 59.0718 30.4095C56.8227 30.4095 55.0733 29.0071 55.0733 26.2022C54.9227 21.867 59.6312 21.2353 62.9325 20.8624C62.9325 20.6771 62.9321 20.4918 62.9337 20.3065C62.9441 19.0603 62.5884 17.8659 61.1142 17.8659C60.0973 17.8659 59.1925 18.3885 58.9684 19.4774C58.9253 19.7213 58.753 19.9565 58.5031 19.9739L55.9178 19.6864C55.7024 19.6429 55.4611 19.46 55.5214 19.1289C56.116 15.9582 58.9512 15 61.4847 15C62.7774 15 64.4836 15.3484 65.5005 16.3415C66.6992 17.4649 66.6913 18.9432 66.6826 20.5584C66.6743 22.1028 66.6811 23.6473 66.6811 25.1917C66.6811 26.3086 67.0854 26.8669 67.5126 27.457C67.705 27.7227 68.0087 28.1159 67.6807 28.406C67.1292 28.8677 66.1641 29.7126 65.6298 30.1917L65.6211 30.1743ZM62.4327 26.4635C62.0104 27.2213 61.3383 27.683 60.5885 27.683C59.563 27.683 58.9684 26.899 58.9684 25.7405C58.9684 23.4408 61.0022 23.0227 62.9325 23.0227C62.9496 24.1801 63.0204 25.4213 62.4327 26.4635Z" fill="white"/>
</svg>
