<svg width="124" height="49" viewBox="0 0 124 49" fill="none" xmlns="http://www.w3.org/2000/svg">
<path d="M17.7057 26.3007L16.7816 28.9191H16.7046C16.5505 28.3287 16.2682 27.4302 15.8061 26.3521L10.8517 13.9019H6V33.7451H9.2088V21.5004C9.2088 20.7302 9.2088 19.8574 9.18313 18.7793C9.15746 18.2402 9.10612 17.8295 9.08045 17.5214H9.15746C9.31148 18.2916 9.49117 18.8563 9.61953 19.2157L15.5751 33.6938H17.8341L23.7383 19.0873C23.8666 18.7536 23.995 18.0862 24.1233 17.5214H24.2003C24.1233 18.9847 24.072 20.2938 24.0463 21.0896V33.6681H27.4605V13.8506H22.7884L17.7057 26.3007V26.3007ZM30.6949 19.4467H34.0321V33.6681H30.6949V19.4467ZM32.3892 13.4398C31.8244 13.4398 31.3624 13.6452 30.9773 14.0046C30.5922 14.364 30.3869 14.826 30.3869 15.3908C30.3869 15.9299 30.5922 16.3919 30.9773 16.7513C31.3624 17.1107 31.8244 17.2904 32.3892 17.2904C32.9539 17.2904 33.4417 17.085 33.8011 16.7513C34.1861 16.3919 34.3915 15.9299 34.3915 15.3908C34.3915 14.8517 34.1861 14.3897 33.8011 14.0046C33.4673 13.6452 32.9796 13.4398 32.3892 13.4398V13.4398ZM45.8661 19.3184C45.2501 19.19 44.6083 19.113 43.9922 19.113C42.4777 19.113 41.0914 19.4467 39.9363 20.1142C38.7811 20.7816 37.857 21.7057 37.2666 22.8609C36.6505 24.0417 36.3424 25.4023 36.3424 26.9682C36.3424 28.3287 36.6505 29.5352 37.2409 30.639C37.8313 31.7172 38.6528 32.59 39.7566 33.1804C40.8091 33.7708 42.0413 34.0789 43.4275 34.0789C45.019 34.0789 46.3796 33.7451 47.4577 33.1291L47.4834 33.1034V30.0229L47.355 30.1256C46.8673 30.485 46.3025 30.793 45.7378 30.9727C45.1474 31.1781 44.6083 31.2808 44.1462 31.2808C42.8114 31.2808 41.7589 30.8957 41.0144 30.0486C40.2443 29.2271 39.8593 28.0977 39.8593 26.6858C39.8593 25.2226 40.2443 24.0674 41.0401 23.2203C41.8359 22.3731 42.8884 21.9368 44.1719 21.9368C45.2501 21.9368 46.3539 22.2961 47.355 23.0149L47.4834 23.1176V19.8574L47.4577 19.8318C47.0213 19.6521 46.5336 19.4467 45.8661 19.3184V19.3184ZM56.8787 19.2157C56.0573 19.2157 55.2872 19.4724 54.6198 20.0115C54.055 20.4735 53.6699 21.141 53.3362 21.9368H53.3106V19.4467H49.9734V33.6681H53.3106V26.4034C53.3106 25.1712 53.5673 24.1444 54.132 23.4C54.6968 22.6299 55.4155 22.2448 56.2883 22.2448C56.5964 22.2448 56.9044 22.3218 57.2895 22.3731C57.6489 22.4758 57.9056 22.5785 58.0853 22.7069L58.2136 22.8095V19.4724L58.1366 19.4467C57.9056 19.2927 57.4435 19.2157 56.8787 19.2157V19.2157ZM65.9661 19.1387C63.6301 19.1387 61.7561 19.8318 60.4469 21.1923C59.1121 22.5528 58.4703 24.4268 58.4703 26.7885C58.4703 28.9961 59.1377 30.793 60.4213 32.1022C61.7048 33.3858 63.4504 34.0532 65.6324 34.0532C67.917 34.0532 69.7396 33.3601 71.0488 31.9739C72.3837 30.5877 73.0254 28.7394 73.0254 26.4547C73.0254 24.1957 72.4093 22.3988 71.1515 21.0896C69.945 19.7804 68.1737 19.1387 65.9661 19.1387V19.1387ZM68.6358 30.0743C68.0197 30.8701 67.0442 31.2551 65.8377 31.2551C64.6312 31.2551 63.6557 30.8701 62.9626 30.0229C62.2695 29.2271 61.9358 28.072 61.9358 26.6088C61.9358 25.0942 62.2952 23.939 62.9626 23.1176C63.6557 22.2961 64.6055 21.8854 65.8121 21.8854C66.9929 21.8854 67.917 22.2705 68.5845 23.0662C69.2519 23.862 69.6113 25.0172 69.6113 26.5318C69.5599 28.072 69.2776 29.2785 68.6358 30.0743V30.0743ZM80.4699 25.3509C79.4174 24.9145 78.7499 24.5808 78.4419 24.2984C78.1852 24.0417 78.0568 23.6823 78.0568 23.2203C78.0568 22.8352 78.2109 22.4502 78.5959 22.1935C78.981 21.9368 79.4174 21.8084 80.0591 21.8084C80.6239 21.8084 81.2143 21.9111 81.779 22.0651C82.3438 22.2191 82.8572 22.4502 83.2679 22.7582L83.3963 22.8609V19.7291L83.3193 19.7034C82.9342 19.5494 82.4208 19.3954 81.8047 19.267C81.1886 19.1643 80.6239 19.113 80.1618 19.113C78.5702 19.113 77.2611 19.4981 76.2342 20.3452C75.2074 21.141 74.7197 22.2191 74.7197 23.477C74.7197 24.1444 74.8224 24.7348 75.0534 25.2226C75.2844 25.7103 75.6181 26.1724 76.0802 26.5574C76.5423 26.9168 77.2097 27.3275 78.1338 27.7126C78.904 28.0463 79.4944 28.303 79.8538 28.5084C80.2131 28.7137 80.4442 28.9448 80.6239 29.1245C80.7522 29.3298 80.8292 29.5865 80.8292 29.9202C80.8292 30.8701 80.1105 31.3321 78.6473 31.3321C78.0825 31.3321 77.4921 31.2294 76.799 30.9984C76.1059 30.7674 75.4641 30.4337 74.925 30.0486L74.7967 29.9459V33.2061L74.8737 33.2317C75.3614 33.4628 75.9519 33.6168 76.6706 33.7965C77.3894 33.9248 78.0312 34.0275 78.5959 34.0275C80.3158 34.0275 81.7277 33.6425 82.7289 32.7953C83.7557 31.9739 84.2947 30.9214 84.2947 29.5609C84.2947 28.6111 84.038 27.7639 83.4733 27.1222C82.7288 26.5061 81.8047 25.8643 80.4699 25.3509V25.3509ZM93.0997 19.1387C90.7637 19.1387 88.8897 19.8318 87.5806 21.1923C86.2714 22.5528 85.6039 24.4268 85.6039 26.7885C85.6039 28.9961 86.2714 30.793 87.5549 32.1022C88.8384 33.3858 90.584 34.0532 92.766 34.0532C95.0506 34.0532 96.8733 33.3601 98.1824 31.9739C99.5173 30.5877 100.159 28.7394 100.159 26.4547C100.159 24.1957 99.543 22.3988 98.2851 21.0896C97.0786 19.7804 95.3074 19.1387 93.0997 19.1387V19.1387ZM95.7438 30.0743C95.1277 30.8701 94.1522 31.2551 92.9457 31.2551C91.7135 31.2551 90.7637 30.8701 90.0706 30.0229C89.3775 29.2271 89.0438 28.072 89.0438 26.6088C89.0438 25.0942 89.4032 23.939 90.0706 23.1176C90.7637 22.2961 91.7135 21.8854 92.92 21.8854C94.0752 21.8854 95.025 22.2705 95.6924 23.0662C96.3598 23.862 96.7192 25.0172 96.7192 26.5318C96.7192 28.072 96.3855 29.2785 95.7438 30.0743V30.0743ZM118 22.1935V19.4467H114.637V15.2368L114.534 15.2624L111.351 16.2123L111.274 16.2379V19.4467H106.243V17.6498C106.243 16.8283 106.448 16.1866 106.808 15.7759C107.167 15.3651 107.706 15.1598 108.374 15.1598C108.836 15.1598 109.323 15.2624 109.862 15.4935L109.991 15.5705V12.6697L109.914 12.6441C109.452 12.49 108.836 12.3874 108.04 12.3874C107.039 12.3874 106.166 12.6184 105.37 13.0034C104.574 13.4398 103.984 14.0303 103.548 14.826C103.111 15.5962 102.88 16.469 102.88 17.4701V19.4467H100.544V22.1678H102.88V33.6681H106.243V22.1935H111.274V29.5095C111.274 32.513 112.686 34.0275 115.51 34.0275C115.972 34.0275 116.46 33.9505 116.922 33.8735C117.41 33.7708 117.769 33.6425 117.974 33.5398L118 33.5141V30.7674L117.872 30.8701C117.666 30.9984 117.487 31.1011 117.179 31.1781C116.922 31.2551 116.691 31.2808 116.511 31.2808C115.844 31.2808 115.382 31.1268 115.048 30.7417C114.74 30.3823 114.586 29.7919 114.586 28.9191V22.1935H118V22.1935Z" fill="white"/>
</svg>
