<svg width="124" height="49" viewBox="0 0 124 49" fill="none" xmlns="http://www.w3.org/2000/svg">
<path d="M38.3559 21.3611H27.2704V24.5673H35.1322C34.7438 29.0633 30.9062 30.9806 27.2837 30.9806C22.6491 30.9806 18.605 27.4264 18.605 22.4447C18.605 17.5918 22.4601 13.8544 27.294 13.8544C31.0233 13.8544 33.2209 16.1716 33.2209 16.1716L35.5241 13.8469C35.5241 13.8469 32.5678 10.6392 27.1762 10.6392C20.3113 10.6392 15 16.2871 15 22.3876C15 28.3654 19.9962 34.1946 27.3515 34.1946C33.8209 34.1946 38.5566 29.875 38.5566 23.4876C38.5566 22.14 38.3559 21.3611 38.3559 21.3611Z" fill="white"/>
<path d="M47.4368 19.0394C42.8882 19.0394 39.6285 22.5055 39.6285 26.548C39.6285 30.6502 42.7902 34.1808 47.4902 34.1808C51.745 34.1808 55.2307 31.011 55.2307 26.6361C55.2307 21.6219 51.176 19.0394 47.4368 19.0394ZM47.482 22.0132C49.7189 22.0132 51.8385 23.7758 51.8385 26.6161C51.8385 29.3961 49.7278 31.209 47.4717 31.209C44.9928 31.209 43.0372 29.2738 43.0372 26.5941C43.0372 23.9718 44.9685 22.0132 47.482 22.0132Z" fill="white"/>
<path d="M64.4195 19.0394C59.8709 19.0394 56.6112 22.5055 56.6112 26.548C56.6112 30.6502 59.7729 34.1808 64.4729 34.1808C68.7277 34.1808 72.2134 31.011 72.2134 26.6361C72.2134 21.6219 68.1587 19.0394 64.4195 19.0394ZM64.4647 22.0132C66.7016 22.0132 68.8212 23.7758 68.8212 26.6161C68.8212 29.3961 66.7105 31.209 64.4544 31.209C61.9755 31.209 60.0199 29.2738 60.0199 26.5941C60.0199 23.9718 61.9512 22.0132 64.4647 22.0132Z" fill="white"/>
<path d="M81.0755 19.0474C76.9004 19.0474 73.6187 22.6116 73.6187 26.6121C73.6187 31.169 77.4234 34.1908 81.0035 34.1908C83.2173 34.1908 84.3944 33.3343 85.2634 32.3512V33.8441C85.2634 36.4561 83.6362 38.0202 81.1803 38.0202C78.8078 38.0202 77.6178 36.3007 77.2042 35.325L74.2191 36.5413C75.2781 38.7238 77.4099 41 81.205 41C85.3561 41 88.5199 38.4515 88.5199 33.1067V19.5023H85.2634V20.7848C84.2627 19.7332 82.8935 19.0474 81.0755 19.0474ZM81.3777 22.0152C83.4247 22.0152 85.5265 23.7188 85.5265 26.6281C85.5265 29.5852 83.4292 31.215 81.3325 31.215C79.1067 31.215 77.0356 29.4534 77.0356 26.6562C77.0356 23.7496 79.1866 22.0152 81.3777 22.0152Z" fill="white"/>
<path d="M103 19.0294C99.0614 19.0294 95.7546 22.0835 95.7546 26.5901C95.7546 31.3586 99.4405 34.1868 103.378 34.1868C106.664 34.1868 108.681 32.4344 109.885 30.8643L107.2 29.123C106.503 30.1769 105.338 31.207 103.394 31.207C101.211 31.207 100.207 30.0416 99.5848 28.9126L110 24.7004L109.459 23.466C108.453 21.0486 106.105 19.0294 103 19.0294ZM103.135 21.941C104.554 21.941 105.576 22.6765 106.009 23.5582L99.0544 26.3917C98.7545 24.198 100.887 21.941 103.135 21.941Z" fill="white"/>
<path d="M90.7896 33.7371H94.2107V11.4218H90.7896V33.7371Z" fill="white"/>
</svg>
