<svg width="124" height="49" viewBox="0 0 124 49" fill="none" xmlns="http://www.w3.org/2000/svg">
<path d="M65.6 23.3547C64.7 23.3547 64.1 23.6534 63.4 23.9521V30.6727H65C67.15 30.6727 67.45 29.7268 67.45 28.3827V25.1468C67.45 24.1512 67.1 23.3547 65.6 23.3547ZM51.4 23.0062C49.9 23.0062 49.55 23.8027 49.55 24.7984V25.346H53.2V24.8481C53.2 23.8027 52.85 23.0062 51.4 23.0062ZM23.85 29.9757C23.85 30.7722 24.2 31.1705 25.05 31.1705C25.95 31.1705 26.5 30.8718 27.15 30.5731V29.0298H25.15C24.25 29.0298 23.85 29.229 23.85 30.0255V29.9757ZM79.45 23.3547C77.95 23.3547 77.45 24.1512 77.45 25.1468V28.8307C77.45 29.8264 77.95 30.6727 79.45 30.6727C80.95 30.6727 81.45 29.8264 81.45 28.8307V25.1468C81.45 24.1512 80.95 23.3547 79.45 23.3547ZM16.55 34.1076H12.2V23.5538H10V19.9197H12.2V17.7293C12.2 14.7424 13.4 13 16.9 13H19.85V16.6341H18C16.65 16.6341 16.55 17.1319 16.55 18.1276V19.9197H19.85L19.45 23.5538H16.6V34.1076H16.55ZM31.55 34.1076H27.85L27.7 33.2115C26.4314 33.9131 25.0011 34.2735 23.55 34.257C20.9 34.257 19.45 32.5146 19.45 30.0255C19.45 27.1381 21.15 26.0927 24.1 26.0927H27.1V25.4455C27.1 23.9521 26.95 23.5538 24.65 23.5538H20.95L21.3 19.9197H25.4C30.4 19.9197 31.5 21.5127 31.5 25.4953V34.1076H31.55ZM43.9 23.8027C41.65 23.4542 41 23.3049 39.9 23.3049C37.9 23.3049 37.35 23.8027 37.35 25.4455V28.532C37.35 30.1748 37.95 30.6229 39.85 30.6229C41 30.6229 41.65 30.5233 43.9 30.1251V33.6596C41.9 34.1574 40.6 34.257 39.5 34.257C34.85 34.257 33 31.7679 33 28.2333V25.6944C33 22.1101 34.85 19.6708 39.5 19.6708C40.6 19.6708 41.9 19.7704 43.9 20.2184V23.7529V23.8027ZM57.6 28.2831H49.6V28.5818C49.6 30.2246 50.15 30.6727 52.1 30.6727C53.8125 30.6776 55.5211 30.5109 57.2 30.1748V33.7094C55.4138 34.1241 53.5841 34.3247 51.75 34.3068C47.05 34.3068 45.2 31.8176 45.2 28.2831V25.346C45.2 22.2595 46.6 19.7206 51.4 19.7206C56.2 19.7206 57.6 22.2097 57.6 25.346V28.2831ZM71.8 28.3329C71.8 31.8176 70.8 34.3068 64.85 34.3068C62.9028 34.2784 60.9618 34.0785 59.05 33.7094V14.0952L63.4 13.3983V20.2184C64.4 19.8699 65.6 19.7206 66.7 19.7206C71.1 19.7206 71.8 21.7119 71.8 24.7984V28.3329ZM85.8 28.4325C85.8 31.4194 84.6 34.257 79.45 34.257C74.3 34.257 73.05 31.3696 73.05 28.4325V25.5451C73.05 22.5582 74.3 19.7206 79.45 19.7206C84.6 19.7206 85.8 22.608 85.8 25.5451V28.4325ZM99.8 28.4325C99.8 31.4194 98.6 34.257 93.45 34.257C88.3 34.257 87.05 31.3696 87.05 28.4325V25.5451C87.05 22.5582 88.3 19.7206 93.45 19.7206C98.6 19.7206 99.85 22.608 99.85 25.5451V28.4325H99.8ZM114.2 34.1076H109.45L105.45 27.4368V34.1076H101.1V14.0952L105.45 13.3983V26.242L109.45 19.9197H114.2L109.85 26.8394L114.2 34.1076ZM93.45 23.3547C91.95 23.3547 91.45 24.1512 91.45 25.1468V28.8307C91.45 29.8264 91.95 30.6727 93.45 30.6727C94.95 30.6727 95.45 29.8264 95.45 28.8307V25.1468C95.45 24.1512 94.95 23.3547 93.45 23.3547ZM116.7 31.6185C117.45 31.6185 118 32.2159 118 32.9626C118 33.7094 117.45 34.3068 116.7 34.3068C116.342 34.3068 115.999 34.1651 115.745 33.9131C115.492 33.661 115.35 33.3191 115.35 32.9626C115.35 32.2159 115.95 31.6185 116.7 31.6185ZM116.7 31.8176C116.1 31.8176 115.6 32.3155 115.6 32.9626C115.6 33.6098 116.1 34.1076 116.7 34.1076C117.3 34.1076 117.8 33.6098 117.8 32.9626C117.8 32.3155 117.3 31.8176 116.7 31.8176ZM116.45 33.7591H116.2V32.2657L116.65 32.2159C116.85 32.2159 117 32.2159 117.1 32.3155C117.2 32.3652 117.25 32.4648 117.25 32.6142C117.25 32.8133 117.1 32.9626 116.95 33.0124C117.05 33.0124 117.15 33.1618 117.2 33.3609C117.2 33.6098 117.25 33.7094 117.3 33.7591H117.05L116.95 33.3609C116.9 33.1618 116.8 33.112 116.6 33.112H116.45V33.7591ZM116.45 32.9129H116.6C116.8 32.9129 117 32.8133 117 32.6639C117 32.5146 116.9 32.3652 116.6 32.3652H116.45V32.9129Z" fill="white"/>
</svg>
