<svg xmlns="http://www.w3.org/2000/svg" fill="none" viewBox="0 0 124 49">
  <path fill="#fff" d="M13 21c0 2-1.8 3.2-3.6 3.2-1 0-2.1-.2-3.4-.6 0-1 0-2 .2-3.1H7v.2c0 1.6.8 2.4 2.3 2.4 1 0 1.8-.4 1.8-1.4 0-1-1-1.7-1.8-2.1-1.5-.8-3.2-1.7-3.2-3.7C6 14 7.8 13 9.5 13c1 0 2 .2 3 .5l-.1 2.6h-.7c-.2-1.4-1-2-2-2s-1.8.4-1.8 1.3c0 1 1 1.6 1.8 2 1.6.7 3.4 1.6 3.4 3.6zM27.2 13.2V16h-.7c0-.6-.2-1.1-.4-1.4-.6-.6-1.6-.4-2.3-.4V23l1.3.2v.8h-4.8v-.8c.5 0 .8-.2 1-.3.2-.1.3-.3.3-.7v-8c-.7 0-1.8-.3-2.3.3-.2.3-.3.8-.4 1.5l-.7-.1v-2.7h9zM35 19.3h2.7l-1.4-4.5-1.4 4.5zm2.5 4.7v-.8l1.3-.4-.8-2.5h-3.3l-.9 2.6c.3.2.8.3 1.4.3l-.1.8h-3.6l.1-.8c.6-.2 1-.5 1.2-1l3-9 2.1-.2 3 9.2c0 .3.2.6.4.7.2.2.5.3.9.3v.8h-4.7zM58 13.2l-.1.8c-.8.1-1.1.4-1.1 1v9h-1l-5.3-7-1-1.5V23l1.2.2v.8H47v-.8c.4 0 .7-.2.9-.3.2-.2.3-.4.3-.7v-8c-.3-.2-.7-.2-1.3-.2l.1-.8h3.2l4.2 5.5 1 1.6v-6c-.3-.2-.7-.3-1.2-.3v-.2-.6H58zM71.6 13.2V16h-1c0-.8-.2-1.4-.4-1.5-.2-.3-.5-.4-1-.4h-2.4v4.4l3-.2v1.2l-3-.1v3.4c.4.2 1 .3 1.8.4v.8h-5.1v-.8c.4 0 .7-.2.9-.3.2-.1.3-.4.3-.7v-8l-1.3-.2.1-.8h8.1zM84.5 18.8c0-3.2-.9-4.9-2.6-4.9-1.6 0-2.4 1.5-2.4 4.5 0 1.7.2 4.9 2.6 4.9 1.6 0 2.4-1.5 2.4-4.5zM82 24.2c-3.2 0-5-2.6-5-5.6 0-2.9 1.8-5.6 5-5.6 3.1 0 5 2.7 5 5.6 0 3-1.9 5.6-5 5.6zM96 18.2H97c1.3 0 2-.8 2-2 0-1.3-.7-2-2-2H96v4zm6.7 5v.8h-2.9l-2-4.3-.4-.5c-.4-.3-1-.2-1.4-.2V23l1.4.3v.8h-4.7v-.8c.4 0 .7-.2.9-.3.2-.1.2-.3.2-.7v-8l-1.2-.2.1-.8h4.8c1.9 0 4 .8 4 3 0 1.3-1 2.2-2.3 2.6.4.2.7.6 1 1 .4 1 .8 2.5 1.7 3.1l.8.2zM111.2 23h1c2.6 0 3.5-2.2 3.5-4.4 0-2.3-1-4.5-3.6-4.5h-1v9zm1.2-9.8c3.2 0 5.6 2.2 5.6 5.4s-2.2 5.4-5.4 5.4h-4.7v-.8c.4 0 .7-.2.8-.3.2-.1.3-.3.3-.7v-8a3 3 0 00-1.2-.2v-.8h4.6zM27.8 31.3v.5c-.4 0-.7.1-.7.5v3.5c0 .7-.3 1.3-.8 1.7-.4.3-1 .5-2 .5-.7 0-1.4-.2-1.9-.5-.4-.4-.7-1-.7-1.7v-3.9l-.7-.1v-.5h2.7v.5c-.4 0-.7.1-.7.5v3.5c0 1 .5 1.5 1.4 1.5.9 0 1.3-.5 1.3-1.5v-3.9a2 2 0 00-.7-.1v-.5h2.8zM37.7 31.3v.5c-.5 0-.7.2-.7.6v5.5h-.6l-3.9-5.2v4.6h.8v.6H31v-.5c.4 0 .8-.2.8-.6v-5H31v-.5h2l3.2 4.3V32a2 2 0 00-.7-.1v-.5h2.2zM43.1 32.3v5h.8v.6H41v-.5c.4 0 .7-.2.7-.6V32l-.7-.1v-.5h2.7v.5a1 1 0 00-.5.1l-.2.4zM46.8 31.8v-.5h2.8v.5l-.6.1v.5l1.3 3.3.3.6 1.7-4.4-.8-.1v-.5h2v.5a1 1 0 00-.5.1 1 1 0 00-.3.4L50.4 38H50l-2.5-6-.6-.1zM58.5 37.3H60c.4 0 .6 0 .7-.3l.2-1h.6a15.3 15.3 0 010 1.9h-5v-.5l.5-.2.1-.4V32l-.7-.1v-.5h5V33h-.6l-.2-1a.8.8 0 00-.6-.2h-1.5v2.5l1.9-.1v.7h-2v2.4zM67 34.3h.6c.8 0 1.2-.4 1.2-1.2 0-.8-.4-1.3-1.2-1.3h-.7v2.5zm4 3v.6h-1.7L68 35.3c-.1-.3-.3-.4-.6-.4h-.5v2.3l.9.2v.5h-3l.1-.5c.3 0 .4-.1.5-.2l.2-.4V32a2 2 0 00-.7-.1v-.5h3c1 0 2.3.5 2.3 1.8 0 .8-.5 1.4-1.3 1.6l.6.7.7 1.3c0 .3.2.4.3.5l.5.1zM78.8 36c0 1.3-1.2 2-2.3 2a7 7 0 01-2-.4v-1.9c.1 0 .5 0 .5.2 0 1 .5 1.5 1.5 1.5.5 0 1-.3 1-1 0-1-1.2-1.3-2-1.7a2 2 0 01-1-1.8c0-1.1 1-1.7 2-1.7.7 0 1.3 0 2 .3 0 .5 0 1-.2 1.6a3 3 0 01-.4 0c-.1-1-.5-1.3-1.3-1.3-.5 0-1 .3-1 .8 0 .6.6 1 1.1 1.3 1 .4 2 1 2 2.2zM84.2 32.3v5h.7v.6H82v-.5l.6-.2.1-.4V32l-.7-.1v-.5H85v.5c-.4 0-.7.1-.7.5zM93.5 31.3a7.4 7.4 0 010 1.6h-.4c0-.4-.2-.7-.3-.8-.3-.4-1-.3-1.4-.3v5.5h.8v.6h-3l.1-.5.6-.2.2-.4v-5c-.5 0-1.1 0-1.4.3-.2.1-.3.4-.3.9H88a7.8 7.8 0 010-1.7h5.5zM99.1 31.8c-.4 0-.6.1-.6.3v.3l1.3 2.2c.3-1 1-1.9 1.6-2.7l-.6-.1v-.5h2l-.1.5a1 1 0 00-.5.1l-.3.4-1.7 2.8v2.2h.8v.6h-3v-.5h.4l.3-.6v-1.7l-2-3.2-.5-.1v-.5H99v.5z"/>
</svg>
