<svg xmlns="http://www.w3.org/2000/svg" fill="none" viewBox="0 0 124 49">
  <path fill="#fff" fill-rule="evenodd" d="M27.5 12.5v27L9 36.2l2.3-17.9c0-.8.1-.8 1-1l1.9-.7 1-.3c.1-1.3.7-3 1.6-4.3 1.1-1.9 2.6-3 4-3 .8 0 1.5.3 2 .9h.2c1.2 0 2 .6 2.7 1.9l.5 1 .9-.2c.2-.1.4 0 .4 0zM23.4 11c1 .2 1.6 1.5 1.8 2.2l-1.4.5c0-.8-.1-1.8-.4-2.7zm-3.6 4c.2-1.2.8-2.4 1.5-3.1l1-.8c.5.9.5 2 .5 2.9l-3 1zm1-5c.4 0 .7.2 1 .3-.5.2-.8.5-1.2 1-1 1-1.6 2.5-2 4l-2.4.8c.5-2.4 2.4-6 4.7-6zm.9 12.6l.9-3.5s-.8-.4-2.4-.3c-4 .2-5.9 3.1-5.7 6 .1 1.9 1.2 2.7 2.2 3.4.8.5 1.4 1 1.5 1.9.1 2.3-3.2.7-4 0l-.7 2.8s1.6 1.8 4.6 1.6c2.4-.2 4.1-2.2 4-5.1-.2-2.2-1.8-3.3-3-4-.8-.6-1.5-1-1.5-1.6 0-.3 0-1.5 1.8-1.6 1.2 0 2.3.4 2.3.4z" clip-rule="evenodd"/>
  <path fill="#fff" d="M32.4 14.7h-2.2l-2-2-.2-.1v27l8-2.1-3.3-22.6-.3-.2zM101 21h2.5l-.5 2.8h-2.5l-2 10.3H95l1.9-10.3h-1.7l.5-2.8h1.7l.1-.6a7 7 0 012.1-4.2c1-.9 2.3-1.2 3.5-1.2 1.4 0 2 .3 2 .3l-.7 2.9s-.5-.2-1.1-.2c-1.3 0-2 1.1-2.2 2.4l-.1.6zM59 20.7c-1.6 0-2.9.8-3.9 2l1.4-7.5h-3.6l-3.6 18.9H53l1.2-6.5c.4-2.4 1.7-3.9 2.8-3.9.8 0 1.2.6 1.2 1.4 0 .5 0 1-.2 1.6L56.6 34h3.7l1.4-7.6.2-2.5c0-2-1-3.3-3-3.3zM44.6 24.7c0 .6.5 1 1.4 1.5 1.4.8 2.6 2 2.6 3.5 0 3-2.3 4.6-5.6 4.6-2.2 0-3.6-.9-3.6-.9l1-2.6s1.4.8 2.9.8c1 0 1.6-.6 1.6-1.3 0-.6-.4-1.1-1.5-1.7-1.4-.8-2.4-2-2.4-3.4 0-2.6 2.2-4.5 5.3-4.5 2.3 0 3 .6 3 .6l-.8 2.7s-1-.5-2.2-.5c-1 0-1.7.4-1.7 1.2z"/>
  <path fill="#fff" fill-rule="evenodd" d="M62.9 29.2c0-4.5 2.9-8.5 7.2-8.5 3.4 0 5 2.5 5 5.2 0 4.5-3 8.4-7.2 8.4-3.3 0-5-2.3-5-5.1zm3.7-.1c0 1.3.5 2.4 1.8 2.4 1.9 0 3-3.5 3-5.7 0-1.1-.5-2.3-1.8-2.3-2 0-3 3.5-3 5.6zM80.5 22.9s1.4-2.2 3.8-2.2c2.7 0 3.8 2.2 3.8 4.7 0 4.5-2.8 9-7 9-1.5 0-2.2-.5-2.2-.5l-1 5.4h-3.7l2.5-13.5.7-4.9h3.3l-.3 2h.1zM79.4 31s.5.6 1.5.6c2 0 3.4-3.4 3.4-5.8 0-1-.4-2-1.5-2-1.2 0-2.4 1.5-2.8 3.8l-.6 3.4z" clip-rule="evenodd"/>
  <path fill="#fff" d="M91.2 17.5a2 2 0 012-2c1.1 0 1.9.7 1.9 1.8a2 2 0 01-2.2 2c-1 0-1.7-.7-1.7-1.8zM91.8 34h-3.6l2.4-13h3.7l-2.5 13zM112.2 21s-2.3 5.8-3.3 9c0-1-1-9-1-9h-3.7l2.2 12-.1.6c-.4.8-1.2 1.6-2 2.2-.7.5-1.4.9-2 1l1 3.2c.7-.2 2.2-.8 3.5-2a25 25 0 004.8-7.3L116 21h-3.8z"/>
</svg>