<svg xmlns="http://www.w3.org/2000/svg" fill="none" viewBox="0 0 124 49">
  <path fill="#fff" fill-rule="evenodd" d="M112.63 21.08c-.18-2.37-2.04-3.81-4.67-3.81-2.45 0-4.7 1.54-4.7 3.94 0 1.41.8 2.61 3.87 3.55 1.82.56 2.23.91 2.23 1.59 0 .56-.63.93-1.27.93-.72 0-1.27-.34-1.38-1.1h-3.61c.26 2.45 2.21 4 4.95 4 2.76 0 4.95-1.59 4.95-4.12 0-1.76-.94-2.91-3.83-3.68-1.69-.43-2.28-.76-2.28-1.41 0-.46.44-.8 1.05-.8.6 0 1.1.21 1.12.9h3.57zm-21.54 8.7h3.64v-6.76c0-1.59.7-2.38 2.07-2.38.66 0 1.14.2 1.44.6.3.4.45 1.05.45 1.92v6.63h3.64v-7.6c0-.48-.02-.9-.06-1.27a5.1 5.1 0 00-.2-.97c-.08-.29-.2-.54-.36-.78a3.83 3.83 0 00-.6-.69c-.38-.39-.86-.7-1.43-.91a5.02 5.02 0 00-3.75.07c-.5.27-.97.7-1.4 1.3v-1.29H91.1V29.8zm-7.8-2.37c-1.47-.23-1.44-.82-1.08-1.1 3.35 1.27 7.45-.35 7.47-4.22 0-1.41-.51-2.32-.9-2.73.3-.6.66-.88 1.41-1.07l-1.53-2.63c-1.38.11-2.3.96-2.71 1.83a6.25 6.25 0 00-3.83.1c-.64.23-1.23.56-1.74 1.01a4.52 4.52 0 00-1.56 3.5c0 .91.3 2.01.84 2.76a3.28 3.28 0 00.13 4.93c-.16.12-.3.25-.45.4-1.36 1.48-.72 3.55.86 4.63 1.98 1.42 5.51 1.5 7.68.55 3.82-1.55 3.95-7.2-.48-7.94-1.23-.2-2.63.2-4.1-.02zm3.53 4.87c-.41.57-1.2.77-1.86.8-.78.03-1.83-.14-2.36-.78-.52-.6-.4-1.46.3-1.88.19-.12.4-.19.63-.22h1.8c.8 0 1.8.22 1.79 1.2 0 .3-.11.64-.3.88zm-2.53-12.3a2 2 0 110 4 2 2 0 010-4zm-6.95 9.8H73.7V17.66h3.64V29.8zm-1.82-13.4a2.18 2.18 0 100-4.36 2.18 2.18 0 000 4.36zm-3.17 4.7c-.17-2.37-2.03-3.81-4.66-3.81-2.46 0-4.71 1.54-4.71 3.94 0 1.41.8 2.61 3.87 3.55 1.82.56 2.24.91 2.24 1.59 0 .56-.64.93-1.27.93-.72 0-1.27-.34-1.38-1.1h-3.62c.27 2.45 2.22 4 4.95 4 2.76 0 4.95-1.59 4.95-4.12 0-1.76-.94-2.91-3.83-3.68-1.69-.43-2.28-.76-2.28-1.41 0-.46.44-.8 1.05-.8.6 0 1.1.21 1.12.9h3.57zm-10.5.17a6.36 6.36 0 00-3.4-3.5 6.33 6.33 0 00-8.34 3.45c-.33.79-.5 1.64-.5 2.54a6.44 6.44 0 003.89 5.96 6.3 6.3 0 005.99-.62c1-.71 1.77-1.68 2.33-2.9h-3.79c-.38.36-.74.61-1.06.74-.33.13-.71.2-1.17.2-.73 0-1.33-.21-1.82-.62a2.44 2.44 0 01-.85-1.64h9.1a6.8 6.8 0 00-.39-3.61zm-8.62 1.18c.15-.68.46-1.2.93-1.56a2.86 2.86 0 011.79-.55c.71 0 1.31.2 1.8.59.5.38.81.9.94 1.52h-5.46zm-29.88-6.66l.28-.53a6.47 6.47 0 0111.2 6.47l-4.66 8.08h-4.22l2.82-4.87a6.43 6.43 0 01-5.42-3.75l-.27.54-4.67 8.08h-4.22l2.82-4.87a6.47 6.47 0 116.35-9.15zm21.8-3.4v6.27a5.14 5.14 0 00-1.6-1.08 5.9 5.9 0 00-6.3 1.48 6.36 6.36 0 00-1.27 2.06c-.3.8-.46 1.65-.46 2.58 0 .96.15 1.83.45 2.63a5.83 5.83 0 005.66 3.9c.84-.01 1.55-.15 2.12-.41.58-.27 1.11-.7 1.6-1.3v1.28h3.45V12.37h-3.65zm-.68 13.55c-.58.58-1.33.87-2.24.87-.44 0-.84-.07-1.23-.23a2.78 2.78 0 01-1.6-1.63 3.3 3.3 0 01-.23-1.25c0-.44.07-.85.23-1.23a2.8 2.8 0 011.63-1.6 3.3 3.3 0 013.44.64 2.97 2.97 0 01.88 2.16c0 .93-.3 1.68-.88 2.27zm-17.8-8.93a2.96 2.96 0 115.12 2.96A2.96 2.96 0 0126.67 17zm-11.76 0a2.96 2.96 0 115.12 2.96A2.96 2.96 0 0114.91 17z" clip-rule="evenodd"/>
</svg>