<svg width="51" height="50" viewBox="0 0 51 50" fill="none" xmlns="http://www.w3.org/2000/svg">
<circle cx="25.1274" cy="25" r="23.5" fill="white" stroke="#C4C4C4" stroke-width="3"/>
<path fill-rule="evenodd" clip-rule="evenodd" d="M24.0644 14.2575V11.7021H26.192V14.2668C28.6631 14.5231 30.9826 15.6286 32.7471 17.4127C33.1624 17.8327 33.54 18.2832 33.8778 18.759L36.2978 17.3596L37.3628 19.2016L34.9332 20.6064C35.556 21.9978 35.8851 23.5187 35.8814 25.0729C35.8777 26.6095 35.5489 28.112 34.9331 29.4876L37.3628 30.8925L36.2978 32.7344L33.8777 31.335C33.53 31.8247 33.1401 32.2876 32.7104 32.7179C30.9497 34.4812 28.645 35.5726 26.192 35.827V38.2979H24.0644V35.8363C21.5765 35.6002 19.2354 34.5036 17.4524 32.7179C17.0339 32.2988 16.6532 31.8489 16.3125 31.3733L13.9586 32.7344L12.8936 30.8925L15.249 29.5305C14.6208 28.1433 14.2851 26.6256 14.2814 25.0729C14.2777 23.5027 14.6136 21.9665 15.2489 20.5635L12.8936 19.2016L13.9586 17.3596L16.3123 18.7206C16.6431 18.259 17.0115 17.8214 17.4157 17.4127C19.2025 15.6061 21.5583 14.4953 24.0644 14.2575ZM24.0644 16.3971C22.1291 16.6266 20.3158 17.5061 18.9285 18.9089C18.6531 19.1873 18.3984 19.4825 18.1652 19.792L24.0644 23.203V16.3971ZM23.0029 25.047L17.1021 21.635C16.6464 22.71 16.4062 23.8766 16.4091 25.0678C16.4119 26.2449 16.6519 27.3968 17.1022 28.4589L23.0029 25.047ZM18.1653 30.302C18.4068 30.6225 18.6713 30.9275 18.9579 31.2146C20.342 32.6006 22.1435 33.4689 24.0644 33.6967V26.891L18.1653 30.302ZM26.192 26.891V33.6851C28.0778 33.4406 29.8433 32.5781 31.2048 31.2146C31.5027 30.9163 31.7767 30.5985 32.0257 30.2642L26.192 26.891ZM33.0789 28.4154C33.5174 27.3653 33.7509 26.2289 33.7537 25.0678C33.7565 23.8926 33.5228 22.7415 33.079 21.6786L27.2535 25.047L33.0789 28.4154ZM26.192 23.203L32.0259 19.8298C31.7851 19.5065 31.5208 19.1986 31.2343 18.9089C29.8694 17.5288 28.0921 16.6551 26.192 16.4087V23.203Z" fill="#333333"/>
</svg>
