<svg width="220" height="41" viewBox="0 0 220 41" fill="none" xmlns="http://www.w3.org/2000/svg">
<path fill-rule="evenodd" clip-rule="evenodd" d="M220 0H0V41H220V0ZM19.2311 3.35303C19.9815 1.93066 22.0185 1.93066 22.7689 3.35303L26.9597 11.2959C27.2491 11.8442 27.7766 12.2275 28.3876 12.3335L37.237 13.8643C38.8215 14.1387 39.451 16.0757 38.3302 17.229L32.0709 23.6694C31.6387 24.1143 31.4372 24.7344 31.5255 25.3481L32.8039 34.2373C33.0328 35.8291 31.3849 37.0264 29.9418 36.3169L21.8825 32.354C21.326 32.0806 20.674 32.0806 20.1175 32.354L12.0582 36.3169C10.6151 37.0264 8.96719 35.8291 9.1961 34.2373L10.4745 25.3481C10.5628 24.7344 10.3613 24.1143 9.92906 23.6694L3.66978 17.229C2.54899 16.0757 3.17844 14.1387 4.76302 13.8643L13.6124 12.3335C14.2234 12.2275 14.7509 11.8442 15.0403 11.2959L19.2311 3.35303ZM63.2311 3.35303C63.9815 1.93066 66.0185 1.93066 66.7689 3.35303L70.9597 11.2959C71.2491 11.8442 71.7766 12.2275 72.3876 12.3335L81.237 13.8643C82.8215 14.1387 83.451 16.0757 82.3302 17.229L76.0709 23.6694C75.6387 24.1143 75.4372 24.7344 75.5255 25.3481L76.8039 34.2373C77.0328 35.8291 75.3849 37.0264 73.9418 36.3169L65.8825 32.354C65.326 32.0806 64.674 32.0806 64.1175 32.354L56.0582 36.3169C54.6151 37.0264 52.9672 35.8291 53.1961 34.2373L54.4745 25.3481C54.5628 24.7344 54.3613 24.1143 53.9291 23.6694L47.6698 17.229C46.549 16.0757 47.1785 14.1387 48.763 13.8643L57.6124 12.3335C58.2234 12.2275 58.7509 11.8442 59.0403 11.2959L63.2311 3.35303ZM107.231 3.35303C107.982 1.93066 110.018 1.93066 110.769 3.35303L114.96 11.2959C115.249 11.8442 115.777 12.2275 116.388 12.3335L125.237 13.8643C126.822 14.1387 127.451 16.0757 126.33 17.229L120.071 23.6694C119.639 24.1143 119.437 24.7344 119.526 25.3481L120.804 34.2373C121.033 35.8291 119.385 37.0264 117.942 36.3169L109.882 32.354C109.326 32.0806 108.674 32.0806 108.118 32.354L100.058 36.3169C98.6151 37.0264 96.9672 35.8291 97.1961 34.2373L98.4745 25.3481C98.5628 24.7344 98.3613 24.1143 97.9291 23.6694L91.6698 17.229C90.549 16.0757 91.1785 14.1387 92.763 13.8643L101.612 12.3335C102.223 12.2275 102.751 11.8442 103.04 11.2959L107.231 3.35303ZM151.231 3.35303C151.982 1.93066 154.018 1.93066 154.769 3.35303L158.96 11.2959C159.249 11.8442 159.777 12.2275 160.388 12.3335L169.237 13.8643C170.822 14.1387 171.451 16.0757 170.33 17.229L164.071 23.6694C163.639 24.1143 163.437 24.7344 163.526 25.3481L164.804 34.2373C165.033 35.8291 163.385 37.0264 161.942 36.3169L153.882 32.354C153.326 32.0806 152.674 32.0806 152.118 32.354L144.058 36.3169C142.615 37.0264 140.967 35.8291 141.196 34.2373L142.474 25.3481C142.563 24.7344 142.361 24.1143 141.929 23.6694L135.67 17.229C134.549 16.0757 135.178 14.1387 136.763 13.8643L145.612 12.3335C146.223 12.2275 146.751 11.8442 147.04 11.2959L151.231 3.35303ZM195.231 3.35303C195.982 1.93066 198.018 1.93066 198.769 3.35303L202.96 11.2959C203.249 11.8442 203.777 12.2275 204.388 12.3335L213.237 13.8643C214.822 14.1387 215.451 16.0757 214.33 17.229L208.071 23.6694C207.639 24.1143 207.437 24.7344 207.526 25.3481L208.804 34.2373C209.033 35.8291 207.385 37.0264 205.942 36.3169L197.883 32.354C197.326 32.0806 196.674 32.0806 196.117 32.354L188.058 36.3169C186.615 37.0264 184.967 35.8291 185.196 34.2373L186.474 25.3481C186.563 24.7344 186.361 24.1143 185.929 23.6694L179.67 17.229C178.549 16.0757 179.178 14.1387 180.763 13.8643L189.612 12.3335C190.223 12.2275 190.751 11.8442 191.04 11.2959L195.231 3.35303Z" fill="white"/>
</svg>
