<svg xmlns="http://www.w3.org/2000/svg" fill="none" viewBox="0 0 36 38">
  <g stroke="#000" stroke-linecap="round" stroke-width="2">
  <path fill="#fff" d="M30.2 37H11.8L3 25.6s-3.8-4.2-1-7.1c3-2.9 5.3 0 5.3 0l2 2V5c0-1.5 1.2-3.9 3.5-3.9 2.7 0 3.5 2 3.5 3.9v12c.2-1.7 0-5.1 3.5-5.1 3 0 3 3.4 3 5 .2-1.4 0-4.2 3.1-4.2 2.3 0 2.3 4.3 2.3 4.3s.2-2.7 2.8-2.7c2.7 0 3 2.7 3 2.7v7.9L30.3 37z"/>
  <line x1="16.1" x2="16.1" y1="22" y2="30" />
  <line x1="21.1" x2="21.1" y1="22" y2="30" />
  <line x1="26.1" x2="26.1" y1="22" y2="30" />
  </g>
</svg>
