<svg width="77" height="78" viewBox="0 0 77 78" fill="none" xmlns="http://www.w3.org/2000/svg">
<path d="M8 6H69L63.4519 68.3136L38.4332 75.3562L13.5568 68.3107L8 6Z" fill="#E34F26"/>
<path d="M38.5269 69.0733V11.0878H63.966L59.3385 63.1994L38.5269 69.0733Z" fill="#EC613B"/>
<path d="M27.5792 25.788L28.2531 33.6426V33.6455H56.1155L53.9544 57.2179L38.3297 61.3879L22.5801 57.1976L21.6215 45.1441H29.2L29.7461 51.2417L38.3297 53.5825L46.7825 51.259L47.7295 41.3584H21.2206L19.1931 18.2108L57.4662 18.2195L56.7982 25.7966L27.5792 25.788Z" fill="white"/>
<path d="M38.5269 25.7912L27.5791 25.788L28.2531 33.6426V33.6455H38.5269V41.3584H21.2207L19.1931 18.2108L38.5269 18.2152V25.7912Z" fill="#EBEBEB"/>
<path d="M38.5269 53.5283V61.3353L38.3297 61.3879L22.5801 57.1976L21.6215 45.1441H29.2L29.7461 51.2417L38.3297 53.5825L38.5269 53.5283Z" fill="#EBEBEB"/>
</svg>
