<svg width="47" height="57" viewBox="0 0 47 57" fill="none" xmlns="http://www.w3.org/2000/svg">
<path d="M0.64209 0.956602H46.5786V46.8931H0.64209V0.956602ZM42.8157 35.9373C42.4807 33.8414 41.116 32.0805 37.0679 30.4383C35.6591 29.778 34.0935 29.3186 33.6284 28.2563C33.4542 27.6247 33.4274 27.2802 33.5403 26.9069C33.8274 25.6705 35.2916 25.2991 36.4401 25.6437C37.1865 25.8733 37.8756 26.4476 38.3081 27.3663C40.2872 26.0724 40.2872 26.0724 41.6673 25.213C41.1505 24.4091 40.894 24.0627 40.5456 23.7201C39.3398 22.3707 37.7339 21.6816 35.1213 21.741L33.7719 21.9113C32.478 22.2271 31.2454 22.9162 30.4989 23.8349C28.3169 26.3059 28.9467 30.6125 31.588 32.3925C34.2006 34.3448 38.021 34.7736 38.5091 36.6129C38.9685 38.8523 36.8439 39.5701 34.7461 39.3117C33.1939 38.9672 32.3345 38.1901 31.387 36.7546L27.8844 38.7662C28.2863 39.6849 28.7457 40.085 29.4347 40.8889C32.7651 44.2499 41.0911 44.0776 42.586 38.9672C42.6415 38.7949 43.0453 37.6178 42.7276 35.809L42.8157 35.9373ZM25.622 22.0702H21.3193C21.3193 25.7796 21.302 29.466 21.302 33.1811C21.302 35.5392 21.4226 37.7039 21.0379 38.37C20.4063 39.6888 18.7794 39.5203 18.0406 39.2887C17.2826 38.9136 16.8979 38.3968 16.4519 37.6522C16.3313 37.4513 16.2414 37.2771 16.2088 37.2771L12.7157 39.4304C13.2995 40.6362 14.1513 41.6736 15.2499 42.3339C16.8864 43.3101 19.0856 43.6259 21.3882 43.1091C22.8869 42.6766 24.1788 41.7865 24.8545 40.4084C25.8306 38.6284 25.6239 36.4464 25.6143 34.0041C25.6373 30.0727 25.6143 26.1394 25.6143 22.1774L25.622 22.0702Z" fill="#F7DF1E"/>
</svg>
