<svg width="77" height="78" viewBox="0 0 77 78" fill="none" xmlns="http://www.w3.org/2000/svg">
<path d="M7 21H69.5V57H7V21Z" fill="#3E863D"/>
<path d="M69.4106 57.1986L59.0089 39.1323L69.4106 21.0662L38.2054 3L7 21.0662L17.4018 39.1324L7.00005 57.1986L38.2053 75.2648L69.4106 57.1986Z" fill="#9CC696"/>
<path d="M59.0089 39.1323L69.4106 21.0662L38.2054 3L59.0089 39.1323Z" fill="#75BF58"/>
<path d="M38.2054 3L17.4018 39.1324L7 21.0662L38.2054 3Z" fill="#75BF58"/>
<path d="M17.3255 39L17.4017 39.1324L7 57.1986L38.2053 75.2648L69.4106 57.1986L59.0088 39.1323L59.085 39H58.9326L59.0088 39.1323L38.2053 75.2648L17.4017 39.1324L17.478 39H17.3255Z" fill="#50914F"/>
</svg>
