<svg width="43" height="57" viewBox="0 0 43 57" fill="none" xmlns="http://www.w3.org/2000/svg">
<path d="M0 0.24852H42.4477L38.587 43.6103L21.1774 48.511L3.86678 43.6083L0 0.24852Z" fill="#E34F26"/>
<path d="M21.2427 44.139V3.78895H38.9448L35.7247 40.0516L21.2427 44.139Z" fill="#EC613B"/>
<path d="M13.6246 14.0182L14.0936 19.484V19.486H33.482L31.9782 35.8892L21.1055 38.7909L10.1459 35.8751L9.47888 27.4875H14.7525L15.1325 31.7305L21.1055 33.3594L26.9875 31.7426L27.6465 24.8531H9.19994L7.78906 8.74556L34.422 8.75159L33.9571 14.0243L13.6246 14.0182Z" fill="white"/>
<path d="M21.2427 14.0205L13.6246 14.0182L14.0936 19.4839V19.486H21.2427V24.8532H9.19996L7.78906 8.74556L21.2427 8.7486V14.0205Z" fill="#EBEBEB"/>
<path d="M21.2427 33.3217V38.7543L21.1055 38.7909L10.1459 35.8751L9.47889 27.4875H14.7525L15.1325 31.7305L21.1055 33.3594L21.2427 33.3217Z" fill="#EBEBEB"/>
</svg>
