<svg width="77" height="78" viewBox="0 0 77 78" fill="none" xmlns="http://www.w3.org/2000/svg">
<path fill-rule="evenodd" clip-rule="evenodd" d="M38.5003 46.751C42.5073 46.751 45.745 43.4979 45.745 39.4984C45.745 35.4989 42.5073 32.2457 38.5003 32.2457C34.493 32.2457 31.2557 35.4989 31.2557 39.4984C31.2557 43.4979 34.493 46.751 38.5003 46.751Z" fill="#61DAFB"/>
<path fill-rule="evenodd" clip-rule="evenodd" d="M38.4973 65.0733C36.3563 67.1099 34.0511 69.0028 31.4944 70.5059C28.7591 72.114 26.144 72.9979 23.7963 72.9991C22.3804 73.0188 20.9851 72.6612 19.753 71.9632L19.7483 71.9605C17.1762 70.4759 15.719 67.6474 15.2739 63.9334C14.8891 60.7225 15.2483 56.7795 16.3416 52.2777C11.8984 50.9722 8.30491 49.3103 5.71613 47.371C2.71953 45.1262 1 42.4502 1 39.4864C1 36.5226 2.71953 33.8466 5.71613 31.6018C8.30458 29.6625 11.8981 28.0008 16.3412 26.6952C15.2479 22.1931 14.8891 18.2501 15.2739 15.0389C15.719 11.3243 17.1762 8.4953 19.7477 7.00909C21.2465 6.14248 22.9813 5.85366 24.8636 6.06755C26.1657 6.21542 27.538 6.60379 28.9515 7.20777C31.9382 8.48382 35.1845 10.75 38.5 13.8988C41.8142 10.7514 45.0592 8.48596 48.0455 7.20992C51.5025 5.73263 54.7145 5.54485 57.2523 7.00884C59.8241 8.49497 61.2813 11.324 61.7268 15.0383C62.112 18.2491 61.7537 22.1914 60.6618 26.6922C65.1036 27.9979 68.6961 29.6596 71.2842 31.5991C74.2805 33.8445 76 36.5212 76 39.4864C76 42.4517 74.2805 45.1276 71.2842 47.3721C68.6958 49.3111 65.1029 50.9724 60.6608 52.2778C61.7521 56.7784 62.1106 60.7213 61.7258 63.9324C61.2807 67.6466 59.8241 70.4759 57.252 71.9607L57.2473 71.9634C56.0162 72.6608 54.6219 73.0184 53.207 72.9993C50.8566 72.998 48.2399 72.1143 45.5033 70.5061C43.2539 69.1843 40.8986 67.3567 38.4973 65.0733ZM20.6436 25.6024C19.7237 21.785 19.4001 18.4947 19.6315 15.9534C19.8559 13.4851 20.8014 10.4011 23.7913 10.4011C25.2418 10.4011 27.0632 10.9993 29.1503 12.2165C31.0892 13.3471 33.2102 14.9841 35.4082 17.0746C33.3597 19.3403 31.4478 21.7263 29.6823 24.2198C26.6444 24.5027 23.6262 24.9644 20.6436 25.6024ZM41.5682 17.2002C44.4386 14.5009 47.1476 12.5775 49.4807 11.5057C51.7465 10.4646 54.9099 9.73532 56.4051 12.3054C57.1301 13.5523 57.519 15.4171 57.5004 17.8198C57.4834 20.0517 57.1158 22.6935 56.3907 25.6281C53.3898 25.0002 50.3519 24.5496 47.2937 24.2787C45.5279 21.8088 43.616 19.4452 41.5682 17.2002ZM25.7745 39.4856C27.6302 43.3089 29.7572 46.9937 32.1396 50.5116C36.4229 50.8183 40.5804 50.8181 44.8637 50.5116C47.2461 46.9943 49.3721 43.3096 51.2258 39.486C49.3751 35.6604 47.2481 31.9754 44.8611 28.4607C40.626 28.1545 36.3743 28.1545 32.1389 28.4607C29.7509 31.9747 27.6239 35.6596 25.7745 39.4856ZM21.8624 49.1025C22.3444 47.6179 22.8751 46.1498 23.4537 44.7006C24.3991 46.4695 25.4029 48.2086 26.4616 49.9107C24.877 49.6855 23.3412 49.4157 21.8624 49.1025ZM20.6432 53.367C23.6248 54.0059 26.6418 54.4674 29.678 54.7492L29.6816 54.7545L29.6863 54.7549C31.4514 57.2466 33.3621 59.6315 35.4082 61.8971C32.6077 64.5545 29.917 66.4731 27.5876 67.5518C25.094 68.7065 23.1864 68.825 21.9699 68.1305C20.7371 67.4177 19.8778 65.7314 19.6301 63.0174C19.3984 60.4754 19.7224 57.1844 20.6432 53.367ZM38.497 58.7019C37.454 57.5412 36.4489 56.3467 35.4834 55.1208C37.482 55.1812 39.4748 55.1887 41.5093 55.121C40.5448 56.3471 39.54 57.5413 38.497 58.7019ZM17.5457 30.9566C18.4839 33.8636 19.5945 36.712 20.8716 39.4866C19.5959 42.2616 18.4856 45.1098 17.5461 48.0162C13.7851 46.9043 10.7772 45.5399 8.69409 44.07C6.46986 42.5003 5.43781 40.9136 5.43781 39.4864C5.43781 38.0575 6.47019 36.4701 8.69409 34.9005C10.7768 33.4306 13.7848 32.067 17.5457 30.9566ZM47.3114 54.755C45.5489 57.2483 43.6393 59.6336 41.5922 61.898C43.7901 63.9884 45.9114 65.6254 47.85 66.756C49.9371 67.9732 51.7585 68.5715 53.209 68.5715C53.9288 68.5715 54.5394 68.4151 55.0291 68.1314C56.2626 67.4191 57.1225 65.7326 57.3702 63.0176C57.6019 60.4755 57.278 57.1845 56.3571 53.3671C53.3758 54.0055 50.3596 54.4669 47.3237 54.7489L47.32 54.7543L47.3114 54.755ZM50.5387 49.9134C52.0794 49.6908 53.6129 49.4182 55.1363 49.0958C54.6546 47.6149 54.1246 46.1503 53.5469 44.7046C52.6015 46.4734 51.598 48.2106 50.5387 49.9134ZM55.136 29.8748C53.6102 29.5511 52.0744 29.2775 50.5314 29.0546C51.5917 30.7604 52.5968 32.5004 53.5446 34.2715C54.1229 32.824 54.6536 31.3577 55.136 29.8748ZM56.1324 39.4974C57.4544 42.3925 58.5697 45.2446 59.4563 48.0155C63.2176 46.9037 66.2248 45.5397 68.3069 44.07C70.5308 42.5004 71.5622 40.9138 71.5622 39.4864C71.5622 38.0576 70.5298 36.4709 68.3059 34.9017C66.2232 33.4322 63.2152 32.0685 59.4543 30.9567C58.5168 33.86 57.4078 36.705 56.1331 39.4764L56.1377 39.4863L56.1324 39.4974ZM41.5099 23.8487C40.5465 22.6241 39.5427 21.4315 38.5007 20.2726C37.4583 21.4317 36.4542 22.6244 35.4901 23.8488C37.4962 23.783 39.5041 23.7829 41.5099 23.8487ZM26.4643 29.0569C24.9226 29.2799 23.3881 29.5532 21.8637 29.8762C22.3461 31.3586 22.8761 32.8246 23.4537 34.272C24.4 32.5012 25.4083 30.7652 26.4643 29.0569Z" fill="#61DAFB"/>
</svg>
