<svg width="77" height="78" viewBox="0 0 77 78" fill="none" xmlns="http://www.w3.org/2000/svg">
<ellipse cx="37.7119" cy="36" rx="27.5" ry="30" fill="white"/>
<path d="M60.1667 6H16.8333C10.856 6.01625 6.01625 10.856 6 16.8333V60.1667C6 66.125 10.875 71 16.8333 71H60.1667C66.125 71 71 66.125 71 60.1667V16.8333C71 10.875 66.125 6 60.1667 6ZM54.2435 51.649C53.7019 52.9544 52.8433 54.1054 51.7437 54.991C50.6062 55.9119 49.1654 56.6702 47.3915 57.2119C45.6202 57.7617 43.5131 58.0379 41.0729 58.0379H23.6529V20.1213H42.075C45.4821 20.1213 48.2121 20.8877 50.2542 22.4504C52.3125 24.0212 53.3363 26.3612 53.3363 29.5192C53.3363 31.4285 52.8704 33.0671 51.9333 34.4213C51.0017 35.7673 49.6583 36.8208 47.925 37.5521V37.6767C50.2379 38.1642 52.0281 39.261 53.2062 40.9673C54.3844 42.6735 54.9883 44.8294 54.9883 47.4321C54.9883 48.8892 54.7067 50.2758 54.1758 51.5704L54.2435 51.6435V51.649ZM46.7252 42.3052C45.6148 41.2896 44.0548 40.794 42.0398 40.794H30.3344V52.624H42.0723C44.0765 52.624 45.6473 52.104 46.7577 51.0531C47.8681 50.0104 48.4369 48.5235 48.4369 46.6115C48.4179 44.7427 47.8681 43.2965 46.7577 42.3052H46.7117H46.7252ZM45.1002 34.6596C46.1727 33.7496 46.6981 32.4469 46.6981 30.7487C46.6981 28.8421 46.2242 27.4879 45.2627 26.7133C44.3094 25.9415 42.9335 25.5406 41.1244 25.5406H30.291V36.0029H41.1244C42.7033 36.0029 44.0494 35.5425 45.0894 34.6596H45.1002Z" fill="#7A3DD7"/>
</svg>
