<svg width="77" height="78" viewBox="0 0 77 78" fill="none" xmlns="http://www.w3.org/2000/svg">
<path d="M69 6L63.4427 68.2554L38.4627 75.1807L13.5514 68.2651L8 6H69Z" fill="#264DE4"/>
<path d="M58.6851 64.2911L63.4342 11.0911H38.5V69.8872L58.6851 64.2911Z" fill="#2965F1"/>
<path d="M20.7266 34.1843L21.411 41.8208H38.5002V34.1843H20.7266Z" fill="#EBEBEB"/>
<path d="M38.4997 18.7277H38.4733H19.3508L20.045 26.3643H38.4997V18.7277Z" fill="#EBEBEB"/>
<path d="M38.5001 61.9626V54.0174L38.4667 54.0263L29.9618 51.7298L29.4181 45.6393H25.2854H21.7522L22.8221 57.6298L38.465 61.9724L38.5001 61.9626Z" fill="#EBEBEB"/>
<path d="M47.8772 41.8207L46.9908 51.7248L38.4736 54.0236V61.9685L54.129 57.6296L54.2439 56.3395L56.0384 36.2349L56.2247 34.1843L57.6033 18.7277H38.4736V26.3643H49.2343L48.5395 34.1843H38.4736V41.8207H47.8772Z" fill="white"/>
</svg>
