<svg xmlns="http://www.w3.org/2000/svg" fill="none" viewBox="0 0 77 69">
  <path fill="#61DAFB" fill-rule="evenodd" d="M38.5 42a7.5 7.5 0 100-15 7.5 7.5 0 000 15z" clip-rule="evenodd"/>
  <path fill="#61DAFB" fill-rule="evenodd" d="M38.5 60.8c-2.2 2.1-4.6 4-7.2 5.6a16 16 0 01-7.9 2.6c-1.4 0-2.9-.3-4.1-1-2.7-1.6-4.2-4.5-4.6-8.3-.4-3.3 0-7.4 1-12-4.5-1.4-8.2-3.1-10.9-5-3-2.4-4.8-5.2-4.8-8.2 0-3 1.8-5.8 4.8-8.1 2.7-2 6.4-3.7 11-5a34.8 34.8 0 01-1.1-12c.4-4 2-6.8 4.5-8.4a8.4 8.4 0 015.3-1c1.3.2 2.7.6 4.2 1.2 3 1.4 6.4 3.7 9.8 7 3.4-3.3 6.7-5.6 9.8-7 3.5-1.5 6.8-1.7 9.5-.2 2.6 1.6 4 4.5 4.5 8.3.4 3.3 0 7.4-1 12 4.5 1.4 8.2 3 10.9 5 3 2.4 4.8 5.1 4.8 8.2 0 3-1.8 5.8-4.8 8.1-2.7 2-6.4 3.7-11 5 1.2 4.7 1.5 8.8 1.1 12-.4 3.9-2 6.8-4.5 8.3-1.3.8-2.7 1.1-4.2 1.1a16 16 0 01-8-2.6 40.3 40.3 0 01-7.1-5.6zM20.2 20.2c-1-4-1.3-7.3-1-10 .2-2.5 1.1-5.7 4.2-5.7 1.5 0 3.4.6 5.5 1.9 2 1.2 4.2 2.9 6.4 5-2 2.3-4 4.8-5.9 7.4-3 .3-6.2.7-9.2 1.4zm21.4-8.7c3-2.7 5.8-4.7 8.2-5.8 2.3-1.1 5.5-1.9 7 .8.8 1.3 1.2 3.2 1.2 5.7 0 2.3-.4 5-1.1 8-3.1-.6-6.2-1.1-9.4-1.4-1.8-2.5-3.7-5-5.9-7.3zm-16.2 23c2 4 4.1 7.7 6.6 11.3 4.4.4 8.6.4 13 0 2.5-3.6 4.7-7.4 6.6-11.3A90 90 0 0045 23c-4.3-.3-8.7-.3-13 0a89.5 89.5 0 00-6.6 11.4zm-4 9.9c.5-1.5 1-3 1.7-4.5l3 5.3a71 71 0 01-4.7-.8zm-1.2 4.4a79 79 0 009.2 1.4c1.9 2.6 3.8 5 6 7.4a31.6 31.6 0 01-8.1 5.8c-2.6 1.2-4.5 1.3-5.8.6-1.2-.7-2.1-2.5-2.4-5.3-.2-2.6.1-6 1-10zm18.3 5.5l-3.1-3.7h6.2l-3.1 3.7zM17 25.7c1 3 2 6 3.4 8.8a80 80 0 00-3.4 8.8c-3.9-1.2-7-2.6-9.1-4-2.3-1.7-3.3-3.3-3.3-4.8s1-3.1 3.3-4.7c2.1-1.6 5.2-3 9-4.1zm30.5 24.5c-1.8 2.6-3.7 5-5.8 7.4 2.2 2.1 4.4 3.8 6.4 5 2.1 1.2 4 1.8 5.5 1.8.7 0 1.4-.1 1.9-.4 1.2-.7 2.1-2.5 2.4-5.3.2-2.6-.1-6-1-10-3.1.7-6.2 1.2-9.3 1.5zm3.4-5l4.7-.8c-.5-1.5-1-3-1.7-4.5l-3 5.3zm4.7-20.6a73 73 0 00-4.7-.9l3 5.4 1.7-4.5zm1 9.9c1.4 3 2.5 6 3.4 8.8 3.9-1.2 7-2.6 9.1-4 2.3-1.7 3.3-3.3 3.3-4.8s-1-3.1-3.3-4.7c-2.1-1.5-5.2-3-9-4.1-1 3-2.2 6-3.5 8.8zm-15-16.1l-3.1-3.7c-1 1.2-2.1 2.4-3 3.7h6zM26 23.7l-4.7.9c.5 1.5 1 3 1.7 4.5l3-5.4z" clip-rule="evenodd"/>
</svg>