<svg xmlns="http://www.w3.org/2000/svg" fill="none" viewBox="0 0 83 60">
  <path fill="#37B1D9" d="M16.7 48.3c-2.4 0-4.5-1.9-4.5-4.3 0-2.3 1.9-4.3 4.5-4.3 2.5 0 4.5 2 4.5 4.3 0 2.4-2.2 4.3-4.5 4.3zM72 24.8a13 13 0 00-5.4-8.4l-1-.9-1 1.1c-1.7 2-2.3 5.4-2.1 8 .2 2 .9 3.9 2 5.4l-2.9 1.3c-1.9.6-3.8.9-5.8.9H.3l-.2 1.3c-.4 4 .2 8.4 2 12.3l.8 1.5v.2C8.1 56 17.3 60 27.4 60c19.3 0 35.2-8.4 42.7-26.5 5 .2 9.9-1.1 12.3-5.9l.6-1-1-.7a13 13 0 00-10-1zm-27.7-3.4H36v8.4h8.4v-8.4zm0-10.6H36v8.4h8.4v-8.4zm0-10.8H36v8.4h8.4V0zm10.3 21.4h-8.4v8.4h8.4v-8.4zm-31.2 0h-8.3v8.4h8.3v-8.4zm10.6 0h-8.4v8.4H34v-8.4zm-20.9 0H5v8.4h8.3v-8.4zm20.9-10.6h-8.4v8.4H34v-8.4zm-10.6 0h-8.3v8.4h8.3v-8.4z"/>
</svg>