<svg width="77" height="78" viewBox="0 0 77 78" fill="none" xmlns="http://www.w3.org/2000/svg">
<path d="M16.0543 57.5108C13.9203 57.5108 11.9803 55.7626 11.9803 53.6259C11.9803 51.4892 13.7263 49.741 16.0543 49.741C18.3823 49.741 20.1283 51.4892 20.1283 53.6259C20.1283 55.7626 18.1883 57.5108 16.0543 57.5108ZM66.1061 36.3381C65.8394 34.8166 65.2733 33.3633 64.4407 32.0628C63.6081 30.7623 62.5256 29.6405 61.2561 28.7626L60.2861 27.9856L59.5101 28.9568C57.9581 30.705 57.3761 33.8129 57.5701 36.1439C57.7641 37.8921 58.3461 39.6403 59.3161 41L56.7941 42.1655C55.0481 42.7482 53.3021 42.9424 51.5561 42.9424H1.3104L1.1164 44.1079C0.728401 47.7986 1.3104 51.6835 2.86239 55.1799L3.63839 56.5396V56.7338C8.29436 64.5036 16.6363 68 25.7543 68C43.2142 68 57.5701 60.4245 64.3601 44.1079C68.822 44.3022 73.284 43.1367 75.418 38.8633L76 37.8921L75.03 37.3094C72.2982 35.8247 69.0927 35.4758 66.1061 36.3381V36.3381ZM41.0802 33.2302H33.5142V40.8058H41.0802V33.2302ZM41.0802 23.7122H33.5142V31.2878H41.0802V23.7122ZM41.0802 14H33.5142V21.5755H41.0802V14V14ZM50.3921 33.2302H42.8262V40.8058H50.3921V33.2302ZM22.2623 33.2302H14.6963V40.8058H22.2623V33.2302V33.2302ZM31.7682 33.2302H24.2023V40.8058H31.7682V33.2302ZM12.9503 33.2302H5.38438V40.8058H12.9503V33.2302V33.2302ZM31.7682 23.7122H24.2023V31.2878H31.7682V23.7122ZM22.2623 23.7122H14.6963V31.2878H22.2623V23.7122V23.7122Z" fill="#37B1D9"/>
</svg>
