<svg width="44" height="57" viewBox="0 0 44 57" fill="none" xmlns="http://www.w3.org/2000/svg">
<ellipse cx="21.8454" cy="22.3235" rx="19.4724" ry="21.2426" fill="white"/>
<path d="M36.4408 0.372791H7.36707C3.35671 0.383694 0.109535 3.63087 0.0986328 7.64123V36.715C0.0986328 40.7126 3.36943 43.9834 7.36707 43.9834H36.4408C40.4385 43.9834 43.7093 40.7126 43.7093 36.715V7.64123C43.7093 3.64359 40.4385 0.372791 36.4408 0.372791ZM32.4668 31.0002C32.1034 31.876 31.5274 32.6483 30.7896 33.2425C30.0264 33.8603 29.0597 34.3691 27.8695 34.7325C26.6811 35.1014 25.2674 35.2867 23.6302 35.2867H11.9426V9.8472H24.3025C26.5885 9.8472 28.4201 10.3614 29.7902 11.4099C31.1712 12.4638 31.8581 14.0338 31.8581 16.1526C31.8581 17.4336 31.5455 18.533 30.9168 19.4415C30.2917 20.3447 29.3904 21.0515 28.2275 21.5421V21.6257C29.7793 21.9528 30.9804 22.6887 31.7709 23.8335C32.5613 24.9783 32.9665 26.4247 32.9665 28.1709C32.9665 29.1485 32.7775 30.0789 32.4214 30.9475L32.4668 30.9966V31.0002ZM27.4225 24.7312C26.6775 24.0497 25.6308 23.7172 24.2789 23.7172H16.4254V31.6543H24.3007C25.6454 31.6543 26.6993 31.3055 27.4443 30.6004C28.1893 29.9008 28.5709 28.9032 28.5709 27.6204C28.5582 26.3666 28.1893 25.3962 27.4443 24.7312H27.4134H27.4225ZM26.3323 19.6015C27.0518 18.9909 27.4043 18.1169 27.4043 16.9775C27.4043 15.6983 27.0864 14.7897 26.4413 14.27C25.8017 13.7522 24.8786 13.4832 23.6647 13.4832H16.3963V20.5027H23.6647C24.7241 20.5027 25.6272 20.1938 26.325 19.6015H26.3323Z" fill="#563D7C"/>
</svg>
