<svg width="44" height="57" viewBox="0 0 44 57" fill="none" xmlns="http://www.w3.org/2000/svg">
<path d="M43.1641 0.24852L39.2963 43.5784L21.9101 48.3984L4.57177 43.5852L0.708008 0.24852H43.1641Z" fill="#264DE4"/>
<path d="M35.9854 40.8193L39.2908 3.79193H21.9365V44.7142L35.9854 40.8193Z" fill="#2965F1"/>
<path d="M9.56592 19.8649L10.0423 25.1799H21.9364V19.8649H9.56592Z" fill="#EBEBEB"/>
<path d="M21.9361 9.10706H21.9177H8.6084L9.09156 14.4222H21.9361V9.10706Z" fill="#EBEBEB"/>
<path d="M21.9364 39.1986V33.6687L21.9131 33.6749L15.9937 32.0765L15.6153 27.8375H12.7389H10.2798L11.0244 36.1829L21.9119 39.2054L21.9364 39.1986Z" fill="#EBEBEB"/>
<path d="M28.4629 25.1799L27.8459 32.0731L21.918 33.6731V39.2028L32.8141 36.1829L32.8941 35.285L34.1431 21.2921L34.2728 19.8649L35.2323 9.10706H21.918V14.4222H29.4074L28.9238 19.8649H21.918V25.1799H28.4629Z" fill="white"/>
</svg>
