<svg width="77" height="78" viewBox="0 0 77 78" fill="none" xmlns="http://www.w3.org/2000/svg">
<rect x="8" y="10" width="61" height="61" fill="black"/>
<path d="M6 8H70.8742V72.8742H6V8ZM65.5599 57.4017C65.0869 54.4418 63.1596 51.955 57.4425 49.6357C55.453 48.7031 53.2419 48.0544 52.5851 46.5542C52.3391 45.6622 52.3012 45.1756 52.4607 44.6485C52.8662 42.9023 54.934 42.3779 56.5559 42.8645C57.6101 43.1888 58.5832 43.9998 59.1941 45.2972C61.9891 43.47 61.9891 43.47 63.938 42.2563C63.2082 41.121 62.846 40.6317 62.354 40.1479C60.6511 38.2422 58.3832 37.2691 54.6935 37.3529L52.7878 37.5934C50.9605 38.0394 49.2197 39.0126 48.1655 40.31C45.084 43.7997 45.9733 49.8817 49.7036 52.3956C53.3933 55.1527 58.7887 55.7582 59.4779 58.3559C60.1267 61.5185 57.1263 62.5321 54.1637 62.1672C51.9715 61.6807 50.7578 60.5832 49.4197 58.5559L44.4731 61.3968C45.0407 62.6943 45.6895 63.2593 46.6626 64.3946C51.366 69.1412 63.1244 68.8979 65.2355 61.6807C65.3139 61.4374 65.8843 59.775 65.4356 57.2206L65.5599 57.4017ZM41.278 37.8178H35.2015C35.2015 43.0564 35.1772 48.2625 35.1772 53.5092C35.1772 56.8394 35.3475 59.8966 34.8041 60.8373C33.9121 62.6997 31.6145 62.4619 30.5711 62.1348C29.5007 61.605 28.9573 60.8752 28.3275 59.8237C28.1572 59.5398 28.0302 59.2938 27.9842 59.2938L23.0511 62.3348C23.8755 64.0378 25.0784 65.5028 26.63 66.4354C28.9411 67.814 32.047 68.26 35.2988 67.5302C37.4153 66.9193 39.2399 65.6623 40.1941 63.7161C41.5727 61.2022 41.2807 58.1207 41.2672 54.6716C41.2997 49.1194 41.2672 43.5646 41.2672 37.9692L41.278 37.8178Z" fill="#F7DF1E"/>
</svg>
