<svg xmlns="http://www.w3.org/2000/svg" fill="none"  width="54" height="57"  viewBox="0 0 54 57">
  <mask id="path-1-outside-1" width="54" height="49" x="0" y="-.043" fill="#000" maskUnits="userSpaceOnUse">
    <path fill="#fff" d="M0-.043h54v49H0z"/>
    <path d="M26.585 29.525c2.519 0 4.56-2.06 4.56-4.601 0-2.542-2.041-4.602-4.56-4.602-2.519 0-4.56 2.06-4.56 4.602 0 2.541 2.041 4.601 4.56 4.601zM13.81 34.078l-1.007-.259C5.303 31.907 1 28.661 1 24.915c0-3.745 4.303-6.991 11.803-8.904l1.006-.256.284 1.007A50.893 50.893 0 0 0 17 24.46l.215.459-.215.458a50.417 50.417 0 0 0-2.906 7.697l-.284 1.005zm-1.474-15.715c-5.7 1.615-9.2 4.087-9.2 6.552 0 2.463 3.5 4.935 9.2 6.553a53.973 53.973 0 0 1 2.52-6.553 53.532 53.532 0 0 1-2.52-6.552zM39.36 34.078l-.283-1.01a50.52 50.52 0 0 0-2.908-7.694l-.216-.459.216-.458a50.656 50.656 0 0 0 2.908-7.697l.283-1.007 1.009.256c7.498 1.913 11.8 5.159 11.8 8.906 0 3.748-4.302 6.992-11.8 8.904l-1.009.258zm-1.047-9.163a53.49 53.49 0 0 1 2.52 6.553c5.704-1.618 9.2-4.09 9.2-6.553 0-2.465-3.498-4.935-9.2-6.552a53.625 53.625 0 0 1-2.52 6.552z"/>
    <path d="M12.321 18.352l-.283-1.005c-2.109-7.499-1.47-12.873 1.755-14.749 3.161-1.841 8.238.334 13.557 5.843l.725.75-.725.752a50.583 50.583 0 0 0-5.163 6.382l-.288.416-.501.043c-2.721.216-5.42.655-8.07 1.312l-1.007.256zm4.043-14.263c-.572 0-1.077.125-1.503.372-2.12 1.233-2.495 5.518-1.034 11.3 2.272-.51 4.574-.87 6.893-1.077a53.362 53.362 0 0 1 4.375-5.473C21.769 5.943 18.62 4.09 16.364 4.09zm20.444 43.804c-.002 0-.002 0 0 0-3.038 0-6.94-2.309-10.988-6.504l-.725-.75.725-.751a50.531 50.531 0 0 0 5.161-6.385l.288-.415.5-.043a49.972 49.972 0 0 0 8.073-1.31l1.007-.256.285 1.007c2.105 7.494 1.467 12.87-1.757 14.744a5.038 5.038 0 0 1-2.569.663zm-8.733-7.274c3.326 3.268 6.476 5.122 8.731 5.122.57 0 1.079-.124 1.503-.372 2.12-1.232 2.497-5.52 1.034-11.302-2.272.51-4.576.87-6.895 1.077a52.998 52.998 0 0 1-4.373 5.475z"/>
    <path d="M40.849 18.352l-1.007-.256a49.636 49.636 0 0 0-8.074-1.313l-.499-.043-.288-.415a50.285 50.285 0 0 0-5.161-6.382l-.725-.751.725-.751C31.137 2.934 36.21.759 39.377 2.598c3.224 1.876 3.864 7.25 1.757 14.747l-.285 1.007zm-8.4-3.668a52.74 52.74 0 0 1 6.894 1.078c1.463-5.783 1.086-10.068-1.034-11.3-2.106-1.23-6.065.653-10.234 4.75a53.387 53.387 0 0 1 4.373 5.472zM16.363 47.893a5.04 5.04 0 0 1-2.571-.663c-3.224-1.874-3.864-7.248-1.755-14.745l.281-1.006 1.007.256c2.462.626 5.178 1.067 8.07 1.31l.5.043.286.415a50.668 50.668 0 0 0 5.164 6.385l.725.75-.725.751c-4.047 4.195-7.948 6.503-10.982 6.503zm-2.537-13.827c-1.463 5.783-1.085 10.07 1.034 11.303 2.104 1.211 6.061-.656 10.234-4.75a53.695 53.695 0 0 1-4.375-5.475 52.808 52.808 0 0 1-6.893-1.078z"/>
    <path d="M26.585 35.418c-1.755 0-3.558-.078-5.364-.228l-.501-.043-.288-.416a65.47 65.47 0 0 1-2.878-4.565 65.52 65.52 0 0 1-2.486-4.793l-.212-.458.212-.458a65.404 65.404 0 0 1 2.486-4.793 65.456 65.456 0 0 1 2.878-4.565l.288-.415.5-.043c3.571-.306 7.16-.306 10.731 0l.497.043.288.415a64.692 64.692 0 0 1 5.367 9.358l.215.458-.215.459a63.83 63.83 0 0 1-5.367 9.357l-.286.416-.499.043c-1.805.15-3.611.228-5.366.228zm-4.684-2.332c3.155.239 6.213.239 9.37 0a62.539 62.539 0 0 0 4.682-8.17 61.644 61.644 0 0 0-4.684-8.171 61.345 61.345 0 0 0-9.368 0 61.393 61.393 0 0 0-4.684 8.17 62.784 62.784 0 0 0 4.684 8.17z"/>
  </mask>
  <path fill="#61DAFB" d="M26.585 29.525c2.519 0 4.56-2.06 4.56-4.601 0-2.542-2.041-4.602-4.56-4.602-2.519 0-4.56 2.06-4.56 4.602 0 2.541 2.041 4.601 4.56 4.601zM13.81 34.078l-1.007-.259C5.303 31.907 1 28.661 1 24.915c0-3.745 4.303-6.991 11.803-8.904l1.006-.256.284 1.007A50.893 50.893 0 0 0 17 24.46l.215.459-.215.458a50.417 50.417 0 0 0-2.906 7.697l-.284 1.005zm-1.474-15.715c-5.7 1.615-9.2 4.087-9.2 6.552 0 2.463 3.5 4.935 9.2 6.553a53.973 53.973 0 0 1 2.52-6.553 53.532 53.532 0 0 1-2.52-6.552zM39.36 34.078l-.283-1.01a50.52 50.52 0 0 0-2.908-7.694l-.216-.459.216-.458a50.656 50.656 0 0 0 2.908-7.697l.283-1.007 1.009.256c7.498 1.913 11.8 5.159 11.8 8.906 0 3.748-4.302 6.992-11.8 8.904l-1.009.258zm-1.047-9.163a53.49 53.49 0 0 1 2.52 6.553c5.704-1.618 9.2-4.09 9.2-6.553 0-2.465-3.498-4.935-9.2-6.552a53.625 53.625 0 0 1-2.52 6.552z"/>
  <path fill="#61DAFB" d="M12.321 18.352l-.283-1.005c-2.109-7.499-1.47-12.873 1.755-14.749 3.161-1.841 8.238.334 13.557 5.843l.725.75-.725.752a50.583 50.583 0 0 0-5.163 6.382l-.288.416-.501.043c-2.721.216-5.42.655-8.07 1.312l-1.007.256zm4.043-14.263c-.572 0-1.077.125-1.503.372-2.12 1.233-2.495 5.518-1.034 11.3 2.272-.51 4.574-.87 6.893-1.077a53.362 53.362 0 0 1 4.375-5.473C21.769 5.943 18.62 4.09 16.364 4.09zm20.444 43.804c-.002 0-.002 0 0 0-3.038 0-6.94-2.309-10.988-6.504l-.725-.75.725-.751a50.531 50.531 0 0 0 5.161-6.385l.288-.415.5-.043a49.972 49.972 0 0 0 8.073-1.31l1.007-.256.285 1.007c2.105 7.494 1.467 12.87-1.757 14.744a5.038 5.038 0 0 1-2.569.663zm-8.733-7.274c3.326 3.268 6.476 5.122 8.731 5.122.57 0 1.079-.124 1.503-.372 2.12-1.232 2.497-5.52 1.034-11.302-2.272.51-4.576.87-6.895 1.077a52.998 52.998 0 0 1-4.373 5.475z"/>
  <path fill="#61DAFB" d="M40.849 18.352l-1.007-.256a49.636 49.636 0 0 0-8.074-1.313l-.499-.043-.288-.415a50.285 50.285 0 0 0-5.161-6.382l-.725-.751.725-.751C31.137 2.934 36.21.759 39.377 2.598c3.224 1.876 3.864 7.25 1.757 14.747l-.285 1.007zm-8.4-3.668a52.74 52.74 0 0 1 6.894 1.078c1.463-5.783 1.086-10.068-1.034-11.3-2.106-1.23-6.065.653-10.234 4.75a53.387 53.387 0 0 1 4.373 5.472zM16.363 47.893a5.04 5.04 0 0 1-2.571-.663c-3.224-1.874-3.864-7.248-1.755-14.745l.281-1.006 1.007.256c2.462.626 5.178 1.067 8.07 1.31l.5.043.286.415a50.668 50.668 0 0 0 5.164 6.385l.725.75-.725.751c-4.047 4.195-7.948 6.503-10.982 6.503zm-2.537-13.827c-1.463 5.783-1.085 10.07 1.034 11.303 2.104 1.211 6.061-.656 10.234-4.75a53.695 53.695 0 0 1-4.375-5.475 52.808 52.808 0 0 1-6.893-1.078z"/>
  <path fill="#61DAFB" d="M26.585 35.418c-1.755 0-3.558-.078-5.364-.228l-.501-.043-.288-.416a65.47 65.47 0 0 1-2.878-4.565 65.52 65.52 0 0 1-2.486-4.793l-.212-.458.212-.458a65.404 65.404 0 0 1 2.486-4.793 65.456 65.456 0 0 1 2.878-4.565l.288-.415.5-.043c3.571-.306 7.16-.306 10.731 0l.497.043.288.415a64.692 64.692 0 0 1 5.367 9.358l.215.458-.215.459a63.83 63.83 0 0 1-5.367 9.357l-.286.416-.499.043c-1.805.15-3.611.228-5.366.228zm-4.684-2.332c3.155.239 6.213.239 9.37 0a62.539 62.539 0 0 0 4.682-8.17 61.644 61.644 0 0 0-4.684-8.171 61.345 61.345 0 0 0-9.368 0 61.393 61.393 0 0 0-4.684 8.17 62.784 62.784 0 0 0 4.684 8.17z"/>
  <path fill="#61DAFB" d="M13.81 34.078l-.249.968.946.243.265-.94-.963-.271zm-1.007-.259l.249-.968h-.002l-.247.968zm0-17.808l-.246-.969.246.97zm1.006-.256l.963-.27-.264-.94-.945.241.246.97zm.284 1.007l-.963.271.002.006.961-.277zM17 24.46l.905-.425-.001-.002-.904.427zm.215.459l.905.425.2-.425-.2-.426-.905.425zm-.215.458l.904.428.001-.003-.905-.425zm-2.906 7.697l-.961-.276-.001.004.962.272zm-1.757-14.71l.955-.297-.29-.931-.937.266.272.962zm0 13.105l-.273.962.938.266.29-.93-.955-.298zm27.024 2.61l-.962.27.264.94.946-.242-.248-.968zm-.283-1.01l.962-.27-.001-.006-.961.276zm-2.908-7.694l-.905.425.001.003.904-.428zm0-.917l-.904-.428-.001.003.905.425zm2.908-7.697l.96.276.002-.005-.962-.271zm.283-1.007l.246-.969-.944-.24-.264.938.962.271zm1.009.256l.247-.969h-.001l-.246.97zm0 17.81l-.247-.969h-.001l.248.97zm-2.056-8.904l-.907-.419-.193.418.191.418.91-.417zm2.52 6.553l-.956.293.287.936.942-.267-.272-.962zm0-13.105l.274-.962-.938-.267-.29.932.955.297zm-28.512-.011l-.962.271.265.938.944-.24-.247-.97zm-.283-1.005l-.963.27v.002l.963-.272zm1.755-14.749l.503.865-.503-.865zM27.35 8.441l.72-.695-.72.695zm.725.75l.72.695.67-.694-.67-.695-.72.695zm-.725.752l-.719-.695-.004.005.723.69zm-5.163 6.382l.821.57.004-.006-.825-.564zm-.288.416l.085.996.469-.04.268-.387-.822-.57zm-.501.043l.079.996h.006l-.085-.996zm-8.07 1.312l-.24-.97h-.007l.247.97zM14.86 4.46l-.502-.865h-.001l.503.865zm-1.034 11.3l-.97.246.239.944.95-.214-.22-.975zm11.268-6.55l.738.675.65-.712-.688-.676-.7.713zm11.713 38.682l.015-1h-.015v1zM25.82 41.389l.72-.694h-.001l-.72.694zm-.725-.75l-.72-.695-.67.695.67.694.72-.694zm.725-.751l.719.695.005-.005-.724-.69zm5.161-6.385l-.822-.57-.004.007.826.563zm.288-.415l-.086-.996-.468.04-.268.386.822.57zm.5-.043l-.08-.997h-.007l.086.997zm8.073-1.31l.24.97.007-.001-.247-.97zm1.007-.256l.962-.273-.266-.936-.943.24.247.969zm.285 1.007l.963-.27v-.004l-.963.273zM39.377 47.23l.496.869.007-.004-.503-.865zm-11.302-6.61l-.738-.675-.65.712.688.676.7-.714zm10.234 4.75l-.502-.865h-.001l.503.864zm1.034-11.303l.97-.246-.239-.944-.95.214.22.976zm-6.895 1.077l-.089-.996-.465.042-.267.383.821.571zm8.4-16.792l-.246.969.943.24.266-.936-.962-.273zm-1.006-.256l.247-.97h-.006l-.24.97zm-8.074-1.313l-.086.997h.008l.078-.997zm-.499-.043l-.822.57.268.386.468.04.086-.996zm-.288-.415l-.826.564.005.006.821-.57zM25.82 9.943l.723-.69-.004-.005-.72.695zm-.725-.751l-.72-.695-.67.695.67.694.72-.694zm.725-.751l-.72-.695.72.695zm13.557-5.843l.503-.864-.503.864zm1.757 14.747l.962.273.001-.003-.963-.27zm-1.79-1.583l-.223.974.952.218.24-.947-.97-.245zm-1.035-11.3l-.503.863.503-.864zm-10.234 4.75l-.7-.714-.688.675.65.712.738-.674zm-11.711 38.68v-1h-.015l.015 1zm-2.571-.662l-.503.864.007.005.496-.869zm-1.755-14.745l.963.271v-.001l-.963-.27zm.281-1.006l.247-.97-.947-.24-.263.94.963.27zm1.007.256l-.247.969.247-.97zm8.07 1.31l.085-.997h-.002l-.083.997zm.5.043l.824-.567-.267-.39-.47-.04-.086.997zm.286.415l.826-.564-.002-.003-.824.567zm5.164 6.385l-.724.69.005.004.72-.694zm.725.75l.72.695.67-.694-.67-.695-.72.695zm-.725.751l-.72-.694.72.694zm-13.52-7.323l.22-.975-.95-.214-.239.944.97.245zm1.035 11.303l-.503.865.004.002.499-.867zm10.234-4.75l.7.714.688-.675-.65-.713-.738.674zm-4.375-5.475l.82-.572-.267-.382-.464-.042-.09.996zm.5.046l-.085.996h.003l.083-.996zm-.5-.043l-.822.57.268.386.468.04.086-.996zm-.288-.416l-.823.568.001.002.822-.57zm-2.878-4.565l-.868.497v.002l.867-.499zm-2.486-4.793l-.909.42.003.004.905-.424zm0-.916l-.906-.423-.003.005.909.418zm2.486-4.793l-.868-.497.867.497zm2.878-4.565l-.822-.57-.002.003.824.567zm.789-.458l-.085-.996.085.996zm10.73 0l.087-.996h-.001l-.086.996zm.785.458l.823-.568-.001-.001-.822.57zm5.367 9.358l-.906.424v.001l.905-.425zm.215.458l.905.426.2-.426-.2-.425-.905.425zm-.215.459l-.906-.426v.003l.905.422zm-5.367 9.357l-.822-.569-.002.002.824.567zm-.286.416l.086.996.47-.04.268-.39-.824-.566zm-.499.043l.084.996h.002l-.086-.996zm-10.05-2.104l-.828.56.271.4.481.037.076-.997zm9.37 0l.076.997.481-.037.271-.4-.828-.56zm-.002-16.341l.827-.562-.27-.399-.48-.036-.077.997zm-9.368 0l-.076-.997-.48.037-.271.397.827.563zm-4.684 8.17l-.903-.43-.205.431.205.43.903-.43zm12.929.009c0 1.997-1.603 3.601-3.56 3.601v2c3.079 0 5.56-2.516 5.56-5.601h-2zm-3.56 3.601c-1.959 0-3.561-1.604-3.561-3.601h-2c0 3.085 2.48 5.601 5.56 5.601v-2zm-3.561-3.601c0-1.998 1.602-3.602 3.56-3.602v-2c-3.08 0-5.56 2.517-5.56 5.602h2zm3.56-3.602c1.958 0 3.56 1.604 3.56 3.602h2c0-3.085-2.48-5.602-5.56-5.602v2zM14.058 33.11l-1.006-.258-.497 1.937 1.006.258.497-1.937zm-1.008-.259c-3.678-.938-6.49-2.184-8.359-3.594C2.823 27.847 2 26.363 2 24.916H0c0 2.297 1.328 4.308 3.487 5.937 2.157 1.627 5.247 2.96 9.07 3.935l.493-1.938zM2 24.915c0-1.447.823-2.932 2.691-4.34 1.87-1.41 4.68-2.657 8.36-3.595l-.495-1.938c-3.822.975-6.912 2.308-9.07 3.936C1.329 20.606 0 22.618 0 24.915h2zm11.05-7.934l1.006-.257-.493-1.938-1.006.256.493 1.938zm-.203-.955l.284 1.007 1.925-.542-.284-1.007-1.925.542zm.285 1.013a51.896 51.896 0 0 0 2.963 7.848l1.808-.855a49.897 49.897 0 0 1-2.849-7.546l-1.922.553zm2.962 7.846l.215.458 1.81-.85-.215-.459-1.81.85zm.215-.393l-.215.458 1.81.851.215-.458-1.81-.85zm-.213.455a51.427 51.427 0 0 0-2.964 7.85l1.922.552a49.417 49.417 0 0 1 2.849-7.545l-1.807-.857zm-2.965 7.854l-.284 1.005 1.925.543.284-1.005-1.925-.543zm-1.067-15.4c-2.915.826-5.332 1.887-7.045 3.104-1.675 1.191-2.883 2.686-2.883 4.41h2c0-.74.543-1.714 2.042-2.78 1.462-1.039 3.644-2.02 6.43-2.81l-.544-1.924zm-9.928 7.514c0 1.724 1.208 3.218 2.883 4.409 1.713 1.217 4.13 2.279 7.044 3.106l.546-1.924c-2.786-.79-4.97-1.773-6.431-2.812-1.5-1.066-2.042-2.039-2.042-2.779h-2zm11.155 6.85a52.951 52.951 0 0 1 2.473-6.43l-1.816-.839a54.985 54.985 0 0 0-2.566 6.675l1.909.595zm2.473-7.27a52.535 52.535 0 0 1-2.473-6.43l-1.91.595a54.53 54.53 0 0 0 2.568 6.675l1.815-.84zm24.559 9.312l-.284-1.009-1.925.541.284 1.01 1.925-.542zm-.285-1.015a51.514 51.514 0 0 0-2.966-7.847l-1.807.857a49.529 49.529 0 0 1 2.85 7.543l1.923-.553zm-2.964-7.844l-.216-.458-1.81.85.216.459 1.81-.85zm-.216.393l.216-.459-1.81-.85-.216.458 1.81.85zm.214-.456a51.656 51.656 0 0 0 2.966-7.849l-1.922-.552a49.663 49.663 0 0 1-2.851 7.545l1.807.856zm2.967-7.854l.284-1.007-1.925-.542-.284 1.007 1.925.542zm-.925-.308l1.009.256.492-1.939-1.009-.256-.492 1.938zm1.008.255c3.677.938 6.488 2.184 8.357 3.594 1.867 1.41 2.69 2.895 2.69 4.343h2c0-2.298-1.327-4.31-3.485-5.94-2.158-1.627-5.247-2.96-9.068-3.935l-.494 1.938zm11.048 7.937c0 1.449-.824 2.934-2.691 4.342-1.869 1.41-4.68 2.655-8.357 3.593l.494 1.938c3.821-.974 6.91-2.307 9.068-3.934 2.158-1.629 3.486-3.64 3.486-5.939h-2zm-11.05 7.936l-1.008.258.496 1.937 1.009-.258-.496-1.937zm-2.716-7.52a52.471 52.471 0 0 1 2.473 6.43l1.913-.586a54.488 54.488 0 0 0-2.567-6.676l-1.819.833zm3.702 7.1c2.916-.828 5.333-1.89 7.046-3.107 1.675-1.19 2.881-2.685 2.881-4.409h-2c0 .74-.541 1.713-2.04 2.779-1.462 1.039-3.645 2.021-6.432 2.812l.545 1.924zm9.927-7.516c0-1.724-1.207-3.219-2.882-4.409-1.713-1.217-4.13-2.278-7.044-3.105l-.546 1.924c2.786.79 4.97 1.773 6.431 2.811 1.5 1.066 2.041 2.038 2.041 2.78h2zm-11.154-6.85a52.616 52.616 0 0 1-2.473 6.431l1.815.839c1-2.166 1.858-4.396 2.567-6.675l-1.91-.594zm-26.595.015L13 17.076l-1.925.543.284 1.005 1.925-.544zM13 17.077c-1.034-3.68-1.37-6.757-1.091-9.095.278-2.337 1.145-3.797 2.386-4.52L13.29 1.735c-1.982 1.153-3.047 3.319-3.367 6.012-.32 2.693.078 6.052 1.152 9.872l1.926-.541zm1.296-13.615c1.2-.698 2.896-.716 5.071.22 2.166.932 4.66 2.756 7.264 5.454l1.439-1.39c-2.715-2.81-5.42-4.83-7.912-5.901-2.484-1.07-4.907-1.253-6.869-.11l1.007 1.727zM26.63 9.136l.725.75 1.439-1.389-.725-.75-1.439 1.389zm.725-.639l-.725.751 1.439 1.39.725-.752-1.439-1.389zm-.73.756a51.572 51.572 0 0 0-5.265 6.508l1.651 1.128a49.58 49.58 0 0 1 5.062-6.256l-1.447-1.38zm-5.261 6.503l-.288.415 1.644 1.14.287-.416-1.643-1.14zm.448-.012l-.5.043.17 1.993.501-.043-.17-1.993zm-.495.043c-2.775.22-5.528.668-8.23 1.338l.48 1.941a49.034 49.034 0 0 1 7.909-1.286l-.159-1.993zm-8.237 1.34l-1.006.256.493 1.938 1.006-.256-.493-1.938zm3.283-14.038c-.719 0-1.403.158-2.005.507l1.004 1.73c.25-.145.577-.237 1-.237v-2zm-2.006.508c-1.487.865-2.167 2.667-2.353 4.718-.19 2.1.106 4.737.852 7.692l1.94-.49c-.715-2.828-.962-5.225-.8-7.022.167-1.844.735-2.802 1.367-3.17l-1.006-1.728zm-.312 13.14a52.13 52.13 0 0 1 6.763-1.057l-.179-1.992a54.12 54.12 0 0 0-7.022 1.098l.438 1.951zm7.494-1.481a52.369 52.369 0 0 1 4.293-5.37l-1.477-1.35a54.378 54.378 0 0 0-4.457 5.576l1.641 1.144zm4.256-6.758c-1.704-1.674-3.388-3.011-4.962-3.936-1.558-.914-3.09-1.473-4.47-1.473v2c.875 0 2.045.369 3.457 1.198 1.396.82 2.95 2.044 4.573 3.638l1.402-1.427zm11.012 38.395h-.001v2h.001v-2h-.001v2h.001v-2zm0 0c-1.276 0-2.833-.49-4.606-1.54-1.764-1.043-3.682-2.606-5.663-4.658L25.1 42.084c2.068 2.143 4.125 3.832 6.084 4.99 1.949 1.154 3.862 1.819 5.624 1.819v-2zM26.54 40.695l-.725-.75-1.439 1.388.725.751 1.439-1.39zm-.725.638l.725-.75-1.439-1.39-.725.751 1.44 1.39zm.73-.755a51.535 51.535 0 0 0 5.264-6.512l-1.653-1.127a49.509 49.509 0 0 1-5.06 6.259l1.449 1.38zm5.26-6.505l.287-.416-1.644-1.139-.287.415 1.643 1.14zm-.449.011l.499-.043-.172-1.992-.499.043.172 1.992zm.492-.042a50.984 50.984 0 0 0 8.236-1.337l-.481-1.941a48.968 48.968 0 0 1-7.913 1.284l.158 1.994zm8.242-1.338l1.006-.256-.493-1.939-1.006.256.493 1.939zm-.202-.952l.285 1.006 1.924-.546-.285-1.006-1.924.546zm.285 1.004c1.032 3.677 1.367 6.754 1.089 9.091-.278 2.338-1.145 3.797-2.386 4.518l1.005 1.73c1.983-1.153 3.046-3.319 3.367-6.011.32-2.693-.078-6.051-1.15-9.869l-1.925.54zm-1.29 13.605a4.039 4.039 0 0 1-2.06.532l-.028 2a6.038 6.038 0 0 0 3.079-.794l-.991-1.737zm-11.507-5.028c1.704 1.674 3.387 3.01 4.96 3.935 1.559.915 3.09 1.473 4.471 1.473v-2c-.875 0-2.045-.368-3.457-1.198-1.396-.82-2.95-2.044-4.573-3.637l-1.401 1.427zm9.431 5.408c.715 0 1.405-.157 2.007-.508l-1.007-1.728c-.247.144-.576.236-1 .236v2zm2.006-.507c1.487-.865 2.168-2.668 2.354-4.72.19-2.1-.106-4.738-.853-7.693l-1.94.49c.716 2.828.963 5.226.8 7.023-.166 1.845-.735 2.803-1.367 3.17l1.006 1.73zm.312-13.143c-2.23.501-4.49.854-6.765 1.057l.178 1.992c2.363-.21 4.71-.577 7.026-1.098l-.439-1.951zm-7.497 1.482a52 52 0 0 1-4.29 5.372l1.477 1.349a53.992 53.992 0 0 0 4.455-5.578l-1.642-1.143zm9.468-17.19l-1.006-.256-.493 1.938 1.006.256.493-1.938zm-1.012-.258a50.66 50.66 0 0 0-8.236-1.338l-.157 1.993c2.667.21 5.313.64 7.911 1.286l.482-1.94zm-8.229-1.338l-.499-.043-.172 1.993.5.043.171-1.993zm.237.384l-.288-.415-1.643 1.139.287.415 1.644-1.14zm-.283-.409a51.279 51.279 0 0 0-5.265-6.51l-1.447 1.38a49.279 49.279 0 0 1 5.06 6.257l1.652-1.127zm-5.269-6.514l-.725-.75-1.439 1.388.725.751 1.439-1.39zm-.725.638l.725-.75-1.439-1.39-.725.751 1.44 1.39zm.725-.75c2.604-2.697 5.096-4.52 7.261-5.453 2.175-.935 3.873-.919 5.075-.22l1.005-1.73c-1.964-1.14-4.386-.956-6.87.113-2.492 1.072-5.196 3.09-7.91 5.9l1.439 1.39zm12.335-5.673c1.242.722 2.11 2.182 2.388 4.519s-.057 5.414-1.09 9.092l1.925.541c1.073-3.819 1.471-7.177 1.15-9.87-.32-2.692-1.385-4.858-3.367-6.011l-1.006 1.728zm1.298 13.609l-.285 1.007 1.924.546.285-1.007-1.924-.546zm-7.815-1.392c2.394.22 4.663.577 6.764 1.056l.445-1.95a53.74 53.74 0 0 0-7.026-1.098l-.183 1.992zm7.956.327c.747-2.955 1.043-5.592.852-7.692-.185-2.052-.866-3.853-2.353-4.718l-1.005 1.729c.632.367 1.2 1.325 1.367 3.17.162 1.796-.085 4.193-.8 7.02l1.939.49zm-1.5-12.41c-1.492-.87-3.411-.532-5.27.337-1.912.893-4.036 2.468-6.168 4.564l1.401 1.426c2.035-2 3.976-3.413 5.613-4.179 1.688-.789 2.802-.779 3.417-.42l1.007-1.728zM27.337 9.885a52.37 52.37 0 0 1 4.29 5.37l1.642-1.143a54.37 54.37 0 0 0-4.455-5.575l-1.477 1.348zM16.349 46.893a4.039 4.039 0 0 1-2.06-.532l-.992 1.738c.939.535 2.002.81 3.081.793l-.029-2zm-2.054-.528c-1.241-.721-2.108-2.18-2.386-4.517-.279-2.337.057-5.414 1.091-9.092l-1.925-.541c-1.074 3.819-1.473 7.177-1.152 9.87.32 2.692 1.385 4.857 3.367 6.01l1.005-1.73zm-1.294-13.61l.281-1.007-1.926-.539-.281 1.007 1.926.539zm-.928-.307l1.006.256.493-1.939-1.006-.256-.493 1.939zm1.006.256c2.523.641 5.294 1.09 8.233 1.337l.167-1.993c-2.843-.239-5.505-.672-7.907-1.283l-.493 1.939zm8.231 1.337l.501.043.171-1.993-.5-.043-.172 1.993zm-.237-.386l.285.415 1.648-1.134-.286-.415-1.647 1.134zm.283.412a51.678 51.678 0 0 0 5.266 6.51l1.448-1.379a49.683 49.683 0 0 1-5.062-6.259l-1.652 1.128zm5.27 6.515l.726.751 1.439-1.389-.725-.75-1.44 1.388zm.726-.638l-.725.75 1.439 1.39.725-.75-1.44-1.39zm-.726.751c-1.979 2.052-3.897 3.615-5.66 4.658-1.773 1.05-3.328 1.54-4.602 1.54v2c1.76 0 3.672-.665 5.62-1.819 1.958-1.158 4.015-2.847 6.082-4.99l-1.44-1.389zm-13.769-6.874c-.747 2.955-1.043 5.593-.852 7.693.185 2.052.866 3.854 2.353 4.72l1.005-1.73c-.631-.367-1.2-1.325-1.367-3.17-.162-1.797.085-4.195.8-7.022l-1.939-.49zm1.505 12.415c1.488.857 3.403.52 5.263-.346 1.91-.891 4.035-2.462 6.17-4.557l-1.4-1.428c-2.038 1.999-3.978 3.409-5.615 4.172-1.689.788-2.805.78-3.42.425l-.998 1.734zm11.472-6.29a52.676 52.676 0 0 1-4.294-5.374l-1.64 1.144a54.706 54.706 0 0 0 4.456 5.577l1.477-1.348zm-5.025-5.798a51.8 51.8 0 0 1-6.763-1.057l-.439 1.951a53.82 53.82 0 0 0 7.024 1.098l.178-1.992zm5.776.27c-1.726 0-3.502-.077-5.281-.225l-.166 1.993c1.832.153 3.663.232 5.447.232v-2zm-5.279-.225l-.5-.043-.172 1.993.501.043.171-1.993zm.235.384l-.287-.415-1.644 1.14.288.414 1.643-1.14zm-.286-.413a64.484 64.484 0 0 1-2.834-4.496l-1.735.997a66.465 66.465 0 0 0 2.923 4.634l1.646-1.135zm-2.833-4.494a64.51 64.51 0 0 1-2.449-4.72l-1.811.847a66.537 66.537 0 0 0 2.524 4.866l1.736-.993zm-2.446-4.715l-.212-.458-1.816.837.211.458 1.817-.837zm-.211.379l.21-.459-1.816-.836-.21.458 1.816.837zm.208-.453a64.348 64.348 0 0 1 2.449-4.72l-1.736-.994a66.381 66.381 0 0 0-2.524 4.867l1.811.847zm2.448-4.72a64.47 64.47 0 0 1 2.834-4.495l-1.647-1.134a66.441 66.441 0 0 0-2.922 4.635l1.735.994zm2.833-4.492l.287-.415-1.643-1.14-.288.415 1.644 1.14zm-.449.011l.501-.043-.17-1.992-.502.043.171 1.992zm.501-.043c3.514-.3 7.046-.3 10.56 0l.17-1.992a63.945 63.945 0 0 0-10.9 0l.17 1.992zm10.56 0l.496.043.172-1.992-.496-.043-.173 1.992zm-.24-.384l.288.416 1.644-1.14-.288-.415-1.644 1.14zm.287.414a63.705 63.705 0 0 1 5.284 9.214l1.811-.847a65.694 65.694 0 0 0-5.449-9.503l-1.646 1.136zm5.284 9.215l.216.459 1.81-.851-.215-.458-1.81.85zm.216-.392l-.216.458 1.81.85.216-.457-1.81-.851zm-.217.461a62.832 62.832 0 0 1-5.282 9.211l1.644 1.138a64.824 64.824 0 0 0 5.45-9.504l-1.812-.845zm-5.284 9.213l-.285.416 1.647 1.133.286-.415-1.648-1.134zm.452-.014l-.498.043.171 1.993.5-.043-.173-1.993zm-.496.043c-1.78.148-3.557.225-5.283.225v2c1.784 0 3.617-.08 5.45-.232l-.167-1.993zm-10.043-.11c3.206.242 6.314.242 9.522 0l-.151-1.994a60.373 60.373 0 0 1-9.22 0l-.15 1.994zm10.274-.436a63.532 63.532 0 0 0 4.757-8.301l-1.805-.861a61.53 61.53 0 0 1-4.607 8.04l1.655 1.122zm4.757-9.161a62.64 62.64 0 0 0-4.76-8.303l-1.654 1.124a60.644 60.644 0 0 1 4.608 8.038l1.806-.86zm-5.51-8.738a62.342 62.342 0 0 0-9.521 0l.152 1.994a60.346 60.346 0 0 1 9.216 0l.152-1.994zm-10.272.434a62.39 62.39 0 0 0-4.76 8.304l1.806.859a60.392 60.392 0 0 1 4.608-8.038l-1.654-1.125zm-4.76 9.164a63.773 63.773 0 0 0 4.76 8.3l1.655-1.121a61.767 61.767 0 0 1-4.61-8.04l-1.805.861z" mask="url(#path-1-outside-1)"/>
</svg>