<svg xmlns="http://www.w3.org/2000/svg" fill="none" viewBox="0 0 68 67">
  <path fill="url(#paint0_linear)" d="M33.4.3c-17 0-15.9 7.3-15.9 7.3v7.6h16.2v2.3H11.1S.3 16.3.3 33.5c0 17 9.4 16.4 9.4 16.4h5.7v-8s-.3-9.4 9.3-9.4h16s9 .2 9-8.7V9S51.2.3 33.5.3zm-8.9 5.1a3 3 0 013 3 3 3 0 01-3 2.8 3 3 0 01-3-2.9 3 3 0 013-2.9z"/>
  <path fill="url(#paint1_linear)" d="M33.9 66.7c17 0 15.9-7.3 15.9-7.3v-7.6H33.6v-2.3h22.6S67 50.7 67 33.5c0-17-9.4-16.4-9.4-16.4h-5.7v8s.3 9.4-9.3 9.4h-16s-9-.2-9 8.7V58s-1.4 8.8 16.3 8.8zm9-5.1a3 3 0 01-3-3 3 3 0 013-2.8 3 3 0 012.8 2.9 3 3 0 01-2.9 2.9z"/>
  <defs>
    <linearGradient id="paint0_linear" x1="6.7" x2="39.8" y1="6.3" y2="39" gradientUnits="userSpaceOnUse">
      <stop stop-color="#387EB8"/>
      <stop offset="1" stop-color="#366994"/>
    </linearGradient>
    <linearGradient id="paint1_linear" x1="27" x2="62.6" y1="27.3" y2="60.9" gradientUnits="userSpaceOnUse">
      <stop stop-color="#FFE052"/>
      <stop offset="1" stop-color="#FFC331"/>
    </linearGradient>
  </defs>
</svg>