<svg xmlns="http://www.w3.org/2000/svg" fill="none" viewBox="0 0 621 388">
  <style>
  @import url(&quot;https://fonts.googleapis.com/css?family=Roboto&quot;);
    text{font-family:Roboto,sans-serif;}
  </style>
  <rect width="577.521" height="370.588" x="21.16" y="2" fill="#000" stroke="url(#paint0_linear)" stroke-width="4" rx="9"/>
  <path fill="url(#paint1_linear)" d="M0 373.63h620.8v7.664H0z"/>
  <path fill="#C4C4C4" d="M0 380.336h620.8a7.664 7.664 0 0 1-7.664 7.664H7.664A7.664 7.664 0 0 1 0 380.336z"/>
  <mask id="mask0" width="533" height="337" x="44" y="21" mask-type="alpha" maskUnits="userSpaceOnUse">
    <path fill="#C4C4C4" d="M44 21h533v337H44z"/>
  </mask>
  <g mask="url(#mask0)">
    <path fill="#F5EFEA" d="M39 42h545v337H39z"/>
    <path fill="#F7F7F7" d="M76 190h478v696H76z"/>
    <path fill="#333" d="M39 28h551v195H39z"/>
    <text fill="#fff" font-family="Roboto" font-size="18" letter-spacing="-.02em" white-space="pre" xml:space="preserve">
      <tspan x="234" y="82.699">Your First Week With Bootstrap</tspan>
    </text>
    <text fill="#fff" font-family="Roboto" font-size="10" font-weight="300" letter-spacing="0em" white-space="pre" xml:space="preserve">
      <tspan x="234" y="118.277">Bootstrap stands as one of the most popular, open-source, front-end </tspan><tspan x="234" y="135.855">frameworks on the Web. In this book we’ll take you through Bootstrap </tspan><tspan x="234" y="153.434">basics, introduce you to its major features, and get you building your </tspan><tspan x="234" y="171.012">first Bootstrap sites.</tspan>
    </text>
    <path fill="#000" d="M590 21H39v22h551V21z"/>
    <text fill="#F5EFEA" font-family="Roboto" font-size="9" letter-spacing="0em" white-space="pre" xml:space="preserve">
      <tspan x="510.039" y="35.405">Dashboard</tspan>
    </text>
    <text fill="#F5EFEA" font-family="Roboto" font-size="9" letter-spacing="0em" white-space="pre" xml:space="preserve">
      <tspan x="452.242" y="35.405">Library</tspan>
    </text>
    <text fill="#F5EFEA" font-family="Roboto" font-size="11" letter-spacing="0em" white-space="pre" xml:space="preserve">
      <tspan x="77.531" y="37.116">Your First Week with Bootstrap</tspan>
    </text>
    <path fill="#F5EFEA" d="M436.829 27.748h-1.927v.958h1.927v-.958zM439.82 28.869l2.791-.748 2.035 7.514-2.791.747-2.035-7.513zM436.829 29.664h-1.927v4.79h1.927v-4.79zM439.719 29.664h-1.927v4.79h1.927v-4.79zM436.829 35.412h-1.927v.958h1.927v-.958zM437.792 35.412h1.927v.958h-1.927v-.958zM437.792 27.748h1.927v.958h-1.927v-.958z"/>
    <path fill="#F5EFEA" fill-rule="evenodd" d="M406.575 34.594h3.132l.601 1.776h1.899l-3.244-8.622h-1.656l-3.227 8.622h1.899l.596-1.776zm2.649-1.44h-2.167l1.078-3.227 1.089 3.228z" clip-rule="evenodd"/>
    <path fill="#F5EFEA" d="M415.124 28.652h-1.109v1.103h-1.108v1.103h1.108v1.102h1.109v-1.102h1.108v-1.103h-1.108v-1.102zM416.232 33.063h-3.325v1.102h3.325v-1.102zM500.406 27.706h-.963v.958h-3.853v.958h3.853v.958h.963v-.958h3.853v-.958h-3.853v-.958zM504.259 31.538h-1.926v-.958h-.964v.958h-5.779v.958h5.779v.958h.964v-.958h1.926v-.958zM504.259 35.37v-.958h-5.779v-.958h-.964v.958h-1.926v.958h1.926v.958h.964v-.958h5.779z"/>
    <path fill="#222" d="M589.99 207H39v21.076h550.99V207z"/>
    <text fill="#F5EFEA" font-family="Roboto" font-size="9" letter-spacing="0em" white-space="pre" xml:space="preserve">
      <tspan x="93.199" y="220.447">Chapters</tspan>
    </text>
    <path fill="#fff" d="M137.733 220.412l-.963-.958 3.852-3.832 3.853 3.832-.963.958-2.89-2.874-2.889 2.874z"/>
    <text fill="#F5EFEA" font-family="Roboto" font-size="9" letter-spacing="0em" white-space="pre" xml:space="preserve">
      <tspan x="168.225" y="220.447">My Bookmarks</tspan>
    </text>
    <path fill="#fff" d="M236.471 220.412l-.963-.958 3.853-3.832 3.853 3.832-.963.958-2.89-2.874-2.89 2.874z"/>
    <text fill="#F5EFEA" font-family="Roboto" font-size="9" letter-spacing="0em" white-space="pre" xml:space="preserve">
      <tspan x="281" y="220.315">Add Bookmarks</tspan>
    </text>
    <path fill="#fff" d="M267.59 213.965c0-.552.449-1 1.005-1h4.732c.555 0 1.006.448 1.006 1v7.623l-3.372-2.156-3.371 2.156v-7.623z"/>
    <path stroke="#5F5F5F" stroke-width=".5" d="M254.172 209.832v15.328M155.953 209.832v15.328"/>
    <path fill="#455266" d="M420.811 328h35.668v-8.954h-22.422c.444-.74 1.184-1.554 2.146-2.368a25.35 25.35 0 0 1 3.034-2.368c1.11-.74 2.22-1.48 3.404-2.146a91.309 91.309 0 0 0 3.034-1.702 98.884 98.884 0 0 0 3.33-1.998c1.184-.74 2.22-1.702 3.256-2.738a15.121 15.121 0 0 0 2.442-3.552c.592-1.332.962-2.812.962-4.588 0-1.776-.37-3.478-1.11-5.032a11.684 11.684 0 0 0-3.108-3.996c-1.332-1.11-3.034-1.998-4.958-2.59a23.466 23.466 0 0 0-6.734-.962c-2.22 0-4.366.296-6.29.74-1.924.444-3.7 1.036-5.328 1.776-1.628.74-2.96 1.48-4.144 2.294-1.184.814-2.146 1.554-2.738 2.22l6.364 7.326c.592-.74 1.184-1.406 1.924-2.072.74-.666 1.48-1.258 2.368-1.85.888-.518 1.776-.962 2.812-1.258.962-.296 2.072-.518 3.256-.518 2.22 0 3.922.592 5.106 1.628 1.184 1.036 1.776 2.294 1.776 3.774 0 .962-.296 1.776-.814 2.516-.592.74-1.332 1.406-2.368 2.072-1.036.74-2.368 1.48-3.922 2.294-1.554.814-3.33 1.776-5.328 2.812-2.368 1.332-4.292 2.59-5.772 3.922a18.876 18.876 0 0 0-3.552 4.292 15.134 15.134 0 0 0-1.776 5.032c-.37 1.776-.518 3.774-.518 5.994z"/>
    <path fill="#9AB" d="M415.371 267.68c0 .552.096 1.08.3 1.608s.492.996.852 1.404c.36.408.804.744 1.308.996.504.264 1.056.384 1.668.384.336 0 .696-.036 1.056-.132.36-.084.696-.216 1.008-.384.312-.168.6-.372.852-.612a2.64 2.64 0 0 0 .588-.852l-1.356-.78a1.908 1.908 0 0 1-.912.996 2.21 2.21 0 0 1-.588.228 2.722 2.722 0 0 1-.6.072c-.372 0-.708-.072-1.02-.24a2.41 2.41 0 0 1-.792-.636 2.926 2.926 0 0 1-.504-.912 3.309 3.309 0 0 1-.18-1.092c0-.336.048-.672.156-1.008.096-.336.252-.648.456-.912.204-.264.456-.492.768-.66.312-.168.672-.252 1.092-.252a2.758 2.758 0 0 1 1.164.276c.18.096.348.228.516.396.156.168.288.36.408.6l1.272-.876a3.362 3.362 0 0 0-1.284-1.344c-.576-.336-1.248-.516-2.028-.516-.672 0-1.26.132-1.776.372-.528.252-.96.576-1.32.972-.36.408-.636.864-.828 1.368a4.284 4.284 0 0 0-.276 1.536zM429.802 272v-3.924c0-.312-.036-.612-.084-.912a2.52 2.52 0 0 0-.3-.792 1.667 1.667 0 0 0-.6-.552c-.264-.144-.588-.216-.996-.216-.48 0-.924.12-1.32.336a2.342 2.342 0 0 0-.936.936v-3.636h-1.608V272h1.608v-3.672a1.56 1.56 0 0 1 .264-.528c.12-.156.252-.288.396-.408a1.78 1.78 0 0 1 .456-.276c.156-.06.312-.096.456-.096.336 0 .588.12.78.36.18.24.276.6.276 1.092V272h1.608zM432.916 272.12c.456 0 .876-.096 1.284-.288a2.841 2.841 0 0 0 1.02-.84l.036.348a.815.815 0 0 0 .3.54c.168.144.396.204.708.204.192 0 .432-.024.708-.084v-1.368c-.144 0-.24-.048-.3-.12s-.084-.192-.084-.36v-1.956c0-.84-.252-1.476-.756-1.92-.504-.444-1.2-.672-2.1-.672-.936 0-1.812.276-2.616.804l.492 1.02c.336-.228.66-.408.984-.528.312-.12.648-.18.984-.18.456 0 .804.12 1.044.336.24.228.36.552.36.96v.36a3.915 3.915 0 0 0-.72-.204 4.586 4.586 0 0 0-.816-.072c-.396 0-.756.06-1.08.156a2.81 2.81 0 0 0-.852.408c-.24.18-.42.396-.552.648a1.739 1.739 0 0 0-.192.816c0 .288.048.552.156.792a1.997 1.997 0 0 0 1.14 1.056c.264.096.54.144.852.144zm.456-1.176c-.312 0-.564-.084-.768-.264a.841.841 0 0 1-.312-.684c0-.288.132-.516.396-.708.264-.192.6-.288 1.02-.288.204 0 .42.024.648.072.216.048.432.096.624.168v.72c0 .168-.096.324-.264.456a1.43 1.43 0 0 1-.576.384c-.24.096-.504.144-.768.144zM441.858 272.12c.396 0 .768-.084 1.104-.252.336-.168.624-.396.864-.696.24-.288.432-.636.576-1.044.132-.396.204-.828.204-1.284a3.65 3.65 0 0 0-.228-1.248 3.06 3.06 0 0 0-.612-1.032 2.933 2.933 0 0 0-.924-.696 2.767 2.767 0 0 0-1.176-.264c-.48 0-.912.108-1.272.324a2.586 2.586 0 0 0-.9.864v-1.08h-1.404v8.844h1.608v-3.66c.204.384.492.684.864.9.36.216.792.324 1.296.324zm-.54-1.368c-.348 0-.672-.108-.96-.348-.3-.24-.516-.54-.66-.9v-1.476c.048-.144.132-.288.24-.42.108-.12.228-.24.372-.336a1.39 1.39 0 0 1 .444-.216c.156-.048.312-.084.468-.084a1.666 1.666 0 0 1 1.236.54c.156.168.276.372.372.6.084.228.132.468.132.732 0 .252-.048.492-.12.72-.084.24-.192.444-.336.612-.144.18-.324.324-.528.42-.204.108-.42.156-.66.156zM449.382 271.676l-.324-1.272a2.637 2.637 0 0 1-.384.144c-.168.06-.324.084-.492.084a.662.662 0 0 1-.432-.132c-.12-.096-.168-.252-.168-.48v-3.072h1.32v-1.236h-1.32v-2.04h-1.608v2.04h-.828v1.236h.828v3.612c0 .288.036.528.132.72.084.192.204.36.348.48s.324.216.516.264c.192.06.408.084.636.084.336 0 .672-.048.984-.144.312-.096.576-.192.792-.288zM452.983 272.12c.696 0 1.308-.144 1.812-.456.504-.312.876-.708 1.116-1.188l-1.38-.384c-.108.264-.3.468-.588.624a1.858 1.858 0 0 1-.9.228c-.216 0-.408-.036-.6-.108a1.418 1.418 0 0 1-.516-.312 1.524 1.524 0 0 1-.372-.492 1.843 1.843 0 0 1-.18-.66h4.86c.012-.06.024-.144.024-.24s.012-.192.012-.3c0-.42-.084-.828-.228-1.224a3.002 3.002 0 0 0-.648-1.032 3.354 3.354 0 0 0-1.032-.708 3.563 3.563 0 0 0-1.368-.264c-.516 0-.984.096-1.392.264-.408.18-.756.42-1.044.72-.288.3-.516.648-.66 1.044a3.402 3.402 0 0 0-.228 1.26c0 .432.072.852.228 1.236.156.396.384.744.672 1.032.288.3.636.54 1.044.708.408.168.864.252 1.368.252zm1.632-3.792h-3.264c.012-.228.06-.444.156-.636a1.86 1.86 0 0 1 .36-.492c.144-.132.3-.24.492-.312.192-.072.396-.12.612-.12.432 0 .804.144 1.116.432.312.288.48.66.528 1.128zM460.995 267.104v-1.464c-.048 0-.084-.012-.132-.012h-.192c-.168 0-.348.036-.528.108-.18.072-.36.168-.528.288-.18.132-.348.288-.492.456-.156.168-.288.36-.396.576v-1.344h-1.476V272h1.608v-3.804c.168-.36.444-.624.828-.804.384-.18.816-.276 1.308-.288z"/>
    <text fill="#333" font-family="Raleway" font-size="14" font-weight="bold" letter-spacing="0em" white-space="pre" xml:space="preserve">
      <tspan x="154.744" y="276.16">Understanding Bootstrap: How it </tspan><tspan x="215.939" y="295.719">Works, and What’s New</tspan>
    </text>
    <text fill="#9AB" font-family="Raleway" font-size="13" font-weight="bold" letter-spacing="0em" white-space="pre" xml:space="preserve">
      <tspan x="254.093" y="314.22">Syed Fazel Rahman</tspan>
    </text>
    <path fill="#553D7C" d="M93 58h106v134H93z"/>
    <path fill="#BEBDBB" d="M112.824 140.846V130.37L102 130.001v.027l10.824 10.818z"/>
    <path fill="url(#paint2_linear)" d="M102 130l.369 10.845h10.455v-.027L102 130z"/>
    <path fill="url(#paint3_linear)" d="M112.81 140.831h10.483l.369-10.817h-.028l-10.824 10.817z"/>
    <path fill="#CDC8C5" d="M123.663 130.014l-10.852.369v10.448h.027l10.825-10.817z"/>
    <path fill="url(#paint4_linear)" d="M112.838 140.817v10.477l10.824.369v-.028l-10.824-10.818z"/>
    <path fill="#EFEFED" d="M123.662 151.663l-.369-10.846h-10.455v.028l10.824 10.818z"/>
    <path fill="#F0EEF1" d="M112.852 140.831h-10.483L102 151.649h.028l10.824-10.818z"/>
    <path fill="url(#paint5_linear)" d="M102.001 151.649l10.853-.369v-10.449h-.028l-10.825 10.818z"/>
    <path fill="#EFEFED" d="M144.596 141.614v-6.043c-3.343-1.99-5.476-2.725-9.596-3.571v.025l9.596 9.589z"/>
    <path fill="url(#paint6_linear)" d="M135 132c1.076 4.228 1.777 6.453 3.571 9.614h6.025v-.025L135 132z"/>
    <path fill="url(#paint7_linear)" d="M144.585 141.602h6.049c2.068-3.251 2.778-5.403 3.571-9.59h-.025l-9.595 9.59z"/>
    <path fill="#F5F5F5" d="M154.204 132.012c-3.965.728-6.122 1.334-9.62 3.441v6.149h.025l9.595-9.59z"/>
    <path fill="url(#paint8_linear)" d="M144.609 141.59v6.302c3.379 1.854 5.599 2.397 9.596 3.312v-.025l-9.596-9.589z"/>
    <path fill="url(#paint9_linear)" d="M154.205 151.204c-1.17-4.673-1.871-7.109-3.571-9.614h-6.025v.024l9.596 9.59z"/>
    <path fill="#F0EEF1" d="M144.62 141.602h-6.179c-1.951 3.153-2.541 5.412-3.441 9.589h.025l9.595-9.589z"/>
    <path fill="url(#paint10_linear)" d="M135.001 151.191c3.85-.937 6.034-1.365 9.62-3.311v-6.278h-.024l-9.596 9.589z"/>
    <path fill="url(#paint11_linear)" d="M175.676 134.5l-.019 14.168 14.675-.129v-.038L175.676 134.5z"/>
    <path fill="url(#paint12_linear)" d="M161 148.52l14.656.148.037-14.149h-.037L161 148.52z"/>
    <path fill="url(#paint13_linear)" d="M175.657 133v15.501l14.675-.796v-.037L175.657 133z"/>
    <path fill="url(#paint14_linear)" d="M161 147.686l14.656.815V133L161 147.686z"/>
    <path fill="#fff" d="M110.905 105.842c0-.748-.192-1.379-.575-1.911a2.898 2.898 0 0 0-1.532-1.097c.511-.233.91-.615 1.197-1.114a3.23 3.23 0 0 0 .24-2.709 3.25 3.25 0 0 0-.511-.964 2.8 2.8 0 0 0-.814-.698 2.321 2.321 0 0 0-1.069-.266H102v11.801h5.41a4.54 4.54 0 0 0 1.356-.2 3.26 3.26 0 0 0 1.102-.598c.319-.266.558-.582.75-.964.191-.366.287-.798.287-1.28zm-1.835-.349c0 .249-.048.482-.128.698a2.208 2.208 0 0 1-.351.565c-.16.166-.335.283-.527.383a1.5 1.5 0 0 1-.654.132h-3.623v-3.606h3.735c.223 0 .431.05.622.149.192.1.351.233.479.399a2.148 2.148 0 0 1 .447 1.28zm-5.283-6.798h3.384c.415 0 .766.167 1.053.499.271.332.415.748.415 1.246 0 .266-.048.499-.128.699a1.56 1.56 0 0 1-.335.548 1.5 1.5 0 0 1-.495.349c-.191.1-.383.133-.606.133h-3.288v-3.474zM117.477 108.967c.766 0 1.484-.15 2.154-.482a5.77 5.77 0 0 0 1.74-1.313 6.135 6.135 0 0 0 1.133-1.912 6.3 6.3 0 0 0 .415-2.26c0-.731-.144-1.463-.399-2.177a6.203 6.203 0 0 0-1.101-1.928 5.58 5.58 0 0 0-1.708-1.363 4.7 4.7 0 0 0-2.202-.532c-.798 0-1.516.166-2.187.499a5.493 5.493 0 0 0-1.723 1.313 6.492 6.492 0 0 0-1.133 1.911 6.076 6.076 0 0 0-.415 2.26c0 .765.127 1.496.383 2.211a6.025 6.025 0 0 0 1.117 1.928 5.286 5.286 0 0 0 1.707 1.346 4.905 4.905 0 0 0 2.219.499zm-3.607-5.984c0-.531.08-1.047.239-1.562a4.15 4.15 0 0 1 .719-1.379c.303-.4.686-.715 1.133-.964.447-.25.957-.383 1.532-.383.542 0 1.021.133 1.468.366a3.51 3.51 0 0 1 1.133.947c.319.399.559.848.734 1.363.16.515.255 1.047.255 1.612 0 .532-.079 1.064-.239 1.563-.16.515-.399.98-.702 1.379a3.656 3.656 0 0 1-1.133.997c-.447.25-.942.366-1.516.366a3.176 3.176 0 0 1-1.5-.349 3.62 3.62 0 0 1-1.149-.964 4.01 4.01 0 0 1-.719-1.379 4.958 4.958 0 0 1-.255-1.613zM129.477 108.967c.766 0 1.484-.15 2.154-.482a5.757 5.757 0 0 0 1.74-1.313 6.097 6.097 0 0 0 1.133-1.912 6.3 6.3 0 0 0 .415-2.26c0-.731-.144-1.463-.399-2.177a6.203 6.203 0 0 0-1.101-1.928 5.58 5.58 0 0 0-1.708-1.363 4.7 4.7 0 0 0-2.202-.532c-.798 0-1.516.166-2.187.499a5.493 5.493 0 0 0-1.723 1.313 6.492 6.492 0 0 0-1.133 1.911 6.096 6.096 0 0 0-.415 2.26c0 .765.128 1.496.383 2.211a6.025 6.025 0 0 0 1.117 1.928 5.279 5.279 0 0 0 1.708 1.346c.67.333 1.404.499 2.218.499zm-3.607-5.984c0-.531.08-1.047.24-1.562.159-.515.399-.981.718-1.379.303-.4.686-.715 1.133-.964.447-.25.957-.383 1.532-.383.542 0 1.021.133 1.468.366a3.51 3.51 0 0 1 1.133.947c.319.399.559.848.734 1.363.16.515.256 1.047.256 1.612a5.14 5.14 0 0 1-.24 1.563c-.159.515-.399.98-.702 1.379a3.656 3.656 0 0 1-1.133.997c-.447.25-.942.366-1.516.366a3.178 3.178 0 0 1-1.5-.349 3.62 3.62 0 0 1-1.149-.964 4.008 4.008 0 0 1-.718-1.379 4.932 4.932 0 0 1-.256-1.613zM144.554 98.728v-1.645h-9.352v1.645h3.782v10.156h1.804V98.728h3.766zM152.776 99.859l.814-1.53a8.12 8.12 0 0 0-1.708-.947A5.89 5.89 0 0 0 149.76 97a5.6 5.6 0 0 0-1.628.233 3.995 3.995 0 0 0-1.309.698c-.367.299-.654.681-.861 1.13-.224.449-.32.964-.32 1.529 0 .465.064.864.208 1.197.143.332.351.615.638.847.271.25.623.466 1.037.632.415.166.91.332 1.485.482.478.133.925.266 1.308.382.383.133.702.266.974.416.255.149.463.315.606.515.144.199.224.449.224.748 0 .498-.192.881-.575 1.13-.383.266-.926.382-1.628.382-.447 0-.862-.05-1.26-.149a7.079 7.079 0 0 1-1.134-.383 4.718 4.718 0 0 1-.909-.498 2.842 2.842 0 0 1-.591-.482l-.814 1.595a6.673 6.673 0 0 0 2.171 1.197 7.919 7.919 0 0 0 2.505.399c.575 0 1.101-.05 1.612-.183a4.15 4.15 0 0 0 1.309-.598c.383-.266.67-.632.893-1.064.224-.432.336-.947.336-1.546 0-.531-.096-.98-.272-1.346a2.775 2.775 0 0 0-.734-.947 4.705 4.705 0 0 0-1.181-.648 17.328 17.328 0 0 0-1.548-.482c-.478-.117-.877-.233-1.229-.333a3.809 3.809 0 0 1-.877-.365c-.24-.133-.415-.3-.527-.482-.112-.183-.159-.416-.159-.715 0-.499.175-.898.526-1.197.351-.282.91-.432 1.676-.432.335 0 .67.05.989.116.319.084.623.183.894.3.271.132.511.266.718.398.192.133.351.266.463.383zM164.066 98.728v-1.645h-9.352v1.645h3.782v10.156h1.803V98.728h3.767zM165.585 108.884h1.788v-4.106h2.617l2.457 4.106h2.027l-2.665-4.488c.319-.1.622-.266.91-.498.271-.233.51-.499.702-.815.191-.299.335-.648.447-1.014.095-.365.159-.748.159-1.147 0-.465-.096-.93-.271-1.396a4.256 4.256 0 0 0-.718-1.23 3.914 3.914 0 0 0-1.117-.88 3.08 3.08 0 0 0-1.405-.333h-4.931v11.801zm1.788-5.751v-4.404h3.032c.223 0 .446.066.67.182.223.117.415.266.574.466.16.2.304.432.399.698.096.266.16.548.16.847 0 .3-.048.582-.128.848a2.904 2.904 0 0 1-.351.715 1.899 1.899 0 0 1-.542.482 1.365 1.365 0 0 1-.687.166h-3.127zM179.3 97.083l-4.501 11.801h1.9l1.181-3.208h4.372l1.197 3.208h1.883l-4.468-11.8H179.3zm2.601 7.213h-3.702l1.883-5.069 1.819 5.069zM186.733 108.884h1.788v-4.106h3.064c.511 0 .973-.099 1.388-.315a3.465 3.465 0 0 0 1.085-.865c.288-.365.527-.764.687-1.23.159-.465.255-.947.255-1.446 0-.465-.096-.93-.271-1.396a4.256 4.256 0 0 0-.718-1.23 3.932 3.932 0 0 0-1.118-.88 3.073 3.073 0 0 0-1.404-.333h-4.756v11.801zm1.788-5.751v-4.404h2.856c.224 0 .447.066.671.166.223.1.415.249.59.449.16.199.303.415.399.681.096.266.144.565.144.897 0 .333-.048.615-.128.881a2.798 2.798 0 0 1-.351.698c-.16.2-.335.366-.543.466a1.361 1.361 0 0 1-.686.166h-2.952zM113.736 89.03h-.861l1.841 3.178V94h.784v-1.778l1.855-3.192h-.861l-1.386 2.492-1.372-2.492zM119.703 94.035c.336 0 .651-.063.945-.203.294-.14.546-.322.763-.553.21-.23.378-.497.497-.805a2.56 2.56 0 0 0 .182-.952 2.63 2.63 0 0 0-.175-.917 2.577 2.577 0 0 0-.483-.812 2.43 2.43 0 0 0-.749-.574 2.132 2.132 0 0 0-.966-.224c-.35 0-.665.07-.959.21a2.4 2.4 0 0 0-.756.553 2.72 2.72 0 0 0-.497.805 2.64 2.64 0 0 0-.014 1.883c.112.308.28.574.49.812a2.227 2.227 0 0 0 1.722.777zm-1.582-2.52c0-.224.035-.44.105-.658a1.73 1.73 0 0 1 .315-.58c.133-.169.301-.302.497-.407.196-.105.42-.16.672-.16.238 0 .448.055.644.153s.357.231.497.4c.14.167.245.356.322.573.07.217.112.441.112.68 0 .223-.035.447-.105.657-.07.217-.175.413-.308.581-.14.175-.301.315-.497.42a1.371 1.371 0 0 1-.665.154 1.444 1.444 0 0 1-1.162-.553 1.666 1.666 0 0 1-.315-.58 2.003 2.003 0 0 1-.112-.68zM124.973 93.328c-.259 0-.476-.049-.651-.147a1.149 1.149 0 0 1-.42-.399 1.687 1.687 0 0 1-.224-.567 3.403 3.403 0 0 1-.063-.665v-2.52h-.784v2.52c0 .322.035.637.112.931.07.301.196.567.364.798.168.231.385.413.658.553.273.14.609.203 1.008.203.378 0 .707-.063.98-.196.273-.126.497-.308.672-.532a2.37 2.37 0 0 0 .378-.79c.077-.302.119-.624.119-.967v-2.52h-.791v2.52c0 .224-.028.448-.07.658-.042.21-.119.4-.224.567a1.186 1.186 0 0 1-.413.4c-.175.104-.392.153-.651.153zM128.165 94h.784v-1.729h1.148l1.078 1.73h.889l-1.169-1.89c.14-.043.273-.113.399-.21.119-.099.224-.21.308-.344a1.7 1.7 0 0 0 .266-.91c0-.196-.042-.392-.119-.588a1.771 1.771 0 0 0-.315-.518 1.71 1.71 0 0 0-.49-.37 1.396 1.396 0 0 0-.616-.14h-2.163V94zm.784-2.422v-1.855h1.33c.098 0 .196.028.294.077a.766.766 0 0 1 .252.196 1.023 1.023 0 0 1 .245.651c0 .126-.021.245-.056.357a1.216 1.216 0 0 1-.154.301.818.818 0 0 1-.238.203.616.616 0 0 1-.301.07h-1.372zM134.522 94h.784v-2.142h2.114v-.65h-2.114v-1.485h2.527v-.693h-3.311V94zM138.576 94h.784v-4.97h-.784V94zM140.483 94h.784v-1.729h1.148l1.078 1.73h.889l-1.169-1.89c.14-.043.273-.113.399-.21.119-.099.224-.21.308-.344a1.7 1.7 0 0 0 .266-.91c0-.196-.042-.392-.119-.588a1.771 1.771 0 0 0-.315-.518 1.71 1.71 0 0 0-.49-.37 1.396 1.396 0 0 0-.616-.14h-2.163V94zm.784-2.422v-1.855h1.33c.098 0 .196.028.294.077a.766.766 0 0 1 .252.196 1.023 1.023 0 0 1 .245.651c0 .126-.021.245-.056.357a1.216 1.216 0 0 1-.154.301.818.818 0 0 1-.238.203.616.616 0 0 1-.301.07h-1.372zM148.051 90.2l.357-.645a3.609 3.609 0 0 0-.749-.399 2.68 2.68 0 0 0-.931-.16c-.259 0-.497.034-.714.097-.224.07-.413.168-.574.294a1.328 1.328 0 0 0-.378.476c-.098.19-.14.406-.14.644 0 .196.028.364.091.504s.154.26.28.357a1.5 1.5 0 0 0 .455.266c.182.07.399.14.651.203.21.056.406.112.574.161.168.056.308.112.427.175a.838.838 0 0 1 .266.217.512.512 0 0 1 .098.315c0 .21-.084.371-.252.476-.168.112-.406.161-.714.161-.196 0-.378-.02-.553-.063a3.183 3.183 0 0 1-.497-.16 2.122 2.122 0 0 1-.399-.21 1.234 1.234 0 0 1-.259-.204l-.357.672c.28.224.602.392.952.504.35.112.721.168 1.099.168.252 0 .483-.02.707-.077.217-.056.406-.14.574-.252.168-.112.294-.266.392-.448.098-.182.147-.399.147-.65 0-.225-.042-.414-.119-.568a1.176 1.176 0 0 0-.322-.399 2.115 2.115 0 0 0-.518-.273 8.057 8.057 0 0 0-.679-.203c-.21-.049-.385-.098-.539-.14a1.69 1.69 0 0 1-.385-.154.605.605 0 0 1-.231-.203.548.548 0 0 1-.07-.3c0-.21.077-.379.231-.505.154-.119.399-.182.735-.182.147 0 .294.021.434.05.14.034.273.076.392.125.119.056.224.112.315.168.084.056.154.112.203.161zM153.003 89.723v-.693h-4.102v.693h1.659V94h.791v-4.277h1.652zM156.726 89.051l.854 2.212-.742 1.827-1.554-4.06h-.854l2.051 4.97h.672l.931-2.226.924 2.226h.672l2.051-4.97h-.861l-1.547 4.06-.742-1.827.847-2.212h-.735l-.616 1.687-.609-1.687h-.742zM165.726 93.307h-2.625v-1.519h2.219v-.65h-2.219v-1.415h2.562v-.693h-3.346V94h3.409v-.693zM169.944 93.307h-2.625v-1.519h2.219v-.65h-2.219v-1.415h2.562v-.693h-3.346V94h3.409v-.693zM170.753 94h.784v-1.498l.763-.79L173.98 94h.875l-2.072-2.772 1.96-2.198h-.868l-2.338 2.562v-2.555h-.784V94zM178.546 89.051l.854 2.212-.742 1.827-1.554-4.06h-.854l2.051 4.97h.672l.931-2.226.924 2.226h.672l2.051-4.97h-.861l-1.547 4.06-.742-1.827.847-2.212h-.735l-.616 1.687-.609-1.687h-.742zM184.138 94h.784v-4.97h-.784V94zM189.692 89.723v-.693h-4.102v.693h1.659V94h.791v-4.277h1.652zM194.439 89.03h-.791v2.08h-2.506v-2.08h-.784V94h.784v-2.19h2.506V94h.791v-4.97zM103.816 180.36a.637.637 0 0 0-.462-.634.57.57 0 0 0 .263-.234.658.658 0 0 0 .052-.571.622.622 0 0 0-.29-.35.529.529 0 0 0-.235-.056h-1.281V181h1.187c.105 0 .203-.014.297-.042a.725.725 0 0 0 .242-.126.613.613 0 0 0 .227-.472zm-.402-.074a.413.413 0 0 1-.028.147.468.468 0 0 1-.077.119.434.434 0 0 1-.116.081.335.335 0 0 1-.143.028h-.795v-.76h.819a.31.31 0 0 1 .242.116.45.45 0 0 1 .098.269zm-1.159-1.431h.742a.3.3 0 0 1 .231.105c.06.07.091.157.091.262a.37.37 0 0 1-.028.147.328.328 0 0 1-.182.189.284.284 0 0 1-.133.028h-.721v-.731zM105.261 180.664a.656.656 0 0 1-.325-.073.568.568 0 0 1-.21-.2.83.83 0 0 1-.112-.283 1.702 1.702 0 0 1-.032-.333v-1.26h-.392v1.26c0 .161.018.319.056.466.035.15.098.283.182.399a.918.918 0 0 0 .329.276 1.1 1.1 0 0 0 .504.102c.189 0 .354-.032.49-.098a.894.894 0 0 0 .336-.266c.084-.112.147-.245.189-.396.039-.15.06-.311.06-.483v-1.26h-.396v1.26c0 .112-.014.224-.035.329a.836.836 0 0 1-.112.284.586.586 0 0 1-.532.276zM106.857 181h.392v-2.485h-.392V181zM107.811 181h1.725v-.346h-1.333v-2.139h-.392V181zM109.854 181h.882c.182 0 .35-.028.501-.087.147-.06.276-.144.381-.252.105-.109.186-.238.242-.392a1.54 1.54 0 0 0 .01-.994 1.126 1.126 0 0 0-.231-.396 1.098 1.098 0 0 0-.378-.266 1.347 1.347 0 0 0-.525-.098h-.882V181zm1.694-1.246c0 .13-.017.249-.052.357a.784.784 0 0 1-.158.287.718.718 0 0 1-.255.189.833.833 0 0 1-.347.067h-.49v-1.792h.49c.126 0 .242.024.343.066a.752.752 0 0 1 .413.466c.035.112.056.231.056.36zM113.225 181h.392v-.864h.574l.539.864h.444l-.584-.945a.607.607 0 0 0 .199-.105.718.718 0 0 0 .154-.171.836.836 0 0 0 .133-.455.887.887 0 0 0-.217-.553.85.85 0 0 0-.245-.186.703.703 0 0 0-.308-.07h-1.081V181zm.392-1.211v-.927h.665a.39.39 0 0 1 .273.136.51.51 0 0 1 .122.326.577.577 0 0 1-.105.329.393.393 0 0 1-.119.101.3.3 0 0 1-.15.035h-.686zM117.243 180.654h-1.312v-.76h1.109v-.325h-1.109v-.707h1.281v-.347h-1.673V181h1.704v-.346zM119.066 179.1l.179-.322a1.823 1.823 0 0 0-.375-.2 1.347 1.347 0 0 0-.822-.031.884.884 0 0 0-.287.147.69.69 0 0 0-.259.56.62.62 0 0 0 .045.252c.032.07.077.129.14.178a.75.75 0 0 0 .228.133c.091.035.199.07.325.102.105.028.203.056.287.08.084.028.154.056.214.088a.417.417 0 0 1 .133.108.26.26 0 0 1 .049.158.264.264 0 0 1-.126.238c-.084.056-.203.08-.357.08-.098 0-.189-.01-.277-.031a1.534 1.534 0 0 1-.448-.186.629.629 0 0 1-.129-.101l-.179.336c.14.112.301.196.476.252.175.056.361.084.55.084.126 0 .241-.011.353-.039a.924.924 0 0 0 .287-.126.607.607 0 0 0 .196-.224.675.675 0 0 0 .074-.325.58.58 0 0 0-.221-.483 1.049 1.049 0 0 0-.259-.137 3.795 3.795 0 0 0-.339-.101c-.105-.025-.193-.049-.27-.07a.84.84 0 0 1-.192-.077.301.301 0 0 1-.116-.102.275.275 0 0 1-.035-.15.31.31 0 0 1 .116-.252c.077-.06.199-.091.367-.091a1.11 1.11 0 0 1 .413.087c.06.028.112.056.158.084a.623.623 0 0 1 .101.081zM119.736 181h.392v-.864h.672a.662.662 0 0 0 .304-.067.745.745 0 0 0 .238-.182.868.868 0 0 0 .207-.563.884.884 0 0 0-.217-.553.864.864 0 0 0-.245-.186.707.707 0 0 0-.308-.07h-1.043V181zm.392-1.211v-.927h.626c.049 0 .098.014.147.035a.38.38 0 0 1 .13.094.494.494 0 0 1 .119.333.62.62 0 0 1-.028.185.6.6 0 0 1-.077.147.355.355 0 0 1-.119.098.306.306 0 0 1-.151.035h-.647zM122.949 181.018c.168 0 .326-.032.473-.102.147-.07.273-.161.381-.276.105-.116.189-.249.249-.403.059-.15.091-.308.091-.476a1.31 1.31 0 0 0-.088-.458 1.282 1.282 0 0 0-.241-.406 1.21 1.21 0 0 0-.375-.287 1.06 1.06 0 0 0-.483-.112c-.175 0-.332.035-.479.105-.147.07-.273.161-.378.276a1.368 1.368 0 0 0-.249.403 1.315 1.315 0 0 0 .238 1.347 1.113 1.113 0 0 0 .861.389zm-.791-1.26c0-.112.018-.221.053-.329a.862.862 0 0 1 .157-.291.797.797 0 0 1 .249-.203.707.707 0 0 1 .336-.08c.119 0 .224.028.322.077a.76.76 0 0 1 .248.199c.07.084.123.179.161.287a1.044 1.044 0 0 1 .004.669.937.937 0 0 1-.154.29.785.785 0 0 1-.249.21.678.678 0 0 1-.332.077.72.72 0 0 1-.581-.276.836.836 0 0 1-.158-.291 1.009 1.009 0 0 1-.056-.339zM124.94 179.25l1.407 1.75h.326v-2.481h-.396v1.788l-1.421-1.792h-.308V181h.392v-1.75zM128.701 179.1l.179-.322a1.823 1.823 0 0 0-.375-.2 1.347 1.347 0 0 0-.822-.031.884.884 0 0 0-.287.147.69.69 0 0 0-.259.56.62.62 0 0 0 .045.252c.032.07.077.129.14.178a.75.75 0 0 0 .228.133c.091.035.199.07.325.102.105.028.203.056.287.08.084.028.154.056.214.088a.417.417 0 0 1 .133.108.26.26 0 0 1 .049.158.264.264 0 0 1-.126.238c-.084.056-.203.08-.357.08-.098 0-.189-.01-.277-.031a1.534 1.534 0 0 1-.448-.186.629.629 0 0 1-.129-.101l-.179.336c.14.112.301.196.476.252.175.056.361.084.55.084.126 0 .241-.011.353-.039a.924.924 0 0 0 .287-.126.607.607 0 0 0 .196-.224.675.675 0 0 0 .074-.325.58.58 0 0 0-.221-.483 1.049 1.049 0 0 0-.259-.137 3.795 3.795 0 0 0-.339-.101c-.105-.025-.193-.049-.27-.07a.84.84 0 0 1-.192-.077.301.301 0 0 1-.116-.102.275.275 0 0 1-.035-.15.31.31 0 0 1 .116-.252c.077-.06.199-.091.367-.091a1.11 1.11 0 0 1 .413.087c.06.028.112.056.158.084a.623.623 0 0 1 .101.081zM129.371 181h.392v-2.485h-.392V181zM130.482 178.515h-.416l.997 2.485h.336l.994-2.485h-.416l-.746 1.992-.749-1.992zM134.401 180.654h-1.312v-.76h1.109v-.325h-1.109v-.707h1.281v-.347h-1.673V181h1.704v-.346zM137.76 181h.395v-2.485h-.42l-.822 1.519-.823-1.519h-.42V181h.392v-1.788l.742 1.354h.217l.739-1.354V181zM139.748 181.018c.168 0 .326-.032.473-.102.147-.07.273-.161.381-.276.105-.116.189-.249.249-.403.059-.15.091-.308.091-.476a1.31 1.31 0 0 0-.088-.458 1.282 1.282 0 0 0-.241-.406 1.21 1.21 0 0 0-.375-.287 1.06 1.06 0 0 0-.483-.112c-.175 0-.332.035-.479.105-.147.07-.273.161-.378.276a1.368 1.368 0 0 0-.249.403 1.315 1.315 0 0 0 .238 1.347 1.113 1.113 0 0 0 .861.389zm-.791-1.26c0-.112.018-.221.053-.329a.862.862 0 0 1 .157-.291.797.797 0 0 1 .249-.203.707.707 0 0 1 .336-.08c.119 0 .224.028.322.077a.76.76 0 0 1 .248.199c.07.084.123.179.161.287a1.044 1.044 0 0 1 .004.669.937.937 0 0 1-.154.29.785.785 0 0 1-.249.21.678.678 0 0 1-.332.077.72.72 0 0 1-.581-.276.836.836 0 0 1-.158-.291 1.009 1.009 0 0 1-.056-.339zM143.301 180.36a.637.637 0 0 0-.462-.634.567.567 0 0 0 .262-.234.66.66 0 0 0 .053-.571.627.627 0 0 0-.291-.35.524.524 0 0 0-.234-.056h-1.281V181h1.186c.105 0 .203-.014.298-.042a.72.72 0 0 0 .241-.126.615.615 0 0 0 .165-.203.557.557 0 0 0 .063-.269zm-.403-.074a.393.393 0 0 1-.105.266.343.343 0 0 1-.259.109h-.794v-.76h.819a.31.31 0 0 1 .241.116.457.457 0 0 1 .098.269zm-1.158-1.431h.742a.3.3 0 0 1 .231.105c.059.07.091.157.091.262a.389.389 0 0 1-.102.263.322.322 0 0 1-.108.073.284.284 0 0 1-.133.028h-.721v-.731zM143.709 181h.392v-2.485h-.392V181zM144.663 181h1.726v-.346h-1.334v-2.139h-.392V181zM148.412 180.654h-1.313v-.76h1.11v-.325h-1.11v-.707h1.281v-.347h-1.673V181h1.705v-.346zM148.688 180.216h1.046v-.346h-1.046v.346zM150.228 181h.392v-1.071h1.057v-.325h-1.057v-.742h1.263v-.347h-1.655V181zM152.254 181h.392v-2.485h-.392V181zM153.208 181h.392v-.864h.574l.539.864h.445l-.585-.945a.611.611 0 0 0 .2-.105.74.74 0 0 0 .154-.171.871.871 0 0 0 .133-.455.884.884 0 0 0-.217-.553.864.864 0 0 0-.245-.186.707.707 0 0 0-.308-.07h-1.082V181zm.392-1.211v-.927h.665a.39.39 0 0 1 .273.136.513.513 0 0 1 .095.504.63.63 0 0 1-.077.151.406.406 0 0 1-.119.101.306.306 0 0 1-.151.035h-.686zM156.992 179.1l.178-.322a1.788 1.788 0 0 0-.374-.2 1.357 1.357 0 0 0-.823-.031.894.894 0 0 0-.287.147.69.69 0 0 0-.259.56c0 .098.014.182.046.252.031.07.077.129.14.178a.732.732 0 0 0 .227.133c.091.035.2.07.326.102.105.028.203.056.287.08.084.028.154.056.213.088a.406.406 0 0 1 .133.108.254.254 0 0 1 .049.158.264.264 0 0 1-.126.238c-.084.056-.203.08-.357.08-.098 0-.189-.01-.276-.031a1.547 1.547 0 0 1-.249-.081 1 1 0 0 1-.199-.105.639.639 0 0 1-.13-.101l-.178.336c.14.112.301.196.476.252a1.8 1.8 0 0 0 .549.084c.126 0 .242-.011.354-.039a.934.934 0 0 0 .287-.126.607.607 0 0 0 .196-.224.675.675 0 0 0 .073-.325.638.638 0 0 0-.059-.284.592.592 0 0 0-.161-.199 1.067 1.067 0 0 0-.259-.137 3.924 3.924 0 0 0-.34-.101c-.105-.025-.192-.049-.269-.07a.85.85 0 0 1-.193-.077.298.298 0 0 1-.115-.102.267.267 0 0 1-.035-.15c0-.105.038-.189.115-.252.077-.06.2-.091.368-.091.073 0 .147.01.217.024.07.018.136.039.196.063.059.028.112.056.157.084a.684.684 0 0 1 .102.081zM159.468 178.862v-.347h-2.051v.347h.83V181h.395v-2.138h.826zM162.037 179.1l.178-.322a1.788 1.788 0 0 0-.374-.2 1.357 1.357 0 0 0-.823-.031.894.894 0 0 0-.287.147.69.69 0 0 0-.259.56c0 .098.014.182.046.252.031.07.077.129.14.178a.732.732 0 0 0 .227.133c.091.035.2.07.326.102.105.028.203.056.287.08.084.028.154.056.213.088a.406.406 0 0 1 .133.108.254.254 0 0 1 .049.158.264.264 0 0 1-.126.238c-.084.056-.203.08-.357.08-.098 0-.189-.01-.276-.031a1.547 1.547 0 0 1-.249-.081 1 1 0 0 1-.199-.105.639.639 0 0 1-.13-.101l-.178.336c.14.112.301.196.476.252a1.8 1.8 0 0 0 .549.084c.126 0 .242-.011.354-.039a.934.934 0 0 0 .287-.126.607.607 0 0 0 .196-.224.675.675 0 0 0 .073-.325.638.638 0 0 0-.059-.284.592.592 0 0 0-.161-.199 1.067 1.067 0 0 0-.259-.137 3.924 3.924 0 0 0-.34-.101c-.105-.025-.192-.049-.269-.07a.85.85 0 0 1-.193-.077.298.298 0 0 1-.115-.102.267.267 0 0 1-.035-.15c0-.105.038-.189.115-.252.077-.06.2-.091.368-.091.073 0 .147.01.217.024.07.018.136.039.196.063.059.028.112.056.157.084a.684.684 0 0 1 .102.081zM162.707 181h.392v-2.485h-.392V181zM165.484 178.862v-.347h-2.051v.347h.829V181h.396v-2.138h.826zM167.521 180.654h-1.312v-.76h1.109v-.325h-1.109v-.707h1.281v-.347h-1.673V181h1.704v-.346zM169.345 179.1l.178-.322a1.788 1.788 0 0 0-.374-.2 1.357 1.357 0 0 0-.823-.031.894.894 0 0 0-.287.147.69.69 0 0 0-.259.56c0 .098.014.182.046.252.031.07.077.129.14.178a.732.732 0 0 0 .227.133c.091.035.2.07.326.102.105.028.203.056.287.08.084.028.154.056.213.088a.406.406 0 0 1 .133.108.254.254 0 0 1 .049.158.264.264 0 0 1-.126.238c-.084.056-.203.08-.357.08-.098 0-.189-.01-.276-.031a1.547 1.547 0 0 1-.249-.081 1 1 0 0 1-.199-.105.639.639 0 0 1-.13-.101l-.178.336c.14.112.301.196.476.252a1.8 1.8 0 0 0 .549.084c.126 0 .242-.011.354-.039a.934.934 0 0 0 .287-.126.607.607 0 0 0 .196-.224.675.675 0 0 0 .073-.325.638.638 0 0 0-.059-.284.592.592 0 0 0-.161-.199 1.067 1.067 0 0 0-.259-.137 3.924 3.924 0 0 0-.34-.101c-.105-.025-.192-.049-.269-.07a.85.85 0 0 1-.193-.077.298.298 0 0 1-.115-.102.267.267 0 0 1-.035-.15c0-.105.038-.189.115-.252.077-.06.2-.091.368-.091.073 0 .147.01.217.024.07.018.136.039.196.063.059.028.112.056.157.084a.684.684 0 0 1 .102.081zM171.641 178.526l.427 1.106-.371.913-.777-2.03h-.427l1.026 2.485h.336l.465-1.113.462 1.113h.336l1.026-2.485h-.431l-.773 2.03-.371-.913.423-1.106h-.367l-.308.843-.305-.843h-.371zM174.437 181h.392v-2.485h-.392V181zM177.214 178.862v-.347h-2.051v.347h.83V181h.395v-2.138h.826zM179.588 178.515h-.396v1.04h-1.253v-1.04h-.392V181h.392v-1.095h1.253V181h.396v-2.485zM182.718 180.654h-1.313v-.76h1.11v-.325h-1.11v-.707h1.281v-.347h-1.673V181h1.705v-.346zM183.854 178.515l-.987 2.485h.416l.259-.675h.959l.263.675h.413l-.98-2.485h-.343zm.57 1.519h-.812l.413-1.067.399 1.067zM186.916 179.1l.179-.322a1.823 1.823 0 0 0-.375-.2 1.347 1.347 0 0 0-.822-.031.884.884 0 0 0-.287.147.69.69 0 0 0-.259.56.62.62 0 0 0 .045.252c.032.07.077.129.14.178a.75.75 0 0 0 .228.133c.091.035.199.07.325.102.105.028.203.056.287.08.084.028.154.056.214.088a.417.417 0 0 1 .133.108.26.26 0 0 1 .049.158.264.264 0 0 1-.126.238c-.084.056-.203.08-.357.08-.098 0-.189-.01-.277-.031a1.534 1.534 0 0 1-.448-.186.629.629 0 0 1-.129-.101l-.179.336c.14.112.301.196.476.252.175.056.361.084.55.084.126 0 .241-.011.353-.039a.924.924 0 0 0 .287-.126.607.607 0 0 0 .196-.224.675.675 0 0 0 .074-.325.58.58 0 0 0-.221-.483 1.049 1.049 0 0 0-.259-.137 3.795 3.795 0 0 0-.339-.101c-.105-.025-.193-.049-.27-.07a.84.84 0 0 1-.192-.077.301.301 0 0 1-.116-.102.275.275 0 0 1-.035-.15.31.31 0 0 1 .116-.252c.077-.06.199-.091.367-.091a1.11 1.11 0 0 1 .413.087c.06.028.112.056.158.084a.623.623 0 0 1 .101.081zM189.29 180.654h-1.312v-.76h1.109v-.325h-1.109v-.707h1.281v-.347h-1.673V181h1.704v-.346zM172.827 69.262a.368.368 0 0 0 .184.16l.224.1h.51a.473.473 0 0 0 .224-.06.326.326 0 0 0 .163-.12.295.295 0 0 0 .061-.2.27.27 0 0 0-.033-.15.282.282 0 0 0-.109-.11 1.21 1.21 0 0 0-.327-.14l-.448-.1a1.639 1.639 0 0 1-.449-.12.938.938 0 0 1-.326-.22.653.653 0 0 1-.041-.76.934.934 0 0 1 .245-.24.78.78 0 0 1 .326-.12c.119-.034.243-.047.367-.04.151-.008.302.005.449.04.128.018.253.059.367.12a.745.745 0 0 1 .245.26c.057.126.092.261.102.4h-.469a.335.335 0 0 0-.062-.2.546.546 0 0 0-.163-.14l-.204-.08h-.428l-.184.04c-.061.04-.122.06-.142.12a.206.206 0 0 0-.047.073.196.196 0 0 0-.014.087.193.193 0 0 0 .081.18c.063.062.14.11.224.14l.286.08.326.06.347.1c.1.028.196.068.285.12a.695.695 0 0 1 .204.22.565.565 0 0 1 .082.32.77.77 0 0 1-.102.4.71.71 0 0 1-.286.26.822.822 0 0 1-.387.14l-.428.04-.429-.04a1.11 1.11 0 0 1-.387-.16.886.886 0 0 1-.265-.28.893.893 0 0 1-.102-.42h.469a.415.415 0 0 0 .061.24zM175.701 67.201h-.469v2.671h.469v-2.67zM177.598 67.201v.38h-.551v1.661c0 .06 0 .1.021.12a.1.1 0 0 0 .041.08h.489v.38h-.652a.47.47 0 0 1-.204-.08.3.3 0 0 1-.123-.18 1.217 1.217 0 0 1-.041-.3v-1.68h-.469v-.38h.469v-.8h.469v.8h.551zM180.106 69.702a1.383 1.383 0 0 1-.795.22 1.615 1.615 0 0 1-.571-.1 1.089 1.089 0 0 1-.428-.3 1.037 1.037 0 0 1-.245-.44 1.602 1.602 0 0 1 0-1.12c.064-.16.153-.309.265-.44.121-.123.267-.218.428-.28.166-.076.348-.11.53-.1.214-.01.426.038.612.14.169.088.31.22.408.38.097.146.166.309.204.48.043.17.057.345.041.52h-2.101c.004.114.017.228.041.34.034.103.09.199.163.28.075.087.174.15.286.18a.952.952 0 0 0 .877-.06.59.59 0 0 0 .244-.38h.449c-.04.27-.186.515-.408.68zm-.102-1.72a.542.542 0 0 0-.183-.24.737.737 0 0 0-.245-.16.83.83 0 0 0-.306-.06.787.787 0 0 0-.571.22.556.556 0 0 0-.163.24.829.829 0 0 0-.082.3h1.611a.775.775 0 0 0-.061-.3zM181.513 67.201v.36h.021a.592.592 0 0 1 .346-.32c.173-.075.362-.11.551-.1.196-.01.391.023.571.1a.994.994 0 0 1 .387.32.95.95 0 0 1 .245.44c.06.174.087.357.082.54a2.456 2.456 0 0 1-.062.54 1.534 1.534 0 0 1-.244.441 1.268 1.268 0 0 1-.408.3 1.62 1.62 0 0 1-.571.1h-.225l-.244-.06-.245-.14a.44.44 0 0 1-.183-.2h-.021v1.38h-.449v-3.7h.449zm1.672.94a.934.934 0 0 0-.163-.32.96.96 0 0 0-.265-.22.85.85 0 0 0-.387-.08.87.87 0 0 0-.408.08.745.745 0 0 0-.265.24.906.906 0 0 0-.143.32c-.04.117-.061.238-.061.36-.002.13.019.258.061.38a.98.98 0 0 0 .428.561.83.83 0 0 0 .408.08c.14-.003.278-.03.408-.08a.69.69 0 0 0 .245-.24.868.868 0 0 0 .142-.34c.035-.124.049-.252.041-.38a1.07 1.07 0 0 0-.041-.36M184.207 67.982a1.22 1.22 0 0 1 .265-.44c.118-.131.264-.234.428-.3.187-.078.39-.112.592-.1.202-.01.404.024.591.1.156.071.294.173.408.3.119.126.21.276.265.44.065.18.1.369.102.56a1.585 1.585 0 0 1-.102.54 1.207 1.207 0 0 1-.265.44 1.259 1.259 0 0 1-.408.3c-.19.066-.39.1-.591.1a1.746 1.746 0 0 1-.592-.1 1.167 1.167 0 0 1-.428-.3 1.22 1.22 0 0 1-.265-.44 1.599 1.599 0 0 1-.082-.54c-.004-.19.024-.38.082-.56zm.469.98a.826.826 0 0 0 .184.32c.086.078.182.145.285.2a.981.981 0 0 0 .673 0c.103-.055.199-.122.286-.2a.837.837 0 0 0 .183-.32c.051-.135.078-.277.082-.42a1.324 1.324 0 0 0-.082-.44.836.836 0 0 0-.183-.32 1.463 1.463 0 0 0-.286-.2.979.979 0 0 0-.673 0 1.427 1.427 0 0 0-.285.2.826.826 0 0 0-.184.32 1.368 1.368 0 0 0-.061.44c-.003.142.018.284.061.42M187.897 67.201h-.469v2.671h.469v-2.67zM189.039 67.201v.42c.094-.153.23-.278.391-.363.162-.084.343-.125.526-.117.159-.004.317.017.469.06.113.05.216.118.306.2a.906.906 0 0 1 .143.32c.042.123.062.251.061.38v1.761h-.469v-1.8a.522.522 0 0 0-.143-.4.57.57 0 0 0-.428-.14.996.996 0 0 0-.367.06.773.773 0 0 0-.265.18.657.657 0 0 0-.143.26.92.92 0 0 0-.061.34v1.5h-.469v-2.66h.449zM192.833 67.201v.38h-.571v1.661c.004.04.01.08.021.12 0 .04.02.06.061.08h.489v.38h-.673l-.204-.08a.385.385 0 0 1-.102-.18.668.668 0 0 1-.04-.3v-1.68h-.49v-.38h.49v-.8h.448v.8h.571zM166.096 68.222l.428.4 1.346 1.24.572-.56a.16.16 0 0 0 0-.22l-.531-.46-.571-.54a.201.201 0 0 1-.049-.13c0-.048.018-.094.049-.13l1.55-1.46-.714-.68-1.652 1.58-.428.4a.395.395 0 0 0-.093.127.383.383 0 0 0 0 .306.395.395 0 0 0 .093.127"/>
    <path fill="#fff" d="M170.685 68.922l-.429-.4-1.346-1.24-.571.56a.16.16 0 0 0 0 .22l.531.46.571.56c.03.033.046.076.046.12a.178.178 0 0 1-.046.12l-1.55 1.46.713.68 1.652-1.58.429-.4a.378.378 0 0 0 0-.56M175.722 66.641a.257.257 0 0 1-.078.184.268.268 0 0 1-.375 0 .257.257 0 0 1 0-.368.268.268 0 0 1 .375 0c.05.05.078.115.078.184M187.917 66.641a.257.257 0 0 1-.078.184.27.27 0 0 1-.375 0 .26.26 0 0 1 0-.368.27.27 0 0 1 .375 0c.05.05.078.115.078.184"/>
  </g>
  <defs>
    <linearGradient id="paint0_linear" x1="235.562" x2="310.264" y1="-45.868" y2="374.527" gradientUnits="userSpaceOnUse">
      <stop stop-color="#E5E5E5"/>
      <stop offset=".219" stop-color="#D5D5D5"/>
      <stop offset=".728" stop-color="#C4C4C4"/>
      <stop offset=".927" stop-color="#4F4F4F"/>
    </linearGradient>
    <linearGradient id="paint1_linear" x1="310.4" x2="310.4" y1="373.63" y2="381.294" gradientUnits="userSpaceOnUse">
      <stop stop-color="#fff"/>
      <stop offset="1" stop-color="#E5E5E5"/>
    </linearGradient>
    <linearGradient id="paint2_linear" x1="100.046" x2="106.916" y1="137.267" y2="131.471" gradientUnits="userSpaceOnUse">
      <stop stop-color="#C7C1BD"/>
      <stop offset="1" stop-color="#A29D9A"/>
    </linearGradient>
    <linearGradient id="paint3_linear" x1="120.081" x2="115.656" y1="142.784" y2="137.618" gradientUnits="userSpaceOnUse">
      <stop stop-color="#C7C1BD"/>
      <stop offset="1" stop-color="#A29D9A"/>
    </linearGradient>
    <linearGradient id="paint4_linear" x1="112.824" x2="118.233" y1="151.143" y2="146.223" gradientUnits="userSpaceOnUse">
      <stop stop-color="#FCFCFC"/>
      <stop offset="1" stop-color="#E6E6E6"/>
    </linearGradient>
    <linearGradient id="paint5_linear" x1="110.858" x2="104.22" y1="155.446" y2="148.68" gradientUnits="userSpaceOnUse">
      <stop stop-color="#DBDBDB"/>
      <stop offset=".718" stop-color="#DED9D9"/>
      <stop offset=".972" stop-color="#CFCCCC"/>
    </linearGradient>
    <linearGradient id="paint6_linear" x1="131.632" x2="137.626" y1="139.846" y2="133.958" gradientUnits="userSpaceOnUse">
      <stop stop-color="#DBDBDB"/>
      <stop offset=".718" stop-color="#DED9D9"/>
      <stop offset=".972" stop-color="#CFCCCC"/>
    </linearGradient>
    <linearGradient id="paint7_linear" x1="151.031" x2="147.108" y1="143.333" y2="138.754" gradientUnits="userSpaceOnUse">
      <stop stop-color="#C7C1BD"/>
      <stop offset="1" stop-color="#8C7E76"/>
    </linearGradient>
    <linearGradient id="paint8_linear" x1="142.877" x2="148.968" y1="148.031" y2="142.893" gradientUnits="userSpaceOnUse">
      <stop stop-color="#705D50"/>
      <stop offset="1" stop-color="#817369"/>
    </linearGradient>
    <linearGradient id="paint9_linear" x1="157.573" x2="151.58" y1="143.358" y2="149.246" gradientUnits="userSpaceOnUse">
      <stop stop-color="#DBDBDB"/>
      <stop offset=".718" stop-color="#DED9D9"/>
      <stop offset=".972" stop-color="#CFCCCC"/>
    </linearGradient>
    <linearGradient id="paint10_linear" x1="141.447" x2="137.21" y1="152.923" y2="147.892" gradientUnits="userSpaceOnUse">
      <stop stop-color="#A19A95"/>
      <stop offset="1" stop-color="#6D5951"/>
    </linearGradient>
    <linearGradient id="paint11_linear" x1="175.657" x2="185.407" y1="148.501" y2="140.008" gradientUnits="userSpaceOnUse">
      <stop offset=".024" stop-color="#8F847D"/>
      <stop offset="1" stop-color="#F7F7F7"/>
    </linearGradient>
    <linearGradient id="paint12_linear" x1="175.073" x2="164.414" y1="145.167" y2="145.251" gradientUnits="userSpaceOnUse">
      <stop offset="0" stop-color="#8B7F79"/>
      <stop offset="1" stop-color="#B2A9A4"/>
    </linearGradient>
    <linearGradient id="paint13_linear" x1="175.657" x2="182.991" y1="147.001" y2="140.34" gradientUnits="userSpaceOnUse">
      <stop stop-color="#F5F5F5"/>
      <stop offset="1" stop-color="#F5F5F5"/>
    </linearGradient>
    <linearGradient id="paint14_linear" x1="175.656" x2="163.998" y1="143.667" y2="143.667" gradientUnits="userSpaceOnUse">
      <stop stop-color="#EBEBEB"/>
      <stop offset=".404" stop-color="#F0EEF1"/>
      <stop offset=".972" stop-color="#F5F5F5"/>
    </linearGradient>
  </defs>
</svg>