<svg xmlns="http://www.w3.org/2000/svg" fill="none" viewBox="0 0 861 538">
  <defs>
    <linearGradient id="paint0_linear" x1="326.871" x2="430.443" y1="-63.617" y2="519.466" gradientUnits="userSpaceOnUse">
      <stop stop-color="#E5E5E5"/>
      <stop offset=".2" stop-color="#D5D5D5"/>
      <stop offset=".73" stop-color="#C4C4C4"/>
      <stop offset=".93" stop-color="#4F4F4F"/>
    </linearGradient>
    <linearGradient id="paint1_linear" x1="430.5" x2="430.5" y1="518.619" y2="528.716" gradientUnits="userSpaceOnUse">
      <stop stop-color="#fff"/>
      <stop offset="1" stop-color="#E5E5E5"/>
    </linearGradient>
  </defs>
<style>
@import url('https://fonts.googleapis.com/css?family=Roboto+Mono');
 text{
    font-family: 'Roboto Mono', monospace; 
    }
  .code-sample text{
    font-family: 'Roboto Mono', monospace; 
    font-size: 14px; 
    font-weight: 500; 
    letter-spacing: 0em; 
    white-space: pre; 
  }
  .linenumbers{fill:#484747;font-size: 14px; letter-spacing: 0em; white-space:pre;}
</style>
  <rect width="802.843" height="515.537" x="28.62" y="2" fill="#000" stroke="url(#paint0_linear)" stroke-width="4" rx="9"/>
  <path fill="url(#paint1_linear)" d="M0 518.619h861v10.097H0z"/>
  <path fill="#C4C4C4" d="M0 527.799h861c0 5.576-4.521 10.097-10.097 10.097H10.097C4.521 537.896 0 533.375 0 527.799z"/>

  <mask id="mask0" width="759" height="480" x="49" y="25" mask-type="alpha" maskUnits="userSpaceOnUse">
    <path fill="#C4C4C4" d="M49.567 25.701h758.194V504.85H49.567z"/>
  </mask>
  <g mask="url(#mask0)">
    <text class="linenumbers">
      <tspan x="87.202" y="60.72">01 </tspan><tspan x="87.202" y="77.126">02 </tspan><tspan x="87.202" y="93.532">03 </tspan><tspan x="87.202" y="109.938">04 </tspan><tspan x="87.202" y="126.345">05 </tspan><tspan x="87.202" y="142.751">06 </tspan><tspan x="87.202" y="159.157">07 </tspan><tspan x="87.202" y="175.563">08 </tspan><tspan x="87.202" y="191.97">09 </tspan><tspan x="87.202" y="208.376">10 </tspan><tspan x="87.202" y="224.782">11 </tspan><tspan x="87.202" y="241.188">12 </tspan><tspan x="87.202" y="257.595">13 </tspan><tspan x="87.202" y="274.001">14 </tspan><tspan x="87.202" y="290.407">15 </tspan><tspan x="87.202" y="306.813">16 </tspan><tspan x="87.202" y="323.22">17 </tspan><tspan x="87.202" y="339.626">18 </tspan><tspan x="87.202" y="356.032">19 </tspan><tspan x="87.202" y="372.438">20 </tspan><tspan x="87.202" y="388.845">21 </tspan><tspan x="87.202" y="405.251">22 </tspan><tspan x="87.202" y="421.657">23 </tspan><tspan x="87.202" y="438.063">24 </tspan><tspan x="87.202" y="454.47">25 </tspan><tspan x="87.202" y="470.876">26 </tspan><tspan x="87.202" y="487.282">27 </tspan><tspan x="87.202" y="503.688">28 </tspan><tspan x="87.202" y="520.095">29</tspan>
    </text>
  </g>
  <g class="code-sample">
    <text fill="#4F4F4F">
      <tspan x="123.918" y="91.929">/* Angular todo app */ </tspan><tspan x="123.918" y="108.335"></tspan>
    </text>
    <text fill="#F7F5F5">
      <tspan x="174.367" y="124.741">{ </tspan><tspan x="258.449" y="124.741">, </tspan><tspan x="317.307" y="124.741">, </tspan><tspan x="384.572" y="124.741"> } </tspan><tspan x="443.43" y="124.741"> </tspan><tspan x="123.918" y="141.147">&apos;</tspan><tspan x="308.898" y="141.147">&apos;; </tspan><tspan x="174.367" y="157.554"> { </tspan><tspan x="325.715" y="157.554"> } </tspan><tspan x="384.572" y="157.554"> &apos;./</tspan><tspan x="561.145" y="157.554">&apos;; </tspan><tspan x="123.918" y="173.96"> </tspan><tspan x="191.184" y="190.366">(&apos;</tspan><tspan x="334.123" y="190.366">&apos;, () =&gt; { </tspan><tspan x="123.918" y="206.772"> </tspan><tspan x="224.816" y="206.772">(() =&gt; { </tspan><tspan x="123.918" y="223.179"> </tspan><tspan x="216.408" y="223.179">.</tspan><tspan x="409.797" y="223.179">({ </tspan><tspan x="123.918" y="239.585"> </tspan><tspan x="250.041" y="239.585">: [</tspan><tspan x="401.389" y="239.585">] </tspan><tspan x="123.918" y="255.991"> }); </tspan><tspan x="123.918" y="272.397"> }); </tspan><tspan x="123.918" y="288.804"> </tspan><tspan x="123.918" y="305.21"> </tspan><tspan x="157.551" y="305.21">(&apos;</tspan><tspan x="224.816" y="305.21"> ...&apos;, </tspan><tspan x="334.123" y="305.21">([</tspan><tspan x="477.062" y="305.21">], (</tspan><tspan x="569.553" y="305.21">: </tspan><tspan x="250.041" y="321.616">) =&gt; { </tspan><tspan x="123.918" y="338.022"> </tspan><tspan x="208" y="338.022">(</tspan><tspan x="275.266" y="338.022">).</tspan><tspan x="376.164" y="338.022">(); </tspan><tspan x="123.918" y="354.429"> })); </tspan><tspan x="123.918" y="370.835">});</tspan>
    </text>
    <text fill="#FFFD8D">
      <tspan x="123.918" y="124.741">import</tspan>
    </text>
    <text fill="#FFFD8C">
      <tspan x="409.797" y="124.741">from</tspan><tspan x="123.918" y="157.554">import</tspan><tspan x="350.939" y="157.554">from</tspan>
    </text>
    <text fill="#9CDCFE">
      <tspan x="123.918" y="190.366">describe</tspan><tspan x="140.734" y="206.772">beforeEach</tspan><tspan x="157.551" y="223.179">TestBed</tspan><tspan x="275.266" y="239.585">TodoDataService</tspan><tspan x="140.734" y="305.21">it</tspan><tspan x="283.674" y="305.21">inject</tspan><tspan x="350.939" y="305.21">TodoDataService</tspan><tspan x="123.918" y="321.616">TodoDataService</tspan><tspan x="157.551" y="338.022">expect</tspan>
    </text>
    <text fill="#FF75B5">
      <tspan x="199.592" y="124.741">TestBed</tspan><tspan x="275.266" y="124.741">async</tspan><tspan x="334.123" y="124.741">inject</tspan><tspan x="199.592" y="157.554">TodoDataService</tspan><tspan x="510.695" y="305.21">service</tspan>
    </text>
    <text fill="#FDB76B">
      <tspan x="132.326" y="141.147">@angular/core/testing</tspan><tspan x="418.205" y="157.554">todo-data.service</tspan><tspan x="208" y="190.366">TodoDataService</tspan><tspan x="174.367" y="305.21">should</tspan>
    </text>
    <text fill="#AF83EA">
      <tspan x="224.816" y="223.179">configureTestingModule</tspan>
    </text>
    <text fill="#A981E4">
      <tspan x="174.367" y="239.585">providers</tspan><tspan x="292.082" y="338.022">toBeTruthy</tspan>
    </text>
    <text fill="#1FF1D2">
      <tspan x="216.408" y="338.022">service</tspan>
    </text>
  </g>

</svg>