<svg xmlns="http://www.w3.org/2000/svg" xmlns:xlink="http://www.w3.org/1999/xlink" fill="none" viewBox="0 0 938 586">
 
 <style>
  .hide{
   clip-path: url(#show-nothing);
  }
  .show{
   clip-path: url(#screen-mask);   
  }
  
 </style>
 
 <defs>
  <!-- CLIP-PATHS -->
  <clipPath id="screen-mask">
    <rect fill="#fff" width="820" height="525" x="60" y="20" /> 
  </clipPath>
  
  <clipPath id="show-nothing">
     <!--show nothing -->
  </clipPath>
  
  <!-- SYMBOLS -->
  
  
  
  
  <!-- GRADIENTS -->
  
    <linearGradient id="paint0_linear" x1="-66" x2="1027" y1="-28" y2="318" gradientTransform="matrix(1 0 0 1.02386 0 0)" gradientUnits="userSpaceOnUse">
      <stop/>
      <stop offset=".4"/>
      <stop offset=".5" stop-color="#393939"/>
      <stop offset=".8" stop-color="#313131"/>
      <stop offset=".8"/>
      <stop offset="1"/>
    </linearGradient>
    <linearGradient id="paint1_linear" x1="356.1" x2="669" y1="-69.3" y2="728.8" gradientTransform="matrix(1 0 0 1.02386 0 0)" gradientUnits="userSpaceOnUse">
      <stop stop-color="#E5E5E5"/>
      <stop offset=".2" stop-color="#D5D5D5"/>
      <stop offset=".8" stop-color="#C4C4C4"/>
      <stop offset="1" stop-color="#4F4F4F"/>
    </linearGradient>
    <linearGradient id="paint2_linear" x1="469" x2="469" y1="565" y2="576" gradientUnits="userSpaceOnUse">
      <stop stop-color="#fff"/>
      <stop offset="1" stop-color="#E5E5E5"/>
    </linearGradient>
    <linearGradient id="paint3_linear" x1="390.5" x2="551" y1="581" y2="581" gradientTransform="translate(.3 -2)" gradientUnits="userSpaceOnUse">
      <stop stop-color="#333" stop-opacity=".4"/>
      <stop offset=".2" stop-color="#333" stop-opacity="0"/>
      <stop offset=".8" stop-color="#333" stop-opacity=".1"/>
      <stop offset="1" stop-opacity=".2"/>
    </linearGradient>
    <linearGradient id="gradient-1" x1="469" x2="469" y1="567" y2="581" gradientTransform="matrix(.99997 -.00719 .00476 .66295 -2.1 191.8)" gradientUnits="userSpaceOnUse">
      <stop style="stop-opacity:.39;stop-color:rgba(51,51,51,.92)"/>
      <stop offset="1" style="stop-opacity:0;stop-color:rgba(51,51,51,.03)"/>
    </linearGradient>
    <linearGradient id="gradient-2" x1="390.5" x2="551" y1="581" y2="581" gradientTransform="translate(73.6 2.5)" gradientUnits="userSpaceOnUse">
      <stop stop-color="#333" stop-opacity=".4"/>
      <stop offset=".2" stop-color="#333" stop-opacity="0"/>
      <stop offset=".8" stop-color="#333" stop-opacity=".1"/>
      <stop offset="1" stop-opacity=".2"/>
    </linearGradient>
  </defs>
 
 
 
  <rect width="875" height="575.4" x="31" y="2" fill="url(#paint0_linear)" stroke="url(#paint1_linear)" stroke-width="4" rx="23.4" ry="23.4">
    <title>
      screen
    </title>
  </rect>
  <rect width="938" height="11" y="565" fill="url(#paint2_linear)">
    <title>
      upperbase
    </title>
  </rect>
  <path fill="#C4C4C4" d="M0 575h938c0 6-5 11-11 11H11c-6 0-11-5-11-11z">
    <title>
      lowerbase
    </title>
  </path>
  <g>
    <title>
      cutout
    </title>
    <path d="M389.8 564.4l159.8.1a14 14 0 01-14 14h-132a14 14 0 01-14-14z" style="fill:#e9e9e9"/>
    <path fill="url(#paint3_linear)" d="M389.5 565h159.8a14 14 0 01-14 14h-132a14 14 0 01-14-14z"/>
    <path d="M389.5 565l160-.7a14 14 0 01-14 14h-132a14 14 0 01-14-14z" style="fill:url(#gradient-1)"/>
  </g>
  <g>
    <title>
      keys
    </title>
    <rect width="41" height="4" x="42" y="561" fill="#aaa"/>
    <rect width="41" height="4" x="90" y="561" fill="#aaa"/>
    <rect width="41" height="4" x="138" y="561" fill="#aaa"/>
    <rect width="41" height="4" x="186" y="561" fill="#aaa"/>
    <rect width="41" height="4" x="234" y="561" fill="#aaa"/>
    <rect width="373" height="4" x="282" y="561" fill="#aaa"/>
    <rect width="41" height="4" x="666" y="561" fill="#aaa"/>
    <rect width="41" height="4" x="714" y="561" fill="#aaa"/>
    <rect width="41" height="4" x="762" y="561" fill="#aaa"/>
    <rect width="41" height="4" x="810" y="561" fill="#aaa"/>
    <rect width="41" height="4" x="858" y="561" fill="#aaa"/>
  </g>
  
 
 <use id="demo-1" href="#demo-1" class="show demo-1" />
 <use id="demo-2" href="#demo-2" class="hide demo-2" />
 <use id="demo-3" href="#demo-3" class="hide demo-3" />
 

</svg>
