
<svg xmlns="http://www.w3.org/2000/svg" fill="none" viewBox="0 0 861 538"  xmlns:xlink="http://www.w3.org/1999/xlink">
  <defs>
    <linearGradient id="paint0_linear" x1="326.871" x2="430.443" y1="-63.617" y2="519.466" gradientUnits="userSpaceOnUse">
      <stop stop-color="#E5E5E5"/>
      <stop offset=".2" stop-color="#D5D5D5"/>
      <stop offset=".73" stop-color="#C4C4C4"/>
      <stop offset=".93" stop-color="#4F4F4F"/>
    </linearGradient>
    <linearGradient id="paint1_linear" x1="430.5" x2="430.5" y1="518.619" y2="528.716" gradientUnits="userSpaceOnUse">
      <stop stop-color="#fff"/>
      <stop offset="1" stop-color="#E5E5E5"/>
    </linearGradient>
    <mask id="mask0" width="759" height="480" x="49" y="25" mask-type="alpha" maskUnits="userSpaceOnUse">
      <path fill="#C4C4C4" d="M49.567 25.701h758.194V504.85H49.567z"/>
    </mask>

    <mask id="typepath" width="759" height="480" x="49" y="25" mask-type="alpha" maskUnits="userSpaceOnUse">
          <path stroke="rgba(255,0,0,1)" stroke-width="15" class="typepath" d="
      M98 88 H750 H98 
      V104 H750 H98 
      V120 H750 H98 
      V136 H750 H98
      V152.5 H750 H98
      V169 H750 H98
      V185.5 H750 H98
      V202 H750 H98
      V218.5 H750 H98
      V235 H750 H98
      V251.5 H750 H98
      V268 H750 H98
      V284.5 H750 H98
      " />
      <!--  longer code samples
      V301 H750 H98
      V317.5 H750 H98
      V334 H750 H98
      V350.5 H750 H98
      
      V367 H750 H98
      V383.5 H750 H98
      V400 H750 H98
      V416.5 H750 H98
      V433 H750 H98
      V449.5 H750 H98
      V466 H750 H98
      V482.5 H750 H98 -->
    </mask>

    <pattern id="myPattern" x="0" y="-4" width="20" height="33" patternUnits="userSpaceOnUse" >
      <rect x="0" y="0" width="20" height="16.5" fill="#111" />
    </pattern>
  <filter id="filter0_d" x="0" y="15" width="873" height="43" filterUnits="userSpaceOnUse" color-interpolation-filters="sRGB">
    <feFlood flood-opacity="0" result="BackgroundImageFix"/>
    <feColorMatrix in="SourceAlpha" type="matrix" values="0 0 0 0 0 0 0 0 0 0 0 0 0 0 0 0 0 0 127 0"/>
    <feOffset dy="4"/>
    <feGaussianBlur stdDeviation="2"/>
    <feColorMatrix type="matrix" values="0 0 0 0 0 0 0 0 0 0 0 0 0 0 0 0 0 0 0.25 0"/>
    <feBlend mode="normal" in2="BackgroundImageFix" result="effect1_dropShadow"/>
    <feBlend mode="normal" in="SourceGraphic" in2="effect1_dropShadow" result="shape"/>
  </filter> 


  <symbol id="code-angular">
    <text fill="#4F4F4F">
      <tspan x="123.918" y="91.929">/* Angular todo app */ </tspan>
    </text>
    <text fill="#F7F5F5">
      <tspan x="174.367" y="124.741">{ </tspan><tspan x="258.449" y="124.741">, </tspan><tspan x="317.307" y="124.741">, </tspan><tspan x="384.572" y="124.741"> } </tspan><tspan x="443.43" y="124.741"> </tspan><tspan x="123.918" y="141.147">&apos;</tspan><tspan x="308.898" y="141.147">&apos;; </tspan><tspan x="174.367" y="157.554"> { </tspan><tspan x="325.715" y="157.554"> } </tspan><tspan x="384.572" y="157.554"> &apos;./</tspan><tspan x="561.145" y="157.554">&apos;; </tspan><tspan x="123.918" y="173.96"> </tspan><tspan x="191.184" y="190.366">(&apos;</tspan><tspan x="334.123" y="190.366">&apos;, () =&gt; { </tspan><tspan x="123.918" y="206.772"> </tspan><tspan x="224.816" y="206.772">(() =&gt; { </tspan><tspan x="123.918" y="223.179"> </tspan><tspan x="216.408" y="223.179">.</tspan><tspan x="409.797" y="223.179">({ </tspan><tspan x="123.918" y="239.585"> </tspan><tspan x="250.041" y="239.585">: [</tspan><tspan x="401.389" y="239.585">] </tspan><tspan x="123.918" y="255.991"> }); </tspan><tspan x="123.918" y="272.397"> }); </tspan><tspan x="123.918" y="288.804"> </tspan><tspan x="123.918" y="305.21"> </tspan><tspan x="157.551" y="305.21">(&apos;</tspan><tspan x="224.816" y="305.21"> ...&apos;, </tspan><tspan x="334.123" y="305.21">([</tspan><tspan x="477.062" y="305.21">], (</tspan><tspan x="569.553" y="305.21">: </tspan><tspan x="250.041" y="321.616">) =&gt; { </tspan><tspan x="123.918" y="338.022"> </tspan><tspan x="208" y="338.022">(</tspan><tspan x="275.266" y="338.022">).</tspan><tspan x="376.164" y="338.022">(); </tspan><tspan x="123.918" y="354.429"> })); </tspan><tspan x="123.918" y="370.835">});</tspan>
    </text>
    <text fill="#FFFD8D">
      <tspan x="123.918" y="124.741">import</tspan>
    </text>
    <text fill="#FFFD8C">
      <tspan x="409.797" y="124.741">from</tspan><tspan x="123.918" y="157.554">import</tspan><tspan x="350.939" y="157.554">from</tspan>
    </text>
    <text fill="#9CDCFE">
      <tspan x="123.918" y="190.366">describe</tspan><tspan x="140.734" y="206.772">beforeEach</tspan><tspan x="157.551" y="223.179">TestBed</tspan><tspan x="275.266" y="239.585">TodoDataService</tspan><tspan x="140.734" y="305.21">it</tspan><tspan x="283.674" y="305.21">inject</tspan><tspan x="350.939" y="305.21">TodoDataService</tspan><tspan x="123.918" y="321.616">TodoDataService</tspan><tspan x="157.551" y="338.022">expect</tspan>
    </text>
    <text fill="#FF75B5">
      <tspan x="199.592" y="124.741">TestBed</tspan><tspan x="275.266" y="124.741">async</tspan><tspan x="334.123" y="124.741">inject</tspan><tspan x="199.592" y="157.554">TodoDataService</tspan><tspan x="510.695" y="305.21">service</tspan>
    </text>
    <text fill="#FDB76B">
      <tspan x="132.326" y="141.147">@angular/core/testing</tspan><tspan x="418.205" y="157.554">todo-data.service</tspan><tspan x="208" y="190.366">TodoDataService</tspan><tspan x="174.367" y="305.21">should</tspan>
    </text>
    <text fill="#AF83EA">
      <tspan x="224.816" y="223.179">configureTestingModule</tspan>
    </text>
    <text fill="#A981E4">
      <tspan x="174.367" y="239.585">providers</tspan><tspan x="292.082" y="338.022">toBeTruthy</tspan>
    </text>
    <text fill="#1FF1D2">
      <tspan x="216.408" y="338.022">service</tspan>
    </text>
  </symbol>

  

<symbol id="icon-vue">
  <path fill="#4DBA87" d="M3.571 0H0l4.571 8 .017-.029.016.029 4.539-8H5.597l-1.01 1.479L3.572 0z"/>
  <path fill="#435466" d="M7.429 0H5.568l-.986 1.489L3.589 0H1.714l2.852 5.143.016-.03.016.03L7.428 0z"/>
</symbol>


</defs>

  <style>
    @import url(&quot;https://fonts.googleapis.com/css?family=Roboto+Mono&quot;);
    .code-sample {font-family:&apos;Roboto Mono&apos;,monospace; font-size:14px;font-weight:500;letter-spacing:0;white-space:pre}
    .tabs{fill: #606060; white-space: pre; font-family:Roboto, sans-serif; font-size:11px; letter-spacing;0em}
    .linenumbers text{font-family:&apos;Roboto Mono&apos;,monospace}
    .activetab text{font-weight: 500; fill: #888;}
    #code-vue{
      display: -none
    }

    text.code{fill: #aaa}
    text .red{fill: #F04747}
    text .gray{fill: #333}
    text .green{fill: #689553}
    text .blue{fill: #5598D1}
    text .ltblue{fill: #9AD9FB}
    text .fawn{fill: #CE9178}
    .typepath{
      stroke-dasharray: 32000, 32000;
      animation: typing 60s infinite linear;
      }

    @keyframes typing {
      000%{stroke-dashoffset: 32000;}
      100%{stroke-dashoffset: 0;}
    }
  </style>

  <rect width="802.843" height="515.537" x="28.62" y="2" fill="#000" stroke="url(#paint0_linear)" stroke-width="4" rx="9"/>
  <path fill="url(#paint1_linear)" d="M0 518.619h861v10.097H0z"/>
  <path fill="#C4C4C4" d="M0 527.799h861c0 5.576-4.521 10.097-10.097 10.097H10.097C4.521 537.896 0 533.375 0 527.799z"/>

  <rect width="766" height="480" x="48.62" y="24" fill="url(#myPattern)"   />

  <g mask="url(#mask0)" class="linenumbers">
    <text fill="#484747" font-size="14px" letter-spacing="0" white-space="pre">
      <tspan x="70" y="60.72">01 </tspan><tspan x="70" y="77.126">02 </tspan><tspan x="70" y="93.532">03 </tspan><tspan x="70" y="109.938">04 </tspan><tspan x="70" y="126.345">05 </tspan><tspan x="70" y="142.751">06 </tspan><tspan x="70" y="159.157">07 </tspan><tspan x="70" y="175.563">08 </tspan><tspan x="70" y="191.97">09 </tspan><tspan x="70" y="208.376">10 </tspan><tspan x="70" y="224.782">11 </tspan><tspan x="70" y="241.188">12 </tspan><tspan x="70" y="257.595">13 </tspan><tspan x="70" y="274.001">14 </tspan><tspan x="70" y="290.407">15 </tspan><tspan x="70" y="306.813">16 </tspan><tspan x="70" y="323.22">17 </tspan><tspan x="70" y="339.626">18 </tspan><tspan x="70" y="356.032">19 </tspan><tspan x="70" y="372.438">20 </tspan><tspan x="70" y="388.845">21 </tspan><tspan x="70" y="405.251">22 </tspan><tspan x="70" y="421.657">23 </tspan><tspan x="70" y="438.063">24 </tspan><tspan x="70" y="454.47">25 </tspan><tspan x="70" y="470.876">26 </tspan><tspan x="70" y="487.282">27 </tspan><tspan x="70" y="503.688">28 </tspan><tspan x="70" y="520.095">29</tspan>
    </text>
  </g>

<g filter="url(#filter0_d)">
  
<g class="tabbase">
  <rect x="54" y="25" width="750" height="25" fill="#2D2D2D"/>
  <rect x="54" y="35" width="750" height="22" fill="#222"/>
  
</g>
<text class="tabs"><tspan x="80" y="49">vue-contact.ejs</tspan></text>
<text class="tabs"><tspan x="200" y="49">laptop.svg</tspan></text>
<text class="tabs"><tspan x="310" y="49">laptop.svg</tspan></text>
<text class="tabs"><tspan x="415" y="49">reeeder.pug</tspan></text>
<line x1="275" y1="35" x2="275" y2="56" stroke="#111"/>
<line x1="385" y1="35" x2="385" y2="56" stroke="#111"/>
<line x1="495" y1="35" x2="495" y2="56" stroke="#111"/>
</g>

  <g id="code-vue" class="code-sample" >
    <g class="activetab">
      <rect x="54" y="35" width="110" height="22" fill="#191919"/>
      <use href="#icon-vue"  x="65" y="42" width="16" height="16" />
      <text class="tabs"><tspan x="80" y="49">vue-contact.ejs</tspan></text>
    </g>
  <text class="code" x="124" y="92" mask="url(#typepath)" >
    <tspan y="92" x="125" class="gray">&lt;!-- views/contact.ejs --&gt;</tspan>
    <tspan y="108.5" x="125">&lt;<tspan class="blue">div</tspan> <tspan class="ltblue">class</tspan>=<tspan class="fawn">"form-header"</tspan>&gt;</tspan>
    <tspan y="124" x="135"><tspan class="red">&lt;</tspan>% if (Object.keys(errors).length === 0) { %<tspan class="red">&gt;</tspan></tspan>
    <tspan y="140.5" x="145">&lt;<tspan class="blue">h2</tspan>&gt;Send us a message&lt;<tspan class="blue">/h2</tspan>&gt;</tspan>
    <tspan y="157" x="135"><tspan class="red">&lt;</tspan>% } else { %<tspan class="red">&gt;</tspan></tspan>
    <tspan y="173.5" x="145">&lt;<tspan class="blue">h2</tspan> <tspan class="ltblue">class</tspan>="<tspan class="green">errors-heading</tspan>"&gt;Oops, please correct the following:&lt;/<tspan class="blue">h2</tspan>&gt;</tspan>
    <tspan y="190" x="145">&lt;<tspan class="blue">ul</tspan> <tspan class="ltblue">class</tspan>="<tspan class="green">errors-list</tspan>"&gt;</tspan>
    <tspan y="206.5" x="155"><tspan class="red">&lt;</tspan>% Object.values(errors).forEach(error =&gt; { %<tspan class="red">&gt;</tspan></tspan>
    <tspan y="223" x="165">&lt;<tspan class="blue">li</tspan>&gt;<tspan class="red">&lt;</tspan>%= error.msg %<tspan class="red">&gt;</tspan>&lt;/<tspan class="blue">li</tspan>&gt;</tspan>
    <tspan y="239.5" x="155"><tspan class="red">&lt;</tspan>% }) %<tspan class="red">&gt;</tspan></tspan>
    <tspan y="256" x="145">&lt;/<tspan class="blue">ul</tspan>&gt;</tspan>
    <tspan y="272.5" x="135"><tspan class="red">&lt;</tspan>% } %<tspan class="red">&gt;</tspan></tspan>
    <tspan y="289" x="125">&lt;/<tspan class="blue">div</tspan>&gt;</tspan>
  </text>


  </g>


</svg>