<svg xmlns="http://www.w3.org/2000/svg" fill="none" viewBox="0 0 621 388">

  <defs>
    <linearGradient id="paint0_linear" x1="235.562" x2="310.264" y1="-45.868" y2="374.527" gradientUnits="userSpaceOnUse">
      <stop stop-color="#E5E5E5"/>
      <stop offset=".219" stop-color="#D5D5D5"/>
      <stop offset=".728" stop-color="#C4C4C4"/>
      <stop offset=".927" stop-color="#4F4F4F"/>
    </linearGradient>
    <linearGradient id="paint1_linear" x1="310.4" x2="310.4" y1="373.63" y2="381.294" gradientUnits="userSpaceOnUse">
      <stop stop-color="#fff"/>
      <stop offset="1" stop-color="#ddd"/>
    </linearGradient>
    <clipPath id="clip0">
      <rect width="621" height="388" fill="#fff"/>
    </clipPath>

      <mask id="viewport" width="542" height="336" x="39" y="23" maskUnits="userSpaceOnUse">
        <rect id="screen-mask" width="542" height="336" x="39" y="23" fill="#fff"/>
      </mask>
    <link href="https://fonts.googleapis.com/css?family=Raleway:400,600|Roboto|Roboto+Mono" rel="stylesheet" />
  <style>
  <![CDATA[
    text{
      white-space:pre;
      font-family: sans-serif;
    }
    .raleway{
      font-family: "Raleway", sans-serif; 
    }
    text.roboto{
      font-family: "Roboto", sans-serif;  
      font-size: 8px;
    }
    ]]>
  </style>

 
  </defs>

  <rect class="base" width="621" height="388" fill="rgba(0,0,0,0.0"/>

  <g id="laptop" clip-path="url(#clip0)">
    <g id="laptop-image">
      <g id="laptop_2">
        <rect id="lid" width="577.521" height="370.588" x="21.16" y="2" fill="#000" stroke="url(#paint0_linear)" stroke-width="4" rx="8"/>
        <rect id="kb-top" width="620.8" height="7.664" y="373.63" fill="url(#paint1_linear)"/>
        <path id="kb-base" fill="#C4C4C4" d="M0 380.336h620.8a7.664 7.664 0 0 1-7.664 7.664H7.664A7.664 7.664 0 0 1 0 380.336z"/>
      </g>
    </g>

    <rect id="screen-back" width="542" height="336" x="39" y="23" fill="#ddd"/>
    <g id="screen-mask-group">

      <g mask="url(#viewport)">

        <g id="bootstrap-chapter-2">
          <rect id="page" width="478" height="1616" x="70" y="52" fill="#F7F7F7"/>
          <g id="chapter-2">
            <path id="2" fill="#455266" d="M423.812 188h35.668v-8.954h-22.422c.444-.74 1.184-1.554 2.146-2.368a25.35 25.35 0 0 1 3.034-2.368c1.11-.74 2.22-1.48 3.404-2.146a91.309 91.309 0 0 0 3.034-1.702 98.884 98.884 0 0 0 3.33-1.998c1.184-.74 2.22-1.702 3.256-2.738a15.121 15.121 0 0 0 2.442-3.552c.592-1.332.962-2.812.962-4.588 0-1.776-.37-3.478-1.11-5.032a11.684 11.684 0 0 0-3.108-3.996c-1.332-1.11-3.034-1.998-4.958-2.59a23.466 23.466 0 0 0-6.734-.962c-2.22 0-4.366.296-6.29.74-1.924.444-3.7 1.036-5.328 1.776-1.628.74-2.96 1.48-4.144 2.294-1.184.814-2.146 1.554-2.738 2.22l6.364 7.326c.592-.74 1.184-1.406 1.924-2.072.74-.666 1.48-1.258 2.368-1.85.888-.518 1.776-.962 2.812-1.258.962-.296 2.072-.518 3.256-.518 2.22 0 3.922.592 5.106 1.628 1.184 1.036 1.776 2.294 1.776 3.774 0 .962-.296 1.776-.814 2.516-.592.74-1.332 1.406-2.368 2.072-1.036.74-2.368 1.48-3.922 2.294-1.554.814-3.33 1.776-5.328 2.812-2.368 1.332-4.292 2.59-5.772 3.922a18.876 18.876 0 0 0-3.552 4.292 15.134 15.134 0 0 0-1.776 5.032c-.37 1.776-.518 3.774-.518 5.994z"/>
            <g id="Chapter" fill="#9AB">
              <path d="M418.372 127.68c0 .552.096 1.08.3 1.608s.492.996.852 1.404c.36.408.804.744 1.308.996.504.264 1.056.384 1.668.384.336 0 .696-.036 1.056-.132.36-.084.696-.216 1.008-.384.312-.168.6-.372.852-.612a2.64 2.64 0 0 0 .588-.852l-1.356-.78a1.908 1.908 0 0 1-.912.996 2.21 2.21 0 0 1-.588.228 2.722 2.722 0 0 1-.6.072c-.372 0-.708-.072-1.02-.24a2.41 2.41 0 0 1-.792-.636 2.926 2.926 0 0 1-.504-.912 3.309 3.309 0 0 1-.18-1.092c0-.336.048-.672.156-1.008.096-.336.252-.648.456-.912.204-.264.456-.492.768-.66.312-.168.672-.252 1.092-.252a2.758 2.758 0 0 1 1.164.276c.18.096.348.228.516.396.156.168.288.36.408.6l1.272-.876a3.362 3.362 0 0 0-1.284-1.344c-.576-.336-1.248-.516-2.028-.516-.672 0-1.26.132-1.776.372-.528.252-.96.576-1.32.972-.36.408-.636.864-.828 1.368a4.284 4.284 0 0 0-.276 1.536zM432.803 132v-3.924c0-.312-.036-.612-.084-.912a2.52 2.52 0 0 0-.3-.792 1.667 1.667 0 0 0-.6-.552c-.264-.144-.588-.216-.996-.216-.48 0-.924.12-1.32.336a2.342 2.342 0 0 0-.936.936v-3.636h-1.608V132h1.608v-3.672a1.56 1.56 0 0 1 .264-.528c.12-.156.252-.288.396-.408a1.78 1.78 0 0 1 .456-.276c.156-.06.312-.096.456-.096.336 0 .588.12.78.36.18.24.276.6.276 1.092V132h1.608zM435.917 132.12c.456 0 .876-.096 1.284-.288a2.841 2.841 0 0 0 1.02-.84l.036.348a.815.815 0 0 0 .3.54c.168.144.396.204.708.204.192 0 .432-.024.708-.084v-1.368c-.144 0-.24-.048-.3-.12s-.084-.192-.084-.36v-1.956c0-.84-.252-1.476-.756-1.92-.504-.444-1.2-.672-2.1-.672-.936 0-1.812.276-2.616.804l.492 1.02c.336-.228.66-.408.984-.528.312-.12.648-.18.984-.18.456 0 .804.12 1.044.336.24.228.36.552.36.96v.36a3.915 3.915 0 0 0-.72-.204 4.586 4.586 0 0 0-.816-.072c-.396 0-.756.06-1.08.156a2.81 2.81 0 0 0-.852.408c-.24.18-.42.396-.552.648a1.739 1.739 0 0 0-.192.816c0 .288.048.552.156.792a1.997 1.997 0 0 0 1.14 1.056c.264.096.54.144.852.144zm.456-1.176c-.312 0-.564-.084-.768-.264a.841.841 0 0 1-.312-.684c0-.288.132-.516.396-.708.264-.192.6-.288 1.02-.288.204 0 .42.024.648.072.216.048.432.096.624.168v.72c0 .168-.096.324-.264.456a1.43 1.43 0 0 1-.576.384c-.24.096-.504.144-.768.144zM444.859 132.12c.396 0 .768-.084 1.104-.252.336-.168.624-.396.864-.696.24-.288.432-.636.576-1.044.132-.396.204-.828.204-1.284a3.65 3.65 0 0 0-.228-1.248 3.06 3.06 0 0 0-.612-1.032 2.933 2.933 0 0 0-.924-.696 2.767 2.767 0 0 0-1.176-.264c-.48 0-.912.108-1.272.324a2.586 2.586 0 0 0-.9.864v-1.08h-1.404v8.844h1.608v-3.66c.204.384.492.684.864.9.36.216.792.324 1.296.324zm-.54-1.368c-.348 0-.672-.108-.96-.348-.3-.24-.516-.54-.66-.9v-1.476c.048-.144.132-.288.24-.42.108-.12.228-.24.372-.336a1.39 1.39 0 0 1 .444-.216c.156-.048.312-.084.468-.084a1.666 1.666 0 0 1 1.236.54c.156.168.276.372.372.6.084.228.132.468.132.732 0 .252-.048.492-.12.72-.084.24-.192.444-.336.612-.144.18-.324.324-.528.42-.204.108-.42.156-.66.156zM452.383 131.676l-.324-1.272a2.637 2.637 0 0 1-.384.144c-.168.06-.324.084-.492.084a.662.662 0 0 1-.432-.132c-.12-.096-.168-.252-.168-.48v-3.072h1.32v-1.236h-1.32v-2.04h-1.608v2.04h-.828v1.236h.828v3.612c0 .288.036.528.132.72.084.192.204.36.348.48s.324.216.516.264c.192.06.408.084.636.084.336 0 .672-.048.984-.144.312-.096.576-.192.792-.288zM455.984 132.12c.696 0 1.308-.144 1.812-.456.504-.312.876-.708 1.116-1.188l-1.38-.384c-.108.264-.3.468-.588.624a1.858 1.858 0 0 1-.9.228c-.216 0-.408-.036-.6-.108a1.418 1.418 0 0 1-.516-.312 1.524 1.524 0 0 1-.372-.492 1.843 1.843 0 0 1-.18-.66h4.86c.012-.06.024-.144.024-.24s.012-.192.012-.3c0-.42-.084-.828-.228-1.224a3.002 3.002 0 0 0-.648-1.032 3.354 3.354 0 0 0-1.032-.708 3.563 3.563 0 0 0-1.368-.264c-.516 0-.984.096-1.392.264-.408.18-.756.42-1.044.72-.288.3-.516.648-.66 1.044a3.402 3.402 0 0 0-.228 1.26c0 .432.072.852.228 1.236.156.396.384.744.672 1.032.288.3.636.54 1.044.708.408.168.864.252 1.368.252zm1.632-3.792h-3.264c.012-.228.06-.444.156-.636a1.86 1.86 0 0 1 .36-.492c.144-.132.3-.24.492-.312.192-.072.396-.12.612-.12.432 0 .804.144 1.116.432.312.288.48.66.528 1.128zM463.996 127.104v-1.464c-.048 0-.084-.012-.132-.012h-.192c-.168 0-.348.036-.528.108-.18.072-.36.168-.528.288-.18.132-.348.288-.492.456-.156.168-.288.36-.396.576v-1.344h-1.476V132h1.608v-3.804c.168-.36.444-.624.828-.804.384-.18.816-.276 1.308-.288z"/>
            </g>
          </g>
          <text id="Syed Fazel Rahman" class="raleway" fill="#333" font-size="14" font-weight="bold">
            <tspan x="157.744" y="136.16">Understanding Bootstrap: How it </tspan><tspan x="218.939" y="155.719">Works, and What’s New</tspan>
          </text>
          <text id="Syed Fazel Rahman_2" fill="#9AB" class="raleway" font-size="13" font-weight="bold">
            <tspan x="257.093" y="174.22">Syed Fazel Rahman</tspan>
          </text>
          <text id="Getting Started" fill="#333" class="raleway" font-size="13" font-weight="bold">
            <tspan x="121" y="333.22">Getting Started</tspan>
          </text>
          <text fill="#000" class="roboto"  font-weight="500">
            <tspan x="121" y="244.422">Version 4 of Bootstrap is a major change from all its past versions. It&apos;s a mobile-first framework and can </tspan><tspan x="121" y="258.484">claim to be one of the best CSS frameworks for building responsive website designs.</tspan>
          </text>
          <text  fill="#000" class="roboto" font-weight="300">
            <tspan x="121" y="286.422">Since Bootstrap is a mobile-first framework, by default whatever you design or create will be mobile </tspan><tspan x="121" y="300.484">compatible or responsive. Isn&apos;t that cool?</tspan>
          </text>
          <text class="roboto" fill="#000"  font-weight="300" >
            <tspan x="121" y="356.422">Bootstrap has a new website design which is itself built using the latest version of the Bootstrap </tspan><tspan x="121" y="370.484">framework (version 4 at the time of writing). You can either include the precompiled version of Bootstrap </tspan><tspan x="121" y="384.547">using a CDN or download the archive file here.</tspan>
          </text>
        </g>



        <g id="menu-min">


          <rect id="menubase" width="548" height="43.111" x="39" y="23" fill="#000"/>
          <rect id="menunav" width="548" height="21.076" x="39" y="45.035" fill="#222"/>
            <line id="Line" x1="250.016" x2="250.016" y1="48.867" y2="64.195" stroke="#5F5F5F" stroke-width=".5"/>
            <line id="Line_2" x1="151.339" x2="151.339" y1="48.867" y2="64.195" stroke="#5F5F5F" stroke-width=".5"/>

          <text id="Your First Week with Bootstrap" fill="#F5EFEA" font-family="Roboto" font-size="9">
            <tspan x="77.321" y="37">Your First Week with Bootstrap</tspan>
          </text>

          <path id="chevron" fill="#F5EFEA" d="M137.197 58.447l-.958-.958 3.832-3.832 3.832 3.832-.958.958-2.874-2.874-2.874 2.874z"/>
          <text id="Chapters" fill="#F5EFEA" font-family="Roboto" font-size="8">
            <tspan x="85.943" y="58">Chapters</tspan>
          </text>

          <path id="chevron-2" fill="#F5EFEA" d="M235.396 58.447l-.958-.958 3.832-3.832 3.832 3.832-.958.958-2.874-2.874-2.874 2.874z"/> 
          <text id="My Bookmarks" fill="#F5EFEA" font-family="Roboto" font-size="8">
            <tspan x="163.543" y="58">My Bookmarks</tspan>
          </text>

          <path id="bookmark-icon" fill="#fff" d="M258.388 52.74a1 1 0 0 1 1-1h4.706a1 1 0 0 1 1 1v7.623l-3.353-2.156-3.353 2.156V52.74z"/>
          <text id="Add Bookmarks" fill="#F5EFEA" font-family="Roboto" font-size="8">
            <tspan x="272" y="58">Add Bookmarks</tspan>
          </text>

          <g id="download-icon" fill="#F5EFEA">
            <text id="Download"  font-family="Roboto" font-size="8">
              <tspan x="510.349" y="58">Download</tspan>
            </text>
            <path d="M498.028 50.783c.19 0 .345.16.345.359v2.634h1.562c.307 0 .461.387.244.614l-2.52 2.625a.336.336 0 0 1-.488 0l-2.521-2.625c-.217-.227-.063-.614.244-.614h1.563v-2.634c0-.198.154-.36.345-.36h1.226z"/>
            <path fill-rule="evenodd" d="M497.138 57.674l-1.16-1.143h-2.53c-.19 0-.344.16-.344.36v2.155c0 .198.154.359.344.359h7.933c.19 0 .345-.16.345-.36V56.89a.353.353 0 0 0-.345-.36h-2.529l-1.193 1.144a.336.336 0 0 1-.521 0zm2.26 1.372a.44.44 0 0 0 .431-.45.44.44 0 0 0-.431-.448.44.44 0 0 0-.431.449c0 .248.193.449.431.449zm1.638-.45a.44.44 0 0 1-.431.45.44.44 0 0 1-.431-.45.44.44 0 0 1 .431-.448.44.44 0 0 1 .431.449z" clip-rule="evenodd"/>
          </g>
          

          <g id="dashboard-icon" fill="#F5EFEA">
            <path d="M497.894 29.706h-.958v.958h-3.832v.958h3.832v.958h.958v-.958h3.832v-.958h-3.832v-.958zM501.726 33.538h-1.916v-.958h-.958v.958h-5.748v.958h5.748v.958h.958v-.958h1.916v-.958zM501.726 36.412v.958h-5.748v.958h-.958v-.958h-1.916v-.958h1.916v-.958h.958v.958h5.748z"/>
          <text id="Dashboard"  font-family="Roboto" font-size="8">
            <tspan x="507.475" y="37">Dashboard</tspan>
          </text>
          </g>

    

          

          <g id="library-icon" fill="#F5EFEA">
          <text id="Library" font-family="Roboto" font-size="8">
            <tspan x="447" y="37">Library</tspan>
          </text>
            <rect id="Rectangle 3" width="1.916" height="4.79" x="432.748" y="30.664"/>
            <rect id="Rectangle 3.1" width="1.916" height="4.79" x="435.622" y="30.664"/>
            <rect id="Rectangle 3.6" width="2.874" height="7.782" x="437.639" y="29.869" transform="rotate(-15.075 437.639 29.869)"/>
            <rect id="Rectangle 3.2" width="1.916" height=".958" x="432.748" y="36.412"/>
            <rect id="Rectangle 3.3" width="1.916" height=".958" x="435.622" y="36.412"/>
            <rect id="Rectangle 3.4" width="1.916" height=".958" x="432.748" y="28.748"/>
            <rect id="Rectangle 3.5" width="1.916" height=".958" x="435.622" y="28.748"/>
          </g>

          <g id="textsize-icon" fill="#F5EFEA">
            <path fill-rule="evenodd" d="M404.573 35.594h3.115l.598 1.776h1.889l-3.227-8.622h-1.647l-3.209 8.622h1.889l.592-1.776zm2.635-1.44h-2.155l1.072-3.227 1.083 3.228z" clip-rule="evenodd"/>
            <path d="M413.076 29.653h-1.103v1.102h-1.102v1.103h1.102v1.102h1.103v-1.102h1.102v-1.103h-1.102v-1.102zM410.871 34.063h3.307v1.102h-3.307v-1.102z"/>
          </g>
          


        </g>
      </g>
    </g>
  </g>

</svg>