<?xml-stylesheet type="text/css" href="../../styles/css/laptop.css" ?> 
<svg xmlns="http://www.w3.org/2000/svg" fill="none" viewBox="0 0 861 538">

  <defs>
    <mask id="mask10" width="750" height="440" x="90" y="40" class="stepmask" mask-type="alpha" maskUnits="userSpaceOnUse">
      <path fill="#FD2222" d="M50 0h700v500H50z"/>
    </mask>
    <linearGradient id="paint0_linear" x1="326.871" x2="430.443" y1="-63.617" y2="519.466" gradientUnits="userSpaceOnUse">
      <stop stop-color="#E5E5E5"/>
      <stop offset=".2" stop-color="#D5D5D5"/>
      <stop offset=".73" stop-color="#C4C4C4"/>
      <stop offset=".93" stop-color="#4F4F4F"/>
    </linearGradient>
    <linearGradient id="paint1_linear" x1="430.5" x2="430.5" y1="518.619" y2="528.716" gradientUnits="userSpaceOnUse">
      <stop stop-color="#fff"/>
      <stop offset="1" stop-color="#E5E5E5"/>
    </linearGradient>
    <mask id="mask0" width="760" height="480" x="49" y="25" mask-type="alpha" maskUnits="userSpaceOnUse">
      <path fill="#C4C4C4" d="M49.567 25.701h758.194V504.85H49.567z"/>
      <path d="M49 25h760v480H49z"/>
    </mask>
    <filter id="filter0_d" width="873" height="43" x="0" y="15" color-interpolation-filters="sRGB" filterUnits="userSpaceOnUse">
      <feFlood flood-opacity="0" result="BackgroundImageFix"/>
      <feColorMatrix in="SourceAlpha" type="matrix" values="0 0 0 0 0 0 0 0 0 0 0 0 0 0 0 0 0 0 127 0"/>
      <feOffset dy="4"/>
      <feGaussianBlur stdDeviation="2"/>
      <feColorMatrix type="matrix" values="0 0 0 0 0 0 0 0 0 0 0 0 0 0 0 0 0 0 0.25 0"/>
      <feBlend in2="BackgroundImageFix" mode="normal" result="effect1_dropShadow"/>
      <feBlend in="SourceGraphic" in2="effect1_dropShadow" mode="normal" result="shape"/>
    </filter>
    <symbol id="icon-vue">
      <path fill="#4DBA87" d="M3.571 0H0l4.571 8 .017-.029.016.029 4.539-8H5.597l-1.01 1.479L3.572 0z"/>
      <path fill="#435466" d="M7.429 0H5.568l-.986 1.489L3.589 0H1.714l2.852 5.143.016-.03.016.03L7.428 0z"/>
    </symbol>
    <symbol id="icon-css" width="30" height="34" viewBox="0 0 30 34">
      <path fill="#264DE4" fill-rule="evenodd" d="M26.9 30.408L29.552.686H.43l2.65 29.727 11.893 3.302L26.9 30.408zm-3.447-16.266l.659-7.38H5.849l.331 3.646h13.936l-.332 3.734H6.506l.327 3.646h12.635l-.423 4.728-4.066 1.098h-.004l-4.06-1.096-.26-2.907h-3.66l.511 5.724 7.469 2.073.016-.005 7.462-2.068.912-10.214.088-.98z" clip-rule="evenodd"/>
    </symbol>
    <symbol id="icon-html" width="30" height="34" viewBox="0 0 30 34">
      <path fill="#EC613B" fill-rule="evenodd" d="M29.547.686H.43l2.652 29.743 11.874 3.363 11.942-3.362L29.547.686zm-19.45 13.195l-.321-3.75 13.947.005.319-3.617-18.27-.004.968 11.049h12.654l-.452 4.725-4.035 1.11-4.097-1.118-.26-2.91H6.931l.457 5.753 7.518 2 7.458-1.99 1.032-11.252h-13.3v-.001z" clip-rule="evenodd"/>
    </symbol>
  </defs>
  <style>
  
  </style>
  <g class="wrapper waiting">
    <rect width="802.843" height="515.537" x="28.62" y="2" fill="#000" stroke="url(#paint0_linear)" stroke-width="4" rx="9"/>
    <path fill="url(#paint1_linear)" d="M0 518.619h861v10.097H0z"/>
    <path fill="#C4C4C4" d="M0 527.799h861c0 5.576-4.521 10.097-10.097 10.097H10.097C4.521 537.896 0 533.375 0 527.799z"/>
    <path fill="#111" d="M48.62 24h766v480h-766z"/>
    <g class="linenumbers" mask="url(#mask0)">
      <text fill="#484747" font-size="14" letter-spacing="0" white-space="pre">
        <tspan x="70" y="60.72">01 </tspan><tspan x="70" y="77.126">02 </tspan><tspan x="70" y="93.532">03 </tspan><tspan x="70" y="109.938">04 </tspan><tspan x="70" y="126.345">05 </tspan><tspan x="70" y="142.751">06 </tspan><tspan x="70" y="159.157">07 </tspan><tspan x="70" y="175.563">08 </tspan><tspan x="70" y="191.97">09 </tspan><tspan x="70" y="208.376">10 </tspan><tspan x="70" y="224.782">11 </tspan><tspan x="70" y="241.188">12 </tspan><tspan x="70" y="257.595">13 </tspan><tspan x="70" y="274.001">14 </tspan><tspan x="70" y="290.407">15 </tspan><tspan x="70" y="306.813">16 </tspan><tspan x="70" y="323.22">17 </tspan><tspan x="70" y="339.626">18 </tspan><tspan x="70" y="356.032">19 </tspan><tspan x="70" y="372.438">20 </tspan><tspan x="70" y="388.845">21 </tspan><tspan x="70" y="405.251">22 </tspan><tspan x="70" y="421.657">23 </tspan><tspan x="70" y="438.063">24 </tspan><tspan x="70" y="454.47">25 </tspan><tspan x="70" y="470.876">26 </tspan><tspan x="70" y="487.282">27 </tspan><tspan x="70" y="503.688">28 </tspan><tspan x="70" y="520.095">29</tspan>
      </text>
    </g>
 
    <g id="tabs" filter="url(#filter0_d)">
      <g class="tabbase">
        <path fill="#2D2D2D" d="M54 25h750v25H54z"/>
        <path fill="#222" d="M54 35h750v22H54z"/>
      </g>
      <use width="16" height="16" x="115" y="42" href="#icon-vue"/>
      <text class="tabs">
        <tspan x="135" y="49">vue.ejs</tspan>
      </text>
      <use width="12" height="12" x="215" y="40" href="#icon-css"/>
      <text class="tabs">
        <tspan x="235" y="49">style.scss</tspan>
      </text>
      <use width="12" height="12" x="315" y="40" href="#icon-html"/>
      <text class="tabs">
        <tspan x="335" y="49">laptop.html</tspan>
      </text>
      <use width="16" height="16" x="415" y="42" href="#icon-vue"/>
      <text class="tabs">
        <tspan x="430" y="49">reeeder.pug</tspan>
      </text>
      <path stroke="#111" d="M105 35v21M205 35v21M305 35v21M405 35v21M505 35v21"/>
    </g>

    <g id="screenpos" x="100" fill="none" viewbox="0 0 525 272">
      <path fill="#111" d="M0 0h525v272H0z"/>
      <g class="code node">
        <g id="code-vue" class="code-sample">
          <g class="activetab">
            <path d="M52 35h98v22H52z"/>
            <use width="16" height="16" x="65" y="42" href="#icon-vue"/>
            <text x="40" y="36" class="tabs">
              vue.ejs
            </text>
          </g>
        </g>
        <text x="12" y="12" class="codepos"  fill="#E5E5E5">
          <tspan y="16.2" x="12"><tspan class="purple">class</tspan> <tspan class="yellow">ShoppingList</tspan> <tspan class="purple">extends </tspan> <tspan class="yellow">React.Component </tspan> {</tspan>
          <tspan dy="16.5" x="18"><tspan class="blue">  render()</tspan> {  </tspan>
          <tspan dy="16.5" x="24">    <tspan class="purple">return</tspan> ( </tspan>
          <tspan dy="16.5" x="30">      &lt;<tspan class="red">div</tspan> className=&quot;<tspan class="green">shopping-list</tspan>&quot;&gt; </tspan>
          <tspan dy="16.5" x="36">        &lt;<tspan class="red">h1</tspan>&gt;<tspan class="white">Shopping List for </tspan>{<tspan class="purple">this</tspan>.<tspan class="white">props</tspan>.<tspan class="white">name</tspan>}&lt;<tspan class="red">/h1</tspan>&gt; </tspan>
          <tspan dy="16.5" x="36">        &lt;<tspan class="red">ul</tspan>&gt; </tspan>
          <tspan dy="16.5" x="44">          &lt;<tspan class="red">li</tspan>&gt;<tspan class="white">Instagram</tspan>&lt;<tspan class="red">/li</tspan>&gt; </tspan>
          <tspan dy="16.5" x="44">          &lt;<tspan class="red">li</tspan>&gt;<tspan class="white">WhatsApp</tspan>&lt;<tspan class="red">/li</tspan>&gt; </tspan>
          <tspan dy="16.5" x="44">          &lt;<tspan class="red">li</tspan>&gt;<tspan class="white">Oculus</tspan>&lt;<tspan class="red">/li</tspan>&gt; </tspan>
          <tspan dy="16.5" x="36">        &lt;<tspan class="red">/ul</tspan>&gt; </tspan>
          <tspan dy="16.5" x="30">      &lt;<tspan class="red">/div</tspan>&gt; </tspan>
          <tspan dy="16.5" x="24">    ); </tspan>
          <tspan dy="16.5" x="18">  } </tspan>
          <tspan dy="16.5" x="12">} </tspan>
        </text>
      </g>
      <g class="code css">
        <g id="code-css" class="code-sample">
          <g class="activetab">
            <path fill="#1e1e1e" d="M52 35h98v22H52z"/>
            <use width="11" height="11" x="66" y="40" href="#icon-css"/>
            <text x="41" y="36" class="tabs">
              style.scss
            </text>
          </g>
        </g>
        <text x="12" y="12" class="codepos">
          <tspan y="16.2" x="12"><tspan class="red">.steps</tspan> {</tspan>
          <tspan dy="16.5" x="18">  <tspan class="yellow">transform</tspan>: <tspan class="fawn">scale</tspan>(<tspan class="white">1.4, 1.8</tspan>) <tspan class="fawn">translate</tspan>(<tspan class="blue">$startingpos</tspan>, <tspan class="white">54px</tspan>);</tspan>
          <tspan dy="16.5" x="18">  <tspan class="yellow">animation</tspan>: <tspan class="purple">letterfeed</tspan> <tspan class="blue">$codetime</tspan> linear infinite;</tspan>
          <tspan dy="16.5" x="12">}</tspan>
          <tspan dy="16.5" x="12"><tspan class="red">.steps</tspan> <tspan class="green">path</tspan> {</tspan>
          <tspan dy="16.5" x="18">  <tspan class="yellow">fill</tspan>:<tspan class="white"> #111;</tspan></tspan>
          <tspan dy="16.5" x="12">}</tspan>
          <tspan dy="16.5" x="12"> </tspan>
          <tspan dy="16.5" x="12"><tspan class="gray">/* animations */</tspan></tspan>
          <tspan dy="16.5" x="12"><tspan class="green">@keyframes</tspan> <tspan class="purple">letterfeed</tspan> { <tspan class="gray">/* move steps right to reveal code */</tspan></tspan>
          <tspan dy="16.5" x="18">  000% {</tspan>
          <tspan dy="16.5" x="24">    <tspan class="yellow">transform</tspan>: <tspan class="fawn">scale</tspan>(<tspan class="white">1.4, 1.8</tspan>) <tspan class="fawn">translate</tspan>(<tspan class="blue">$startingpos</tspan>, <tspan class="white">54px</tspan>);</tspan>
          <tspan dy="16.5" x="18">  }</tspan>
          <tspan dy="16.5" x="18">  100% {</tspan>
          <tspan dy="16.5" x="24">    <tspan class="yellow">transform</tspan>: <tspan class="fawn">scale</tspan>(<tspan class="white">1.4, 1.8</tspan>) <tspan class="fawn">translate</tspan>(<tspan class="blue">$finnishpos</tspan>, <tspan class="white">54px</tspan>);</tspan>
          <tspan dy="16.5" x="18">  }</tspan>
          <tspan dy="16.5" x="12">}</tspan>
        </text>
      </g>
      <g class="code html">
        <g id="code-html" class="code-sample">
          <g class="activetab">
            <path fill="#1e1e1e" d="M52 35h98v22H52z"/>
            <use width="11" height="11" x="66" y="40" href="#icon-html"/>
            <text x="44" y="36" class="tabs">
              laptop.html
            </text>
          </g>
        </g>
        <text fill="#D4D4D4" >
          <tspan x="24" y="16.2">&lt;div class=&quot;form-header&quot;&gt; </tspan><tspan x="24" y="32.2"> &lt;% if (Object.keys(errors).length === 0) { %&gt; </tspan><tspan x="24" y="48.174"> &lt;h2&gt;Send us a message&lt;/h2&gt; </tspan><tspan x="24" y="64.158"> &lt;% } else { %&gt; </tspan><tspan x="24" y="80.143"> &lt;h2 class=&quot;errors-heading&quot;&gt;Oops, please correct the following:&lt;/h2&gt; </tspan><tspan x="24" y="96.127"> &lt;ul class=&quot;errors-list&quot;&gt; </tspan><tspan x="24" y="112.111"> &lt;% Object.values(errors).forEach(error =&gt; { %&gt; </tspan><tspan x="24" y="128.096"> &lt;li&gt;&lt;%= error.msg %&gt;&lt;/li&gt; </tspan><tspan x="24" y="144.08"> &lt;% }) %&gt; </tspan><tspan x="24" y="160.064"> &lt;/ul&gt; </tspan><tspan x="24" y="176.049"> &lt;% } %&gt; </tspan><tspan x="24" y="192.033">&lt;/div&gt;</tspan>
        </text>
      </g>
    </g>


    <path stroke="#000" stroke-width="0" d="M100 60h620v420H100z"/>

    <g mask="url(#mask10)">
      <g class="steps">
        <path  d="M10647.8 0h505.154v12H10647.8zM10142.7 12h1010.31v12H10142.7zM9637.54 24H11153v12H9637.54zM9132.39 36H11153v12H9132.39zM8617.33 48H11153v12H8617.33zM8112.17 60H11153v12H8112.17zM7607.02 72H11153v12H7607.02zM7101.87 84H11153v12H7101.87zM6596.71 96H11153v12H6596.71zM6091.56 108H11153v12H6091.56zM5586.4 120H11153v12H5586.4zM5081.25 132H11153v12H5081.25zM4566.19 144H11153v12H4566.19zM4061.04 156H11153v12H4061.04zM3555.89 168H11153v12H3555.89zM3050.73 180H11153v12H3050.73zM2535.67 192H11153v12H2535.67zM2020.61 204H11153v12H2020.61zM1515.46 216H11153v12H1515.46zM1010.31 228h10142.7v12H1010.31zM505.153 240h10647.8v12H505.153zM0 252h11153v12H0z"/> 
      </g> 
    </g>  
  </g>
</svg>