<svg width="50" height="50" viewBox="0 0 50 50" fill="none" xmlns="http://www.w3.org/2000/svg">
<circle cx="25" cy="25" r="24.5" fill="white" stroke="#D5D5D5"/>
<path d="M32.436 26L25.936 25C25.1027 24.8334 22.836 24.8 22.436 26C22.036 27.2 22.436 28.5 23.436 29L28.936 30.5L28.436 31.5M32.436 26C33.1027 26.3333 33.436 27 33.936 28.5C34.4104 29.9231 33.436 34.4999 31.936 36.4999C30.736 38.0999 29.436 38.4999 28.936 38.4999H21.936C21.1027 38.4999 19.136 38.1999 17.936 36.9999C16.736 35.7999 16.1027 34.1666 15.936 33.4999V27.4999V22.4999C15.936 21.9999 16.236 20.8999 17.436 20.4999C18.636 20.0999 19.6027 20.9999 19.936 21.4999C19.936 20.6666 20.336 19 21.936 19C23.536 19 23.936 20 23.936 20.4999C24.1027 19.6666 24.736 18 25.936 18C27.136 18 27.7694 19 27.936 19.5V13.5C27.936 12 28.836 11 30.436 11C31.6462 11 32.436 12 32.436 12.5V26Z" stroke="#787878"/>
<path d="M27.936 19V25.2109C27.3931 25.2109 26.0811 25 25.436 25C25.036 25 24.436 25 23.936 25M23.936 25C23.936 25 23.936 21.5 23.936 20.5V23.5V25ZM23.936 25C23.936 25 22.936 25 22.436 25.5C21.936 26 21.936 26.5 21.936 27C21.936 27 21.736 26.9 20.936 26.5C20.136 26.1 19.936 25.3333 19.936 25M19.936 25V21.5C19.936 22.5 19.936 24 19.936 25ZM19.936 25C19.6578 25.8692 19.136 27 17.936 27C16.736 27 15.936 26.5 15.936 25" stroke="#787878"/>
<path d="M25.3901 16.3935C26.8695 16.3935 28.9123 15.328 30.3914 14.3307M30.3914 14.3307C31.5186 14.5327 32.223 16.3935 34.9702 16.3935M30.3914 14.3307C29.7558 14.2167 28.0914 14.6798 26.8695 14.3307C25.0381 13.8073 24.3974 12.7605 24.4744 12.5257C24.6153 12.0959 26.0241 12.0959 27.2216 12.5257C28.8356 13.1049 29.7576 15.2761 33.9135 14.3307C34.9217 14.1013 36.2381 13.2133 36.1677 12.5257C36.1233 12.0925 34.6499 11.9318 33.2092 12.5257C32.3629 12.8745 31.382 13.6627 30.3914 14.3307Z" stroke="#787878"/>
</svg>
