<svg width="51" height="50" viewBox="0 0 51 50" fill="none" xmlns="http://www.w3.org/2000/svg">
<circle cx="25.064" cy="25" r="23.5" fill="white" stroke="#C4C4C4" stroke-width="3"/>
<path d="M30.1942 8.47815C28.5027 8.47815 27.1093 9.93435 27.1093 11.7021V15.8688C26.7846 15.746 26.444 15.6673 26.081 15.6673C24.9884 15.6673 24.0267 16.272 23.4781 17.1786C23.0295 16.9112 22.5164 16.742 21.9677 16.742C20.8752 16.742 19.9135 17.3467 19.3648 18.2532C18.9162 17.9859 18.4031 17.8167 17.8545 17.8167C16.1629 17.8167 14.7695 19.2728 14.7695 21.0406V23.19V30.7126C14.7695 34.8547 18.0043 38.2352 21.9677 38.2352H27.3985C30.5531 38.2352 33.3468 36.0796 34.2754 32.9291L35.0787 30.2424V30.2088C35.2524 29.6018 35.4866 28.471 35.2715 27.1863C34.9954 25.5391 34.1034 24.4912 33.2792 23.9288V11.7021C33.2792 9.93435 31.8858 8.47815 30.1942 8.47815ZM30.1942 10.6275C30.7753 10.6275 31.2226 11.0949 31.2226 11.7021V23.19L29.1659 22.9213V18.8913V11.7021C29.1659 11.0949 29.6132 10.6275 30.1942 10.6275ZM26.081 17.8167C26.662 17.8167 27.1093 18.2841 27.1093 18.8913V22.619L25.0527 22.3504V18.8913C25.0527 18.2841 25.5 17.8167 26.081 17.8167ZM21.9677 18.8913C22.5488 18.8913 22.996 19.3588 22.996 19.966V22.1153V22.5855C22.3338 22.8944 21.7878 23.4463 21.4857 24.1639C21.1512 23.9895 20.9394 23.6179 20.9394 23.19V21.0406V19.966C20.9394 19.3588 21.3867 18.8913 21.9677 18.8913ZM17.8545 19.966C18.4355 19.966 18.8828 20.4334 18.8828 21.0406V23.19C18.8828 23.7972 18.4355 24.2646 17.8545 24.2646C17.2734 24.2646 16.8262 23.7972 16.8262 23.19V22.1153V21.0406C16.8262 20.4334 17.2734 19.966 17.8545 19.966ZM24.1529 24.4325C24.2797 24.4107 24.4029 24.3988 24.5385 24.4325L24.5707 24.4661H24.6349L31.2547 25.3729H31.2868H31.319C31.319 25.3729 31.6422 25.395 32.0902 25.6751C32.5382 25.9552 33.0213 26.401 33.2149 27.5558C33.3392 28.2979 33.1697 29.313 33.0864 29.6043L32.3151 32.291C31.6499 34.5482 29.659 36.0859 27.3985 36.0859H21.9677C19.1155 36.0859 16.8262 33.6933 16.8262 30.7126V26.2124C17.1509 26.3352 17.4915 26.4139 17.8545 26.4139C18.643 26.4139 19.3631 26.0913 19.9111 25.5744C20.3122 25.9527 20.8113 26.2287 21.3572 26.3468C21.4241 26.583 21.5239 26.8043 21.6464 27.0184C22.0428 27.7115 22.6838 28.206 23.4781 28.4961L23.5423 28.5297H23.5745L27.3664 29.5708L27.0772 30.1081L28.8767 31.1492L29.8086 29.3693L30.4192 28.1603L29.1659 27.8244L24.185 26.4811C23.7288 26.3145 23.5159 26.0886 23.4138 25.9102C23.3117 25.7317 23.2703 25.5524 23.3495 25.2049C23.4465 24.7799 23.7725 24.498 24.1529 24.4325Z" fill="#333333"/>
<path d="M25.4541 14.8936C26.9334 14.8936 28.9762 13.8282 30.4554 12.8308M30.4554 12.8308C31.5825 13.0328 32.2869 14.8936 35.0341 14.8936M30.4554 12.8308C29.8198 12.7169 28.1554 13.1799 26.9335 12.8308C25.102 12.3074 24.4614 11.2607 24.5384 11.0258C24.6792 10.596 26.0881 10.596 27.2855 11.0258C28.8996 11.605 29.8215 13.7762 33.9774 12.8308C34.9857 12.6014 36.3021 11.7134 36.2316 11.0258C36.1873 10.5926 34.7139 10.4319 33.2731 11.0258C32.4268 11.3746 31.4459 12.1629 30.4554 12.8308Z" stroke="black"/>
</svg>
