<svg width="1440" height="958" viewBox="0 0 1440 958" fill="none" xmlns="http://www.w3.org/2000/svg">
<rect opacity="0.3" y="0.917969" width="1440" height="956.623" fill="#C4C4C4" fill-opacity="0.5"/>
<path opacity="0.3" d="M182.639 155.153L495.602 155.153L964.13 958H650.249L182.639 155.153Z" fill="#868686"/>
<path d="M963.672 958H1440L1439.24 602.376L756.415 602.835L963.672 958Z" fill="#C4C4C4"/>
<path opacity="0.3" d="M0 0L1440 0V154.24L0 155.153L0 0Z" fill="black"/>
<path opacity="0.3" d="M703.479 155.153L631.434 278.173L1440 278.173V155.153L703.479 155.153Z" fill="#EAEAEA"/>
<path d="M1255.53 602.25L1412.92 321.323L1440 368.144V602.25H1255.53Z" fill="white" fill-opacity="0.83"/>
<path d="M492.849 0L760.842 0L857.209 155.153L550.67 155.153L472.658 32.1322L492.849 0Z" fill="white" fill-opacity="0.83"/>
<path d="M550.669 155.153L472.658 32.1323L397.858 155.153H550.669Z" fill="#A8A7A7"/>
<path d="M1022.41 0L1297.28 0L1395.03 156.071L1048.57 156.071L986.156 59.6742L1022.41 0Z" fill="#C4C4C4"/>
<path d="M1048.57 155.153L986.146 59.6741L927.878 155.153H1048.57Z" fill="#E1E1E1"/>
<path d="M948.069 -0.000109617L986.157 59.6741L1022.41 -0.000103116L948.069 -0.000109617Z" fill="#E1E1E1"/>
<path d="M472.636 32.1323L210.151 32.1323L134.914 155.153L397.859 155.153L472.636 32.1323Z" fill="#DADADA"/>
<path d="M1282.6 958L1162.75 749.14L1048.57 958H1282.6Z" fill="white"/>
<path opacity="0.7" d="M1162.51 749.599H843.713L722.892 958H1048.57L1162.51 749.599Z" fill="#625F5F"/>
<path d="M1440 155.153V367.986L1316.56 155.153L1440 155.153Z" fill="white"/>
<path opacity="0.3" d="M605.277 880.424L443.009 604.237L594.168 322.85L757.17 602.709L605.277 880.424Z" fill="#565555"/>
<path d="M133.078 155.153L0 155.153L0 957.541L494.226 957.541L690.631 600.873H390.975L133.078 155.153Z" fill="#E1E1E1"/>
<path d="M631.735 707.828L0 707.828L0 958H494.226L631.735 707.828Z" fill="#232023"/>
<path d="M494.226 958L630.975 707.368L770.019 958H494.226Z" fill="#797979"/>
<path d="M0 321.322H229.225L134.914 155.153L0 155.153L0 321.322Z" fill="white"/>
<path d="M1274.34 155.262L1048.57 155.262L986.157 59.783L1334.91 59.783L1274.34 155.262Z" fill="#E5E5E5"/>
<path d="M1394.57 155.153L1334.91 59.6741L1274.34 155.153H1394.57Z" fill="#565555"/>
<path opacity="0.9" d="M986.157 59.6741L927.878 155.153H857.209L798.012 59.6741L986.157 59.6741Z" fill="black"/>
</svg>
