<svg width="77" height="78" viewBox="0 0 77 78" fill="none" xmlns="http://www.w3.org/2000/svg">
<rect width="77" height="78" fill="white"/>
<path d="M38.1453 6C21.1944 6 22.2528 13.3536 22.2528 13.3536L22.2717 20.9721H38.4475V23.2594H15.8468C15.8468 23.2594 5 22.0288 5 39.1383C5 56.2484 14.4674 55.6415 14.4674 55.6415H20.1175V47.7018C20.1175 47.7018 19.8129 38.231 29.4338 38.231H45.4774C45.4774 38.231 54.4911 38.3767 54.4911 29.5163V14.8661C54.4911 14.8661 55.8601 6 38.1453 6ZM29.2259 11.1233C30.7939 11.1219 32.1374 12.4512 32.1359 14.0344C32.1374 15.6021 30.8094 16.9469 29.2259 16.9455C27.6424 16.9469 26.3145 15.6021 26.3159 14.0344C26.3145 12.4667 27.6424 11.1219 29.2259 11.1233Z" fill="url(#paint0_linear)"/>
<path d="M38.627 72.4488C55.5778 72.4488 54.5194 65.0952 54.5194 65.0952L54.5006 57.4769H38.3245V55.1897H60.9252C60.9252 55.1897 71.772 56.4203 71.772 39.3102C71.772 22.2004 62.3046 22.8072 62.3046 22.8072H56.6545V30.7467C56.6545 30.7467 56.9591 40.2175 47.3382 40.2175H31.2946C31.2946 40.2175 22.2809 40.0719 22.2809 48.9325V63.5829C22.2809 63.5829 20.9124 72.4488 38.627 72.4488ZM47.5463 67.326C45.9784 67.3274 44.6349 65.9981 44.6363 64.4149C44.6348 62.8471 45.9628 61.5021 47.5463 61.5036C49.1143 61.5022 50.4578 62.8315 50.4564 64.4147C50.4578 65.9823 49.1298 67.3274 47.5463 67.326Z" fill="url(#paint1_linear)"/>
<defs>
<linearGradient id="paint0_linear" x1="11.4167" y1="11.9767" x2="44.5187" y2="44.7364" gradientUnits="userSpaceOnUse">
<stop stop-color="#387EB8"/>
<stop offset="1" stop-color="#366994"/>
</linearGradient>
<linearGradient id="paint1_linear" x1="31.7277" y1="33.0209" x2="67.2748" y2="66.6124" gradientUnits="userSpaceOnUse">
<stop stop-color="#FFE052"/>
<stop offset="1" stop-color="#FFC331"/>
</linearGradient>
</defs>
</svg>
