<svg width="53" height="60" viewBox="0 0 53 60" fill="none" xmlns="http://www.w3.org/2000/svg">
<path d="M26.5002 34.991C29.5697 34.991 32.0429 32.5238 32.0429 29.4989C32.0429 26.474 29.5697 24.0069 26.5002 24.0069C23.4306 24.0069 20.9574 26.474 20.9574 29.4989C20.9574 32.5238 23.4306 34.991 26.5002 34.991Z" fill="#61DAFB"/>
<path fill-rule="evenodd" clip-rule="evenodd" d="M21.9145 51.2169C23.3983 50.3529 24.9391 49.1883 26.4983 47.756C28.0582 49.1884 29.5995 50.353 31.0841 51.2171C33.0246 52.3466 34.9293 52.9978 36.6839 52.9995C37.7564 53.0132 38.8129 52.7444 39.7457 52.221L39.7526 52.2171C41.7288 51.0873 42.7894 48.9636 43.1088 46.3238C43.3708 44.158 43.1507 41.553 42.4732 38.6203C45.3748 37.7349 47.762 36.6211 49.5248 35.3131C51.6766 33.7165 53 31.7447 53 29.4907C53 27.2368 51.6767 25.2645 49.5249 23.6673C47.7623 22.359 45.3753 21.2448 42.4739 20.3592C43.1518 17.4264 43.3718 14.8217 43.1096 12.6562C42.7899 10.016 41.7287 7.89292 39.7531 6.76216C37.7957 5.64369 35.3805 5.82424 32.9046 6.87217C30.8742 7.73154 28.7025 9.21003 26.5001 11.226C24.2966 9.2091 22.124 7.7301 20.0932 6.87068C17.6174 5.82288 15.2025 5.64232 13.2469 6.76244C11.2714 7.89327 10.2103 10.0163 9.89092 12.6567C9.62891 14.8225 9.84936 17.4276 10.528 20.3612C7.62577 21.2468 5.23837 22.361 3.47546 23.6691C1.32354 25.2659 0 27.2377 0 29.4907C0 31.7437 1.32354 33.7155 3.47546 35.3123C5.23842 36.6205 7.62593 37.7347 10.5283 38.6202C9.84942 41.5536 9.62888 44.1587 9.89092 46.3245C10.2103 48.9644 11.2716 51.0873 13.2476 52.217L13.2546 52.2209C14.188 52.7447 15.2455 53.0136 16.3189 52.9994C18.0714 52.9976 19.975 52.3463 21.9145 51.2169ZM14.5258 39.6233C16.3669 39.9958 18.2265 40.2728 20.0969 40.4533L20.1013 40.4594L20.1073 40.4599C21.2033 41.9778 22.3783 43.4379 23.6275 44.8342C21.8498 46.4537 20.166 47.6148 18.7196 48.2782C17.0384 49.0493 15.9267 49.0426 15.3124 48.6962C14.6833 48.3349 14.1181 47.3957 13.9517 45.5884C13.8078 44.0246 13.9857 41.9975 14.5258 39.6233ZM34.279 10.6954C32.8325 11.3602 31.149 12.5247 29.3724 14.1461C30.6234 15.5438 31.7997 17.0058 32.8962 18.5261C34.8387 18.7165 36.7058 18.9943 38.4748 19.3537C39.0147 16.9804 39.1924 14.9544 39.0485 13.3916C38.882 11.583 38.3158 10.6441 37.6858 10.2837L37.6848 10.2831C37.0718 9.93155 35.9622 9.92176 34.279 10.6954ZM13.9525 13.3915C13.8088 14.9549 13.9867 16.9817 14.5262 19.3559C15.4026 19.1789 16.2831 19.0233 17.167 18.8894C18.1418 18.7417 19.1207 18.6203 20.1027 18.5253C21.1997 17.0052 22.3763 15.5433 23.6278 14.1458C22.2599 12.8957 20.9511 11.9154 19.7582 11.2264C18.3506 10.4133 17.1839 10.0518 16.3116 10.0518C15.889 10.0518 15.5637 10.1416 15.314 10.2841C15.0648 10.4268 14.8256 10.66 14.6173 11.0019C14.2992 11.5238 14.053 12.2989 13.9525 13.3915ZM13.7131 29.491C12.9324 27.7911 12.2424 26.0517 11.6462 24.2801C9.30629 25.0029 7.44986 25.8621 6.1579 26.7652C4.66358 27.8097 4.12313 28.7642 4.12313 29.4907C4.12313 30.2159 4.66326 31.1699 6.1579 32.2147C7.45001 33.1179 9.30663 33.9775 11.6467 34.7011C12.2435 32.93 12.9333 31.1909 13.7131 29.491ZM15.6576 35.6996C15.8177 35.2304 15.9851 34.7637 16.1597 34.2998C16.3152 34.5763 16.4727 34.8518 16.6323 35.1261L16.6331 35.1275C16.7966 35.4075 16.9621 35.6862 17.1298 35.9637C16.6309 35.8822 16.14 35.7941 15.6576 35.6996ZM22.6348 37.5563C22.3674 37.5397 22.0991 37.5208 21.8305 37.5008L21.8273 37.4962C21.8285 37.4979 21.8293 37.499 21.8305 37.5008C22.2525 37.5322 22.6731 37.56 23.092 37.583C22.9411 37.5747 22.7899 37.5659 22.6386 37.5565L22.6348 37.5563ZM31.1692 37.5016L31.1678 37.5017C31.169 37.5016 31.1702 37.5015 31.1714 37.5014L31.1692 37.5016ZM22.3871 36.5577C20.8551 34.2967 19.4789 31.9353 18.2679 29.4898C18.7242 28.5647 19.2047 27.652 19.7087 26.7524C20.5381 25.2723 21.4314 23.8279 22.3863 22.4232C25.1256 22.2385 27.8744 22.2385 30.6137 22.4232C32.1484 24.6821 33.5245 27.0434 34.7322 29.4902C33.5226 31.9359 32.1471 34.2971 30.6153 36.5577C28.0154 36.7316 25.4793 36.7421 22.8886 36.5893C22.7217 36.5795 22.5545 36.5689 22.3871 36.5577ZM26.5001 40.7682C26.8222 40.7682 27.1459 40.7657 27.471 40.7607C27.1525 41.1433 26.8281 41.5211 26.498 41.8939C26.1677 41.521 25.8432 41.1432 25.5246 40.7606C25.8511 40.7657 26.1764 40.7682 26.5001 40.7682ZM33.242 47.7548C32.0492 47.0658 30.7403 46.0855 29.3724 44.8354C30.6222 43.4395 31.7969 41.9789 32.8915 40.4599L32.9011 40.4591L32.9055 40.4529C34.7751 40.2724 36.6339 39.9954 38.4744 39.6233C39.0145 41.9975 39.1924 44.0247 39.0485 45.5885C38.882 47.3978 38.3157 48.337 37.6858 48.6974L37.6849 48.6979C37.4393 48.8388 37.111 48.9294 36.6886 48.9294C35.8163 48.9294 34.6496 48.5679 33.242 47.7548ZM35.8724 35.9623C36.2037 35.4136 36.5265 34.86 36.8409 34.3017C37.0148 34.7636 37.1816 35.2282 37.3413 35.6953C36.853 35.7917 36.3633 35.8807 35.8724 35.9623ZM37.341 23.2843C36.8511 23.1873 36.3597 23.0979 35.8671 23.0159C36.1994 23.5665 36.5235 24.1221 36.8391 24.6824C37.0136 24.219 37.1809 23.7529 37.341 23.2843ZM41.356 34.7004C40.7862 33.0013 40.0943 31.2628 39.2911 29.5027L39.2968 29.4906L39.2918 29.4801C40.0704 27.7837 40.7586 26.0481 41.3536 24.2804C43.6937 25.0039 45.5502 25.8631 46.8422 26.766C48.3366 27.8104 48.8769 28.7644 48.8769 29.4907C48.8769 30.2161 48.337 31.1701 46.8428 32.2147C45.5514 33.1176 43.6957 33.9769 41.356 34.7004ZM26.5004 17.0884C26.83 17.4604 27.1538 17.8374 27.4718 18.2192C26.8241 18.2095 26.1764 18.2095 25.5288 18.2193C25.8468 17.8375 26.1707 17.4605 26.5004 17.0884ZM15.6587 23.2854C16.1475 23.1888 16.6377 23.0996 17.1291 23.0178C16.9609 23.2963 16.795 23.5758 16.6323 23.8551C16.4727 24.1294 16.3152 24.4048 16.1597 24.6814C15.9856 24.2186 15.8186 23.7533 15.6587 23.2854Z" fill="#61DAFB"/>
</svg>
