<svg xmlns="http://www.w3.org/2000/svg" fill="none" viewBox="0 0 118 118">
  <circle cx="59" cy="59" r="58" fill="#fff" stroke="#143695" stroke-width="2"/>
  <circle cx="59.5" cy="58.5" r="48" fill="#F7941D" stroke="#143695" stroke-width="5"/>
    <g fill="#fff">
        <rect width="3" height="39" x="41" y="27"  />
        <rect width="3" height="28" x="51" y="27"  />
        <rect width="3" height="12" x="64" y="43"  />
        <rect width="3" height="41" x="83" y="33"  />
        <rect width="3" height="25" x="73" y="33"  />
        <rect width="9" height="3" x="35" y="52"  />
        <rect width="7" height="3" x="76" y="30"  />
        <rect width="7" height="3" x="44" y="24"  />
        <rect width="10" height="3" x="54" y="40"  />
        <rect width="10" height="3" x="64" y="43"  />
        <rect width="33" height="3" x="44" y="90"  />
        <rect width="3" height="16" x="32" y="55"  />
        <rect width="3" height="7" x="35" y="71"  />
        <rect width="3" height="6" x="38" y="78"  />
        <rect width="3" height="6" x="41" y="84"  />
        <rect width="3" height="6" x="77" y="84"  />
        <rect width="3" height="10" x="80" y="74"  />
        <path d="M48 78c-.11 0-.2-.17-.24-.47l-1.24-8.89-.01-.19c0-.19.03-.28.1-.28h.9c.06 0 .1.04.15.13.05.09.08.2.1.35l.76 6.49.92-6.47a.82.82 0 01.1-.32c.05-.08.1-.12.15-.12h.74c.12.02.2.16.24.44l.98 6.6.76-6.63c.02-.14.05-.25.1-.34.04-.09.09-.13.14-.13h.78c.07 0 .1.1.1.28 0 .06 0 .12-.02.2l-1.2 8.88c-.05.3-.13.46-.24.47h-.83c-.12 0-.2-.17-.25-.48l-1.02-6.38-1 6.39c-.03.29-.1.45-.21.47H48zM55.81 78c-.06 0-.1-.02-.13-.05-.02-.05-.04-.13-.04-.26v-9.2c0-.14.02-.23.04-.27.03-.03.07-.05.13-.05h2.3c.29 0 .53.02.73.05.2.03.42.1.63.2.21.1.39.25.51.44.14.19.24.44.32.77.1.32.13.7.13 1.16 0 .35-.02.65-.07.9s-.13.46-.23.62a1.46 1.46 0 01-.74.6c-.02.01-.02.02-.02.04 0 .01 0 .02.02.03a1.5 1.5 0 01.71.6c.1.16.18.37.24.64.05.27.09.6.1 1 .02.35.03 1.16.03 2.44 0 .23-.04.34-.12.34h-1.1c-.06 0-.1-.1-.1-.3l-.05-1.53c-.03-1-.06-1.56-.09-1.71a1.2 1.2 0 00-.11-.47.57.57 0 00-.24-.27.85.85 0 00-.29-.12c-.1-.02-.2-.03-.33-.03h-.98c-.05 0-.07.05-.07.15v3.97c0 .13-.01.21-.04.26-.03.03-.07.05-.13.05h-1zm1.25-5.5h.88c.76 0 1.14-.55 1.14-1.66 0-.59-.1-1-.31-1.23-.2-.23-.55-.35-1.04-.35h-.67c-.05 0-.07.04-.07.13v2.93c0 .12.02.18.07.18zM64.16 78c-.06 0-.1-.02-.13-.07a.65.65 0 01-.04-.28v-2.92l-1.58-6.15a.63.63 0 01-.03-.2c0-.14.03-.21.1-.21h1.02c.13 0 .22.12.29.36l.96 3.86.94-3.85c.03-.11.07-.2.12-.27.05-.07.1-.1.16-.1h.85c.07 0 .11.07.11.22 0 .06 0 .12-.03.19l-1.55 6.13v2.94c0 .23-.06.35-.18.35h-1zM69.99 78c-.12 0-.2-.17-.25-.47l-1.23-8.89-.02-.19c0-.19.04-.28.11-.28h.9c.05 0 .1.04.15.13.04.09.07.2.1.35l.75 6.49.92-6.47a.81.81 0 01.1-.32c.05-.08.1-.12.16-.12h.74c.11.02.2.16.24.44l.97 6.6.77-6.63c.02-.14.05-.25.09-.34.04-.09.1-.13.15-.13h.77c.07 0 .11.1.11.28 0 .06 0 .12-.02.2l-1.21 8.88c-.05.3-.12.46-.23.47h-.84c-.12 0-.2-.17-.24-.48l-1.03-6.38-.99 6.39c-.04.29-.1.45-.22.47H70z"/>

    </g>
</svg>
