<svg xmlns="http://www.w3.org/2000/svg" fill="none" viewBox="0 0 114 114">
  <path fill="#3FB2E1" d="M114 57A57 57 0 110 57a57 57 0 01114 0z"/>
  <path fill="#fff" d="M45.87 48.58v18.25c0 2.93.53 4.82 1.59 5.66a6.46 6.46 0 004.1 1.26V77H36.64v-3.25c1.27 0 2.38-.3 3.32-.91a4.16 4.16 0 001.78-2.14c.26-.82.38-2.1.38-3.84V46.6c0-4.04-1.9-6.06-5.68-6.06v-3.26h13.42L71.63 61.6V47.03c0-4.34-1.83-6.5-5.48-6.5v-3.26H80.4v3.26c-1 0-1.93.27-2.8.82a4.16 4.16 0 00-1.77 2.1c-.3.84-.47 2.08-.47 3.7v30.5h-3.75L45.88 48.57z"/>
</svg>