<svg xmlns="http://www.w3.org/2000/svg" fill="none" viewBox="0 0 104 129">
	<path stroke="#fff" stroke-width="2" d="M3.5 57.177l8.988 8.851L40.741 93l12.19-12.002a4.176 4.176 0 0 0 .78-2.625 4.162 34.162 0 0 0-1.009-2.543L41.574 65.828 29.58 53.96a4.183 4.183 0 0 1-1.022-2.831 18.177 18.177 10 0 1 1.137-2.786L62 16.519 47.294 2 12.488 36.323l-8.971 8.835a8.34 8.34 0 0 0-1.86 2.74 8.48 8.48 0 0 0-.008 6.533A8.343 8.343 0 0 0 3.5 57.177 Z">
		<animate dur="5s" repeatCount="indefinite" attributeName="d" values="M13.5 57.177l8.988 8.851L40.741 93l12.19-12.002a4.176 4.176 0 0 0 .78-2.625 4.162 34.162 0 0 0-1.009-2.543L41.574 65.828 29.58 53.96a4.183 4.183 0 0 1-1.022-2.831 18.177 18.177 10 0 1 1.137-2.786L62 16.519 47.294 2 12.488 36.323l-8.971 8.835a8.34 8.34 0 0 0-1.86 2.74 8.48 8.48 0 0 0-.008 6.533A8.343 8.343 0 0 0 3.5 57.177 Z" fill="freeze" calcMode="spline" />
	</path>
  <path stroke="#ff0" stroke-width="2" d="M100.484 72.41l-8.887-8.758L63.27 37 51.083 48.875a4.101 4.101 0 0 0 .229 5.112l11.125 9.896 11.99 11.743a4.097 4.097 0 0 1 1.028 2.801 4.094 4.094 0 0 1-1.142 2.757L42 112.635 56.703 127 91.53 93.042 100.5 84.3a8.299 8.299 0 0 0 2.5-5.95 8.312 8.312 0 0 0-.658-3.23 8.241 8.241 0 0 0-1.858-2.711z"/>
	<rect id="cool_shape" width="20" height="20" fill="red" />

<animate href="#cool_shape" attributeType="CSS" attributeName="width" 
           from="40" begin="click" to="100" dur="5s" repeatCount="1" />
	
</svg>