<svg width="85" height="85" viewBox="0 0 85 85" fill="none" xmlns="http://www.w3.org/2000/svg">
<rect width="85" height="85" fill="#E5E5E5"/>
<g id="Frame 2" clip-path="url(#clip0)">
<g id="technologies">
<g id="react">
<g id="Union">
<path fill-rule="evenodd" clip-rule="evenodd" d="M42.5003 49.9675C46.6142 49.9675 49.9382 46.6173 49.9382 42.4983C49.9382 38.3795 46.6142 35.0292 42.5003 35.0292C38.3861 35.0292 35.0625 38.3795 35.0625 42.4983C35.0625 46.6173 38.3861 49.9675 42.5003 49.9675Z" fill="#61DAFB"/>
<path fill-rule="evenodd" clip-rule="evenodd" d="M42.4973 68.8367C40.2991 70.9341 37.9325 72.8834 35.3076 74.4315C32.4994 76.0876 29.8146 76.9978 27.4042 76.9991C25.9505 77.0194 24.5181 76.6511 23.2531 75.9323L23.2483 75.9295C20.6076 74.4005 19.1115 71.4877 18.6545 67.6628C18.2594 64.356 18.6282 60.2953 19.7507 55.6591C15.1891 54.3146 11.4997 52.6032 8.84189 50.6059C5.76538 48.2942 4 45.5383 4 42.486C4 39.4338 5.76538 36.6779 8.84189 34.366C11.4994 32.3689 15.1887 30.6575 19.7503 29.313C18.6279 24.6765 18.2594 20.6158 18.6545 17.3087C19.1115 13.4832 20.6076 10.5698 23.2476 9.03921C24.7864 8.14673 26.5675 7.84929 28.5 8.06956C29.8368 8.22185 31.2457 8.62181 32.6969 9.24383C35.7632 10.558 39.096 12.8918 42.5 16.1346C45.9026 12.8932 49.2341 10.5602 52.3 9.24604C55.8492 7.72465 59.1469 7.53127 61.7524 9.03896C64.3928 10.5694 65.8888 13.4829 66.3461 17.3081C66.7416 20.6147 66.3738 24.6747 65.2527 29.3099C69.813 30.6545 73.5013 32.3659 76.1584 34.3633C79.2346 36.6757 81 39.4323 81 42.486C81 45.5398 79.2346 48.2956 76.1584 50.6071C73.501 52.604 69.8123 54.3149 65.2517 55.6592C66.3721 60.2942 66.7402 64.3547 66.3451 67.6618C65.8881 71.4868 64.3928 74.4006 61.752 75.9296L61.7473 75.9324C60.4833 76.6507 59.0519 77.019 57.5992 76.9993C55.1861 76.9979 52.4996 76.0879 49.69 74.4317C47.3807 73.0704 44.9626 71.1883 42.4973 68.8367ZM24.1674 28.1876C23.223 24.2562 22.8908 20.8677 23.1283 18.2505C23.3587 15.7086 24.3294 12.5325 27.3991 12.5325C28.8883 12.5325 30.7583 13.1485 32.901 14.4021C34.8916 15.5664 37.0692 17.2523 39.3257 19.4052C37.2227 21.7386 35.2597 24.1957 33.4472 26.7637C30.3283 27.055 27.2295 27.5305 24.1674 28.1876ZM45.65 19.5346C48.597 16.7546 51.3782 14.7738 53.7735 13.6701C56.0998 12.5979 59.3475 11.8468 60.8825 14.4936C61.627 15.7777 62.0262 17.6982 62.007 20.1726C61.9896 22.4712 61.6123 25.1918 60.8678 28.214C57.7869 27.5673 54.668 27.1033 51.5282 26.8243C49.7153 24.2807 47.7524 21.8465 45.65 19.5346ZM29.4352 42.4852C31.3403 46.4226 33.5241 50.2174 35.97 53.8403C40.3675 54.1562 44.6359 54.156 49.0334 53.8403C51.4793 50.2181 53.6621 46.4234 55.5652 42.4856C53.6651 38.5458 51.4814 34.7507 49.0307 31.1312C44.6827 30.8158 40.3176 30.8158 35.9693 31.1312C33.5176 34.7501 31.3338 38.5449 29.4352 42.4852ZM25.4187 52.3892C25.9136 50.8602 26.4584 49.3483 27.0525 47.8558C28.0231 49.6775 29.0536 51.4686 30.1406 53.2214C28.5137 52.9895 26.937 52.7116 25.4187 52.3892ZM24.167 56.781C27.2282 57.4389 30.3255 57.9142 33.4427 58.2044L33.4465 58.2099L33.4513 58.2103C35.2635 60.7763 37.225 63.2325 39.3257 65.5657C36.4505 68.3024 33.6881 70.2783 31.2966 71.3892C28.7365 72.5783 26.778 72.7004 25.5291 71.9852C24.2634 71.251 23.3812 69.5145 23.127 66.7194C22.8891 64.1015 23.2216 60.7123 24.167 56.781ZM42.4969 62.2751C41.4261 61.0797 40.3942 59.8496 39.403 58.587C41.4548 58.6493 43.5008 58.657 45.5895 58.5873C44.5993 59.85 43.5678 61.0799 42.4969 62.2751ZM20.987 33.7015C21.9501 36.6953 23.0904 39.6288 24.4015 42.4862C23.0917 45.344 21.9519 48.2772 20.9873 51.2704C17.126 50.1253 14.0379 48.7202 11.8993 47.2064C9.61572 45.5898 8.55615 43.9558 8.55615 42.486C8.55615 41.0144 9.61606 39.3796 11.8993 37.7632C14.0375 36.2494 17.1257 34.8451 20.987 33.7015ZM51.5463 58.2104C49.7369 60.7781 47.7763 63.2346 45.6746 65.5666C47.9312 67.7194 50.1091 69.4053 52.0994 70.5696C54.2421 71.8232 56.1121 72.4393 57.6013 72.4393C58.3402 72.4393 58.9671 72.2782 59.4699 71.9861C60.7362 71.2525 61.6191 69.5156 61.8734 66.7196C62.1113 64.1016 61.7787 60.7124 60.8333 56.7811C57.7725 57.4385 54.6758 57.9136 51.559 58.2041L51.5552 58.2096L51.5463 58.2104ZM54.8597 53.2242C56.4416 52.995 58.0159 52.7143 59.5799 52.3822C59.0854 50.8571 58.5412 49.3488 57.9482 47.86C56.9775 49.6815 55.9473 51.4706 54.8597 53.2242ZM59.5796 32.5875C58.0131 32.2541 56.4364 31.9723 54.8522 31.7428C55.9408 33.4996 56.9727 35.2914 57.9458 37.1154C58.5395 35.6247 59.0843 34.1146 59.5796 32.5875ZM60.6026 42.4974C61.9599 45.4788 63.1049 48.4161 64.0151 51.2697C67.8767 50.1247 70.9642 48.72 73.1018 47.2064C75.385 45.59 76.4438 43.956 76.4438 42.486C76.4438 41.0145 75.3839 39.3805 73.1007 37.7644C70.9625 36.251 67.8743 34.8467 64.013 33.7017C63.0505 36.6917 61.912 39.6215 60.6033 42.4757L60.6081 42.4859L60.6026 42.4974ZM45.5902 26.3815C44.601 25.1204 43.5705 23.8922 42.5007 22.6987C41.4305 23.8923 40.3997 25.1206 39.4098 26.3816C41.4695 26.3139 43.5309 26.3138 45.5902 26.3815ZM30.1434 31.7451C28.5605 31.9749 26.9852 32.2563 25.4201 32.589C25.9153 34.1156 26.4595 35.6254 27.0525 37.1159C28.024 35.2923 29.0592 33.5045 30.1434 31.7451Z" fill="#61DAFB"/>
</g>
</g>
</g>
</g>
<defs>
<clipPath id="clip0">
<rect width="85" height="85" fill="white"/>
</clipPath>
</defs>
</svg>
