<?xml version="1.0" encoding="utf-8"?>
<svg fill="none" viewBox="0 0 162 140" xmlns="http://www.w3.org/2000/svg" xmlns:xlink="http://www.w3.org/1999/xlink">
  <defs>
    <style>
       

    .slider {
    animation: switcher 48s steps(8) infinite; /* $totalcycle */
    }
    .fader {
    animation: fader 6s infinite; /* $cycletime */
    }

    @keyframes fader {
    0% {opacity: 0;}
    20% {opacity: 1;}
    80% {opacity: 1;}
    100% {opacity: 0;}
    }
    @keyframes switcher {
    0% {transform: translateX(85px);}
    100% {transform: translateX(-595px);}
    }
    </style>
    <symbol id="logoline" viewBox="0 0 765 85">
      <rect width="765" height="85" fill="#fff" fill-opacity="0"/>
      <path fill="#37B1D9" d="M698.7 61.3c-2.4 0-4.5-1.9-4.5-4.3 0-2.3 1.9-4.3 4.5-4.3 2.5 0 4.5 2 4.5 4.3 0 2.4-2.2 4.3-4.5 4.3zM754 37.8a13 13 0 00-5.4-8.4l-1-.9-1 1.1c-1.7 2-2.3 5.4-2.1 8 .2 2 .9 3.9 2 5.4l-2.9 1.3c-1.9.6-3.8.9-5.8.9h-55.6l-.2 1.3c-.4 4 .2 8.4 2 12.3l.8 1.5v.2C690.1 69 699.3 73 709.4 73c19.3 0 35.2-8.4 42.7-26.5 5 .2 9.9-1.1 12.3-5.9l.6-1-1-.7a13 13 0 00-10-1zm-27.7-3.4H718v8.4h8.4v-8.4zm0-10.6H718v8.4h8.4v-8.4zm0-10.8H718v8.4h8.4V13zm10.3 21.4h-8.4v8.4h8.4v-8.4zm-31.2 0h-8.3v8.4h8.3v-8.4zm10.5 0h-8.3v8.4h8.3v-8.4zm-20.8 0H687v8.4h8.3v-8.4zM716 23.8h-8.3v8.4h8.3v-8.4zm-10.5 0h-8.3v8.4h8.3v-8.4z"/>
      <path fill="#3E863D" d="M607 25h62.5v36H607V25z"/>
      <path fill="#9CC696" d="M669.4 61.2l-10.4-18L669.4 25 638.2 7 607 25l10.4 18.1L607 61.2l31.2 18 31.2-18z"/>
      <path fill="#75BF58" fill-rule="evenodd" d="M669.4 61.2l-10.4-18L669.4 25 638.2 7 607 25l10.4 18.1L607 61.2l31.2 18 31.2-18z" clip-rule="evenodd"/>
      <path fill="#50914F" d="M617.3 43l.1.1L607 61.2l31.2 18 31.2-18-10.4-18V43v.1l-20.8 36.2L617.4 43V43z"/>
      <ellipse cx="552.7" cy="42" fill="#fff" rx="27.5" ry="30"/>
      <path fill="#7A3DD7" d="M573.3 11h-41c-5.7 0-10.3 4.6-10.3 10.3v41c0 5.7 4.6 10.3 10.3 10.3h41c5.7 0 10.3-4.6 10.3-10.3v-41c0-5.7-4.6-10.3-10.3-10.3zm-5.6 43.3a8 8 0 01-2.4 3.1c-1 .9-2.4 1.6-4 2.1-1.8.5-3.8.8-6 .8h-16.6v-36h17.5c3.2 0 5.8.8 7.7 2.3 2 1.5 3 3.7 3 6.7a8 8 0 01-1.4 4.6 8.5 8.5 0 01-3.8 3v.1c2.2.5 4 1.5 5 3.1 1.1 1.6 1.7 3.7 1.7 6.2 0 1.3-.2 2.7-.8 3.9h.1zm-7.1-8.9c-1-1-2.5-1.4-4.5-1.4h-11v11.2h11c2 0 3.5-.5 4.5-1.5s1.6-2.4 1.6-4.2c0-1.8-.5-3.2-1.6-4.1zm-1.6-7.2c1-1 1.6-2.1 1.6-3.7 0-1.9-.5-3.1-1.4-3.9a6.1 6.1 0 00-4-1H545v9.8h10.3c1.5 0 2.8-.4 3.7-1.2z"/>
      <path fill="#E34F26" d="M438 10h60l-5.5 61.2-24.6 7-24.4-7L438 10z"/>
      <path fill="#EC613B" d="M468 72V15h25l-4.5 51.2L468 72z"/>
      <path fill="#fff" d="M457.2 29.4l.7 7.8h27.4l-2.1 23.1-15.4 4.1-15.5-4-1-12h7.5l.6 6 8.4 2.4 8.3-2.3 1-9.8H451L449 22h37.6l-.6 7.5h-28.8z"/>
      <path fill="#EBEBEB" d="M468 29.4h-10.8l.7 7.8H468v7.5h-17L449 22h19v7.4zM468 56.7v7.7h-.2l-15.5-4-1-12h7.5l.6 6 8.4 2.4h.2z"/>
      <path fill="#264DE4" d="M413 10l-5.5 61.2-24.6 6.8-24.4-6.8L353 10h60z"/>
      <path fill="#2965F1" d="M402.8 67.3l4.7-52.3H383v57.8l19.8-5.5z"/>
      <path fill="#EBEBEB" d="M365.5 37.7l.7 7.5H383v-7.5h-17.5zM383 22.5h-18.8l.6 7.5H383v-7.5zM383 65v-7.8l-8.4-2.3-.5-6h-7.6l1 11.8L383 65z"/>
      <path fill="#fff" d="M392.2 45.2l-.9 9.7-8.3 2.3V65l15.3-4.3.2-1.2 1.7-19.8.2-2 1.4-15.2H383V30h10.5l-.7 7.7H383v7.5h9.2z"/>
      <rect width="50" height="48" x="278.4" y="26" fill="#000"/>
      <path fill="#F7DF1E" d="M265 10h64.9v64.9H265V10zm59.6 49.4c-.5-3-2.4-5.4-8.2-7.8-2-.9-4.2-1.5-4.8-3-.3-1-.3-1.4-.1-2 .4-1.7 2.4-2.2 4-1.7 1.1.3 2 1.1 2.7 2.4l4.7-3c-.7-1.2-1-1.7-1.5-2.2-1.7-1.9-4-2.8-7.7-2.7l-2 .2a8.7 8.7 0 00-4.5 2.7 8.5 8.5 0 001.5 12.1c3.7 2.8 9 3.4 9.8 6 .6 3.1-2.4 4.1-5.3 3.8-2.2-.5-3.4-1.6-4.8-3.6l-5 2.8c.6 1.3 1.3 1.9 2.3 3 4.7 4.7 16.4 4.5 18.5-2.7.1-.3.7-2 .2-4.5l.2.2zm-24.3-19.6h-6.1v15.7c0 3.3.1 6.4-.4 7.3-.9 1.9-3.2 1.7-4.2 1.3-1.1-.5-1.6-1.2-2.3-2.3l-.3-.5-5 3c.9 1.7 2 3.2 3.6 4.1 2.3 1.4 5.4 1.9 8.7 1.1 2.1-.6 4-1.8 4.9-3.8 1.4-2.5 1-5.6 1-9V39.8z"/>
      <path fill="url(#paint0_linear)" d="M213.1 10c-17 0-15.8 7.4-15.8 7.4V25h16.1v2.3h-22.6S180 26 180 43s9.5 16.5 9.5 16.5h5.6v-7.9s-.3-9.5 9.3-9.5h16s9 .2 9-8.7V19S231 10 213.2 10zm-8.9 5.1a3 3 0 013 3 3 3 0 01-3 2.8 3 3 0 01-2.9-2.9 3 3 0 013-2.9z"/>
      <path fill="url(#paint1_linear)" d="M213.6 76.4c17 0 16-7.3 16-7.3l-.1-7.6h-16.2v-2.3H236s10.9 1.2 10.9-15.9-9.5-16.5-9.5-16.5h-5.6v8s.3 9.4-9.4 9.4h-16s-9-.1-9 8.7v14.7s-1.4 8.8 16.3 8.8zm9-5a3 3 0 01-3-3 3 3 0 013-2.9 3 3 0 012.9 3 3 3 0 01-3 2.8z"/>
      <path fill="#41B883" d="M127.3 72.7L93 14h14l20.3 34.8L147 14h14l-33.7 58.7z"/>
      <path fill="#3A5F87" d="M127.3 48.8L107 14h14l6.3 10.9L133 14h14l-19.7 34.8z"/>
      <path fill="#61DAFB" fill-rule="evenodd" d="M42.5 50a7.5 7.5 0 100-15 7.5 7.5 0 000 15z" clip-rule="evenodd"/>
      <path fill="#61DAFB" fill-rule="evenodd" d="M42.5 68.8c-2.2 2.1-4.6 4-7.2 5.6a16 16 0 01-7.9 2.6c-1.4 0-2.9-.3-4.1-1-2.7-1.6-4.2-4.5-4.6-8.3-.4-3.3 0-7.4 1-12-4.5-1.4-8.2-3.1-10.9-5-3-2.4-4.8-5.2-4.8-8.2 0-3 1.8-5.8 4.8-8.1 2.7-2 6.4-3.7 11-5a34.8 34.8 0 01-1.1-12c.4-4 2-6.8 4.5-8.4a8.4 8.4 0 015.3-1c1.3.2 2.7.6 4.2 1.2 3 1.4 6.4 3.7 9.8 7 3.4-3.3 6.7-5.6 9.8-7 3.5-1.5 6.8-1.7 9.5-.2 2.6 1.6 4 4.5 4.5 8.3.4 3.3 0 7.4-1 12 4.5 1.4 8.2 3 10.9 5 3 2.4 4.8 5.1 4.8 8.2 0 3-1.8 5.8-4.8 8.1-2.7 2-6.4 3.7-11 5 1.2 4.7 1.5 8.8 1.1 12-.4 3.9-2 6.8-4.5 8.3-1.3.8-2.7 1.1-4.2 1.1a16 16 0 01-8-2.6 40.3 40.3 0 01-7.1-5.6zM24.2 28.2c-1-4-1.3-7.3-1-10 .2-2.5 1.1-5.7 4.2-5.7 1.5 0 3.4.6 5.5 1.9 2 1.2 4.2 2.9 6.4 5-2 2.3-4 4.8-5.9 7.4-3 .3-6.2.7-9.2 1.4zm21.4-8.7c3-2.7 5.8-4.7 8.2-5.8 2.3-1.1 5.5-1.9 7 .8.8 1.3 1.2 3.2 1.2 5.7 0 2.3-.4 5-1.1 8-3.1-.6-6.2-1.1-9.4-1.4-1.8-2.5-3.7-5-5.9-7.3zm-16.2 23c2 4 4.1 7.7 6.6 11.3 4.4.4 8.6.4 13 0 2.5-3.6 4.7-7.4 6.6-11.3A90 90 0 0049 31c-4.3-.3-8.7-.3-13 0a89.5 89.5 0 00-6.6 11.4zm-4 9.9c.5-1.5 1-3 1.7-4.5l3 5.3a71 71 0 01-4.7-.8zm-1.2 4.4a79 79 0 009.2 1.4c1.9 2.6 3.8 5 6 7.4a31.6 31.6 0 01-8.1 5.8c-2.6 1.2-4.5 1.3-5.8.6-1.2-.7-2.1-2.5-2.4-5.3-.2-2.6.1-6 1-10zm18.3 5.5l-3.1-3.7h6.2l-3.1 3.7zM21 33.7c1 3 2 6 3.4 8.8a80 80 0 00-3.4 8.8c-3.9-1.2-7-2.6-9.1-4-2.3-1.7-3.3-3.3-3.3-4.8s1-3.1 3.3-4.7c2.1-1.6 5.2-3 9-4.1zm30.5 24.5c-1.8 2.6-3.7 5-5.8 7.4 2.2 2.1 4.4 3.8 6.4 5 2.1 1.2 4 1.8 5.5 1.8.7 0 1.4-.1 1.9-.4 1.2-.7 2.1-2.5 2.4-5.3.2-2.6-.1-6-1-10-3.1.7-6.2 1.2-9.3 1.5zm3.4-5l4.7-.8c-.5-1.5-1-3-1.7-4.5l-3 5.3zm4.7-20.6a73 73 0 00-4.7-.9l3 5.4 1.7-4.5zm1 9.9c1.4 3 2.5 6 3.4 8.8 3.9-1.2 7-2.6 9.1-4 2.3-1.7 3.3-3.3 3.3-4.8s-1-3.1-3.3-4.7c-2.1-1.5-5.2-3-9-4.1-1 3-2.2 6-3.5 8.8zm-15-16.1l-3.1-3.7c-1 1.2-2.1 2.4-3 3.7h6zM30 31.7l-4.7.9c.5 1.5 1 3 1.7 4.5l3-5.4z" clip-rule="evenodd"/>
    </symbol>
    <linearGradient id="paint0_linear" x1="186.4" x2="219.5" y1="16" y2="48.7" gradientUnits="userSpaceOnUse">
      <stop stop-color="#387EB8"/>
      <stop offset="1" stop-color="#366994"/>
    </linearGradient>
    <linearGradient id="paint1_linear" x1="206.7" x2="242.3" y1="37" y2="70.6" gradientUnits="userSpaceOnUse">
      <stop stop-color="#FFE052"/>
      <stop offset="1" stop-color="#FFC331"/>
    </linearGradient>
    <clipPath id="clipper">
      <rect x="43" y="20" width="85" height="85" fill="#000"/>
    </clipPath>
    <symbol id="thinker">
      <ellipse fill="#333" rx="13.9" ry="13.5" transform="matrix(-1 0 0 1 25 112.1)"/>
      <path fill="#fff" stroke="#E5E5E5" d="M11.5 109.5c0 7.2 6 13 13.4 13s13.4-5.8 13.4-13-6-13-13.4-13-13.4 5.8-13.4 13z"/>
      <ellipse fill="#333" rx="7.4" ry="7.3" transform="matrix(-1 0 0 1 7.4 131.9)"/>
      <path fill="#fff" stroke="#E5E5E5" d="M1.4 130.3c0 3.7 3 6.7 6.9 6.7 3.8 0 6.9-3 6.9-6.7 0-3.8-3-6.8-7-6.8-3.8 0-6.8 3-6.8 6.8z"/>
      <path fill="#333" d="M127.7 32.6v-1.4C127.8 15.6 111.8 3 92.3 3c-16.9 0-31 9.3-34.7 21.8-4-1.9-8.5-3-13.3-3C28.6 21.8 16 33 16 46.6c0 9.6 6.3 18 15.4 22-.7 2.8-1.1 5.7-1.1 8.7 0 16.5 11.8 29.8 26.3 29.8 3.6 0 7-.8 10-2.3A37.4 37.4 0 0093.6 116a36.4 36.4 0 0036.8-33.6A26 26 0 00162 57.1a26 26 0 00-34.3-24.5z"/>
      <path fill="#fff" stroke="#E5E5E5" d="M127.9 29.8l-.7.2v-.7V28c0-15-15.5-27.5-35-27.5C75.5.5 61.6 9.6 58 21.8l-.1.5-.6-.2c-3.9-1.9-8.4-3-13.1-3-15.4 0-27.7 10.9-27.7 24 0 9.4 6.1 17.5 15.1 21.5l.4.1v.5c-.8 2.7-1.2 5.5-1.2 8.5 0 16 11.6 29 25.8 29 3.5 0 6.8-.8 9.9-2.2l.3-.2.2.3a37 37 0 0026.5 10.9 35.8 35.8 0 0036.3-32.8v-.6l.6.1a25.4 25.4 0 0031-24.6A25.4 25.4 0 00128 29.9z"/>
      <g class="fader" clip-path="url(#clipper)">
        <use class="slider" height="85" width="765" xlink:href="#logoline"/>
      </g>
    </symbol>
  </defs>
  <use transform="matrix(1, 0, 0, 1, 0, 0)" xlink:href="#thinker"/>
</svg>