<svg xmlns="http://www.w3.org/2000/svg" fill="none" viewBox="0 0 1138 47">
  <g id="Group 12">
    <path id="Topbar" fill="#000" d="M0 0h1138v47H0V0z"/>
      <text id="title" fill="#fff" font-family="Roboto" font-size="16" letter-spacing="0em" style="white-space:pre" xml:space="preserve">
      <tspan x="29" y="29.8">JavaScript: Novice to Ninja, 2nd Edition</tspan>
    </text>
    
    <text  fill="#fff" font-family="Roboto" font-size="14" letter-spacing="0em" style="white-space:pre" xml:space="preserve">
      <tspan x="1034" y="30">Dashboard</tspan>
    </text>
    <text id="Library" fill="#fff" font-family="Roboto" font-size="14" letter-spacing="0em" style="white-space:pre" xml:space="preserve">
      <tspan x="932.6" y="30">Library</tspan>
    </text>

    <g id="library-icon" fill="#fff">
      <rect width="3" height="12" x="901" y="19"/>
      <path d="M909 19.5l4-.7 2 11.5-4 .7-2-11.5z"/>
      <rect width="4" height="15" x="905" y="16"/>
    </g>
    <g id="text-down">
      <rect width="1.8" height="6.2" x="866.2" y="28" fill="#fff" transform="rotate(90 866.2 28)"/>
      <path fill="#fff" d="M864 19h-1.8v2.2H860v1.7h2.2v2.2h1.8V23h2.2v-1.7H864V19z"/>
      <path id="a" fill="#fff" d="M853.4 28.2h-4l-1 3.8H845l4.3-14h4.3l4.2 14h-3.3l-1.1-3.8zm-3.6-2.2h3.1l-1.2-4.4-.4-1.3-.3 1.3-1.2 4.4z"/>
    </g>
    <path id="darkmode" fill="#fff" fill-rule="evenodd" d="M802.5 31a7.5 7.5 0 100-15 7.5 7.5 0 000 15zm0-1.5h-.2v-12a6.1 6.1 0 016.2 6 6 6 0 01-6 6z" clip-rule="evenodd"/>
    <path id="dash" fill="#fff" d="M1008.4 31.5h-3.4v1.2h3.4v-1.2zm3.5-1.3h-2.5c-.4 0-.6.3-.6.6v2.6c0 .3.2.6.6.6h2.5c.3 0 .6-.3.6-.6v-2.6c0-.3-.3-.6-.6-.6zm1.5-3.8h-8.4v1.2h8.4v-1.2zm-6.2-5.1h-2.2v1.2h2.2v-1.2zm12.8 10.2h-7.2v1.2h7.2v-1.2zm-9.4-11.5h-2.5c-.3 0-.6.3-.6.6v2.6c0 .3.3.6.6.6h2.5c.4 0 .6-.3.6-.6v-2.6c0-.3-.2-.6-.6-.6zm6.3 5h-2.5c-.4 0-.6.4-.6.7v2.6c0 .3.2.6.6.6h2.5c.3 0 .6-.3.6-.6v-2.6c0-.3-.3-.6-.6-.6zm3.1 1.4h-2.2v1.2h2.2v-1.2zm0-5.1h-8.4v1.2h8.4v-1.2z"/>
  </g>
</svg>