<svg width="572" height="45" viewBox="0 0 572 45" fill="none" xmlns="http://www.w3.org/2000/svg">
<rect width="572" height="45" fill="black"/>
<rect y="23" width="572" height="22" fill="#222222"/>
<path d="M492.743 37V30.6016H494.549C495.105 30.6016 495.598 30.7246 496.025 30.9707C496.453 31.2168 496.783 31.5669 497.014 32.021C497.249 32.4751 497.367 32.9966 497.37 33.5854V33.9941C497.37 34.5977 497.253 35.1265 497.019 35.5806C496.787 36.0347 496.455 36.3833 496.021 36.6265C495.59 36.8696 495.088 36.9941 494.514 37H492.743ZM493.586 31.2959V36.3101H494.474C495.125 36.3101 495.63 36.1079 495.99 35.7036C496.354 35.2993 496.535 34.7236 496.535 33.9766V33.603C496.535 32.8765 496.364 32.3125 496.021 31.9111C495.681 31.5068 495.198 31.3018 494.571 31.2959H493.586ZM498.306 34.5786C498.306 34.1128 498.397 33.6938 498.579 33.3218C498.763 32.9497 499.018 32.6626 499.343 32.4604C499.671 32.2583 500.045 32.1572 500.464 32.1572C501.111 32.1572 501.634 32.3813 502.033 32.8296C502.434 33.2778 502.635 33.874 502.635 34.6182V34.6753C502.635 35.1382 502.545 35.5542 502.367 35.9233C502.191 36.2896 501.938 36.5752 501.606 36.7803C501.278 36.9854 500.9 37.0879 500.473 37.0879C499.828 37.0879 499.305 36.8638 498.904 36.4155C498.505 35.9673 498.306 35.374 498.306 34.6357V34.5786ZM499.124 34.6753C499.124 35.2026 499.245 35.626 499.488 35.9453C499.734 36.2646 500.062 36.4243 500.473 36.4243C500.886 36.4243 501.214 36.2632 501.457 35.9409C501.7 35.6157 501.822 35.1616 501.822 34.5786C501.822 34.0571 501.697 33.6353 501.448 33.313C501.202 32.9878 500.874 32.8252 500.464 32.8252C500.062 32.8252 499.739 32.9849 499.493 33.3042C499.247 33.6235 499.124 34.0806 499.124 34.6753ZM507.864 35.8794L508.778 32.2451H509.591L508.207 37H507.548L506.392 33.3965L505.267 37H504.608L503.228 32.2451H504.037L504.973 35.8047L506.08 32.2451H506.735L507.864 35.8794ZM511.191 32.2451L511.217 32.8428C511.581 32.3857 512.055 32.1572 512.641 32.1572C513.646 32.1572 514.153 32.7241 514.162 33.8579V37H513.349V33.8535C513.346 33.5107 513.267 33.2573 513.111 33.0933C512.959 32.9292 512.72 32.8472 512.395 32.8472C512.131 32.8472 511.9 32.9175 511.701 33.0581C511.501 33.1987 511.346 33.3833 511.235 33.6118V37H510.422V32.2451H511.191ZM516.271 37H515.458V30.25H516.271V37ZM517.361 34.5786C517.361 34.1128 517.452 33.6938 517.633 33.3218C517.818 32.9497 518.073 32.6626 518.398 32.4604C518.726 32.2583 519.1 32.1572 519.519 32.1572C520.166 32.1572 520.689 32.3813 521.087 32.8296C521.489 33.2778 521.689 33.874 521.689 34.6182V34.6753C521.689 35.1382 521.6 35.5542 521.421 35.9233C521.246 36.2896 520.992 36.5752 520.661 36.7803C520.333 36.9854 519.955 37.0879 519.527 37.0879C518.883 37.0879 518.36 36.8638 517.958 36.4155C517.56 35.9673 517.361 35.374 517.361 34.6357V34.5786ZM518.178 34.6753C518.178 35.2026 518.3 35.626 518.543 35.9453C518.789 36.2646 519.117 36.4243 519.527 36.4243C519.94 36.4243 520.269 36.2632 520.512 35.9409C520.755 35.6157 520.876 35.1616 520.876 34.5786C520.876 34.0571 520.752 33.6353 520.503 33.313C520.257 32.9878 519.929 32.8252 519.519 32.8252C519.117 32.8252 518.793 32.9849 518.547 33.3042C518.301 33.6235 518.178 34.0806 518.178 34.6753ZM525.645 37C525.598 36.9062 525.56 36.7393 525.53 36.499C525.152 36.8916 524.701 37.0879 524.177 37.0879C523.708 37.0879 523.323 36.9561 523.021 36.6924C522.722 36.4258 522.573 36.0889 522.573 35.6816C522.573 35.1865 522.76 34.8027 523.135 34.5303C523.513 34.2549 524.043 34.1172 524.726 34.1172H525.517V33.7437C525.517 33.4595 525.432 33.2339 525.262 33.0669C525.092 32.897 524.842 32.812 524.511 32.812C524.221 32.812 523.978 32.8853 523.781 33.0317C523.585 33.1782 523.487 33.3555 523.487 33.5635H522.669C522.669 33.3262 522.753 33.0977 522.92 32.8779C523.09 32.6553 523.318 32.4795 523.605 32.3506C523.896 32.2217 524.213 32.1572 524.559 32.1572C525.107 32.1572 525.536 32.2949 525.847 32.5703C526.157 32.8428 526.318 33.2192 526.33 33.6997V35.8882C526.33 36.3247 526.386 36.6719 526.497 36.9297V37H525.645ZM524.295 36.3804C524.55 36.3804 524.792 36.3145 525.021 36.1826C525.249 36.0508 525.415 35.8794 525.517 35.6685V34.6929H524.88C523.884 34.6929 523.386 34.9844 523.386 35.5674C523.386 35.8223 523.471 36.0215 523.641 36.165C523.811 36.3086 524.029 36.3804 524.295 36.3804ZM527.407 34.583C527.407 33.8535 527.58 33.2676 527.925 32.8252C528.271 32.3799 528.724 32.1572 529.283 32.1572C529.84 32.1572 530.281 32.3477 530.606 32.7285V30.25H531.419V37H530.672L530.632 36.4902C530.307 36.8887 529.854 37.0879 529.274 37.0879C528.724 37.0879 528.274 36.8623 527.925 36.4111C527.58 35.96 527.407 35.3711 527.407 34.6445V34.583ZM528.22 34.6753C528.22 35.2144 528.331 35.6362 528.554 35.9409C528.776 36.2456 529.084 36.3979 529.477 36.3979C529.992 36.3979 530.369 36.1665 530.606 35.7036V33.5195C530.363 33.0713 529.989 32.8472 529.485 32.8472C529.087 32.8472 528.776 33.001 528.554 33.3086C528.331 33.6162 528.22 34.0718 528.22 34.6753Z" fill="#F5EFEA"/>
<path d="M54.4492 34.9697C54.3701 35.6465 54.1196 36.1694 53.6978 36.5386C53.2788 36.9048 52.7207 37.0879 52.0234 37.0879C51.2676 37.0879 50.6611 36.8169 50.2041 36.2749C49.75 35.7329 49.5229 35.0078 49.5229 34.0996V33.4844C49.5229 32.8896 49.6284 32.3667 49.8394 31.9155C50.0532 31.4644 50.355 31.1187 50.7446 30.8784C51.1343 30.6353 51.5854 30.5137 52.0981 30.5137C52.7778 30.5137 53.3228 30.7041 53.7329 31.085C54.1431 31.4629 54.3818 31.9873 54.4492 32.6582H53.6011C53.5278 32.1484 53.3682 31.7793 53.1221 31.5508C52.8789 31.3223 52.5376 31.208 52.0981 31.208C51.5591 31.208 51.1357 31.4072 50.8281 31.8057C50.5234 32.2041 50.3711 32.771 50.3711 33.5063V34.126C50.3711 34.8203 50.5161 35.3726 50.8062 35.7827C51.0962 36.1929 51.502 36.3979 52.0234 36.3979C52.4922 36.3979 52.8511 36.2925 53.1001 36.0815C53.3521 35.8677 53.519 35.4971 53.6011 34.9697H54.4492ZM56.2905 32.8208C56.6509 32.3784 57.1196 32.1572 57.6968 32.1572C58.7017 32.1572 59.2085 32.7241 59.2173 33.8579V37H58.4043V33.8535C58.4014 33.5107 58.3223 33.2573 58.167 33.0933C58.0146 32.9292 57.7759 32.8472 57.4507 32.8472C57.187 32.8472 56.9556 32.9175 56.7563 33.0581C56.5571 33.1987 56.4019 33.3833 56.2905 33.6118V37H55.4775V30.25H56.2905V32.8208ZM63.3701 37C63.3232 36.9062 63.2852 36.7393 63.2559 36.499C62.8779 36.8916 62.4268 37.0879 61.9023 37.0879C61.4336 37.0879 61.0483 36.9561 60.7466 36.6924C60.4478 36.4258 60.2983 36.0889 60.2983 35.6816C60.2983 35.1865 60.4858 34.8027 60.8608 34.5303C61.2388 34.2549 61.769 34.1172 62.4517 34.1172H63.2427V33.7437C63.2427 33.4595 63.1577 33.2339 62.9878 33.0669C62.8179 32.897 62.5674 32.812 62.2363 32.812C61.9463 32.812 61.7031 32.8853 61.5068 33.0317C61.3105 33.1782 61.2124 33.3555 61.2124 33.5635H60.395C60.395 33.3262 60.4785 33.0977 60.6455 32.8779C60.8154 32.6553 61.0439 32.4795 61.3311 32.3506C61.6211 32.2217 61.939 32.1572 62.2847 32.1572C62.8325 32.1572 63.2617 32.2949 63.5723 32.5703C63.8828 32.8428 64.0439 33.2192 64.0557 33.6997V35.8882C64.0557 36.3247 64.1113 36.6719 64.2227 36.9297V37H63.3701ZM62.021 36.3804C62.2759 36.3804 62.5176 36.3145 62.7461 36.1826C62.9746 36.0508 63.1401 35.8794 63.2427 35.6685V34.6929H62.6055C61.6094 34.6929 61.1113 34.9844 61.1113 35.5674C61.1113 35.8223 61.1963 36.0215 61.3662 36.165C61.5361 36.3086 61.7544 36.3804 62.021 36.3804ZM69.3467 34.6753C69.3467 35.3989 69.1812 35.9819 68.8501 36.4243C68.519 36.8667 68.0708 37.0879 67.5054 37.0879C66.9282 37.0879 66.4741 36.9048 66.1431 36.5386V38.8281H65.3301V32.2451H66.0728L66.1123 32.7725C66.4434 32.3623 66.9033 32.1572 67.4922 32.1572C68.0635 32.1572 68.5146 32.3726 68.8457 32.8032C69.1797 33.2339 69.3467 33.833 69.3467 34.6006V34.6753ZM68.5337 34.583C68.5337 34.0469 68.4194 33.6235 68.1909 33.313C67.9624 33.0024 67.6489 32.8472 67.2505 32.8472C66.7583 32.8472 66.3892 33.0654 66.1431 33.502V35.7739C66.3862 36.2075 66.7583 36.4243 67.2593 36.4243C67.6489 36.4243 67.958 36.2705 68.1865 35.9629C68.418 35.6523 68.5337 35.1924 68.5337 34.583ZM71.4868 31.0938V32.2451H72.3745V32.8735H71.4868V35.8223C71.4868 36.0127 71.5264 36.1562 71.6055 36.2529C71.6846 36.3467 71.8193 36.3936 72.0098 36.3936C72.1035 36.3936 72.2324 36.376 72.3965 36.3408V37C72.1826 37.0586 71.9746 37.0879 71.7725 37.0879C71.4092 37.0879 71.1353 36.978 70.9507 36.7583C70.7661 36.5386 70.6738 36.2266 70.6738 35.8223V32.8735H69.8081V32.2451H70.6738V31.0938H71.4868ZM75.3013 37.0879C74.6567 37.0879 74.1323 36.877 73.728 36.4551C73.3237 36.0303 73.1216 35.4634 73.1216 34.7544V34.605C73.1216 34.1333 73.2109 33.7129 73.3896 33.3438C73.5713 32.9717 73.8232 32.6816 74.1455 32.4736C74.4707 32.2627 74.8223 32.1572 75.2002 32.1572C75.8184 32.1572 76.2988 32.3608 76.6416 32.7681C76.9844 33.1753 77.1558 33.7583 77.1558 34.5171V34.8555H73.9346C73.9463 35.3242 74.0825 35.7036 74.3433 35.9937C74.6069 36.2808 74.9409 36.4243 75.3452 36.4243C75.6323 36.4243 75.8755 36.3657 76.0747 36.2485C76.2739 36.1313 76.4482 35.9761 76.5977 35.7827L77.0942 36.1694C76.6958 36.7817 76.0981 37.0879 75.3013 37.0879ZM75.2002 32.8252C74.8721 32.8252 74.5967 32.9453 74.374 33.1855C74.1514 33.4229 74.0137 33.7568 73.9609 34.1875H76.3428V34.126C76.3193 33.7129 76.208 33.3936 76.0088 33.168C75.8096 32.9395 75.54 32.8252 75.2002 32.8252ZM80.3989 32.9746C80.2759 32.9541 80.1426 32.9438 79.999 32.9438C79.4658 32.9438 79.104 33.1709 78.9136 33.625V37H78.1006V32.2451H78.8916L78.9048 32.7944C79.1714 32.3696 79.5493 32.1572 80.0386 32.1572C80.1968 32.1572 80.3169 32.1777 80.3989 32.2188V32.9746ZM83.9189 35.7388C83.9189 35.519 83.8354 35.3491 83.6685 35.229C83.5044 35.106 83.2158 35.0005 82.8027 34.9126C82.3926 34.8247 82.0659 34.7192 81.8228 34.5962C81.5825 34.4731 81.4038 34.3267 81.2866 34.1567C81.1724 33.9868 81.1152 33.7847 81.1152 33.5503C81.1152 33.1606 81.2793 32.8311 81.6074 32.5615C81.9385 32.292 82.3604 32.1572 82.873 32.1572C83.4121 32.1572 83.8486 32.2964 84.1826 32.5747C84.5195 32.853 84.688 33.209 84.688 33.6426H83.8706C83.8706 33.4199 83.7754 33.228 83.585 33.0669C83.3975 32.9058 83.1602 32.8252 82.873 32.8252C82.5771 32.8252 82.3457 32.8896 82.1787 33.0186C82.0117 33.1475 81.9282 33.3159 81.9282 33.5239C81.9282 33.7202 82.0059 33.8682 82.1611 33.9678C82.3164 34.0674 82.5962 34.1626 83.0005 34.2534C83.4077 34.3442 83.7373 34.4526 83.9893 34.5786C84.2412 34.7046 84.4272 34.8569 84.5474 35.0356C84.6704 35.2114 84.7319 35.4268 84.7319 35.6816C84.7319 36.1064 84.562 36.4478 84.2222 36.7056C83.8823 36.9604 83.4414 37.0879 82.8994 37.0879C82.5186 37.0879 82.1816 37.0205 81.8887 36.8857C81.5957 36.751 81.3657 36.5635 81.1987 36.3232C81.0347 36.0801 80.9526 35.8179 80.9526 35.5366H81.7656C81.7803 35.8091 81.8887 36.0259 82.0908 36.187C82.2959 36.3452 82.5654 36.4243 82.8994 36.4243C83.207 36.4243 83.4531 36.3628 83.6377 36.2397C83.8252 36.1138 83.9189 35.9468 83.9189 35.7388Z" fill="#F5EFEA"/>
<path d="M131.833 30.6016L133.924 35.8223L136.016 30.6016H137.11V37H136.267V34.5083L136.346 31.8188L134.245 37H133.599L131.503 31.832L131.586 34.5083V37H130.743V30.6016H131.833ZM140.028 35.8091L141.136 32.2451H142.006L140.094 37.7339C139.798 38.5249 139.328 38.9204 138.684 38.9204L138.53 38.9072L138.227 38.8501V38.1909L138.446 38.2085C138.722 38.2085 138.936 38.1528 139.088 38.0415C139.243 37.9302 139.371 37.7266 139.47 37.4307L139.65 36.9473L137.954 32.2451H138.842L140.028 35.8091ZM145.095 37V30.6016H147.187C147.881 30.6016 148.403 30.7451 148.751 31.0322C149.103 31.3193 149.279 31.7441 149.279 32.3066C149.279 32.6055 149.194 32.8706 149.024 33.1021C148.854 33.3306 148.623 33.5078 148.33 33.6338C148.675 33.7305 148.948 33.915 149.147 34.1875C149.349 34.457 149.45 34.7793 149.45 35.1543C149.45 35.7285 149.264 36.1797 148.892 36.5078C148.52 36.8359 147.994 37 147.314 37H145.095ZM145.939 34.0073V36.3101H147.332C147.725 36.3101 148.034 36.209 148.259 36.0068C148.488 35.8018 148.602 35.5205 148.602 35.1631C148.602 34.3926 148.183 34.0073 147.345 34.0073H145.939ZM145.939 33.3306H147.213C147.583 33.3306 147.877 33.2383 148.097 33.0537C148.319 32.8691 148.431 32.6187 148.431 32.3022C148.431 31.9507 148.328 31.6958 148.123 31.5376C147.918 31.3765 147.606 31.2959 147.187 31.2959H145.939V33.3306ZM150.36 34.5786C150.36 34.1128 150.451 33.6938 150.632 33.3218C150.817 32.9497 151.072 32.6626 151.397 32.4604C151.725 32.2583 152.099 32.1572 152.518 32.1572C153.165 32.1572 153.688 32.3813 154.086 32.8296C154.488 33.2778 154.688 33.874 154.688 34.6182V34.6753C154.688 35.1382 154.599 35.5542 154.42 35.9233C154.245 36.2896 153.991 36.5752 153.66 36.7803C153.332 36.9854 152.954 37.0879 152.526 37.0879C151.882 37.0879 151.359 36.8638 150.958 36.4155C150.559 35.9673 150.36 35.374 150.36 34.6357V34.5786ZM151.177 34.6753C151.177 35.2026 151.299 35.626 151.542 35.9453C151.788 36.2646 152.116 36.4243 152.526 36.4243C152.939 36.4243 153.268 36.2632 153.511 35.9409C153.754 35.6157 153.875 35.1616 153.875 34.5786C153.875 34.0571 153.751 33.6353 153.502 33.313C153.256 32.9878 152.928 32.8252 152.518 32.8252C152.116 32.8252 151.792 32.9849 151.546 33.3042C151.3 33.6235 151.177 34.0806 151.177 34.6753ZM155.493 34.5786C155.493 34.1128 155.583 33.6938 155.765 33.3218C155.95 32.9497 156.205 32.6626 156.53 32.4604C156.858 32.2583 157.231 32.1572 157.65 32.1572C158.298 32.1572 158.821 32.3813 159.219 32.8296C159.621 33.2778 159.821 33.874 159.821 34.6182V34.6753C159.821 35.1382 159.732 35.5542 159.553 35.9233C159.377 36.2896 159.124 36.5752 158.793 36.7803C158.465 36.9854 158.087 37.0879 157.659 37.0879C157.015 37.0879 156.492 36.8638 156.09 36.4155C155.692 35.9673 155.493 35.374 155.493 34.6357V34.5786ZM156.31 34.6753C156.31 35.2026 156.432 35.626 156.675 35.9453C156.921 36.2646 157.249 36.4243 157.659 36.4243C158.072 36.4243 158.4 36.2632 158.644 35.9409C158.887 35.6157 159.008 35.1616 159.008 34.5786C159.008 34.0571 158.884 33.6353 158.635 33.313C158.389 32.9878 158.061 32.8252 157.65 32.8252C157.249 32.8252 156.925 32.9849 156.679 33.3042C156.433 33.6235 156.31 34.0806 156.31 34.6753ZM162.168 34.7983L161.658 35.3301V37H160.845V30.25H161.658V34.3325L162.093 33.8096L163.574 32.2451H164.563L162.713 34.2314L164.778 37H163.825L162.168 34.7983ZM166.167 32.2451L166.189 32.7725C166.538 32.3623 167.008 32.1572 167.6 32.1572C168.265 32.1572 168.717 32.4121 168.958 32.9219C169.116 32.6934 169.321 32.5088 169.573 32.3682C169.828 32.2275 170.128 32.1572 170.474 32.1572C171.517 32.1572 172.047 32.7095 172.064 33.814V37H171.251V33.8623C171.251 33.5225 171.174 33.269 171.019 33.1021C170.863 32.9321 170.603 32.8472 170.236 32.8472C169.935 32.8472 169.684 32.938 169.485 33.1196C169.286 33.2983 169.17 33.54 169.138 33.8447V37H168.32V33.8843C168.32 33.1929 167.982 32.8472 167.305 32.8472C166.772 32.8472 166.407 33.0742 166.211 33.5283V37H165.398V32.2451H166.167ZM176.23 37C176.184 36.9062 176.146 36.7393 176.116 36.499C175.738 36.8916 175.287 37.0879 174.763 37.0879C174.294 37.0879 173.909 36.9561 173.607 36.6924C173.308 36.4258 173.159 36.0889 173.159 35.6816C173.159 35.1865 173.346 34.8027 173.721 34.5303C174.099 34.2549 174.629 34.1172 175.312 34.1172H176.103V33.7437C176.103 33.4595 176.018 33.2339 175.848 33.0669C175.678 32.897 175.428 32.812 175.097 32.812C174.807 32.812 174.563 32.8853 174.367 33.0317C174.171 33.1782 174.073 33.3555 174.073 33.5635H173.255C173.255 33.3262 173.339 33.0977 173.506 32.8779C173.676 32.6553 173.904 32.4795 174.191 32.3506C174.481 32.2217 174.799 32.1572 175.145 32.1572C175.693 32.1572 176.122 32.2949 176.433 32.5703C176.743 32.8428 176.904 33.2192 176.916 33.6997V35.8882C176.916 36.3247 176.972 36.6719 177.083 36.9297V37H176.23ZM174.881 36.3804C175.136 36.3804 175.378 36.3145 175.606 36.1826C175.835 36.0508 176 35.8794 176.103 35.6685V34.6929H175.466C174.47 34.6929 173.972 34.9844 173.972 35.5674C173.972 35.8223 174.057 36.0215 174.227 36.165C174.396 36.3086 174.615 36.3804 174.881 36.3804ZM180.489 32.9746C180.366 32.9541 180.232 32.9438 180.089 32.9438C179.556 32.9438 179.194 33.1709 179.003 33.625V37H178.19V32.2451H178.981L178.995 32.7944C179.261 32.3696 179.639 32.1572 180.128 32.1572C180.287 32.1572 180.407 32.1777 180.489 32.2188V32.9746ZM182.567 34.7983L182.058 35.3301V37H181.245V30.25H182.058V34.3325L182.493 33.8096L183.974 32.2451H184.962L183.112 34.2314L185.178 37H184.224L182.567 34.7983ZM188.57 35.7388C188.57 35.519 188.487 35.3491 188.32 35.229C188.156 35.106 187.867 35.0005 187.454 34.9126C187.044 34.8247 186.717 34.7192 186.474 34.5962C186.234 34.4731 186.055 34.3267 185.938 34.1567C185.824 33.9868 185.767 33.7847 185.767 33.5503C185.767 33.1606 185.931 32.8311 186.259 32.5615C186.59 32.292 187.012 32.1572 187.524 32.1572C188.063 32.1572 188.5 32.2964 188.834 32.5747C189.171 32.853 189.339 33.209 189.339 33.6426H188.522C188.522 33.4199 188.427 33.228 188.236 33.0669C188.049 32.9058 187.812 32.8252 187.524 32.8252C187.229 32.8252 186.997 32.8896 186.83 33.0186C186.663 33.1475 186.58 33.3159 186.58 33.5239C186.58 33.7202 186.657 33.8682 186.812 33.9678C186.968 34.0674 187.248 34.1626 187.652 34.2534C188.059 34.3442 188.389 34.4526 188.641 34.5786C188.893 34.7046 189.079 34.8569 189.199 35.0356C189.322 35.2114 189.383 35.4268 189.383 35.6816C189.383 36.1064 189.213 36.4478 188.874 36.7056C188.534 36.9604 188.093 37.0879 187.551 37.0879C187.17 37.0879 186.833 37.0205 186.54 36.8857C186.247 36.751 186.017 36.5635 185.85 36.3232C185.686 36.0801 185.604 35.8179 185.604 35.5366H186.417C186.432 35.8091 186.54 36.0259 186.742 36.187C186.947 36.3452 187.217 36.4243 187.551 36.4243C187.858 36.4243 188.104 36.3628 188.289 36.2397C188.477 36.1138 188.57 35.9468 188.57 35.7388Z" fill="#F5EFEA"/>
<path d="M245.276 35.3301H242.595L241.993 37H241.123L243.566 30.6016H244.305L246.752 37H245.887L245.276 35.3301ZM242.85 34.6357H245.025L243.936 31.6431L242.85 34.6357ZM247.289 34.583C247.289 33.8535 247.461 33.2676 247.807 32.8252C248.153 32.3799 248.605 32.1572 249.165 32.1572C249.722 32.1572 250.163 32.3477 250.488 32.7285V30.25H251.301V37H250.554L250.514 36.4902C250.189 36.8887 249.736 37.0879 249.156 37.0879C248.605 37.0879 248.156 36.8623 247.807 36.4111C247.461 35.96 247.289 35.3711 247.289 34.6445V34.583ZM248.102 34.6753C248.102 35.2144 248.213 35.6362 248.436 35.9409C248.658 36.2456 248.966 36.3979 249.358 36.3979C249.874 36.3979 250.25 36.1665 250.488 35.7036V33.5195C250.245 33.0713 249.871 32.8472 249.367 32.8472C248.969 32.8472 248.658 33.001 248.436 33.3086C248.213 33.6162 248.102 34.0718 248.102 34.6753ZM252.369 34.583C252.369 33.8535 252.542 33.2676 252.887 32.8252C253.233 32.3799 253.686 32.1572 254.245 32.1572C254.802 32.1572 255.243 32.3477 255.568 32.7285V30.25H256.381V37H255.634L255.594 36.4902C255.269 36.8887 254.816 37.0879 254.236 37.0879C253.686 37.0879 253.236 36.8623 252.887 36.4111C252.542 35.96 252.369 35.3711 252.369 34.6445V34.583ZM253.182 34.6753C253.182 35.2144 253.293 35.6362 253.516 35.9409C253.738 36.2456 254.046 36.3979 254.438 36.3979C254.954 36.3979 255.331 36.1665 255.568 35.7036V33.5195C255.325 33.0713 254.951 32.8472 254.447 32.8472C254.049 32.8472 253.738 33.001 253.516 33.3086C253.293 33.6162 253.182 34.0718 253.182 34.6753ZM260.006 37V30.6016H262.098C262.792 30.6016 263.314 30.7451 263.663 31.0322C264.014 31.3193 264.19 31.7441 264.19 32.3066C264.19 32.6055 264.105 32.8706 263.935 33.1021C263.765 33.3306 263.534 33.5078 263.241 33.6338C263.586 33.7305 263.859 33.915 264.058 34.1875C264.26 34.457 264.361 34.7793 264.361 35.1543C264.361 35.7285 264.175 36.1797 263.803 36.5078C263.431 36.8359 262.905 37 262.226 37H260.006ZM260.85 34.0073V36.3101H262.243C262.636 36.3101 262.945 36.209 263.17 36.0068C263.399 35.8018 263.513 35.5205 263.513 35.1631C263.513 34.3926 263.094 34.0073 262.256 34.0073H260.85ZM260.85 33.3306H262.125C262.494 33.3306 262.788 33.2383 263.008 33.0537C263.23 32.8691 263.342 32.6187 263.342 32.3022C263.342 31.9507 263.239 31.6958 263.034 31.5376C262.829 31.3765 262.517 31.2959 262.098 31.2959H260.85V33.3306ZM265.271 34.5786C265.271 34.1128 265.362 33.6938 265.543 33.3218C265.728 32.9497 265.983 32.6626 266.308 32.4604C266.636 32.2583 267.01 32.1572 267.429 32.1572C268.076 32.1572 268.599 32.3813 268.998 32.8296C269.399 33.2778 269.6 33.874 269.6 34.6182V34.6753C269.6 35.1382 269.51 35.5542 269.332 35.9233C269.156 36.2896 268.902 36.5752 268.571 36.7803C268.243 36.9854 267.865 37.0879 267.438 37.0879C266.793 37.0879 266.27 36.8638 265.869 36.4155C265.47 35.9673 265.271 35.374 265.271 34.6357V34.5786ZM266.088 34.6753C266.088 35.2026 266.21 35.626 266.453 35.9453C266.699 36.2646 267.027 36.4243 267.438 36.4243C267.851 36.4243 268.179 36.2632 268.422 35.9409C268.665 35.6157 268.787 35.1616 268.787 34.5786C268.787 34.0571 268.662 33.6353 268.413 33.313C268.167 32.9878 267.839 32.8252 267.429 32.8252C267.027 32.8252 266.704 32.9849 266.458 33.3042C266.211 33.6235 266.088 34.0806 266.088 34.6753ZM270.404 34.5786C270.404 34.1128 270.495 33.6938 270.676 33.3218C270.861 32.9497 271.116 32.6626 271.441 32.4604C271.769 32.2583 272.143 32.1572 272.562 32.1572C273.209 32.1572 273.732 32.3813 274.13 32.8296C274.532 33.2778 274.732 33.874 274.732 34.6182V34.6753C274.732 35.1382 274.643 35.5542 274.464 35.9233C274.289 36.2896 274.035 36.5752 273.704 36.7803C273.376 36.9854 272.998 37.0879 272.57 37.0879C271.926 37.0879 271.403 36.8638 271.001 36.4155C270.603 35.9673 270.404 35.374 270.404 34.6357V34.5786ZM271.221 34.6753C271.221 35.2026 271.343 35.626 271.586 35.9453C271.832 36.2646 272.16 36.4243 272.57 36.4243C272.983 36.4243 273.312 36.2632 273.555 35.9409C273.798 35.6157 273.919 35.1616 273.919 34.5786C273.919 34.0571 273.795 33.6353 273.546 33.313C273.3 32.9878 272.972 32.8252 272.562 32.8252C272.16 32.8252 271.836 32.9849 271.59 33.3042C271.344 33.6235 271.221 34.0806 271.221 34.6753ZM277.079 34.7983L276.569 35.3301V37H275.756V30.25H276.569V34.3325L277.004 33.8096L278.485 32.2451H279.474L277.624 34.2314L279.689 37H278.736L277.079 34.7983ZM281.078 32.2451L281.1 32.7725C281.449 32.3623 281.919 32.1572 282.511 32.1572C283.176 32.1572 283.628 32.4121 283.869 32.9219C284.027 32.6934 284.232 32.5088 284.484 32.3682C284.739 32.2275 285.039 32.1572 285.385 32.1572C286.428 32.1572 286.958 32.7095 286.976 33.814V37H286.163V33.8623C286.163 33.5225 286.085 33.269 285.93 33.1021C285.774 32.9321 285.514 32.8472 285.147 32.8472C284.846 32.8472 284.595 32.938 284.396 33.1196C284.197 33.2983 284.081 33.54 284.049 33.8447V37H283.231V33.8843C283.231 33.1929 282.893 32.8472 282.216 32.8472C281.683 32.8472 281.318 33.0742 281.122 33.5283V37H280.309V32.2451H281.078ZM291.142 37C291.095 36.9062 291.057 36.7393 291.027 36.499C290.649 36.8916 290.198 37.0879 289.674 37.0879C289.205 37.0879 288.82 36.9561 288.518 36.6924C288.219 36.4258 288.07 36.0889 288.07 35.6816C288.07 35.1865 288.257 34.8027 288.632 34.5303C289.01 34.2549 289.541 34.1172 290.223 34.1172H291.014V33.7437C291.014 33.4595 290.929 33.2339 290.759 33.0669C290.589 32.897 290.339 32.812 290.008 32.812C289.718 32.812 289.475 32.8853 289.278 33.0317C289.082 33.1782 288.984 33.3555 288.984 33.5635H288.167C288.167 33.3262 288.25 33.0977 288.417 32.8779C288.587 32.6553 288.815 32.4795 289.103 32.3506C289.393 32.2217 289.71 32.1572 290.056 32.1572C290.604 32.1572 291.033 32.2949 291.344 32.5703C291.654 32.8428 291.815 33.2192 291.827 33.6997V35.8882C291.827 36.3247 291.883 36.6719 291.994 36.9297V37H291.142ZM289.792 36.3804C290.047 36.3804 290.289 36.3145 290.518 36.1826C290.746 36.0508 290.912 35.8794 291.014 35.6685V34.6929H290.377C289.381 34.6929 288.883 34.9844 288.883 35.5674C288.883 35.8223 288.968 36.0215 289.138 36.165C289.308 36.3086 289.526 36.3804 289.792 36.3804ZM295.4 32.9746C295.277 32.9541 295.144 32.9438 295 32.9438C294.467 32.9438 294.105 33.1709 293.915 33.625V37H293.102V32.2451H293.893L293.906 32.7944C294.172 32.3696 294.55 32.1572 295.04 32.1572C295.198 32.1572 295.318 32.1777 295.4 32.2188V32.9746ZM297.479 34.7983L296.969 35.3301V37H296.156V30.25H296.969V34.3325L297.404 33.8096L298.885 32.2451H299.874L298.023 34.2314L300.089 37H299.135L297.479 34.7983ZM303.481 35.7388C303.481 35.519 303.398 35.3491 303.231 35.229C303.067 35.106 302.778 35.0005 302.365 34.9126C301.955 34.8247 301.628 34.7192 301.385 34.5962C301.145 34.4731 300.966 34.3267 300.849 34.1567C300.735 33.9868 300.678 33.7847 300.678 33.5503C300.678 33.1606 300.842 32.8311 301.17 32.5615C301.501 32.292 301.923 32.1572 302.436 32.1572C302.975 32.1572 303.411 32.2964 303.745 32.5747C304.082 32.853 304.25 33.209 304.25 33.6426H303.433C303.433 33.4199 303.338 33.228 303.147 33.0669C302.96 32.9058 302.723 32.8252 302.436 32.8252C302.14 32.8252 301.908 32.8896 301.741 33.0186C301.574 33.1475 301.491 33.3159 301.491 33.5239C301.491 33.7202 301.568 33.8682 301.724 33.9678C301.879 34.0674 302.159 34.1626 302.563 34.2534C302.97 34.3442 303.3 34.4526 303.552 34.5786C303.804 34.7046 303.99 34.8569 304.11 35.0356C304.233 35.2114 304.294 35.4268 304.294 35.6816C304.294 36.1064 304.125 36.4478 303.785 36.7056C303.445 36.9604 303.004 37.0879 302.462 37.0879C302.081 37.0879 301.744 37.0205 301.451 36.8857C301.158 36.751 300.928 36.5635 300.761 36.3232C300.597 36.0801 300.515 35.8179 300.515 35.5366H301.328C301.343 35.8091 301.451 36.0259 301.653 36.187C301.858 36.3452 302.128 36.4243 302.462 36.4243C302.77 36.4243 303.016 36.3628 303.2 36.2397C303.388 36.1138 303.481 35.9468 303.481 35.7388Z" fill="#F5EFEA"/>
<path d="M102.5 37L101.5 36L105.5 32L109.5 36L108.5 37L105.5 34L102.5 37Z" fill="white"/>
<path d="M205 37L204 36L208 32L212 36L211 37L208 34L205 37Z" fill="white"/>
<path d="M489.743 15V8.60156H491.549C492.105 8.60156 492.598 8.72461 493.025 8.9707C493.453 9.2168 493.783 9.56689 494.014 10.021C494.249 10.4751 494.367 10.9966 494.37 11.5854V11.9941C494.37 12.5977 494.253 13.1265 494.019 13.5806C493.787 14.0347 493.455 14.3833 493.021 14.6265C492.59 14.8696 492.088 14.9941 491.514 15H489.743ZM490.586 9.2959V14.3101H491.474C492.125 14.3101 492.63 14.1079 492.99 13.7036C493.354 13.2993 493.535 12.7236 493.535 11.9766V11.603C493.535 10.8765 493.364 10.3125 493.021 9.91113C492.681 9.50684 492.198 9.30176 491.571 9.2959H490.586ZM498.457 15C498.41 14.9062 498.372 14.7393 498.343 14.499C497.965 14.8916 497.514 15.0879 496.989 15.0879C496.521 15.0879 496.135 14.9561 495.833 14.6924C495.535 14.4258 495.385 14.0889 495.385 13.6816C495.385 13.1865 495.573 12.8027 495.948 12.5303C496.326 12.2549 496.856 12.1172 497.539 12.1172H498.33V11.7437C498.33 11.4595 498.245 11.2339 498.075 11.0669C497.905 10.897 497.654 10.812 497.323 10.812C497.033 10.812 496.79 10.8853 496.594 11.0317C496.397 11.1782 496.299 11.3555 496.299 11.5635H495.482C495.482 11.3262 495.565 11.0977 495.732 10.8779C495.902 10.6553 496.131 10.4795 496.418 10.3506C496.708 10.2217 497.026 10.1572 497.372 10.1572C497.919 10.1572 498.349 10.2949 498.659 10.5703C498.97 10.8428 499.131 11.2192 499.143 11.6997V13.8882C499.143 14.3247 499.198 14.6719 499.31 14.9297V15H498.457ZM497.108 14.3804C497.363 14.3804 497.604 14.3145 497.833 14.1826C498.062 14.0508 498.227 13.8794 498.33 13.6685V12.6929H497.692C496.696 12.6929 496.198 12.9844 496.198 13.5674C496.198 13.8223 496.283 14.0215 496.453 14.165C496.623 14.3086 496.841 14.3804 497.108 14.3804ZM503.186 13.7388C503.186 13.519 503.102 13.3491 502.935 13.229C502.771 13.106 502.482 13.0005 502.069 12.9126C501.659 12.8247 501.333 12.7192 501.089 12.5962C500.849 12.4731 500.67 12.3267 500.553 12.1567C500.439 11.9868 500.382 11.7847 500.382 11.5503C500.382 11.1606 500.546 10.8311 500.874 10.5615C501.205 10.292 501.627 10.1572 502.14 10.1572C502.679 10.1572 503.115 10.2964 503.449 10.5747C503.786 10.853 503.955 11.209 503.955 11.6426H503.137C503.137 11.4199 503.042 11.228 502.852 11.0669C502.664 10.9058 502.427 10.8252 502.14 10.8252C501.844 10.8252 501.612 10.8896 501.445 11.0186C501.278 11.1475 501.195 11.3159 501.195 11.5239C501.195 11.7202 501.272 11.8682 501.428 11.9678C501.583 12.0674 501.863 12.1626 502.267 12.2534C502.674 12.3442 503.004 12.4526 503.256 12.5786C503.508 12.7046 503.694 12.8569 503.814 13.0356C503.937 13.2114 503.999 13.4268 503.999 13.6816C503.999 14.1064 503.829 14.4478 503.489 14.7056C503.149 14.9604 502.708 15.0879 502.166 15.0879C501.785 15.0879 501.448 15.0205 501.155 14.8857C500.862 14.751 500.632 14.5635 500.465 14.3232C500.301 14.0801 500.219 13.8179 500.219 13.5366H501.032C501.047 13.8091 501.155 14.0259 501.357 14.187C501.562 14.3452 501.832 14.4243 502.166 14.4243C502.474 14.4243 502.72 14.3628 502.904 14.2397C503.092 14.1138 503.186 13.9468 503.186 13.7388ZM505.871 10.8208C506.231 10.3784 506.7 10.1572 507.277 10.1572C508.282 10.1572 508.789 10.7241 508.797 11.8579V15H507.984V11.8535C507.981 11.5107 507.902 11.2573 507.747 11.0933C507.595 10.9292 507.356 10.8472 507.031 10.8472C506.767 10.8472 506.536 10.9175 506.336 11.0581C506.137 11.1987 505.982 11.3833 505.871 11.6118V15H505.058V8.25H505.871V10.8208ZM514.04 12.6753C514.04 13.4019 513.873 13.9863 513.539 14.4287C513.205 14.8682 512.757 15.0879 512.194 15.0879C511.594 15.0879 511.129 14.8755 510.801 14.4507L510.762 15H510.015V8.25H510.828V10.7681C511.156 10.3608 511.608 10.1572 512.186 10.1572C512.763 10.1572 513.215 10.3755 513.543 10.812C513.875 11.2485 514.04 11.8462 514.04 12.605V12.6753ZM513.227 12.583C513.227 12.0293 513.12 11.6016 512.906 11.2998C512.692 10.998 512.385 10.8472 511.983 10.8472C511.447 10.8472 511.062 11.0962 510.828 11.5942V13.6509C511.077 14.1489 511.465 14.3979 511.992 14.3979C512.382 14.3979 512.685 14.2471 512.902 13.9453C513.119 13.6436 513.227 13.1895 513.227 12.583ZM514.853 12.5786C514.853 12.1128 514.944 11.6938 515.125 11.3218C515.31 10.9497 515.565 10.6626 515.89 10.4604C516.218 10.2583 516.592 10.1572 517.011 10.1572C517.658 10.1572 518.181 10.3813 518.58 10.8296C518.981 11.2778 519.182 11.874 519.182 12.6182V12.6753C519.182 13.1382 519.092 13.5542 518.914 13.9233C518.738 14.2896 518.484 14.5752 518.153 14.7803C517.825 14.9854 517.447 15.0879 517.02 15.0879C516.375 15.0879 515.852 14.8638 515.451 14.4155C515.052 13.9673 514.853 13.374 514.853 12.6357V12.5786ZM515.67 12.6753C515.67 13.2026 515.792 13.626 516.035 13.9453C516.281 14.2646 516.609 14.4243 517.02 14.4243C517.433 14.4243 517.761 14.2632 518.004 13.9409C518.247 13.6157 518.369 13.1616 518.369 12.5786C518.369 12.0571 518.244 11.6353 517.995 11.313C517.749 10.9878 517.421 10.8252 517.011 10.8252C516.609 10.8252 516.286 10.9849 516.04 11.3042C515.793 11.6235 515.67 12.0806 515.67 12.6753ZM523.137 15C523.09 14.9062 523.052 14.7393 523.022 14.499C522.645 14.8916 522.193 15.0879 521.669 15.0879C521.2 15.0879 520.815 14.9561 520.513 14.6924C520.214 14.4258 520.065 14.0889 520.065 13.6816C520.065 13.1865 520.252 12.8027 520.627 12.5303C521.005 12.2549 521.536 12.1172 522.218 12.1172H523.009V11.7437C523.009 11.4595 522.924 11.2339 522.754 11.0669C522.584 10.897 522.334 10.812 522.003 10.812C521.713 10.812 521.47 10.8853 521.273 11.0317C521.077 11.1782 520.979 11.3555 520.979 11.5635H520.162C520.162 11.3262 520.245 11.0977 520.412 10.8779C520.582 10.6553 520.811 10.4795 521.098 10.3506C521.388 10.2217 521.706 10.1572 522.051 10.1572C522.599 10.1572 523.028 10.2949 523.339 10.5703C523.649 10.8428 523.811 11.2192 523.822 11.6997V13.8882C523.822 14.3247 523.878 14.6719 523.989 14.9297V15H523.137ZM521.788 14.3804C522.042 14.3804 522.284 14.3145 522.513 14.1826C522.741 14.0508 522.907 13.8794 523.009 13.6685V12.6929H522.372C521.376 12.6929 520.878 12.9844 520.878 13.5674C520.878 13.8223 520.963 14.0215 521.133 14.165C521.303 14.3086 521.521 14.3804 521.788 14.3804ZM527.395 10.9746C527.272 10.9541 527.139 10.9438 526.995 10.9438C526.462 10.9438 526.1 11.1709 525.91 11.625V15H525.097V10.2451H525.888L525.901 10.7944C526.167 10.3696 526.545 10.1572 527.035 10.1572C527.193 10.1572 527.313 10.1777 527.395 10.2188V10.9746ZM527.861 12.583C527.861 11.8535 528.034 11.2676 528.379 10.8252C528.725 10.3799 529.178 10.1572 529.737 10.1572C530.294 10.1572 530.735 10.3477 531.06 10.7285V8.25H531.873V15H531.126L531.086 14.4902C530.761 14.8887 530.309 15.0879 529.729 15.0879C529.178 15.0879 528.728 14.8623 528.379 14.4111C528.034 13.96 527.861 13.3711 527.861 12.6445V12.583ZM528.674 12.6753C528.674 13.2144 528.785 13.6362 529.008 13.9409C529.23 14.2456 529.538 14.3979 529.931 14.3979C530.446 14.3979 530.823 14.1665 531.06 13.7036V11.5195C530.817 11.0713 530.443 10.8472 529.939 10.8472C529.541 10.8472 529.23 11.001 529.008 11.3086C528.785 11.6162 528.674 12.0718 528.674 12.6753Z" fill="#F5EFEA"/>
<path d="M430.591 14.3101H433.623V15H429.743V8.60156H430.591V14.3101ZM435.341 15H434.528V10.2451H435.341V15ZM434.462 8.98389C434.462 8.85205 434.502 8.74072 434.581 8.6499C434.663 8.55908 434.783 8.51367 434.941 8.51367C435.1 8.51367 435.22 8.55908 435.302 8.6499C435.384 8.74072 435.425 8.85205 435.425 8.98389C435.425 9.11572 435.384 9.22559 435.302 9.31348C435.22 9.40137 435.1 9.44531 434.941 9.44531C434.783 9.44531 434.663 9.40137 434.581 9.31348C434.502 9.22559 434.462 9.11572 434.462 8.98389ZM440.672 12.6753C440.672 13.4019 440.505 13.9863 440.171 14.4287C439.837 14.8682 439.389 15.0879 438.826 15.0879C438.226 15.0879 437.761 14.8755 437.433 14.4507L437.394 15H436.646V8.25H437.459V10.7681C437.788 10.3608 438.24 10.1572 438.817 10.1572C439.395 10.1572 439.847 10.3755 440.175 10.812C440.506 11.2485 440.672 11.8462 440.672 12.605V12.6753ZM439.859 12.583C439.859 12.0293 439.752 11.6016 439.538 11.2998C439.324 10.998 439.017 10.8472 438.615 10.8472C438.079 10.8472 437.694 11.0962 437.459 11.5942V13.6509C437.708 14.1489 438.097 14.3979 438.624 14.3979C439.014 14.3979 439.317 14.2471 439.534 13.9453C439.75 13.6436 439.859 13.1895 439.859 12.583ZM443.999 10.9746C443.875 10.9541 443.742 10.9438 443.599 10.9438C443.065 10.9438 442.704 11.1709 442.513 11.625V15H441.7V10.2451H442.491L442.504 10.7944C442.771 10.3696 443.149 10.1572 443.638 10.1572C443.796 10.1572 443.917 10.1777 443.999 10.2188V10.9746ZM447.51 15C447.463 14.9062 447.425 14.7393 447.396 14.499C447.018 14.8916 446.566 15.0879 446.042 15.0879C445.573 15.0879 445.188 14.9561 444.886 14.6924C444.587 14.4258 444.438 14.0889 444.438 13.6816C444.438 13.1865 444.625 12.8027 445 12.5303C445.378 12.2549 445.909 12.1172 446.591 12.1172H447.382V11.7437C447.382 11.4595 447.297 11.2339 447.127 11.0669C446.958 10.897 446.707 10.812 446.376 10.812C446.086 10.812 445.843 10.8853 445.646 11.0317C445.45 11.1782 445.352 11.3555 445.352 11.5635H444.535C444.535 11.3262 444.618 11.0977 444.785 10.8779C444.955 10.6553 445.184 10.4795 445.471 10.3506C445.761 10.2217 446.079 10.1572 446.424 10.1572C446.972 10.1572 447.401 10.2949 447.712 10.5703C448.022 10.8428 448.184 11.2192 448.195 11.6997V13.8882C448.195 14.3247 448.251 14.6719 448.362 14.9297V15H447.51ZM446.161 14.3804C446.416 14.3804 446.657 14.3145 446.886 14.1826C447.114 14.0508 447.28 13.8794 447.382 13.6685V12.6929H446.745C445.749 12.6929 445.251 12.9844 445.251 13.5674C445.251 13.8223 445.336 14.0215 445.506 14.165C445.676 14.3086 445.894 14.3804 446.161 14.3804ZM451.768 10.9746C451.645 10.9541 451.512 10.9438 451.368 10.9438C450.835 10.9438 450.473 11.1709 450.283 11.625V15H449.47V10.2451H450.261L450.274 10.7944C450.541 10.3696 450.918 10.1572 451.408 10.1572C451.566 10.1572 451.686 10.1777 451.768 10.2188V10.9746ZM454.154 13.8091L455.262 10.2451H456.132L454.22 15.7339C453.924 16.5249 453.454 16.9204 452.81 16.9204L452.656 16.9072L452.353 16.8501V16.1909L452.572 16.2085C452.848 16.2085 453.062 16.1528 453.214 16.0415C453.369 15.9302 453.497 15.7266 453.596 15.4307L453.776 14.9473L452.08 10.2451H452.968L454.154 13.8091Z" fill="#F5EFEA"/>
<path d="M43.2925 13.106L45.3335 9.17969H46.5044L43.8081 14.0835V17H42.7769V14.0835L40.0806 9.17969H41.2622L43.2925 13.106ZM46.7407 14.0405C46.7407 13.4712 46.8517 12.9591 47.0737 12.5044C47.2993 12.0496 47.6108 11.6987 48.0083 11.4517C48.4093 11.2046 48.8659 11.0811 49.3779 11.0811C50.1693 11.0811 50.8084 11.355 51.2954 11.9028C51.786 12.4507 52.0312 13.1794 52.0312 14.0889V14.1587C52.0312 14.7244 51.922 15.2329 51.7036 15.6841C51.4888 16.1317 51.179 16.4808 50.7744 16.7314C50.3734 16.9821 49.9115 17.1074 49.3887 17.1074C48.6009 17.1074 47.9618 16.8335 47.4712 16.2856C46.9842 15.7378 46.7407 15.0127 46.7407 14.1104V14.0405ZM47.7397 14.1587C47.7397 14.8032 47.8883 15.3206 48.1855 15.7109C48.4863 16.1012 48.8874 16.2964 49.3887 16.2964C49.8936 16.2964 50.2946 16.0994 50.5918 15.7056C50.889 15.3081 51.0376 14.7531 51.0376 14.0405C51.0376 13.4032 50.8854 12.8875 50.5811 12.4937C50.2803 12.0962 49.8792 11.8975 49.3779 11.8975C48.8874 11.8975 48.4917 12.0926 48.1909 12.4829C47.8901 12.8732 47.7397 13.4318 47.7397 14.1587ZM56.8652 16.4253C56.4785 16.88 55.911 17.1074 55.1626 17.1074C54.5431 17.1074 54.0705 16.9284 53.7446 16.5703C53.4224 16.2087 53.2594 15.6751 53.2559 14.9697V11.1885H54.2495V14.9429C54.2495 15.8237 54.6076 16.2642 55.3237 16.2642C56.0828 16.2642 56.5877 15.9813 56.8384 15.4155V11.1885H57.832V17H56.8867L56.8652 16.4253ZM62.1558 12.0801C62.0054 12.055 61.8424 12.0425 61.667 12.0425C61.0153 12.0425 60.5731 12.32 60.3403 12.875V17H59.3467V11.1885H60.3135L60.3296 11.8599C60.6554 11.3407 61.1174 11.0811 61.7153 11.0811C61.9087 11.0811 62.0555 11.1061 62.1558 11.1562V12.0801ZM70.2715 13.5464H66.9897V17H65.9585V9.17969H70.8032V10.0283H66.9897V12.7031H70.2715V13.5464ZM72.9624 17H71.9688V11.1885H72.9624V17ZM71.8882 9.64697C71.8882 9.48584 71.9365 9.34977 72.0332 9.23877C72.1335 9.12777 72.2803 9.07227 72.4736 9.07227C72.667 9.07227 72.8138 9.12777 72.9141 9.23877C73.0143 9.34977 73.0645 9.48584 73.0645 9.64697C73.0645 9.80811 73.0143 9.94238 72.9141 10.0498C72.8138 10.1572 72.667 10.2109 72.4736 10.2109C72.2803 10.2109 72.1335 10.1572 72.0332 10.0498C71.9365 9.94238 71.8882 9.80811 71.8882 9.64697ZM77.3667 12.0801C77.2163 12.055 77.0534 12.0425 76.8779 12.0425C76.2262 12.0425 75.784 12.32 75.5513 12.875V17H74.5576V11.1885H75.5244L75.5405 11.8599C75.8664 11.3407 76.3283 11.0811 76.9263 11.0811C77.1196 11.0811 77.2664 11.1061 77.3667 11.1562V12.0801ZM81.6689 15.4585C81.6689 15.1899 81.5669 14.9823 81.3628 14.8354C81.1623 14.6851 80.8096 14.5562 80.3047 14.4487C79.8034 14.3413 79.4041 14.2124 79.1069 14.062C78.8133 13.9116 78.5949 13.7326 78.4517 13.5249C78.312 13.3172 78.2422 13.0701 78.2422 12.7837C78.2422 12.3075 78.4427 11.9046 78.8438 11.5752C79.2484 11.2458 79.764 11.0811 80.3906 11.0811C81.0495 11.0811 81.583 11.2511 81.9912 11.5913C82.403 11.9315 82.6089 12.3665 82.6089 12.8965H81.6099C81.6099 12.6243 81.4935 12.3898 81.2607 12.1929C81.0316 11.9959 80.7415 11.8975 80.3906 11.8975C80.029 11.8975 79.7461 11.9762 79.542 12.1338C79.3379 12.2913 79.2358 12.4972 79.2358 12.7515C79.2358 12.9914 79.3307 13.1722 79.5205 13.2939C79.7103 13.4157 80.0522 13.5321 80.5464 13.6431C81.0441 13.7541 81.4469 13.8866 81.7549 14.0405C82.0628 14.1945 82.2902 14.3807 82.437 14.5991C82.5874 14.814 82.6626 15.0771 82.6626 15.3887C82.6626 15.9079 82.4549 16.325 82.0396 16.6401C81.6242 16.9517 81.0853 17.1074 80.4229 17.1074C79.9574 17.1074 79.5456 17.0251 79.1875 16.8604C78.8294 16.6956 78.5483 16.4665 78.3442 16.1729C78.1437 15.8757 78.0435 15.5552 78.0435 15.2114H79.0371C79.055 15.5444 79.1875 15.8094 79.4346 16.0063C79.6852 16.1997 80.0146 16.2964 80.4229 16.2964C80.7988 16.2964 81.0996 16.2212 81.3252 16.0708C81.5544 15.9168 81.6689 15.7127 81.6689 15.4585ZM85.3052 9.78125V11.1885H86.3901V11.9565H85.3052V15.5605C85.3052 15.7933 85.3535 15.9688 85.4502 16.0869C85.5469 16.2015 85.7116 16.2588 85.9443 16.2588C86.0589 16.2588 86.2165 16.2373 86.417 16.1943V17C86.1556 17.0716 85.9014 17.1074 85.6543 17.1074C85.2103 17.1074 84.8755 16.9731 84.6499 16.7046C84.4243 16.436 84.3115 16.0547 84.3115 15.5605V11.9565H83.2534V11.1885H84.3115V9.78125H85.3052ZM92.1265 14.5347L92.2769 15.5659L92.4971 14.6367L94.0439 9.17969H94.9141L96.4233 14.6367L96.6382 15.582L96.8047 14.5293L98.0186 9.17969H99.0552L97.1592 17H96.2192L94.6079 11.3013L94.4844 10.7051L94.3608 11.3013L92.6904 17H91.7505L89.8599 9.17969H90.8911L92.1265 14.5347ZM102.289 17.1074C101.501 17.1074 100.86 16.8496 100.366 16.334C99.8716 15.8148 99.6245 15.1219 99.6245 14.2554V14.0728C99.6245 13.4963 99.7337 12.9824 99.9521 12.5312C100.174 12.0765 100.482 11.722 100.876 11.4678C101.273 11.21 101.703 11.0811 102.165 11.0811C102.921 11.0811 103.508 11.3299 103.927 11.8276C104.346 12.3254 104.555 13.0379 104.555 13.9653V14.3789H100.618C100.632 14.9518 100.799 15.4155 101.118 15.77C101.44 16.1209 101.848 16.2964 102.342 16.2964C102.693 16.2964 102.99 16.2248 103.234 16.0815C103.477 15.9383 103.69 15.7485 103.873 15.5122L104.48 15.9849C103.993 16.7332 103.263 17.1074 102.289 17.1074ZM102.165 11.8975C101.764 11.8975 101.427 12.0443 101.155 12.3379C100.883 12.6279 100.715 13.0361 100.65 13.5625H103.562V13.4873C103.533 12.9824 103.397 12.5921 103.153 12.3164C102.91 12.0371 102.58 11.8975 102.165 11.8975ZM108.122 17.1074C107.334 17.1074 106.693 16.8496 106.199 16.334C105.705 15.8148 105.458 15.1219 105.458 14.2554V14.0728C105.458 13.4963 105.567 12.9824 105.785 12.5312C106.007 12.0765 106.315 11.722 106.709 11.4678C107.106 11.21 107.536 11.0811 107.998 11.0811C108.754 11.0811 109.341 11.3299 109.76 11.8276C110.179 12.3254 110.388 13.0379 110.388 13.9653V14.3789H106.451C106.465 14.9518 106.632 15.4155 106.951 15.77C107.273 16.1209 107.681 16.2964 108.175 16.2964C108.526 16.2964 108.823 16.2248 109.067 16.0815C109.31 15.9383 109.523 15.7485 109.706 15.5122L110.313 15.9849C109.826 16.7332 109.096 17.1074 108.122 17.1074ZM107.998 11.8975C107.597 11.8975 107.26 12.0443 106.988 12.3379C106.716 12.6279 106.548 13.0361 106.483 13.5625H109.395V13.4873C109.366 12.9824 109.23 12.5921 108.986 12.3164C108.743 12.0371 108.413 11.8975 107.998 11.8975ZM113.165 14.3091L112.542 14.959V17H111.548V8.75H112.542V13.7397L113.074 13.1006L114.884 11.1885H116.092L113.831 13.6162L116.355 17H115.19L113.165 14.3091ZM124.992 15.6304L126.109 11.1885H127.103L125.411 17H124.605L123.193 12.5957L121.818 17H121.012L119.326 11.1885H120.314L121.458 15.5391L122.812 11.1885H123.612L124.992 15.6304ZM129.198 17H128.204V11.1885H129.198V17ZM128.124 9.64697C128.124 9.48584 128.172 9.34977 128.269 9.23877C128.369 9.12777 128.516 9.07227 128.709 9.07227C128.902 9.07227 129.049 9.12777 129.149 9.23877C129.25 9.34977 129.3 9.48584 129.3 9.64697C129.3 9.80811 129.25 9.94238 129.149 10.0498C129.049 10.1572 128.902 10.2109 128.709 10.2109C128.516 10.2109 128.369 10.1572 128.269 10.0498C128.172 9.94238 128.124 9.80811 128.124 9.64697ZM132.141 9.78125V11.1885H133.226V11.9565H132.141V15.5605C132.141 15.7933 132.189 15.9688 132.286 16.0869C132.383 16.2015 132.548 16.2588 132.78 16.2588C132.895 16.2588 133.052 16.2373 133.253 16.1943V17C132.992 17.0716 132.737 17.1074 132.49 17.1074C132.046 17.1074 131.711 16.9731 131.486 16.7046C131.26 16.436 131.147 16.0547 131.147 15.5605V11.9565H130.089V11.1885H131.147V9.78125H132.141ZM135.385 11.8921C135.826 11.3514 136.399 11.0811 137.104 11.0811C138.332 11.0811 138.952 11.7739 138.962 13.1597V17H137.969V13.1543C137.965 12.7354 137.868 12.4256 137.679 12.2251C137.493 12.0246 137.201 11.9243 136.803 11.9243C136.481 11.9243 136.198 12.0103 135.955 12.1821C135.711 12.354 135.521 12.5796 135.385 12.8589V17H134.392V8.75H135.385V11.8921ZM143.334 17V9.17969H145.891C146.74 9.17969 147.377 9.35514 147.803 9.70605C148.233 10.057 148.448 10.5762 148.448 11.2637C148.448 11.6289 148.344 11.953 148.136 12.2358C147.929 12.5151 147.646 12.7318 147.288 12.8857C147.71 13.0039 148.043 13.2295 148.287 13.5625C148.534 13.8919 148.657 14.2858 148.657 14.7441C148.657 15.446 148.43 15.9974 147.975 16.3984C147.52 16.7995 146.878 17 146.047 17H143.334ZM144.366 13.3423V16.1567H146.068C146.548 16.1567 146.926 16.0332 147.202 15.7861C147.481 15.5355 147.621 15.1917 147.621 14.7549C147.621 13.8132 147.109 13.3423 146.084 13.3423H144.366ZM144.366 12.5151H145.923C146.375 12.5151 146.734 12.4023 147.003 12.1768C147.275 11.9512 147.411 11.645 147.411 11.2583C147.411 10.8286 147.286 10.5171 147.035 10.3237C146.785 10.1268 146.403 10.0283 145.891 10.0283H144.366V12.5151ZM149.769 14.0405C149.769 13.4712 149.88 12.9591 150.102 12.5044C150.328 12.0496 150.639 11.6987 151.037 11.4517C151.438 11.2046 151.894 11.0811 152.406 11.0811C153.198 11.0811 153.837 11.355 154.324 11.9028C154.814 12.4507 155.06 13.1794 155.06 14.0889V14.1587C155.06 14.7244 154.95 15.2329 154.732 15.6841C154.517 16.1317 154.207 16.4808 153.803 16.7314C153.402 16.9821 152.94 17.1074 152.417 17.1074C151.629 17.1074 150.99 16.8335 150.5 16.2856C150.013 15.7378 149.769 15.0127 149.769 14.1104V14.0405ZM150.768 14.1587C150.768 14.8032 150.917 15.3206 151.214 15.7109C151.515 16.1012 151.916 16.2964 152.417 16.2964C152.922 16.2964 153.323 16.0994 153.62 15.7056C153.917 15.3081 154.066 14.7531 154.066 14.0405C154.066 13.4032 153.914 12.8875 153.609 12.4937C153.309 12.0962 152.908 11.8975 152.406 11.8975C151.916 11.8975 151.52 12.0926 151.219 12.4829C150.918 12.8732 150.768 13.4318 150.768 14.1587ZM156.042 14.0405C156.042 13.4712 156.153 12.9591 156.375 12.5044C156.601 12.0496 156.913 11.6987 157.31 11.4517C157.711 11.2046 158.168 11.0811 158.68 11.0811C159.471 11.0811 160.11 11.355 160.597 11.9028C161.088 12.4507 161.333 13.1794 161.333 14.0889V14.1587C161.333 14.7244 161.224 15.2329 161.005 15.6841C160.791 16.1317 160.481 16.4808 160.076 16.7314C159.675 16.9821 159.213 17.1074 158.69 17.1074C157.903 17.1074 157.264 16.8335 156.773 16.2856C156.286 15.7378 156.042 15.0127 156.042 14.1104V14.0405ZM157.042 14.1587C157.042 14.8032 157.19 15.3206 157.487 15.7109C157.788 16.1012 158.189 16.2964 158.69 16.2964C159.195 16.2964 159.596 16.0994 159.894 15.7056C160.191 15.3081 160.339 14.7531 160.339 14.0405C160.339 13.4032 160.187 12.8875 159.883 12.4937C159.582 12.0962 159.181 11.8975 158.68 11.8975C158.189 11.8975 157.793 12.0926 157.493 12.4829C157.192 12.8732 157.042 13.4318 157.042 14.1587ZM163.927 9.78125V11.1885H165.012V11.9565H163.927V15.5605C163.927 15.7933 163.976 15.9688 164.072 16.0869C164.169 16.2015 164.334 16.2588 164.566 16.2588C164.681 16.2588 164.839 16.2373 165.039 16.1943V17C164.778 17.0716 164.523 17.1074 164.276 17.1074C163.832 17.1074 163.498 16.9731 163.272 16.7046C163.046 16.436 162.934 16.0547 162.934 15.5605V11.9565H161.875V11.1885H162.934V9.78125H163.927ZM169.562 15.4585C169.562 15.1899 169.459 14.9823 169.255 14.8354C169.055 14.6851 168.702 14.5562 168.197 14.4487C167.696 14.3413 167.297 14.2124 167 14.062C166.706 13.9116 166.487 13.7326 166.344 13.5249C166.205 13.3172 166.135 13.0701 166.135 12.7837C166.135 12.3075 166.335 11.9046 166.736 11.5752C167.141 11.2458 167.657 11.0811 168.283 11.0811C168.942 11.0811 169.476 11.2511 169.884 11.5913C170.296 11.9315 170.501 12.3665 170.501 12.8965H169.502C169.502 12.6243 169.386 12.3898 169.153 12.1929C168.924 11.9959 168.634 11.8975 168.283 11.8975C167.922 11.8975 167.639 11.9762 167.435 12.1338C167.23 12.2913 167.128 12.4972 167.128 12.7515C167.128 12.9914 167.223 13.1722 167.413 13.2939C167.603 13.4157 167.945 13.5321 168.439 13.6431C168.937 13.7541 169.34 13.8866 169.647 14.0405C169.955 14.1945 170.183 14.3807 170.33 14.5991C170.48 14.814 170.555 15.0771 170.555 15.3887C170.555 15.9079 170.347 16.325 169.932 16.6401C169.517 16.9517 168.978 17.1074 168.315 17.1074C167.85 17.1074 167.438 17.0251 167.08 16.8604C166.722 16.6956 166.441 16.4665 166.237 16.1729C166.036 15.8757 165.936 15.5552 165.936 15.2114H166.93C166.948 15.5444 167.08 15.8094 167.327 16.0063C167.578 16.1997 167.907 16.2964 168.315 16.2964C168.691 16.2964 168.992 16.2212 169.218 16.0708C169.447 15.9168 169.562 15.7127 169.562 15.4585ZM173.198 9.78125V11.1885H174.283V11.9565H173.198V15.5605C173.198 15.7933 173.246 15.9688 173.343 16.0869C173.439 16.2015 173.604 16.2588 173.837 16.2588C173.951 16.2588 174.109 16.2373 174.31 16.1943V17C174.048 17.0716 173.794 17.1074 173.547 17.1074C173.103 17.1074 172.768 16.9731 172.542 16.7046C172.317 16.436 172.204 16.0547 172.204 15.5605V11.9565H171.146V11.1885H172.204V9.78125H173.198ZM178.257 12.0801C178.107 12.055 177.944 12.0425 177.769 12.0425C177.117 12.0425 176.675 12.32 176.442 12.875V17H175.448V11.1885H176.415L176.431 11.8599C176.757 11.3407 177.219 11.0811 177.817 11.0811C178.01 11.0811 178.157 11.1061 178.257 11.1562V12.0801ZM182.549 17C182.492 16.8854 182.445 16.6813 182.409 16.3877C181.947 16.8675 181.396 17.1074 180.755 17.1074C180.182 17.1074 179.711 16.9463 179.342 16.624C178.977 16.2982 178.794 15.8864 178.794 15.3887C178.794 14.7835 179.024 14.3145 179.482 13.9814C179.944 13.6449 180.592 13.4766 181.426 13.4766H182.393V13.02C182.393 12.6727 182.289 12.397 182.082 12.1929C181.874 11.9852 181.568 11.8813 181.163 11.8813C180.809 11.8813 180.511 11.9709 180.271 12.1499C180.032 12.3289 179.912 12.5456 179.912 12.7998H178.913C178.913 12.5098 179.015 12.2305 179.219 11.9619C179.426 11.6898 179.706 11.4749 180.057 11.3174C180.411 11.1598 180.8 11.0811 181.222 11.0811C181.892 11.0811 182.416 11.2493 182.796 11.5859C183.175 11.9189 183.372 12.3791 183.387 12.9663V15.6411C183.387 16.1746 183.455 16.599 183.591 16.9141V17H182.549ZM180.9 16.2427C181.211 16.2427 181.507 16.1621 181.786 16.001C182.065 15.8398 182.268 15.6304 182.393 15.3726V14.1802H181.614C180.397 14.1802 179.788 14.5365 179.788 15.249C179.788 15.5605 179.892 15.804 180.1 15.9795C180.307 16.1549 180.574 16.2427 180.9 16.2427ZM189.854 14.1587C189.854 15.0431 189.651 15.7557 189.247 16.2964C188.842 16.8371 188.294 17.1074 187.603 17.1074C186.898 17.1074 186.343 16.8836 185.938 16.436V19.2344H184.944V11.1885H185.852L185.9 11.833C186.305 11.3317 186.867 11.0811 187.587 11.0811C188.285 11.0811 188.837 11.3442 189.241 11.8706C189.649 12.397 189.854 13.1292 189.854 14.0674V14.1587ZM188.86 14.0459C188.86 13.3906 188.72 12.8732 188.441 12.4937C188.162 12.1141 187.778 11.9243 187.292 11.9243C186.69 11.9243 186.239 12.1911 185.938 12.7246V15.5015C186.235 16.0314 186.69 16.2964 187.302 16.2964C187.778 16.2964 188.156 16.1084 188.436 15.7324C188.718 15.3529 188.86 14.7907 188.86 14.0459Z" fill="#F5EFEA"/>
<path d="M229 31C229 30.4477 229.448 30 230 30H235C235.552 30 236 30.4477 236 31V39L232.5 36.75L229 39V31Z" fill="white"/>
<line x1="220.25" y1="27" x2="220.25" y2="43" stroke="#5F5F5F" stroke-width="0.5"/>
<line x1="117.25" y1="27" x2="117.25" y2="43" stroke="#5F5F5F" stroke-width="0.5"/>
<rect x="411" y="8" width="2" height="5" fill="#F5EFEA"/>
<rect x="414" y="8" width="2" height="5" fill="#F5EFEA"/>
<rect x="416.105" y="7.16956" width="3" height="8.12253" transform="rotate(-15.075 416.105 7.16956)" fill="#F5EFEA"/>
<rect x="411" y="14" width="2" height="1" fill="#F5EFEA"/>
<rect x="414" y="14" width="2" height="1" fill="#F5EFEA"/>
<rect x="411" y="6" width="2" height="1" fill="#F5EFEA"/>
<rect x="414" y="6" width="2" height="1" fill="#F5EFEA"/>
<path fill-rule="evenodd" clip-rule="evenodd" d="M381.59 13.1456H384.841L385.466 15H387.438L384.069 6H382.35L379 15H380.972L381.59 13.1456ZM384.341 11.6435H382.091L383.209 8.27473L384.341 11.6435Z" fill="#F5EFEA"/>
<path d="M390.465 6.94406H389.314V8.0949H388.164V9.24575H389.314V10.3966H390.465V9.24575H391.616V8.0949H390.465V6.94406Z" fill="#F5EFEA"/>
<path d="M388.164 11.5475H391.616V12.6983H388.164V11.5475Z" fill="#F5EFEA"/>
<path d="M479.14 29C479.339 29 479.5 29.1679 479.5 29.375V32.125H481.131C481.452 32.125 481.612 32.5289 481.385 32.7652L478.755 35.5057C478.614 35.6521 478.386 35.6521 478.245 35.5057L475.615 32.7652C475.388 32.5289 475.548 32.125 475.869 32.125H477.5V29.375C477.5 29.1679 477.661 29 477.86 29H479.14Z" fill="#F5EFEA"/>
<path fill-rule="evenodd" clip-rule="evenodd" d="M478.211 36.1933L477 35H474.36C474.161 35 474 35.1679 474 35.375V37.625C474 37.8321 474.161 38 474.36 38H482.64C482.839 38 483 37.8321 483 37.625V35.375C483 35.1679 482.839 35 482.64 35H480L478.755 36.1933C478.611 36.3655 478.354 36.3655 478.211 36.1933ZM480.57 37.625C480.819 37.625 481.02 37.4151 481.02 37.1562C481.02 36.8974 480.819 36.6875 480.57 36.6875C480.321 36.6875 480.12 36.8974 480.12 37.1562C480.12 37.4151 480.321 37.625 480.57 37.625ZM482.28 37.1562C482.28 37.4151 482.079 37.625 481.83 37.625C481.581 37.625 481.38 37.4151 481.38 37.1562C481.38 36.8974 481.581 36.6875 481.83 36.6875C482.079 36.6875 482.28 36.8974 482.28 37.1562Z" fill="#F5EFEA"/>
<path d="M479 7H478V8H474V9H478V10H479V9H483V8H479V7Z" fill="#F5EFEA"/>
<path d="M483 11H481V10H480V11H474V12H480V13H481V12H483V11Z" fill="#F5EFEA"/>
<path d="M483 14V15H477V16H476V15H474V14H476V13H477V14H483Z" fill="#F5EFEA"/>
</svg>
