<svg width="458" height="336" viewBox="0 0 458 336" fill="none" xmlns="http://www.w3.org/2000/svg">
<rect width="458" height="336" fill="#333333"/>
<path d="M286.5 26.5C284.167 26.8333 278 27.3 274 26.5C270 25.7 265.333 23.5 263.5 22.5L258 52C259.833 53.6667 264.7 57.3 269.5 58.5C274.3 59.7 279.167 58 281 57M286.5 26.5L281 57M286.5 26.5C288.333 27.5 293 30.2 297 31C301 31.8 306.667 31.3333 309 31L304 61.5C302.167 62.5 297.3 64.2 292.5 63C287.7 61.8 282.833 58.6667 281 57" stroke="#404040" stroke-width="2"/>
<path d="M155 260L153 268.375M153 268.375L148.5 269.5L168 283L191.5 277.5L184.036 272M153 268.375L158.5 267M184.036 272L172.5 263.5L158.5 267M184.036 272L186 260L161 255L158.5 267" stroke="#404040" stroke-width="2"/>
<path d="M216 175C216 182.833 212.7 199 207.5 207C202.3 215 189.333 224.833 182.5 228" stroke="#404040" stroke-width="3"/>
<circle cx="68.5" cy="306.5" r="18" stroke="#404040" stroke-width="3"/>
<path d="M27 310L24.5 318L17.5 313.5L13.5 322L6.5 318L3 324.5" stroke="#404040" stroke-width="3"/>
<path d="M101.502 196.002L85.7257 200.604L83.5019 185.002L67.0019 190.002L65.5019 175.002L50.0001 180" stroke="#404040" stroke-width="3"/>
<path d="M156 18.5L159.5 9L169 15L165.5 26L156 18.5Z" stroke="#404040" stroke-width="3"/>
<rect x="183.338" y="80.7605" width="31.9782" height="31.1857" transform="rotate(11.0883 183.338 80.7605)" stroke="#404040" stroke-width="3"/>
<path d="M321.919 277.414L309.919 318.414M304 283.852L292 298.352L304 312.352M329 312.352L341 297.852L329 283.852" stroke="#404040" stroke-width="3"/>
<path d="M411.958 134.264L426.315 120.676L445.261 126.316L449.85 145.543L435.493 159.132L416.547 153.492L411.958 134.264Z" stroke="#404040" stroke-width="3"/>
<path d="M51.975 92H43.9999L43.9998 66.9998H51.9988L51.975 92ZM51.3003 63.9998H44.6993L47.9998 58.0589L51.3003 63.9998ZM43.9999 94H51.9741V98H44L43.9999 94Z" stroke="#404040" stroke-width="2"/>
<path d="M385.283 41.631L405.975 48.0018L390.112 62.7363L385.283 41.631Z" stroke="#404040" stroke-width="3"/>
<path d="M411.356 260L426.043 260.499L430.106 274.62L417.931 282.849L406.343 273.813L411.356 260Z" stroke="#404040" stroke-width="3"/>
<path d="M313 147.5V143.5M296 150.5L299.73 153.235M325 152.586L328.086 149.5M313.086 171.232V175.232M329.086 168.232L325.356 165.498M300.086 166.147L297 169.232M327 159C327 159 320.508 167 312.5 167C304.492 167 298 159 298 159C298 159 304.492 151 312.5 151C320.508 151 327 159 327 159ZM317.5 158.975C317.5 161.737 315.261 163.975 312.5 163.975C309.739 163.975 307.5 161.737 307.5 158.975C307.5 156.214 309.739 153.975 312.5 153.975C315.261 153.975 317.5 156.214 317.5 158.975Z" stroke="#404040" stroke-width="2" stroke-linecap="round"/>
<circle cx="147.5" cy="134.5" r="4.5" fill="#404040"/>
<circle cx="340.5" cy="91.5" r="4.5" fill="#404040"/>
<rect x="247.529" y="230" width="8" height="8" transform="rotate(11.0185 247.529 230)" fill="#404040"/>
<rect x="374.529" y="204" width="8" height="8" transform="rotate(11.0185 374.529 204)" fill="#404040"/>
</svg>
